<svg xmlns="http://www.w3.org/2000/svg" viewBox="12746 4157 104.415 31.49"><defs><style>.a{fill:#da272c;}.b{font-size:26px;font-family:DIN-Bold, DIN;font-weight:700;}</style></defs><g transform="translate(12467 3803)"><g transform="translate(277.615 354)"><path class="a" d="M89.4,22.5a4,4,0,0,1-6.8-2.8,3.631,3.631,0,0,1,1.2-2.8,3.361,3.361,0,0,1,2.8-1.1,3.691,3.691,0,0,1,2.8,1.1,4.106,4.106,0,0,1,1.1,2.8,3.552,3.552,0,0,1-1.1,2.8m2.5-8.1a7.254,7.254,0,0,0-5.3-2.2,6.882,6.882,0,0,0-5.2,2.2,7.318,7.318,0,0,0-2.2,5.4,6.947,6.947,0,0,0,2.2,5.3,6.882,6.882,0,0,0,5.2,2.2,7.671,7.671,0,0,0,5.3-2.2,7.321,7.321,0,0,0,2.2-5.3,7.318,7.318,0,0,0-2.2-5.4"/><path class="a" d="M39.4,8.5a8.755,8.755,0,0,0-6.5,2.7,8.978,8.978,0,0,0-2.7,6.6,8.978,8.978,0,0,0,2.7,6.6,8.755,8.755,0,0,0,6.5,2.7A8.636,8.636,0,0,0,45,25.2a9,9,0,0,0,3.2-4.9H44.4a6.773,6.773,0,0,1-2,2.4,5.861,5.861,0,0,1-3.1.9,5.439,5.439,0,0,1-4-1.7,5.664,5.664,0,0,1-1.7-4.1,5.44,5.44,0,0,1,1.7-4.1,5.439,5.439,0,0,1,4-1.7,5.861,5.861,0,0,1,3.1.9,5.2,5.2,0,0,1,2,2.4h3.8a9.009,9.009,0,0,0-8.8-6.8"/><path class="a" d="M63.7,20.3l.7-.4v1.5a3,3,0,0,1-1,2.6,3.6,3.6,0,0,1-2.2.7,2.01,2.01,0,0,1-1.3-.4,1.978,1.978,0,0,1-.5-1.4,1.8,1.8,0,0,1,.9-1.6,4.3,4.3,0,0,1,1.7-.5Zm-1.5-8.1c-2.4,0-4.1.6-5.1,1.9a5.708,5.708,0,0,0-1,3.1h3.6a3.2,3.2,0,0,1,.5-1.3,2.226,2.226,0,0,1,1.9-.7,4.5,4.5,0,0,1,1.8.3,1.209,1.209,0,0,1,.6,1.2,1.17,1.17,0,0,1-.8,1.1l-2.8.4a10.44,10.44,0,0,0-3.1.9,4.263,4.263,0,0,0-2,3.9A4.143,4.143,0,0,0,57,26.1a4.414,4.414,0,0,0,2.9,1,6.534,6.534,0,0,0,4.6-1.5v1.5h3.6V16.6A3.823,3.823,0,0,0,66.3,13a7.946,7.946,0,0,0-4.1-.8"/><rect class="a" width="3.6" height="18.7" transform="translate(50.1 8.5)"/><path class="a" d="M76.5,12.7a5.326,5.326,0,0,0-2.5,2V12.9H70.6V27.3h3.6V20.4a4.067,4.067,0,0,1,.5-2.5,3.232,3.232,0,0,1,1.2-1.4,3.606,3.606,0,0,1,2-.6L79,16V12.3l-.9.1Z"/><rect class="a" width="12.2" height="3.2" transform="translate(92.474 10.472) rotate(-45.041)"/><rect class="a" width="3.2" height="9.3" transform="translate(85.4)"/><rect class="a" width="9.5" height="3.2" transform="translate(96.3 16.3)"/><text class="b" transform="translate(1.385 26.49)"><tspan x="0" y="0">Mi</tspan></text></g></g></svg>