<svg xmlns="http://www.w3.org/2000/svg" viewBox="12983.963 4156.643 31.342 31.329"><defs><style>.a{fill:#fff;}.b{fill:#da272c;}</style></defs><g transform="translate(12467 3803)"><g transform="translate(516.963 353.643)"><path d="M13.059,356.641H-14.408a.464.464,0,0,1-.492-.492V339.992a.464.464,0,0,1,.492-.492H13.059a.464.464,0,0,1,.492.492v16.157A.535.535,0,0,1,13.059,356.641Zm-26.981-.978H12.567V340.485H-13.922Z" transform="translate(16.566 -327.464)"/><path d="M247.907,356.641h-8.615a.464.464,0,0,1-.492-.492V339.992a.464.464,0,0,1,.492-.492h8.615a.464.464,0,0,1,.492.492v16.157A.492.492,0,0,1,247.907,356.641Zm-8.129-.978h7.637V340.485h-7.637Z" transform="translate(-221.122 -327.464)"/><path d="M35.586,350.859H25.892a.464.464,0,0,1-.492-.492V340.092a.464.464,0,0,1,.492-.492h9.694a.464.464,0,0,1,.492.492v10.281A.491.491,0,0,1,35.586,350.859Zm-9.2-.978H35.1v-9.3H26.385Z" transform="translate(-21.19 -327.558)"/><path d="M24.053,503.385H12.692a.492.492,0,1,1,0-.985h11.36a.464.464,0,0,1,.492.492A.492.492,0,0,1,24.053,503.385Z" transform="translate(-8.823 -480.083)"/><g transform="translate(19.54 13.708)"><rect class="a" width="5.876" height="6.999" transform="translate(0)"/><rect class="a" width="5.876" height="5.775" transform="translate(0 8.028)"/></g><path d="M-4.642,598.637H-34.608a.464.464,0,0,1-.492-.492v-2.152a.464.464,0,0,1,.492-.492H-4.642a.464.464,0,0,1,.492.492v2.152A.47.47,0,0,1-4.642,598.637Zm-29.474-.978H-5.134v-1.174H-34.115Z" transform="translate(35.491 -567.308)"/><path class="b" d="M255.1,347.4a3.132,3.132,0,0,0,3.036,3.13h0a3.1,3.1,0,0,0,3.036-3.13Z" transform="translate(-236.393 -334.866)"/><path d="M250.828,343.809a3.6,3.6,0,0,1-3.528-3.623.448.448,0,0,1,.145-.341.436.436,0,0,1,.341-.145h6.071a.448.448,0,0,1,.341.145.519.519,0,0,1,.145.341A3.614,3.614,0,0,1,250.828,343.809Zm-2.5-3.137a2.527,2.527,0,0,0,5,0Z" transform="translate(-229.086 -327.652)"/><path class="b" d="M246.6,240.3l.536,6.759h6.071l-1.616-6.759Z" transform="translate(-228.43 -234.525)"/><path d="M245.9,240.238h-6.071a.485.485,0,0,1-.492-.442l-.536-6.759a.566.566,0,0,1,.145-.391.519.519,0,0,1,.341-.145h4.992a.478.478,0,0,1,.492.391l1.616,6.759a.49.49,0,0,1-.1.442A.55.55,0,0,1,245.9,240.238Zm-5.63-.978h4.992l-1.37-5.775h-4.115Z" transform="translate(-221.122 -227.217)"/><path class="b" d="M62.7,347.4a3.132,3.132,0,0,0,3.036,3.13h0a3.1,3.1,0,0,0,3.036-3.13Z" transform="translate(-56.136 -334.866)"/><path d="M58.428,343.809a3.6,3.6,0,0,1-3.528-3.623.448.448,0,0,1,.145-.341.436.436,0,0,1,.341-.145h6.071a.448.448,0,0,1,.341.145.519.519,0,0,1,.145.341A3.61,3.61,0,0,1,58.428,343.809Zm-2.5-3.137a2.527,2.527,0,0,0,5,0Z" transform="translate(-48.829 -327.652)"/><path class="b" d="M64.316,240.3,62.7,247.059h6.071l.536-6.759Z" transform="translate(-56.136 -234.525)"/><path d="M61.21,239.582H55.138a.447.447,0,0,1-.391-.2.481.481,0,0,1-.1-.442l1.622-6.753a.478.478,0,0,1,.492-.391h4.992a.448.448,0,0,1,.341.145.548.548,0,0,1,.145.391L61.7,239.1A.491.491,0,0,1,61.21,239.582Zm-5.434-.978h4.992l.442-5.775H57.095Z" transform="translate(-48.575 -226.562)"/><path class="b" d="M351.3,347.4a3.132,3.132,0,0,0,3.036,3.13h0a3.1,3.1,0,0,0,3.036-3.13Z" transform="translate(-326.522 -334.866)"/><path d="M347.028,343.809a3.6,3.6,0,0,1-3.528-3.623.448.448,0,0,1,.145-.341.436.436,0,0,1,.341-.145h6.071a.448.448,0,0,1,.341.145.519.519,0,0,1,.145.341A3.614,3.614,0,0,1,347.028,343.809Zm-2.5-3.137a2.527,2.527,0,0,0,5,0Z" transform="translate(-319.214 -327.652)"/><path class="b" d="M325.7,240.3l1.616,6.759h6.071l-2.644-6.759Z" transform="translate(-302.538 -234.525)"/><path d="M326.535,239.488h-6.071a.478.478,0,0,1-.492-.391l-1.565-6.759a.49.49,0,0,1,.1-.442.6.6,0,0,1,.391-.2h4.992a.494.494,0,0,1,.442.3l2.644,6.759a.452.452,0,0,1-.05.442A.46.46,0,0,1,326.535,239.488Zm-5.68-.978H325.8l-2.3-5.775h-4.064Z" transform="translate(-295.685 -226.468)"/><path class="b" d="M158.9,347.4a3.132,3.132,0,0,0,3.036,3.13h0a3.1,3.1,0,0,0,3.036-3.13Z" transform="translate(-146.265 -334.866)"/><path d="M154.628,343.809a3.6,3.6,0,0,1-3.528-3.623.448.448,0,0,1,.145-.341.436.436,0,0,1,.341-.145h6.071a.448.448,0,0,1,.341.145.519.519,0,0,1,.145.341A3.61,3.61,0,0,1,154.628,343.809Zm-2.5-3.137a2.527,2.527,0,0,0,5,0Z" transform="translate(-138.957 -327.652)"/><path class="b" d="M159.436,240.3l-.536,6.759h6.071l-.536-6.759Z" transform="translate(-146.265 -234.525)"/><path d="M157.757,240.238h-6.071a.448.448,0,0,1-.341-.145.548.548,0,0,1-.145-.391l.536-6.759a.485.485,0,0,1,.492-.442h4.992a.485.485,0,0,1,.492.442l.536,6.759a.566.566,0,0,1-.145.391A.472.472,0,0,1,157.757,240.238Zm-5.535-.978h4.992l-.442-5.775h-4.115Z" transform="translate(-139.051 -227.217)"/><path class="b" d="M-33.5,347.4a3.132,3.132,0,0,0,3.036,3.13h0a3.1,3.1,0,0,0,3.036-3.13Z" transform="translate(33.992 -334.866)"/><path d="M-37.772,343.809a3.6,3.6,0,0,1-3.528-3.623.448.448,0,0,1,.145-.341.436.436,0,0,1,.341-.145h6.071a.448.448,0,0,1,.341.145.519.519,0,0,1,.145.341A3.61,3.61,0,0,1-37.772,343.809Zm-2.5-3.137a2.609,2.609,0,0,0,2.5,2.152,2.609,2.609,0,0,0,2.5-2.152Z" transform="translate(41.3 -327.652)"/><path class="b" d="M-30.856,240.3l-2.644,6.759h6.071l1.616-6.759Z" transform="translate(33.992 -234.525)"/><path d="M-34.479,240.331h-6.071a.615.615,0,0,1-.391-.2.466.466,0,0,1-.05-.442l2.644-6.753a.455.455,0,0,1,.442-.341h4.992a.447.447,0,0,1,.391.2.481.481,0,0,1,.1.442l-1.616,6.753C-34.037,240.186-34.233,240.331-34.479,240.331Zm-5.333-.978h4.948l1.37-5.775h-4.071Z" transform="translate(41.043 -227.311)"/><path d="M26.161,155.067H1.092a.464.464,0,0,1-.492-.492V150.17a1.358,1.358,0,0,1,1.319-1.37h23.4a1.358,1.358,0,0,1,1.319,1.37v4.405A.508.508,0,0,1,26.161,155.067Zm-24.576-.985h24.04v-3.919a.377.377,0,0,0-.341-.391H1.932a.377.377,0,0,0-.341.391v3.919Z" transform="translate(2.044 -148.8)"/></g></g></svg>