<svg xmlns="http://www.w3.org/2000/svg" xmlns:xlink="http://www.w3.org/1999/xlink" width="65" height="66" viewBox="0 0 65 66">
    <defs>
        <path id="prefix__a" d="M0 65.587L64.033 65.587 64.033 0 0 0z"/>
    </defs>
    <g fill="none" fill-rule="evenodd">
        <path stroke="#FFF" stroke-linecap="round" stroke-linejoin="round" stroke-width="2.2" d="M51.26 30.298s.13 6.907-2.312 14.991c-1.337 4.426-1.783 2.008-1.783 8.5M21.3 30.298c-.393-5.404-.875-10.252-2.063-12.092-.83-1.286-3.644-2.059-5.374.833-1.146 1.913-1.549 5.486-1.549 11.375 0 3.583 1.378 7.465 6.874 15.595 1.785 2.641 1.237 2.764 1.237 7.78"/>
        <path stroke="#FFF" stroke-linecap="round" stroke-linejoin="round" stroke-width="2.2" d="M12.314 30.298L1.1 30.298 1.1 1.1 62.934 1.1 62.934 30.298 22.069 30.298M21.3 30.298s5.387 2.76 7.227 6.324"/>
        <mask id="prefix__b" fill="#fff">
            <use xlink:href="#prefix__a"/>
        </mask>
        <path d="M17.55 64.487L49.675 64.487 49.675 53.789 17.55 53.789z" mask="url(#prefix__b)"/>
        <path stroke="#FFF" stroke-linecap="round" stroke-linejoin="round" stroke-width="2.2" d="M17.55 64.487L49.675 64.487 49.675 53.789 17.55 53.789z" mask="url(#prefix__b)"/>
        <path fill="#FFF" d="M32.24 16.143c0-.237-.079-.419-.233-.545-.155-.127-.436-.261-.844-.405-.826-.267-1.439-.553-1.838-.856-.4-.302-.601-.738-.601-1.308 0-.557.232-1.007.698-1.351.466-.344 1.058-.516 1.776-.516.758 0 1.37.177 1.831.532.463.354.688.854.671 1.5l-.009.027h-1.497c0-.313-.086-.541-.256-.682-.17-.142-.427-.213-.771-.213-.28 0-.502.068-.663.206a.638.638 0 00-.242.507c0 .194.084.35.25.467.165.117.476.264.928.441.77.228 1.354.507 1.75.836.396.328.593.779.593 1.351 0 .585-.229 1.042-.686 1.372-.456.33-1.062.495-1.816.495-.752 0-1.39-.177-1.912-.531-.521-.355-.774-.913-.76-1.674l.01-.027h1.503c0 .386.095.661.285.824.19.163.482.244.875.244.322 0 .561-.064.72-.192a.613.613 0 00.237-.502" mask="url(#prefix__b)"/>
        <path stroke="#FFF" stroke-width=".3" d="M32.24 16.143c0-.237-.079-.419-.233-.545-.155-.127-.436-.261-.844-.405-.826-.267-1.439-.553-1.838-.856-.4-.302-.601-.738-.601-1.308 0-.557.232-1.007.698-1.351.466-.344 1.058-.516 1.776-.516.758 0 1.37.177 1.831.532.463.354.688.854.671 1.5l-.009.027h-1.497c0-.313-.086-.541-.256-.682-.17-.142-.427-.213-.771-.213-.28 0-.502.068-.663.206a.638.638 0 00-.242.507c0 .194.084.35.25.467.165.117.476.264.928.441.77.228 1.354.507 1.75.836.396.328.593.779.593 1.351 0 .585-.229 1.042-.686 1.372-.456.33-1.062.495-1.816.495-.752 0-1.39-.177-1.912-.531-.521-.355-.774-.913-.76-1.674l.01-.027h1.503c0 .386.095.661.285.824.19.163.482.244.875.244.322 0 .561-.064.72-.192a.613.613 0 00.237-.502z" mask="url(#prefix__b)"/>
        <path fill="#FFF" d="M35.518 18.477L33.961 18.477 36.23 11.258 37.787 11.258z" mask="url(#prefix__b)"/>
        <path stroke="#FFF" stroke-width=".3" d="M35.518 18.477L33.961 18.477 36.23 11.258 37.787 11.258z" mask="url(#prefix__b)"/>
        <path stroke="#FFF" stroke-linecap="round" stroke-linejoin="round" stroke-width="2.2" d="M41.574 14.37a8.536 8.536 0 11-17.071.001 8.536 8.536 0 0117.07 0z" mask="url(#prefix__b)"/>
        <path fill="#FFF" d="M45.771 59.385a1.387 1.387 0 11-2.773-.001 1.387 1.387 0 012.773.001" mask="url(#prefix__b)"/>
    </g>
</svg>
