<svg xmlns="http://www.w3.org/2000/svg" xmlns:xlink="http://www.w3.org/1999/xlink" width="100" height="25" viewBox="0 0 100 25">
    <defs>
        <path id="a" d="M.717 1.028h20.796v24.933H.717z"/>
        <path id="c" d="M0 .156h17.16v20.725H0z"/>
        <path id="e" d="M.115.156h17.132v20.721H.115z"/>
    </defs>
    <g fill="none" fill-rule="evenodd">
        <path fill="#002877" d="M28.038 4.536a18.155 18.155 0 0 1 2.4-.135c2.076 0 3.582.737 3.54 2.44-.051 2.077-2.15 3.24-5.192 3.24h-1.173c-.862 0-.613-.987-.613-.987l1.038-4.558zm10.177 12.492a4.902 4.902 0 0 0-4.517-5.192c2.555-.415 5.92-2.295 5.92-5.743 0-3.676-3.698-5.649-9.274-5.649-2.41.001-4.817.192-7.197.571L19.15 18.731s-1.38 4.58 2.544 5.535c1.02.259 2.065.405 3.116.436 10.384.561 13.406-4.122 13.406-7.674zm-13.614 2.659l1.36-5.878h1.818c2.565 0 4.704.717 4.652 3.115-.062 2.68-2.814 3.77-5.805 3.77h-1.381c-.83-.125-.644-1.007-.644-1.007zM70.885 4.701c.77-.085 1.542-.123 2.316-.114 2.077 0 3.802.613 3.802 3.115 0 2.503-1.933 4.985-5.682 5.016h-.706c-1.682 0-1.204-1.402-1.204-1.402l1.474-6.615zM63.71 24.744c.842 0 2.44-.333 2.991-2.763.426-1.931 1.163-5.192 1.163-5.192.561 0 1.35.145 2.264.145 8.93 0 12.036-5.742 12.036-9.637 0-4.257-2.96-6.698-9.419-6.729a30.066 30.066 0 0 0-7.103.509l-5.244 23.667h3.312z"/>
        <g transform="translate(40.5 -.99)">
            <mask id="b" fill="#fff">
                <use xlink:href="#a"/>
            </mask>
            <path fill="#002877" d="M6.792 15.297c0-3.843 2.502-9.585 8.214-9.585 1.495 0 4.154.384 5.722 1.765 0 0 .581-1.963.747-2.773.167-.81-.135-2.076-2.585-2.918a13.726 13.726 0 0 0-4.59-.758C5.358 1.028.717 8.381.717 15.567c0 7.736 5.192 10.384 10.478 10.384a11.928 11.928 0 0 0 4.382-.643 2.625 2.625 0 0 0 1.713-1.839l.883-3.966a8.481 8.481 0 0 1-5.452 1.91c-3.718 0-5.888-2.388-5.888-6.116" mask="url(#b)"/>
        </g>
        <path fill="#002877" d="M8.453 2.282c-2.025-.956-4.299 1.755-4.434 1.91-.53.684-.98 1.426-1.34 2.212l1.153.592a18.964 18.964 0 0 1 5.67 4.227c1.381-3.386 1.163-7.945-1.049-8.941"/>
        <g transform="translate(0 2.126)">
            <mask id="d" fill="#fff">
                <use xlink:href="#c"/>
            </mask>
            <path fill="#FF7900" d="M16.366 12.545c-2.15 3.448-8.038 7.373-9.7 7.955a4.807 4.807 0 0 1-5.628-1.423A7.928 7.928 0 0 1 0 17.57C13.209 11.6 10.966 1.33 8.463.156a22.185 22.185 0 0 1 4.403 3.022 24.487 24.487 0 0 1 3.116 3.313 5.192 5.192 0 0 1 .384 6.054" mask="url(#d)"/>
        </g>
        <path fill="#002877" d="M91.654 11.223c1.392-3.385 1.163-7.944-1.038-8.941-2.035-.955-4.33 1.755-4.424 1.91a10.93 10.93 0 0 0-1.35 2.213l1.153.592a18.799 18.799 0 0 1 5.66 4.226"/>
        <g transform="translate(82.038 2.126)">
            <mask id="f" fill="#fff">
                <use xlink:href="#e"/>
            </mask>
            <path fill="#FF7900" d="M6.77 20.5a4.808 4.808 0 0 1-5.617-1.423 7.834 7.834 0 0 1-1.038-1.506C13.314 11.601 11.07 1.33 8.567.156a22.192 22.192 0 0 1 4.404 3.022 24.619 24.619 0 0 1 3.115 3.313 5.193 5.193 0 0 1 .353 6.054c-2.118 3.448-7.997 7.373-9.669 7.955" mask="url(#f)"/>
        </g>
    </g>
</svg>
