<svg xmlns="http://www.w3.org/2000/svg" width="68" height="64" viewBox="0 0 68 64">
    <path fill="#000" fill-rule="nonzero" d="M40.963 0C26.549 0 14.78 9.23 14.02 20.82 5.606 23.596 0 30.286 0 37.725c.16 5.479 2.92 10.533 7.397 13.547v11.687A1.03 1.03 0 0 0 8.415 64c.257 0 .504-.1.692-.278l8.714-8.161c1.499.251 3.015.376 4.533.375 9.501 0 17.862-4.83 21.038-12.076a35.35 35.35 0 0 0 3.176-.375l10.696 10.008c.412.39 1.056.366 1.438-.056.175-.192.272-.445.272-.708V38.378C64.715 34.214 68 28.259 68 21.986 67.986 9.869 55.866 0 40.963 0zM22.354 53.854a25.234 25.234 0 0 1-4.669-.43 1.002 1.002 0 0 0-.868.25l-7.37 6.94v-9.897c-.001-.345-.169-.667-.448-.86-4.452-3.068-6.963-7.537-6.963-12.146 0-6.329 4.737-12.089 11.917-14.698.07.937.22 1.866.448 2.776a20.618 20.618 0 0 0 6.528 10.826c.19.18 7.085 7.12 20.183 7.287-3.162 6.038-10.464 9.952-18.758 9.952zm35.018-16.878c-.28.193-.447.515-.447.86v12.492l-9.366-8.758a1.006 1.006 0 0 0-.692-.278h-.19c-1.79.34-3.608.512-5.43.514-9.853 0-15.811-3.914-18.73-6.426a20.782 20.782 0 0 1-6.216-9.966 15.97 15.97 0 0 1-.407-3.484c.081-10.91 11.292-19.862 25.069-19.862 13.776 0 24.987 8.925 24.987 19.904 0 5.746-3.121 11.215-8.578 15.004z"/>
</svg>
