<svg xmlns="http://www.w3.org/2000/svg" xmlns:xlink="http://www.w3.org/1999/xlink" width="143" height="106" viewBox="0 0 143 106">
    <defs>
        <path id="oz12gvhw5a" d="M0 0.239L130.585 0.239 130.585 84 0 84z"/>
        <path id="e79lsasfhc" d="M0 84L129 84 129 1 0 1z"/>
    </defs>
    <g fill="none" fill-rule="evenodd">
        <g>
            <g transform="translate(-1033 -551) rotate(-11 3503.297 -5072.214)">
                <g>
                    <mask id="l7o14ulq0b" fill="#fff">
                        <use xlink:href="#oz12gvhw5a"/>
                    </mask>
                    <path fill="#C92A1E" d="M130.585 78.524c0 3.022-2.404 5.476-5.358 5.476H5.363C2.397 84 0 81.546 0 78.524v-72.8C0 2.703 2.397.24 5.363.24h119.864c2.954 0 5.358 2.463 5.358 5.486v72.8z" mask="url(#l7o14ulq0b)"/>
                </g>
                <path fill="#FEFEFE" d="M42.56 39.218c-5.583 0-9.676 5.031-9.676 10.35 0 5.498 3.98 10.23 9.676 10.23 5.575 0 9.545-4.802 9.545-10.173 0-5.263-3.97-10.407-9.545-10.407m0 27.782C32.942 67 25 59.134 25 49.567 25 39.927 32.823 32 42.56 32 52.288 32 60 39.81 60 49.446 60 59.371 52.53 67 42.56 67M82.697 66V49.223c0-4.732-.721-9.93-6.257-9.93-5.435 0-6.143 5.494-6.143 10.054V66H63V18h7.297v17.499c2.24-2.293 4.779-3.423 7.905-3.423 3.445 0 7.286 2.07 9.378 5.029 1.97 2.78 2.42 6.436 2.42 9.87V66h-7.303z"/>
                <mask id="1ddikj2mud" fill="#fff">
                    <use xlink:href="#e79lsasfhc"/>
                </mask>
                <path fill="#FEFEFE" d="M96 66h8v-7.486h-8V66zm0-11.11h8V18h-8v36.89z" mask="url(#1ddikj2mud)"/>
            </g>
        </g>
    </g>
</svg>
