<svg xmlns="http://www.w3.org/2000/svg" width="49" height="35" viewBox="0 0 49 35">
    <g fill="none" fill-rule="evenodd" stroke="#000" stroke-linecap="round" stroke-linejoin="round">
        <path d="M27.825 8.854v-6.76H46.12v32.232H33.2"/>
        <path d="M15.39 34.326V8.854L33.063 12.9v21.425zM.626 34.326h16.01M46.12 34.326h2.292M42.625 7.5h-6M42.625 11.5h-6M42.625 16.5h-6M42.625 20.5h-6M42.625 25.5h-6M42.625 30.5h-6M22.625 18.5h-3M22.625 22.5h-3M22.625 26.5h-3M22.625 31.5h-3M29.625 18.5h-3M29.625 22.5h-3M29.625 26.5h-3M29.625 31.5h-3"/>
        <path d="M2.625 34V1h18v5.47M6.625 7.5h6M6.625 11.5h6M6.625 16.5h6M6.625 20.5h6M6.625 25.5h6M6.625 30.5h6"/>
    </g>
</svg>
