<svg xmlns="http://www.w3.org/2000/svg" xmlns:xlink="http://www.w3.org/1999/xlink" width="1440" height="478" viewBox="0 0 1440 478">
    <defs>
        <path id="a" d="M.531 0H1646.47v478H.53z"/>
    </defs>
    <g fill="none" fill-rule="evenodd" transform="matrix(1 0 0 -1 -121 478)">
        <mask id="b" fill="#fff">
            <use xlink:href="#a"/>
        </mask>
        <use fill="#F7F7F7" xlink:href="#a"/>
        <g mask="url(#b)" opacity=".235">
            <path fill="#B4B4B4" d="M1343.543-120.329l-22.394 38.784-.055.096 22.338 38.692-22.229 38.503h-44.674l-22.395 38.786-.055.095 22.34 38.688-22.113 38.302-22.176-38.402-.052-.094h-44.462l22.17-38.402.057-.095-22.397-38.784-.051-.094h-44.897L1120.1 34.528l-.053.096 22.34 38.691-22.229 38.502h-44.457l-22.286-38.596-.054-.096h-44.898l-22.396 38.788-.053.095 22.392 38.788.057.095h44.458l-22.17 38.398-.053.094 22.392 38.789.056.094h44.678l22.227 38.501-.004.006 22.34 38.694-22.229 38.5h-44.457l-22.286-38.597-.054-.094h-44.896l-22.339 38.69H941.45l-22.395 38.786-.054.094 22.393 38.791.056.094h44.459l-22.17 38.396-.055.094 22.393 38.793.057.094h44.899l22.22-38.491 22.173 38.401.056.095h44.46l-22.172 38.402-.055.094 22.394 38.786.057.094h44.898l22.393-38.784.056-.096-22.338-38.692 22.229-38.505h44.675l22.392-38.784.056-.094-22.34-38.693 22.114-38.3 22.174 38.4.055.096h44.46l-22.171 38.4-.055.097 22.395 38.783.055.095h44.895l22.393-38.784.055-.094-22.339-38.693 22.23-38.5h44.677l22.34-38.693h44.458l22.284 38.596.056.096h44.898l22.393-38.788.056-.094-22.395-38.785-.054-.095h-44.46l22.17-38.402.055-.095-22.395-38.784-.054-.095h-44.679l-22.123-38.319h44.466l22.338-38.69h44.678l22.393-38.788.056-.095-22.395-38.787-.054-.095h-44.459l22.17-38.398.054-.095-22.394-38.788-.053-.095h-44.9l-22.221 38.49-22.173-38.4-.056-.096h-44.46l22.171-38.4.055-.095-22.394-38.786-.055-.094h-44.898zm-22.009 38.88l22.23-38.5h44.457l22.229 38.5-22.23 38.501h-44.457l-22.229-38.5zm67.124 38.877h44.246l22.124 38.318h-44.248l-22.122-38.318zm74.317 51.34l-7.407-12.83.006-.012-.002-.002 22.222-38.491h44.458l22.229 38.502-22.224 38.493-.005.008h-44.458l-14.82-25.668zm-134.031 0l-7.41-12.833 22.23-38.502h44.239l-22.17 38.397-.056.096 22.234 38.51h-44.248l-14.82-25.668zm37.273-12.842l22.115-38.3 22.118 38.309-14.82 25.667-7.294 12.634-22.119-38.31zm37.153 13.032l7.41-12.832h44.238l-22.114 38.302h-44.237l14.703-25.47zm-148.85 25.67l22.229-38.502h44.454l14.82 25.667 7.41 12.834-22.23 38.498h-44.454l-22.23-38.498zm-134.03-.004l22.228-38.498h44.455l22.229 38.498-22.229 38.501h-44.455l-22.228-38.501zm312.745-.006l22.111-38.299 14.708 25.474 7.41 12.834-22.113 38.299-22.116-38.308zm74.423 51.525l-7.408-12.833 22.224-38.493.004-.008h44.458l22.228 38.501-22.228 38.501h-44.458l-14.82-25.668zM1388.657 34.81h44.247l22.122 38.316h-44.246l-22.123-38.316zm89.137.008h44.238l-22.114 38.304h-44.24l22.116-38.304zm-134.03 0h44.238l-22.115 38.304h-44.24l22.116-38.304zm29.863 51.326l-7.41-12.833 22.114-38.3 22.174 38.401.055.096h44.46l-14.706 25.47-7.41 12.834h-44.457l-14.82-25.668zm59.608 25.86l14.819-25.67 7.41-12.832h44.454l14.82 25.667 7.41 12.835-22.23 38.498h-44.454l-22.229-38.498zm-89.417.1l.054-.095-22.23-38.507h44.245l14.82 25.667 7.41 12.835-22.23 38.498h-44.237l22.168-38.398zM1187.61 73.501h44.245l22.124 38.316h-44.248l-22.121-38.316zm74.318 51.342l-7.408-12.834.005-.01h-.001l22.224-38.492h44.24l-22.171 38.4-.055.096 22.234 38.506h-44.248l-14.82-25.666zm-134.03 0l-7.409-12.835 22.228-38.5h44.24l-22.172 38.395-.054.097 22.234 38.51h-44.248l-14.819-25.667zm-141.444-12.835l22.23-38.5h44.456l22.23 38.5-14.82 25.668-7.41 12.833h-44.457l-22.23-38.501zm312.748-.005l22.113-38.3 22.116 38.305-22.112 38.299-22.117-38.304zm-134.03-.003l22.113-38.298 22.116 38.306-14.819 25.668-7.293 12.63L1165.174 112zm201.044 38.69l22.23-38.497h44.457l22.124 38.316h-44.468l-22.224 38.493-22.119-38.311zm-163.894-25.656l7.409-12.835h44.237l-22.113 38.302h-44.237l14.704-25.467zm-134.031 0l7.41-12.835h44.457l14.818 25.666 7.41 12.835-22.112 38.302-22.175-38.406-.055-.095h-44.457l14.704-25.467zm163.895 25.657l22.113-38.3 14.709 25.474 7.41 12.835-22.113 38.302-22.12-38.311zm74.426 51.527l-7.41-12.835 22.229-38.5h44.455l22.124 38.319h-44.468l-22.223 38.487-14.707-25.47zm-119.005-51.335h44.248l22.124 38.319h-44.248l-22.124-38.319zm-134.03 0h44.247l22.124 38.319h-44.247l-22.124-38.319zm342.383 51.342l-7.41-12.833 22.23-38.501h44.457l22.23 38.501-14.82 25.666-7.41 12.832h-44.458l-14.82-25.665zm-119.212-51.334h44.238l-22.114 38.301h-44.238l22.114-38.301zm-134.03 0h44.237l-22.114 38.301h-44.237l22.113-38.301zm-111.58 38.492l22.113-38.3 22.173 38.405.056.094h44.457l-14.704 25.47-7.409 12.833h-44.457l-22.23-38.502zm141.444 12.835l-7.41-12.835 22.113-38.298 22.116 38.307-22.113 38.297-14.706-25.47zm82.042-12.644h44.248l14.82 25.667 7.303 12.65h-44.247l-22.124-38.317zm-156.47 38.501l14.82-25.666 7.41-12.835h44.457l14.82 25.667 7.303 12.65h-44.467l-22.226 38.492-22.117-38.308zm372.233-25.66l7.41-12.833h44.457l22.228 38.5-22.113 38.303-22.173-38.405-.055-.095h-44.46l14.706-25.47zm-126.625-12.833h44.238l-22.114 38.303h-44.24l22.116-38.303zm-134.031 0h44.237l-14.703 25.47-7.41 12.833h-44.24l22.116-38.303zm119.212 51.335l-7.304-12.651h44.468l22.223-38.493 14.71 25.475 7.409 12.833-22.23 38.502h-44.457l-14.82-25.666zm-96.757-12.842l14.82-25.666 7.293-12.635 22.118 38.307-14.82 25.668-7.294 12.636-22.117-38.31zm223.488.19h44.247l22.122 38.318h-44.247l-22.122-38.317zm-260.761 12.652l-7.304-12.651h44.246l22.122 38.317h-44.246l-14.818-25.666zm215.866-12.645h44.24l-22.116 38.306h-44.24l22.116-38.306zm-141.44 12.835l7.409-12.835h44.24l-22.116 38.306h-44.24l14.707-25.47zm-126.622-12.835h44.24l-22.116 38.306h-44.24l22.116-38.306zm297.927 51.329l-7.41-12.833 22.115-38.304 22.172 38.406.056.095h44.458l-14.705 25.469-7.409 12.833h-44.458l-14.82-25.666zm-141.442-12.833l22.113-38.3 14.707 25.472 7.41 12.833-22.113 38.3-22.117-38.305zm-178.607.19h44.467l22.223-38.49 14.707 25.472 7.409 12.833-22.229 38.503h-44.455l-22.122-38.318zm379.656 38.5l14.82-25.667 7.409-12.833h44.457l22.23 38.5-22.23 38.5h-44.457l-22.23-38.5zm-126.625 12.835l-7.41-12.835 22.23-38.5h44.457l14.82 25.666 7.41 12.834-22.23 38.5h-44.457l-14.82-25.665zm-119-51.335h44.246l22.124 38.318h-44.248l-22.123-38.318zm89.136.007h44.24l-22.116 38.302h-44.237l22.113-38.302zm-134.031 0h44.239l-22.115 38.302h-44.237l22.113-38.302zm29.865 51.328l-7.41-12.835 22.114-38.301 22.117 38.31-22.114 38.3-14.707-25.474zm104.22 25.96l.055-.096-22.234-38.51h44.249l14.82 25.67 7.41 12.832-22.23 38.502h-44.24l22.17-38.398zm-134.03 0l.056-.096-22.235-38.51h44.248l14.82 25.67 7.408 12.831-.005.01-22.223 38.493h-44.239l22.17-38.398zm66.962-38.597h44.239l-14.706 25.47-7.409 12.833h-44.238l22.114-38.303zm-148.85 51.334l-7.409-12.833 22.228-38.501h44.238l-22.17 38.398-.054.095 22.231 38.507h-44.245L1127.9 356.99zm-134.03 0l-7.411-12.833 22.229-38.501h44.454l22.23 38.501-14.82 25.666-7.41 12.833h-44.454l-14.819-25.666zm305.334-12.84l14.82-25.667 7.292-12.632 22.117 38.306-22.113 38.298-22.116-38.306zm-134.03 0l22.113-38.3 22.116 38.307-22.113 38.298-22.115-38.306zm89.452.19h44.248l22.122 38.316h-44.246l-22.124-38.316zm-186.333 12.842l7.41-12.833h44.457l14.818 25.665 7.41 12.832-22.112 38.305-22.175-38.405-.055-.095h-44.46l14.707-25.47zm-148.85 25.664l22.228-38.497h44.457l14.82 25.665 7.41 12.832-22.23 38.505H941.67l-22.229-38.505zm379.761 38.688l22.229-38.502h44.455l22.23 38.502-22.23 38.497h-44.455l-22.229-38.497zm-126.62 12.832l-7.41-12.832 22.23-38.502h44.453l22.23 38.502-22.23 38.497h-44.453l-14.82-25.665zm-119.003-51.334h44.245l22.124 38.319h-44.247l-22.122-38.319zm89.138.005h44.24l-22.116 38.305h-44.236l22.112-38.305zm-134.031 0h44.24l-22.116 38.305h-44.237l22.113-38.305zm29.865 51.329l-7.411-12.832 22.114-38.302 22.115 38.31-22.11 38.296-14.708-25.472zm104.22 25.963l.055-.096-22.232-38.51h44.247l14.82 25.667 7.41 12.83-22.23 38.507h-44.24l22.17-38.398zm-178.647-.108l22.228-38.498h44.458l14.819 25.667 7.409 12.83-.008.013.001.003-22.221 38.49h-44.458l-22.228-38.505zm111.577-38.49h44.237l-14.705 25.468-7.409 12.832h-44.236l22.113-38.3zm22.453 38.49l14.82-25.664 7.294-12.634 22.119 38.31-22.114 38.3-22.119-38.312zm-44.58.19h44.25l22.122 38.32h-44.245l-22.126-38.32zm44.58 77.198l22.23-38.501h44.457l22.23 38.5-22.23 38.5h-44.458l-22.229-38.5z"/>
            <path fill="#2F302F" d="M1544.6 305.277h-43.082c-.098-.748-.712-1.334-1.486-1.334-.21 0-.41.045-.591.118l-21.528-37.283 14.82-25.668 7.41-12.834h44.457l21.54 37.309c-.366.28-.616.699-.616 1.193 0 .494.25.914.616 1.192l-21.54 37.307zm-134.035 0h-43.082c-.098-.748-.71-1.334-1.486-1.334-.21 0-.41.045-.59.118l-14.12-24.45-7.407-12.833 21.527-37.286c.18.075.38.118.59.118.775 0 1.39-.585 1.486-1.334h43.082l14.82 25.667 6.721 11.642c-.366.28-.616.699-.616 1.193 0 .494.25.914.616 1.192l-21.54 37.307zm-67.016 38.692h-44.456l-21.54-37.307c.366-.28.616-.697.616-1.194 0-.495-.25-.915-.617-1.191l14.132-24.475 7.409-12.833h44.456l14.818 25.666 6.722 11.642c-.367.276-.616.696-.616 1.19 0 .498.25.915.616 1.195l-21.54 37.307zm.7 76.166a1.57 1.57 0 0 0-.59-.12c-.775 0-1.389.587-1.487 1.334h-43.08l-21.54-37.303c.367-.28.617-.696.617-1.194 0-.494-.25-.916-.617-1.191l21.54-37.311h44.457l22.228 38.502-21.528 37.283zm-134.032-77.382a1.551 1.551 0 0 0-.586-.118c-.775 0-1.39.586-1.487 1.334h-43.08l-21.541-37.307c.365-.28.619-.7.619-1.194 0-.495-.254-.915-.62-1.194l21.541-37.305h43.081c.096.748.712 1.335 1.487 1.335.208 0 .407-.045.586-.12l14.12 24.45 7.41 12.834-21.53 37.285zm21.53 40.099l-22.23 38.5h-43.075c-.099-.75-.712-1.333-1.486-1.333-.212 0-.411.042-.596.12l-14.116-24.456-7.41-12.831 22.23-38.502h43.08c.099.748.712 1.335 1.487 1.335.208 0 .407-.043.586-.12l21.53 37.287zm-89.243 77.19h-43.078c-.1-.747-.713-1.335-1.487-1.335-.212 0-.412.046-.596.124l-21.526-37.288 14.819-25.667 7.41-12.833h44.458l14.82 25.666 6.72 11.642c-.363.279-.614.699-.614 1.192 0 .492.251.912.614 1.192l-21.54 37.306zm.7 76.17c-.182-.079-.381-.12-.594-.12-.773 0-1.387.583-1.486 1.334h-43.078l-22.23-38.498 21.527-37.29c.184.078.384.119.596.119.774 0 1.387-.584 1.487-1.335h43.078l22.228 38.506-21.529 37.284zm-134.732-76.17h-44.458l-21.54-37.307c.365-.277.616-.696.616-1.192 0-.493-.251-.913-.617-1.194l21.541-37.306h44.458l14.82 25.666 6.722 11.64c-.368.28-.617.7-.617 1.194 0 .496.25.915.617 1.192l-21.542 37.306zm22.56-115.692h43.081c.1.748.71 1.335 1.486 1.335.209 0 .408-.043.587-.12l21.529 37.287-14.819 25.664-7.41 12.836h-43.078c-.1-.75-.712-1.333-1.487-1.333-.211 0-.41.042-.591.12l-14.118-24.456-7.41-12.831 22.23-38.502zm200.342-114.858c.181.075.382.118.593.118.773 0 1.387-.585 1.486-1.334h43.081l22.228 38.502-14.819 25.666-6.708 11.617a1.581 1.581 0 0 0-.59-.118c-.775 0-1.39.586-1.487 1.334h-43.08l-14.82-25.666-6.723-11.639c.368-.28.62-.7.62-1.194 0-.497-.252-.917-.62-1.193l20.839-36.093zm-21.527-40.099l14.82-25.666 7.41-12.834h44.457l14.82 25.667 6.721 11.642c-.366.278-.617.698-.617 1.191 0 .495.25.915.617 1.195l-21.541 37.308h-43.081c-.099-.748-.713-1.335-1.486-1.335a1.5 1.5 0 0 0-.593.12l-21.527-37.288zm-67.343 38.503h-43.082c-.099-.748-.713-1.335-1.486-1.335a1.49 1.49 0 0 0-.593.12l-21.526-37.288 14.819-25.666 7.41-12.834h44.458l14.82 25.667 6.72 11.642c-.365.278-.617.698-.617 1.191 0 .495.252.915.617 1.195l-21.54 37.308zM1008.8 150.7l22.229-38.498h43.082c.097.748.708 1.335 1.485 1.335.21 0 .408-.044.59-.12l21.529 37.283-14.819 25.669-7.41 12.833h-43.081c-.099-.747-.712-1.334-1.486-1.334-.212 0-.411.044-.593.12L1008.8 150.7zm156.263-38.498h43.078c.1.748.712 1.335 1.487 1.335.208 0 .408-.044.59-.12l21.529 37.283-14.82 25.669-7.41 12.833h-43.079c-.097-.747-.711-1.334-1.486-1.334-.21 0-.41.044-.592.12l-14.116-24.453-7.41-12.835 22.23-38.498zm-21.54-40.076l21.54-37.308h43.078c.1.75.712 1.334 1.487 1.334.208 0 .408-.04.59-.12l21.529 37.285-21.53 37.29a1.503 1.503 0 0 0-.59-.12c-.774 0-1.387.586-1.486 1.334h-43.078l-21.54-37.31c.365-.28.615-.699.615-1.194s-.25-.913-.615-1.191zm154.868 41.292c.183.075.383.119.591.119.776 0 1.389-.587 1.486-1.335h43.08l21.541 37.307c-.364.276-.613.692-.616 1.182-.003.498.248.921.616 1.202l-21.54 37.309h-43.08c-.098-.747-.711-1.334-1.487-1.334-.208 0-.408.044-.59.12l-14.118-24.453-7.41-12.835 21.527-37.282zm-21.527-40.098l21.527-37.287c.183.078.383.12.591.12.776 0 1.389-.588 1.486-1.335h43.08l14.82 25.668 6.721 11.64c-.367.28-.616.7-.616 1.194s.25.914.616 1.19l-21.54 37.311h-43.08c-.098-.748-.711-1.334-1.487-1.334-.208 0-.408.042-.59.12l-21.528-37.287zm88.544-75.98c.179.076.373.12.581.122.777.004 1.396-.582 1.496-1.334h43.08l21.54 37.307c-.362.277-.612.692-.615 1.184-.003.497.249.92.616 1.201l-14.13 24.475-7.41 12.835h-43.083c-.098-.748-.71-1.335-1.486-1.335-.21 0-.41.042-.59.119l-14.12-24.452-7.407-12.834 21.528-37.287zm-21.528-40.097l22.227-38.498h43.083c.096.745.705 1.33 1.476 1.334.214.003.416-.041.6-.119l21.527 37.283-22.228 38.503h-43.082c-.096-.743-.705-1.328-1.477-1.334a1.51 1.51 0 0 0-.6.121l-21.526-37.29zM1500.14-3.87h43.08c.097.743.707 1.33 1.478 1.334.213.001.415-.043.6-.121l21.528 37.287-22.23 38.502h-43.081c-.099-.746-.706-1.33-1.478-1.335a1.501 1.501 0 0 0-.6.119l-14.117-24.452-7.41-12.834 22.23-38.5zm-22.56 115.693h-44.455l-22.23-38.501 14.82-25.667 6.71-11.621c.179.076.374.12.581.12.776.006 1.396-.58 1.495-1.334h43.079l14.819 25.668 6.721 11.64c-.363.276-.613.692-.616 1.185-.003.498.248.92.616 1.2l-21.54 37.31zm-44.455 77.763h43.082c.098.747.712 1.335 1.485 1.335.21 0 .41-.043.592-.12l21.528 37.286-14.82 25.667-7.41 12.835h-43.081c-.097-.751-.713-1.335-1.486-1.335a1.5 1.5 0 0 0-.59.12l-14.119-24.453-7.41-12.834 22.229-38.501zm133.924 75.668a1.5 1.5 0 0 0-.59.12l-21.584-37.383-.055-.094h-44.678l-21.54-37.308c.365-.28.616-.7.616-1.195 0-.842-.683-1.524-1.526-1.524-.773 0-1.388.587-1.485 1.334h-43.303l-22.339 38.693h-43.082c-.098-.748-.71-1.335-1.486-1.335-.843 0-1.524.682-1.524 1.525 0 .494.25.914.616 1.19l-21.54 37.312h-44.456l-22.229-38.502 21.527-37.286c.183.077.383.12.591.12.776 0 1.389-.588 1.486-1.335h43.3l21.64-37.478a1.523 1.523 0 0 0 2.114-1.394 1.527 1.527 0 0 0-1.516-1.537c-.213 0-.415.045-.6.122l-21.526-37.285 21.527-37.286c.18.075.38.118.59.118.775 0 1.39-.587 1.486-1.333h43.082l22.283 38.596.056.095h44.895l21.64-37.48c.179.077.373.12.58.122.778.004 1.399-.583 1.498-1.333h43.3l22.394-38.789.055-.094-21.651-37.498c.364-.276.613-.691.617-1.183a1.525 1.525 0 0 0-1.516-1.535c-.779-.004-1.397.582-1.496 1.334h-43.301l-22.34 38.69h-43.078c-.097-.741-.706-1.326-1.477-1.333-.213 0-.416.042-.6.119l-21.528-37.285 22.284-38.597.055-.097-21.652-37.495c.363-.276.615-.692.617-1.183a1.526 1.526 0 0 0-1.515-1.535c-.78-.004-1.398.583-1.497 1.334h-43.301l-22.393 38.785-.056.094 21.651 37.501c-.364.277-.613.691-.616 1.183-.003.498.248.921.616 1.203l-21.54 37.307h-43.08c-.097-.748-.711-1.334-1.487-1.334-.842 0-1.524.682-1.524 1.525 0 .494.25.914.617 1.194l-21.596 37.402-.056.096 21.652 37.497c-.366.28-.617.699-.617 1.195 0 .493.25.912.617 1.191l-21.541 37.307h-44.456l-21.543-37.307c.368-.28.618-.698.618-1.19 0-.497-.25-.916-.618-1.196l21.595-37.406.057-.094-21.652-37.495c.368-.28.618-.698.618-1.194 0-.84-.683-1.525-1.525-1.525-.775 0-1.388.586-1.487 1.334h-43.298l-21.64 37.474a1.525 1.525 0 1 0 0 2.812l21.53 37.29-22.23 38.497h-44.457l-21.54-37.307c.365-.28.616-.698.616-1.19 0-.844-.683-1.526-1.526-1.526-.777 0-1.39.586-1.485 1.334h-43.303l-22.395 38.785-.054.094 21.651 37.501c-.367.278-.616.698-.616 1.191 0 .843.682 1.527 1.525 1.527.774 0 1.387-.588 1.486-1.335h43.08l21.542 37.307c-.366.28-.617.7-.617 1.194 0 .844.684 1.524 1.526 1.524.773 0 1.387-.585 1.486-1.334h43.302l21.636-37.476c.181.077.381.12.592.12.775 0 1.389-.588 1.486-1.335h43.08l21.54 37.309c-.366.278-.616.698-.616 1.192s.25.914.616 1.19l-20.84 36.097a1.479 1.479 0 0 0-.587-.12c-.775 0-1.388.587-1.487 1.335h-43.301l-21.636 37.473a1.524 1.524 0 1 0-.003 2.812l21.528 37.287-22.228 38.501h-44.458l-21.54-37.307c.365-.277.618-.696.618-1.194 0-.844-.682-1.525-1.525-1.525-.777 0-1.39.586-1.486 1.334h-43.303l-22.338 38.692h-44.678l-21.639 37.478a1.523 1.523 0 0 0-2.115 1.405 1.527 1.527 0 0 0 2.115 1.405l21.582 37.379.057.094h44.899l21.637-37.473c.18.074.38.12.591.12.775 0 1.388-.587 1.487-1.335h43.078l21.541 37.306c-.363.282-.613.7-.613 1.192 0 .495.25.915.613 1.191l-21.597 37.41-.053.095 22.392 38.783.056.097h43.299c.099.747.713 1.332 1.486 1.332.843 0 1.526-.68 1.526-1.523 0-.495-.25-.914-.613-1.191l21.593-37.402.057-.096-22.339-38.696 21.526-37.286c.185.077.384.123.596.123.774 0 1.387-.587 1.486-1.335h43.296l22.392-38.788.057-.094-21.652-37.498c.368-.277.62-.696.62-1.194 0-.495-.252-.916-.62-1.194l21.543-37.308h43.08c.097.75.712 1.335 1.486 1.335.21 0 .41-.043.591-.12l21.527 37.287-21.527 37.285a1.527 1.527 0 0 0-2.117 1.406 1.525 1.525 0 0 0 2.117 1.406l21.583 37.379.055.096h43.3c.095.75.711 1.334 1.485 1.334.843 0 1.525-.683 1.525-1.525 0-.495-.25-.914-.616-1.192l21.596-37.403.055-.094-22.338-38.692 21.527-37.287c.18.077.38.12.59.12.775 0 1.39-.585 1.486-1.335h43.302l21.64-37.474c.18.075.38.12.59.12.773 0 1.387-.587 1.486-1.335h43.082l21.54 37.308c-.366.276-.616.696-.616 1.19 0 .843.682 1.526 1.525 1.526.774 0 1.388-.585 1.486-1.335h43.302l21.638-37.474a1.526 1.526 0 1 0 .591-2.93z"/>
        </g>
        <g mask="url(#b)" opacity=".245">
            <path fill="#B4B4B4" d="M367.56 554.329l22.393-38.784.055-.096-22.338-38.692 22.229-38.503h44.674l22.396-38.786.054-.095-22.34-38.688 22.113-38.302 22.176 38.402.052.094h44.462l-22.17 38.402-.057.095 22.397 38.784.052.094h44.896l22.397-38.782.053-.096-22.34-38.691 22.229-38.502H635.4l22.286 38.596.054.096h44.898l22.396-38.788.053-.095-22.392-38.788-.057-.095H658.18l22.17-38.398.053-.094-22.392-38.789-.056-.094h-44.678l-22.227-38.501.004-.006-22.34-38.694 22.229-38.5H635.4l22.286 38.597.054.094h44.896l22.339-38.69h44.678l22.395-38.786.054-.094-22.392-38.791-.057-.094h-44.459l22.17-38.396.055-.094-22.393-38.793-.057-.094H680.07l-22.22 38.491-22.173-38.401-.056-.095h-44.46l22.172-38.402.055-.094-22.394-38.786-.057-.094h-44.898l-22.393 38.784-.055.096 22.338 38.692-22.23 38.505h-44.675l-22.392 38.784-.056.094 22.34 38.693-22.114 38.3-22.173-38.4-.056-.096h-44.46l22.171-38.4.056-.097-22.396-38.783-.055-.095h-44.895l-22.393 38.784-.055.094 22.34 38.693-22.23 38.5h-44.678l-22.34 38.693H211.18l-22.284-38.596-.056-.096h-44.898l-22.393 38.788-.055.094 22.394 38.785.054.095h44.46l-22.17 38.402-.054.095 22.394 38.784.055.095h44.678l22.123 38.319h-44.465l-22.34 38.69h-44.677l-22.393 38.788-.055.095 22.394 38.787.054.095h44.459l-22.17 38.398-.054.095 22.394 38.788.054.095h44.9l22.22-38.49 22.173 38.4.056.096h44.46l-22.171 38.4-.055.095 22.394 38.786.055.094h44.898zm22.008-38.88l-22.23 38.5h-44.457l-22.229-38.5 22.23-38.501h44.457l22.229 38.5zm-67.124-38.877h-44.246l-22.124-38.318h44.248l22.122 38.318zm-74.317-51.34l7.407 12.83-.006.012.002.002-22.222 38.491h-44.457l-22.23-38.502 22.224-38.493.006-.008h44.457l14.82 25.668zm134.031 0l7.41 12.833-22.23 38.502H323.1l22.17-38.397.056-.096-22.234-38.51h44.248l14.82 25.668zm-37.273 12.842l-22.115 38.3-22.118-38.309 14.82-25.667 7.294-12.634 22.12 38.31zm-37.153-13.032l-7.41 12.832h-44.238l22.114-38.302h44.237l-14.703 25.47zm148.85-25.67l-22.228 38.502h-44.455l-14.82-25.667-7.41-12.834 22.23-38.498h44.455l22.229 38.498zm134.03.004l-22.228 38.498h-44.455L501.7 399.376l22.229-38.501h44.455l22.228 38.501zm-312.745.006l-22.111 38.299-14.707-25.474-7.41-12.834 22.112-38.299 22.116 38.308zm-74.423-51.525l7.408 12.833-22.223 38.493-.005.008h-44.458l-22.228-38.501 22.228-38.501h44.458l14.82 25.668zm119.002 51.334h-44.248l-22.122-38.316h44.246l22.124 38.316zm-89.138-.008H189.07l22.114-38.304h44.24l-22.116 38.304zm134.03 0h-44.237l22.114-38.304h44.24l-22.116 38.304zm-29.863-51.326l7.41 12.833-22.114 38.3-22.174-38.401-.054-.096h-44.46l14.705-25.47 7.41-12.834h44.457l14.82 25.668zm-59.608-25.86l-14.819 25.67-7.41 12.832h-44.454l-14.82-25.667-7.41-12.835 22.23-38.498h44.455l22.228 38.498zm89.417-.1l-.054.095 22.23 38.507h-44.245l-14.82-25.667-7.41-12.835 22.23-38.498h44.237l-22.168 38.398zm156.207 38.602h-44.245l-22.123-38.316h44.247l22.121 38.316zm-74.318-51.342l7.408 12.834-.005.01h.001l-22.223 38.492h-44.241l22.171-38.4.056-.096-22.235-38.506h44.249l14.819 25.666zm134.03 0l7.409 12.835-22.228 38.5h-44.24l22.173-38.395.053-.097-22.234-38.51h44.248l14.819 25.667zm141.445 12.835l-22.23 38.5H657.96l-22.23-38.5 14.82-25.668 7.41-12.833h44.457l22.23 38.501zm-312.749.005l-22.113 38.3-22.116-38.305 22.112-38.299 22.117 38.304zm134.03.003l-22.113 38.298-22.116-38.306 14.82-25.668 7.292-12.63L545.929 322zm-201.044-38.69l-22.23 38.497h-44.457l-22.124-38.316h44.469l22.223-38.493 22.12 38.311zm163.894 25.656l-7.409 12.835h-44.237l22.113-38.302h44.237l-14.704 25.467zm134.031 0l-7.41 12.835h-44.457l-14.818-25.666-7.41-12.835 22.112-38.302 22.176 38.406.054.095h44.457l-14.704 25.467zM478.915 283.31l-22.113 38.3-14.709-25.474-7.41-12.835 22.113-38.302 22.12 38.311zm-74.426-51.527l7.41 12.835-22.229 38.5h-44.455l-22.124-38.319h44.468l22.223-38.487 14.707 25.47zm119.005 51.335h-44.248l-22.123-38.319h44.247l22.124 38.319zm134.03 0h-44.247l-22.124-38.319H635.4l22.125 38.319zm-342.383-51.342l7.41 12.833-22.229 38.501h-44.458l-22.23-38.501 14.82-25.666 7.41-12.832h44.458l14.82 25.665zm119.213 51.334h-44.239l22.114-38.301h44.238l-22.113 38.301zm134.03 0h-44.238l22.114-38.301h44.237l-22.113 38.301zm111.58-38.492l-22.114 38.3-22.173-38.405-.056-.094h-44.457l14.704-25.47 7.409-12.833h44.457l22.23 38.502zM538.52 231.782l7.409 12.835-22.112 38.298-22.117-38.307 22.113-38.297 14.707 25.47zm-82.043 12.644h-44.248l-14.819-25.667-7.303-12.65h44.247l22.123 38.317zm156.47-38.501l-14.82 25.666-7.41 12.835H546.26l-14.82-25.667-7.303-12.65h44.467l22.226-38.492 22.117 38.308zm-372.233 25.66l-7.41 12.833h-44.457l-22.228-38.5 22.113-38.303 22.173 38.405.055.095h44.46l-14.706 25.47zm126.625 12.833H323.1l22.114-38.303h44.24l-22.116 38.303zm134.031 0h-44.237l14.703-25.47 7.41-12.833h44.24l-22.116 38.303zm-119.212-51.335l7.304 12.651h-44.468l-22.223 38.493-14.71-25.475-7.409-12.833 22.23-38.502h44.457l14.82 25.666zm96.757 12.842l-14.82 25.666-7.293 12.635-22.118-38.307 14.82-25.668 7.294-12.636 22.117 38.31zm-223.488-.19H211.18l-22.122-38.318h44.247l22.122 38.317zm260.761-12.652l7.304 12.651h-44.246l-22.122-38.317h44.246l14.818 25.666zm-215.866 12.645h-44.24l22.116-38.306h44.24l-22.116 38.306zm141.44-12.835l-7.408 12.835h-44.24l22.115-38.306h44.24l-14.706 25.47zm126.622 12.835h-44.24l22.116-38.306h44.24l-22.116 38.306zM270.457 154.4l7.41 12.833-22.115 38.304-22.172-38.406-.055-.095h-44.46l14.706-25.469 7.409-12.833h44.459l14.818 25.666zM411.9 167.232l-22.113 38.3-14.707-25.472-7.41-12.833 22.113-38.3 22.117 38.305zm178.607-.19H546.04l-22.223 38.49-14.707-25.472-7.409-12.833 22.229-38.503h44.455l22.122 38.318zm-379.656-38.5l-14.82 25.667-7.409 12.833h-44.457l-22.23-38.5 22.23-38.5h44.457l22.23 38.5zm126.625-12.835l7.41 12.835-22.23 38.5h-44.457l-14.82-25.666-7.41-12.834 22.23-38.5h44.457l14.82 25.665zm119 51.335H412.23l-22.124-38.318h44.249l22.122 38.318zm-89.136-.007h-44.24l22.116-38.302h44.237l-22.113 38.302zm134.031 0h-44.239l22.115-38.302h44.237l-22.113 38.302zm-29.864-51.328l7.41 12.835-22.115 38.301-22.117-38.31 22.114-38.3 14.708 25.474zm-104.222-25.96l-.054.096 22.234 38.51h-44.249l-14.82-25.67-7.41-12.832 22.23-38.502h44.24l-22.17 38.398zm134.032 0l-.057.096 22.235 38.51h-44.248l-14.82-25.67-7.408-12.831.005-.01 22.223-38.493h44.239l-22.17 38.398zm-66.962 38.597h-44.24l14.706-25.47 7.409-12.833h44.238l-22.113 38.303zM583.203 77.01l7.409 12.833-22.228 38.501h-44.238l22.17-38.398.054-.095-22.231-38.507h44.245l14.819 25.666zm134.03 0l7.411 12.833-22.229 38.501h-44.454l-22.23-38.501 14.82-25.666 7.41-12.833h44.454l14.819 25.666zM411.9 89.85l-14.82 25.667-7.292 12.632-22.117-38.306 22.113-38.298L411.9 89.85zm134.03 0l-22.112 38.3L501.7 89.842l22.113-38.298L545.93 89.85zm-89.452-.19h-44.248l-22.122-38.316h44.247l22.123 38.316zM642.81 76.818l-7.41 12.833h-44.457l-14.818-25.665-7.41-12.832 22.112-38.305 22.176 38.405.054.095h44.46l-14.707 25.47zm148.85-25.664L769.434 89.65h-44.458l-14.82-25.665-7.41-12.832 22.23-38.505h44.458l22.228 38.505zM411.9 12.466l-22.23 38.502h-44.455l-22.23-38.502 22.23-38.497h44.455l22.23 38.497zM538.52-.366l7.409 12.832-22.23 38.502h-44.453l-22.229-38.502 22.23-38.497H523.7L538.52-.366zm119.003 51.334h-44.246l-22.124-38.319H635.4l22.123 38.319zm-89.14-.005h-44.239l22.116-38.305h44.236l-22.112 38.305zm134.032 0h-44.24l22.117-38.305h44.237l-22.114 38.305zM672.55-.366l7.411 12.832-22.114 38.302-22.115-38.31 22.11-38.296L672.55-.366zM568.33-26.329l-.055.096 22.232 38.51H546.26L531.44-13.39l-7.409-12.83 22.23-38.507H590.5l-22.17 38.398zm178.647.108l-22.228 38.498h-44.457l-14.82-25.667-7.409-12.83.008-.013-.001-.003 22.222-38.49h44.457l22.228 38.505zM635.4 12.27h-44.237L605.868-13.2l7.409-12.832h44.236l-22.113 38.3zm-22.453-38.49L598.127-.557l-7.294 12.634-22.119-38.31 22.115-38.3 22.118 38.312zm44.58-.19h-44.25l-22.122-38.32H635.4l22.127 38.32zm-44.58-77.198l-22.23 38.501H546.26l-22.229-38.5 22.23-38.5h44.457l22.229 38.5z"/>
            <path fill="#2F302F" d="M166.502 128.723h43.082c.098.748.712 1.334 1.486 1.334.21 0 .41-.045.591-.118l21.528 37.283-14.82 25.668-7.409 12.834h-44.458l-21.54-37.309c.366-.28.616-.699.616-1.193 0-.494-.25-.914-.616-1.192l21.54-37.307zm134.035 0h43.082c.098.748.71 1.334 1.486 1.334.21 0 .41-.045.59-.118l14.12 24.45 7.408 12.833-21.528 37.286a1.547 1.547 0 0 0-.59-.118c-.775 0-1.39.585-1.486 1.334h-43.082l-14.82-25.667-6.72-11.642c.366-.28.615-.699.615-1.193 0-.494-.25-.914-.616-1.192l21.54-37.307zm67.016-38.692h44.457l21.54 37.307c-.366.28-.617.697-.617 1.194 0 .495.25.915.617 1.191l-14.132 24.475-7.408 12.833h-44.457l-14.818-25.666-6.722-11.642c.367-.276.617-.696.617-1.19 0-.498-.25-.915-.617-1.195l21.54-37.307zm-.7-76.166c.182.074.381.12.59.12.775 0 1.389-.587 1.487-1.334h43.08l21.54 37.303c-.366.28-.617.696-.617 1.194 0 .494.25.916.617 1.191L412.01 89.65h-44.457l-22.228-38.502 21.528-37.283zm134.032 77.382c.179.073.378.118.586.118.775 0 1.39-.586 1.487-1.334h43.081l21.54 37.307c-.365.28-.619.7-.619 1.194 0 .495.254.915.62 1.194l-21.541 37.305h-43.081c-.096-.748-.712-1.335-1.487-1.335-.208 0-.407.045-.586.12l-14.12-24.45-7.41-12.834 21.53-37.285zm-21.53-40.099l22.23-38.5h43.075c.099.75.712 1.333 1.487 1.333.21 0 .41-.042.595-.12l14.116 24.456 7.41 12.831-22.229 38.502h-43.081c-.099-.748-.712-1.335-1.487-1.335-.208 0-.407.043-.586.12l-21.53-37.287zm89.243-77.19h43.079c.099.747.712 1.335 1.486 1.335.212 0 .412-.046.596-.124l21.526 37.288-14.819 25.667-7.41 12.833h-44.458l-14.82-25.666-6.72-11.642c.363-.279.614-.699.614-1.192 0-.492-.251-.912-.614-1.192l21.54-37.306zm-.7-76.17c.182.079.381.12.594.12.773 0 1.387-.583 1.486-1.334h43.078l22.23 38.498-21.527 37.29a1.518 1.518 0 0 0-.596-.119c-.774 0-1.387.584-1.486 1.335h-43.079L546.37-64.928l21.529-37.284zm134.732 76.17h44.458l21.541 37.307c-.366.277-.617.696-.617 1.192 0 .493.251.913.617 1.194l-21.541 37.306H702.63L687.81 25.291l-6.722-11.64c.367-.28.616-.7.616-1.194 0-.496-.25-.915-.616-1.192l21.54-37.306zM680.07 89.65h-43.081c-.1-.748-.709-1.335-1.486-1.335-.209 0-.408.043-.587.12l-21.529-37.287 14.819-25.664 7.41-12.836h43.079c.098.75.711 1.333 1.486 1.333.212 0 .41-.042.591-.12l14.118 24.456 7.41 12.831-22.23 38.502zM479.728 204.508a1.56 1.56 0 0 0-.593-.118c-.773 0-1.387.585-1.486 1.334h-43.08l-22.23-38.502 14.82-25.666 6.708-11.617c.181.073.382.118.59.118.775 0 1.39-.586 1.487-1.334h43.08l14.82 25.666 6.723 11.639c-.368.28-.62.7-.62 1.194 0 .497.252.917.62 1.193l-20.839 36.093zm21.527 40.099l-14.82 25.666-7.41 12.834h-44.457l-14.82-25.667-6.721-11.642c.366-.278.617-.698.617-1.191 0-.495-.25-.915-.617-1.195l21.541-37.308h43.081c.099.748.713 1.335 1.486 1.335a1.5 1.5 0 0 0 .593-.12l21.527 37.288zm67.343-38.503h43.082c.099.748.713 1.335 1.486 1.335.212 0 .412-.041.593-.12l21.526 37.288-14.819 25.666-7.41 12.834h-44.458l-14.82-25.667-6.72-11.642c.366-.278.617-.698.617-1.191 0-.495-.251-.915-.617-1.195l21.54-37.308zM702.302 283.3l-22.229 38.498h-43.082c-.097-.748-.708-1.335-1.485-1.335-.21 0-.408.044-.59.12l-21.529-37.283 14.819-25.669 7.41-12.833h43.081c.1.747.712 1.334 1.486 1.334.212 0 .411-.044.594-.12l21.525 37.288zM546.04 321.797h-43.078c-.1-.748-.712-1.335-1.486-1.335-.209 0-.409.044-.59.12l-21.53-37.283 14.82-25.669 7.41-12.833h43.079c.097.747.711 1.334 1.486 1.334.211 0 .41-.044.592-.12l14.116 24.453 7.41 12.835-22.229 38.498zm21.54 40.076l-21.54 37.308h-43.078c-.1-.75-.712-1.334-1.486-1.334a1.48 1.48 0 0 0-.59.12l-21.53-37.285 21.53-37.29c.181.078.381.12.59.12.774 0 1.387-.586 1.486-1.334h43.078l21.54 37.31c-.365.28-.615.699-.615 1.194s.25.913.615 1.191zm-154.868-41.292a1.564 1.564 0 0 0-.591-.119c-.776 0-1.389.587-1.486 1.335h-43.08l-21.541-37.307c.364-.276.613-.692.617-1.182.002-.498-.25-.921-.617-1.202l21.54-37.309h43.08c.098.747.711 1.334 1.487 1.334.208 0 .408-.044.59-.12l14.118 24.453 7.41 12.835-21.527 37.282zm21.527 40.098l-21.527 37.287a1.49 1.49 0 0 0-.591-.12c-.776 0-1.389.588-1.486 1.335h-43.08l-14.82-25.668-6.721-11.64c.367-.28.617-.7.617-1.194s-.25-.914-.617-1.19l21.54-37.311h43.08c.098.748.711 1.334 1.487 1.334.208 0 .408-.042.59-.12l21.528 37.287zm-88.544 75.98a1.526 1.526 0 0 0-.58-.122c-.778-.004-1.397.582-1.496 1.334h-43.081l-21.54-37.307c.362-.277.612-.692.615-1.184.003-.497-.249-.92-.616-1.201l14.13-24.475 7.41-12.835h43.083c.098.748.71 1.335 1.486 1.335.21 0 .41-.042.59-.119l14.12 24.452 7.408 12.834-21.529 37.287zm21.529 40.097l-22.228 38.498h-43.083c-.096-.745-.705-1.33-1.476-1.334a1.489 1.489 0 0 0-.6.119l-21.527-37.283 22.228-38.503h43.082c.096.743.705 1.328 1.477 1.334a1.51 1.51 0 0 0 .6-.121l21.527 37.29zm-156.26-38.885h-43.081c-.097-.743-.706-1.33-1.478-1.334a1.51 1.51 0 0 0-.6.121l-21.528-37.287 22.23-38.502h43.081c.099.746.706 1.33 1.478 1.335.212.003.415-.042.6-.119l14.117 24.452 7.41 12.834-22.23 38.5zm22.56-115.693h44.454l22.23 38.501-14.82 25.667-6.71 11.621a1.48 1.48 0 0 0-.581-.12c-.776-.006-1.396.58-1.494 1.334h-43.08l-14.819-25.668-6.72-11.64c.362-.276.612-.692.615-1.185.003-.498-.248-.92-.616-1.2l21.54-37.31zm44.454-77.763h-43.082c-.097-.747-.711-1.335-1.485-1.335-.21 0-.41.043-.591.12l-21.529-37.286 14.82-25.667 7.41-12.835h43.082c.096.751.712 1.335 1.485 1.335.21 0 .41-.043.591-.12l14.118 24.453 7.41 12.834-22.229 38.501zm-133.924-75.668c.21 0 .41-.043.59-.12l21.584 37.383.055.094h44.678l21.54 37.308c-.365.28-.616.7-.616 1.195 0 .842.683 1.524 1.526 1.524.774 0 1.388-.587 1.485-1.334h43.303l22.339-38.693h43.082c.098.748.71 1.335 1.486 1.335.843 0 1.525-.682 1.525-1.525 0-.494-.25-.914-.617-1.19l21.54-37.312h44.457l22.228 38.502L412.71 243.2a1.514 1.514 0 0 0-.591-.12c-.776 0-1.389.588-1.486 1.335h-43.3l-21.64 37.478a1.523 1.523 0 0 0-2.114 1.394 1.527 1.527 0 0 0 1.516 1.537c.213 0 .415-.045.6-.122l21.527 37.285-21.528 37.286a1.534 1.534 0 0 0-.59-.118c-.775 0-1.39.587-1.486 1.333h-43.082l-22.283-38.596-.056-.095h-44.895l-21.64 37.48a1.52 1.52 0 0 0-.58-.122c-.778-.004-1.399.583-1.498 1.333h-43.3l-22.394 38.789-.055.094 21.651 37.498c-.364.276-.613.691-.617 1.183a1.525 1.525 0 0 0 1.516 1.535c.779.004 1.397-.582 1.496-1.334h43.301l22.34-38.69h43.079c.096.741.706 1.326 1.476 1.333.213 0 .416-.042.6-.119l21.528 37.285-22.284 38.597-.055.097 21.652 37.495c-.363.276-.614.692-.617 1.183a1.526 1.526 0 0 0 1.516 1.535c.778.004 1.397-.583 1.496-1.334h43.301l22.394-38.785.055-.094-21.651-37.501c.364-.277.613-.691.617-1.183.002-.498-.25-.922-.617-1.203l21.54-37.307h43.08c.097.748.711 1.334 1.487 1.334.842 0 1.524-.682 1.524-1.525 0-.494-.25-.914-.617-1.194l21.596-37.402.056-.096-21.652-37.497c.366-.28.617-.699.617-1.195 0-.493-.25-.912-.617-1.191l21.541-37.307h44.456l21.543 37.307c-.368.28-.618.698-.618 1.19 0 .497.25.916.618 1.196l-21.595 37.406-.057.094 21.652 37.495c-.368.28-.618.698-.618 1.194 0 .84.683 1.525 1.526 1.525.774 0 1.387-.586 1.486-1.334h43.299l21.639-37.474a1.525 1.525 0 1 0 0-2.812l-21.53-37.29 22.23-38.497h44.457l21.54 37.307c-.365.28-.616.698-.616 1.19 0 .844.683 1.526 1.526 1.526.777 0 1.39-.586 1.485-1.334h43.303l22.396-38.785.053-.094-21.651-37.501c.367-.278.617-.698.617-1.191 0-.843-.683-1.527-1.526-1.527-.774 0-1.387.588-1.486 1.335h-43.08l-21.542-37.307c.367-.28.617-.7.617-1.194 0-.844-.683-1.524-1.526-1.524-.773 0-1.387.585-1.486 1.334h-43.302L546.742 243.2a1.5 1.5 0 0 0-.592-.12c-.775 0-1.389.588-1.486 1.335h-43.08l-21.54-37.309c.366-.278.616-.698.616-1.192s-.25-.914-.616-1.19l20.84-36.097c.18.077.38.12.587.12.775 0 1.388-.587 1.487-1.335h43.302l21.636-37.473a1.524 1.524 0 1 0 .003-2.812l-21.53-37.287L568.6 51.34h44.457l21.54 37.307c-.365.277-.618.696-.618 1.194 0 .844.682 1.525 1.525 1.525.777 0 1.391-.586 1.486-1.334h43.303l22.338-38.692h44.678l21.64-37.478a1.523 1.523 0 0 0 2.115-1.405 1.527 1.527 0 0 0-2.116-1.405l-21.582-37.379-.057-.094H702.41L680.772 11.05a1.56 1.56 0 0 0-.591-.12c-.775 0-1.388.587-1.486 1.335h-43.079l-21.54-37.306c.362-.282.612-.7.612-1.192 0-.495-.25-.915-.613-1.191l21.597-37.41.053-.095-22.392-38.783-.056-.097h-43.299c-.099-.747-.713-1.332-1.486-1.332-.843 0-1.526.68-1.526 1.523 0 .495.25.914.613 1.191l-21.593 37.402-.057.096 22.339 38.696-21.526 37.286a1.543 1.543 0 0 0-.595-.123c-.775 0-1.388.587-1.487 1.335h-43.296l-22.392 38.788-.057.094 21.652 37.498c-.368.277-.62.696-.62 1.194 0 .495.252.916.62 1.194l-21.543 37.308h-43.08c-.097-.75-.712-1.335-1.486-1.335-.21 0-.41.043-.591.12L412.34 89.84l21.527-37.285a1.527 1.527 0 0 0 2.117-1.406 1.525 1.525 0 0 0-2.117-1.406l-21.582-37.379-.056-.096h-43.3c-.095-.75-.711-1.334-1.485-1.334-.843 0-1.525.683-1.525 1.525 0 .495.25.914.616 1.192L344.94 51.054l-.054.094 22.338 38.692-21.528 37.287c-.18-.077-.38-.12-.59-.12-.775 0-1.39.585-1.486 1.335h-43.302l-21.639 37.474c-.18-.075-.38-.12-.591-.12-.773 0-1.387.587-1.485 1.335h-43.083l-21.54-37.308c.366-.276.616-.696.616-1.19 0-.843-.682-1.526-1.525-1.526-.774 0-1.388.585-1.486 1.335h-43.302l-21.638 37.474a1.526 1.526 0 1 0-.591 2.93z"/>
        </g>
    </g>
</svg>
