<svg xmlns="http://www.w3.org/2000/svg" xmlns:xlink="http://www.w3.org/1999/xlink" width="81" height="92" viewBox="0 0 81 92">
    <defs>
        <path id="a" d="M0 .991h50.055V24H0z"/>
        <path id="c" d="M.418.233h2.751v6.752H.418z"/>
        <path id="e" d="M.173.974h3.598v3.308H.173z"/>
        <path id="g" d="M0 .965h3.003v3.344H0z"/>
    </defs>
    <g fill="none" fill-rule="evenodd">
        <path fill="#DA272C" d="M7.904 74.146c.32-.098.416-.164.484-.142 8.763 2.848 17.408 6.06 26.332 8.421.072.02.122.125.184.191-.725 1.247-3.352 3.722-7.853 7.384-1.606-1.187-3.317-2.328-4.89-3.632-4.581-3.79-9.108-7.646-13.65-11.482-.198-.168-.336-.406-.607-.74M46.904 71.399c-1.813 1.64-3.15 2.828-4.455 4.043-.566.525-1.21.623-1.971.523-2.587-.334-5.182-.623-7.767-.975a3853.602 3853.602 0 0 1-18.17-2.531c-.578-.081-1.307.043-1.637-.808 11.189-.252 22.3-1.169 34-.252"/>
        <path fill="#FFF" d="M14.904 75c8.47 1.14 16.663 2.24 24.998 3.36.04 3.153-.727 6.198-.79 9.64-.487-.41-.793-.571-.948-.819-.56-.893-1.3-1.764-1.546-2.742-.356-1.413-1.321-1.962-2.573-2.4a3075.831 3075.831 0 0 1-16.194-5.732c-.922-.328-1.952-.456-2.947-1.307"/>
        <path fill="#DA272C" d="M37.904 89c-1.618-.161-2.8-.967-4-1.975.303-.425.525-.8.809-1.115.28-.311.624-.56 1.021-.91.663.633.83 1.448 1.2 2.116.34.617.647 1.255.97 1.884"/>
        <g transform="translate(-.096 68)">
            <mask id="b" fill="#fff">
                <use xlink:href="#a"/>
            </mask>
            <path fill="#1D262D" d="M37.832 20.506c-.338-.598-.66-1.204-1.017-1.79-.388-.635-.562-1.41-1.258-2.01-.417.332-.777.569-1.071.865-.297.298-.53.655-.849 1.06 1.26.957 2.5 1.722 4.195 1.875M15.184 6.485c.99.857 2.015.985 2.932 1.316 5.363 1.939 10.734 3.86 16.108 5.77 1.245.44 2.205.993 2.56 2.415.244.984.98 1.861 1.538 2.76.154.25.458.411.942.824.062-3.464.825-6.529.785-9.703L15.184 6.485m32.04-2.954c-11.811-.991-23.03 0-34.327.273.333.92 1.07.786 1.652.874a3629.12 3629.12 0 0 0 18.346 2.737c2.61.38 5.23.693 7.841 1.055.768.107 1.42.002 1.99-.566 1.318-1.315 2.667-2.6 4.498-4.373M7.938 6.498c.272.326.411.558.61.722 4.554 3.747 9.095 7.514 13.688 11.217 1.579 1.273 3.295 2.389 4.905 3.547 4.515-3.577 7.149-5.995 7.876-7.213-.061-.064-.112-.168-.185-.187-8.95-2.307-17.619-5.443-26.408-8.225-.068-.022-.165.043-.486.139M0 2.233c1.42-.431 2.667-.454 3.943-.444 3.734.032 7.471.064 11.202-.042 6.557-.186 13.112-.476 19.67-.72 4.94-.184 9.823.36 14.688 1.117.14.022.261.176.552.384-.382.365-.726.725-1.103 1.05-1.838 1.574-3.68 3.14-5.527 4.704-.853.723-1.267 1.552-1.38 2.71-.366 3.749-.78 7.501-1.882 11.141-.096.321-.21.639-.351 1.066-2.839-.498-5.236-1.624-7.322-3.462-1.982 1.043-3.043 2.87-4.672 4.263-1.77-.446-3.326-1.352-4.745-2.386-2.902-2.116-5.727-4.334-8.532-6.571-3.79-3.021-7.528-6.097-11.284-9.155C2.352 5.154 1.42 4.442.592 3.633.275 3.323.215 2.77 0 2.233" mask="url(#b)"/>
        </g>
        <g>
            <path fill="#1D262D" d="M37.175 18.942c.204-.646.27-1.056.461-1.395.14-.246.428-.537.676-.565.584-.064 1.046-.124 1.392-.734.42-.74 1.2-.7 2.013-.565.165.416.34.853.552 1.39l1.82.298c.512.65.31 1.546-.729 2.874l2.235 2.63c-.034.292.003.49-.08.594-.29.368-.622.704-1.018 1.139-2.131-1.084-3.087-3.088-4.341-4.977-.857-.197-1.78-.41-2.981-.689M61.577 80.225l1.256 1.462c-.187.298-.264.572-.441.682a24.932 24.932 0 0 1-6.28 2.77c-.596-.743-.404-1.545-.397-2.473l5.862-2.441M47.203 84.471c1.012-.159 2.05-.31 3.082-.49.945-.165 1.883-.363 2.807-.543.585.828.357 1.638.41 2.492-2.047.726-4.07 1.1-6.15.98-.414-1.299-.397-1.3-.149-2.439M78.945 59.263c-.524 2.385-1.407 4.271-2.33 6.185-.452-.042-.773-.036-1.074-.11-.303-.077-.587-.232-.832-.334-.068-.23-.19-.414-.145-.529.694-1.808 1.414-3.608 2.155-5.483l2.226.27M73.1 67.325l1.801.42c.067.268.182.46.128.562-.92 1.79-1.885 3.554-3.383 5.121-.58-.212-1.15-.421-1.655-.608-.047-.295-.145-.492-.085-.596.96-1.666 1.948-3.318 3.194-4.9"/>
            <g transform="rotate(40 -67.15 129.718)">
                <mask id="d" fill="#fff">
                    <use xlink:href="#c"/>
                </mask>
                <path fill="#1D262D" d="M3.073.352c.283 2.198-.091 4.335-.614 6.633L.418 6.58.976.954C1.564.288 2.2.072 3.073.352" mask="url(#d)"/>
            </g>
            <path fill="#1D262D" d="M75.423 32.227c-.662.683-1.034 1.069-1.436 1.481-1.581-.989-3.07-1.919-4.572-2.86-.017-.906-.017-.906.484-1.805 2.08.432 3.67 1.703 5.524 3.184M78.274 42.737l1.826-.23c.755 2.077.922 3.706.632 6.164l-1.727-.025c-.346-1-.176-1.994-.318-2.94-.143-.961-.269-1.924-.413-2.969M59.58 26.946l-.382 2.009c-1.882.28-3.66.027-5.554-.397 0-.984.546-1.52 1.173-2.067 1.522.032 3.02.15 4.762.455M30.963 14.878c1.576.529 2.952.99 4.328 1.454.395.787.029 1.397-.321 2.005-2.222-.26-3.424-.69-5.286-1.924l1.279-1.535zM52.264 6.041c.022.498.076.743.032.97-.059.312-.192.61-.31.962l-4.631 1.343c-.627-.886-.627-.886-.818-1.948 1.73-.872 3.577-1.285 5.727-1.327M75.712 35.719l1.349-1.431c1.397 1.75 2.19 3.58 2.605 5.673l-1.636.75c-.673-.737-.737-1.68-1.122-2.46-.395-.798-.762-1.61-1.196-2.532M44.343 87.075l-5.282-.204.1-2.242c.852.005 1.576.015 2.299.012.883 0 1.767-.012 2.635-.02.492.82.66 1.548.248 2.454M77.594 56.366c.329-1.644.659-3.289 1.018-5.093l1.812-.114c.117.336.282.568.252.77-.239 1.591-.515 3.177-.76 4.65-.916.463-1.56.21-2.322-.213M61.94 27.246c1.933-.01 3.555.372 5.339.813l-.569 1.999c-1.702-.242-3.273-.463-4.78-.676-.128-.234-.278-.377-.264-.504.05-.47.152-.939.274-1.632M46.322 25.9c.718-1.078 1.605-1.456 2.857-.884.804.366 1.663.611 2.5.912.34.843-.303 1.357-.552 1.979-2.266-.169-3.361-.628-4.805-2.008M40.316 13.371c.886-2.198 2.193-3.519 3.981-4.61l1.025 1.778-2.59 2.773c-.646.015-1.352.032-2.416.059M23.579 12.381c1.047-.803 1.858-1.103 2.798-.375.692.536 1.392 1.063 2.205 1.684l-1.063 1.495c-1.64-.405-2.683-1.489-3.94-2.804M23.521 9.636l-1.823.767c-1.15-1.155-1.905-2.439-2.478-3.854 1.658-.814 1.76-.812 2.476.241.586.859 1.125 1.751 1.825 2.846M58.253 9.871l-3.72-1.89.322-1.564c1.586-.01 2.725.731 3.806 1.578.81.635.742.942-.408 1.876M49.606 17.008c.093.684.178 1.3.28 2.065a9.99 9.99 0 0 1-3.666.35c-.136-.176-.232-.245-.225-.301.063-.55.144-1.095.225-1.662 1.103-.541 2.192-.501 3.386-.452M52.172 18.665l-.012-2.129c1.18-.348 2.318-.687 3.55-1.052l1.107 1.181c-.12.236-.153.444-.262.501-1.29.661-2.675 1.023-4.383 1.5M60.686 11.404c.233 1.72-.109 3.034-1.303 3.993-.89.023-.935-.65-1.28-1.11.756-1.006.602-2.68 2.583-2.883"/>
            <g transform="rotate(40 -95.637 89.657)">
                <mask id="f" fill="#fff">
                    <use xlink:href="#e"/>
                </mask>
                <path fill="#1D262D" d="M2.749.974l1.022 1.27C2.759 3.356 1.83 4.392.173 4.275.56 2.83.56 2.83 2.75.974" mask="url(#f)"/>
            </g>
            <g transform="rotate(40 10.616 26.873)">
                <mask id="h" fill="#fff">
                    <use xlink:href="#g"/>
                </mask>
                <path fill="#1D262D" d="M3.003 3.062L1.95 4.309C1.004 4.005.511 3.385.16 2.646c-.133-.277-.2-.65-.132-.94C.09 1.436.33 1.15.57.997c.135-.085.498.014.64.152.576.562 1.106 1.17 1.792 1.914" mask="url(#h)"/>
            </g>
        </g>
    </g>
</svg>
