<svg xmlns="http://www.w3.org/2000/svg" width="105" height="190" viewBox="0 0 105 190">
    <g fill="none" fill-rule="evenodd">
        <path d="M-9 0h114v190H-9z"/>
        <g fill-rule="nonzero" transform="translate(0 4)">
            <path fill="#707384" d="M86.23 0H9.77C4.49 0 .21 4.307.21 9.62v166.76c0 5.313 4.28 9.62 9.558 9.62h76.462c5.278 0 9.558-4.307 9.558-9.62V9.62c0-5.313-4.28-9.62-9.558-9.62zM35.258 12.827c0-1.77 1.426-3.207 3.186-3.207h19.115c1.76 0 3.186 1.436 3.186 3.207s-1.426 3.208-3.186 3.208H38.443c-1.76 0-3.186-1.437-3.186-3.208zm-9.558-3.206c1.76 0 3.186 1.436 3.186 3.207 0 1.77-1.427 3.207-3.186 3.207-1.76 0-3.186-1.436-3.186-3.207s1.426-3.207 3.186-3.207zM48 179.586c-3.52 0-6.372-2.871-6.372-6.413 0-3.543 2.853-6.414 6.372-6.414 3.52 0 6.372 2.871 6.372 6.414 0 3.542-2.853 6.413-6.372 6.413zm41.417-57.724v38.483H6.583V25.655h82.834v96.207z"/>
            <path fill="#63AFDB" d="M6.583 121.862H32.07c0-1.771 1.427-3.207 3.187-3.207 1.759 0 3.186 1.436 3.186 3.207h6.371c0-1.771 1.427-3.207 3.186-3.207 1.76 0 3.186 1.436 3.186 3.207h6.372c0-1.771 1.427-3.207 3.186-3.207 1.76 0 3.186 1.436 3.186 3.207h25.488V25.655H6.583v96.207zM63.93 41.69c0-1.771 1.426-3.207 3.186-3.207h12.743c1.76 0 3.186 1.436 3.186 3.207v12.827c0 1.771-1.427 3.207-3.186 3.207H67.116c-1.76 0-3.186-1.436-3.186-3.207V41.69zm0 25.655c0-1.771 1.426-3.207 3.186-3.207h12.743c1.76 0 3.186 1.436 3.186 3.207v12.827c0 1.771-1.427 3.207-3.186 3.207H67.116c-1.76 0-3.186-1.436-3.186-3.207V67.345zm0 25.655c0-1.771 1.426-3.207 3.186-3.207h12.743c1.76 0 3.186 1.436 3.186 3.207v12.827c0 1.771-1.427 3.208-3.186 3.208H67.116c-1.76 0-3.186-1.437-3.186-3.208V93zM38.442 41.69c0-1.771 1.427-3.207 3.186-3.207h12.744c1.76 0 3.186 1.436 3.186 3.207v12.827c0 1.771-1.427 3.207-3.186 3.207H41.628c-1.76 0-3.186-1.436-3.186-3.207V41.69zm0 25.655c0-1.771 1.427-3.207 3.186-3.207h12.744c1.76 0 3.186 1.436 3.186 3.207v12.827c0 1.771-1.427 3.207-3.186 3.207H41.628c-1.76 0-3.186-1.436-3.186-3.207V67.345zm0 25.655c0-1.771 1.427-3.207 3.186-3.207h12.744c1.76 0 3.186 1.436 3.186 3.207v12.827c0 1.771-1.427 3.208-3.186 3.208H41.628c-1.76 0-3.186-1.437-3.186-3.208V93zM12.955 41.69c0-1.771 1.427-3.207 3.186-3.207h12.744c1.76 0 3.186 1.436 3.186 3.207v12.827c0 1.771-1.427 3.207-3.186 3.207H16.14c-1.759 0-3.186-1.436-3.186-3.207V41.69zm0 25.655c0-1.771 1.427-3.207 3.186-3.207h12.744c1.76 0 3.186 1.436 3.186 3.207v12.827c0 1.771-1.427 3.207-3.186 3.207H16.14c-1.759 0-3.186-1.436-3.186-3.207V67.345zm0 25.655c0-1.771 1.427-3.207 3.186-3.207h12.744c1.76 0 3.186 1.436 3.186 3.207v12.827c0 1.771-1.427 3.208-3.186 3.208H16.14c-1.759 0-3.186-1.437-3.186-3.208V93z"/>
            <path fill="#468CBE" d="M60.743 125.069c-1.759 0-3.186-1.436-3.186-3.207h-6.371c0 1.771-1.427 3.207-3.186 3.207-1.76 0-3.186-1.436-3.186-3.207h-6.372c0 1.771-1.427 3.207-3.186 3.207-1.76 0-3.186-1.436-3.186-3.207H6.582v38.483h82.834v-38.483H63.928a3.195 3.195 0 0 1-3.185 3.207zM32.07 147.517c0 1.771-1.426 3.207-3.186 3.207H16.141c-1.76 0-3.186-1.436-3.186-3.207V134.69c0-1.771 1.427-3.207 3.186-3.207h12.743c1.76 0 3.186 1.436 3.186 3.207v12.827zm25.488 0c0 1.771-1.427 3.207-3.186 3.207H41.628c-1.76 0-3.186-1.436-3.186-3.207V134.69c0-1.771 1.427-3.207 3.186-3.207h12.744c1.76 0 3.186 1.436 3.186 3.207v12.827zm9.558-16.034h12.743c1.76 0 3.186 1.436 3.186 3.207v12.827c0 1.771-1.427 3.207-3.186 3.207H67.116c-1.76 0-3.186-1.436-3.186-3.207V134.69c0-1.771 1.426-3.207 3.186-3.207z"/>
            <g fill="#464655" transform="translate(22.376 9.445)">
                <path d="M16.066 6.59h19.116c1.76 0 3.186-1.437 3.186-3.208 0-1.77-1.427-3.207-3.186-3.207H16.066c-1.76 0-3.186 1.436-3.186 3.207s1.427 3.207 3.186 3.207z"/>
                <ellipse cx="3.323" cy="3.382" rx="3.186" ry="3.207"/>
                <ellipse cx="25.624" cy="163.727" rx="6.372" ry="6.414"/>
            </g>
            <path fill="#63AFDB" d="M54.372 131.483H41.628c-1.76 0-3.186 1.436-3.186 3.207v12.827c0 1.771 1.427 3.207 3.186 3.207h12.744c1.76 0 3.186-1.436 3.186-3.207V134.69c0-1.771-1.427-3.207-3.186-3.207zM48 147.517c-3.52 0-6.372-2.871-6.372-6.413 0-3.543 2.853-6.414 6.372-6.414 3.52 0 6.372 2.871 6.372 6.414 0 3.542-2.853 6.413-6.372 6.413z"/>
            <path fill="#FF6469" d="M63.93 147.517c0 1.771 1.426 3.207 3.186 3.207h12.743c1.76 0 3.186-1.436 3.186-3.207V134.69c0-1.771-1.427-3.207-3.186-3.207H67.116c-1.76 0-3.186 1.436-3.186 3.207v12.827z"/>
            <path fill="#00DCCD" d="M28.884 131.483H16.141c-1.76 0-3.186 1.436-3.186 3.207v12.827c0 1.771 1.427 3.207 3.186 3.207h12.743c1.76 0 3.186-1.436 3.186-3.207V134.69c0-1.771-1.426-3.207-3.186-3.207z"/>
            <path fill="#FFDC69" d="M41.628 109.035h12.744c1.76 0 3.186-1.437 3.186-3.208V93c0-1.771-1.427-3.207-3.186-3.207H41.628c-1.76 0-3.186 1.436-3.186 3.207v12.827c0 1.771 1.427 3.208 3.186 3.208z"/>
            <path fill="#FFF" d="M67.116 109.035h12.743c1.76 0 3.186-1.437 3.186-3.208V93c0-1.771-1.427-3.207-3.186-3.207H67.116c-1.76 0-3.186 1.436-3.186 3.207v12.827c0 1.771 1.426 3.208 3.186 3.208zm0-9.621c0-1.771 1.426-3.207 3.186-3.207h6.371c1.76 0 3.186 1.436 3.186 3.207 0 1.77-1.426 3.207-3.186 3.207h-6.371c-1.76 0-3.186-1.436-3.186-3.207z"/>
            <path fill="#468CBE" d="M16.141 109.035h12.743c1.76 0 3.186-1.437 3.186-3.208V93c0-1.771-1.426-3.207-3.186-3.207H16.141c-1.76 0-3.186 1.436-3.186 3.207v12.827c0 1.771 1.427 3.208 3.186 3.208zm0-9.621c0-1.771 1.427-3.207 3.186-3.207h6.372c1.76 0 3.186 1.436 3.186 3.207 0 1.77-1.427 3.207-3.186 3.207h-6.372c-1.76 0-3.186-1.436-3.186-3.207z"/>
            <path fill="#464655" d="M41.628 83.38h12.744c1.76 0 3.186-1.437 3.186-3.208V67.345c0-1.771-1.427-3.207-3.186-3.207H41.628c-1.76 0-3.186 1.436-3.186 3.207v12.827c0 1.772 1.427 3.207 3.186 3.207zm0-9.622c0-1.77 1.427-3.207 3.186-3.207h6.372c1.76 0 3.186 1.436 3.186 3.207s-1.427 3.207-3.186 3.207h-6.372c-1.76 0-3.186-1.435-3.186-3.207z"/>
            <path fill="#FFA055" d="M67.116 83.38h12.743c1.76 0 3.186-1.437 3.186-3.208V67.345c0-1.771-1.427-3.207-3.186-3.207H67.116c-1.76 0-3.186 1.436-3.186 3.207v12.827c0 1.772 1.426 3.207 3.186 3.207z"/>
            <path fill="#A0D778" d="M16.141 83.38h12.743c1.76 0 3.186-1.437 3.186-3.208V67.345c0-1.771-1.426-3.207-3.186-3.207H16.141c-1.76 0-3.186 1.436-3.186 3.207v12.827c0 1.772 1.427 3.207 3.186 3.207zm6.372-16.035c3.519 0 6.371 2.871 6.371 6.413 0 3.542-2.852 6.414-6.371 6.414-3.52 0-6.372-2.872-6.372-6.414s2.853-6.413 6.372-6.413z"/>
            <path fill="#FF6469" d="M41.628 57.724h12.744c1.76 0 3.186-1.436 3.186-3.207V41.69c0-1.771-1.427-3.207-3.186-3.207H41.628c-1.76 0-3.186 1.436-3.186 3.207v12.827c0 1.771 1.427 3.207 3.186 3.207z"/>
            <path fill="#00DCCD" d="M67.116 57.724h12.743c1.76 0 3.186-1.436 3.186-3.207V41.69c0-1.771-1.427-3.207-3.186-3.207H67.116c-1.76 0-3.186 1.436-3.186 3.207v12.827c0 1.771 1.426 3.207 3.186 3.207zm6.371-16.034c3.52 0 6.372 2.871 6.372 6.414 0 3.542-2.853 6.413-6.372 6.413-3.519 0-6.371-2.871-6.371-6.413 0-3.543 2.852-6.414 6.371-6.414z"/>
            <g fill="#FFDC69" transform="translate(12.632 38.145)">
                <path d="M3.51 19.58h12.743c1.76 0 3.186-1.436 3.186-3.207V3.545c0-1.77-1.427-3.207-3.186-3.207H3.509C1.75.338.323 1.774.323 3.545v12.828c0 1.77 1.427 3.207 3.186 3.207z"/>
                <ellipse cx="9.881" cy="35.614" rx="6.372" ry="6.414"/>
                <ellipse cx="35.368" cy="102.959" rx="6.372" ry="6.414"/>
            </g>
            <ellipse cx="73.487" cy="48.104" fill="#FF6469" rx="6.372" ry="6.414"/>
            <path fill="#468CBE" d="M44.814 76.965h6.372c1.76 0 3.186-1.436 3.186-3.207 0-1.77-1.427-3.207-3.186-3.207h-6.372c-1.76 0-3.186 1.436-3.186 3.207 0 1.772 1.427 3.207 3.186 3.207z"/>
            <path fill="#FF6469" d="M70.301 102.62h6.372c1.76 0 3.186-1.435 3.186-3.206s-1.427-3.207-3.186-3.207h-6.372c-1.76 0-3.186 1.436-3.186 3.207 0 1.77 1.427 3.207 3.186 3.207z"/>
            <path fill="#FFF" d="M19.327 102.62h6.372c1.76 0 3.186-1.435 3.186-3.206s-1.427-3.207-3.186-3.207h-6.372c-1.76 0-3.186 1.436-3.186 3.207 0 1.77 1.427 3.207 3.186 3.207z"/>
            <ellipse cx="35.257" cy="121.862" fill="#464655" rx="3.186" ry="3.207"/>
            <g fill="#FFF" transform="translate(44.752 118.43)">
                <ellipse cx="3.248" cy="3.432" rx="3.186" ry="3.207"/>
                <ellipse cx="15.992" cy="3.432" rx="3.186" ry="3.207"/>
            </g>
        </g>
        <g transform="translate(60)">
            <circle cx="22.5" cy="22.5" r="22.5" fill="#D0021B"/>
            <path fill="#FFF" d="M14.866 22.885h1.266v2.258h-1.266v2.683h-2.881v-2.683H7.17L7 23.354l4.985-8.146v-.026h2.881v7.703zm-5.121 0h2.24v-3.89l-.18.295-2.06 3.595zm8.081 2.102c.456 0 .835.137 1.137.412.303.275.454.627.454 1.055 0 .429-.151.78-.454 1.055-.302.275-.68.413-1.137.413-.461 0-.842-.14-1.141-.417a1.373 1.373 0 0 1-.45-1.05c0-.423.15-.774.45-1.052.3-.277.68-.416 1.141-.416zm2.233-3.344l.761-6.46h7.277v2.275h-4.934l-.282 2.51c.205-.122.475-.23.808-.322.333-.093.66-.139.979-.139 1.237 0 2.188.372 2.852 1.116.664.744.996 1.787.996 3.13 0 .811-.178 1.545-.535 2.202a3.702 3.702 0 0 1-1.5 1.515c-.644.353-1.405.53-2.283.53-.781 0-1.514-.164-2.198-.49-.684-.328-1.22-.776-1.607-1.347a3.309 3.309 0 0 1-.573-1.932h2.89c.028.463.174.83.436 1.103.262.272.607.408 1.035.408.969 0 1.453-.73 1.453-2.188 0-1.35-.593-2.024-1.778-2.024-.673 0-1.175.22-1.505.66l-2.292-.547zM39 26.263c-.462.521-1.137.941-2.026 1.26-.89.318-1.864.477-2.925.477-1.63 0-2.933-.507-3.907-1.52-.975-1.013-1.497-2.423-1.565-4.229l-.009-1.094c0-1.245.217-2.332.65-3.26.433-.93 1.053-1.645 1.86-2.146.807-.5 1.74-.751 2.8-.751 1.55 0 2.755.36 3.613 1.081.858.72 1.358 1.796 1.5 3.226h-2.89c-.102-.706-.325-1.21-.667-1.51-.342-.302-.826-.452-1.453-.452-.753 0-1.334.324-1.744.972-.41.649-.619 1.575-.625 2.78v.763c0 1.262.213 2.21.637 2.844.425.634 1.093.951 2.005.951.781 0 1.363-.176 1.745-.53v-1.962h-2.087V21.07H39v5.193z"/>
        </g>
    </g>
</svg>
