<svg width="20" height="20" viewBox="0 0 20 20" fill="none" xmlns="http://www.w3.org/2000/svg">
<path d="M18.8375 0H1.1C0.808263 0 0.528473 0.116256 0.322183 0.323194C0.115893 0.530132 0 0.8108 0 1.10345L0 18.8967C0 19.1893 0.115893 19.47 0.322183 19.6769C0.528473 19.8839 0.808263 20.0001 1.1 20.0001H10.6563V12.2656H8.06095V9.23798H10.6563V7.01038C10.6563 4.42761 12.2306 3.02071 14.5269 3.02071C15.3007 3.01901 16.0741 3.05815 16.8438 3.13795V5.83796H15.2625C14.0113 5.83796 13.7672 6.43107 13.7672 7.30694V9.23453H16.7578L16.3694 12.2621H13.75V20.0001H18.8375C19.1293 20.0001 19.4091 19.8839 19.6153 19.6769C19.8216 19.47 19.9375 19.1893 19.9375 18.8967V1.10345C19.9375 0.8108 19.8216 0.530132 19.6153 0.323194C19.4091 0.116256 19.1293 0 18.8375 0Z" fill="white"/>
</svg>
