<svg width="23" height="18" viewBox="0 0 23 18" fill="none" xmlns="http://www.w3.org/2000/svg">
<path d="M20.9466 4.47345C20.7676 12.2406 15.5757 17.6438 7.69834 17.9815C4.47578 18.1504 2.14837 17.1373 0 15.9553C2.32741 16.2931 5.37094 15.4488 6.98222 14.098C4.65481 13.9291 3.22256 12.7471 2.50644 10.8898C3.22256 11.0586 3.93869 10.8898 4.47578 10.8898C2.32741 10.2144 0.895155 9.03243 0.716124 6.33081C1.25322 6.66851 1.96934 6.83737 2.68547 6.83737C1.07419 5.99311 0 2.78494 1.25322 0.758734C3.58062 3.12265 6.44512 5.14886 11.0999 5.48656C9.84671 0.758734 16.65 -1.77403 19.3354 1.43414C20.5887 1.26529 21.4838 0.758734 22.379 0.421032C22.0209 1.60299 21.3048 2.27839 20.4096 2.9538C21.3048 2.78495 22.1999 2.61609 22.9161 2.27839C22.737 3.12265 21.8418 3.79805 20.9466 4.47345Z" fill="white"/>
</svg>
