<svg xmlns="http://www.w3.org/2000/svg" width="137" height="25" viewBox="0 0 137 25">
    <g fill="none" fill-rule="evenodd">
        <path fill="#00A24F" fill-rule="nonzero" d="M67.227 7.295c-3.909 0-6.659 2.819-6.682 7.364 0 4.16 3.319 6.727 6.705 6.727 2.023 0 3.273-.318 4-.909v-2.295c-1.045.5-2.273.682-3.34.682-2.092 0-3.774-1.137-4.046-2.955l-.023-.159h2.432c2.295 0 3.909-.205 4.932-.705 1.022-.5 1.454-1.272 1.454-2.5 0-3.25-2.614-5.25-5.432-5.25zm1.591 5.978c-.636.227-1.636.318-3.295.318h-1.705v-.16l.023-.454c.068-1.636 1.295-3.09 3.068-3.09.818 0 1.5.181 2 .545.5.363.773.954.773 1.659.023.545-.227.954-.864 1.182zm5.523-.728v8.614h3.204v-7.977c0-1.068.205-1.841.66-2.364.431-.523 1.09-.727 1.886-.727.318 0 .614.023.864.068V7.614c-.41-.205-.932-.341-1.614-.341-3.591.022-5 2.568-5 5.272zM35.455 21.16V3.82h-3.182v17.34h3.182zm8.613-13.864c-4.273 0-6.113 2.91-6.136 5.773v8.091h3.182v-7.864c0-1 .272-1.818.727-2.386.477-.568 1.159-.864 1.932-.864.909 0 1.659.273 2.182.841.5.591.772 1.478.772 2.66v7.613h3.182V13.25c0-3.84-2.636-5.955-5.84-5.955zm11.455-3.477h-3.16v12.523c.023 3.182 1.614 5.045 5.069 5.068 1.477 0 2.34-.477 2.704-1.25v-1.977c-.568.25-1.34.363-2.295.363-.727 0-1.318-.181-1.727-.613-.41-.432-.614-1.091-.614-2.023v-5.864h2.773c1.363 0 1.932-.863 1.932-1.5V7.273h-4.682V3.818zm60.34 3.477c-4.272 0-6.113 2.91-6.136 5.773l.023 8.091h3.16v-7.864c0-1.022.272-1.818.726-2.386.478-.568 1.16-.864 1.932-.864.91 0 1.66.273 2.182.864.523.591.773 1.455.773 2.636v7.614h3.159V13.25c.023-3.84-2.591-5.955-5.818-5.955zm-26.477 0c-1.795 0-2.909 1.069-3.568 2.046l-.25.364V3.818H82.41v10.75c0 4.568 2.75 6.841 6.318 6.841 4.068 0 6.637-3.204 6.637-7.295 0-4.023-2.591-6.819-5.978-6.819zm-.295 11.41c-1.046 0-1.977-.296-2.591-1.069-.614-.75-.91-1.954-.91-3.568 0-2.204 1.342-4 3.16-4.023 1.068 0 1.932.296 2.523 1.046.59.75.886 1.886.886 3.59-.023 2.296-1.273 4.024-3.068 4.024zm12.795-11.41c-1.931 0-3.204.523-4.09 1.205v2.227c.909-.432 2.022-.772 3.568-.772 1.045 0 1.954.159 2.477.568.545.432.773 1.113.773 2.113v.319h-1.364c-5.09.022-6.773 1.818-6.773 4.204 0 2.455 2.182 4.25 5.432 4.25h.705c3.022 0 5.113-1.954 5.113-4.818v-3.182c.023-4.84-2.772-6.09-5.84-6.114zm2.773 9.319c0 .727-.182 1.295-.59 1.704-.41.387-1 .568-1.774.568-.772 0-1.409-.159-1.863-.477-.455-.318-.682-.795-.682-1.386 0-.591.205-1.114.773-1.432.545-.318 1.432-.455 2.75-.455h1.386v1.478zM130.773 13.977l-.068-.09.068-.092c1.386-1.75 4.409-5.159 5.522-6.181h-1.75c-1.113 0-1.863.113-2.659.863-1.59 1.5-2.909 3.273-4.25 5l-.25.341.023-10h-3.204v17.318h3.204v-7.022l.25.34c1.523 2.023 3.068 4.069 4.841 5.887.568.545 1.432.909 2.182.909.886 0 1.386-.227 1.727-.636-.909-1.069-4.545-5.319-5.636-6.637"/>
        <path fill="#0060A9" d="M3.318.09C1.5.09.023 1.59.023 3.41v21.454H21.5a3.322 3.322 0 0 0 3.318-3.319V.091h-21.5zm15.705 17.887L5.818 20.364V7.045L19.023 4.66v13.318z"/>
    </g>
</svg>
