<?xml version="1.0" encoding="UTF-8"?>
<svg width="86px" height="55px" viewBox="0 0 86 55" version="1.1" xmlns="http://www.w3.org/2000/svg" xmlns:xlink="http://www.w3.org/1999/xlink">
    <title>mastercard</title>
    <g id="mastercard" stroke="none" stroke-width="1" fill="none" fill-rule="evenodd">
        <g id="mc_vrt_pos" transform="translate(-1.000000, -9.000000)">
            <rect id="Rectangle" x="0" y="0" width="88.8789116" height="72.9012925"></rect>
            <path d="M22.0078231,63.7288435 L22.0078231,60.0961905 C22.0506522,59.4781522 21.8254711,58.8715682 21.3897279,58.4311894 C20.9539847,57.9908106 20.3498174,57.7592235 19.7313605,57.7955102 C18.916335,57.7420786 18.1368254,58.1364734 17.6970748,58.8247619 C17.2961485,58.1569951 16.5620393,57.7620629 15.7838776,57.7955102 C15.1063377,57.7612585 14.4613264,58.0883714 14.0886395,58.6552381 L14.0886395,57.9408163 L12.8293197,57.9408163 L12.8293197,63.7288435 L14.1007483,63.7288435 L14.1007483,60.5442177 C14.0459911,60.1434696 14.172964,59.7391958 14.4470172,59.4417193 C14.7210703,59.1442428 15.1135981,58.9846141 15.517483,59.0063946 C16.3529932,59.0063946 16.7768027,59.5512925 16.7768027,60.5321088 L16.7768027,63.7530612 L18.0482313,63.7530612 L18.0482313,60.5442177 C17.995721,60.1439253 18.1234703,59.7409615 18.3970154,59.4440365 C18.6705604,59.1471115 19.0617191,58.9868162 19.464966,59.0063946 C20.3246939,59.0063946 20.7363946,59.5512925 20.7363946,60.5321088 L20.7363946,63.7530612 L22.0078231,63.7288435 Z M40.8189116,57.9408163 L38.7482993,57.9408163 L38.7482993,56.185034 L37.4768707,56.185034 L37.4768707,57.9408163 L36.3265306,57.9408163 L36.3265306,59.0911565 L37.5010884,59.0911565 L37.5010884,61.755102 C37.5010884,63.0991837 38.0217687,63.898384 39.5111565,63.898384 C40.0675933,63.9002365 40.6132475,63.7449349 41.0853061,63.4503401 L40.7220408,62.3726531 C40.3843271,62.5740895 40.0010384,62.6865765 39.6080272,62.6995918 C39.002585,62.6995918 38.772517,62.3121088 38.772517,61.7308844 L38.772517,59.0911565 L40.8310204,59.0911565 L40.8189116,57.9408163 Z M51.5594558,57.7955102 C50.933984,57.7771153 50.3485611,58.1023502 50.0337415,58.6431293 L50.0337415,57.9408163 L48.7865306,57.9408163 L48.7865306,63.7288435 L50.0458503,63.7288435 L50.0458503,60.4836735 C50.0458503,59.5270748 50.457551,58.9942857 51.2567347,58.9942857 C51.5260863,58.9906014 51.7935288,59.0399753 52.0438095,59.1395918 L52.4312925,57.9287075 C52.1436905,57.825821 51.8406867,57.7725906 51.5352381,57.7712925 L51.5594558,57.7955102 Z M35.3214966,58.4009524 C34.6086641,57.977129 33.7890921,57.7669823 32.9602721,57.7955102 C31.495102,57.7955102 30.5385034,58.4978231 30.5385034,59.6481633 C30.5385034,60.5926531 31.2408163,61.1738776 32.5364626,61.3555102 L33.1419048,61.4402721 C33.8321088,61.5371429 34.1590476,61.7187755 34.1590476,62.0457143 C34.1590476,62.4937415 33.6989116,62.7480272 32.8391837,62.7480272 C32.1476491,62.7680444 31.4694938,62.554788 30.9138776,62.142585 L30.3084354,63.1234014 C31.0419975,63.6355998 31.92062,63.898762 32.814966,63.8741497 C34.4859864,63.8741497 35.4546939,63.0870748 35.4546939,61.9851701 C35.4546939,60.8832653 34.6918367,60.4352381 33.432517,60.2536054 L32.8270748,60.1688435 C32.2821769,60.0961905 31.8462585,59.9872109 31.8462585,59.5997279 C31.8462585,59.2122449 32.2579592,58.9216327 32.9481633,58.9216327 C33.5861029,58.9290433 34.2114764,59.0999787 34.7644898,59.4180952 L35.3214966,58.4009524 Z M69.0506803,57.7955102 C68.4252085,57.7771153 67.8397856,58.1023502 67.524966,58.6431293 L67.524966,57.9408163 L66.2777551,57.9408163 L66.2777551,63.7288435 L67.5370748,63.7288435 L67.5370748,60.4836735 C67.5370748,59.5270748 67.9487755,58.9942857 68.7479592,58.9942857 C69.0173108,58.9906014 69.2847533,59.0399753 69.535034,59.1395918 L69.922517,57.9287075 C69.634915,57.825821 69.3319112,57.7725906 69.0264626,57.7712925 L69.0506803,57.7955102 Z M52.8248299,60.8227211 C52.7945444,61.6451749 53.1122363,62.4423168 53.6999262,63.0184834 C54.2876162,63.59465 55.0908921,63.8964962 55.912585,63.849932 C56.6687088,63.8884017 57.4118015,63.6421442 57.9953061,63.1597279 L57.3898639,62.142585 C56.9545334,62.4745557 56.4236888,62.6571662 55.8762585,62.6632653 C54.9110025,62.5851653 54.1674515,61.7790227 54.1674515,60.8106122 C54.1674515,59.8422018 54.9110025,59.0360592 55.8762585,58.9579592 C56.4236888,58.9640582 56.9545334,59.1466688 57.3898639,59.4786395 L57.9953061,58.4614966 C57.4118015,57.9790803 56.6687088,57.7328228 55.912585,57.7712925 C55.0908921,57.7247283 54.2876162,58.0265745 53.6999262,58.6027411 C53.1122363,59.1789077 52.7945444,59.9760496 52.8248299,60.7985034 L52.8248299,60.8227211 Z M64.6188435,60.8227211 L64.6188435,57.9408163 L63.3595238,57.9408163 L63.3595238,58.6431293 C62.925666,58.0848813 62.2497339,57.7694464 61.5431973,57.7955102 C59.8713149,57.7955102 58.5159864,59.1508387 58.5159864,60.8227211 C58.5159864,62.4946035 59.8713149,63.849932 61.5431973,63.849932 C62.2497339,63.8759958 62.925666,63.5605609 63.3595238,63.0023129 L63.3595238,63.7046259 L64.6188435,63.7046259 L64.6188435,60.8227211 Z M59.9327211,60.8227211 C59.9887215,59.8725817 60.7939274,59.1414738 61.745046,59.1771732 C62.6961645,59.2128725 63.4442992,60.0022836 63.4289171,60.9539476 C63.4135351,61.9056116 62.6402789,62.6704319 61.6885034,62.6753741 C61.2038706,62.6815062 60.7387005,62.4849492 60.4053064,62.133161 C60.0719123,61.7813728 59.900596,61.3063268 59.9327211,60.8227211 L59.9327211,60.8227211 Z M44.7361224,57.7955102 C43.06424,57.8189166 41.7278862,59.1932196 41.7512925,60.865102 C41.7746989,62.5369844 43.1490019,63.8733383 44.8208844,63.849932 C45.6919579,63.8946432 46.5485775,63.614138 47.2244898,63.0628571 L46.6190476,62.1304762 C46.1409675,62.5138898 45.5486875,62.7269401 44.9359184,62.7359184 C44.0703579,62.8103576 43.3027867,62.1823448 43.2043537,61.3191837 L47.5029932,61.3191837 C47.5029932,61.1617687 47.5029932,61.0043537 47.5029932,60.8348299 C47.5029932,59.0185034 46.3768707,57.807619 44.7542857,57.807619 L44.7361224,57.7955102 Z M44.7361224,58.9216327 C45.1167052,58.9135187 45.4849151,59.056967 45.7597066,59.3204034 C46.034498,59.5838398 46.193348,59.9456722 46.2012925,60.3262585 L43.1740816,60.3262585 C43.2196886,59.5178863 43.9027181,58.8940168 44.7119048,58.9216327 L44.7361224,58.9216327 Z M76.2857143,60.8348299 L76.2857143,55.6159184 L75.0748299,55.6159184 L75.0748299,58.6431293 C74.6409721,58.0848813 73.9650401,57.7694464 73.2585034,57.7955102 C71.586621,57.7955102 70.2312925,59.1508387 70.2312925,60.8227211 C70.2312925,62.4946035 71.586621,63.849932 73.2585034,63.849932 C73.9650401,63.8759958 74.6409721,63.5605609 75.0748299,63.0023129 L75.0748299,63.7046259 L76.2857143,63.7046259 L76.2857143,60.8348299 Z M78.3865986,62.8872789 C78.4653139,62.8863145 78.5434618,62.9007102 78.6166667,62.9296599 C78.6861973,62.9580333 78.7498425,62.9990948 78.8043537,63.0507483 C78.8575535,63.1029504 78.900657,63.1645268 78.9314966,63.232381 C78.9934703,63.3752939 78.9934703,63.5374952 78.9314966,63.6804082 C78.900657,63.7482623 78.8575535,63.8098388 78.8043537,63.8620408 C78.7498425,63.9136944 78.6861973,63.9547558 78.6166667,63.9831293 C78.5441845,64.0151119 78.4658233,64.031609 78.3865986,64.0315647 C78.1523226,64.0297988 77.9400928,63.8930284 77.8417007,63.6804082 C77.7804445,63.5373472 77.7804445,63.375442 77.8417007,63.232381 C77.8725403,63.1645268 77.9156438,63.1029504 77.9688435,63.0507483 C78.0233548,62.9990948 78.087,62.9580333 78.1565306,62.9296599 C78.2353894,62.8982909 78.3199623,62.8838516 78.4047619,62.8872789 L78.3865986,62.8872789 Z M78.3865986,63.9104762 C78.4470275,63.9108433 78.5068548,63.8984652 78.5621769,63.8741497 C78.6142669,63.8508931 78.6615083,63.8180295 78.7014286,63.7772789 C78.8584179,63.605995 78.8584179,63.3431207 78.7014286,63.1718367 C78.6616035,63.1309737 78.6143392,63.0980942 78.5621769,63.074966 C78.5068002,63.0508218 78.4470096,63.0384513 78.3865986,63.0386373 C78.3262399,63.0389584 78.2665504,63.051308 78.2110204,63.074966 C78.1566242,63.0972705 78.1072247,63.1302035 78.0657143,63.1718367 C77.908725,63.3431207 77.908725,63.605995 78.0657143,63.7772789 C78.1073267,63.8187877 78.1566998,63.8517032 78.2110204,63.8741497 C78.2721033,63.9004912 78.3382854,63.9129003 78.4047619,63.9104762 L78.3865986,63.9104762 Z M78.4229252,63.19 C78.479444,63.1872591 78.5351384,63.2043958 78.5803401,63.2384354 C78.6179396,63.2695527 78.6382274,63.3168909 78.6348299,63.3655782 C78.6365875,63.4062368 78.6212138,63.4457691 78.592449,63.4745578 C78.5573564,63.5064319 78.5125891,63.5256179 78.4653061,63.5290476 L78.6408844,63.7288435 L78.5016327,63.7288435 L78.3381633,63.5290476 L78.2836735,63.5290476 L78.2836735,63.7288435 L78.1686395,63.7288435 L78.1686395,63.1960544 L78.4229252,63.19 Z M78.2897279,63.2929252 L78.2897279,63.4382313 L78.4229252,63.4382313 C78.4466274,63.4452979 78.471876,63.4452979 78.4955782,63.4382313 C78.5042136,63.4210944 78.5042136,63.4008784 78.4955782,63.3837415 C78.5042136,63.3666046 78.5042136,63.3463886 78.4955782,63.3292517 C78.471876,63.3221851 78.4466274,63.3221851 78.4229252,63.3292517 L78.2897279,63.2929252 Z M71.6298639,60.8348299 C71.6858643,59.8846905 72.4910703,59.1535827 73.4421888,59.189282 C74.3933074,59.2249814 75.141442,60.0143924 75.12606,60.9660564 C75.1106779,61.9177204 74.3374217,62.6825407 73.3856463,62.687483 C72.9010135,62.6936151 72.4358433,62.4970581 72.1024493,62.1452698 C71.7690552,61.7934816 71.5977389,61.3184357 71.6298639,60.8348299 L71.6298639,60.8348299 Z M29.1096599,60.8348299 L29.1096599,57.9408163 L27.8503401,57.9408163 L27.8503401,58.6431293 C27.4164823,58.0848813 26.7405503,57.7694464 26.0340136,57.7955102 C24.3621312,57.7955102 23.0068027,59.1508387 23.0068027,60.8227211 C23.0068027,62.4946035 24.3621312,63.849932 26.0340136,63.849932 C26.7405503,63.8759958 27.4164823,63.5605609 27.8503401,63.0023129 L27.8503401,63.7046259 L29.1096599,63.7046259 L29.1096599,60.8348299 Z M24.4235374,60.8348299 C24.4795378,59.8846905 25.2847437,59.1535827 26.2358623,59.189282 C27.1869808,59.2249814 27.9351155,60.0143924 27.9197335,60.9660564 C27.9043514,61.9177204 27.1310952,62.6825407 26.1793197,62.687483 C25.6925984,62.6970383 25.2241898,62.5019797 24.8881106,62.1497871 C24.5520313,61.7975944 24.3791066,61.3205708 24.4114286,60.8348299 L24.4235374,60.8348299 Z" id="Shape" fill="#231F20" fill-rule="nonzero"></path>
            <g id="_Group_" transform="translate(9.081633, 9.081633)" fill-rule="nonzero">
                <rect id="Rectangle" fill="#FF5F00" x="25.8221088" y="4.75272109" width="19.0714286" height="34.2740816"></rect>
                <path d="M27.0329932,21.8927891 C27.0258627,15.2035565 30.0958306,8.88277169 35.3578231,4.75272109 C26.4213697,-2.27037681 13.5882641,-1.24740187 5.87726811,7.10272662 C-1.83372786,15.4528551 -1.83372786,28.3266687 5.87726811,36.6767972 C13.5882641,45.0269257 26.4213697,46.0499006 35.3578231,39.0268027 C30.0975046,34.8980632 27.0277242,28.5798971 27.0329932,21.8927891 L27.0329932,21.8927891 Z" id="_Path_" fill="#EB001B"></path>
                <path d="M70.6248299,21.8927891 C70.6248299,30.2378289 65.8596494,37.8502169 58.3535797,41.4969426 C50.8475101,45.1436682 41.9181462,44.1845009 35.3578231,39.0268027 C40.6158464,34.894558 43.6858579,28.5772319 43.6858579,21.8897619 C43.6858579,15.2022919 40.6158464,8.88496577 35.3578231,4.75272109 C41.9181462,-0.404977139 50.8475101,-1.36414443 58.3535797,2.28258125 C65.8596494,5.92930694 70.6248299,13.5416949 70.6248299,21.8867347 L70.6248299,21.8927891 Z" id="Path" fill="#F79E1B"></path>
                <path d="M68.5421088,35.5622639 L68.5421088,34.7206563 L68.8266667,34.7206563 L68.8266667,34.5465306 L68.1061905,34.5465306 L68.1061905,34.7206563 L68.414966,34.7206563 L68.414966,35.5622639 L68.5421088,35.5622639 Z M69.9406803,35.5622639 L69.9406803,34.5465306 L69.7227211,34.5465306 L69.4684354,35.2720544 L69.2141497,34.5465306 L69.0204082,34.5465306 L69.0204082,35.5622639 L69.1778231,35.5622639 L69.1778231,34.8004639 L69.4139456,35.4606906 L69.577415,35.4606906 L69.8135374,34.8004639 L69.8135374,35.5695191 L69.9406803,35.5622639 Z" id="Shape" fill="#F79E1B"></path>
            </g>
        </g>
    </g>
</svg>