<?xml version="1.0" encoding="UTF-8"?>
<svg width="46px" height="40px" viewBox="0 0 46 40" version="1.1" xmlns="http://www.w3.org/2000/svg" xmlns:xlink="http://www.w3.org/1999/xlink">
    <!-- Generator: sketchtool 52.4 (67378) - http://www.bohemiancoding.com/sketch -->
    <title>BD265241-58E6-426D-B171-BC2CCCA6CF14</title>
    <desc>Created with sketchtool.</desc>
    <g id="Aprobado" stroke="none" stroke-width="1" fill="none" fill-rule="evenodd">
        <g id="Home_conoce-tu-recibo_menu" transform="translate(-914.000000, -126.000000)">
            <g id="Group-14" transform="translate(914.000000, 126.000000)">
                <path d="M27.951619,0.569475777 C37.6387043,0.569475777 45.4913071,8.42209407 45.4913071,18.1091984 C45.4913071,27.7963027 37.6387043,35.648921 27.951619,35.648921 C18.2645338,35.648921 10.411527,27.7963027 10.411527,18.1091984 C10.411527,8.42209407 18.2645338,0.569475777 27.951619,0.569475777" id="Fill-1" fill="#E9E9EA"></path>
                <path d="M7.39537639,36.6600118 L23.0629933,36.6600118 C25.1938696,36.6600118 32.9652219,34.4038884 33.8426218,33.7769828 C34.5947746,33.150412 39.7335922,27.509936 40.9874034,25.7551361 C40.611327,25.0029833 39.482763,24.1255834 37.728298,24.3764126 C35.7226689,24.6269069 33.3412983,28.3873359 33.2160511,28.3873359 L27.1994987,29.7660594 C26.9486695,29.7660594 24.8177932,29.0139067 22.812499,28.5125831 C22.0603462,28.3873359 20.9324519,26.7577832 20.9324519,26.6325361 C20.9324519,25.8807182 21.1829462,25.8807182 22.4364226,25.2538126 C23.3138225,24.8777362 25.8207752,24.3764126 26.6981751,22.2455363 C27.5755751,20.3654893 26.9486695,18.4854422 23.5643169,19.8641657 C22.1855934,20.3654893 16.1690409,22.1202892 13.6624232,23.1229363 C12.659776,24.1255834 11.2810525,26.1312125 10.2780706,26.8833653 L7.39537639,26.8833653 L7.39537639,36.6600118 Z" id="Fill-3" fill="#FFFFFF"></path>
                <path d="M8.14722777,35.907993 L23.0630268,35.907993 C25.068321,35.907993 32.589179,33.6518695 33.3409969,33.150546 C33.9679025,32.6492224 38.3549022,27.7605643 39.98412,25.7552701 C39.6083785,25.3791937 38.8562257,25.0031173 37.7283315,25.1283645 C37.3522551,25.1283645 36.0987788,25.6300229 33.8426553,28.7635463 C33.7170733,28.8887934 33.7170733,29.0140406 33.5918261,29.0140406 L33.466244,29.1396227 L27.074285,30.5183462 L26.9487029,30.5183462 C26.9487029,30.5183462 26.6982086,30.3927641 26.3217973,30.2675169 C25.5696446,30.0166877 24.0656739,29.6409462 22.6869504,29.2648698 C21.8095505,29.0140406 20.3055798,27.2592407 20.3055798,26.63267 C20.3055798,25.6300229 20.9324854,25.2539465 21.6843033,24.8775352 C21.8095505,24.7522881 22.0603797,24.7522881 22.1856268,24.6270409 C22.4364561,24.5017937 22.6869504,24.3762117 23.0630268,24.2509645 C24.0656739,23.8748881 25.5699794,23.3735646 26.1965502,21.9948411 C26.5729614,21.1174411 26.5729614,20.4908704 26.3217973,20.3652884 C26.071303,20.114794 25.4443974,20.114794 24.0656739,20.6161176 C23.4391032,20.8666119 22.0603797,21.2426883 20.556409,21.7443467 C18.4251979,22.3709175 15.7933329,23.2483174 14.2890274,23.8748881 C13.9132859,24.2509645 13.5372095,24.7522881 13.0358859,25.2539465 C12.2837331,26.1313465 11.5312455,27.0087464 10.9046748,27.5100699 L10.5285984,27.7605643 L8.14722777,27.7605643 L8.14722777,35.907993 Z M23.0630268,37.4119636 L6.76850427,37.4119636 L6.76850427,26.2565936 L10.0272748,26.2565936 C10.5285984,25.8805172 11.155504,25.0031173 11.7820747,24.3762117 C12.2837331,23.749641 12.7850567,23.1230702 13.2863803,22.7469939 L13.5372095,22.6217467 C15.0411801,21.9948411 17.7986271,21.1174411 20.0550855,20.4908704 C21.5590561,19.989212 22.9377796,19.6134705 23.5643503,19.3626412 C25.3191502,18.6108234 26.6982086,18.7360705 27.4503614,19.4878884 C28.2021793,20.2400412 28.2021793,21.3682704 27.5756086,22.7469939 C26.6982086,24.6270409 24.8178267,25.3791937 23.5643503,25.7552701 C23.313856,25.8805172 23.0630268,25.8805172 22.9377796,26.0057644 C22.6869504,26.1313465 22.5617032,26.2565936 22.3112089,26.2565936 C22.0603797,26.3818408 21.9351325,26.507088 21.8095505,26.507088 C22.0603797,26.8831643 22.8125325,27.7605643 23.0630268,27.7605643 C24.4417503,28.1366407 25.9457209,28.6382991 26.8234558,28.8887934 C26.9487029,28.8887934 27.1995322,29.0140406 27.3247793,29.0140406 L32.8396733,27.7605643 C34.7200553,25.2539465 36.349608,23.8748881 37.7283315,23.6243938 C39.7336257,23.3735646 41.2379312,24.3762117 41.7392548,25.5044408 L41.864502,25.8805172 L41.6140076,26.2565936 C40.4854436,27.8858115 35.346626,33.7771167 34.3439789,34.4036874 C33.2157497,35.030593 25.3191502,37.4119636 23.0630268,37.4119636 Z" id="Fill-5" fill="#000000"></path>
                <polygon id="Fill-7" fill="#E9EAEB" points="0.751817889 38.9160683 8.14709381 38.9160683 8.14709381 23.2481165 0.751817889 23.2481165"></polygon>
                <path d="M1.50397066,38.1639155 L7.52052309,38.1639155 L7.52052309,24.0002692 L1.50397066,24.0002692 L1.50397066,38.1639155 Z M0,39.668221 L8.89924659,39.668221 L8.89924659,22.4962986 L0,22.4962986 L0,39.668221 Z" id="Fill-9" fill="#000000"></path>
                <polygon id="Fill-10" fill="#000000" points="3.76042899 28.5125161 5.26439965 28.5125161 5.26439965 26.2563927 3.76042899 26.2563927"></polygon>
                <path d="M19.8580723,14.2863133 L19.8580723,4.00834319 C19.8580723,2.75486686 20.8610543,1.75188487 22.1141958,1.75188487 L42.7960529,1.75188487 C44.0491943,1.75188487 45.0518414,2.75486686 45.0518414,4.00834319 L45.0518414,14.2863133 C45.0518414,15.5397896 44.0491943,16.5424367 42.7960529,16.5424367 L22.1141958,16.5424367 C20.8610543,16.5424367 19.8580723,15.5397896 19.8580723,14.2863133" id="Fill-11" fill="#FFFFFF"></path>
                <path d="M44.3001575,14.2863133 L44.3001575,4.00834319 C44.3001575,3.13060836 43.5480047,2.50403764 42.7961868,2.50403764 L22.1143297,2.50403764 C21.2369298,2.50403764 20.6103591,3.25619042 20.6103591,4.00834319 L20.6103591,14.2863133 C20.6103591,15.1637132 21.3625118,15.7902839 22.1143297,15.7902839 L42.7961868,15.7902839 C43.1719283,15.7902839 43.5480047,15.6650368 43.9240811,15.2889604 C44.1749103,15.0384661 44.3001575,14.6623897 44.3001575,14.2863133 Z M19.1063884,4.00834319 C19.1063884,2.37879047 20.4851119,1.00006698 22.1143297,1.00006698 L42.7961868,1.00006698 C44.4254047,1.00006698 45.8041282,2.37879047 45.8041282,4.00834319 L45.8041282,14.2863133 C45.8041282,15.0384661 45.5536338,15.7902839 44.9267282,16.4171895 C44.3001575,16.9185131 43.5480047,17.2945895 42.7961868,17.2945895 L22.1143297,17.2945895 C20.4851119,17.2945895 19.1063884,15.915866 19.1063884,14.2863133 L19.1063884,4.00834319 Z" id="Fill-12" fill="#000000"></path>
                <path d="M20.5,13.1716843 L20.5,9.5 L45.1897984,9.5 L45.1897984,13.1716843 L20.5,13.1716843 Z" id="Fill-13" stroke="#000000" fill="#EF3829"></path>
            </g>
        </g>
    </g>
</svg>