<?xml version="1.0" encoding="UTF-8"?>
<svg width="45px" height="42px" viewBox="0 0 45 42" version="1.1" xmlns="http://www.w3.org/2000/svg" xmlns:xlink="http://www.w3.org/1999/xlink">
    <!-- Generator: sketchtool 52.4 (67378) - http://www.bohemiancoding.com/sketch -->
    <title>E17A22DA-B532-4B4C-83CF-8D4157246B22</title>
    <desc>Created with sketchtool.</desc>
    <g id="Aprobado" stroke="none" stroke-width="1" fill="none" fill-rule="evenodd">
        <g id="Home_conoce-tu-recibo_menu" transform="translate(-617.000000, -124.000000)">
            <g id="ico_rifd" transform="translate(617.000000, 124.000000)">
                <path d="M8.64705882,5.80588235 L7.65882353,4.94117647 C8.15294118,4.32352941 8.64705882,3.70588235 9.14117647,3.21176471 L10.1294118,4.07647059 C9.63529412,4.57058824 9.14117647,5.18823529 8.64705882,5.80588235 Z" id="Path" fill="#BBBEC1"></path>
                <path d="M6.91764706,8.77058824 L5.68235294,8.15294118 C6.05294118,7.53529412 6.42352941,6.91764706 6.79411765,6.3 L7.90588235,7.04117647 C7.53529412,7.53529412 7.16470588,8.15294118 6.91764706,8.77058824 Z" id="Path" fill="#BBBEC1"></path>
                <path d="M5.68235294,11.6117647 L4.44705882,11.2411765 C4.69411765,10.6235294 4.81764706,10.0058824 5.06470588,9.38823529 L6.3,9.88235294 C6.05294118,10.5 5.92941176,11.1176471 5.68235294,11.6117647 Z" id="Path" fill="#BBBEC1"></path>
                <path d="M6.17647059,27.4235294 C3.58235294,22.9764706 2.84117647,17.6647059 4.07647059,12.6 L5.31176471,12.8470588 C4.32352941,17.5411765 5.06470588,22.6058824 7.41176471,26.8058824 L6.17647059,27.4235294 Z" id="Path" fill="#BBBEC1"></path>
                <path d="M8.27647059,13.4647059 L7.04117647,13.0941176 C7.16470588,12.4764706 7.41176471,11.8588235 7.65882353,11.2411765 L8.89411765,11.7352941 C8.64705882,12.2294118 8.4,12.8470588 8.27647059,13.4647059 Z" id="Path" fill="#BBBEC1"></path>
                <path d="M7.90588235,24.4588235 C6.54705882,21.3705882 6.05294118,17.7882353 6.79411765,14.3294118 L8.02941176,14.5764706 C7.41176471,17.7882353 7.78235294,21 9.14117647,23.9647059 L7.90588235,24.4588235 Z" id="Path" fill="#BBBEC1"></path>
                <path d="M40.1470588,24.0882353 L38.9117647,23.5941176 C39.1588235,22.8529412 39.4058824,22.1117647 39.6529412,21.4941176 L40.8882353,21.8647059 C40.7647059,22.6058824 40.5176471,23.3470588 40.1470588,24.0882353 Z" id="Path" fill="#BBBEC1"></path>
                <path d="M41.2588235,20.3823529 L39.9,20.1352941 C40.0235294,19.5176471 40.1470588,18.7764706 40.1470588,18.1588235 L41.5058824,18.2823529 C41.5058824,18.9 41.3823529,19.6411765 41.2588235,20.3823529 Z" id="Path" fill="#BBBEC1"></path>
                <path d="M41.5058824,16.8 L40.1470588,16.8 C40.1470588,16.1823529 40.1470588,15.5647059 40.0235294,14.9470588 L41.3823529,14.8235294 C41.5058824,15.4411765 41.5058824,16.0588235 41.5058824,16.8 Z" id="Path" fill="#BBBEC1"></path>
                <path d="M40.0235294,13.7117647 C39.2823529,8.89411765 36.6882353,4.57058824 32.9823529,1.72941176 L33.7235294,0.741176471 C37.8,3.82941176 40.5176471,8.4 41.2588235,13.5882353 L40.0235294,13.7117647 Z" id="Path" fill="#BBBEC1"></path>
                <path d="M37.3058824,16.1823529 C37.3058824,15.5647059 37.3058824,14.9470588 37.1823529,14.3294118 L38.5411765,14.2058824 C38.6647059,14.8235294 38.6647059,15.5647059 38.6647059,16.1823529 L37.3058824,16.1823529 Z" id="Path" fill="#BBBEC1"></path>
                <path d="M36.9352941,12.9705882 C36.3176471,9.88235294 34.7117647,6.91764706 32.3647059,4.81764706 L33.3529412,3.82941176 C35.8235294,6.17647059 37.5529412,9.26470588 38.2941176,12.6 L36.9352941,12.9705882 Z" id="Path" fill="#BBBEC1"></path>
                <polyline id="Path" fill="#E8E8E9" points="17.9117647 36.4411765 23.3470588 40.5176471 43.2352941 31.7470588 37.5529412 27.5470588"></polyline>
                <polyline id="Path" fill="#E8E8E9" points="27.5470588 26.4352941 21.2470588 22.6058824 1.48235294 31.3764706 7.90588235 35.2058824"></polyline>
                <path d="M22.3588235,4.81764706 C15.4411765,4.81764706 9.88235294,10.5 9.88235294,17.6647059 C9.88235294,21 11.1176471,23.9647059 13.0941176,26.1882353 L21.2470588,22.6058824 L27.6705882,26.4352941 L31.1294118,26.8058824 C33.3529412,24.4588235 34.8352941,21.2470588 34.8352941,17.6647059 C34.7117647,10.5 29.1529412,4.81764706 22.3588235,4.81764706 Z" id="Path" fill="#E8E8E9"></path>
                <path d="M23.3470588,41.3823529 L17.6647059,37.0588235 L7.78235294,35.9470588 L0,31.2529412 L21.2470588,21.8647059 L27.7941176,25.8176471 L37.8,26.9294118 L44.4705882,31.9941176 L23.3470588,41.3823529 Z M8.15294118,34.5882353 L18.1588235,35.7 L23.5941176,39.7764706 L42,31.6235294 L37.4294118,28.1647059 L27.5470588,27.0529412 L21.3705882,23.3470588 L2.84117647,31.5 L8.15294118,34.5882353 Z" id="Shape" fill="#000000" fill-rule="nonzero"></path>
                <g id="Group" transform="translate(13.588235, 8.647059)">
                    <path d="M9.14117647,22.9764706 C9.38823529,16.1823529 15.6882353,14.4529412 15.6882353,8.89411765 C15.6882353,4.69411765 12.1058824,1.23529412 7.90588235,1.85294118 C4.32352941,2.34705882 1.60588235,5.68235294 1.97647059,9.51176471 C2.34705882,14.7 8.27647059,16.4294118 8.52352941,23.1" id="Path" fill="#EF3829"></path>
                    <path d="M7.65882353,22.9764706 C7.53529412,19.6411765 5.92941176,17.6647059 4.32352941,15.6882353 C2.84117647,13.9588235 1.35882353,12.1058824 1.23529412,9.51176471 C0.988235294,5.43529412 3.82941176,1.72941176 7.78235294,1.23529412 C9.88235294,0.988235294 11.9823529,1.60588235 13.7117647,3.08823529 C15.4411765,4.57058824 16.4294118,6.79411765 16.4294118,9.01764706 C16.4294118,11.9823529 14.8235294,13.8352941 13.3411765,15.8117647 C11.7352941,17.7882353 10.0058824,19.8882353 10.0058824,23.1 L9.01764706,23.1 L7.65882353,22.9764706 Z M8.77058824,2.47058824 C8.52352941,2.47058824 8.27647059,2.47058824 7.90588235,2.47058824 C4.69411765,2.84117647 2.22352941,5.92941176 2.47058824,9.38823529 C2.59411765,11.6117647 3.82941176,13.0941176 5.31176471,14.8235294 C6.67058824,16.4294118 8.15294118,18.2823529 8.77058824,20.8764706 C9.38823529,18.2823529 10.8705882,16.5529412 12.2294118,14.8235294 C13.7117647,12.9705882 15.0705882,11.3647059 15.0705882,8.89411765 C15.0705882,6.91764706 14.2058824,5.18823529 12.8470588,3.95294118 C11.6117647,2.96470588 10.2529412,2.47058824 8.77058824,2.47058824 Z" id="Shape" fill="#000000" fill-rule="nonzero"></path>
                </g>
                <g id="Group" transform="translate(18.529412, 14.823529)">
                    <ellipse id="Oval" fill="#FFFFFF" cx="3.82941176" cy="2.84117647" rx="2.1" ry="2.22352941"></ellipse>
                    <path d="M3.82941176,5.68235294 C2.34705882,5.68235294 1.11176471,4.44705882 1.11176471,2.84117647 C1.11176471,1.23529412 2.34705882,0 3.82941176,0 C5.31176471,0 6.54705882,1.23529412 6.54705882,2.84117647 C6.54705882,4.44705882 5.31176471,5.68235294 3.82941176,5.68235294 Z M3.82941176,1.35882353 C3.08823529,1.35882353 2.34705882,1.97647059 2.34705882,2.84117647 C2.34705882,3.70588235 2.96470588,4.32352941 3.82941176,4.32352941 C4.57058824,4.32352941 5.31176471,3.70588235 5.31176471,2.84117647 C5.18823529,1.97647059 4.57058824,1.35882353 3.82941176,1.35882353 Z" id="Shape" fill="#000000" fill-rule="nonzero"></path>
                </g>
                <polygon id="Rectangle" fill="#000000" transform="translate(13.696484, 32.547937) rotate(-24.519826) translate(-13.696484, -32.547937) " points="7.27307984 31.8685385 20.1198884 31.8685385 20.1198884 33.2273356 7.27307984 33.2273356"></polygon>
                <polygon id="Rectangle" fill="#000000" transform="translate(30.697917, 30.579502) rotate(-25.145315) translate(-30.697917, -30.579502) " points="23.3481854 29.9001151 38.0476493 29.9001151 38.0476493 31.258889 23.3481854 31.258889"></polygon>
            </g>
        </g>
    </g>
</svg>