<?xml version="1.0" encoding="UTF-8"?>
<svg width="32px" height="45px" viewBox="0 0 32 45" version="1.1" xmlns="http://www.w3.org/2000/svg" xmlns:xlink="http://www.w3.org/1999/xlink">
    <!-- Generator: sketchtool 52.4 (67378) - http://www.bohemiancoding.com/sketch -->
    <title>5CBCF02C-71D5-48CA-A1D3-BF4EC45DADBF</title>
    <desc>Created with sketchtool.</desc>
    <defs>
        <polygon id="path-1" points="0 0.605505263 18.2789474 0.605505263 18.2789474 6.05263158 0 6.05263158"></polygon>
        <polygon id="path-3" points="0 44.7894737 31.2618421 44.7894737 31.2618421 0.158578947 0 0.158578947"></polygon>
    </defs>
    <g id="Aprobado" stroke="none" stroke-width="1" fill="none" fill-rule="evenodd">
        <g id="Home_conoce-tu-recibo_menu" transform="translate(-289.000000, -232.000000)">
            <g id="Group-21" transform="translate(289.000000, 231.000000)">
                <polygon id="Fill-1" fill="#FF3524" points="11.9046789 1.85028947 6.30599474 7.37271053 6.43915263 8.88586842 13.3803105 8.88586842 13.3803105 1.73528947"></polygon>
                <polygon id="Fill-2" fill="#E9E9EA" points="0.847368421 45.8410579 17.5223684 45.8410579 17.5223684 41.2107947 0.847368421 41.2107947"></polygon>
                <g id="Group-20" transform="translate(0.000000, 1.051584)">
                    <path d="M11.6210526,36.6789474 L10.6526316,35.9526316 C10.7736842,35.8315789 12.8315789,33.2894737 11.3789474,30.1421053 L11.2578947,29.7789474 L11.5,29.5368421 C11.5,29.5368421 14.4052632,26.3894737 15.0105263,25.4210526 C15.8578947,24.0894737 15.3736842,22.1526316 14.6473684,21.5473684 C14.4052632,21.4263158 14.2842105,21.3052632 13.9210526,21.5473684 C12.2263158,23.1210526 5.81052632,29.4157895 5.81052632,29.4157895 L4.96315789,28.5684211 C4.96315789,28.5684211 11.3789474,22.3947368 13.0736842,20.7 C13.8,19.9736842 14.6473684,19.9736842 15.3736842,20.5789474 C16.5842105,21.6684211 17.1894737,24.3315789 15.9789474,26.1473684 C15.3736842,26.9947368 13.3157895,29.2947368 12.5894737,30.0210526 C14.1631579,33.6526316 11.7421053,36.5578947 11.6210526,36.6789474" id="Fill-3" fill="#070707"></path>
                    <path d="M2.54210526,26.2683 C2.54210526,25.0577737 3.02631579,23.8472474 3.87368421,23.1209316 L7.04405263,20.8826684 L7.04405263,19.3949316 L3.26842105,22.1525105 C2.05789474,23.1209316 1.45263158,24.5735632 1.45263158,26.1472474 L1.45263158,39.8564579 L2.54210526,39.8564579 L2.54210526,26.2683 Z" id="Fill-5" fill="#070707"></path>
                    <path d="M19.0053842,32.9261947 L19.0053842,29.5742474 L12.3172263,29.5742474 C12.2930158,29.9483 12.4322263,30.3840895 12.5218053,30.8683 L17.6738053,30.8683 L17.6738053,33.0472474 C17.6738053,35.8314579 15.1317,37.4051421 15.1317,37.4051421 L14.8895947,37.5261947 L14.8895947,39.8564579 L16.2211737,39.8564579 L16.2211737,38.1314579 C16.9474895,37.6472474 19.0053842,35.8314579 19.0053842,32.9261947" id="Fill-7" fill="#070707"></path>
                    <g id="Group-11" transform="translate(0.000000, 38.736842)">
                        <mask id="mask-2" fill="white">
                            <use xlink:href="#path-1"></use>
                        </mask>
                        <g id="Clip-10"></g>
                        <polygon id="Fill-9" fill="#070707" mask="url(#mask-2)" points="18.2789474 6.05287368 17.0684211 6.05287368 17.0684211 1.81603158 1.21052632 1.81603158 1.21052632 6.05287368 0 6.05287368 0 0.605505263 18.2789474 0.605505263"></polygon>
                    </g>
                    <mask id="mask-4" fill="white">
                        <use xlink:href="#path-3"></use>
                    </mask>
                    <g id="Clip-13"></g>
                    <polygon id="Fill-12" fill="#070707" mask="url(#mask-4)" points="2.78421053 43.3368421 4.96315789 43.3368421 4.96315789 42.1263158 2.78421053 42.1263158"></polygon>
                    <polygon id="Fill-14" fill="#070707" mask="url(#mask-4)" points="18.2789474 44.7897158 17.0684211 44.7897158 17.0684211 40.5528737 1.21052632 40.5528737 1.21052632 44.7897158 0 44.7897158 0 39.3423474 18.2789474 39.3423474"></polygon>
                    <path d="M29.0826526,30.7853789 L17.9010211,30.7853789 L17.9010211,29.5748526 L29.0826526,29.5748526 C29.5668632,29.5748526 29.9300211,29.2116947 29.9300211,28.7274842 L29.9300211,2.09590526 C29.9300211,1.61169474 29.5668632,1.24853684 29.0826526,1.24853684 L12.3773895,1.24853684 L7.05107368,6.57485263 L7.05107368,26.7579579 L5.84054737,27.9926947 L5.84054737,6.09064211 L11.8931789,0.159063158 L29.2049158,0.159063158 C30.2931789,0.159063158 31.2616,1.00643158 31.2616,2.21695789 L31.2616,28.9695895 C31.1405474,29.9380105 30.2931789,30.7853789 29.0826526,30.7853789" id="Fill-15" fill="#070707" mask="url(#mask-4)"></path>
                    <polygon id="Fill-16" fill="#070707" mask="url(#mask-4)" points="13.9209316 8.23157895 9.07882632 8.23157895 9.07882632 7.02105263 12.7104053 7.02105263 12.7104053 3.38947368 13.9209316 3.38947368"></polygon>
                    <polygon id="Fill-17" fill="#070707" mask="url(#mask-4)" points="11.9842105 14.5263158 26.1473684 14.5263158 26.1473684 13.3157895 11.9842105 13.3157895"></polygon>
                    <polygon id="Fill-18" fill="#070707" mask="url(#mask-4)" points="11.9842105 17.3105263 20.4578947 17.3105263 20.4578947 16.1 11.9842105 16.1"></polygon>
                    <polygon id="Fill-19" fill="#070707" mask="url(#mask-4)" points="11.9842105 11.7421053 26.1473684 11.7421053 26.1473684 10.5315789 11.9842105 10.5315789"></polygon>
                </g>
            </g>
        </g>
    </g>
</svg>