<?xml version="1.0" encoding="UTF-8"?>
<svg width="43px" height="36px" viewBox="0 0 43 36" version="1.1" xmlns="http://www.w3.org/2000/svg" xmlns:xlink="http://www.w3.org/1999/xlink">
    <!-- Generator: sketchtool 52.4 (67378) - http://www.bohemiancoding.com/sketch -->
    <title>C53FAD95-B89B-47B5-984D-936B101A1B62</title>
    <desc>Created with sketchtool.</desc>
    <g id="Aprobado" stroke="none" stroke-width="1" fill="none" fill-rule="evenodd">
        <g id="Home_conoce-tu-recibo_menu" transform="translate(-621.000000, -233.000000)">
            <g id="Group-3" transform="translate(621.000000, 232.000000)">
                <g id="ico_xyz">
                    <circle id="Oval" fill="#E8E8E9" cx="24.81875" cy="19" r="17.93125"></circle>
                    <g id="Group" transform="translate(0.000000, 7.125000)">
                        <path d="M35.15,3.68125 L35.15,19.35625 C35.15,20.9 33.84375,22.20625 32.3,22.20625 L13.41875,22.20625 L7.3625,27.55 C6.76875,28.14375 5.7,27.66875 5.7,26.8375 L5.7,22.20625 L3.68125,22.20625 C2.01875,22.20625 0.7125,20.9 0.7125,19.2375 L0.7125,3.68125 C0.7125,2.01875 2.01875,0.7125 3.68125,0.7125 L32.18125,0.7125 C33.84375,0.7125 35.15,2.01875 35.15,3.68125 Z" id="Path" fill="#FFFFFF"></path>
                        <path d="M6.65,28.5 C6.4125,28.5 6.175,28.5 5.9375,28.38125 C5.34375,28.14375 4.9875,27.55 4.9875,26.8375 L4.9875,22.91875 L3.68125,22.91875 C1.6625,22.91875 -4.4408921e-16,21.25625 -4.4408921e-16,19.2375 L-4.4408921e-16,3.68125 C8.32667268e-17,1.6625 1.6625,0 3.68125,0 L32.18125,0 C34.2,0 35.8625,1.6625 35.8625,3.68125 L35.8625,19.35625 C35.8625,21.375 34.2,22.91875 32.3,22.91875 L13.65625,22.91875 L7.71875,28.14375 C7.3625,28.2625 7.00625,28.5 6.65,28.5 Z M3.68125,1.425 C2.49375,1.425 1.425,2.375 1.425,3.68125 L1.425,19.2375 C1.425,20.425 2.49375,21.49375 3.68125,21.49375 L6.29375,21.49375 L6.29375,26.8375 C6.29375,26.95625 6.4125,27.075 6.4125,27.075 C6.4125,27.075 6.65,27.19375 6.76875,27.075 L13.0625,21.375 L32.18125,21.375 C33.36875,21.375 34.4375,20.425 34.4375,19.2375 L34.4375,3.68125 C34.4375,2.49375 33.4875,1.425 32.18125,1.425 C32.18125,1.425 3.68125,1.425 3.68125,1.425 Z" id="Shape" fill="#000000" fill-rule="nonzero"></path>
                    </g>
                    <g id="Group" transform="translate(3.562500, 13.062500)" fill="#EF3829">
                        <path d="M3.91875,7.00625 L2.6125,7.00625 L2.1375,9.38125 L1.30625,9.38125 L1.78125,7.00625 L0.35625,7.00625 L0.35625,6.05625 L1.9,6.05625 L2.25625,4.275 L0.83125,4.275 L0.83125,3.325 L2.375,3.325 L2.85,0.95 L3.8,0.95 L3.325,3.325 L4.63125,3.325 L5.10625,0.95 L6.05625,0.95 L5.58125,3.325 L6.76875,3.325 L6.76875,4.275 L5.4625,4.275 L5.10625,6.05625 L6.4125,6.05625 L6.4125,7.00625 L4.86875,7.00625 L4.39375,9.38125 L3.5625,9.38125 L3.91875,7.00625 Z M2.85,6.05625 L4.15625,6.05625 L4.5125,4.275 L3.20625,4.275 L2.85,6.05625 Z" id="Shape" fill-rule="nonzero"></path>
                        <polygon id="Path" points="10.80625 3.91875 12.5875 0.83125 14.25 0.83125 11.75625 4.9875 14.36875 9.2625 12.70625 9.2625 10.925 6.175 9.14375 9.2625 7.48125 9.2625 10.09375 4.9875 7.6 0.83125 9.2625 0.83125"></polygon>
                        <polygon id="Path" points="18.05 4.86875 19.95 0.95 21.6125 0.95 18.7625 6.29375 18.7625 9.38125 17.3375 9.38125 17.3375 6.29375 14.4875 0.95 16.15 0.95"></polygon>
                        <polygon id="Path" points="23.86875 8.19375 28.38125 8.19375 28.38125 9.38125 22.0875 9.38125 22.0875 8.3125 26.48125 2.01875 22.20625 2.01875 22.20625 0.83125 28.2625 0.83125 28.2625 1.78125"></polygon>
                    </g>
                </g>
            </g>
        </g>
    </g>
</svg>