<?xml version="1.0" encoding="UTF-8"?>
<svg width="43px" height="44px" viewBox="0 0 43 44" version="1.1" xmlns="http://www.w3.org/2000/svg" xmlns:xlink="http://www.w3.org/1999/xlink">
    <!-- Generator: sketchtool 52.4 (67378) - http://www.bohemiancoding.com/sketch -->
    <title>EEDA735D-423A-46D0-9FC1-41D20EC1109D</title>
    <desc>Created with sketchtool.</desc>
    <g id="Aprobado" stroke="none" stroke-width="1" fill="none" fill-rule="evenodd">
        <g id="Claro_hogar_movil_02" transform="translate(-55.000000, -527.000000)">
            <g id="Group-9" transform="translate(55.000000, 526.500000)">
                <g id="ico_preguntasFrecuentes-Copy" transform="translate(-0.000000, 1.000000)">
                    <g id="Group" transform="translate(14.333333, 9.555556)">
                        <g transform="translate(3.583333, 16.722222)">
                            <circle id="Oval" fill="#EF3829" cx="3.225" cy="3.94166667" r="2.15"></circle>
                            <path d="M3.225,6.80833333 C1.67222222,6.80833333 0.358333333,5.49444444 0.358333333,3.94166667 C0.358333333,2.38888889 1.67222222,1.075 3.225,1.075 C4.77777778,1.075 6.09166667,2.38888889 6.09166667,3.94166667 C5.97222222,5.61388889 4.77777778,6.80833333 3.225,6.80833333 Z M3.225,2.38888889 C2.38888889,2.38888889 1.79166667,3.10555556 1.79166667,3.94166667 C1.79166667,4.77777778 2.50833333,5.49444444 3.225,5.49444444 C4.06111111,5.49444444 4.65833333,4.77777778 4.65833333,3.94166667 C4.65833333,3.10555556 3.94166667,2.38888889 3.225,2.38888889 Z" id="Shape" fill="#000000" fill-rule="nonzero"></path>
                        </g>
                        <g>
                            <path d="M4.65833333,14.0944444 C4.65833333,12.1833333 7.64444444,10.0333333 8.83888889,8.83888889 C9.79444444,7.88333333 9.675,6.09166667 8.48055556,5.25555556 C7.76388889,4.77777778 6.80833333,4.77777778 5.97222222,5.25555556 C5.375,5.61388889 5.01666667,6.33055556 4.89722222,7.04722222 C4.89722222,7.88333333 4.77777778,8.24166667 3.94166667,8.24166667 L2.38888889,8.24166667 C1.55277778,8.24166667 1.075,7.88333333 1.075,7.04722222 C1.19444444,5.25555556 1.91111111,3.58333333 3.46388889,2.38888889 C5.49444444,0.716666667 8.36111111,0.597222222 10.5111111,2.15 C13.7361111,4.41944444 14.2138889,9.07777778 11.4666667,11.7055556 C10.6305556,12.5416667 8.48055556,13.975 8.24166667,14.9305556 L8.24166667,15.5277778 C8.24166667,15.8861111 7.88333333,16.2444444 7.525,16.2444444 L5.375,16.2444444 C5.01666667,16.2444444 4.65833333,15.8861111 4.65833333,15.5277778 C4.65833333,15.5277778 4.65833333,14.0944444 4.65833333,14.0944444 Z" id="Path" fill="#EF3829"></path>
                            <path d="M7.525,16.9611111 L5.375,16.9611111 C4.65833333,16.9611111 3.94166667,16.3638889 3.94166667,15.5277778 L3.94166667,14.0944444 C3.94166667,12.3027778 5.85277778,10.5111111 7.28611111,9.31666667 C7.64444444,8.95833333 8.00277778,8.71944444 8.24166667,8.48055556 C8.6,8.12222222 8.71944444,7.64444444 8.71944444,7.16666667 C8.71944444,6.68888889 8.36111111,6.21111111 8.00277778,5.97222222 C7.525,5.61388889 6.80833333,5.61388889 6.33055556,5.97222222 C5.85277778,6.21111111 5.61388889,6.68888889 5.61388889,7.16666667 C5.61388889,7.64444444 5.61388889,9.07777778 3.94166667,9.07777778 L2.38888889,9.07777778 C1.79166667,9.07777778 1.19444444,8.83888889 0.836111111,8.48055556 C0.597222222,8.24166667 0.358333333,7.76388889 0.358333333,7.04722222 C0.477777778,5.01666667 1.43333333,3.10555556 2.98611111,1.79166667 C5.25555556,1.77635684e-15 8.48055556,-0.119444444 10.8694444,1.55277778 C12.6611111,2.74722222 13.7361111,4.65833333 13.8555556,6.68888889 C13.975,8.71944444 13.2583333,10.75 11.825,12.0638889 C11.5861111,12.3027778 11.2277778,12.6611111 10.75,13.0194444 C10.0333333,13.6166667 8.95833333,14.4527778 8.83888889,14.9305556 L8.83888889,15.5277778 C8.83888889,16.3638889 8.24166667,16.9611111 7.525,16.9611111 Z M7.16666667,4.18055556 C7.76388889,4.18055556 8.36111111,4.3 8.83888889,4.65833333 C9.55555556,5.13611111 10.0333333,5.97222222 10.1527778,6.80833333 C10.2722222,7.64444444 9.91388889,8.6 9.31666667,9.19722222 C9.07777778,9.43611111 8.71944444,9.79444444 8.24166667,10.1527778 C7.04722222,11.2277778 5.25555556,12.7805556 5.25555556,13.975 L5.25555556,15.5277778 L7.40555556,15.5277778 L7.40555556,14.5722222 C7.64444444,13.6166667 8.71944444,12.6611111 9.91388889,11.825 C10.2722222,11.4666667 10.6305556,11.2277778 10.8694444,10.9888889 C12.0638889,9.91388889 12.5416667,8.24166667 12.4222222,6.68888889 C12.3027778,5.01666667 11.3472222,3.46388889 10.0333333,2.50833333 C8.12222222,1.19444444 5.61388889,1.31388889 3.82222222,2.74722222 C2.50833333,3.70277778 1.79166667,5.25555556 1.67222222,6.92777778 C1.67222222,7.04722222 1.67222222,7.28611111 1.79166667,7.28611111 C1.91111111,7.40555556 2.03055556,7.40555556 2.38888889,7.40555556 L3.82222222,7.40555556 C4.06111111,7.40555556 4.06111111,7.40555556 4.06111111,7.40555556 C4.06111111,7.40555556 4.06111111,7.28611111 4.06111111,6.92777778 C4.18055556,5.97222222 4.65833333,5.13611111 5.49444444,4.65833333 C6.09166667,4.3 6.56944444,4.18055556 7.16666667,4.18055556 Z" id="Shape" fill="#000000" fill-rule="nonzero"></path>
                        </g>
                    </g>
                    <g id="Group">
                        <path d="M2.98611111,13.6166667 L1.67222222,13.1388889 C1.91111111,12.6611111 2.03055556,12.1833333 2.26944444,11.825 C4.89722222,6.68888889 9.43611111,2.86666667 14.9305556,1.075 C20.3055556,-0.597222222 26.1583333,-0.119444444 31.175,2.38888889 L30.5777778,3.58333333 C25.8,1.19444444 20.425,0.716666667 15.4083333,2.26944444 C10.2722222,3.94166667 5.97222222,7.525 3.58333333,12.3027778 C3.34444444,12.7805556 3.10555556,13.1388889 2.98611111,13.6166667 Z" id="Path" fill="#BCC0C4"></path>
                        <path d="M33.2055556,39.5361111 L32.4888889,38.4611111 C35.475,36.55 37.8638889,33.9222222 39.4166667,30.6972222 C43,23.7694444 42.2833333,15.6472222 37.625,9.43611111 L38.7,8.6 C43.7166667,15.1694444 44.4333333,23.8888889 40.6111111,31.2944444 C38.9388889,34.6388889 36.3111111,37.5055556 33.2055556,39.5361111 Z" id="Path" fill="#BCC0C4"></path>
                        <path d="M21.5,43 C18.1555556,43 14.8111111,42.1638889 11.7055556,40.6111111 C4.89722222,37.1472222 0.358333333,30.2194444 0,22.575 L1.43333333,22.4555556 C1.79166667,29.6222222 5.97222222,36.0722222 12.4222222,39.2972222 C16.0055556,41.0888889 20.0666667,41.8055556 24.0083333,41.3277778 L24.1277778,42.6416667 C23.1722222,43 22.3361111,43 21.5,43 Z" id="Path" fill="#BCC0C4"></path>
                        <path d="M35.7138889,17.0805556 C34.5194444,13.2583333 31.7722222,10.1527778 28.1888889,8.24166667 C24.6055556,6.45 20.6638889,6.21111111 16.8416667,7.40555556 C16.4833333,7.525 16.125,7.64444444 15.8861111,7.76388889 L15.4083333,6.45 C15.7666667,6.33055556 16.125,6.21111111 16.4833333,6.09166667 C20.5444444,4.77777778 24.9638889,5.13611111 28.9055556,7.04722222 C32.8472222,9.07777778 35.8333333,12.4222222 37.1472222,16.6027778 L35.7138889,17.0805556 Z" id="Path" fill="#000000"></path>
                        <path d="M21.5,38.1027778 C20.3055556,38.1027778 19.2305556,37.9833333 18.0361111,37.7444444 L18.275,36.4305556 C20.7833333,37.0277778 23.5305556,36.7888889 26.0388889,36.0722222 C31.5333333,34.2805556 35.475,29.6222222 36.3111111,23.8888889 L37.625,24.1277778 C36.7888889,30.3388889 32.4888889,35.475 26.5166667,37.3861111 C24.9638889,37.7444444 23.1722222,38.1027778 21.5,38.1027778 Z" id="Path" fill="#000000"></path>
                        <path d="M11.3472222,34.5194444 C8.71944444,32.4888889 6.92777778,29.7416667 5.85277778,26.6361111 C4.18055556,21.1416667 5.49444444,15.05 9.31666667,10.75 L10.3916667,11.7055556 C6.80833333,15.6472222 5.61388889,21.2611111 7.28611111,26.3972222 C8.24166667,29.2638889 9.91388889,31.7722222 12.3027778,33.5638889 L11.3472222,34.5194444 Z" id="Path" fill="#000000"></path>
                    </g>
                </g>
            </g>
        </g>
    </g>
</svg>