<?xml version="1.0" encoding="UTF-8"?>
<svg width="37px" height="36px" viewBox="0 0 37 36" version="1.1" xmlns="http://www.w3.org/2000/svg" xmlns:xlink="http://www.w3.org/1999/xlink">
    <!-- Generator: sketchtool 52.4 (67378) - http://www.bohemiancoding.com/sketch -->
    <title>39F09529-E361-4408-8367-3366804731D7</title>
    <desc>Created with sketchtool.</desc>
    <g id="Aprobado" stroke="none" stroke-width="1" fill="none" fill-rule="evenodd">
        <g id="Home_conoce-tu-recibo_menu" transform="translate(-289.000000, -127.000000)">
            <g id="ico_facturacion" transform="translate(289.470588, 127.000000)">
                <circle id="Oval" fill="#E8E8E9" cx="17.6" cy="18" r="17"></circle>
                <g id="Group">
                    <path d="M31.7,1 L28,1 L28,5.4 L35.4,5.4 L35.4,4.7 C35.4,2.6 33.8,1 31.7,1 Z" id="Path" fill="#E8E8E9"></path>
                    <path d="M36,6 L30.3,6 L30.3,4.9 L34.9,4.9 L34.9,4.7 C34.9,3 33.5,1.6 31.7,1.6 L28,1.6 L28,0.4 L31.7,0.4 C34.1,0.4 36,2.3 36,4.7 L36,6 Z" id="Path" fill="#090909"></path>
                    <g transform="translate(4.000000, 0.000000)">
                        <path d="M1,4.7 C1,2.6 2.7,1 4.7,1 L27.7,1 C25.7,1 24,2.6 24,4.7 L24,31.3 C24,33.3 22.3,35 20.3,35 L1,35 L1,4.7 Z" id="Path" fill="#FFFFFF"></path>
                        <path d="M20.3,35.6 L0.5,35.6 L0.5,4.7 C0.5,2.4 2.4,0.4 4.8,0.4 L27.8,0.4 L27.8,1.5 C26.1,1.5 24.6,2.9 24.6,4.6 L24.6,31.2 C24.6,33.7 22.7,35.6 20.3,35.6 Z M1.6,34.5 L20.4,34.5 C22.1,34.5 23.6,33.1 23.6,31.4 L23.6,4.7 C23.6,3.5 24.1,2.3 25,1.6 L4.7,1.6 C3,1.5 1.6,2.9 1.6,4.7 L1.6,34.5 Z" id="Shape" fill="#090909" fill-rule="nonzero"></path>
                    </g>
                    <g transform="translate(9.000000, 7.000000)" fill="#090909" id="Rectangle">
                        <rect x="0.5" y="0.8" width="13.4" height="1.1"></rect>
                        <rect x="0.5" y="3.8" width="13.4" height="1.1"></rect>
                        <rect x="0.5" y="6.7" width="13.4" height="1.1"></rect>
                        <rect x="0.5" y="9.7" width="13.4" height="1.1"></rect>
                        <rect x="0.5" y="12.7" width="13.4" height="1.1"></rect>
                        <rect x="0.5" y="15.6" width="8.2" height="1.1"></rect>
                    </g>
                    <g transform="translate(0.000000, 30.000000)">
                        <path d="M0.6,1.3 C0.6,3.3 2.3,5 4.3,5 L24.3,5 C22.2,5 20.6,3.3 20.6,1.3 L0.6,1.3 Z" id="Path" fill="#EF3829"></path>
                        <path d="M24.3,5.6 L4.3,5.6 C1.9,5.6 8.8817842e-16,3.7 8.8817842e-16,1.3 L8.8817842e-16,0.7 L21.1,0.7 L21.1,1.3 C21.1,3 22.5,4.4 24.3,4.4 L24.3,5.6 Z M1.2,1.9 C1.5,3.4 2.8,4.5 4.3,4.5 L21.5,4.5 C20.8,3.8 20.3,2.9 20.1,1.9 L1.2,1.9 Z" id="Shape" fill="#090909" fill-rule="nonzero"></path>
                    </g>
                </g>
            </g>
        </g>
    </g>
</svg>