<svg xmlns="http://www.w3.org/2000/svg" xmlns:xlink="http://www.w3.org/1999/xlink" width="86" height="55" viewBox="0 0 86 55">
    <defs>
        <path id="vhpwpufrqa" d="M0 0.157L85.727 0.157 85.727 55 0 55z"/>
        <path id="4k7sif9nkc" d="M0 55L85 55 85 1 0 1z"/>
    </defs>
    <g fill="none" fill-rule="evenodd">
        <g>
            <g transform="translate(-814 -686) translate(814 686)">
                <g>
                    <mask id="n04910a63b" fill="#fff">
                        <use xlink:href="#vhpwpufrqa"/>
                    </mask>
                    <path fill="#C92A1E" d="M85.727 51.415c0 1.978-1.577 3.585-3.517 3.585H3.521C1.574 55 0 53.393 0 51.415V3.748C0 1.77 1.574.157 3.52.157h78.69c1.939 0 3.516 1.612 3.516 3.591v47.667z" mask="url(#n04910a63b)"/>
                </g>
                <path fill="#FEFEFE" d="M28.54 25.743c-3.67 0-6.36 3.306-6.36 6.801 0 3.613 2.617 6.723 6.36 6.723 3.663 0 6.272-3.155 6.272-6.685 0-3.458-2.609-6.839-6.273-6.839m0 18.257C22.22 44 17 38.831 17 32.544 17 26.21 22.14 21 28.54 21 34.931 21 40 26.132 40 32.465 40 38.987 35.091 44 28.54 44M54.131 43V32.165c0-3.056-.48-6.414-4.171-6.414-3.623 0-4.096 3.549-4.096 6.494V43H41V12h4.864v11.301c1.494-1.48 3.186-2.21 5.27-2.21 2.297 0 4.858 1.336 6.252 3.248C58.7 26.134 59 28.495 59 30.712V43h-4.869z"/>
                <mask id="0n8293t51d" fill="#fff">
                    <use xlink:href="#4k7sif9nkc"/>
                </mask>
                <path fill="#FEFEFE" d="M63 43h5v-4.835h-5V43zm0-7.176h5V12h-5v23.824z" mask="url(#0n8293t51d)"/>
            </g>
        </g>
    </g>
</svg>
