<svg xmlns="http://www.w3.org/2000/svg" xmlns:xlink="http://www.w3.org/1999/xlink" width="38" height="39" viewBox="0 0 38 39">
    <defs>
        <path id="prefix__a" d="M0 0.909L37.349 0.909 37.349 39 0 39z"/>
    </defs>
    <g fill="none" fill-rule="evenodd">
        <path fill="#FFF" d="M1.144 2.841L1.144 22.081 4.483 22.081 7.546 30.499 25.103 23.746 24.41 25.361 24.279 27.995 24.799 30.235 26.024 32.936 26.024 38.536 36.762 38.536 36.762 18.51 36.598 16.336 35.807 14.557 32.711 11.593 31.525 8.826 31.459 2.841z" transform="translate(0 -1)"/>
        <path fill="#F78529" d="M1.664 10.978L30.995 10.978 30.995 5.886 1.664 5.886z" transform="translate(0 -1)"/>
        <path fill="#000" d="M3.366 20.071L5.042 20.071 5.042 18.396 3.366 18.396zM6.06 20.071L7.735 20.071 7.735 18.396 6.06 18.396zM8.752 20.071L10.427 20.071 10.427 18.396 8.752 18.396zM28.509 36.52L30.036 36.52 30.036 34.993 28.509 34.993zM30.812 36.52L32.339 36.52 32.339 34.993 30.812 34.993zM33.116 36.52L34.643 36.52 34.643 34.993 33.116 34.993z" transform="translate(0 -1)"/>
        <g transform="translate(0 -1) translate(0 .09)">
            <mask id="prefix__b" fill="#fff">
                <use xlink:href="#prefix__a"/>
            </mask>
            <path fill="#000" d="M36.356 19.07l-.002.018v.441l-2.39-6.2.654.628.005.005c.004.005.506.482.968 1.35.614 1.152.87 2.416.765 3.757zm-.002 13.003H26.235c-.265-.4-.77-1.255-1.106-2.41-.55-1.894-.427-3.744.356-5.513l.012-.004-.01.002c.098-.225.205-.448.326-.669l.168-.308h-.002l.001-.003-.17-.182h-.002l-1.03-1.103-.199-.213-4.01-4.294c-.055-.082-.273-.434-.335-.898-.089-.673.187-1.289.823-1.83.63-.537 1.29-.684 1.967-.438.546.198.911.58.913.582l.008.008 6.985 6.87.986.97 1.203 1.182.68-.69-1.596-1.57 4.151-1.602v12.113zm-9.838 5.957h9.838v-4.987h-9.838v4.987zM7.878 29.9L5.08 22.64h19.078l.64.686c-.009.02-.015.04-.025.06L7.878 29.898zm-4.21-8.23H1.663V3.251h29.331v17.122l-6.357-6.25c-.075-.078-.542-.544-1.24-.809-.719-.272-1.815-.39-2.97.595-1.143.976-1.256 2.033-1.147 2.746.112.748.48 1.26.521 1.316l.016.022 3.434 3.677H3.667zM28.62 2.163l.046.118h-.354l.308-.118zm3.343 8.673l3.283 8.512-3.283 1.265v-9.777zm3.324 2.42l-2.149-2.068-1.175-3.047v-5.86h-2.258L29.175.91l-3.558 1.372H.694v9.608L0 12.157l.694 1.802v8.68h3.347l3.281 8.513 16.958-6.537c-.695 2.126-.46 4.032-.07 5.357.426 1.443 1.083 2.457 1.336 2.815V39h11.778V19.126c.278-3.634-1.898-5.739-2.037-5.87z" mask="url(#prefix__b)"/>
        </g>
    </g>
</svg>
