<svg xmlns="http://www.w3.org/2000/svg" width="37" height="37" viewBox="0 0 37 37">
    <g fill="none" fill-rule="evenodd" stroke="#000" stroke-linecap="round" stroke-linejoin="round">
        <path d="M22.197 23.058l-.352 10.43a2.013 2.013 0 0 1-1.994 2.03h-2.945a2.012 2.012 0 0 1-1.993-2.03l-.345-10.154c-.109.018-.217.036-.332.036-1.192 0-2.536-.966-2.536-2.16V11.14c0-2.372 2.306-3.454 4.68-3.454h.835M18.378 35.517V21.58M14.568 23.334V12.316"/>
        <path d="M22.012 4.223a3.634 3.634 0 1 1-7.267 0 3.634 3.634 0 0 1 7.267 0z"/>
        <path d="M22.189 23.334c.109.018.218.036.332.036 1.193 0 2.535-.966 2.535-2.16V11.14c0-2.372-2.306-3.454-4.678-3.454H19.563M22.189 23.334V12.316M10.46 23.033l-.33 10.576c.009 1.045-.83 1.9-1.876 1.91h-2.77a1.892 1.892 0 0 1-1.874-1.91l-.324-9.55c-.103.017-.205.034-.312.034-1.122 0-2.385-.91-2.385-2.031v-9.47c0-2.231 2.169-3.25 4.4-3.25h.787M6.87 35.517V23.032M3.286 24.06V13.698"/>
        <path d="M10.287 6.086a3.417 3.417 0 1 1-6.834 0 3.417 3.417 0 0 1 6.834 0z"/>
        <path d="M10.288 9.515a6.769 6.769 0 0 0-1.538-.172h-.766M26.297 23.033l.33 10.576c-.008 1.045.83 1.9 1.876 1.91h2.77a1.892 1.892 0 0 0 1.874-1.91l.324-9.55c.102.017.205.034.312.034 1.122 0 2.385-.91 2.385-2.031v-9.47c0-2.231-2.169-3.25-4.4-3.25h-.787M29.887 23.033v12.484M33.471 24.06V13.698"/>
        <path d="M26.47 6.086a3.417 3.417 0 1 0 6.834 0 3.417 3.417 0 0 0-6.834 0z"/>
        <path d="M26.47 9.515a6.767 6.767 0 0 1 1.537-.172h.767"/>
    </g>
</svg>
