<?xml version="1.0" encoding="UTF-8"?>
<svg width="80px" height="91px" viewBox="0 0 80 91" version="1.1" xmlns="http://www.w3.org/2000/svg" xmlns:xlink="http://www.w3.org/1999/xlink">
    <!-- Generator: sketchtool 52.4 (67378) - http://www.bohemiancoding.com/sketch -->
    <title>FE1469AB-D06D-4E23-A939-8375BF0B6E51</title>
    <desc>Created with sketchtool.</desc>
    <g id="Aprobado" stroke="none" stroke-width="1" fill="none" fill-rule="evenodd">
        <g id="Home_conoce-tu-recibo" transform="translate(-371.000000, -2385.000000)">
            <g id="Group-17-Copy" transform="translate(371.000000, 2385.000000)">
                <path d="M66.4275435,55.5154693 C66.4275435,54.8795508 65.9121343,54.3642961 65.2763703,54.3642961 C64.6406063,54.3642961 64.1251971,54.8797053 64.1251971,55.5154693 C64.1251971,56.3214913 63.4695027,56.9771857 62.6634806,56.9771857 C61.8576131,56.9771857 61.2017642,56.3214913 61.2017642,55.5154693 C61.2017642,54.8795508 60.686355,54.3642961 60.050591,54.3642961 C59.414827,54.3642961 58.8994178,54.8797053 58.8994178,55.5154693 C58.8994178,57.5910109 60.5880935,59.2793776 62.6634806,59.2793776 C64.7388677,59.2793776 66.4275435,57.5908564 66.4275435,55.5154693" id="Fill-3" fill="#000000"></path>
                <path d="M67.1308985,44.4291896 L67.1308985,44.4284896 L67.1308985,44.4291896 Z" id="Fill-5" fill="#000000"></path>
                <g id="Group-9" transform="translate(0.000000, 32.003881)" fill="#000000">
                    <path d="M76.8013117,32.0618492 C76.8013117,32.9545453 76.2302829,33.7370835 75.380074,34.009311 L70.1597022,35.6816098 C69.3243253,35.9493569 68.6174917,36.5233212 68.1694441,37.29798 C66.1183134,40.8424995 62.8937616,43.7755114 58.5847803,46.0159036 C58.0868295,46.2751531 57.7421419,46.7384961 57.6383185,47.2875861 L55.9663287,56.1408509 C55.9201334,56.3848051 55.7064611,56.5617066 55.4580265,56.5617066 L50.0218194,56.5617066 C49.7735392,56.5617066 49.5598669,56.3846506 49.5136716,56.1408509 L48.5876037,51.2480173 C48.4051402,50.2853331 47.5022472,49.6458611 46.5304475,49.7930988 C44.1887039,50.1472109 41.7758907,50.3265844 39.3589059,50.3265844 C37.5609993,50.3265844 35.7858041,50.2261599 34.0827599,50.028401 C33.1410876,49.9200971 32.2638414,50.5620411 32.0878669,51.491817 L31.2079942,56.1408509 C31.161799,56.3848051 30.9479722,56.5617066 30.699692,56.5617066 L25.2633304,56.5617066 C25.0152048,56.5617066 24.8015324,56.3846506 24.7545647,56.137143 L23.144838,47.7753399 C23.0411691,47.2366014 22.702816,46.7785114 22.2158346,46.5184893 C14.8704815,42.5968374 10.9879178,36.0457643 10.9879178,27.5728764 C10.9879178,23.2920139 11.9244917,19.5067847 13.7716835,16.3216302 C15.2777413,13.724345 17.3898992,11.5202601 20.0614985,9.7543348 L20.0763304,9.77565569 C20.1265426,9.74089338 25.1828363,6.27764041 33.1727599,4.93674228 C37.8707701,4.14833311 42.6301165,4.24860306 47.3188567,5.23508014 C53.1436292,6.4605674 58.8828092,9.06866757 64.3809705,12.9838306 C64.9856801,13.6322635 66.0841691,14.7829732 66.1022455,14.7338424 C66.4339552,15.1210173 66.7485154,15.5176166 67.0448448,15.9236404 C68.2463847,17.5696744 69.1634917,19.3838034 69.7709823,21.3151973 C70.1278754,22.449839 71.01331,23.3423806 72.1397633,23.7034452 L75.380074,24.741525 C76.2302829,25.013907 76.8013117,25.7964452 76.8013117,26.6891413 L76.8013117,32.0618492 Z M64.2596886,2.34486452 C64.4460146,2.34486452 64.5849093,2.36448591 64.6771453,2.40063871 C65.0480978,2.79569304 65.5343066,5.04241969 65.0871861,8.86658268 C65.017816,9.45893243 64.9010146,9.96028217 64.7616564,10.4225436 C61.6539059,8.30281528 58.4701419,6.58184924 55.2361657,5.26412598 C60.2042404,3.08012598 63.1211844,2.34486452 64.2596886,2.34486452 Z M3.23221494,21.6479885 C3.1130961,21.4023348 3.39428455,20.9705097 3.57257657,20.734744 C3.85515552,20.361474 4.11564109,20.2849969 4.31231851,20.2849969 C4.35387878,20.2849969 4.39265806,20.2885504 4.42819287,20.2933399 C4.95735246,20.363946 5.69910289,20.9464078 6.09199423,21.9229969 C6.18438472,22.1528917 6.30458506,22.5337321 6.3328584,23.008508 C4.73904516,22.6783433 3.50104346,22.2023314 3.23221494,21.6479885 Z M76.0822727,22.548564 L72.841962,21.5106387 C72.4271317,21.3776149 72.0999025,21.0463688 71.9671878,20.6244316 C71.2843015,18.453255 70.2537922,16.4149477 68.9043966,14.5659019 C68.289181,13.723109 67.6053677,12.9183229 66.8582098,12.1521616 L66.8582098,12.1523161 L66.8582098,12.1521616 C67.3360757,10.0551447 67.5959433,7.68203769 67.562108,5.63152496 C67.5140587,2.69835857 66.927889,0.978010526 65.7703813,0.371755857 C65.1468228,0.0448356537 63.2495732,-0.94828489 52.9804781,3.75250628 C52.7372964,3.86374567 52.5101827,4.00078642 52.2999093,4.15775756 C52.171057,4.12314975 52.0395783,4.09147742 51.909799,4.0579511 C50.545108,3.62380849 49.1734645,3.257182 47.7959501,2.9673416 C42.8229314,1.92107334 37.7737447,1.81493243 32.7891385,2.65123633 C26.8656411,3.64528387 22.4908431,5.7148 20.3073066,6.93009032 C20.2370095,6.95403769 20.1677939,6.98493752 20.1008958,7.02356231 C13.8160248,10.6590818 10.0255426,16.2681735 8.98174635,23.3919749 L8.98174635,23.3918204 C8.87097046,23.3816234 8.76019457,23.372199 8.64957317,23.360766 C8.66981256,22.5921328 8.53060883,21.816547 8.22779049,21.0636727 C7.55989066,19.4035793 6.1879382,18.2052839 4.7324017,18.0110784 C3.5854,17.8575063 2.4938635,18.3444876 1.73650866,19.3453331 C0.638019694,20.7966981 0.817084211,21.9452448 1.16069032,22.6531599 C1.74052564,23.8479019 3.23082445,24.6930122 5.70420136,25.2243348 C5.63622173,25.3259952 5.56144414,25.4282737 5.47955959,25.5310156 C4.01815212,27.3639935 2.29656808,27.7692448 1.17845772,27.8074061 C0.523999321,27.8294995 -6.17996604e-05,28.3551056 -6.17996604e-05,29.0100275 L-6.17996604e-05,29.0155895 C-6.17996604e-05,29.6615504 0.5096309,30.1883925 1.15497385,30.2177474 C1.2376309,30.2217643 1.32399593,30.2237728 1.41391443,30.2237728 C2.82850866,30.2237728 5.09887368,29.7020292 7.2800927,26.9667762 C7.62447131,26.5352601 7.90504177,26.0796421 8.12072258,25.6090377 C8.33794839,25.6337576 8.54667674,25.6547694 8.74659864,25.6731548 C8.74659864,25.6726913 8.74659864,25.6725368 8.74690764,25.6720733 C8.70751036,26.2959409 8.68572598,26.9287694 8.68572598,27.5730309 C8.68572598,32.3668306 9.8287107,36.6410496 12.0822353,40.2774961 C14.1602489,43.6301277 17.1355935,46.3752686 20.9280842,48.4396862 L22.4931606,56.5688136 C22.7448397,57.8985878 23.9099178,58.864053 25.2634849,58.864053 L30.6998465,58.864053 C32.0534136,58.864053 33.2184917,57.8985878 33.4703253,56.5688136 L34.2658414,52.3652007 C35.9183643,52.5402482 37.6292879,52.6289307 39.3589059,52.6289307 C41.7321674,52.6289307 44.1023389,52.4636166 46.4125647,52.1371599 L47.2511861,56.5691226 C47.5030197,57.8988968 48.6680978,58.8642075 50.0215104,58.8642075 L55.457872,58.8642075 C56.811439,58.8642075 57.9765171,57.8987423 58.2283508,56.5685046 L59.8563083,47.9488424 C64.4555935,45.5168713 67.922091,42.3221379 70.1620197,38.4510071 C70.3234713,38.1719817 70.5722149,37.9672703 70.8620553,37.8744163 L76.0822727,36.202272 C77.8892947,35.6230547 79.1035036,33.9590988 79.1035036,32.0615402 L79.1035036,26.6888323 C79.1035036,24.7911192 77.8892947,23.1274723 76.0822727,22.548564 Z" id="Fill-7"></path>
                </g>
                <circle id="Oval" fill="#F08224" cx="36.5" cy="15.5" r="14.5"></circle>
                <g id="Group-12" transform="translate(20.857385, 0.022557)" fill="#000000">
                    <path d="M25.2951572,25.3274939 C23.8767005,26.7459506 22.2158346,27.7763054 20.4457379,28.4252019 C17.3759942,27.9944582 14.2492404,27.9944582 11.1794968,28.4252019 C9.4092455,27.7763054 7.74853413,26.7459506 6.33007742,25.3274939 C3.79721834,22.7946348 2.4022455,19.4270168 2.4022455,15.844954 C2.4022455,12.2627367 3.79721834,8.89527317 6.33007742,6.36241409 C8.8629365,3.82940051 12.230709,2.43442767 15.8126173,2.43442767 C19.3945256,2.43442767 22.7622981,3.82940051 25.2951572,6.36241409 C25.8042319,6.8713343 26.2689654,7.4162528 26.6865766,7.99315263 C26.7176309,8.04645484 29.5013966,12.2644362 29.1288992,17.4046229 C28.7808126,20.395881 27.4420774,23.1805737 25.2951572,25.3274939 M29.9431097,9.03354992 C29.9227158,8.94718489 29.893361,8.86159236 29.8516462,8.77893531 C29.4884187,8.05726978 29.0692625,7.36727657 28.5997396,6.71142767 C28.5951046,6.70462971 28.5889246,6.69551426 28.5866071,6.69118829 L28.5858346,6.69165178 C28.0878839,5.99841409 27.5330774,5.34395569 26.9234238,4.73414754 C23.9556496,1.76637334 20.0097413,0.131926825 15.8127718,0.131926825 C11.6158024,0.131926825 7.66989406,1.76637334 4.70211986,4.73414754 C1.73434567,7.70207623 0.0998991511,11.6478301 0.0998991511,15.8447995 C0.0998991511,20.0417689 1.73434567,23.9876772 4.70211986,26.9554514 C5.55819966,27.8115312 6.48952054,28.5477197 7.47460713,29.1644803 C7.47491613,29.1644803 7.47522513,29.1643258 7.47553413,29.1643258 C6.75973956,29.3503428 6.04935246,29.5592256 5.34684482,29.7940643 C4.74383463,29.9956857 4.41845942,30.6478267 4.62008081,31.2509913 C4.82154771,31.8540015 5.47399762,32.1793767 6.07685331,31.9779098 C12.3550808,29.8790389 19.2704628,29.8790389 25.5486903,31.9779098 C25.6698177,32.0183886 25.792799,32.0375465 25.9137718,32.0375465 C26.3953457,32.0375465 26.8443202,31.7328742 27.0054628,31.2509913 C27.2070842,30.6479812 26.8818635,29.9956857 26.2786988,29.7940643 C25.5761912,29.5592256 24.8658041,29.3501883 24.1500095,29.1643258 C24.1503185,29.1643258 24.1506275,29.1644803 24.1509365,29.1644803 C25.1361776,28.5477197 26.067344,27.8115312 26.9234238,26.9554514 C27.4663338,26.4125414 29.7668261,23.9649659 30.1002353,22.3822766 C30.6026666,21.2847146 30.9777905,20.1298334 31.2172642,18.938645 L31.2691759,18.9513139 C32.077052,14.7090762 30.970838,11.1982375 29.9431097,9.03354992" id="Fill-10"></path>
                </g>
                <path d="M34.7368784,14.4124379 C33.2173793,13.8242596 32.9499413,13.4403292 32.9499413,12.8509149 C32.9499413,12.3611526 33.3366526,11.7891968 34.4264896,11.7891968 C35.2252503,11.7891968 35.8349039,12.0303699 36.2058564,12.2327638 L36.7809022,12.5463971 L37.5195626,10.3617791 L37.1237358,10.1376008 C36.729454,9.91419508 35.8610143,9.53938014 34.4743844,9.53938014 C32.1394387,9.53938014 30.444892,10.9992426 30.444892,13.0105126 C30.444892,14.6455771 31.4939413,15.8123547 33.638544,16.5724905 C35.0458767,17.113701 35.3126968,17.5611306 35.3126968,18.1975126 C35.3126968,19.0021441 34.6770873,19.482482 33.6125881,19.482482 C32.8655847,19.482482 32.0427222,19.2504243 31.4112842,18.8618589 L30.8022486,18.4871985 L30.1270873,20.7274362 L30.4663674,20.9536229 C31.1541976,21.4121764 32.4085762,21.7322986 33.5167986,21.7322986 C34.8430194,21.7322986 35.9510873,21.3628912 36.7215745,20.663937 C37.4387596,20.0131866 37.8336594,19.0976246 37.8336594,18.0858097 C37.8336594,15.9021187 36.267965,15.0033971 34.7368784,14.4124379" id="Fill-13" fill="#FFFFFF"></path>
                <polygon id="Fill-15" fill="#FFFFFF" points="42.0284504 9.53945739 37.1519937 22.2111688 39.4002654 22.2111688 44.2941805 9.53945739"></polygon>
            </g>
        </g>
    </g>
</svg>