<?xml version="1.0" encoding="UTF-8"?>
<svg width="120px" height="120px" viewBox="0 0 120 120" version="1.1" xmlns="http://www.w3.org/2000/svg" xmlns:xlink="http://www.w3.org/1999/xlink">
    <!-- Generator: sketchtool 52.4 (67378) - http://www.bohemiancoding.com/sketch -->
    <title>B62C0677-66DD-4398-A9FD-DC5211D1E435</title>
    <desc>Created with sketchtool.</desc>
    <defs>
        <polygon id="path-1" points="5.78940408e-05 0.072367551 42.667966 0.072367551 42.667966 70.9202 5.78940408e-05 70.9202"></polygon>
    </defs>
    <g id="Aprobado" stroke="none" stroke-width="1" fill="none" fill-rule="evenodd">
        <g id="Home_conoce-tu-recibo" transform="translate(-660.000000, -1256.000000)">
            <g id="Group-29" transform="translate(217.000000, 1255.000000)">
                <g id="Group-17" transform="translate(372.000000, 1.000000)">
                    <g id="Group-21" transform="translate(71.000000, 0.000000)">
                        <circle id="Oval-Copy" fill="#DA272C" cx="60" cy="60" r="60"></circle>
                        <g id="Group-10" transform="translate(33.000000, 24.000000)">
                            <g id="Group-3" transform="translate(0.000000, 0.072368)">
                                <mask id="mask-2" fill="white">
                                    <use xlink:href="#path-1"></use>
                                </mask>
                                <g id="Clip-2"></g>
                                <path d="M39.1074824,65.4057926 C39.1074824,66.4768323 38.2390718,67.3597165 37.1535586,67.3597165 L5.49999177,67.3597165 C4.42880728,67.3597165 3.54606789,66.4913058 3.54606789,65.4057926 L3.54606789,56.6203719 L39.1074824,56.6203719 L39.1074824,65.4057926 Z M3.54606789,5.57230143 C3.54606789,4.48678816 4.42880728,3.61837755 5.49999177,3.61837755 L37.1680321,3.61837755 C38.2390718,3.61837755 39.121956,4.48678816 39.121956,5.57230143 L39.121956,9.27752004 L3.54606789,9.27752004 L3.54606789,5.57230143 Z M39.1074824,53.0888354 L3.54606789,53.0888354 L3.54606789,12.82353 L39.1074824,12.82353 L39.1074824,18.5588032 C39.1074824,19.6629873 40.0080242,20.2083491 40.9311447,20.2083491 C41.8542652,20.2083491 42.667966,19.5134759 42.667966,18.6524468 L42.667966,5.57230143 C42.667966,2.54733779 40.2074692,0.072367551 37.1680321,0.072367551 L5.49999177,0.072367551 C2.4748834,0.072367551 5.78940408e-05,2.53286428 5.78940408e-05,5.57230143 L5.78940408e-05,65.4202661 C5.78940408e-05,68.4452297 2.46055463,70.9202 5.49999177,70.9202 L37.1680321,70.9202 C40.1929957,70.9057265 42.667966,68.4452297 42.667966,65.4057926 L42.667966,53.2914645 C42.667966,52.3841202 41.9398037,51.6448133 41.0327488,51.6310635 L40.5943461,51.6242609 C39.7768823,51.6118137 39.1074824,52.2712268 39.1074824,53.0888354 Z" id="Fill-1" fill="#FFFFFF" mask="url(#mask-2)"></path>
                            </g>
                            <path d="M24.9234425,60.4414075 L17.7301079,60.4414075 C16.7459092,60.4414075 15.9498661,61.2374506 15.9498661,62.2216493 C15.9498661,63.205848 16.7459092,64.001891 17.7301079,64.001891 L24.9234425,64.001891 C25.9076411,64.001891 26.7036842,63.205848 26.7036842,62.2216493 C26.7036842,61.2374506 25.9076411,60.4414075 24.9234425,60.4414075" id="Fill-4" fill="#FFFFFF"></path>
                            <path d="M61.0687763,33.7088052 L54.2105035,33.7088052 L54.2105035,26.8810715 C54.2105035,26.0054242 53.4940647,25.2889854 52.6184174,25.2889854 L52.0061879,25.2889854 C51.1305405,25.2889854 50.4141018,26.0054242 50.4141018,26.8810715 L50.4141018,33.7088052 L43.555829,33.7088052 C42.6801816,33.7088052 41.9637428,34.425244 41.9637428,35.3008914 L41.9637428,35.9741991 C41.9637428,36.8498464 42.6801816,37.5662852 43.555829,37.5662852 L50.4141018,37.5662852 L50.4141018,44.3940189 C50.4141018,45.2696663 51.1305405,45.986105 52.0061879,45.986105 L52.6184174,45.986105 C53.4940647,45.986105 54.2105035,45.2696663 54.2105035,44.3940189 L54.2105035,37.5662852 L61.0687763,37.5662852 C61.9444237,37.5662852 62.6608624,36.8498464 62.6608624,35.9741991 L62.6608624,35.3008914 C62.6608624,34.425244 61.9444237,33.7088052 61.0687763,33.7088052" id="Fill-6" fill="#FFFFFF"></path>
                            <path d="M52.3123026,49.938922 C44.4265553,49.938922 38.0108825,43.5233938 38.0108825,35.6375018 C38.0108825,27.7517545 44.4265553,21.3362264 52.3123026,21.3362264 C60.1980499,21.3362264 66.6137228,27.7517545 66.6137228,35.6375018 C66.6137228,43.5233938 60.1980499,49.938922 52.3123026,49.938922 M52.3123026,18.0521869 C42.6157745,18.0521869 34.7269877,25.9409736 34.7269877,35.6375018 C34.7269877,45.3341747 42.6157745,53.2228167 52.3123026,53.2228167 C62.0088308,53.2228167 69.8976175,45.3341747 69.8976175,35.6375018 C69.8976175,25.9409736 62.0088308,18.0521869 52.3123026,18.0521869" id="Fill-8" fill="#FFFFFF"></path>
                        </g>
                    </g>
                </g>
            </g>
        </g>
    </g>
</svg>