<?xml version="1.0" encoding="UTF-8"?>
<svg width="120px" height="120px" viewBox="0 0 120 120" version="1.1" xmlns="http://www.w3.org/2000/svg" xmlns:xlink="http://www.w3.org/1999/xlink">
    <!-- Generator: sketchtool 52.4 (67378) - http://www.bohemiancoding.com/sketch -->
    <title>6C02FB7C-5E5A-4BBE-B449-37D32944A5DA</title>
    <desc>Created with sketchtool.</desc>
    <defs>
        <polygon id="path-1" points="0.000101314571 0.072367551 42.6680094 0.072367551 42.6680094 70.9202 0.000101314571 70.9202"></polygon>
        <polygon id="path-3" points="0.135341794 0.0326667125 35.3059571 0.0326667125 35.3059571 35.2032965 0.135341794 35.2032965"></polygon>
    </defs>
    <g id="Aprobado" stroke="none" stroke-width="1" fill="none" fill-rule="evenodd">
        <g id="Home_conoce-tu-recibo" transform="translate(-310.000000, -1255.000000)">
            <g id="Group-29" transform="translate(217.000000, 1255.000000)">
                <g id="Group-15" transform="translate(21.000000, 0.000000)">
                    <g id="Group-27" transform="translate(72.000000, 0.000000)">
                        <circle id="Oval" fill="#DA272C" cx="60" cy="60" r="60"></circle>
                        <g id="Group-11" transform="translate(28.000000, 23.000000)">
                            <g id="Group-3" transform="translate(0.000000, 0.072368)">
                                <mask id="mask-2" fill="white">
                                    <use xlink:href="#path-1"></use>
                                </mask>
                                <g id="Clip-2"></g>
                                <path d="M39.1073811,65.4057926 C39.1073811,66.4768323 38.2389705,67.3597165 37.1534573,67.3597165 L5.50003519,67.3597165 C4.4288507,67.3597165 3.54611131,66.4913058 3.54611131,65.4057926 L3.54611131,56.6203719 L39.1073811,56.6203719 L39.1073811,65.4057926 Z M3.54611131,5.57230143 C3.54611131,4.48678816 4.4288507,3.61837755 5.50003519,3.61837755 L37.1680755,3.61837755 C38.2389705,3.61837755 39.1219994,4.48678816 39.1219994,5.57230143 L39.1219994,9.27752004 L3.54611131,9.27752004 L3.54611131,5.57230143 Z M39.1073811,53.0888354 L3.54611131,53.0888354 L3.54611131,12.82353 L39.1073811,12.82353 L39.1073811,18.5588032 C39.1073811,19.6629873 40.0079229,20.2083491 40.9311882,20.2083491 C41.8543086,20.2083491 42.6680094,19.5134759 42.6680094,18.6524468 L42.6680094,5.57230143 C42.6680094,2.54733779 40.2075126,0.072367551 37.1680755,0.072367551 L5.50003519,0.072367551 C2.47492682,0.072367551 0.000101314571,2.53286428 0.000101314571,5.57230143 L0.000101314571,65.4202661 C0.000101314571,68.4452297 2.46059805,70.9202 5.50003519,70.9202 L37.1680755,70.9202 C40.1928944,70.9057265 42.6680094,68.4452297 42.6680094,65.4057926 L42.6680094,53.2914645 C42.6680094,52.3841202 41.9397023,51.6448133 41.0326475,51.6310635 L40.5943896,51.6242609 C39.7769257,51.6118137 39.1073811,52.2712268 39.1073811,53.0888354 Z" id="Fill-1" fill="#FFFFFF" mask="url(#mask-2)"></path>
                            </g>
                            <path d="M24.9233411,60.4414075 L17.7301513,60.4414075 C16.7458079,60.4414075 15.9497648,61.2374506 15.9497648,62.2216493 C15.9497648,63.205848 16.7458079,64.001891 17.7301513,64.001891 L24.9233411,64.001891 C25.9076846,64.001891 26.7037276,63.205848 26.7037276,62.2216493 C26.7037276,61.2374506 25.9076846,60.4414075 24.9233411,60.4414075" id="Fill-4" fill="#FFFFFF"></path>
                            <g id="Group-8" transform="translate(34.591689, 18.019520)">
                                <mask id="mask-4" fill="white">
                                    <use xlink:href="#path-3"></use>
                                </mask>
                                <g id="Clip-7"></g>
                                <path d="M17.7206567,31.9194018 C9.83490939,31.9194018 3.41923652,25.5038736 3.41923652,17.6179816 C3.41923652,9.73223431 9.83490939,3.31670618 17.7206567,3.31670618 C25.606404,3.31670618 32.0220768,9.73223431 32.0220768,17.6179816 C32.0220768,25.5038736 25.606404,31.9194018 17.7206567,31.9194018 M17.7206567,0.0326667125 C8.02412853,0.0326667125 0.135341794,7.92145345 0.135341794,17.6179816 C0.135341794,27.3146545 8.02412853,35.2032965 17.7206567,35.2032965 C27.4171848,35.2032965 35.3059716,27.3146545 35.3059716,17.6179816 C35.3059716,7.92145345 27.4171848,0.0326667125 17.7206567,0.0326667125" id="Fill-6" fill="#FFFFFF" mask="url(#mask-4)"></path>
                            </g>
                            <path d="M62.8511457,29.1946043 L61.7841585,28.1276171 C61.5410035,27.8844621 61.2243231,27.7504374 60.8924455,27.7504374 C60.6356855,27.7504374 60.3883332,27.8304759 60.1768752,27.9792636 L60.0674554,27.9792636 L49.8045788,38.6251093 L45.7147991,34.2377542 L45.7023518,34.2250175 C45.1685688,33.6912344 44.3001582,33.6912344 43.7665199,34.2250175 L42.7756633,35.215874 C42.5465477,35.4448449 42.3984837,35.7949591 42.3984837,36.1075869 C42.3984837,36.4016887 42.5296137,36.7290795 42.7360059,36.9574715 L42.8562808,37.1376667 C42.8753858,37.1673374 42.8973856,37.195416 42.9209774,37.2207446 L48.8600376,43.6167335 L48.8730637,43.6300491 C49.1301133,43.8873881 49.4135046,44.0070841 49.7647767,44.0070841 C50.115904,44.0070841 50.3992954,43.8873881 50.662858,43.6233913 L62.8511457,30.9780302 C63.3512054,30.4779704 63.3512054,29.694664 62.8511457,29.1946043" id="Fill-9" fill="#FFFFFF"></path>
                        </g>
                    </g>
                </g>
            </g>
        </g>
    </g>
</svg>