<?xml version="1.0" encoding="UTF-8"?>
<svg width="70px" height="82px" viewBox="0 0 70 82" version="1.1" xmlns="http://www.w3.org/2000/svg" xmlns:xlink="http://www.w3.org/1999/xlink">
    <!-- Generator: sketchtool 52.4 (67378) - http://www.bohemiancoding.com/sketch -->
    <title>CA494BFA-F772-48BA-9EB1-764C768838B4</title>
    <desc>Created with sketchtool.</desc>
    <defs>
        <polygon id="path-1" points="0.000119346049 0.0483576644 69.8854454 0.0483576644 69.8854454 61.7066667 0.000119346049 61.7066667"></polygon>
        <polygon id="path-3" points="0 88.8022222 72.9415204 88.8022222 72.9415204 0.0144377778 0 0.0144377778"></polygon>
        <path d="M16.323158,1.87869111 L0.123125341,3.12172444 C0.372956403,4.73737111 1.49799183,43.6392711 1.49799183,43.6392711 L2.33759128,50.2264578 L9.29248229,51.7179 L20.002,51.0962844 L26.1485204,49.7292444 L31.4976104,48.3467778 C31.4976104,48.3467778 33.3894441,49.2211533 34.5126894,48.3511289 C35.6361335,47.4811044 35.5163896,46.8432711 36.5998529,45.9048156 C40.2176294,42.7706311 40.4117657,42.7376022 40.4026158,42.7799267 C40.457515,42.6756978 40.8475777,42.0234267 41.9974768,42.0234267 C43.2474278,42.0234267 45.3274305,41.0078378 45.3274305,41.0078378 L47.2473106,42.1476311 L48.5227221,43.5724222 L49.2825586,44.6896689 L49.589079,48.8789978 L51.7516294,43.0111289 L64.0178174,43.3408244 L61.8298065,48.4830467 L69.3883896,51.3179933 C69.3883896,51.3179933 71.6221499,4.73737111 71.7470654,4.36456 C71.7476621,4.36297778 71.747861,4.36139556 71.7480599,4.35981333 L71.7480599,4.35744 C71.7247875,3.94467778 59.3722725,0.0146355556 59.3722725,0.0146355556 L16.323158,1.87869111 Z" id="path-5"></path>
    </defs>
    <g id="Aprobado" stroke="none" stroke-width="1" fill="none" fill-rule="evenodd">
        <g id="Home_conoce-tu-recibo" transform="translate(-581.000000, -2398.000000)">
            <g id="Group-18" transform="translate(581.000000, 2391.000000)">
                <polygon id="Fill-1" fill="#FFFFFF" points="7.00694578 63.8306022 16.0165779 56.4465689 33.1429349 77.10604 24.1333027 84.4900733"></polygon>
                <polygon id="Fill-2" fill="#000000" points="8.75721526 67.9798811 10.6524305 66.4265344 12.2146703 68.3109611 10.319455 69.86411"></polygon>
                <polygon id="Fill-3" fill="#000000" points="13.1329586 73.2580756 15.0281738 71.7047289 16.5902147 73.5893533 14.6951984 75.1425022"></polygon>
                <polygon id="Fill-4" fill="#000000" points="17.5167379 78.5463171 19.4119531 76.9929704 20.9741929 78.8775949 19.0789777 80.4307438"></polygon>
                <g id="Group-14" transform="translate(0.000000, 0.183340)">
                    <g id="Group-7" transform="translate(0.000000, 27.095556)">
                        <mask id="mask-2" fill="white">
                            <use xlink:href="#path-1"></use>
                        </mask>
                        <g id="Clip-6"></g>
                        <path d="M67.2526125,6.69432289 L55.3565962,34.8193118 C54.6818932,36.3168851 53.4339313,37.505134 51.8925771,38.1386162 L29.0390022,46.8942384 L26.3797733,49.0737496 L14.5696861,34.8272229 L21.4955362,29.1508029 C21.8726698,28.841874 22.2420458,28.7046162 22.692776,28.4842918 L31.5227924,26.6324984 L31.7038005,26.6499029 C32.335539,26.4471807 32.9827924,26.0822807 33.5582392,25.6103829 L43.1435172,17.7546496 C44.5625417,16.5917162 46.6441357,16.791274 47.8135281,18.2020229 C48.4351221,18.9519962 48.6061847,19.9218984 48.5224436,20.7857918 L47.2645362,22.926934 L39.4851629,29.3026962 C37.4908905,30.9373296 37.2165935,33.8628584 38.85243,35.8358896 L40.7474463,34.2827407 C39.9623482,33.3355829 40.0948223,31.9677518 41.0474027,31.1869251 L48.9258332,24.730074 C49.8784136,23.9494451 50.4946371,22.9637207 50.7824599,21.7833829 L61.7613019,4.07020733 C62.5913537,2.76012733 64.2146589,2.22533622 65.6231411,2.95968511 C67.1269014,3.46698511 67.9277134,5.19674956 67.2526125,6.69432289 Z M26.2097052,52.5269496 L26.2914572,52.6256407 L19.1770403,58.4563273 L3.53097221,39.5827896 L10.6453891,33.7519051 L26.2097052,52.5269496 Z M66.7951193,0.574287333 C64.1985471,-0.628201556 61.1492556,0.296805111 59.7765771,2.681214 L50.4759395,17.5942518 C50.3378959,17.2267807 50.0269995,16.851794 49.7163019,16.4768073 C47.6798605,14.0204073 44.0497515,13.681614 41.5890349,15.698354 L32.0037569,23.5542851 C31.7159341,23.7900362 31.2570485,24.000274 30.8958278,24.1476184 L22.0658114,25.999214 L21.8848033,25.9820073 C21.1637542,26.2579073 20.5065553,26.6309162 19.941054,27.0945073 L13.0150049,32.7707296 L10.9047678,30.2253296 L0.000119346049,39.1627096 L18.6885172,61.7068051 L29.6033101,52.7611184 L27.9595172,50.7781984 L30.3309232,48.8346362 L52.8332229,40.2176562 C53.6533292,39.8604696 54.4736343,39.5028873 55.2277025,38.8848318 C56.2693946,38.0310251 57.0741847,36.891034 57.6343155,35.6367273 L69.4483809,7.41324511 C70.5748087,4.93251844 69.4652883,1.86538067 66.7951193,0.574287333 Z" id="Fill-5" fill="#000000" mask="url(#mask-2)"></path>
                    </g>
                    <mask id="mask-4" fill="white">
                        <use xlink:href="#path-3"></use>
                    </mask>
                    <g id="Clip-9"></g>
                    <polygon id="Fill-8" fill="#F16051" mask="url(#mask-4)" points="7.66161853 22.05954 67.416594 22.05954 67.416594 14.3626222 7.66161853 14.3626222"></polygon>
                    <polygon id="Fill-10" fill="#2197AE" mask="url(#mask-4)" points="7.66161853 24.87728 67.416594 24.87728 67.416594 13.3737333 7.66161853 13.3737333"></polygon>
                    <polygon id="Fill-11" fill="#000000" mask="url(#mask-4)" points="13.808139 41.0078378 16.2642807 41.0078378 16.2642807 38.5658756 13.808139 38.5658756"></polygon>
                    <polygon id="Fill-12" fill="#000000" mask="url(#mask-4)" points="19.9673896 41.0078378 22.4233324 41.0078378 22.4233324 38.5658756 19.9673896 38.5658756"></polygon>
                    <polygon id="Fill-13" fill="#000000" mask="url(#mask-4)" points="26.1139101 41.0078378 28.5700518 41.0078378 28.5700518 38.5658756 26.1139101 38.5658756"></polygon>
                </g>
                <g id="Group-17" transform="translate(1.193460, 0.183340)">
                    <mask id="mask-6" fill="white">
                        <use xlink:href="#path-5"></use>
                    </mask>
                    <g id="Clip-16"></g>
                    <path d="M66.2359234,45.9047167 L6.4680188,45.9047167 L6.4680188,9.59350778 L66.2231932,9.59350778 L66.2231932,45.9047167 L66.2359234,45.9047167 Z M4.01207602,7.26645444 L4.01207602,48.3466789 L68.6920651,48.3466789 L68.6920651,7.13869 L4.01207602,7.26645444 Z" id="Fill-15" fill="#000000" mask="url(#mask-6)"></path>
                </g>
            </g>
        </g>
    </g>
</svg>