<?xml version="1.0" encoding="UTF-8"?>
<svg width="113px" height="30px" viewBox="0 0 113 30" version="1.1" xmlns="http://www.w3.org/2000/svg" xmlns:xlink="http://www.w3.org/1999/xlink">
    <!-- Generator: sketchtool 52.4 (67378) - http://www.bohemiancoding.com/sketch -->
    <title>8ADC58E3-6B9A-470B-BF36-99DAC130B72F</title>
    <desc>Created with sketchtool.</desc>
    <g id="Aprobado" stroke="none" stroke-width="1" fill="none" fill-rule="evenodd">
        <g id="Home_conoce-tu-recibo" transform="translate(-763.000000, -2408.000000)">
            <g id="Group-13" transform="translate(379.000000, 2369.000000)">
                <g id="Group-11" transform="translate(0.000000, 38.000000)">
                    <g id="Group-3" transform="translate(384.000000, 0.000000)">
                        <g id="Group-17">
                            <g id="Group-16">
                                <g id="Group-4">
                                    <polygon id="Fill-4" fill="#040204" points="15.7069586 30.6072449 15.7069586 18.1900548 11.6452239 26.2684607 8.8379925 26.2684607 4.74656168 18.1900548 4.74656168 30.6072449 0.595422691 30.6072449 0.595422691 9.30327029 4.68685352 9.30327029 10.2416082 20.8228245 15.7666668 9.30327029 19.8580976 9.30327029 19.8580976 30.6072449"></polygon>
                                    <path d="M23.3500774,30.6070233 L27.2326877,30.6070233 L27.2326877,15.0183555 L23.3500774,15.0183555 L23.3500774,30.6070233 Z M23.2900534,12.3555169 L27.2620679,12.3555169 L27.2620679,9.18372267 L23.2900534,9.18372267 L23.2900534,12.3555169 Z" id="Fill-6" fill="#040204"></path>
                                    <path d="M97.2167209,16.6768611 C95.6071278,15.0620029 93.660768,14.270716 91.4512501,14.270716 C89.2436276,14.270716 87.3329664,15.0620029 85.7609673,16.6768611 C84.1494787,18.2933019 83.3650588,20.2433493 83.3650588,22.4985169 C83.3650588,24.7517853 84.1494787,26.7037318 85.7609673,28.2825073 C87.3329664,29.8989482 89.2436276,30.722203 91.4512501,30.722203 C93.660768,30.722203 95.6071278,29.8989482 97.2167209,28.2825073 C98.7890359,26.7037318 99.5769309,24.7517853 99.5769309,22.4985169 C99.5769309,20.2433493 98.7890359,18.2933019 97.2167209,16.6768611 M94.4846775,25.5411731 C93.660768,26.408107 92.6510998,26.8167276 91.4512501,26.8167276 C90.2908898,26.8167276 89.2812216,26.408107 88.4573122,25.5411731 C87.6337186,24.6764548 87.1825903,23.6610755 87.1825903,22.4985169 C87.1825903,21.2606277 87.6337186,20.2433493 88.4573122,19.4181953 C89.2812216,18.5553762 90.2908898,18.1407418 91.4512501,18.1803062 C92.6510998,18.1407418 93.660768,18.5553762 94.5203761,19.4181953 C95.3082711,20.2433493 95.7202258,21.2606277 95.7597153,22.4985169 C95.7202258,23.6610755 95.3082711,24.6764548 94.4846775,25.5411731" id="Fill-8" fill="#D82714"></path>
                                    <path d="M40.1975414,10.2537008 C37.3918895,10.2160355 35.067694,11.1918505 33.1216501,13.2191274 C31.1373804,15.2125373 30.1672017,17.5769025 30.1672017,20.3935672 C30.1672017,23.1725667 31.1373804,25.6179596 33.1216501,27.6078878 C35.067694,29.5576187 37.3918895,30.5372318 40.1975414,30.5372318 C42.4446534,30.5372318 44.5060066,29.8592572 46.2997789,28.4688079 C48.060064,27.0425925 49.2220038,25.2770732 49.8200332,23.0991352 L45.7393435,23.0991352 C45.2168181,24.1524963 44.4684126,25.0115173 43.531721,25.6898084 C42.4822474,26.3301178 41.3973911,26.6675225 40.1975414,26.6675225 C38.4770617,26.6675225 37.0178447,26.0287957 35.817995,24.8250902 C34.5862377,23.587201 33.9847332,22.1252194 34.0201158,20.3935672 C33.9847332,18.6679288 34.5862377,17.202149 35.817995,15.9642598 C37.0178447,14.7624533 38.4770617,14.1237266 40.1975414,14.1237266 C41.3973911,14.1237266 42.4822474,14.4589157 43.531721,15.1372068 C44.4684126,15.7759336 45.2168181,16.676418 45.7393435,17.72788 L49.8200332,17.72788 C49.2220038,15.5496255 48.060064,13.7467575 46.2997789,12.3601064 C44.5060066,10.9300928 42.4446534,10.2160355 40.1975414,10.2537008" id="Fill-9" fill="#D82714"></path>
                                    <path d="M64.9090443,14.2346966 C62.2875716,14.1951323 60.4524143,14.9110887 59.4048362,16.2996389 C58.7313028,17.1624581 58.3948521,18.2930487 58.28207,19.7192642 L62.176685,19.7192642 C62.2499776,19.0447713 62.4774372,18.5924717 62.7371204,18.2930487 C63.1487592,17.7654186 63.8222925,17.4998628 64.7978418,17.5394271 C65.6217513,17.4998628 66.2573747,17.6524229 66.705028,17.9160797 C67.1523653,18.1401721 67.3403355,18.5924717 67.3779295,19.2311984 C67.3779295,19.7550303 67.0790727,20.1712472 66.4810434,20.4333214 L63.4833145,20.9194881 C62.0992855,21.1097135 60.9787307,21.4449026 60.1156477,21.9367665 C58.6564307,22.7995857 57.9475147,24.1881359 57.9832133,26.1831283 C57.9475147,27.5662978 58.3948521,28.6965719 59.2920541,29.5239415 C60.0780536,30.2022326 61.1632258,30.5731879 62.4774372,30.6127522 C64.6079762,30.5731879 66.2930732,30.0474569 67.4910275,28.9963114 L67.4910275,30.6127522 L71.3872221,30.6127522 L71.3872221,19.1182027 C71.3872221,17.2377886 70.7083182,15.9245689 69.4370713,15.2484934 C68.0887409,14.5363352 66.5938254,14.1951323 64.9090443,14.2346966 Z M66.5562314,23.0594443 L67.3027414,22.6508238 L67.3027414,24.2277002 C67.3027414,25.5766861 66.9286966,26.5167349 66.2194647,27.0424659 C65.4691637,27.5662978 64.6831642,27.8318536 63.7843826,27.8318536 C63.2239472,27.8318536 62.7743985,27.6792935 62.4006696,27.3817697 C62.0282044,27.0424659 61.8380228,26.5544001 61.8380228,25.842242 C61.8380228,25.0547533 62.1387751,24.4878753 62.7743985,24.0751401 C63.1487592,23.8488321 63.7843826,23.6624049 64.6079762,23.5494091 L66.5562314,23.0594443 Z" id="Fill-10" fill="#D82714"></path>
                                    <polygon id="Fill-11" fill="#D82714" points="51.8043345 30.612404 55.6986336 30.612404 55.6986336 10.2535425 51.8043345 10.2535425"></polygon>
                                    <path d="M80.4808702,14.7986626 C79.4351875,15.2110813 78.5007074,15.9270377 77.7109168,17.0123668 L77.7109168,15.0227551 L74.0045879,14.9869889 L74.0045879,30.6133219 L77.861293,30.6133219 L77.861293,23.1394592 C77.861293,21.8601066 78.011985,20.9596222 78.3503313,20.3943268 C78.6096985,19.7951644 79.0968413,19.3070987 79.6983457,18.8943634 C80.3696677,18.4423804 81.0804791,18.2163889 81.8329915,18.2163889 L83.0271548,18.2936185 L82.9930359,14.3086978 L81.9814722,14.3840283 L80.4808702,14.7986626 Z" id="Fill-12" fill="#D82714"></path>
                                    <polygon id="Fill-13" fill="#D82714" points="100.250938 14.8725372 109.651341 5.44292983 107.18056 2.96715148 97.782053 12.3932772"></polygon>
                                    <polygon id="Fill-14" fill="#D82714" points="90.1793082 11.1163617 93.6619685 11.1163617 93.6619685 1.00846328 90.1793082 1.00846328"></polygon>
                                    <polygon id="Fill-15" fill="#D82714" points="101.975619 22.2716074 112.27354 22.2716074 112.27354 18.7785507 101.975619 18.7785507"></polygon>
                                </g>
                            </g>
                        </g>
                    </g>
                </g>
            </g>
        </g>
    </g>
</svg>