<?xml version="1.0" encoding="UTF-8"?>
<svg width="120px" height="120px" viewBox="0 0 120 120" version="1.1" xmlns="http://www.w3.org/2000/svg" xmlns:xlink="http://www.w3.org/1999/xlink">
    <!-- Generator: sketchtool 52.4 (67378) - http://www.bohemiancoding.com/sketch -->
    <title>DE6AEE68-284E-4766-A4AA-A9C43327B453</title>
    <desc>Created with sketchtool.</desc>
    <defs>
        <polygon id="path-1" points="0 0.0723916574 42.6821212 0.0723916574 42.6821212 70.9438243 0 70.9438243"></polygon>
    </defs>
    <g id="Aprobado" stroke="none" stroke-width="1" fill="none" fill-rule="evenodd">
        <g id="Home_conoce-tu-recibo" transform="translate(-1011.000000, -1255.000000)">
            <g id="Group-29" transform="translate(217.000000, 1255.000000)">
                <g id="Group-19" transform="translate(726.000000, 0.000000)">
                    <g id="Group-24" transform="translate(68.000000, 0.000000)">
                        <circle id="Oval-Copy-2" fill="#DA272C" cx="60" cy="60" r="60"></circle>
                        <g id="Group-20" transform="translate(33.000000, 24.000000)">
                            <g id="Group-3" transform="translate(0.000000, 0.072392)">
                                <mask id="mask-2" fill="white">
                                    <use xlink:href="#path-1"></use>
                                </mask>
                                <g id="Clip-2"></g>
                                <path d="M39.1204517,65.42758 C39.1204517,66.4989765 38.2517518,67.3821547 37.1658769,67.3821547 L5.50176596,67.3821547 C4.43036943,67.3821547 3.54719121,66.5134548 3.54719121,65.42758 L3.54719121,56.6392328 L39.1204517,56.6392328 L39.1204517,65.42758 Z M3.54719121,5.57415762 C3.54719121,4.48828276 4.43036943,3.61958287 5.50176596,3.61958287 L37.1803553,3.61958287 C38.2517518,3.61958287 39.13493,4.48828276 39.13493,5.57415762 L39.13493,9.28061048 L3.54719121,9.28061048 L3.54719121,5.57415762 Z M39.1204517,53.1065199 L3.54719121,53.1065199 L3.54719121,12.8278017 L39.1204517,12.8278017 L39.1204517,18.5649853 C39.1204517,19.6695372 40.0212935,20.2150808 40.9447214,20.2150808 C41.8682942,20.2150808 42.6821212,19.5199761 42.6821212,18.6586601 L42.6821212,5.57415762 C42.6821212,2.54818634 40.2208049,0.0723916574 37.1803553,0.0723916574 L5.50176596,0.0723916574 C2.47579468,0.0723916574 0,2.53370801 0,5.57415762 L0,65.4420583 C0,68.4680296 2.46131635,70.9438243 5.50176596,70.9438243 L37.1803553,70.9438243 C40.2063265,70.9293459 42.6821212,68.4680296 42.6821212,65.42758 L42.6821212,53.3092165 C42.6821212,52.4015699 41.9537164,51.6620168 41.0463593,51.6482623 L40.6078107,51.6414575 C39.7900745,51.6290062 39.1204517,52.2886389 39.1204517,53.1065199 Z" id="Fill-1" fill="#FFFFFF" mask="url(#mask-2)"></path>
                            </g>
                            <path d="M24.9316868,60.4615412 L17.7359561,60.4615412 C16.7514295,60.4615412 15.9551213,61.2578495 15.9551213,62.242376 C15.9551213,63.2269026 16.7514295,64.0232108 17.7359561,64.0232108 L24.9316868,64.0232108 C25.9162134,64.0232108 26.7125216,63.2269026 26.7125216,62.242376 C26.7125216,61.2578495 25.9162134,60.4615412 24.9316868,60.4615412" id="Fill-4" fill="#FFFFFF"></path>
                            <path d="M51.9863748,50.1109531 C44.0980007,50.1109531 37.6801907,43.6932879 37.6801907,35.804769 C37.6801907,27.9163949 44.0980007,21.4987296 51.9863748,21.4987296 C59.8747489,21.4987296 66.2925589,27.9163949 66.2925589,35.804769 C66.2925589,43.6932879 59.8747489,50.1109531 51.9863748,50.1109531 M51.9863748,18.2135962 C42.2866166,18.2135962 34.3952021,26.1050108 34.3952021,35.804769 C34.3952021,45.5046719 42.2866166,53.3959417 51.9863748,53.3959417 C61.686133,53.3959417 69.5775476,45.5046719 69.5775476,35.804769 C69.5775476,26.1050108 61.686133,18.2135962 51.9863748,18.2135962" id="Fill-6" fill="#FFFFFF"></path>
                            <path d="M62.7065658,31.9119366 L53.1824298,37.4106621 C52.2610288,37.942596 51.0832165,37.6271131 50.5512826,36.7057121 C50.0193487,35.7844559 50.3349763,34.606354 51.2562326,34.0745649 L60.7803686,28.5756946 C61.7017696,28.0437607 62.8797266,28.3595331 63.4116605,29.2807894 C63.9435944,30.2019008 63.627822,31.3800027 62.7065658,31.9119366" id="Fill-8" fill="#FFFFFF"></path>
                            <path d="M55.6059577,35.8048269 C55.6059577,37.8038501 53.9855428,39.4244098 51.9863748,39.4244098 C49.9873516,39.4244098 48.3667919,37.8038501 48.3667919,35.8048269 C48.3667919,33.8056589 49.9873516,32.185244 51.9863748,32.185244 C53.9855428,32.185244 55.6059577,33.8056589 55.6059577,35.8048269" id="Fill-10" fill="#FFFFFF"></path>
                            <path d="M51.9677122,24.0218106 C51.5886695,24.0218106 51.2782541,23.7115399 51.2782541,23.3323524 L51.2782541,19.0647194 C51.2782541,18.6855319 51.5886695,18.3752613 51.9677122,18.3752613 C52.3468997,18.3752613 52.6571704,18.6855319 52.6571704,19.0647194 L52.6571704,23.3323524 C52.6571704,23.7115399 52.3468997,24.0218106 51.9677122,24.0218106" id="Fill-12" fill="#FFFFFF"></path>
                            <path d="M40.0230888,35.5258729 C40.0230888,35.9050604 39.7128181,36.215331 39.3336306,36.215331 L35.0659976,36.215331 C34.6869549,36.215331 34.3765395,35.9050604 34.3765395,35.5258729 C34.3765395,35.1466854 34.6869549,34.8364147 35.0659976,34.8364147 L39.3336306,34.8364147 C39.7128181,34.8364147 40.0230888,35.1466854 40.0230888,35.5258729" id="Fill-14" fill="#FFFFFF"></path>
                            <path d="M69.558885,35.5258729 C69.558885,35.9050604 69.2486144,36.215331 68.8694269,36.215331 L64.6017939,36.215331 C64.2227512,36.215331 63.9123357,35.9050604 63.9123357,35.5258729 C63.9123357,35.1466854 64.2227512,34.8364147 64.6017939,34.8364147 L68.8694269,34.8364147 C69.2486144,34.8364147 69.558885,35.1466854 69.558885,35.5258729" id="Fill-16" fill="#FFFFFF"></path>
                            <path d="M51.9677122,53.2406182 C51.5886695,53.2406182 51.2782541,52.9303476 51.2782541,52.5511601 L51.2782541,48.2835271 C51.2782541,47.9043396 51.5886695,47.5940689 51.9677122,47.5940689 C52.3468997,47.5940689 52.6571704,47.9043396 52.6571704,48.2835271 L52.6571704,52.5511601 C52.6571704,52.9303476 52.3468997,53.2406182 51.9677122,53.2406182" id="Fill-18" fill="#FFFFFF"></path>
                        </g>
                    </g>
                </g>
            </g>
        </g>
    </g>
</svg>