<?xml version="1.0" encoding="UTF-8"?>
<svg width="67px" height="67px" viewBox="0 0 67 67" version="1.1" xmlns="http://www.w3.org/2000/svg" xmlns:xlink="http://www.w3.org/1999/xlink">
    <!-- Generator: sketchtool 52.4 (67378) - http://www.bohemiancoding.com/sketch -->
    <title>5596E54F-5B0A-48FF-BCA3-42D38BDF2428</title>
    <desc>Created with sketchtool.</desc>
    <defs>
        <polygon id="path-1" points="4.04426559e-05 0 66.9305734 0 66.9305734 66.9305734 4.04426559e-05 66.9305734"></polygon>
    </defs>
    <g id="Aprobado" stroke="none" stroke-width="1" fill="none" fill-rule="evenodd">
        <g id="Home_conoce-tu-recibo" transform="translate(-989.000000, -2388.000000)">
            <g id="Group-28" transform="translate(989.000000, 2388.000000)">
                <mask id="mask-2" fill="white">
                    <use xlink:href="#path-1"></use>
                </mask>
                <g id="Clip-2"></g>
                <path d="M5.64727767,60.2374487 L62.2245312,60.2374487 L62.2245312,27.8180765 L5.64727767,27.8180765 L5.64727767,60.2374487 Z M63.2702435,62.3291429 L4.60143058,62.3291429 C3.97403018,62.3291429 3.55571831,61.9106962 3.55571831,61.2832958 L3.55571831,26.7722294 C3.55571831,26.144829 3.97403018,25.7265171 4.60143058,25.7265171 L63.2702435,25.7265171 C63.8977787,25.7265171 64.3160905,26.144829 64.3160905,26.7722294 L64.3160905,61.2832958 C64.3160905,61.8062193 63.793167,62.3291429 63.2702435,62.3291429 Z" id="Fill-1" fill="#000000" mask="url(#mask-2)"></path>
                <path d="M39.8446439,60.2374487 L56.1590765,60.2374487 L56.1590765,27.8180765 L39.8446439,27.8180765 L39.8446439,60.2374487 Z M57.2046539,62.3291429 L38.7987968,62.3291429 C38.1713964,62.3291429 37.7529497,61.9106962 37.7529497,61.2832958 L37.7529497,26.7722294 C37.7529497,26.144829 38.1713964,25.7265171 38.7987968,25.7265171 L57.2046539,25.7265171 C57.8321891,25.7265171 58.250501,26.144829 58.250501,26.7722294 L58.250501,61.2832958 C58.250501,61.8062193 57.8321891,62.3291429 57.2046539,62.3291429 Z" id="Fill-3" fill="#000000" mask="url(#mask-2)"></path>
                <path d="M11.0854668,47.6879577 L29.7004125,47.6879577 L29.7004125,27.8179416 L11.0854668,27.8179416 L11.0854668,47.6879577 Z M30.7462596,49.7796519 L10.0396197,49.7796519 C9.41221932,49.7796519 8.99377264,49.3612052 8.99377264,48.7338048 L8.99377264,26.7722294 C8.99377264,26.144829 9.41221932,25.7265171 10.0396197,25.7265171 L30.7462596,25.7265171 C31.37366,25.7265171 31.7919718,26.144829 31.7919718,26.7722294 L31.7919718,48.7338048 C31.7919718,49.3612052 31.2690483,49.7796519 30.7462596,49.7796519 Z" id="Fill-4" fill="#000000" mask="url(#mask-2)"></path>
                <path d="M32.5241187,49.7796384 L8.26162575,49.7796384 C7.63422535,49.7796384 7.21604829,49.3611918 7.21604829,48.7337913 C7.21604829,48.1063909 7.63422535,47.6879443 8.26162575,47.6879443 L32.5241187,47.6879443 C33.1515191,47.6879443 33.569831,48.1063909 33.569831,48.7337913 C33.569831,49.3611918 33.0469074,49.7796384 32.5241187,49.7796384" id="Fill-5" fill="#000000" mask="url(#mask-2)"></path>
                <path d="M2.9281831,64.8390141 L64.8390141,64.8390141 L64.8390141,62.3291429 L2.9281831,62.3291429 L2.9281831,64.8390141 Z M65.8847264,66.9305734 L1.88247082,66.9305734 C1.25493561,66.9305734 0.836623742,66.5122616 0.836623742,65.8848612 L0.836623742,61.2832958 C0.836623742,60.6558954 1.25493561,60.2374487 1.88247082,60.2374487 L65.8847264,60.2374487 C66.5122616,60.2374487 66.9305734,60.6558954 66.9305734,61.2832958 L66.9305734,65.8848612 C66.9305734,66.5122616 66.5122616,66.9305734 65.8847264,66.9305734 Z" id="Fill-6" fill="#000000" mask="url(#mask-2)"></path>
                <path d="M39.9491342,26.7722159 C40.0537459,30.4325459 42.8774521,33.4652058 46.4331704,33.4652058 C49.9887539,33.4652058 52.8124602,30.5370227 52.916937,26.7722159 L39.9491342,26.7722159 Z" id="Fill-7" fill="#DA272C" mask="url(#mask-2)"></path>
                <path d="M41.0994851,27.8180495 C41.6224087,30.4325324 43.8185797,32.4194801 46.4330626,32.4194801 C49.0475455,32.4194801 51.2437165,30.4325324 51.76664,27.8180495 L41.0994851,27.8180495 Z M46.4330626,34.5110394 C42.3545555,34.5110394 39.0079258,31.1645445 38.9034489,26.7722024 C38.9034489,26.4585022 39.0079258,26.2494137 39.2171491,26.0401903 C39.4262376,25.830967 39.635461,25.7264901 39.9491612,25.7264901 L52.916964,25.7264901 C53.2306642,25.7264901 53.4398875,25.8311018 53.6491109,26.0401903 C53.8581994,26.2494137 53.9628111,26.5631139 53.9628111,26.7722024 C53.8581994,31.0599328 50.5115696,34.5110394 46.4330626,34.5110394 Z" id="Fill-8" fill="#000000" mask="url(#mask-2)"></path>
                <polygon id="Fill-9" fill="#DA272C" mask="url(#mask-2)" points="38.7987833 12.340362 39.9491072 26.7721889 52.9170449 26.7721889 49.4658034 12.340362"></polygon>
                <path d="M40.8904235,25.7264632 L51.5574437,25.7264632 L48.6291258,13.3860608 L39.8445765,13.3860608 L40.8904235,25.7264632 Z M52.9169909,27.8180225 L39.9491881,27.8180225 C39.4262646,27.8180225 38.9034759,27.3997107 38.9034759,26.8767871 L37.7530171,12.4449602 C37.7530171,12.1311252 37.8576288,11.8174249 38.0668521,11.6082016 C38.2758058,11.3991131 38.5896408,11.2945014 38.7987294,11.2945014 L49.4658843,11.2945014 C49.988673,11.2945014 50.4071197,11.6082016 50.5115966,12.1311252 L53.962838,26.5630869 C54.0673149,26.8767871 53.962838,27.1904873 53.7536147,27.5043223 C53.5443913,27.7134109 53.2306911,27.8180225 52.9169909,27.8180225 Z" id="Fill-10" fill="#000000" mask="url(#mask-2)"></path>
                <path d="M14.013569,26.7722159 C14.1180459,30.4325459 16.9418869,33.4652058 20.4974704,33.4652058 C24.0531887,33.4652058 26.8767602,30.5370227 26.9813718,26.7722159 L14.013569,26.7722159 Z" id="Fill-11" fill="#DA272C" mask="url(#mask-2)"></path>
                <path d="M15.1639199,27.8180495 C15.6868435,30.4325324 17.8830145,32.4194801 20.4973626,32.4194801 C23.1119803,32.4194801 25.3081513,30.4325324 25.8310748,27.8180495 L15.1639199,27.8180495 Z M20.4973626,34.5110394 C16.4189903,34.5110394 13.0723606,31.1645445 12.9677489,26.7722024 C12.9677489,26.4585022 13.0723606,26.2494137 13.2814491,26.0401903 C13.4906724,25.830967 13.6998958,25.7264901 14.013596,25.7264901 L26.9813988,25.7264901 C27.295099,25.7264901 27.5043223,25.8311018 27.7134109,26.0401903 C27.9226342,26.2494137 28.0271111,26.5631139 28.0271111,26.7722024 C27.9226342,31.0599328 24.5760044,34.5110394 20.4973626,34.5110394 Z" id="Fill-12" fill="#000000" mask="url(#mask-2)"></path>
                <polygon id="Fill-13" fill="#DA272C" mask="url(#mask-2)" points="17.4647565 12.340362 14.0135151 26.7721889 26.9814527 26.7721889 28.1317767 12.340362"></polygon>
                <path d="M15.3731163,25.7264632 L26.0401364,25.7264632 L26.9813718,13.3860608 L18.1966877,13.3860608 L15.3731163,25.7264632 Z M26.9813718,27.8180225 L14.013569,27.8180225 C13.6998688,27.8180225 13.3861686,27.7134109 13.1769453,27.3997107 C12.9677219,27.1904873 12.8632451,26.7721755 12.9677219,26.4584753 L16.4189634,12.0265135 C16.5234402,11.5037247 16.9418869,11.1898897 17.4648105,11.1898897 L28.1318306,11.1898897 C28.4455308,11.1898897 28.6546193,11.2945014 28.8637078,11.5037247 C29.0729312,11.7128133 29.1775429,12.0265135 29.1775429,12.3403485 L28.0270841,26.7721755 C28.0270841,27.3997107 27.5042954,27.8180225 26.9813718,27.8180225 Z" id="Fill-14" fill="#000000" mask="url(#mask-2)"></path>
                <path d="M52.9169775,26.7722159 C53.0214543,30.4325459 55.8451606,33.4652058 59.4008789,33.4652058 C62.9565972,33.4652058 65.7801686,30.5370227 65.8846455,26.7722159 L52.9169775,26.7722159 Z" id="Fill-15" fill="#DA272C" mask="url(#mask-2)"></path>
                <path d="M54.0673419,27.8180495 C54.5902654,30.4325324 56.7864364,32.4194801 59.4007845,32.4194801 C62.0154022,32.4194801 64.2114384,30.4325324 64.734362,27.8180495 L54.0673419,27.8180495 Z M59.4007845,34.5110394 C55.3224123,34.5110394 51.9757825,31.1645445 51.8711708,26.7722024 C51.8711708,26.4585022 51.9756477,26.2494137 52.184871,26.0401903 C52.3940944,25.830967 52.6033177,25.7264901 52.9170179,25.7264901 L65.8846859,25.7264901 C66.1985209,25.7264901 66.4076095,25.8311018 66.6168328,26.0401903 C66.8260561,26.2494137 66.930533,26.5631139 66.930533,26.7722024 C66.8260561,31.0599328 63.4794264,34.5110394 59.4007845,34.5110394 Z" id="Fill-16" fill="#000000" mask="url(#mask-2)"></path>
                <polygon id="Fill-17" fill="#DA272C" mask="url(#mask-2)" points="49.4658034 12.340362 52.9170449 26.7721889 65.8847129 26.7721889 60.2374352 12.340362"></polygon>
                <path d="M53.7536147,25.7264632 L64.3161579,25.7264632 L59.4008924,13.3860608 L50.7208199,13.3860608 L53.7536147,25.7264632 Z M65.884659,27.8180225 L52.9169909,27.8180225 C52.3940674,27.8180225 51.9757555,27.5043223 51.8711439,26.9813988 L48.5246489,12.549437 C48.420172,12.2357368 48.5246489,11.9220366 48.7338722,11.6082016 C48.9429608,11.3991131 49.2567958,11.1898897 49.570496,11.1898897 L60.2375161,11.1898897 C60.655828,11.1898897 61.0741398,11.5037247 61.1787515,11.8174249 L66.8260292,26.2493867 C66.930506,26.5630869 66.930506,26.9813988 66.7214175,27.1904873 C66.512329,27.6087992 66.198494,27.8180225 65.884659,27.8180225 Z" id="Fill-18" fill="#000000" mask="url(#mask-2)"></path>
                <path d="M26.9814258,26.7722159 C27.0859026,30.4325459 29.9096089,33.4652058 33.4653272,33.4652058 C37.0210455,33.4652058 39.8446169,30.5370227 39.9490938,26.7722159 L26.9814258,26.7722159 Z" id="Fill-19" fill="#DA272C" mask="url(#mask-2)"></path>
                <path d="M28.1317767,27.8180495 C28.6547002,30.4325324 30.8508712,32.4194801 33.4652193,32.4194801 C36.0797022,32.4194801 38.2758732,30.4325324 38.7987968,27.8180495 L28.1317767,27.8180495 Z M33.4652193,34.5110394 C29.3867123,34.5110394 26.0400825,31.1645445 25.9356056,26.7722024 C25.9356056,26.4585022 26.0400825,26.2494137 26.2493058,26.0401903 C26.4585292,25.830967 26.6677525,25.7264901 26.9814527,25.7264901 L39.9491207,25.7264901 C40.2628209,25.7264901 40.4720443,25.8311018 40.6812676,26.0401903 C40.8904909,26.2494137 40.9949678,26.5631139 40.9949678,26.7722024 C40.8904909,31.0599328 37.5438612,34.5110394 33.4652193,34.5110394 Z" id="Fill-20" fill="#000000" mask="url(#mask-2)"></path>
                <polygon id="Fill-21" fill="#DA272C" mask="url(#mask-2)" points="28.1317767 12.340362 26.9814527 26.7721889 39.9491207 26.7721889 38.7987968 12.340362"></polygon>
                <path d="M28.1317767,25.7264632 L38.7987968,25.7264632 L37.8576962,13.3860608 L29.0728773,13.3860608 L28.1317767,25.7264632 Z M39.9491207,27.8180225 L26.9814527,27.8180225 C26.6677525,27.8180225 26.4585292,27.7134109 26.2493058,27.5043223 C26.0400825,27.295099 25.9356056,26.9813988 25.9356056,26.6676986 L27.0859296,12.2357368 C27.0859296,11.7128133 27.6088531,11.2945014 28.1317767,11.2945014 L38.7987968,11.2945014 C39.3217203,11.2945014 39.8446439,11.7128133 39.8446439,12.2357368 L40.9949678,26.6676986 C40.9949678,26.9813988 40.8904909,27.295099 40.6812676,27.5043223 C40.4720443,27.7134109 40.2628209,27.8180225 39.9491207,27.8180225 Z" id="Fill-22" fill="#000000" mask="url(#mask-2)"></path>
                <path d="M1.04586056,26.7722159 C1.15033742,30.4325459 3.97404366,33.4652058 7.52976197,33.4652058 C11.0854803,33.4652058 13.9090517,30.5370227 14.0135286,26.7722159 L1.04586056,26.7722159 Z" id="Fill-23" fill="#DA272C" mask="url(#mask-2)"></path>
                <path d="M2.19621147,27.8180495 C2.71913501,30.4325324 4.91517123,32.4194801 7.52965412,32.4194801 C10.144137,32.4194801 12.340308,30.4325324 12.8632316,27.8180495 L2.19621147,27.8180495 Z M7.52965412,34.5110394 C3.45114708,34.5110394 0.104517304,31.1645445 4.04426559e-05,26.7722024 C4.04426559e-05,26.4585022 0.104517304,26.2494137 0.313740644,26.0401903 C0.522963984,25.830967 0.732052515,25.7264901 1.04588753,25.7264901 L14.0135555,25.7264901 C14.3272557,25.7264901 14.5364791,25.8311018 14.7457024,26.0401903 C14.9547909,26.2494137 15.0594026,26.5631139 15.0594026,26.7722024 C14.9547909,31.0599328 11.6081612,34.5110394 7.52965412,34.5110394 Z" id="Fill-24" fill="#000000" mask="url(#mask-2)"></path>
                <polygon id="Fill-25" fill="#DA272C" mask="url(#mask-2)" points="6.69308431 12.340362 1.04580664 26.7721889 14.0136095 26.7721889 17.4647161 12.340362"></polygon>
                <path d="M2.61445594,25.7264632 L13.1769992,25.7264632 L16.1051823,13.3860608 L7.42510986,13.3860608 L2.61445594,25.7264632 Z M14.0136229,27.8180225 L1.04582012,27.8180225 C0.731985111,27.8180225 0.418284909,27.6087992 0.209196378,27.3997107 C-2.69617706e-05,27.0860105 -2.69617706e-05,26.7721755 0.104584708,26.4584753 L5.75172757,12.0265135 C5.96095091,11.5037247 6.27465111,11.2945014 6.69309779,11.2945014 L17.3601179,11.2945014 C17.6738181,11.2945014 17.9875183,11.3991131 18.1967416,11.7128133 C18.405965,11.9220366 18.5104419,12.3403485 18.405965,12.6540487 L14.9547235,27.0860105 C14.9547235,27.5043223 14.5365465,27.8180225 14.0136229,27.8180225 Z" id="Fill-26" fill="#000000" mask="url(#mask-2)"></path>
                <path d="M7.73890443,11.2945419 L59.0870573,11.2945419 L59.0870573,2.92816962 C59.0870573,2.50985775 58.7733571,2.09154588 58.3550453,2.09154588 L8.4709165,2.09154588 C8.05260463,2.09154588 7.73890443,2.50985775 7.73890443,2.92816962 L7.73890443,11.2945419 Z M60.2375161,13.3861012 L6.69305734,13.3861012 C6.06565694,13.3861012 5.64721026,12.9677893 5.64721026,12.3403889 L5.64721026,2.92816962 C5.64721026,1.3595338 6.90228068,-1.34808853e-05 8.4709165,-1.34808853e-05 L58.4596569,-1.34808853e-05 C60.0282928,-1.34808853e-05 61.2832284,1.3595338 61.2832284,2.92816962 L61.2832284,12.3403889 C61.2832284,12.8631777 60.7604396,13.3861012 60.2375161,13.3861012 Z" id="Fill-27" fill="#000000" mask="url(#mask-2)"></path>
            </g>
        </g>
    </g>
</svg>