<?xml version="1.0" encoding="UTF-8"?>
<svg width="73px" height="75px" viewBox="0 0 73 75" version="1.1" xmlns="http://www.w3.org/2000/svg" xmlns:xlink="http://www.w3.org/1999/xlink">
    <!-- Generator: sketchtool 52.4 (67378) - http://www.bohemiancoding.com/sketch -->
    <title>56476190-67DE-411D-8BAF-82F6D308F2BA</title>
    <desc>Created with sketchtool.</desc>
    <g id="Aprobado" stroke="none" stroke-width="1" fill="none" fill-rule="evenodd">
        <g id="debito-automatico" transform="translate(-682.000000, -737.000000)">
            <g id="Group-12" transform="translate(682.000000, 737.000000)">
                <g id="Group-22">
                    <path d="M63.4936176,52.18825 L54.0972809,61.6737383 L50.8110703,58.3121527 C50.1950099,57.6866745 49.2064479,57.6866745 48.5903875,58.3121527 C47.9743272,58.9374617 47.9743272,59.9408646 48.5903875,60.5661736 L52.980609,65.0481751 C53.2886392,65.3608296 53.6866295,65.5172414 54.0972809,65.5172414 C54.4951046,65.5172414 54.893095,65.3608296 55.2012917,65.0481751 L65.7143004,54.44244 C66.3305273,53.8169619 66.3305273,52.8137281 65.7143004,52.18825 C65.1110676,51.5759612 64.1098446,51.5629409 63.4936176,52.18825" id="Fill-1" fill="#DA272C"></path>
                    <path d="M38.4963831,37.2472513 C38.4963831,38.4900237 37.4795317,39.5011148 36.2294784,39.5011148 C34.9794251,39.5011148 33.9625737,38.4900237 33.9625737,37.2472513 C33.9625737,36.0046411 34.9794251,34.99355 36.2294784,34.99355 C37.4795317,34.99355 38.4963831,36.0046411 38.4963831,37.2472513 M37.6078008,32.4630641 L37.6078008,20.3358117 C37.6078008,19.5802515 36.9896283,18.9655172 36.2294784,18.9655172 C35.4694917,18.9655172 34.8511559,19.5802515 34.8511559,20.3358117 L34.8511559,32.4630641 C33.1237651,32.9544947 31.8046815,34.3023998 31.3668364,36.0232989 L22.8640263,36.0232989 C22.1040396,36.0232989 21.4858671,36.6378709 21.4858671,37.3934312 C21.4858671,38.1489914 22.1040396,38.7637257 22.8640263,38.7637257 L31.4675261,38.7637257 C32.1307398,40.817545 34.0715862,42.2413793 36.2294784,42.2413793 C38.9993419,42.2413793 41.2528648,40.0011441 41.2528648,37.2472513 C41.2528648,35.0256739 39.7604709,33.076176 37.6078008,32.4630641" id="Fill-3" fill="#000000"></path>
                    <path d="M36.5260503,12.9310345 C37.2369119,12.9310345 37.8151261,12.2599342 37.8151261,11.4352726 L37.8151261,10.1164516 C37.8151261,9.29161282 37.2369119,8.62068966 36.5260503,8.62068966 C35.8151888,8.62068966 35.236822,9.29161282 35.236822,10.1164516 L35.236822,11.4352726 C35.236822,12.2599342 35.8151888,12.9310345 36.5260503,12.9310345" id="Fill-5" fill="#000000"></path>
                    <path d="M36.5260503,61.2068966 C35.8151888,61.2068966 35.236822,61.8779693 35.236822,62.7027741 L35.236822,64.0215409 C35.236822,64.8463458 35.8151888,65.5172414 36.5260503,65.5172414 C37.2369119,65.5172414 37.8151261,64.8463458 37.8151261,64.0215409 L37.8151261,62.7027741 C37.8151261,61.8779693 37.2369119,61.2068966 36.5260503,61.2068966" id="Fill-7" fill="#000000"></path>
                    <path d="M62.96641,35.3448276 L61.6517956,35.3448276 C60.8293008,35.3448276 60.1604278,35.9249672 60.1604278,36.6378545 C60.1604278,37.351048 60.8293008,37.9310345 61.6517956,37.9310345 L62.96641,37.9310345 C63.7887282,37.9310345 64.4576012,37.351048 64.4576012,36.6378545 C64.4576012,35.9249672 63.7887282,35.3448276 62.96641,35.3448276" id="Fill-9" fill="#000000"></path>
                    <path d="M11.400329,35.3448276 L10.0857146,35.3448276 C9.26321981,35.3448276 8.59434683,35.9249672 8.59434683,36.6378545 C8.59434683,37.351048 9.26321981,37.9310345 10.0857146,37.9310345 L11.400329,37.9310345 C12.2226473,37.9310345 12.8915202,37.351048 12.8915202,36.6378545 C12.8915202,35.9249672 12.2226473,35.3448276 11.400329,35.3448276" id="Fill-11" fill="#000000"></path>
                    <path d="M54.4852045,17.6258184 L53.6681456,18.4453325 C53.1572703,18.9578401 53.1572703,19.7918327 53.6678352,20.3043403 C53.9144272,20.55281 54.2437337,20.6896552 54.5949217,20.6896552 C54.9448681,20.6896552 55.2738643,20.55281 55.5215426,20.304496 L56.3382912,19.484982 C56.5861246,19.2363566 56.7226891,18.9063091 56.7226891,18.5554002 C56.7226891,18.2044913 56.5861246,17.8744438 56.3382912,17.6258184 C55.8272607,17.1131551 54.9959246,17.1133108 54.4852045,17.6258184" id="Fill-13" fill="#000000"></path>
                    <path d="M18.456068,54.3103448 L18.4552923,54.3103448 C18.1056076,54.3106561 17.7770219,54.4474541 17.5298845,54.6959939 L16.7135398,55.5149147 C16.4657818,55.7634545 16.329259,56.093544 16.329259,56.4441766 C16.329259,56.7949648 16.4657818,57.1250543 16.7135398,57.3735941 C16.9609875,57.6218226 17.2898835,57.7586207 17.6397233,57.7586207 C17.9897183,57.7586207 18.3186143,57.6218226 18.5660619,57.3735941 L19.382872,56.5543621 C19.6304748,56.3058222 19.7669977,55.9757327 19.7669977,55.6249446 C19.7669977,55.274312 19.6304748,54.9442225 19.382872,54.6958383 C19.1351141,54.4472985 18.8060629,54.3103448 18.456068,54.3103448" id="Fill-15" fill="#000000"></path>
                    <path d="M17.5298014,20.3043512 C17.7775552,20.5528139 18.1066516,20.6896552 18.4567047,20.6896552 C18.8067578,20.6896552 19.1360095,20.5528139 19.3836081,20.3043512 C19.8947943,19.791858 19.8947943,18.957889 19.3836081,18.4452401 L18.5664553,17.6257492 C18.0552691,17.113256 17.2238348,17.113256 16.7126486,17.6257492 C16.2014624,18.1383981 16.2014624,18.9723671 16.7126486,19.4848603 L17.5298014,20.3043512 Z" id="Fill-17" fill="#000000"></path>
                    <g id="Group-21" fill="#000000">
                        <path d="M47.5699805,67.4525261 C47.4533252,67.3276923 47.3361818,67.1958956 47.220828,67.0599545 C47.0163151,66.8227205 46.8145681,66.5702346 46.6043607,66.2882395 L46.5082055,66.1595927 C46.4328757,66.0596262 46.3577087,65.9598255 46.2870972,65.8562118 C46.0432111,65.4999464 45.8142933,65.1267713 45.6070145,64.7482911 C45.5591809,64.6591004 45.5123236,64.5704071 45.4653035,64.481548 L45.4470812,64.4468995 C45.2463103,64.0583067 45.0649007,63.6610932 44.907896,63.2660348 C44.8667331,63.1619237 44.8296377,63.0556575 44.7927049,62.9493913 C44.7736691,62.894849 44.7546333,62.8403068 44.7354348,62.7865934 C44.6108072,62.4344726 44.5096083,62.1155081 44.4267944,61.8114641 C44.372941,61.6128573 44.3314527,61.4482358 44.2963096,61.2928982 C44.2211426,60.9687945 44.1568764,60.6246312 44.1002571,60.2411776 C44.091634,60.1828223 44.0821975,60.1246329 44.0724355,60.0661118 C44.056491,59.9692952 44.0405465,59.8719812 44.0293202,59.7741698 C43.9657048,59.2070298 43.9346293,58.7000687 43.9346293,58.2241087 C43.9346293,50.828908 49.8393092,44.8125157 57.0971585,44.8125157 C57.5696371,44.8125157 58.0671713,44.8443458 58.6180708,44.9099955 C58.722361,44.9224291 58.8250242,44.9398362 58.9278501,44.9574091 L59.0763945,44.9819448 C59.4533686,45.0404659 59.7906441,45.1057839 60.1074194,45.1818779 C60.2950116,45.2274679 60.4614529,45.2710685 60.6173188,45.3161612 C60.9212409,45.4020363 61.2339488,45.5044895 61.5731767,45.6293233 L61.716352,45.6815446 C61.8266621,45.7211665 61.9368094,45.7607884 62.0448417,45.8060469 C62.4348317,45.9680158 62.8233575,46.1523653 63.2003315,46.3541219 C63.3013678,46.4075037 63.4014278,46.4618802 63.5009997,46.5194065 C63.8750452,46.7326021 64.2401422,46.9650284 64.5868543,47.210883 C64.6953746,47.2871427 64.7982005,47.3680443 64.9070463,47.4535878 L65.0110111,47.5349867 C65.2967109,47.7551451 65.5443392,47.9603831 65.7685387,48.1631345 C65.8991861,48.2803423 66.028532,48.3985448 66.1536477,48.5189025 C66.434792,48.7921111 66.7108925,49.0852136 66.9728383,49.3889261 C67.0040765,49.4255639 67.036291,49.4608755 67.0686681,49.496187 C67.101208,49.5314986 67.1335851,49.5668101 67.1638471,49.6027848 C67.4967297,50.0069612 67.8091122,50.4345128 68.092697,50.8735034 C69.5102952,53.0658037 70.2595251,55.6075724 70.2595251,58.2241087 C70.2595251,65.6193094 64.3548452,71.6358675 57.0971585,71.6358675 C54.5296022,71.6358675 52.0350978,70.8727732 49.8829126,69.4289783 C49.4592438,69.1459886 49.0389918,68.8271899 48.6343588,68.4820319 C48.5949856,68.4478808 48.556914,68.4119062 48.5190051,68.3757657 C48.4879295,68.3462565 48.4565286,68.3165815 48.4243141,68.2875697 C48.1319436,68.0267947 47.8444541,67.7457943 47.5699805,67.4525261 M68.6899658,47.1548487 C68.4599091,46.9046838 68.2633685,46.7014351 68.0718715,46.5150962 C67.8972952,46.3453355 67.7053101,46.1676173 67.4845273,45.9718288 C67.2918914,45.8010734 67.0909579,45.6331363 66.888072,45.4724936 C66.6212453,45.2599612 66.4112006,45.09965 66.2066877,44.9526014 C65.9990835,44.8048897 65.7825308,44.6639751 65.5897322,44.5396386 C65.3528422,44.3867877 65.1079799,44.2287975 64.8567723,44.0860592 C64.6543744,43.9701777 64.4449805,43.8640772 64.24242,43.761624 L64.0943637,43.6861932 C63.8813905,43.5771087 63.6610957,43.4647085 63.4373843,43.3655709 C63.2263634,43.2709095 63.007533,43.1881843 62.796024,43.1079458 L62.4849431,42.988417 C62.3098787,42.9199491 62.1289572,42.8489944 61.9451071,42.7889814 C61.6896693,42.7057588 61.4256085,42.6371251 61.1701707,42.5708123 L61.0354558,42.5356666 C60.958499,42.5159385 60.8823558,42.4947184 60.8062126,42.4734983 C60.6698706,42.4355343 60.528485,42.3960782 60.3848216,42.3650769 C60.0342048,42.2891488 59.6726871,42.238088 59.3230465,42.1888507 L59.2810701,42.1828826 C59.2161531,42.1735988 59.1513989,42.1623256 59.0866446,42.151384 C58.9795885,42.1329822 58.8725324,42.1147462 58.764012,42.1033073 C58.199283,42.0427969 57.6384588,42.0121272 57.0971585,42.0121272 C48.3240914,42.0121272 41.1866395,49.284815 41.1866395,58.2241087 C41.1866395,58.7769915 41.2165762,59.3489392 41.2757987,59.9237051 C41.2871876,60.0341159 41.3050845,60.1427031 41.3231441,60.2512903 C41.3345331,60.3192608 41.345922,60.3870657 41.3553586,60.4553678 L41.3636562,60.5173703 C41.4114898,60.8655123 41.4607877,61.2252591 41.5330261,61.573567 C41.5637763,61.7242628 41.6036376,61.8719745 41.6421973,62.0147127 C41.6628601,62.0911382 41.6835229,62.1677295 41.7028841,62.2446523 L41.7350986,62.3739622 C41.7996901,62.6339083 41.8663968,62.9028066 41.949048,63.1625869 C42.0064809,63.3452786 42.0735129,63.5239915 42.1382672,63.6969021 C42.1646245,63.7671936 42.1909818,63.8373194 42.2170136,63.908274 L42.2640337,64.036755 C42.3414785,64.2492875 42.4216893,64.4691143 42.5132889,64.6816468 C42.6198569,64.9311486 42.7417186,65.1765059 42.8595128,65.4140714 L42.8961202,65.4885075 C42.9989461,65.6992163 43.1053514,65.9170538 43.2208678,66.1285915 C43.3674598,66.3941742 43.5262542,66.6506388 43.6759375,66.8905253 C43.8013786,67.0912872 43.9308872,67.2988462 44.0711339,67.5014318 C44.2143092,67.7098196 44.3739171,67.926994 44.5890055,68.206005 C44.7559349,68.4228478 44.913265,68.6176415 45.0701071,68.8023226 C45.2609533,69.026294 45.43797,69.2252323 45.6122209,69.4109081 C45.7902138,69.5998995 45.9861037,69.7963511 46.2278747,70.0282801 C46.2664344,70.0659126 46.3036925,70.1048713 46.340788,70.1441616 C43.1559508,71.1340456 39.8477877,71.6358675 36.5038307,71.6358675 C17.8908776,71.6358675 2.74813619,56.206211 2.74813619,37.2405915 C2.74813619,18.274972 17.8908776,2.84548119 36.5038307,2.84548119 C55.1167837,2.84548119 70.2595251,18.274972 70.2595251,37.2405915 C70.2595251,40.6520522 69.7671973,44.0227305 68.7955576,47.264099 C68.7597638,47.2284559 68.7242953,47.192647 68.6899658,47.1548487 M73.0076776,37.2405915 C73.0076776,16.7310448 56.6320015,0.0450926872 36.5038307,0.0450926872 C16.3756598,0.0450926872 -1.62699216e-05,16.7310448 -1.62699216e-05,37.2405915 C-1.62699216e-05,57.7503039 16.3756598,74.4360902 36.5038307,74.4360902 C40.7776137,74.4360902 44.9898964,73.6734933 49.0248369,72.1696853 C51.484361,73.6526048 54.2736764,74.4360902 57.0971585,74.4360902 C65.8702257,74.4360902 73.0076776,67.1634024 73.0076776,58.2241087 C73.0076776,55.3454711 72.2385984,52.502974 70.7834166,49.9990036 C72.2594239,45.88728 73.0076776,41.5953514 73.0076776,37.2405915" id="Fill-19"></path>
                    </g>
                </g>
            </g>
        </g>
    </g>
</svg>