<?xml version="1.0" encoding="UTF-8"?>
<svg width="80px" height="65px" viewBox="0 0 80 65" version="1.1" xmlns="http://www.w3.org/2000/svg" xmlns:xlink="http://www.w3.org/1999/xlink">
    <!-- Generator: sketchtool 52.4 (67378) - http://www.bohemiancoding.com/sketch -->
    <title>A274AE8B-AE11-4B84-961A-81089F6F101D</title>
    <desc>Created with sketchtool.</desc>
    <defs>
        <polygon id="path-1" points="0.084698919 0.106602405 30.129495 0.106602405 30.129495 29.9637483 0.084698919 29.9637483"></polygon>
    </defs>
    <g id="Aprobado" stroke="none" stroke-width="1" fill="none" fill-rule="evenodd">
        <g id="debito-automatico" transform="translate(-373.000000, -740.000000)">
            <g id="Group-11" transform="translate(373.000000, 740.000000)">
                <g id="Group-10" transform="translate(0.088891, 0.000000)">
                    <g id="Group-4" transform="translate(0.000000, 32.684134)">
                        <path d="M78.4682519,2.76196999 C77.9257009,1.8054177 77.117599,1.04647034 76.1336593,0.568022212 C75.69022,0.345824162 75.2185851,0.188462539 74.7348176,0.101096742 C73.4385052,-0.152573633 72.0919535,0.0761596543 70.962593,0.730715212 L54.3087556,10.4025217 L54.1672651,10.0215862 C53.5462792,8.34495399 52.1513678,7.06095194 50.4353687,6.58663133 L32.831768,1.84978852 C32.2451294,1.69173898 31.6396938,1.61159634 31.0323784,1.61159634 L21.7421967,1.61159634 C20.482624,1.61159634 19.245266,1.95572815 18.1639235,2.60684411 L13.925874,5.16194971 L13.925874,0.141168062 L0,0.141168062 L0,31.8007787 L13.925874,31.8007787 L13.925874,26.4800641 L18.6808421,28.3692635 C19.4968046,28.6948214 20.3554877,28.8600941 21.2338222,28.8600941 L44.7460168,28.8600941 C46.0425,28.8600941 47.3102751,28.4972165 48.4117817,27.8105007 L76.4708099,10.3266786 C78.1666448,9.34123364 79.2131274,7.50517606 79.2018492,5.53428623 C79.2011657,4.56208377 78.9475765,3.60329574 78.4682519,2.76196999 Z" id="Fill-1" fill="#000000"></path>
                        <path d="M52.1763166,12.7613982 L52.1689687,12.7957942 C51.791319,14.2094691 50.511924,15.2090164 49.0578873,15.2265583 L49.0495141,15.2270743 L49.0308879,15.2258704 C48.7649952,15.2083285 47.8183078,15.0081438 47.2714848,14.8832864 L32.4228469,10.8842374 L31.8450942,13.0604713 L46.7443132,17.0725907 C47.487309,17.2713995 48.2530322,17.4079516 49.0372106,17.4793232 C51.5114139,17.4659088 53.6893076,15.7767221 54.33285,13.3724429 C54.3390017,13.3500855 54.3456661,13.3021031 54.3501091,13.2659873 C54.3550646,13.2236802 54.3610455,13.1715703 54.3730073,13.114645 L54.4046205,12.9650224 L72.0859726,2.68457903 C72.7573688,2.29762422 73.5535089,2.16313593 74.3226497,2.31637003 C74.6112698,2.36899589 74.8903204,2.46203702 75.1538208,2.59394562 C75.7298646,2.87169318 76.2038919,3.31471344 76.5246378,3.87485203 C76.8122325,4.37754932 76.965343,4.94989848 76.9677353,5.52981475 C76.9718365,6.71561627 76.3382053,7.81491189 75.3139374,8.39895568 L47.2326945,25.8939565 C46.4859393,26.36071 45.6274271,26.6075012 44.7497762,26.6075012 L21.2396322,26.6075012 C20.6446204,26.6066413 20.0615703,26.4946824 19.5068867,26.2747201 L13.925874,24.0563511 L13.925874,7.78756708 L19.3153277,4.53921044 C20.048925,4.097738 20.8881275,3.86436125 21.7421967,3.86436125 L31.0484414,3.86436125 C31.4541157,3.86436125 31.8591065,3.91767503 32.2521356,4.02292673 L49.8564198,8.76510092 C51.1595675,9.12264717 52.1271025,10.2702691 52.2638083,11.6204835 L52.2655171,11.6560833 C52.2648336,12.0246363 52.2347583,12.3964568 52.1763166,12.7613982 Z" id="Path" fill="#FFFFFF"></path>
                        <polygon id="Path" fill="#FFFFFF" points="2.40005877 29.4157203 12.0002939 29.4157203 12.0002939 2.3850584 2.40005877 2.3850584"></polygon>
                    </g>
                    <g id="Group-5" transform="translate(29.334052, 0.000000)">
                        <mask id="mask-2" fill="white">
                            <use xlink:href="#path-1"></use>
                        </mask>
                        <g id="Clip-4"></g>
                        <path d="M27.8129609,15.0351475 C27.8129609,21.9974896 22.1131341,27.6615071 15.1071902,27.6615071 C8.10105983,27.6615071 2.40123301,21.9974896 2.40123301,15.0351475 C2.40123301,8.07280544 8.10105983,2.40878794 15.1071902,2.40878794 C22.1131341,2.40878794 27.8129609,8.07280544 27.8129609,15.0351475 M15.1071902,0.106546786 C6.82367327,0.106546786 0.084698919,6.80358794 0.084698919,15.0351475 C0.084698919,23.2668925 6.82367327,29.9637483 15.1071902,29.9637483 C23.3905206,29.9637483 30.129495,23.2668925 30.129495,15.0351475 C30.129495,6.80358794 23.3905206,0.106546786 15.1071902,0.106546786" id="Fill-3" fill="#000000" mask="url(#mask-2)"></path>
                    </g>
                    <path d="M44.4082234,15.3863001 C43.9148928,14.9258407 43.3155633,14.6753658 42.3390664,14.5218793 L41.1532943,14.3395788 C40.7155042,14.2706511 40.3318026,14.1090665 40.1014728,13.8966337 C39.8876599,13.6979487 39.783476,13.4284528 39.783476,13.0728915 C39.783476,12.1807865 40.4241887,11.6265402 41.4555001,11.6265402 C42.377727,11.6265402 43.0284224,11.8638322 43.5656772,12.395856 L43.7284872,12.5568755 L45.0708982,11.1839718 L44.8946568,11.0127826 C43.9579095,10.1044815 42.9425706,9.71690461 41.4996058,9.71690461 C39.2411391,9.71690461 37.7818389,11.0581694 37.7818389,13.1337211 C37.7818389,14.0796875 38.0626271,14.8337488 38.6169434,15.3761305 C39.1133596,15.8578709 39.8410131,16.1789684 40.7198603,16.3045825 L41.9501012,16.4870714 C42.5703038,16.5789749 42.7646957,16.6825548 42.9705223,16.884253 C43.2458654,17.1396244 43.303584,17.5390659 43.303584,17.8294661 C43.303584,19.0615013 42.0998428,19.2453084 41.3823536,19.2453084 C40.2646458,19.2453084 39.5398963,18.9663961 38.8806702,18.2823925 L38.7176787,18.1134632 L37.3342475,19.5291172 L37.4970575,19.7003064 C38.4960611,20.7517359 39.6491623,21.2005191 41.3529498,21.2005191 C43.7342954,21.2005191 45.3344435,19.8274271 45.3344435,17.7837027 C45.3344435,16.7633471 45.0131796,15.9335784 44.4082234,15.3863001" id="Fill-6" stroke="#DA272C" stroke-width="0.3" fill="#DA272C"></path>
                    <polygon id="Fill-8" stroke="#DA272C" stroke-width="0.3" fill="#DA272C" points="50.5308184 7.95019468 46.2233541 22.0838741 48.1382644 22.0838741 52.4457287 7.95019468"></polygon>
                </g>
            </g>
        </g>
    </g>
</svg>