<?xml version="1.0" encoding="UTF-8"?>
<svg width="185px" height="65px" viewBox="0 0 185 65" version="1.1" xmlns="http://www.w3.org/2000/svg" xmlns:xlink="http://www.w3.org/1999/xlink">
    <!-- Generator: sketchtool 52.4 (67378) - http://www.bohemiancoding.com/sketch -->
    <title>B4053FF4-1659-472F-AA19-61A0D0684E29</title>
    <desc>Created with sketchtool.</desc>
    <defs>
        <polygon id="path-1" points="0.534275434 0.401171875 18.1250739 0.401171875 18.1250739 38.6699219 0.534275434 38.6699219"></polygon>
    </defs>
    <g id="Aprobado" stroke="none" stroke-width="1" fill="none" fill-rule="evenodd">
        <g id="debito-automatico" transform="translate(-621.000000, -320.000000)">
            <g id="Group-8" transform="translate(529.000000, 289.000000)">
                <g id="Group-20" transform="translate(92.000000, 31.000000)">
                    <polygon id="Fill-1" fill="#0064AE" points="0 0 8.96507867 40.5072464 16.4192567 40.5072464 37.7664975 0.373357378 29.6923084 0.373357378 14.5271194 30.5726935 8.58384211 0"></polygon>
                    <g id="Group-19" transform="translate(32.101523, 0.000000)">
                        <path d="M0.87519634,40.2049375 L5.21675338,12.2468125 L12.2231841,12.2468125 L7.89175191,40.2049375 L0.87519634,40.2049375 Z M9.39631202,8.4768125 C7.13035944,8.4768125 5.457726,6.839625 5.85057211,4.564625 C6.23329332,2.175875 8.41014678,0.41071875 10.6943242,0.41071875 C12.9825515,0.41071875 14.6308852,2.175875 14.2623389,4.564625 C13.8775927,6.839625 11.7047892,8.4768125 9.39631202,8.4768125 Z" id="Fill-2" fill="#0064AE"></path>
                        <path d="M23.3200742,40.8197969 C19.2235398,40.8197969 15.1654799,39.4385469 12.731454,38.0613594 L14.5053365,32.2702656 C17.3079087,34.2751094 20.8941483,35.5446406 24.3264893,35.5446406 C27.3983839,35.5446406 29.1722663,34.4112031 29.4314638,32.6399531 C29.81621,30.6310469 28.6558964,29.8815156 24.3264893,28.7419844 C17.6987299,27.1068281 15.1654799,25.0816719 16.0382463,19.9283906 C16.8117886,15.1427656 21.1513207,11.7465156 27.7811051,11.7465156 C31.3389949,11.7465156 34.6721119,12.5001094 37.3369855,13.7594844 L35.4274294,19.5465156 C32.8739297,17.9154219 29.6886362,17.0338594 26.8880889,17.0338594 C24.2009405,17.0338594 22.8037044,17.9154219 22.538432,19.5465156 C22.2934094,21.0658906 23.3200742,21.8154219 27.2627102,22.9468281 C34.4048146,24.8338594 36.9400895,26.7269844 36.0571982,32.0122969 C35.2877058,37.5535469 30.7011262,40.8197969 23.3200742,40.8197969" id="Fill-4" fill="#0064AE"></path>
                        <path d="M56.2102038,32.5123906 C54.6894438,33.7798906 53.1443841,34.6594219 51.6114743,35.1611406 C50.7204831,35.4170781 49.9570657,35.5450469 49.0579746,35.5450469 C46.8993459,35.5450469 45.7430824,34.2755156 46.1278286,32.2706719 C46.391076,30.3755156 47.7903371,28.6184844 51.6114743,27.3550469 C53.0208604,26.9812969 54.9425663,26.6055156 57.09917,26.3495781 L56.2102038,32.5123906 Z M55.57841,11.7448906 C54.1609241,11.7448906 52.8770868,11.7448906 51.6114743,11.9906719 C48.817002,12.3705156 46.2493274,13.1423906 43.8335263,13.9955156 L43.9712249,19.5469219 C46.5247246,18.4236406 49.0579746,17.6537969 51.6114743,17.4059844 C52.247318,17.2820781 53.0208604,17.2820781 53.6546791,17.2820781 C56.8419975,17.2820781 58.3749074,18.4236406 57.8524625,21.4420781 L57.7532385,22.1895781 C55.57841,22.4373906 53.3894067,22.6953594 51.6114743,23.0752031 C43.9712249,24.5742656 39.8868403,27.5947344 38.9836993,33.0161406 C38.2243318,37.9358281 41.026904,40.8202031 45.8706561,40.8202031 C48.0414346,40.8202031 49.9570657,40.3184844 51.6114743,39.5709844 C53.2820828,38.8194219 54.6894438,37.7956719 55.9550563,36.5444219 L55.9550563,40.2047344 L61.9226723,40.2047344 L64.9986168,21.0662969 C66.0212317,14.3794219 62.8197384,11.7448906 55.57841,11.7448906 Z" id="Fill-6" fill="#0064AE"></path>
                        <polygon id="Fill-8" fill="#F4AA00" points="100.324595 0.278078125 96.2361602 26.4690156 82.211149 0.278078125 74.8219971 0.278078125 68.5769589 40.2043281 75.842587 40.2043281 80.1800941 12.7438594 94.840949 40.2043281 101.349235 40.2043281 107.590223 0.278078125"></polygon>
                        <path d="M120.210708,23.3260625 L114.480015,23.3260625 C115.614003,19.3021563 117.794907,17.16325 120.210708,16.6635625 C120.47598,16.5315313 120.842502,16.5315313 121.231298,16.5315313 C124.685914,16.5315313 125.941401,18.91825 125.819902,23.3260625 L120.210708,23.3260625 Z M122.120264,11.7459063 C121.494545,11.7459063 120.842502,11.7459063 120.210708,11.8698125 C113.710522,12.74325 108.224852,18.0366875 106.947089,26.3485625 C105.428354,36.4296563 110.634578,40.8191875 118.550224,40.8191875 C119.064569,40.8191875 119.570814,40.8191875 120.210708,40.701375 C124.039945,40.4555938 127.340662,39.1880938 130.408507,37.418875 L130.408507,32.0116875 C126.959966,34.1587188 123.772648,35.4160625 120.210708,35.4160625 L120.079084,35.4160625 C115.747652,35.4160625 113.206302,33.0171563 113.710522,27.59575 L120.210708,27.59575 L131.951542,27.59575 C131.951542,27.2199688 132.200614,26.4623125 132.200614,25.9748125 C133.464202,18.0366875 130.65758,11.7459063 122.120264,11.7459063 Z" id="Fill-10" fill="#F4AA00"></path>
                        <g id="Group-14" transform="translate(134.592840, 2.031250)">
                            <mask id="mask-2" fill="white">
                                <use xlink:href="#path-1"></use>
                            </mask>
                            <g id="Clip-13"></g>
                            <path d="M11.5035919,15.8833594 L18.1252764,15.8833594 L18.1252764,10.2242969 L12.3885081,10.2242969 L13.915343,0.401171875 L6.78133862,1.39851562 L5.51572614,10.2242969 L1.42121666,10.2242969 L0.534275434,15.8833594 L4.62473496,15.8833594 L2.30410792,30.2382031 C1.29769288,36.6508594 4.7421838,38.6699219 10.3412534,38.6699219 C12.3885081,38.6699219 13.6622205,38.4241406 14.8124092,38.1742969 L14.9420079,32.3791406 C14.1806154,32.5111719 13.4192229,32.6269531 12.6436556,32.6269531 C9.96055716,32.6269531 9.067541,31.3675781 9.46038711,29.0925781 L11.5035919,15.8833594 Z" id="Fill-12" fill="#F4AA00" mask="url(#mask-2)"></path>
                        </g>
                        <path d="M114.098103,48.2584375 L114.098103,50.7710938 L113.583759,50.7710938 L112.435595,50.7710938 L111.660028,56.1904688 L112.694792,56.1904688 C113.199012,56.1904688 113.711332,56.1904688 114.098103,56.0645313 L114.098103,58.573125 C113.583759,58.573125 113.075489,58.7153125 112.435595,58.7153125 L111.287431,58.7153125 L110.264816,64.7460937 L107.201022,64.7460937 L109.750472,48.2584375 L113.711332,48.2584375 L114.098103,48.2584375 Z M114.098103,58.573125 L114.098103,56.0645313 C115.616838,55.6846875 116.505805,54.6710938 116.505805,53.1720313 C116.505805,51.7867188 115.744412,50.9071875 114.098103,50.7710938 L114.098103,48.2584375 C117.660043,48.37625 119.569599,50.025625 119.569599,52.9140625 C119.569599,56.0645313 117.542594,58.0734375 114.098103,58.573125 Z M124.798098,53.0501563 L124.798098,54.9310938 C123.771433,55.1829688 123.016115,56.3082813 122.643519,57.7057813 L124.798098,57.7057813 L124.798098,59.466875 L122.374197,59.466875 L122.374197,60.0884375 C122.374197,61.8617188 123.141664,62.855 124.798098,62.855 L124.798098,65 L124.421451,65 C121.614829,65 119.569599,63.35875 119.569599,60.2225 C119.569599,56.1904688 121.987425,53.41375 124.798098,53.0501563 Z M124.798098,59.466875 L124.798098,57.7057813 L126.831177,57.7057813 C126.960776,56.0645313 126.454531,54.9310938 125.180819,54.9310938 L124.798098,54.9310938 L124.798098,53.0501563 L125.423816,53.0501563 C127.979341,53.0501563 129.398852,54.8051563 129.398852,57.44375 C129.398852,58.2014063 129.398852,58.955 129.246979,59.466875 L124.798098,59.466875 Z M124.798098,65 L124.798098,62.855 L124.925671,62.855 C126.193309,62.855 127.343497,62.3492188 128.627335,61.6057813 L128.627335,63.7426563 C127.343497,64.4942188 126.193309,64.878125 124.798098,65 Z M134.603051,58.2014063 L133.582461,64.7460937 L130.781913,64.7460937 L132.197374,56.0645313 L132.197374,53.2878125 L134.746824,53.2878125 L134.876423,55.8146875 C135.749189,54.3054688 137.292224,53.0501563 138.948658,53.0501563 L138.948658,55.8146875 C137.15655,56.0645313 135.625665,56.9460938 134.603051,58.2014063 Z" id="Fill-15" fill="#0064AE"></path>
                        <path d="M149.011188,61.9734375 L149.011188,64.7460937 L146.33214,64.7460937 L146.224816,62.6051562 C145.070577,63.8726562 143.549817,65 142.134356,65 C140.358449,65 139.457333,63.9985937 139.457333,62.3553125 C139.457333,62.099375 139.580856,61.7215625 139.580856,61.47375 L140.866719,53.2878125 L143.657141,53.2878125 L142.521127,60.7160937 C142.521127,60.9679687 142.387479,61.2320312 142.387479,61.3498437 C142.387479,62.099375 142.78235,62.4873437 143.404019,62.4873437 C144.179586,62.4873437 145.329774,61.7215625 146.467813,60.33625 L147.494478,53.2878125 L150.290975,53.2878125 L149.011188,61.9734375 Z M146.467813,51.6526563 L144.430683,51.6526563 L146.733086,48.1325 L150.167452,48.7479688 L146.467813,51.6526563 Z" id="Fill-17" fill="#0064AE"></path>
                    </g>
                </g>
            </g>
        </g>
    </g>
</svg>