<?xml version="1.0" encoding="UTF-8"?>
<svg width="65px" height="79px" viewBox="0 0 65 79" version="1.1" xmlns="http://www.w3.org/2000/svg" xmlns:xlink="http://www.w3.org/1999/xlink">
    <!-- Generator: sketchtool 52.4 (67378) - http://www.bohemiancoding.com/sketch -->
    <title>52F7988D-ACD1-4EEC-B70C-F2B4A6F8E182</title>
    <desc>Created with sketchtool.</desc>
    <g id="Aprobado" stroke="none" stroke-width="1" fill="none" fill-rule="evenodd">
        <g id="debito-automatico" transform="translate(-993.000000, -735.000000)">
            <g id="Group-13" transform="translate(994.000000, 736.000000)">
                <g id="Group-6" fill="#000000" stroke="#FFF8F8" stroke-width="0.3">
                    <g id="Group-3">
                        <path d="M60.5797101,35.0697854 C60.5797101,53.0339455 49.0363978,68.5905021 31.8043478,73.9235041 C14.5722978,68.5905021 3.02898551,53.0339455 3.02898551,35.0697854 L3.02898551,11.6464455 L31.8043478,3.07417988 L60.5797101,11.6464455 L60.5797101,35.0697854 Z M32.2397645,0.0633595703 C31.9557971,-0.0211599609 31.6528986,-0.0211599609 31.369537,0.0633595703 L1.07968188,9.08679707 C0.438445652,9.27779316 0,9.86356465 0,10.5273889 L0,35.0697854 C0,54.1612736 12.523492,71.322799 31.369537,76.9365803 C31.5109906,76.97884 31.6575935,77.0000451 31.8043478,77.0000451 C31.9511022,77.0000451 32.0978565,76.97884 32.2397645,76.9365803 C50.6473638,71.4531877 63.6086957,54.6142502 63.6086957,35.0697854 L63.6086957,10.5273889 C63.6086957,9.86356465 63.17025,9.27779316 62.5296196,9.08679707 L32.2397645,0.0633595703 Z" id="Fill-1"></path>
                    </g>
                </g>
                <g id="Group-2" transform="translate(17.756410, 19.743590)">
                    <path d="M29.4919717,16.1532268 C30.0927174,17.4738531 29.6912121,18.9012105 28.8613258,19.8666007 C29.412627,21.0361637 29.0949205,22.5370763 28.2298805,23.5759819 C28.5020104,24.1627158 28.5455191,25.3629178 28.2009313,26.3044519 C27.6543565,27.7978849 26.2855875,28.6999438 24.0282024,28.6999438 L11.0232282,28.6999438 C10.3268424,28.6999438 9.74685741,28.4821204 9.03475951,28.0466845 C8.94911541,27.9943145 8.90181567,27.964508 8.73233256,27.8568476 C8.72152899,27.8499128 8.68495822,27.8391536 8.63382731,27.8321965 C8.56932337,27.8234197 8.4966329,27.8217964 8.43255045,27.8245588 C8.41604123,27.8253914 8.41604123,27.8253914 8.39646094,27.8261861 L8.27012292,27.8262746 L8.27012292,29.6724558 L0.153140783,29.6724558 L0.151917498,13.0194697 L8.27119318,12.9853232 L8.26713624,13.9390007 C9.62444314,12.5025552 12.3912993,8.13900446 13.3853827,5.98215362 C13.3816083,5.64072893 13.3687246,4.98649264 13.3491719,4.11002765 C13.3459537,3.96624023 13.3459537,3.96624023 13.3427145,3.82321783 C13.3331205,3.4007568 13.3228409,2.96299778 13.3125612,2.53516841 C13.3015961,2.08212433 13.3015961,2.08212433 13.2988445,1.97090916 C13.2787294,1.08871708 13.9440439,0.165414577 15.5184707,-0.171591996 C16.871231,-0.459653164 18.5068022,0.12965276 18.9089222,0.878319726 C19.0854993,1.1981243 19.4499695,1.96859943 19.7693193,2.78108753 C20.2891319,4.10359208 20.6310267,5.35878755 20.7037875,6.44746239 C20.7205948,6.70301246 20.368922,9.00633881 20.0553046,10.7903824 L27.4364415,10.7854402 L27.4366089,10.7854401 C30.3408629,10.7854401 31.3098667,14.1571445 29.4919717,16.1532268 Z" id="Fill-1" stroke="#000000" stroke-width="0.5" fill="#010002"></path>
                    <path d="M26.922533,15.9912165 L26.8430286,16.3225509 C29.083656,16.9596412 27.8910895,19.5418872 26.2838605,19.7093344 L26.2046198,20.0406688 C28.3528217,20.5869157 27.3279661,23.2457655 25.6451881,23.4273204 L25.5659474,23.7574681 C27.3203189,24.0454245 26.8955041,27.0394323 24.2377091,27.0394323 L11.0100434,27.0445744 C10.0758993,27.0445744 9.22495131,25.9801643 8.5378906,25.9801643 L8.02012292,25.9800324 L8.02012292,16.0448787 C8.76743823,15.581828 9.60427844,14.61459 10.1147945,14.1806777 C11.0796592,13.3578134 15.0282477,6.9770222 15.0282477,6.17841796 C15.0282477,5.37994556 14.9412279,1.92526032 14.9412279,1.92526032 C14.9412279,1.92526032 15.7153084,0.927301673 17.4438376,1.65536716 C17.4438376,1.65536716 18.898782,4.38317354 19.0471111,6.55721769 C19.0471111,6.55721769 18.3919577,11.0354401 18.0400549,12.440414 L27.2104893,12.440414 C29.4635105,12.443051 29.0336856,15.6598821 26.922533,15.9912165 Z" id="Path-2" fill="#FFFFFF"></path>
                    <polygon id="Path" fill="#DA272C" points="1.64989507 28.0188004 6.85888357 28.0188004 6.85888357 14.6362131 1.64989507 14.6362131"></polygon>
                </g>
            </g>
        </g>
    </g>
</svg>