<svg xmlns="http://www.w3.org/2000/svg" xmlns:xlink="http://www.w3.org/1999/xlink" width="151" height="26" viewBox="0 0 151 26">
    <defs>
        <path id="a" d="M0 .071h25.77v25.77H0z"/>
        <path id="c" d="M.032.143h4.455v4.461H.032z"/>
    </defs>
    <g fill="none" fill-rule="evenodd">
        <path fill="#ED3425" d="M59.033 17.55c1.44 0 2.288-1.264 2.288-2.77 0-1.527-.807-2.791-2.288-2.791-1.548 0-2.29 1.264-2.29 2.79 0 1.507.847 2.771 2.29 2.771m0 2.554c-3.458 0-5.932-2.078-5.932-5.324 0-3.209 2.565-5.341 5.932-5.341 3.365 0 5.926 2.12 5.926 5.34 0 3.247-2.494 5.325-5.926 5.325M100.779 14.78c0-1.36-.779-2.573-2.133-2.573-1.193 0-2.152 1.019-2.152 2.574 0 1.51.783 2.586 2.152 2.586 1.231 0 2.133-1.023 2.133-2.586zm-7.775 5.104V5.497h3.542v4.93h.041c.247-.155 1.393-.977 3.078-.977 2.76 0 4.786 2.216 4.786 5.151 0 3.663-2.247 5.51-4.805 5.51-1.936 0-2.92-.899-3.162-1.163h-.056l-.055.936h-3.37zM76.145 4.53a2.001 2.001 0 0 0-1.994 1.993c0 1.096.9 1.994 1.994 1.994 1.094 0 1.99-.898 1.99-1.994a1.998 1.998 0 0 0-1.99-1.992zm-1.778 15.377h3.556V9.697h-3.556v10.21zM119.223 19.893h3.452v-5.27c0-1.237.818-2.08 1.864-2.08 1.198 0 1.875.777 1.875 2.08v5.27h3.454V13.75c0-2.313-1.49-4.29-4.22-4.29-1.827 0-2.774.99-3.205 1.38h-.075l-.035-1.127h-3.11v10.18zM131.854 19.893h3.536V15.17h.037l3.144 4.722h3.941l-3.798-5.408 3.7-4.78h-3.934l-3.053 4.206h-.037v-8.4h-3.536zM52.395 9.847c-.266-.075-1.239-.407-2.534-.407-3.195 0-5.589 2-5.589 5.333 0 3.028 2.15 5.333 5.448 5.333 1.406 0 2.44-.375 2.675-.447l-.175-2.975c-.27.125-.98.53-1.795.53-1.431 0-2.478-1.015-2.478-2.44 0-1.5 1.12-2.465 2.521-2.465.788 0 1.49.367 1.752.5l.175-2.962zM83.07 14.689c0 1.687.943 2.74 2.163 2.74 1.103 0 2.18-1.034 2.18-2.602 0-1.58-.954-2.663-2.18-2.663-1.272 0-2.163 1.134-2.163 2.525zm7.842-4.998v10.2h-3.445l-.052-1.028h-.076c-.382.344-1.178 1.253-3.4 1.253-2.467 0-4.623-2.142-4.623-5.335 0-2.96 1.911-5.328 4.849-5.328 1.998 0 2.813.88 3.12 1.161h.091l.035-.923h3.501zM109.283 14.682c0 1.687.94 2.744 2.163 2.744 1.103 0 2.178-1.036 2.178-2.603 0-1.58-.956-2.662-2.178-2.662-1.272 0-2.163 1.132-2.163 2.52zm7.842-4.998v10.203h-3.447l-.054-1.028h-.074c-.38.346-1.179 1.254-3.398 1.254-2.467 0-4.626-2.142-4.626-5.336 0-2.963 1.914-5.328 4.851-5.328 1.999 0 2.814.878 3.119 1.16h.093l.032-.925h3.504zM33.075 19.515c.993.3 2.5.575 4.101.575 3.028 0 6.051-1.073 6.051-4.398 0-4.564-6.293-3.931-6.293-5.75 0-.931.967-1.131 1.916-1.131 1.315 0 2.978.631 3.346.78l.287-3.143c-.919-.312-2.312-.49-3.62-.49-2.989 0-5.943 1.168-5.943 4.129 0 4.484 6.276 3.549 6.276 5.902 0 .903-.904 1.248-2.057 1.248-1.58 0-3.071-.792-3.713-1.078l-.35 3.356zM72.84 17.111c-.173.05-.653.172-.982.172-.718 0-1.505-.338-1.505-1.583v-3.45h2.232V9.688h-2.232V6.4h-3.547v3.286h-1.555v2.564h1.555v4.037c0 2.217 1.03 3.808 3.655 3.808.764 0 1.462-.102 1.942-.193l.437-2.792z"/>
        <g transform="translate(0 .088)">
            <mask id="b" fill="#fff">
                <use xlink:href="#a"/>
            </mask>
            <path fill="#ED3425" d="M20.61 12.964c.09 4.407-3.896 7.733-7.223 7.733H5.163L0 25.841h13.299c4.243 0 8.316-3.823 8.316-8.38 0-1.34-.16-3.086-1.006-4.406v-.09zm-1.413 3.247c.512-.918.765-1.925.828-2.907h-3.733c0 .91-.153 1.899-.493 2.907h3.398zm-3.642.574c-.422 1.08-1.43 2.48-2.41 3.248 1.897 0 4.064-.828 5.647-3.248h-3.237zm-.422-.574c.333-.918.484-1.925.573-2.907h-5.645c.091.982.245 1.989.576 2.907h4.496zm-5.143 0c-.333-1.008-.513-1.997-.513-2.907h-3.73c.088.982.33 1.989.826 2.907H9.99zm2.905 3.236c.735-.665 1.563-1.743 1.985-2.662h-3.99c.423.919 1.25 1.997 2.005 2.662zm-5.99-2.662c1.653 2.42 3.822 3.248 5.747 3.248-1.005-.767-2.076-2.168-2.42-3.248H6.906zM15.8 9.82c.34.887.493 1.896.493 2.903h3.733c-.063-1.007-.316-2.016-.828-2.903h-3.398zm2.993-.678c-1.583-2.318-3.75-3.236-5.647-3.236.98.74 1.988 2.141 2.41 3.236h3.237zm-8.155.678c-.331.887-.485 1.896-.576 2.903h5.645c-.089-1.007-.24-2.016-.573-2.903h-4.496zm-4.064 0c-.496.887-.738 1.896-.826 2.903h3.73c0-1.007.18-2.016.513-2.903H6.573zm6.322-3.265c-.755.665-1.582 1.672-2.005 2.587h3.99c-.422-.915-1.25-1.922-1.985-2.587zM10.232 9.14c.344-1.095 1.415-2.496 2.42-3.236-1.925 0-4.094.918-5.746 3.236h3.326zm-5.07 3.734c-.828-1.314-1.01-3.056-1.01-4.397C4.153 3.92 8.226.07 12.472.07h13.298l-5.16 5.206h-8.227c-3.311 0-7.312 3.353-7.22 7.598z" mask="url(#b)"/>
        </g>
        <g transform="translate(145.854 5.002)">
            <mask id="d" fill="#fff">
                <use xlink:href="#c"/>
            </mask>
            <path fill="#ED3425" d="M1.931 1.476v.716h.299c.175 0 .305-.027.387-.083.082-.057.123-.144.123-.264 0-.127-.046-.219-.132-.28-.089-.059-.225-.09-.409-.09h-.268zm-.601-.38h.97c.353 0 .617.059.795.178.177.119.263.296.263.532a.643.643 0 0 1-.142.42.727.727 0 0 1-.398.236l.553 1.106h-.67L2.23 2.554H1.93v1.014H1.33V1.095zm.93-.58a1.788 1.788 0 0 0-1.296.526 1.93 1.93 0 0 0-.417.618 1.84 1.84 0 0 0-.01 1.416c.092.222.224.419.4.592a1.815 1.815 0 0 0 2.016.422c.226-.093.431-.228.618-.404.173-.167.306-.362.404-.585.095-.224.143-.454.143-.693 0-.265-.044-.51-.132-.732a1.827 1.827 0 0 0-.398-.6 1.819 1.819 0 0 0-.606-.419 1.871 1.871 0 0 0-.722-.14zM2.253.144a2.215 2.215 0 0 1 1.6.671c.206.208.364.446.472.713.108.268.162.551.162.85 0 .305-.056.592-.168.863-.113.27-.275.508-.49.715-.213.21-.455.37-.73.482a2.215 2.215 0 0 1-1.7-.007 2.233 2.233 0 0 1-.729-.5 2.175 2.175 0 0 1-.638-1.552c0-.204.026-.401.08-.595a2.38 2.38 0 0 1 .242-.564 2.163 2.163 0 0 1 1.9-1.076z" mask="url(#d)"/>
        </g>
    </g>
</svg>
