<svg xmlns="http://www.w3.org/2000/svg" width="86" height="55" viewBox="0 0 86 55">
    <g fill="none" fill-rule="evenodd">
        <path fill="#FEFEFE" d="M0 54.624h85.99V0H0z"/>
        <path fill="#F2BA00" d="M1.432 53.2h83.126v-7.452H1.432z"/>
        <path fill="#002166" d="M1.432 8.886h83.126V1.433H1.432zM42.278 17.096l-4.382 20.485h-5.299l4.382-20.485h5.299zm22.295 13.227l2.79-7.692 1.605 7.692h-4.395zm5.915 7.258h4.901l-4.28-20.485h-4.521A2.413 2.413 0 0 0 64.33 18.6L56.378 37.58h5.566l1.104-3.06h6.799l.641 3.06zm-13.834-6.688c.024-5.405-7.473-5.706-7.423-8.12.015-.735.716-1.517 2.247-1.716.759-.098 2.853-.177 5.226.916l.93-4.345c-1.276-.462-2.916-.906-4.958-.906-5.239 0-8.924 2.783-8.954 6.771-.034 2.95 2.632 4.594 4.637 5.575 2.068 1.005 2.76 1.649 2.75 2.545-.015 1.375-1.65 1.984-3.17 2.006-2.666.042-4.21-.72-5.442-1.295l-.962 4.492c1.24.567 3.526 1.06 5.891 1.087 5.57 0 9.212-2.75 9.228-7.01zM34.706 17.096l-8.587 20.485h-5.601L16.29 21.232c-.255-1.005-.48-1.374-1.258-1.799-1.275-.692-3.378-1.34-5.227-1.742l.124-.595h9.019c1.147 0 2.182.765 2.445 2.087l2.232 11.855 5.512-13.942h5.568z"/>
    </g>
</svg>
