<svg xmlns="http://www.w3.org/2000/svg" xmlns:xlink="http://www.w3.org/1999/xlink" width="87" height="87" viewBox="0 0 87 87">
    <defs>
        <path id="a" d="M0 0h35.259v49.123H0z"/>
        <path id="c" d="M.175.275h25.472V25.81H.175z"/>
    </defs>
    <g fill="none" fill-rule="evenodd" transform="translate(1 1)">
        <circle cx="42.5" cy="42.5" r="42.5" fill="#DA272C" stroke="#DA272C" stroke-width="2"/>
        <g transform="translate(18 18)">
            <mask id="b" fill="#fff">
                <use xlink:href="#a"/>
            </mask>
            <path fill="#FFF" d="M27.407 2.498l4.983 4.995h-4.983V2.498zM3.73 49.123h22.781c.423 0 .765-.366.765-.819 0-.452-.342-.819-.765-.819H3.731c-.298 0-.541-.26-.541-.579V2.216c0-.319.243-.579.54-.579h21.423v6.585c0 .452.343.818.765.818h7.432v12.825c0 .453.343.819.765.819s.765-.366.765-.819V8.238l.001-.016-.003-.033a.954.954 0 0 0-.007-.085.8.8 0 0 0-.062-.226.706.706 0 0 0-.035-.069.709.709 0 0 0-.086-.126l-.03-.04c-.01-.01-.02-.018-.03-.026-.007-.007-.011-.014-.018-.02L26.41.193c-.01-.009-.02-.015-.031-.023a.752.752 0 0 0-.275-.142.663.663 0 0 0-.15-.024c-.013 0-.024-.004-.037-.004H3.731C2.589 0 1.66.994 1.66 2.216v44.69c0 1.223.928 2.217 2.07 2.217z" mask="url(#b)"/>
        </g>
        <path fill="#FFF" d="M47.898 37.982c0-.46-.359-.832-.802-.832h-21.65c-.443 0-.802.372-.802.832 0 .46.36.833.802.833h21.65c.443 0 .802-.373.802-.833M42.915 44.643c0-.46-.354-.833-.79-.833h-16.69c-.437 0-.79.373-.79.833 0 .46.353.832.79.832h16.69c.436 0 .79-.373.79-.832M38.813 50.471H25.424c-.43 0-.78.373-.78.833 0 .46.35.832.78.832h13.39c.43 0 .78-.372.78-.832 0-.46-.35-.833-.78-.833M38.806 56.3H25.431c-.434 0-.787.372-.787.832 0 .46.353.832.787.832h13.375c.435 0 .787-.372.787-.832 0-.46-.352-.833-.787-.833"/>
        <g transform="translate(40.424 41.313)">
            <mask id="d" fill="#fff">
                <use xlink:href="#c"/>
            </mask>
            <path fill="#FFF" d="M12.911 24.163c-6.116 0-11.092-4.989-11.092-11.12 0-6.132 4.976-11.12 11.092-11.12 6.117 0 11.093 4.988 11.093 11.12 0 6.131-4.976 11.12-11.093 11.12m0-23.888C5.89.275.175 6.002.175 13.042c0 7.04 5.714 12.768 12.736 12.768 7.023 0 12.736-5.727 12.736-12.768 0-7.04-5.713-12.767-12.736-12.767" mask="url(#d)"/>
        </g>
        <path fill="#FFF" stroke="#FFF" d="M58.626 50.726l-7.275 7.167-3.867-3.81a.739.739 0 0 0-1.033 0 .712.712 0 0 0 0 1.019l4.383 4.317a.735.735 0 0 0 1.034 0l7.792-7.675a.712.712 0 0 0 0-1.018.74.74 0 0 0-1.034 0"/>
        <path fill="#FFF" d="M47.11 31.321H25.432c-.435 0-.788.373-.788.833 0 .46.353.833.788.833H47.11c.435 0 .788-.373.788-.833 0-.46-.353-.833-.788-.833"/>
    </g>
</svg>
