<svg xmlns="http://www.w3.org/2000/svg" xmlns:xlink="http://www.w3.org/1999/xlink" width="87" height="87" viewBox="0 0 87 87">
    <defs>
        <path id="a" d="M0 0h29.647v49.18H0z"/>
    </defs>
    <g fill="none" fill-rule="evenodd" transform="translate(1 1)">
        <circle cx="42.5" cy="42.5" r="42.5" fill="#DA272C" stroke="#DA272C" stroke-width="2"/>
        <g transform="translate(22.412 18.41)">
            <mask id="b" fill="#fff">
                <use xlink:href="#a"/>
            </mask>
            <path fill="#FFF" d="M24.72 47.666H4.927a3.286 3.286 0 0 1-3.279-3.27v-4.708H28v4.709a3.286 3.286 0 0 1-3.28 3.269zM4.927 1.616h19.795A3.286 3.286 0 0 1 28 4.885v3.093H1.647V4.885a3.286 3.286 0 0 1 3.28-3.27zM1.647 38.072H28V9.594H1.647v28.478zm28-33.225C29.647 2.17 27.435 0 24.706 0H4.94C2.212 0 0 2.17 0 4.847v39.486c0 2.677 2.212 4.847 4.941 4.847h19.765c2.729 0 4.941-2.17 4.941-4.847V4.847z" mask="url(#b)"/>
        </g>
        <path fill="#FFF" d="M33.85 23.706h6.77c.44 0 .796-.339.796-.756 0-.418-.356-.757-.795-.757H33.85c-.44 0-.796.339-.796.757 0 .417.357.756.796.756M37.615 62.89c-.75 0-1.36-.605-1.36-1.353 0-.747.61-1.353 1.36-1.353.751 0 1.36.606 1.36 1.353s-.609 1.353-1.36 1.354m0-4.38a3.034 3.034 0 0 0-3.04 3.026 3.034 3.034 0 0 0 3.04 3.027c1.68 0 3.041-1.355 3.041-3.027a3.037 3.037 0 0 0-3.04-3.026"/>
        <g transform="translate(38.47 33.164)">
            <rect width="24.029" height="16.533" x=".75" y=".75" fill="#DA272C" stroke="#FFF" stroke-width="1.5" rx="3"/>
            <path fill="#FFF" stroke="#FFF" d="M1.324 5.418H25.03v3.098H1.324z"/>
            <rect width="7.412" height="1.639" x="3.294" y="12.295" fill="#FFF" rx=".82"/>
        </g>
    </g>
</svg>
