<svg width="16" height="10" viewBox="0 0 16 10" fill="none" xmlns="http://www.w3.org/2000/svg">
<path d="M16 3.11328H0V6.22651H16V3.11328Z" fill="white"/>
<path d="M16 0H0V3.11323H16V0Z" fill="#80A7D8"/>
<path d="M16 6.22168H0V9.33014H16V6.22168Z" fill="#80A7D8"/>
<path d="M7.9375 4.66797L7.98518 5.94091C7.98518 5.94091 7.98518 5.96475 7.99948 5.96475C8.01378 5.96475 8.01378 5.94091 8.01378 5.94091L8.06146 4.66797H7.9375Z" fill="#F1BD51"/>
<path d="M7.99936 5.96464C7.98506 5.96464 7.98029 5.94557 7.98029 5.93603L7.93262 4.66309H7.94215L7.98983 5.93603C7.98983 5.93603 7.98983 5.9551 8.00413 5.9551C8.01367 5.9551 8.01367 5.93603 8.01367 5.93603L8.06134 4.66309L8.0232 5.93603C8.0232 5.95033 8.01367 5.96464 7.99936 5.96464Z" fill="#7A361D"/>
<path d="M7.9707 4.66797L7.99931 5.54044L8.03268 4.66797H7.9707Z" fill="#7A361D"/>
<path d="M7.8805 5.07812C7.80898 5.24022 7.86619 5.36895 7.79945 5.50721C7.72317 5.64547 7.77084 5.75989 7.76607 5.82664C7.76131 5.88861 7.70886 5.90768 7.72317 5.92199C7.73747 5.93629 7.78991 5.90768 7.81375 5.82187C7.83282 5.73605 7.78514 5.68838 7.87096 5.51674C7.96155 5.34511 7.89003 5.26883 7.98062 5.11627L7.8805 5.07812Z" fill="#F1BD51"/>
<path d="M7.73274 5.93152L7.71367 5.92675C7.7089 5.91722 7.71367 5.90768 7.7232 5.89815C7.73751 5.88385 7.75658 5.86478 7.75658 5.82664C7.75658 5.80757 7.75658 5.78849 7.75181 5.76466C7.74227 5.69791 7.73274 5.61209 7.78995 5.50721C7.82332 5.43569 7.82809 5.36895 7.82809 5.3022C7.82809 5.23069 7.83286 5.15917 7.871 5.07812L7.87577 5.08289C7.83763 5.16394 7.83763 5.23546 7.83286 5.30697C7.82809 5.37848 7.82809 5.44523 7.78995 5.51674C7.73751 5.61686 7.74704 5.70745 7.75181 5.77419C7.75181 5.79803 7.75658 5.8171 7.75658 5.83617C7.75181 5.87431 7.73274 5.89815 7.71844 5.91245C7.7089 5.92199 7.70413 5.92675 7.7089 5.93152C7.74227 5.92675 7.77565 5.89815 7.79472 5.8314C7.79948 5.8028 7.79949 5.77896 7.79949 5.75035C7.79472 5.69791 7.79472 5.63593 7.85193 5.52151C7.89484 5.43569 7.8996 5.37371 7.90437 5.3165C7.90914 5.25453 7.91391 5.19731 7.95682 5.12103C7.91867 5.20208 7.91391 5.25929 7.90914 5.3165C7.90437 5.37371 7.8996 5.44046 7.8567 5.52628C7.79949 5.6407 7.79949 5.69791 7.80425 5.75035C7.80425 5.77896 7.80425 5.8028 7.79949 5.8314C7.79949 5.88861 7.76134 5.92675 7.73274 5.93152Z" fill="#7A361D"/>
<path d="M7.90441 5.11621C7.8472 5.27831 7.90441 5.3832 7.82812 5.51669C7.91394 5.42134 7.85673 5.29261 7.92824 5.13051L7.90441 5.11621Z" fill="#7A361D"/>
<path d="M8.06634 4.66788L8.01866 3.39493C8.01866 3.39493 8.01866 3.37109 8.00436 3.37109C7.99006 3.37109 7.99006 3.39493 7.99006 3.39493L7.94238 4.66788H8.06634Z" fill="#F1BD51"/>
<path d="M8.06157 4.66776L8.0139 3.39482C8.0139 3.39482 8.0139 3.37575 8.00436 3.37575C7.99006 3.37575 7.99006 3.39482 7.99006 3.39482L7.94238 4.66776L7.98052 3.39482C7.98052 3.38528 7.98529 3.36621 7.99959 3.36621C8.0139 3.36621 8.01866 3.38528 8.01866 3.39482L8.06634 4.66776H8.06157Z" fill="#7A361D"/>
<path d="M8.03268 4.66837L7.99931 3.7959L7.9707 4.66837H8.03268Z" fill="#7A361D"/>
<path d="M8.1189 4.25362C8.19042 4.09629 8.12844 3.9628 8.19995 3.82454C8.27623 3.68628 8.22856 3.56709 8.23333 3.50511C8.23809 3.44314 8.29054 3.42406 8.27623 3.40976C8.26193 3.39546 8.20949 3.42406 8.18565 3.50988C8.17135 3.5957 8.22379 3.64337 8.13321 3.81501C8.04739 3.98664 8.11414 4.06292 8.02832 4.21548L8.1189 4.25362Z" fill="#F1BD51"/>
<path d="M8.1239 4.25781L8.11913 4.25304C8.15251 4.17199 8.15728 4.10048 8.16204 4.03373C8.16204 3.96222 8.16681 3.89547 8.20495 3.82396C8.25739 3.72384 8.24786 3.63802 8.23832 3.57128C8.23832 3.54744 8.23356 3.5236 8.23832 3.5093C8.23832 3.47116 8.26216 3.44732 8.2717 3.43302C8.28123 3.42348 8.286 3.41871 8.28123 3.41395C8.25263 3.41395 8.21449 3.44732 8.20018 3.51407C8.19065 3.54267 8.19542 3.56651 8.19542 3.59512C8.19542 3.64756 8.20018 3.70954 8.14297 3.82396C8.10007 3.90978 8.0953 3.97175 8.09053 4.02896C8.08576 4.09094 8.08099 4.14815 8.03809 4.22444C8.07623 4.14339 8.08099 4.08618 8.08099 4.02896C8.08576 3.96699 8.09053 3.90978 8.13344 3.81919C8.19065 3.70954 8.19065 3.64756 8.18588 3.59512C8.18588 3.57128 8.18588 3.54267 8.19065 3.51407C8.20972 3.44732 8.24786 3.41395 8.26693 3.40918L8.286 3.41395C8.29554 3.42348 8.286 3.43302 8.27646 3.44255C8.26693 3.45686 8.24309 3.47593 8.24309 3.51407C8.24309 3.53314 8.24309 3.55221 8.24786 3.57604C8.25263 3.64279 8.26693 3.73338 8.20972 3.83349C8.17158 3.89547 8.17158 3.96222 8.16681 4.03373C8.16681 4.10525 8.16204 4.17676 8.1239 4.25781Z" fill="#7A361D"/>
<path d="M8.0999 4.21493C8.15711 4.0576 8.09513 3.94795 8.17618 3.81445C8.09036 3.9098 8.14757 4.03376 8.07129 4.20063L8.0999 4.21493Z" fill="#7A361D"/>
<path d="M7.99991 4.60059L6.72696 4.64826C6.72696 4.64826 6.70312 4.64826 6.70312 4.66256C6.70312 4.68163 6.72696 4.68163 6.72696 4.68163L7.99991 4.72931V4.60059Z" fill="#F1BD51"/>
<path d="M7.99979 4.7254L6.72685 4.6825C6.71731 4.6825 6.69824 4.67773 6.69824 4.66343C6.69824 4.64912 6.71731 4.64436 6.72685 4.64436L7.99979 4.59668V4.60621L6.72685 4.65389C6.72685 4.65389 6.70778 4.65389 6.70778 4.66343C6.70778 4.67773 6.72685 4.67773 6.72685 4.67773L7.99979 4.7254Z" fill="#7A361D"/>
<path d="M8.0004 4.63477L7.12793 4.66814L8.0004 4.69674V4.63477Z" fill="#7A361D"/>
<path d="M7.58956 4.54835C7.43223 4.47684 7.29874 4.53881 7.16048 4.46253C7.01745 4.39102 6.90303 4.43393 6.84105 4.42916C6.77907 4.42439 6.76 4.37195 6.7457 4.38625C6.7314 4.40056 6.76 4.453 6.84582 4.47684C6.93163 4.50067 6.97931 4.44823 7.15094 4.53405C7.32258 4.62463 7.39886 4.55312 7.55619 4.63893L7.58956 4.54835Z" fill="#F1BD51"/>
<path d="M7.55158 4.63445C7.47054 4.59631 7.41332 4.59154 7.35611 4.58677C7.29413 4.582 7.23216 4.57723 7.14634 4.53433C7.03669 4.48188 6.97471 4.48188 6.92226 4.48665C6.89366 4.48665 6.86982 4.48665 6.84122 4.48188C6.77924 4.46281 6.7411 4.42944 6.73633 4.40083V4.39607L6.7411 4.377C6.75063 4.36746 6.76017 4.377 6.7697 4.38653C6.784 4.40083 6.80307 4.4199 6.84122 4.4199C6.85552 4.4199 6.87936 4.4199 6.90319 4.41514C6.96994 4.41037 7.06052 4.39607 7.16541 4.45328C7.23692 4.49142 7.2989 4.49142 7.37042 4.49619C7.44193 4.49619 7.51344 4.50095 7.59449 4.53909V4.54863C7.51344 4.51049 7.44193 4.51049 7.37518 4.50572C7.30367 4.50095 7.23692 4.50095 7.16541 4.46281C7.06529 4.41037 6.97471 4.4199 6.91273 4.42944C6.87936 4.43421 6.85552 4.43421 6.83645 4.43421C6.79831 4.42944 6.77447 4.41037 6.76017 4.39607C6.75063 4.38653 6.74586 4.38653 6.7411 4.38653C6.74586 4.4199 6.77447 4.45328 6.84122 4.46758C6.86982 4.47235 6.89366 4.47235 6.92226 4.47235C6.97471 4.47235 7.03669 4.46758 7.14634 4.52479C7.23216 4.5677 7.29414 4.57247 7.35135 4.57723C7.41809 4.58677 7.4753 4.59154 7.55158 4.63445Z" fill="#7A361D"/>
<path d="M7.55184 4.56761C7.39451 4.5104 7.28963 4.57238 7.15137 4.49609C7.24672 4.58191 7.37544 4.5247 7.53754 4.60098L7.55184 4.56761Z" fill="#7A361D"/>
<path d="M8 4.72931L9.27294 4.68163C9.27294 4.68163 9.29678 4.68163 9.29678 4.66256C9.29678 4.64826 9.27294 4.64826 9.27294 4.64826L8 4.60059V4.72931Z" fill="#F1BD51"/>
<path d="M8 4.73419V4.72466L9.27294 4.67698C9.27294 4.67698 9.29201 4.67698 9.29201 4.66268C9.29201 4.65314 9.27294 4.65314 9.27294 4.65314L8 4.60547L9.27294 4.64361C9.28248 4.64361 9.29678 4.64838 9.29678 4.66268C9.29678 4.68175 9.27771 4.68175 9.27294 4.68175L8 4.73419Z" fill="#7A361D"/>
<path d="M8 4.69674L8.87247 4.66814L8 4.63477V4.69674Z" fill="#7A361D"/>
<path d="M8.41016 4.78687C8.57225 4.85839 8.70098 4.79641 8.84401 4.87269C8.98227 4.9442 9.09669 4.90129 9.16343 4.90606C9.22541 4.91083 9.24448 4.96327 9.25879 4.94897C9.27309 4.93467 9.24448 4.88222 9.15867 4.85839C9.07285 4.83932 9.02517 4.88699 8.85354 4.80118C8.68191 4.71536 8.60086 4.78211 8.45306 4.69629L8.41016 4.78687Z" fill="#F1BD51"/>
<path d="M9.25402 4.95385C9.24925 4.95385 9.23971 4.94909 9.23495 4.93955C9.22064 4.92525 9.20157 4.90618 9.16343 4.90618C9.14436 4.90618 9.12529 4.90618 9.10145 4.91095C9.03471 4.91571 8.94413 4.92525 8.84401 4.87281C8.77249 4.83466 8.70575 4.83466 8.63423 4.8299C8.56272 4.8299 8.49121 4.82513 8.41016 4.78699L8.41492 4.78222C8.49597 4.82036 8.56272 4.82036 8.63423 4.82513C8.70575 4.8299 8.77249 4.8299 8.84401 4.86804C8.94413 4.92048 9.02994 4.91095 9.09669 4.90618C9.12053 4.90618 9.14436 4.90141 9.15867 4.90141C9.19681 4.90618 9.22064 4.92525 9.23495 4.93478C9.24925 4.94432 9.24925 4.94432 9.25402 4.94432C9.25402 4.91571 9.22064 4.87757 9.15867 4.86327C9.13006 4.85373 9.10622 4.8585 9.07762 4.8585C9.02517 4.86327 8.9632 4.86327 8.84877 4.80606C8.76296 4.76315 8.70098 4.75838 8.64377 4.75362C8.58179 4.74885 8.52458 4.74408 8.4483 4.70117C8.52935 4.73931 8.58656 4.74408 8.64377 4.74885C8.70098 4.75362 8.76296 4.75838 8.85354 4.80129C8.9632 4.8585 9.02517 4.85373 9.07762 4.85373C9.10146 4.85373 9.13006 4.85373 9.15867 4.8585C9.22541 4.87757 9.25879 4.91571 9.26355 4.93478L9.25879 4.95385C9.25879 4.95385 9.25879 4.95385 9.25402 4.95385Z" fill="#7A361D"/>
<path d="M8.45215 4.76786C8.61425 4.82507 8.71913 4.76786 8.85263 4.83938C8.75727 4.75356 8.62855 4.81077 8.46645 4.73926L8.45215 4.76786Z" fill="#7A361D"/>
<path d="M7.9568 4.62012L7.0891 5.55456C7.0891 5.55456 7.0748 5.57363 7.08433 5.58317C7.09387 5.5927 7.11294 5.5784 7.11294 5.5784L8.04738 4.7107L7.9568 4.62012Z" fill="#F1BD51"/>
<path d="M7.09406 5.5927C7.07022 5.5784 7.07976 5.55933 7.0893 5.55456L7.95699 4.62012L7.96176 4.62488L7.09406 5.55933C7.09406 5.55933 7.07976 5.57363 7.0893 5.58317C7.09883 5.5927 7.11313 5.5784 7.11313 5.5784L8.04758 4.71547L7.1179 5.58794C7.11313 5.5784 7.1036 5.5927 7.09406 5.5927Z" fill="#7A361D"/>
<path d="M7.97595 4.64355L7.38477 5.28241L8.02362 4.68646L7.97595 4.64355Z" fill="#7A361D"/>
<path d="M7.62346 4.87305C7.45659 4.93503 7.40891 5.07328 7.26112 5.11619C7.10856 5.16387 7.06088 5.27829 7.01321 5.3212C6.96553 5.36411 6.91309 5.34027 6.91309 5.35934C6.91309 5.37841 6.9703 5.39748 7.04658 5.3498C7.11809 5.3069 7.11809 5.23538 7.30403 5.1734C7.48996 5.11619 7.49473 5.01131 7.66636 4.96363L7.62346 4.87305Z" fill="#F1BD51"/>
<path d="M6.95588 5.38306C6.94158 5.38306 6.92727 5.3783 6.91774 5.37353L6.9082 5.35922C6.9082 5.34492 6.92251 5.34492 6.93204 5.34492C6.95111 5.34492 6.97972 5.34015 7.00832 5.31632C7.02263 5.30678 7.03216 5.28771 7.04646 5.26864C7.08937 5.2162 7.14658 5.14468 7.25624 5.11131C7.33252 5.08747 7.38019 5.04456 7.43264 4.99689C7.48508 4.94921 7.53752 4.89677 7.62334 4.86816L7.62811 4.87293C7.54706 4.90154 7.49462 4.95398 7.44217 5.00166C7.38973 5.04933 7.34205 5.09701 7.26577 5.12085C7.15612 5.15422 7.09891 5.22573 7.06077 5.27818C7.04646 5.29725 7.03216 5.31155 7.01786 5.32585C6.98925 5.34969 6.96065 5.35446 6.93681 5.35446C6.92251 5.35446 6.91774 5.35446 6.91774 5.35922C6.94158 5.3783 6.98925 5.38306 7.04646 5.34969C7.0703 5.33539 7.08937 5.31632 7.10844 5.29725C7.14181 5.25911 7.18472 5.2162 7.30868 5.17329C7.39926 5.14468 7.44694 5.10178 7.48985 5.06363C7.53752 5.02549 7.58043 4.98735 7.67102 4.96352C7.5852 4.99212 7.54229 5.03026 7.49938 5.0684C7.45648 5.10654 7.4088 5.14945 7.31345 5.17806C7.19426 5.2162 7.15612 5.25911 7.11798 5.29725C7.09891 5.31632 7.0846 5.33539 7.056 5.34969C7.01309 5.37353 6.98448 5.38306 6.95588 5.38306Z" fill="#7A361D"/>
<path d="M7.60912 4.91602C7.45656 4.98753 7.42319 5.10672 7.27539 5.14963C7.40412 5.14009 7.45179 5.01137 7.61866 4.94939L7.60912 4.91602Z" fill="#7A361D"/>
<path d="M8.04762 4.71047L8.91531 3.77602C8.91531 3.77602 8.93439 3.75695 8.92008 3.74742C8.90578 3.73788 8.89148 3.75219 8.89148 3.75219L7.95703 4.61989L8.04762 4.71047Z" fill="#F1BD51"/>
<path d="M8.04762 4.71506L8.91055 3.77585C8.91055 3.77585 8.92485 3.76155 8.91532 3.75201C8.90578 3.74248 8.89148 3.75678 8.89148 3.75678L7.95703 4.62448L8.88671 3.75201C8.89148 3.74724 8.91055 3.73771 8.92008 3.74724C8.92962 3.75678 8.92008 3.77585 8.91532 3.78062L8.04762 4.71506Z" fill="#7A361D"/>
<path d="M8.02326 4.68671L8.61921 4.04785L7.97559 4.6438L8.02326 4.68671Z" fill="#7A361D"/>
<path d="M8.37701 4.46273C8.53911 4.40076 8.59155 4.2625 8.73934 4.21959C8.88714 4.17191 8.93958 4.05749 8.98726 4.01458C9.03493 3.97167 9.08738 3.99551 9.08738 3.97644C9.08738 3.95737 9.03017 3.9383 8.95388 3.98598C8.8776 4.02888 8.8776 4.1004 8.69644 4.16238C8.51527 4.21959 8.50573 4.32448 8.33887 4.37215L8.37701 4.46273Z" fill="#F1BD51"/>
<path d="M8.37615 4.46268V4.45792C8.4572 4.42931 8.50964 4.37687 8.56208 4.32919C8.61453 4.28152 8.6622 4.23384 8.74325 4.21C8.84814 4.17663 8.90535 4.10512 8.94826 4.05744C8.96256 4.03837 8.97686 4.0193 8.99116 4.00976C9.01977 3.98593 9.04837 3.98116 9.06744 3.98116C9.08175 3.98116 9.08652 3.98116 9.08652 3.97639C9.06268 3.95732 9.015 3.95255 8.95779 3.98593C8.93395 4.00023 8.91488 4.0193 8.90058 4.03837C8.86244 4.07651 8.8243 4.11942 8.70034 4.16233C8.60976 4.19093 8.56208 4.22907 8.51917 4.26721C8.4715 4.30535 8.42859 4.34349 8.34277 4.36733C8.42382 4.33873 8.4715 4.30059 8.51441 4.25768C8.55731 4.21954 8.60976 4.1814 8.70034 4.14802C8.81953 4.10988 8.85767 4.06698 8.89104 4.02883C8.91012 4.00976 8.92919 3.99069 8.95302 3.97639C9.01023 3.94302 9.05791 3.94302 9.08175 3.95732L9.09128 3.97639C9.09128 3.98593 9.07698 3.99069 9.06268 3.99069C9.04361 3.99069 9.015 3.99069 8.99116 4.01453C8.97686 4.02407 8.96733 4.04314 8.94826 4.06221C8.90535 4.11465 8.84814 4.18616 8.73848 4.21954C8.6622 4.24338 8.61453 4.29105 8.56208 4.33873C8.51441 4.38164 8.46196 4.43408 8.37615 4.46268Z" fill="#7A361D"/>
<path d="M8.39039 4.41537C8.54296 4.34385 8.57633 4.22466 8.72412 4.18652C8.60017 4.19606 8.54772 4.32478 8.38086 4.38676L8.39039 4.41537Z" fill="#7A361D"/>
<path d="M8.04738 4.61989L7.11294 3.75219C7.11294 3.75219 7.09387 3.73788 7.08433 3.74742C7.0748 3.75695 7.0891 3.77602 7.0891 3.77602L7.9568 4.71047L8.04738 4.61989Z" fill="#F1BD51"/>
<path d="M7.95651 4.7103L7.08404 3.78062C7.07927 3.77585 7.06974 3.75678 7.07928 3.74724C7.08881 3.73771 7.10311 3.74724 7.11265 3.75201L8.04709 4.61971L8.04233 4.62448L7.10788 3.75678C7.10788 3.75678 7.09358 3.74248 7.08404 3.75201C7.07451 3.76155 7.08881 3.77585 7.08881 3.77585L7.95651 4.7103Z" fill="#7A361D"/>
<path d="M8.02362 4.6438L7.38477 4.04785L7.97595 4.68671L8.02362 4.6438Z" fill="#7A361D"/>
<path d="M7.79467 4.29142C7.73746 4.12456 7.5992 4.07688 7.55153 3.92909C7.50385 3.77653 7.3942 3.72885 7.35129 3.68117C7.30838 3.6335 7.33222 3.58105 7.31315 3.58105C7.29408 3.58105 7.27501 3.63827 7.31792 3.71455C7.36559 3.79083 7.43711 3.78606 7.49432 3.972C7.55153 4.15316 7.65642 4.1627 7.70409 4.32956L7.79467 4.29142Z" fill="#F1BD51"/>
<path d="M7.70425 4.32933C7.67087 4.24829 7.6375 4.20538 7.59936 4.1577C7.56122 4.11479 7.51831 4.06235 7.48971 3.97177C7.45157 3.85258 7.40866 3.80967 7.37052 3.7763C7.35145 3.75722 7.33238 3.74292 7.3133 3.71432C7.27993 3.65234 7.27993 3.60466 7.29424 3.58559L7.3133 3.57129C7.32284 3.57129 7.32761 3.58559 7.32761 3.59989C7.32761 3.61897 7.33238 3.64757 7.35145 3.67618C7.36098 3.69048 7.38005 3.70478 7.39912 3.71908C7.45156 3.76199 7.51831 3.81444 7.55645 3.92886C7.58029 4.00514 7.6232 4.05281 7.67564 4.10526C7.72332 4.1577 7.77099 4.21014 7.80437 4.29119H7.79006C7.76146 4.21014 7.70901 4.1577 7.66134 4.10526C7.61366 4.05281 7.56599 4.00514 7.54215 3.92409C7.50878 3.81444 7.43726 3.76199 7.38959 3.71908C7.37052 3.70478 7.35145 3.69048 7.34191 3.67618C7.31807 3.64757 7.31807 3.61896 7.3133 3.59513C7.3133 3.58082 7.31331 3.57606 7.30854 3.57606C7.28947 3.59989 7.2847 3.64757 7.31807 3.70478C7.33238 3.72862 7.35145 3.74769 7.37052 3.76199C7.40866 3.80013 7.45157 3.83827 7.49447 3.96223C7.52308 4.05281 7.56122 4.10049 7.59936 4.1434C7.64227 4.19584 7.68041 4.23875 7.70425 4.32933Z" fill="#7A361D"/>
<path d="M7.75217 4.27709C7.67588 4.12453 7.56146 4.09115 7.51855 3.94336C7.52809 4.07208 7.65681 4.11976 7.71879 4.29139L7.75217 4.27709Z" fill="#7A361D"/>
<path d="M7.95703 4.7107L8.89148 5.5784C8.89148 5.5784 8.91055 5.59747 8.92008 5.58317C8.92962 5.57363 8.91532 5.55456 8.91532 5.55456L8.04762 4.62012L7.95703 4.7107Z" fill="#F1BD51"/>
<path d="M8.90566 5.58805C8.89136 5.58805 8.88659 5.58328 8.88659 5.58328L7.95215 4.72035L7.95692 4.71558L8.89136 5.57852C8.89136 5.57852 8.90566 5.59282 8.9152 5.58328C8.92474 5.57375 8.91043 5.55945 8.91043 5.55945L8.04273 4.625L8.9152 5.55468C8.92474 5.56421 8.9295 5.57852 8.91997 5.58805C8.9152 5.58805 8.9152 5.58805 8.90566 5.58805Z" fill="#7A361D"/>
<path d="M7.97559 4.68646L8.61921 5.28241L8.02326 4.64355L7.97559 4.68646Z" fill="#7A361D"/>
<path d="M8.20508 5.04498C8.26706 5.20707 8.40532 5.25475 8.45299 5.40731C8.50067 5.55988 8.61509 5.60755 8.65323 5.65523C8.69614 5.7029 8.6723 5.75535 8.69137 5.75535C8.71044 5.75535 8.72951 5.69814 8.68184 5.62185C8.63893 5.54557 8.56741 5.54557 8.50544 5.3644C8.44346 5.17847 8.33857 5.1737 8.29566 5.00684L8.20508 5.04498Z" fill="#F1BD51"/>
<path d="M8.69126 5.75902C8.67695 5.75902 8.67695 5.74472 8.67695 5.73042C8.67695 5.71135 8.67219 5.68274 8.65312 5.65413C8.63881 5.63983 8.62451 5.6303 8.60544 5.61123C8.553 5.56832 8.48148 5.51588 8.44811 5.40145C8.42427 5.32517 8.38136 5.2775 8.32892 5.22505C8.28124 5.17261 8.23357 5.12017 8.2002 5.03912L8.20973 5.03435C8.2431 5.1154 8.29078 5.16784 8.33846 5.22029C8.38613 5.27273 8.43381 5.3204 8.45765 5.40145C8.49102 5.51111 8.56253 5.56355 8.61021 5.60646C8.62928 5.62076 8.64835 5.63507 8.65788 5.64937C8.68172 5.67797 8.68649 5.70658 8.68649 5.72565C8.68649 5.73995 8.69126 5.74472 8.69602 5.74472C8.71509 5.72088 8.71986 5.67321 8.68649 5.61599C8.67219 5.59216 8.65312 5.57309 8.63405 5.55402C8.5959 5.52064 8.553 5.47773 8.51009 5.35855C8.48148 5.26796 8.44334 5.22029 8.40043 5.17738C8.36229 5.1297 8.32415 5.08679 8.30031 5.00098C8.32892 5.08203 8.36706 5.12493 8.4052 5.17261C8.44334 5.21552 8.48625 5.26319 8.51486 5.35855C8.553 5.47773 8.5959 5.51588 8.63405 5.55402C8.65312 5.57309 8.67219 5.58739 8.68649 5.61599C8.71986 5.67321 8.71986 5.72088 8.70556 5.74472L8.69126 5.75902Z" fill="#7A361D"/>
<path d="M8.24805 5.05836C8.31956 5.21093 8.43875 5.2443 8.48166 5.39209C8.47212 5.26337 8.3434 5.21569 8.28142 5.04883L8.24805 5.05836Z" fill="#7A361D"/>
<path d="M7.94259 4.64355L7.49921 5.84022C7.49921 5.84022 7.48967 5.86406 7.50397 5.86882C7.51828 5.87359 7.52781 5.85452 7.52781 5.85452L8.05701 4.696L7.94259 4.64355Z" fill="#F1BD51"/>
<path d="M7.51375 5.86882C7.48991 5.86406 7.48991 5.84498 7.49468 5.83545L7.93806 4.64355L7.9476 4.64832L7.50421 5.84022C7.50421 5.84022 7.49945 5.85929 7.50898 5.86406L7.52805 5.84975L8.05725 4.69123L7.53282 5.85452C7.53282 5.84975 7.52805 5.86406 7.51375 5.86882Z" fill="#7A361D"/>
<path d="M7.97114 4.65332L7.66602 5.47334L8.02835 4.67716L7.97114 4.65332Z" fill="#7A361D"/>
<path d="M7.73282 5.00098C7.60409 5.12017 7.61363 5.26319 7.48967 5.36808C7.37048 5.4682 7.36571 5.59216 7.33711 5.64937C7.3085 5.70658 7.25129 5.70181 7.26082 5.72088C7.26559 5.73995 7.32757 5.73518 7.38001 5.66367C7.43246 5.59216 7.40385 5.52541 7.55165 5.40145C7.69944 5.2775 7.6613 5.17738 7.80433 5.07249L7.73282 5.00098Z" fill="#F1BD51"/>
<path d="M7.27967 5.73593C7.2749 5.73593 7.2749 5.73593 7.2749 5.73593L7.25583 5.72163C7.25106 5.71209 7.26536 5.70256 7.2749 5.69779C7.29397 5.68825 7.31781 5.67872 7.33211 5.64535C7.34165 5.63104 7.34641 5.60721 7.35118 5.58337C7.37025 5.52139 7.39409 5.43557 7.48467 5.35929C7.54188 5.30685 7.57049 5.24964 7.60386 5.18289C7.63247 5.12091 7.66107 5.05417 7.72782 4.99219L7.73259 4.99695C7.67061 5.05417 7.63724 5.12091 7.60863 5.18289C7.58003 5.24964 7.55142 5.31162 7.48944 5.35929C7.40362 5.4308 7.37979 5.51662 7.36072 5.5786C7.35595 5.60244 7.34641 5.62151 7.34165 5.64058C7.32258 5.67395 7.29874 5.68825 7.27967 5.69779C7.26536 5.70256 7.2606 5.70732 7.26537 5.71209C7.29397 5.72163 7.33688 5.70732 7.37979 5.65488C7.39886 5.63104 7.40362 5.60721 7.41316 5.58337C7.43223 5.53092 7.4513 5.47848 7.55142 5.39266C7.62293 5.33069 7.65154 5.27824 7.68014 5.22103C7.70875 5.16859 7.73259 5.11614 7.8041 5.05893C7.73736 5.11614 7.71352 5.16859 7.68491 5.22103C7.65631 5.27347 7.6277 5.33069 7.55619 5.39266C7.46084 5.47371 7.44177 5.53092 7.4227 5.5786C7.41316 5.60244 7.40363 5.62628 7.38932 5.65011C7.35118 5.71209 7.30351 5.73593 7.27967 5.73593Z" fill="#7A361D"/>
<path d="M7.73786 5.04395C7.62344 5.1679 7.63774 5.28709 7.51855 5.38721C7.63298 5.33 7.62821 5.19174 7.7617 5.07255L7.73786 5.04395Z" fill="#7A361D"/>
<path d="M8.05657 4.69197L8.49996 3.50007C8.49996 3.50007 8.50949 3.481 8.49042 3.47147C8.47612 3.4667 8.46659 3.48577 8.46659 3.48577L7.93262 4.64429L8.05657 4.69197Z" fill="#F1BD51"/>
<path d="M8.06646 4.6912H8.05692L8.5003 3.49931C8.5003 3.49931 8.50984 3.48024 8.5003 3.47547L8.48123 3.48977L7.94727 4.6483L8.4717 3.48977C8.4717 3.48977 8.48123 3.47547 8.49077 3.4707L8.51461 3.48024C8.51937 3.48977 8.51461 3.50408 8.51461 3.50408L8.06646 4.6912Z" fill="#7A361D"/>
<path d="M8.02791 4.67745L8.33781 3.85742L7.9707 4.65361L8.02791 4.67745Z" fill="#7A361D"/>
<path d="M8.27171 4.33398C8.40043 4.21479 8.3909 4.067 8.51486 3.96688C8.63405 3.86676 8.63881 3.7428 8.66265 3.68559C8.69602 3.62838 8.74847 3.63315 8.7437 3.61408C8.73416 3.59501 8.67695 3.59977 8.62451 3.67129C8.57207 3.7428 8.60067 3.80955 8.45288 3.93351C8.30508 4.05746 8.33846 4.15758 8.2002 4.26247L8.27171 4.33398Z" fill="#F1BD51"/>
<path d="M8.27171 4.33441L8.26694 4.32964C8.32892 4.27243 8.36229 4.20568 8.3909 4.13894C8.4195 4.07219 8.44811 4.01498 8.51009 3.96254C8.60067 3.89102 8.62451 3.80521 8.64358 3.74323C8.65312 3.71939 8.65788 3.70032 8.66265 3.68125C8.68172 3.64788 8.71033 3.63357 8.72463 3.62404C8.73416 3.61927 8.7437 3.6145 8.7437 3.60974C8.71033 3.6002 8.66742 3.6145 8.62928 3.66695C8.61021 3.69078 8.60544 3.71462 8.59114 3.73846C8.57207 3.7909 8.553 3.84811 8.45288 3.92916C8.38136 3.99114 8.35276 4.04359 8.32415 4.09603C8.29555 4.14847 8.27171 4.20092 8.2002 4.25813C8.26217 4.20092 8.29078 4.14847 8.31938 4.09603C8.34322 4.04359 8.3766 3.98637 8.44811 3.9244C8.54346 3.84335 8.56253 3.78614 8.5816 3.73846C8.59114 3.71462 8.60067 3.69078 8.61974 3.66218C8.65788 3.60974 8.70079 3.59066 8.7294 3.59543L8.74847 3.60497C8.75323 3.6145 8.7437 3.61927 8.7294 3.62881C8.71033 3.63834 8.68649 3.64788 8.67219 3.68125C8.66265 3.69555 8.65788 3.71462 8.65312 3.73846C8.63405 3.80044 8.61021 3.89102 8.51962 3.96254C8.45764 4.01021 8.43381 4.07219 8.40043 4.13894C8.36706 4.21045 8.33845 4.2772 8.27171 4.33441Z" fill="#7A361D"/>
<path d="M8.267 4.28662C8.38142 4.16267 8.36712 4.03871 8.48631 3.94336C8.37189 4.00057 8.37189 4.13883 8.24316 4.26279L8.267 4.28662Z" fill="#7A361D"/>
<path d="M8.02387 4.60568L6.83197 4.16229C6.83197 4.16229 6.8129 4.15276 6.80336 4.16706C6.7986 4.18136 6.82244 4.1909 6.82244 4.1909L7.98096 4.7201L8.02387 4.60568Z" fill="#F1BD51"/>
<path d="M7.97639 4.7198L6.81787 4.19537C6.80833 4.1906 6.79403 4.18106 6.7988 4.16676C6.80833 4.15246 6.82264 4.15723 6.83217 4.16199L8.02407 4.60538V4.61491L6.83217 4.17153C6.83217 4.17153 6.8131 4.16199 6.80833 4.1763C6.80357 4.18583 6.82264 4.19537 6.82264 4.19537L7.97639 4.7198Z" fill="#7A361D"/>
<path d="M8.01436 4.63899L7.19434 4.3291L7.99052 4.69621L8.01436 4.63899Z" fill="#7A361D"/>
<path d="M7.66601 4.3959C7.54682 4.26718 7.4038 4.27671 7.29891 4.15275C7.19879 4.03357 7.07483 4.0288 7.01762 4.00019C6.96041 3.97159 6.96518 3.91438 6.94611 3.92391C6.92704 3.92868 6.93181 3.99066 7.00332 4.0431C7.07007 4.09554 7.13681 4.06694 7.26077 4.21473C7.38473 4.36253 7.48484 4.32916 7.5945 4.46742L7.66601 4.3959Z" fill="#F1BD51"/>
<path d="M7.59883 4.4676C7.53685 4.40085 7.48918 4.37701 7.43197 4.34841C7.37475 4.3198 7.32231 4.2912 7.26033 4.21968C7.17928 4.12433 7.12207 4.10526 7.0744 4.08619C7.05056 4.07665 7.02672 4.06712 6.99812 4.04805C6.94567 4.00991 6.9266 3.96223 6.93137 3.93839L6.94567 3.92409C6.95521 3.91932 6.96474 3.92886 6.96951 3.94316C6.97905 3.96223 6.98858 3.98607 7.02195 4.00037C7.03626 4.00991 7.05533 4.01468 7.07917 4.01944C7.14114 4.03851 7.23173 4.06235 7.30324 4.15294C7.35568 4.21015 7.4129 4.23875 7.47964 4.27213C7.54639 4.30073 7.61313 4.32934 7.67034 4.39608L7.66558 4.40085C7.60837 4.33887 7.54162 4.3055 7.47964 4.27689C7.4129 4.24829 7.35092 4.21968 7.29847 4.1577C7.22696 4.06712 7.14114 4.04328 7.07917 4.02898C7.05533 4.02421 7.03626 4.01468 7.02195 4.00991C6.98858 3.99084 6.97428 3.967 6.96474 3.94793C6.95998 3.93363 6.95521 3.92886 6.95044 3.93363C6.94091 3.96223 6.95521 4.00991 7.01242 4.04805C7.03626 4.06712 7.06009 4.07189 7.08393 4.08142C7.13638 4.10049 7.18882 4.11956 7.27464 4.21968C7.33661 4.2912 7.38906 4.3198 7.44627 4.34841C7.49394 4.37224 7.54162 4.39608 7.59883 4.4676Z" fill="#7A361D"/>
<path d="M7.62256 4.40095C7.49861 4.28653 7.37465 4.30083 7.2793 4.18164C7.33651 4.29606 7.47477 4.29129 7.59872 4.42479L7.62256 4.40095Z" fill="#7A361D"/>
<path d="M7.97559 4.72466L9.16748 5.16804C9.16748 5.16804 9.18655 5.17758 9.19609 5.16328C9.20085 5.14897 9.18178 5.13944 9.18178 5.13944L8.02326 4.60547L7.97559 4.72466Z" fill="#F1BD51"/>
<path d="M9.18178 5.17293C9.17702 5.17293 9.17225 5.17293 9.16748 5.16816L7.97559 4.72477V4.72001L9.17225 5.16339C9.17225 5.16339 9.19132 5.16816 9.19609 5.15862C9.20085 5.14909 9.18178 5.13955 9.18178 5.13955L8.02326 4.61035L9.18655 5.13479C9.19609 5.13955 9.21039 5.14909 9.20562 5.16339C9.19609 5.17293 9.19132 5.17293 9.18178 5.17293Z" fill="#7A361D"/>
<path d="M7.99023 4.69588L8.80549 5.00101L8.01407 4.63867L7.99023 4.69588Z" fill="#7A361D"/>
<path d="M8.33301 4.9348C8.4522 5.06352 8.59999 5.05398 8.70011 5.17794C8.80023 5.29713 8.92419 5.3019 8.9814 5.3305C9.03861 5.35911 9.03384 5.41632 9.05768 5.40679C9.07675 5.40202 9.06721 5.34004 9.00047 5.2876C8.92896 5.23515 8.86698 5.26376 8.74302 5.11596C8.61429 4.96817 8.51894 5.00154 8.40929 4.86328L8.33301 4.9348Z" fill="#F1BD51"/>
<path d="M9.05377 5.41155C9.04424 5.41155 9.03947 5.40202 9.0347 5.39248C9.02517 5.37341 9.01563 5.34957 8.98226 5.33527C8.96796 5.32574 8.94412 5.32097 8.92028 5.3162C8.8583 5.29713 8.76772 5.27329 8.69621 5.18271C8.64853 5.1255 8.58178 5.09689 8.5198 5.06352C8.45783 5.03491 8.38631 5.00154 8.3291 4.93956L8.33387 4.9348C8.39108 4.99677 8.45783 5.03015 8.52457 5.05875C8.59132 5.08736 8.64853 5.11596 8.70097 5.17794C8.77249 5.26853 8.8583 5.29236 8.92028 5.30667C8.94412 5.31143 8.96319 5.32097 8.97749 5.32574C9.01087 5.34481 9.02517 5.36864 9.0347 5.38772C9.03947 5.40202 9.04424 5.40679 9.04901 5.40202C9.05854 5.37341 9.04424 5.32574 8.99179 5.2876C8.96796 5.26853 8.94412 5.26376 8.92028 5.25422C8.87261 5.23515 8.81539 5.21608 8.72958 5.11596C8.67237 5.04445 8.61516 5.01584 8.55795 4.98724C8.5055 4.95863 8.45306 4.93479 8.40062 4.86328C8.45783 4.93003 8.51027 4.95387 8.56271 4.98247C8.61516 5.01108 8.67237 5.03968 8.73435 5.1112C8.81539 5.20655 8.87261 5.22562 8.92028 5.24469C8.94412 5.25422 8.96796 5.26376 8.99179 5.28283C9.04901 5.32574 9.06331 5.37341 9.05854 5.39248L9.05377 5.41155C9.05854 5.41155 9.05377 5.41155 9.05377 5.41155Z" fill="#7A361D"/>
<path d="M8.38086 4.93009C8.50482 5.04451 8.62401 5.03021 8.71936 5.1494C8.66215 5.03497 8.52389 5.03497 8.4047 4.90625L8.38086 4.93009Z" fill="#7A361D"/>
<path d="M7.97607 4.60547L6.81755 5.13467C6.81755 5.13467 6.79371 5.14421 6.79848 5.15851C6.80325 5.17281 6.82709 5.16328 6.82709 5.16328L8.01898 4.71989L7.97607 4.60547Z" fill="#F1BD51"/>
<path d="M6.81787 5.17281C6.80833 5.17281 6.80357 5.16804 6.7988 5.16328C6.79403 5.14897 6.80833 5.13944 6.81787 5.13467L7.97639 4.60547L7.98116 4.61024L6.82264 5.13944C6.82264 5.13944 6.80357 5.14897 6.80833 5.15851C6.8131 5.16804 6.83217 5.16328 6.83217 5.16328L8.02407 4.71989L6.83217 5.16804C6.8274 5.17281 6.82264 5.17281 6.81787 5.17281Z" fill="#7A361D"/>
<path d="M7.99052 4.63867L7.19434 5.00101L8.01436 4.69588L7.99052 4.63867Z" fill="#7A361D"/>
<path d="M7.57565 4.71012C7.39925 4.70535 7.3039 4.81024 7.14657 4.79594C6.98924 4.78163 6.90342 4.86745 6.84144 4.88652C6.77946 4.90559 6.74132 4.86268 6.73655 4.88175C6.72702 4.90082 6.7747 4.93896 6.86051 4.92466C6.94633 4.91036 6.97493 4.84838 7.16564 4.86268C7.35634 4.87698 7.40402 4.7864 7.58042 4.80547V4.71012H7.57565Z" fill="#F1BD51"/>
<path d="M6.82668 4.93967C6.77424 4.93967 6.74563 4.9206 6.73133 4.90629L6.72656 4.88722C6.73133 4.87769 6.74563 4.88246 6.75517 4.88722C6.77424 4.89199 6.79808 4.90153 6.83145 4.89199C6.85052 4.88722 6.86959 4.87769 6.88866 4.86338C6.94587 4.83001 7.02692 4.7871 7.14134 4.79664C7.21762 4.80617 7.28437 4.78234 7.35112 4.75373C7.41786 4.72989 7.48461 4.70605 7.57519 4.70605V4.71559C7.48938 4.71082 7.41786 4.73943 7.35588 4.7585C7.28914 4.78234 7.22716 4.80617 7.14611 4.80141C7.03646 4.79187 6.95541 4.83478 6.8982 4.86815C6.87913 4.87769 6.86006 4.88722 6.84098 4.89676C6.80284 4.90629 6.77424 4.90153 6.75994 4.89199C6.74087 4.88722 6.7361 4.88722 6.7361 4.89199C6.7504 4.9206 6.79331 4.93967 6.86006 4.93013C6.88866 4.92536 6.9125 4.91583 6.93634 4.90629C6.98401 4.88246 7.03646 4.85862 7.16518 4.86815C7.26053 4.87769 7.31774 4.85862 7.37495 4.83955C7.43216 4.82048 7.48938 4.80141 7.57519 4.81571C7.48461 4.81094 7.43216 4.83001 7.37495 4.84908C7.31774 4.86815 7.26053 4.88722 7.16041 4.87769C7.03646 4.86815 6.97924 4.89199 6.93634 4.91583C6.9125 4.92536 6.88866 4.93967 6.86006 4.94443C6.84575 4.93967 6.83622 4.93967 6.82668 4.93967Z" fill="#7A361D"/>
<path d="M7.54696 4.74902C7.37533 4.75856 7.30381 4.85391 7.14648 4.83484C7.27044 4.87775 7.36103 4.77763 7.54219 4.7824L7.54696 4.74902Z" fill="#7A361D"/>
<path d="M8.02326 4.72498L9.18178 4.19578C9.18178 4.19578 9.20562 4.18625 9.19609 4.17194C9.18655 4.15764 9.16748 4.16718 9.16748 4.16718L7.97559 4.61056L8.02326 4.72498Z" fill="#F1BD51"/>
<path d="M8.02803 4.72965L8.02326 4.72012L9.18178 4.19092C9.18178 4.19092 9.20085 4.18138 9.19609 4.17185C9.19132 4.16231 9.17225 4.16708 9.17225 4.16708L7.97559 4.61046L9.16748 4.16231C9.17702 4.15754 9.19609 4.15754 9.20085 4.16708C9.20562 4.18138 9.19132 4.19092 9.18178 4.19568L8.02803 4.72965Z" fill="#7A361D"/>
<path d="M8.01407 4.69621L8.80549 4.3291L7.99023 4.63899L8.01407 4.69621Z" fill="#7A361D"/>
<path d="M8.42871 4.62002C8.60511 4.62479 8.70046 4.5199 8.85779 4.53421C9.01512 4.54851 9.10571 4.46269 9.16292 4.44362C9.2249 4.42455 9.26304 4.46746 9.27257 4.44839C9.28211 4.42932 9.23443 4.39118 9.14385 4.40548C9.05803 4.41978 9.03419 4.48653 8.83872 4.46746C8.64802 4.45316 8.60034 4.54374 8.42871 4.52467V4.62002Z" fill="#F1BD51"/>
<path d="M8.44301 4.62456C8.43825 4.62456 8.43348 4.62456 8.42871 4.62456V4.61503C8.51453 4.61979 8.58127 4.59119 8.64802 4.56735C8.71477 4.54351 8.78151 4.51967 8.85779 4.52444C8.97222 4.53398 9.0485 4.49107 9.10571 4.4577C9.12478 4.44339 9.14385 4.43386 9.16292 4.42909C9.20106 4.41479 9.2249 4.42909 9.24874 4.43386C9.26304 4.43863 9.26781 4.43863 9.26781 4.43386C9.2535 4.40525 9.21059 4.38618 9.14862 4.39572C9.12001 4.40048 9.09617 4.41002 9.07233 4.41955C9.01989 4.44339 8.96745 4.46723 8.84349 4.4577C8.74814 4.44816 8.69093 4.46723 8.63372 4.4863C8.57651 4.50537 8.5193 4.52444 8.43348 4.51014C8.5193 4.51491 8.57651 4.49584 8.63372 4.47677C8.69093 4.4577 8.74814 4.43862 8.84826 4.44816C8.97222 4.4577 9.02943 4.43386 9.07233 4.41002C9.09617 4.39572 9.12001 4.38618 9.14862 4.38141C9.21536 4.37188 9.26304 4.39095 9.27734 4.41479L9.28211 4.43386C9.27734 4.44339 9.26304 4.43863 9.2535 4.43386C9.23443 4.42909 9.21059 4.41955 9.17722 4.42909C9.16292 4.43386 9.14385 4.44339 9.12001 4.4577C9.0628 4.49107 8.98175 4.53398 8.86733 4.52444C8.79105 4.51491 8.72907 4.54351 8.66232 4.56735C8.58604 4.60072 8.52406 4.62456 8.44301 4.62456Z" fill="#7A361D"/>
<path d="M8.45801 4.58677C8.62487 4.57723 8.70115 4.48188 8.85372 4.50095C8.73453 4.45804 8.63918 4.55816 8.45801 4.55339V4.58677Z" fill="#7A361D"/>
<path d="M8.05701 4.64383L7.52781 3.4853C7.52781 3.4853 7.51828 3.46147 7.50397 3.471C7.48967 3.47577 7.49921 3.49961 7.49921 3.49961L7.94259 4.6915L8.05701 4.64383Z" fill="#F1BD51"/>
<path d="M7.94734 4.69207L7.49919 3.50017C7.49919 3.50017 7.49442 3.48587 7.49919 3.47633L7.51826 3.4668C7.53256 3.47156 7.53733 3.48587 7.53733 3.48587L8.06653 4.64439L8.06176 4.64916L7.52303 3.47633L7.51349 3.4811L7.50872 3.50494L7.94734 4.69207Z" fill="#7A361D"/>
<path d="M8.02835 4.65361L7.66602 3.85742L7.97114 4.67745L8.02835 4.65361Z" fill="#7A361D"/>
<path d="M7.95671 4.23873C7.96147 4.06233 7.85659 3.96698 7.86612 3.80965C7.88043 3.65232 7.79461 3.56174 7.77077 3.50453C7.7517 3.44255 7.79461 3.40918 7.77554 3.39964C7.75647 3.39011 7.71833 3.43778 7.73263 3.5236C7.74693 3.60941 7.81368 3.63802 7.79461 3.82872C7.78031 4.01943 7.87089 4.0671 7.85182 4.23873H7.95671Z" fill="#F1BD51"/>
<path d="M7.95685 4.23914H7.94732C7.95208 4.15332 7.92348 4.08658 7.89964 4.01983C7.8758 3.95308 7.85196 3.89111 7.85673 3.81006C7.86627 3.69563 7.82336 3.61935 7.79475 3.56214C7.78045 3.5383 7.77092 3.51923 7.76615 3.50493C7.75661 3.46679 7.76615 3.43819 7.77092 3.41912C7.77568 3.40481 7.77568 3.40005 7.77092 3.40005C7.74231 3.41435 7.72324 3.45726 7.73277 3.51923C7.73754 3.54784 7.74708 3.57168 7.75661 3.59552C7.78045 3.64319 7.80429 3.69564 7.79475 3.82436C7.78522 3.91971 7.80906 3.97692 7.82336 4.03413C7.84243 4.09134 7.8615 4.14856 7.8472 4.23437C7.85196 4.14856 7.83289 4.09134 7.81382 4.03413C7.79475 3.97692 7.77568 3.91971 7.78522 3.81959C7.79475 3.69564 7.77092 3.63842 7.74708 3.59552C7.73754 3.57168 7.72324 3.54784 7.72324 3.51923C7.7137 3.45249 7.73277 3.40958 7.75184 3.39051L7.77092 3.38574C7.78045 3.39051 7.77568 3.40481 7.77092 3.41435C7.76138 3.43342 7.75661 3.45726 7.76615 3.49063C7.77092 3.50493 7.78522 3.524 7.79475 3.54784C7.82336 3.60505 7.87103 3.6861 7.8615 3.80052C7.85673 3.8768 7.8758 3.93878 7.90441 4.00553C7.93778 4.08658 7.96162 4.15332 7.95685 4.23914Z" fill="#7A361D"/>
<path d="M7.9188 4.21016C7.91403 4.0433 7.81868 3.96702 7.83298 3.81445C7.79007 3.93364 7.89019 4.02899 7.88543 4.21016H7.9188Z" fill="#7A361D"/>
<path d="M7.94238 4.69112L8.47635 5.84964C8.47635 5.84964 8.48589 5.87348 8.50019 5.86394C8.51449 5.85917 8.50972 5.83533 8.50972 5.83533L8.06634 4.63867L7.94238 4.69112Z" fill="#F1BD51"/>
<path d="M8.50019 5.86882C8.47635 5.86406 8.47158 5.84975 8.47158 5.84975L7.94238 4.69123L7.95192 4.68646L8.48589 5.84499C8.48589 5.84499 8.49542 5.86406 8.50496 5.85929C8.51449 5.85452 8.50496 5.83545 8.50496 5.83545L8.06157 4.64355L8.51449 5.83545C8.50972 5.84498 8.51449 5.85929 8.50019 5.86882Z" fill="#7A361D"/>
<path d="M7.9707 4.67716L8.33781 5.47334L8.02791 4.65332L7.9707 4.67716Z" fill="#7A361D"/>
<path d="M8.04746 5.0918C8.03793 5.2682 8.14758 5.36355 8.13328 5.52088C8.11898 5.67821 8.20479 5.76403 8.22386 5.83077C8.24293 5.89275 8.20003 5.92612 8.2191 5.93566C8.23817 5.94519 8.27631 5.89752 8.26201 5.80693C8.2477 5.72112 8.18096 5.69251 8.20003 5.50181C8.21433 5.31111 8.12375 5.26343 8.14282 5.0918H8.04746Z" fill="#F1BD51"/>
<path d="M8.2238 5.94043C8.2095 5.93566 8.21903 5.92136 8.2238 5.91182C8.22857 5.89275 8.2381 5.86891 8.22857 5.83077C8.2238 5.8117 8.21427 5.7974 8.19996 5.77356C8.17136 5.71635 8.12368 5.6353 8.13322 5.52088C8.14275 5.4446 8.11891 5.38262 8.09508 5.31587C8.07124 5.24913 8.04263 5.18238 8.0474 5.0918H8.05694C8.05217 5.17761 8.08077 5.24913 8.10461 5.31111C8.12845 5.37785 8.15229 5.43983 8.14752 5.52088C8.13798 5.6353 8.18089 5.71158 8.2095 5.76879C8.2238 5.78786 8.23334 5.80693 8.2381 5.826C8.25241 5.86414 8.24287 5.88798 8.23334 5.91182C8.22857 5.92612 8.22857 5.93089 8.23334 5.93089C8.26194 5.91659 8.28101 5.87368 8.27148 5.80693C8.26671 5.77833 8.25717 5.75449 8.24764 5.73065C8.22857 5.68298 8.19996 5.63053 8.2095 5.50181C8.21427 5.40646 8.1952 5.34925 8.17613 5.29204C8.15706 5.23482 8.13798 5.17761 8.15229 5.0918C8.14752 5.17761 8.16659 5.23482 8.18566 5.29204C8.20473 5.34925 8.2238 5.41122 8.21427 5.50658C8.20473 5.63053 8.22857 5.68774 8.25241 5.73542C8.26671 5.75926 8.27624 5.7831 8.28101 5.8117C8.29055 5.87845 8.27148 5.92136 8.25241 5.94043H8.2238Z" fill="#7A361D"/>
<path d="M8.08105 5.12012C8.09059 5.28698 8.18594 5.36326 8.16687 5.51583C8.20978 5.39187 8.10966 5.30129 8.11443 5.12012H8.08105Z" fill="#7A361D"/>
<path d="M7.99916 4.14746C8.28521 4.14746 8.51882 4.38107 8.51882 4.66713C8.51882 4.95318 8.28998 5.18679 7.99916 5.18679C7.7131 5.18679 7.47949 4.95318 7.47949 4.66713C7.47949 4.38107 7.7131 4.14746 7.99916 4.14746Z" fill="#F1BD51"/>
<path d="M8.00002 5.18765C7.7092 5.18765 7.47559 4.95404 7.47559 4.66322C7.47559 4.37717 7.7092 4.14355 8.00002 4.14355C8.28607 4.14355 8.52445 4.37717 8.52445 4.66322C8.52445 4.95404 8.29084 5.18765 8.00002 5.18765ZM8.00002 4.15309C7.71397 4.15309 7.48512 4.38193 7.48512 4.66799C7.48512 4.95404 7.71873 5.18289 8.00002 5.18289C8.28607 5.18289 8.51492 4.95404 8.51492 4.66799C8.51492 4.38193 8.28607 4.15309 8.00002 4.15309Z" fill="#7A361D"/>
<path d="M8.32882 4.5529C8.23347 4.47186 8.11905 4.46232 8.05707 4.5243C8.0094 4.58628 8.01416 4.65779 8.07137 4.73407C8.06661 4.73407 8.05707 4.73884 8.0523 4.73884C8.01416 4.66256 8.00463 4.58151 8.03323 4.51476C8.11905 4.44325 8.24301 4.43371 8.32882 4.5529Z" fill="#7A361D"/>
<path d="M8.18614 4.5293C8.1337 4.5293 8.12417 4.5436 8.09556 4.56267C8.07172 4.58174 8.05742 4.57697 8.05265 4.58174C8.04788 4.58651 8.05265 4.59604 8.06219 4.59128C8.07172 4.58651 8.08602 4.58174 8.10986 4.5579C8.1337 4.53883 8.15754 4.53883 8.18138 4.53883C8.25289 4.53883 8.29103 4.59604 8.30057 4.59604C8.3101 4.59604 8.26243 4.5293 8.18614 4.5293Z" fill="#7A361D"/>
<path d="M8.27676 4.60074C8.22908 4.54353 8.12896 4.53876 8.09082 4.60551H8.10512C8.14326 4.54353 8.24338 4.56737 8.24815 4.59597V4.60551L8.27676 4.60074Z" fill="#7A361D"/>
<path d="M8.17584 4.55859C8.19491 4.55859 8.21398 4.57766 8.21398 4.59673C8.21398 4.6158 8.19491 4.63487 8.17584 4.63487C8.15677 4.63487 8.1377 4.62057 8.1377 4.59673C8.14246 4.57766 8.15677 4.55859 8.17584 4.55859Z" fill="#7A361D"/>
<path d="M8.09082 4.60133C8.12896 4.6347 8.21954 4.63947 8.27676 4.59656L8.24815 4.5918C8.21001 4.63471 8.14326 4.62994 8.10512 4.60133V4.59656L8.09082 4.60133Z" fill="#7A361D"/>
<path d="M8.28127 4.61989C8.21453 4.67233 8.14302 4.66756 8.10487 4.64372C8.06673 4.61989 8.06673 4.61035 8.0715 4.61035C8.08104 4.61035 8.0858 4.61989 8.11918 4.63419C8.15255 4.64849 8.20023 4.64849 8.28127 4.61989Z" fill="#7A361D"/>
<path d="M8.08559 4.73926C8.09989 4.74403 8.10466 4.75833 8.09989 4.76786C8.09512 4.78217 8.08082 4.78693 8.07128 4.78217C8.06175 4.7774 8.05698 4.77263 8.05221 4.7631C8.04745 4.77263 8.03314 4.79647 7.99977 4.79647H7.99023L7.99977 4.81077C8.0093 4.81077 8.02838 4.81077 8.04745 4.79647C8.06175 4.81077 8.08082 4.81554 8.09989 4.806C8.11419 4.7917 8.12373 4.77263 8.10942 4.75356C8.10466 4.74403 8.09512 4.73926 8.08559 4.73926Z" fill="#7A361D"/>
<path d="M8.13338 4.90584C8.1 4.88201 8.08093 4.84863 8.04279 4.84863C8.03326 4.84863 8.01896 4.8534 8.00465 4.86294H7.99512L8.00465 4.87247C8.01896 4.87247 8.04279 4.8534 8.0714 4.8677C8.09524 4.88201 8.11431 4.89631 8.13338 4.90584Z" fill="#7A361D"/>
<path d="M8.11896 4.90637C8.03791 4.88253 8.02361 4.89683 7.99977 4.89683H7.99023L7.99977 4.9159C8.03314 4.9159 8.04745 4.89207 8.11896 4.90637Z" fill="#7A361D"/>
<path d="M8.13338 4.90643C8.04756 4.8969 8.07617 4.94934 8.00465 4.94934H7.99512L8.00465 4.96364C8.09047 4.96364 8.04756 4.91597 8.13338 4.90643Z" fill="#7A361D"/>
<path d="M8.07174 5.0344C8.07174 4.99626 8.03837 4.96289 8.00022 4.96289C7.96208 4.96289 7.92871 4.99626 7.92871 5.0344C7.93825 4.99626 7.97639 4.97243 8.0193 4.98196C8.0479 4.98673 8.06697 5.0058 8.07174 5.0344Z" fill="#7A361D"/>
<path d="M7.6709 4.5529C7.76148 4.47186 7.88067 4.46232 7.94265 4.5243C7.99033 4.58628 7.98556 4.65779 7.92835 4.73407C7.93312 4.73407 7.94265 4.73884 7.94265 4.73884C7.98079 4.66256 7.99033 4.58151 7.96172 4.51476C7.88067 4.44325 7.76148 4.43371 7.6709 4.5529Z" fill="#7A361D"/>
<path d="M7.81862 4.5293C7.87106 4.5293 7.8806 4.5436 7.90444 4.56267C7.92827 4.58174 7.93781 4.57697 7.94258 4.58174C7.94734 4.58651 7.94258 4.59604 7.93304 4.59128C7.92351 4.58651 7.9092 4.58174 7.88537 4.5579C7.86153 4.53883 7.83769 4.53883 7.81385 4.53883C7.74234 4.53883 7.7042 4.59604 7.69466 4.59604C7.6899 4.59604 7.73757 4.5293 7.81862 4.5293Z" fill="#7A361D"/>
<path d="M7.72363 4.60074C7.77608 4.54353 7.87143 4.53876 7.90957 4.60551H7.8905C7.85236 4.54353 7.75701 4.56737 7.74747 4.59597V4.60551L7.72363 4.60074Z" fill="#7A361D"/>
<path d="M7.82818 4.55859C7.80911 4.55859 7.79004 4.57766 7.79004 4.59673C7.79004 4.6158 7.80434 4.63487 7.82818 4.63487C7.84725 4.63487 7.86155 4.62057 7.86155 4.59673C7.86155 4.57766 7.84248 4.55859 7.82818 4.55859Z" fill="#7A361D"/>
<path d="M7.91445 4.60133C7.87154 4.6347 7.78573 4.63947 7.72852 4.59656L7.75712 4.5918C7.79526 4.63471 7.85724 4.62994 7.90015 4.60133V4.59656L7.91445 4.60133Z" fill="#7A361D"/>
<path d="M7.71875 4.61989C7.7855 4.67233 7.85701 4.66756 7.89515 4.64372C7.93329 4.61989 7.93329 4.61035 7.92852 4.61035C7.91899 4.61035 7.91422 4.61989 7.88085 4.63419C7.84747 4.64849 7.7998 4.64849 7.71875 4.61989Z" fill="#7A361D"/>
<path d="M7.91877 4.73926C7.90447 4.74403 7.8997 4.75833 7.90447 4.76786C7.90924 4.78217 7.92354 4.78693 7.93308 4.78217C7.94261 4.7774 7.94738 4.77263 7.94738 4.7631C7.95215 4.77263 7.96645 4.79647 7.99982 4.79647H8.00936L7.99982 4.81077C7.99029 4.81077 7.96645 4.81077 7.95215 4.79647C7.94261 4.81077 7.91877 4.81554 7.90447 4.806C7.8854 4.7917 7.8854 4.77263 7.89494 4.75356C7.8997 4.74403 7.90924 4.73926 7.91877 4.73926Z" fill="#7A361D"/>
<path d="M7.87109 4.90584C7.90923 4.88201 7.92354 4.84863 7.96168 4.84863C7.97121 4.84863 7.98552 4.8534 7.99982 4.86294H8.00935L7.99982 4.87247C7.98552 4.87247 7.96168 4.8534 7.93307 4.8677C7.90447 4.88201 7.89016 4.89631 7.87109 4.90584Z" fill="#7A361D"/>
<path d="M7.88086 4.90637C7.96191 4.88253 7.97621 4.89683 8.00005 4.89683H8.00958L8.00005 4.9159C7.97144 4.9159 7.95237 4.89207 7.88086 4.90637Z" fill="#7A361D"/>
<path d="M7.87109 4.90643C7.96168 4.8969 7.92831 4.94934 8.00459 4.94934H8.01412L8.00459 4.96364C7.914 4.96364 7.95214 4.91597 7.87109 4.90643Z" fill="#7A361D"/>
<path d="M7.92871 5.0344C7.92871 4.99626 7.96208 4.96289 8.00022 4.96289C8.03837 4.96289 8.07174 4.99626 8.07174 5.0344C8.0622 4.99626 8.02406 4.97243 7.98115 4.98196C7.95732 4.98673 7.93348 5.0058 7.92871 5.0344Z" fill="#7A361D"/>
</svg>
