<svg width="16" height="10" viewBox="0 0 16 10" fill="none" xmlns="http://www.w3.org/2000/svg">
<path d="M16 0H0V9.33492H16V0Z" fill="#3C9242"/>
<path d="M2.46973 4.66754L8.00012 8.20032L13.54 4.66754L8.00012 1.13477L2.46973 4.66754Z" fill="#EDC226"/>
<path d="M10.3365 4.66717C10.3365 5.95442 9.29242 6.99852 8.00517 6.99852C6.71793 6.99852 5.67383 5.95442 5.67383 4.66717C5.67383 3.37992 6.71793 2.33105 8.00517 2.33105C9.29242 2.33105 10.3365 3.37992 10.3365 4.66717Z" fill="#2D146E"/>
<path d="M6.67003 3.66602C6.39828 3.66602 6.13129 3.68509 5.86907 3.72323C5.81663 3.83765 5.77849 3.95684 5.74512 4.0808C6.04547 4.02835 6.35537 3.99975 6.67003 3.99975C8.03832 3.99975 9.28743 4.51465 10.2314 5.36327C10.2696 5.24409 10.2982 5.12013 10.3125 4.99617C9.32557 4.16661 8.05739 3.66602 6.67003 3.66602Z" fill="white"/>
<path fill-rule="evenodd" clip-rule="evenodd" d="M6.01151 3.98518C6.06395 3.98041 6.10686 3.9232 6.09732 3.86122C6.09255 3.79924 6.04011 3.75634 5.98767 3.7611C5.93046 3.76587 5.89232 3.82308 5.90185 3.88506C5.90662 3.94704 5.95906 3.98995 6.01151 3.98518ZM6.00674 3.94227C6.03534 3.9375 6.05918 3.90413 6.05441 3.86599C6.04965 3.82785 6.02104 3.79924 5.98767 3.80401C5.95429 3.80878 5.93046 3.84215 5.93522 3.88029C5.94476 3.91843 5.97336 3.94704 6.00674 3.94227Z" fill="#3C9242"/>
<path fill-rule="evenodd" clip-rule="evenodd" d="M6.1929 3.96701L6.23104 3.96224L6.22627 3.88119L6.31686 3.87643C6.355 3.87166 6.3836 3.83828 6.37883 3.80014C6.37407 3.762 6.34069 3.7334 6.30255 3.7334L6.17383 3.74293L6.1929 3.96701ZM6.22627 3.83828L6.31209 3.83352C6.32639 3.83352 6.33593 3.81921 6.33593 3.80014C6.33593 3.78584 6.32162 3.77154 6.30732 3.7763L6.2215 3.78107L6.22627 3.83828Z" fill="#3C9242"/>
<path d="M6.37907 3.95266C6.37907 3.91928 6.3743 3.85254 6.32663 3.85254L6.26465 3.85731C6.33139 3.85254 6.34093 3.92405 6.34093 3.95266" fill="#3C9242"/>
<path fill-rule="evenodd" clip-rule="evenodd" d="M6.47461 3.94771H6.5795C6.63194 3.94771 6.67485 3.9048 6.67485 3.85236V3.81898C6.67485 3.76654 6.63194 3.72363 6.5795 3.72363H6.47461V3.94771ZM6.51752 3.9048H6.5795C6.61287 3.9048 6.64147 3.8762 6.63671 3.84282V3.82375C6.63671 3.79038 6.6081 3.76654 6.5795 3.76654H6.51752V3.9048Z" fill="#3C9242"/>
<path d="M6.75586 3.94294L6.9561 3.95248V3.90957L6.79877 3.9048V3.84759L6.92749 3.85236V3.81422L6.79877 3.80945V3.76654L6.9561 3.77131V3.7284L6.76539 3.72363L6.75586 3.94294Z" fill="#3C9242"/>
<path d="M7.03711 3.95747H7.07525L7.08955 3.80968L7.11816 3.96224L7.1563 3.96701L7.21351 3.81921L7.19921 3.97178H7.23735L7.25642 3.75247L7.20397 3.7477L7.14676 3.89549L7.11339 3.73817L7.05618 3.7334L7.03711 3.95747Z" fill="#3C9242"/>
<path d="M7.5 4.00883L7.66687 4.03267L7.67163 3.9993L7.54291 3.97546L7.55244 3.92778L7.65733 3.94209L7.6621 3.90394L7.56198 3.88964L7.56675 3.8515L7.68594 3.87534L7.6907 3.8372L7.53337 3.80859L7.5 4.00883Z" fill="#3C9242"/>
<path fill-rule="evenodd" clip-rule="evenodd" d="M7.91895 4.0904L7.95709 4.09994L7.98092 4.01889L8.06674 4.03796C8.10488 4.0475 8.14302 4.02366 8.15256 3.99028C8.16209 3.95214 8.13825 3.914 8.10011 3.90447L7.97616 3.87109L7.91895 4.0904ZM7.99523 3.98075L8.07628 4.00459C8.09058 4.00935 8.10488 3.99982 8.10965 3.98552C8.11442 3.97121 8.10488 3.95691 8.09058 3.95214L8.00953 3.93307L7.99523 3.98075Z" fill="#3C9242"/>
<path fill-rule="evenodd" clip-rule="evenodd" d="M8.19531 4.16215L8.23345 4.17645L8.25729 4.10017L8.33834 4.12878C8.37648 4.13831 8.41462 4.11924 8.42892 4.08587C8.44323 4.04773 8.41939 4.00959 8.38602 4.00005L8.26206 3.96191L8.19531 4.16215ZM8.27159 4.05726L8.35264 4.0811C8.36695 4.08587 8.38125 4.07634 8.38602 4.06203C8.39078 4.04773 8.38125 4.03343 8.36695 4.02866L8.2859 4.00482L8.27159 4.05726Z" fill="#3C9242"/>
<path d="M8.37229 4.21954C8.38183 4.19094 8.4009 4.12419 8.35799 4.10989L8.30078 4.09082C8.36753 4.10989 8.34369 4.17664 8.33415 4.21001" fill="#3C9242"/>
<path fill-rule="evenodd" clip-rule="evenodd" d="M8.5579 4.28609C8.61034 4.30516 8.66755 4.27655 8.69139 4.21934C8.71523 4.16213 8.69139 4.10015 8.63895 4.08108C8.58651 4.06201 8.52453 4.09061 8.50546 4.14782C8.47685 4.20504 8.50546 4.26701 8.5579 4.28609ZM8.5722 4.24794C8.60558 4.26225 8.63895 4.23841 8.65325 4.20504C8.66755 4.16689 8.65325 4.12875 8.62465 4.11922C8.59604 4.10968 8.5579 4.12875 8.5436 4.16213C8.52453 4.1955 8.5436 4.23364 8.5722 4.24794Z" fill="#3C9242"/>
<path fill-rule="evenodd" clip-rule="evenodd" d="M8.81987 4.39019C8.87231 4.41403 8.93429 4.38543 8.95813 4.32822C8.98196 4.27101 8.96289 4.20903 8.91045 4.18519C8.85801 4.16135 8.8008 4.18996 8.77696 4.24717C8.74835 4.30438 8.76742 4.37112 8.81987 4.39019ZM8.83417 4.35205C8.86278 4.36636 8.90092 4.34729 8.91522 4.30915C8.92952 4.27577 8.91999 4.23287 8.89138 4.22333C8.86278 4.20903 8.82463 4.2281 8.81033 4.26624C8.79126 4.29961 8.80556 4.33775 8.83417 4.35205Z" fill="#3C9242"/>
<path d="M8.87758 4.2959L8.95387 4.32927L8.93956 4.35788L8.86328 4.3245L8.87758 4.2959Z" fill="#3C9242"/>
<path d="M8.92572 4.31445L8.95433 4.32876L8.91142 4.42888L8.88281 4.41934L8.92572 4.31445Z" fill="#3C9242"/>
<path fill-rule="evenodd" clip-rule="evenodd" d="M8.9873 4.46672L9.02545 4.4858L9.06359 4.40951L9.14463 4.44766C9.17801 4.46673 9.22092 4.45242 9.23999 4.41428C9.25906 4.38091 9.24475 4.338 9.21138 4.31893L9.09696 4.26172L8.9873 4.46672ZM9.07789 4.37137L9.15417 4.40951C9.16847 4.41905 9.18278 4.40951 9.19231 4.39521C9.19708 4.38091 9.19231 4.36184 9.17801 4.35707L9.10173 4.31893L9.07789 4.37137Z" fill="#3C9242"/>
<path d="M9.15401 4.5483C9.16831 4.51969 9.19691 4.45772 9.15877 4.43388L9.10156 4.40527C9.16354 4.43865 9.13494 4.50062 9.12063 4.52923" fill="#3C9242"/>
<path d="M9.23438 4.59586L9.41078 4.69121L9.42985 4.65784L9.29159 4.57679L9.31542 4.52912L9.42508 4.59109L9.44415 4.55295L9.33449 4.49574L9.35833 4.45283L9.49182 4.52912L9.51089 4.49574L9.34403 4.40039L9.23438 4.59586Z" fill="#3C9242"/>
<path d="M9.559 4.70032C9.5447 4.71939 9.559 4.73846 9.58284 4.75753C9.61145 4.7766 9.62575 4.77184 9.63528 4.7623C9.65912 4.72416 9.52086 4.66695 9.56377 4.6002C9.60191 4.54299 9.66389 4.5859 9.68773 4.6002C9.71157 4.61451 9.74971 4.65741 9.7211 4.70032L9.67819 4.67172C9.6925 4.65264 9.67819 4.63357 9.65436 4.61927C9.63529 4.60497 9.61621 4.6002 9.60668 4.61927C9.58761 4.64788 9.72587 4.70509 9.67819 4.7766C9.64959 4.82428 9.59238 4.80521 9.559 4.78137C9.52563 4.7623 9.48272 4.71462 9.51133 4.66695L9.559 4.70032Z" fill="#3C9242"/>
<path d="M9.79748 4.85795C9.78318 4.87702 9.79271 4.89609 9.82132 4.91516C9.84516 4.93423 9.86899 4.93423 9.87376 4.9247C9.8976 4.88656 9.75934 4.82458 9.81178 4.7626C9.84992 4.70539 9.9119 4.75306 9.93574 4.77213C9.95958 4.79121 9.99295 4.82935 9.95958 4.87702L9.92144 4.84842C9.93574 4.82935 9.92144 4.81028 9.8976 4.79597C9.87853 4.78167 9.86423 4.7769 9.84992 4.79597C9.82609 4.82458 9.95958 4.89132 9.91667 4.9533C9.8833 5.00098 9.82609 4.97714 9.79748 4.9533C9.76888 4.93423 9.7212 4.88179 9.75457 4.83888L9.79748 4.85795Z" fill="#3C9242"/>
<path fill-rule="evenodd" clip-rule="evenodd" d="M10.0218 5.11522C10.0647 5.14859 10.1314 5.13906 10.1696 5.09138C10.2077 5.04371 10.2029 4.97696 10.16 4.94359C10.1171 4.91021 10.0504 4.91975 10.0122 4.96742C9.97886 5.0151 9.97886 5.08185 10.0218 5.11522ZM10.0504 5.08185C10.0742 5.10092 10.1171 5.09615 10.141 5.06278C10.1648 5.03417 10.16 4.99126 10.1362 4.97219C10.1123 4.95312 10.0742 4.95789 10.0456 4.99126C10.0218 5.01987 10.0218 5.06278 10.0504 5.08185Z" fill="#3C9242"/>
<path d="M6.09783 4.14746L6.06445 4.24281L6.1169 4.25712L6.09783 4.14746Z" fill="white"/>
<path d="M6.09829 4.14746L6.12689 4.24281L6.08398 4.25712L6.09829 4.14746Z" fill="white"/>
<path d="M6.19289 4.21484H6.09277V4.26729L6.19289 4.21484Z" fill="white"/>
<path d="M6.19364 4.21484L6.11259 4.27682L6.08398 4.23391L6.19364 4.21484Z" fill="white"/>
<path d="M6.00293 4.21484L6.08398 4.27682L6.11258 4.23391L6.00293 4.21484Z" fill="white"/>
<path d="M6.00293 4.21484H6.10305V4.26729L6.00293 4.21484Z" fill="white"/>
<path d="M6.15538 4.32875L6.12678 4.2334L6.0791 4.2477L6.15538 4.32875Z" fill="white"/>
<path d="M6.15527 4.32864L6.07422 4.26666L6.10282 4.22852L6.15527 4.32864Z" fill="white"/>
<path d="M6.04004 4.32864L6.12109 4.26666L6.08772 4.22852L6.04004 4.32864Z" fill="white"/>
<path d="M6.04004 4.32875L6.06864 4.2334L6.11632 4.2477L6.04004 4.32875Z" fill="white"/>
<path d="M6.30302 5.12988L6.27441 5.22523L6.32209 5.23954L6.30302 5.12988Z" fill="white"/>
<path d="M6.30337 5.12988L6.33674 5.22523L6.28906 5.23954L6.30337 5.12988Z" fill="white"/>
<path d="M6.39797 5.19629H6.29785V5.24873L6.39797 5.19629Z" fill="white"/>
<path d="M6.39872 5.19629L6.31767 5.25827L6.28906 5.21536L6.39872 5.19629Z" fill="white"/>
<path d="M6.20801 5.19629L6.28906 5.25827L6.32243 5.21536L6.20801 5.19629Z" fill="white"/>
<path d="M6.20801 5.19629H6.31289V5.24873L6.20801 5.19629Z" fill="white"/>
<path d="M6.36523 5.31117L6.33186 5.21582L6.28418 5.23012L6.36523 5.31117Z" fill="white"/>
<path d="M6.36523 5.31106L6.28418 5.24908L6.31278 5.21094L6.36523 5.31106Z" fill="white"/>
<path d="M6.24609 5.31106L6.32714 5.24908L6.29854 5.21094L6.24609 5.31106Z" fill="white"/>
<path d="M6.24609 5.31117L6.2747 5.21582L6.32237 5.23012L6.24609 5.31117Z" fill="white"/>
<path d="M6.01712 5.36816L5.99805 5.43491L6.03142 5.44445L6.01712 5.36816Z" fill="white"/>
<path d="M6.01735 5.36816L6.04119 5.43491L6.00781 5.44445L6.01735 5.36816Z" fill="white"/>
<path d="M6.08323 5.41602H6.01172V5.44939L6.08323 5.41602Z" fill="white"/>
<path d="M6.08409 5.41602L6.02688 5.45892L6.00781 5.43032L6.08409 5.41602Z" fill="white"/>
<path d="M5.95508 5.41602L6.00752 5.45892L6.02659 5.43032L5.95508 5.41602Z" fill="white"/>
<path d="M5.95508 5.41602H6.02182V5.44939L5.95508 5.41602Z" fill="white"/>
<path d="M6.05549 5.49167L6.03642 5.42969L6.00781 5.43922L6.05549 5.49167Z" fill="white"/>
<path d="M6.05537 5.49253L6.00293 5.45439L6.022 5.42578L6.05537 5.49253Z" fill="white"/>
<path d="M5.97852 5.49253L6.03096 5.45439L6.01189 5.42578L5.97852 5.49253Z" fill="white"/>
<path d="M5.97852 5.49167L5.99759 5.42969L6.03096 5.43922L5.97852 5.49167Z" fill="white"/>
<path d="M6.53188 5.03906L6.51758 5.08197L6.54142 5.09151L6.53188 5.03906Z" fill="white"/>
<path d="M6.532 5.03906L6.5463 5.08197L6.52246 5.09151L6.532 5.03906Z" fill="white"/>
<path d="M6.57893 5.07227H6.53125V5.0961L6.57893 5.07227Z" fill="white"/>
<path d="M6.57979 5.07227L6.54165 5.10087L6.52734 5.07703L6.57979 5.07227Z" fill="white"/>
<path d="M6.48438 5.07227L6.52728 5.10087L6.54159 5.07703L6.48438 5.07227Z" fill="white"/>
<path d="M6.48438 5.07227H6.53682V5.0961L6.48438 5.07227Z" fill="white"/>
<path d="M6.5606 5.12482L6.5463 5.07715L6.52246 5.08668L6.5606 5.12482Z" fill="white"/>
<path d="M6.5606 5.12482L6.52246 5.09622L6.53676 5.07715L6.5606 5.12482Z" fill="white"/>
<path d="M6.50293 5.12482L6.54107 5.09622L6.52677 5.07715L6.50293 5.12482Z" fill="white"/>
<path d="M6.50293 5.12482L6.51723 5.07715L6.54107 5.08668L6.50293 5.12482Z" fill="white"/>
<path d="M6.78946 5.37793L6.76562 5.45421L6.80377 5.46851L6.78946 5.37793Z" fill="white"/>
<path d="M6.78872 5.37793L6.81255 5.45421L6.77441 5.46851L6.78872 5.37793Z" fill="white"/>
<path d="M6.87 5.43457H6.78418V5.47748L6.87 5.43457Z" fill="white"/>
<path d="M6.86977 5.43457L6.79825 5.48225L6.77441 5.44887L6.86977 5.43457Z" fill="white"/>
<path d="M6.71289 5.43457L6.77964 5.48225L6.80347 5.44887L6.71289 5.43457Z" fill="white"/>
<path d="M6.71289 5.43457H6.79394V5.47748L6.71289 5.43457Z" fill="white"/>
<path d="M6.83639 5.5255L6.81255 5.44922L6.77441 5.46352L6.83639 5.5255Z" fill="white"/>
<path d="M6.83725 5.52539L6.77051 5.47771L6.79435 5.44434L6.83725 5.52539Z" fill="white"/>
<path d="M6.74121 5.52539L6.80796 5.47771L6.78412 5.44434L6.74121 5.52539Z" fill="white"/>
<path d="M6.74121 5.5255L6.76505 5.44922L6.80319 5.46352L6.74121 5.5255Z" fill="white"/>
<path d="M6.7172 5.60645L6.69336 5.6875L6.7315 5.7018L6.7172 5.60645Z" fill="white"/>
<path d="M6.71754 5.60645L6.74615 5.6875L6.70801 5.7018L6.71754 5.60645Z" fill="white"/>
<path d="M6.79882 5.66895H6.71777V5.70709L6.79882 5.66895Z" fill="white"/>
<path d="M6.79859 5.66895L6.73185 5.71662L6.70801 5.68325L6.79859 5.66895Z" fill="white"/>
<path d="M6.6416 5.66895L6.70835 5.71662L6.73219 5.68325L6.6416 5.66895Z" fill="white"/>
<path d="M6.6416 5.66895H6.72265V5.70709L6.6416 5.66895Z" fill="white"/>
<path d="M6.76987 5.75878L6.74603 5.67773L6.70312 5.69204L6.76987 5.75878Z" fill="white"/>
<path d="M6.77073 5.75878L6.69922 5.71111L6.72782 5.67773L6.77073 5.75878Z" fill="white"/>
<path d="M6.66992 5.75878L6.73667 5.71111L6.71283 5.67773L6.66992 5.75878Z" fill="white"/>
<path d="M6.66992 5.75878L6.69853 5.67773L6.73667 5.69204L6.66992 5.75878Z" fill="white"/>
<path d="M8.72489 3.84277L8.69629 3.93812L8.74396 3.95243L8.72489 3.84277Z" fill="white"/>
<path d="M8.72524 3.84277L8.75861 3.93812L8.71094 3.95243L8.72524 3.84277Z" fill="white"/>
<path d="M8.81985 3.90918H8.71973V3.96162L8.81985 3.90918Z" fill="white"/>
<path d="M8.82059 3.90918L8.73954 3.97116L8.71094 3.92825L8.82059 3.90918Z" fill="white"/>
<path d="M8.62988 3.90918L8.71093 3.97116L8.7443 3.92825L8.62988 3.90918Z" fill="white"/>
<path d="M8.62988 3.90918H8.73V3.96162L8.62988 3.90918Z" fill="white"/>
<path d="M8.7871 4.02308L8.75373 3.92773L8.70605 3.94204L8.7871 4.02308Z" fill="white"/>
<path d="M8.7871 4.02395L8.70605 3.96674L8.73466 3.92383L8.7871 4.02395Z" fill="white"/>
<path d="M8.66797 4.02395L8.74902 3.96674L8.72041 3.92383L8.66797 4.02395Z" fill="white"/>
<path d="M8.66797 4.02308L8.70134 3.92773L8.74902 3.94204L8.66797 4.02308Z" fill="white"/>
<path d="M9.63505 5.3877L9.60645 5.48305L9.65412 5.49735L9.63505 5.3877Z" fill="white"/>
<path d="M9.6354 5.3877L9.66877 5.48305L9.62109 5.49735L9.6354 5.3877Z" fill="white"/>
<path d="M9.73098 5.4541H9.63086V5.50178L9.73098 5.4541Z" fill="white"/>
<path d="M9.73075 5.4541L9.65447 5.51131L9.62109 5.47317L9.73075 5.4541Z" fill="white"/>
<path d="M9.54004 5.4541L9.62109 5.51131L9.65446 5.47317L9.54004 5.4541Z" fill="white"/>
<path d="M9.54004 5.4541H9.64016V5.50178L9.54004 5.4541Z" fill="white"/>
<path d="M9.69726 5.56801L9.66389 5.47266L9.61621 5.48696L9.69726 5.56801Z" fill="white"/>
<path d="M9.69726 5.56887L9.61621 5.50689L9.64482 5.46875L9.69726 5.56887Z" fill="white"/>
<path d="M9.57812 5.56887L9.65917 5.50689L9.63057 5.46875L9.57812 5.56887Z" fill="white"/>
<path d="M9.57812 5.56801L9.6115 5.47266L9.65917 5.48696L9.57812 5.56801Z" fill="white"/>
<path d="M9.96427 5.43945L9.94043 5.50143L9.9738 5.51573L9.96427 5.43945Z" fill="white"/>
<path d="M9.9645 5.43945L9.98357 5.50143L9.9502 5.51573L9.9645 5.43945Z" fill="white"/>
<path d="M10.0219 5.4873H9.95996V5.52068L10.0219 5.4873Z" fill="white"/>
<path d="M10.0217 5.4873L9.96927 5.52545L9.9502 5.49684L10.0217 5.4873Z" fill="white"/>
<path d="M9.89746 5.4873L9.9499 5.52545L9.97374 5.49684L9.89746 5.4873Z" fill="white"/>
<path d="M9.89746 5.4873H9.96421V5.52068L9.89746 5.4873Z" fill="white"/>
<path d="M9.99787 5.56382L9.9788 5.49707L9.9502 5.50661L9.99787 5.56382Z" fill="white"/>
<path d="M9.99776 5.56382L9.94531 5.52091L9.96915 5.49707L9.99776 5.56382Z" fill="white"/>
<path d="M9.92188 5.56382L9.97432 5.52091L9.95525 5.49707L9.92188 5.56382Z" fill="white"/>
<path d="M9.92188 5.56382L9.94094 5.49707L9.97432 5.50661L9.92188 5.56382Z" fill="white"/>
<path d="M9.73087 5.60645L9.70703 5.6875L9.74517 5.7018L9.73087 5.60645Z" fill="white"/>
<path d="M9.73122 5.60645L9.75982 5.6875L9.72168 5.7018L9.73122 5.60645Z" fill="white"/>
<path d="M9.81152 5.66895H9.73047V5.70709L9.81152 5.66895Z" fill="white"/>
<path d="M9.81226 5.66895L9.74552 5.71662L9.72168 5.68325L9.81226 5.66895Z" fill="white"/>
<path d="M9.6543 5.66895L9.72104 5.71662L9.74488 5.68325L9.6543 5.66895Z" fill="white"/>
<path d="M9.6543 5.66895H9.73535V5.70709L9.6543 5.66895Z" fill="white"/>
<path d="M9.78354 5.75878L9.75494 5.67773L9.7168 5.69204L9.78354 5.75878Z" fill="white"/>
<path d="M9.78354 5.75878L9.7168 5.71111L9.74063 5.67773L9.78354 5.75878Z" fill="white"/>
<path d="M9.68359 5.75878L9.75034 5.71111L9.7265 5.67773L9.68359 5.75878Z" fill="white"/>
<path d="M9.68359 5.75878L9.70743 5.67773L9.75034 5.69204L9.68359 5.75878Z" fill="white"/>
<path d="M9.17314 6.09766L9.14453 6.17394L9.18267 6.18824L9.17314 6.09766Z" fill="white"/>
<path d="M9.17337 6.09766L9.19721 6.17394L9.1543 6.18824L9.17337 6.09766Z" fill="white"/>
<path d="M9.24902 6.1543H9.16797V6.1972L9.24902 6.1543Z" fill="white"/>
<path d="M9.24879 6.1543L9.18204 6.20197L9.1582 6.1686L9.24879 6.1543Z" fill="white"/>
<path d="M9.0918 6.1543L9.15854 6.20197L9.18238 6.1686L9.0918 6.1543Z" fill="white"/>
<path d="M9.0918 6.1543H9.17761V6.1972L9.0918 6.1543Z" fill="white"/>
<path d="M9.22104 6.24999L9.19721 6.16895L9.1543 6.18325L9.22104 6.24999Z" fill="white"/>
<path d="M9.22093 6.24988L9.14941 6.19744L9.17802 6.16406L9.22093 6.24988Z" fill="white"/>
<path d="M9.12109 6.24988L9.18784 6.19744L9.164 6.16406L9.12109 6.24988Z" fill="white"/>
<path d="M9.12109 6.24999L9.1497 6.16895L9.18784 6.18325L9.12109 6.24999Z" fill="white"/>
<path d="M9.16848 6.35059L9.14941 6.41256L9.17802 6.4221L9.16848 6.35059Z" fill="white"/>
<path d="M9.1686 6.35059L9.18767 6.41256L9.1543 6.4221L9.1686 6.35059Z" fill="white"/>
<path d="M9.23081 6.39844H9.16406V6.42705L9.23081 6.39844Z" fill="white"/>
<path d="M9.23058 6.39844L9.17814 6.43658L9.1543 6.40797L9.23058 6.39844Z" fill="white"/>
<path d="M9.10645 6.39844L9.15889 6.43658L9.17796 6.40797L9.10645 6.39844Z" fill="white"/>
<path d="M9.10645 6.39844H9.17319V6.42705L9.10645 6.39844Z" fill="white"/>
<path d="M9.20674 6.4692L9.18767 6.40723L9.1543 6.41676L9.20674 6.4692Z" fill="white"/>
<path d="M9.20663 6.46909L9.14941 6.43095L9.17325 6.40234L9.20663 6.46909Z" fill="white"/>
<path d="M9.12988 6.46909L9.18233 6.43095L9.16326 6.40234L9.12988 6.46909Z" fill="white"/>
<path d="M9.12988 6.4692L9.14895 6.40723L9.18233 6.41676L9.12988 6.4692Z" fill="white"/>
<path d="M9.40188 5.93066L9.38281 5.99264L9.41142 6.00217L9.40188 5.93066Z" fill="white"/>
<path d="M9.40211 5.93066L9.42118 5.99264L9.39258 6.00217L9.40211 5.93066Z" fill="white"/>
<path d="M9.46323 5.97363H9.39648V6.00701L9.46323 5.97363Z" fill="white"/>
<path d="M9.46409 5.97363L9.41165 6.01654L9.39258 5.98793L9.46409 5.97363Z" fill="white"/>
<path d="M9.33984 5.97363L9.39229 6.01654L9.41136 5.98793L9.33984 5.97363Z" fill="white"/>
<path d="M9.33984 5.97363H9.40659V6.00701L9.33984 5.97363Z" fill="white"/>
<path d="M9.44014 6.05026L9.42107 5.98828L9.3877 5.99782L9.44014 6.05026Z" fill="white"/>
<path d="M9.44014 6.05014L9.3877 6.012L9.41153 5.9834L9.44014 6.05014Z" fill="white"/>
<path d="M9.36426 6.05014L9.4167 6.012L9.39763 5.9834L9.36426 6.05014Z" fill="white"/>
<path d="M9.36426 6.05026L9.38333 5.98828L9.4167 5.99782L9.36426 6.05026Z" fill="white"/>
<path d="M9.58829 5.79688L9.56445 5.87315L9.60259 5.88746L9.58829 5.79688Z" fill="white"/>
<path d="M9.58754 5.79688L9.61615 5.87315L9.57324 5.88746L9.58754 5.79688Z" fill="white"/>
<path d="M9.66882 5.85449H9.58301V5.89263L9.66882 5.85449Z" fill="white"/>
<path d="M9.66871 5.85449L9.60196 5.90217L9.57812 5.86879L9.66871 5.85449Z" fill="white"/>
<path d="M9.51172 5.85449L9.57846 5.90217L9.6023 5.86879L9.51172 5.85449Z" fill="white"/>
<path d="M9.51172 5.85449H9.59277V5.89263L9.51172 5.85449Z" fill="white"/>
<path d="M9.63999 5.94542L9.61615 5.86914L9.57324 5.87868L9.63999 5.94542Z" fill="white"/>
<path d="M9.63999 5.94531L9.57324 5.89763L9.59708 5.86426L9.63999 5.94531Z" fill="white"/>
<path d="M9.54004 5.94531L9.61155 5.89763L9.58295 5.86426L9.54004 5.94531Z" fill="white"/>
<path d="M9.54004 5.94542L9.56865 5.86914L9.60679 5.87868L9.54004 5.94542Z" fill="white"/>
<path d="M9.15872 5.88281L9.13965 5.94956L9.17302 5.9591L9.15872 5.88281Z" fill="white"/>
<path d="M9.15895 5.88281L9.18279 5.94956L9.14941 5.9591L9.15895 5.88281Z" fill="white"/>
<path d="M9.22495 5.93066H9.1582V5.96404L9.22495 5.93066Z" fill="white"/>
<path d="M9.2257 5.93066L9.17325 5.9688L9.14941 5.94497L9.2257 5.93066Z" fill="white"/>
<path d="M9.09668 5.93066L9.14912 5.9688L9.17296 5.94497L9.09668 5.93066Z" fill="white"/>
<path d="M9.09668 5.93066H9.16343V5.96404L9.09668 5.93066Z" fill="white"/>
<path d="M9.20186 6.00718L9.18279 5.94043L9.14941 5.95473L9.20186 6.00718Z" fill="white"/>
<path d="M9.20174 6.00718L9.14453 5.96427L9.1636 5.94043L9.20174 6.00718Z" fill="white"/>
<path d="M9.12109 6.00718L9.17831 5.96427L9.15447 5.94043L9.12109 6.00718Z" fill="white"/>
<path d="M9.12109 6.00718L9.14493 5.94043L9.17831 5.95473L9.12109 6.00718Z" fill="white"/>
<path d="M7.11368 4.67676L7.08984 4.75781L7.12798 4.76734L7.11368 4.67676Z" fill="white"/>
<path d="M7.11391 4.67676L7.13775 4.75781L7.09961 4.76734L7.11391 4.67676Z" fill="white"/>
<path d="M7.19422 4.73438H7.1084V4.77728L7.19422 4.73438Z" fill="white"/>
<path d="M7.1941 4.73438L7.12735 4.78682L7.10352 4.75345L7.1941 4.73438Z" fill="white"/>
<path d="M7.03223 4.73438L7.10374 4.78682L7.12758 4.75345L7.03223 4.73438Z" fill="white"/>
<path d="M7.03223 4.73438H7.11804V4.77728L7.03223 4.73438Z" fill="white"/>
<path d="M7.16159 4.8291L7.13775 4.74805L7.09961 4.76235L7.16159 4.8291Z" fill="white"/>
<path d="M7.16147 4.8291L7.09473 4.78142L7.11856 4.74805L7.16147 4.8291Z" fill="white"/>
<path d="M7.06543 4.8291L7.13218 4.78142L7.10834 4.74805L7.06543 4.8291Z" fill="white"/>
<path d="M7.06543 4.8291L7.08927 4.74805L7.12741 4.76235L7.06543 4.8291Z" fill="white"/>
<path d="M8.63442 4.48145L8.62012 4.54342L8.64872 4.55296L8.63442 4.48145Z" fill="white"/>
<path d="M8.63454 4.48145L8.65837 4.54342L8.625 4.55296L8.63454 4.48145Z" fill="white"/>
<path d="M8.70054 4.5293H8.63379V4.56267L8.70054 4.5293Z" fill="white"/>
<path d="M8.7014 4.5293L8.64895 4.56744L8.62988 4.53883L8.7014 4.5293Z" fill="white"/>
<path d="M8.57227 4.5293L8.62948 4.56744L8.64855 4.53883L8.57227 4.5293Z" fill="white"/>
<path d="M8.57227 4.5293H8.64378V4.56267L8.57227 4.5293Z" fill="white"/>
<path d="M8.67744 4.60483L8.65361 4.53809L8.625 4.54762L8.67744 4.60483Z" fill="white"/>
<path d="M8.67744 4.60569L8.625 4.56279L8.64407 4.53418L8.67744 4.60569Z" fill="white"/>
<path d="M8.5957 4.60569L8.65291 4.56279L8.63384 4.53418L8.5957 4.60569Z" fill="white"/>
<path d="M8.5957 4.60483L8.61954 4.53809L8.64815 4.54762L8.5957 4.60483Z" fill="white"/>
<path d="M8.00028 5.61621L7.97168 5.7068L8.01936 5.72587L8.00028 5.61621Z" fill="white"/>
<path d="M7.99965 5.61621L8.03303 5.7068L7.98535 5.72587L7.99965 5.61621Z" fill="white"/>
<path d="M8.09535 5.68262H8V5.73506L8.09535 5.68262Z" fill="white"/>
<path d="M8.0961 5.68262L8.01982 5.73983L7.99121 5.70169L8.0961 5.68262Z" fill="white"/>
<path d="M7.91016 5.68262L7.99121 5.73983L8.01981 5.70169L7.91016 5.68262Z" fill="white"/>
<path d="M7.91016 5.68262H8.00551V5.73506L7.91016 5.68262Z" fill="white"/>
<path d="M8.06249 5.7975L8.02912 5.70215L7.98145 5.71645L8.06249 5.7975Z" fill="white"/>
<path d="M8.06249 5.79739L7.98145 5.73541L8.01005 5.69727L8.06249 5.79739Z" fill="white"/>
<path d="M7.94238 5.79739L8.02343 5.73541L7.99483 5.69727L7.94238 5.79739Z" fill="white"/>
<path d="M7.94238 5.7975L7.97576 5.70215L8.02343 5.71645L7.94238 5.7975Z" fill="white"/>
<path d="M8.27188 5.16797L8.24805 5.24425L8.28619 5.25855L8.27188 5.16797Z" fill="white"/>
<path d="M8.27211 5.16797L8.30072 5.24425L8.25781 5.25855L8.27211 5.16797Z" fill="white"/>
<path d="M8.35339 5.22559H8.26758V5.26373L8.35339 5.22559Z" fill="white"/>
<path d="M8.35316 5.22559L8.28165 5.27326L8.25781 5.23989L8.35316 5.22559Z" fill="white"/>
<path d="M8.19531 5.22559L8.26206 5.27326L8.2859 5.23989L8.19531 5.22559Z" fill="white"/>
<path d="M8.19531 5.22559H8.27636V5.26373L8.19531 5.22559Z" fill="white"/>
<path d="M8.31979 5.31554L8.29595 5.23926L8.25781 5.25356L8.31979 5.31554Z" fill="white"/>
<path d="M8.31968 5.31542L8.25293 5.26775L8.27677 5.23438L8.31968 5.31542Z" fill="white"/>
<path d="M8.22363 5.31542L8.29038 5.26775L8.26654 5.23438L8.22363 5.31542Z" fill="white"/>
<path d="M8.22363 5.31554L8.24747 5.23926L8.29038 5.25356L8.22363 5.31554Z" fill="white"/>
<path d="M8.0004 4.95801L7.97656 5.03429L8.0147 5.04859L8.0004 4.95801Z" fill="white"/>
<path d="M8.00075 4.95801L8.02935 5.03429L7.99121 5.04859L8.00075 4.95801Z" fill="white"/>
<path d="M8.08105 5.01562H8V5.05853L8.08105 5.01562Z" fill="white"/>
<path d="M8.0818 5.01562L8.01505 5.0633L7.99121 5.02993L8.0818 5.01562Z" fill="white"/>
<path d="M7.92383 5.01562L7.99057 5.0633L8.01441 5.02993L7.92383 5.01562Z" fill="white"/>
<path d="M7.92383 5.01562H8.00488V5.05853L7.92383 5.01562Z" fill="white"/>
<path d="M8.0521 5.10558L8.02826 5.0293L7.98535 5.03883L8.0521 5.10558Z" fill="white"/>
<path d="M8.0521 5.10644L7.98535 5.05876L8.00919 5.02539L8.0521 5.10644Z" fill="white"/>
<path d="M7.95312 5.10644L8.01987 5.05876L7.99603 5.02539L7.95312 5.10644Z" fill="white"/>
<path d="M7.95312 5.10558L7.98173 5.0293L8.01987 5.03883L7.95312 5.10558Z" fill="white"/>
<path d="M7.76614 5.18262L7.74707 5.24936L7.78044 5.2589L7.76614 5.18262Z" fill="white"/>
<path d="M7.76637 5.18262L7.79021 5.24936L7.75684 5.2589L7.76637 5.18262Z" fill="white"/>
<path d="M7.82858 5.22949H7.7666V5.26287L7.82858 5.22949Z" fill="white"/>
<path d="M7.82835 5.22949L7.77591 5.26763L7.75684 5.23903L7.82835 5.22949Z" fill="white"/>
<path d="M7.7041 5.22949L7.75654 5.26763L7.77562 5.23903L7.7041 5.22949Z" fill="white"/>
<path d="M7.7041 5.22949H7.77085V5.26287L7.7041 5.22949Z" fill="white"/>
<path d="M7.8044 5.306L7.78533 5.23926L7.75195 5.24879L7.8044 5.306Z" fill="white"/>
<path d="M7.8044 5.306L7.75195 5.2631L7.77579 5.23926L7.8044 5.306Z" fill="white"/>
<path d="M7.72852 5.306L7.78096 5.2631L7.76189 5.23926L7.72852 5.306Z" fill="white"/>
<path d="M7.72852 5.306L7.75235 5.23926L7.78096 5.24879L7.72852 5.306Z" fill="white"/>
<path d="M7.88637 5.36328L7.87207 5.41096L7.89591 5.41572L7.88637 5.36328Z" fill="white"/>
<path d="M7.88551 5.36328L7.89982 5.41096L7.87598 5.41572L7.88551 5.36328Z" fill="white"/>
<path d="M7.92854 5.39648H7.88086V5.42032L7.92854 5.39648Z" fill="white"/>
<path d="M7.92854 5.39648L7.89516 5.42509L7.88086 5.40602L7.92854 5.39648Z" fill="white"/>
<path d="M7.83789 5.39648L7.8808 5.42509L7.8951 5.40602L7.83789 5.39648Z" fill="white"/>
<path d="M7.83789 5.39648H7.88557V5.42032L7.83789 5.39648Z" fill="white"/>
<path d="M7.90935 5.44916L7.89982 5.40625L7.87598 5.41102L7.90935 5.44916Z" fill="white"/>
<path d="M7.91021 5.44904L7.87207 5.4252L7.89114 5.40137L7.91021 5.44904Z" fill="white"/>
<path d="M7.85742 5.44904L7.89556 5.4252L7.88126 5.40137L7.85742 5.44904Z" fill="white"/>
<path d="M7.85742 5.44916L7.87172 5.40625L7.89556 5.41102L7.85742 5.44916Z" fill="white"/>
<path d="M8.7006 6.1543L8.67676 6.23534L8.7149 6.24488L8.7006 6.1543Z" fill="white"/>
<path d="M8.70083 6.1543L8.72943 6.23534L8.68652 6.24488L8.70083 6.1543Z" fill="white"/>
<path d="M8.78211 6.21191H8.69629V6.25482L8.78211 6.21191Z" fill="white"/>
<path d="M8.78188 6.21191L8.71036 6.25959L8.68652 6.22622L8.78188 6.21191Z" fill="white"/>
<path d="M8.625 6.21191L8.68698 6.25959L8.71558 6.22622L8.625 6.21191Z" fill="white"/>
<path d="M8.625 6.21191H8.70605V6.25482L8.625 6.21191Z" fill="white"/>
<path d="M8.7485 6.30761L8.72466 6.22656L8.68652 6.24086L8.7485 6.30761Z" fill="white"/>
<path d="M8.74839 6.3075L8.68164 6.25505L8.70548 6.22168L8.74839 6.3075Z" fill="white"/>
<path d="M8.65332 6.3075L8.72007 6.25505L8.69623 6.22168L8.65332 6.3075Z" fill="white"/>
<path d="M8.65332 6.30761L8.67716 6.22656L8.7153 6.24086L8.65332 6.30761Z" fill="white"/>
<path d="M8.90188 5.96387L8.88281 6.02584L8.91142 6.04015L8.90188 5.96387Z" fill="white"/>
<path d="M8.90102 5.96387L8.92009 6.02584L8.88672 6.04015L8.90102 5.96387Z" fill="white"/>
<path d="M8.96323 6.01172H8.89648V6.04509L8.96323 6.01172Z" fill="white"/>
<path d="M8.96312 6.01172L8.91067 6.04986L8.8916 6.02125L8.96312 6.01172Z" fill="white"/>
<path d="M8.83398 6.01172L8.8912 6.04986L8.91027 6.02125L8.83398 6.01172Z" fill="white"/>
<path d="M8.83398 6.01172H8.9055V6.04509L8.83398 6.01172Z" fill="white"/>
<path d="M8.93916 6.08347L8.92009 6.02148L8.88672 6.03102L8.93916 6.08347Z" fill="white"/>
<path d="M8.93916 6.08335L8.88672 6.04521L8.90579 6.0166L8.93916 6.08335Z" fill="white"/>
<path d="M8.86328 6.08335L8.91572 6.04521L8.89666 6.0166L8.86328 6.08335Z" fill="white"/>
<path d="M8.86328 6.08347L8.88235 6.02148L8.91572 6.03102L8.86328 6.08347Z" fill="white"/>
<path d="M8.51516 5.90723L8.49609 5.9692L8.52947 5.98351L8.51516 5.90723Z" fill="white"/>
<path d="M8.51539 5.90723L8.53923 5.9692L8.50586 5.98351L8.51539 5.90723Z" fill="white"/>
<path d="M8.5814 5.9541H8.51465V5.98747L8.5814 5.9541Z" fill="white"/>
<path d="M8.58214 5.9541L8.52493 5.99224L8.50586 5.96364L8.58214 5.9541Z" fill="white"/>
<path d="M8.45312 5.9541L8.50557 5.99224L8.52464 5.96364L8.45312 5.9541Z" fill="white"/>
<path d="M8.45312 5.9541H8.51987V5.98747L8.45312 5.9541Z" fill="white"/>
<path d="M8.5583 6.02584L8.53447 5.96387L8.50586 5.9734L8.5583 6.02584Z" fill="white"/>
<path d="M8.55819 6.02584L8.50098 5.9877L8.52005 5.96387L8.55819 6.02584Z" fill="white"/>
<path d="M8.47656 6.02584L8.52901 5.9877L8.50994 5.96387L8.47656 6.02584Z" fill="white"/>
<path d="M8.47656 6.02584L8.49563 5.96387L8.52901 5.9734L8.47656 6.02584Z" fill="white"/>
<path d="M7.06571 5.80176L7.03711 5.89711L7.08002 5.91618L7.06571 5.80176Z" fill="white"/>
<path d="M7.06606 5.80176L7.09467 5.89711L7.05176 5.91618L7.06606 5.80176Z" fill="white"/>
<path d="M7.16164 5.87305H7.06152V5.92549L7.16164 5.87305Z" fill="white"/>
<path d="M7.16141 5.87305L7.08036 5.93026L7.05176 5.89212L7.16141 5.87305Z" fill="white"/>
<path d="M6.9707 5.87305L7.05175 5.93026L7.08036 5.89212L6.9707 5.87305Z" fill="white"/>
<path d="M6.9707 5.87305H7.07082V5.92549L6.9707 5.87305Z" fill="white"/>
<path d="M7.12316 5.98316L7.09455 5.89258L7.04688 5.90688L7.12316 5.98316Z" fill="white"/>
<path d="M7.12304 5.98305L7.04199 5.92584L7.0706 5.8877L7.12304 5.98305Z" fill="white"/>
<path d="M7.00879 5.98305L7.08984 5.92584L7.05647 5.8877L7.00879 5.98305Z" fill="white"/>
<path d="M7.00879 5.98316L7.03739 5.89258L7.08507 5.90688L7.00879 5.98316Z" fill="white"/>
<path d="M8.00075 6.45996L7.99121 6.48857L8.00551 6.49333L8.00075 6.45996Z" fill="white"/>
<path d="M8 6.45996L8.0143 6.48857L8 6.49333V6.45996Z" fill="white"/>
<path d="M8.03337 6.4834H8V6.4977L8.03337 6.4834Z" fill="white"/>
<path d="M8.03337 6.4834L8.00477 6.50247L8 6.48817L8.03337 6.4834Z" fill="white"/>
<path d="M7.97168 6.4834L8.00028 6.50247L8.00505 6.48817L7.97168 6.4834Z" fill="white"/>
<path d="M7.97168 6.4834H8.00505V6.4977L7.97168 6.4834Z" fill="white"/>
<path d="M8.01896 6.51689L8.01419 6.48828L7.99512 6.49305L8.01896 6.51689Z" fill="white"/>
<path d="M8.01896 6.51689L7.99512 6.49781L8.00465 6.48828L8.01896 6.51689Z" fill="white"/>
<path d="M7.98145 6.51689L8.01005 6.49781L8.00052 6.48828L7.98145 6.51689Z" fill="white"/>
<path d="M7.98145 6.51689L7.99575 6.48828L8.01005 6.49305L7.98145 6.51689Z" fill="white"/>
</svg>
