<?xml version="1.0" encoding="UTF-8"?>
<svg width="30px" height="30px" viewBox="0 0 30 30" version="1.1" xmlns="http://www.w3.org/2000/svg" xmlns:xlink="http://www.w3.org/1999/xlink">
    <title>Centro_de_ayuda_30x30</title>
    <g id="Centro_de_ayuda_30x30" stroke="none" stroke-width="1" fill="none" fill-rule="evenodd">
        <g transform="translate(0.500000, 0.500000)">
            <path d="M14.5,0 C22.5081289,0 29,6.49187113 29,14.5 C29,22.5081289 22.5081289,29 14.5,29 C12.9404486,29 11.4384028,28.7537892 10.0306122,28.2981171 L2.53380203,28.2979014 C1.42923253,28.2979014 0.533802032,27.4024709 0.533802032,26.2979014 L0.533802032,26.2979014 L0.533451043,18.4105722 C0.18585074,17.1665233 0,15.8549656 0,14.5 C0,6.49187113 6.49187113,0 14.5,0 Z" id="Combined-Shape" stroke="#424242" fill="#FF8300"></path>
            <path d="M15.75,17.0771667 L13.481125,17.0771667 C13.4879306,16.5099722 13.5421806,16.0343611 13.643875,15.6501389 C13.7456667,15.2598889 13.9152222,14.9061944 14.1526389,14.5890556 C14.3967639,14.2720139 14.7189583,13.9365972 15.1192222,13.5829028 C15.4312083,13.3145694 15.7126667,13.0615 15.9636944,12.8236944 C16.214625,12.5797639 16.4147083,12.3235833 16.5639444,12.05525 C16.7131806,11.7808889 16.78775,11.4668611 16.78775,11.1131667 C16.78775,10.7289444 16.7165833,10.4026667 16.5741528,10.1343333 C16.4317222,9.866 16.2214306,9.66173611 15.9432778,9.52154167 C15.6720278,9.38125 15.3328194,9.31115278 14.9258472,9.31115278 C14.5867361,9.31115278 14.2679444,9.37211111 13.9694722,9.49402778 C13.671,9.60991667 13.4302778,9.79288889 13.2471111,10.0428472 C13.0639444,10.2867778 12.9655556,10.6100417 12.9520417,11.0125417 L10.5,11.0125417 C10.5136111,10.2440972 10.7170972,9.59776389 11.1104583,9.07325 C11.5039167,8.54883333 12.0329028,8.15547222 12.6977083,7.89326389 C13.3624167,7.63105556 14.1050972,7.5 14.9258472,7.5 C15.8347778,7.5 16.6113889,7.64019444 17.2557778,7.92068056 C17.9001667,8.19513889 18.3919167,8.59763889 18.731125,9.12818056 C19.0770417,9.65259722 19.25,10.2867778 19.25,11.0308194 C19.25,11.5673889 19.1312917,12.05525 18.893875,12.4944028 C18.6564583,12.9273333 18.347875,13.3328472 17.9680278,13.7109444 C17.5881806,14.0829167 17.1778056,14.4548889 16.7369028,14.8268611 C16.3570556,15.137875 16.0993194,15.4764028 15.9636944,15.84225 C15.8279722,16.2020694 15.7568056,16.6137083 15.75,17.0771667 Z M13.2776389,19.9310278 C13.2776389,19.6017361 13.4030556,19.3242639 13.6540833,19.0987083 C13.9050139,18.8669306 14.247625,18.7510417 14.6817222,18.7510417 C15.1158194,18.7510417 15.4583333,18.8669306 15.7092639,19.0987083 C15.9602917,19.3242639 16.0857083,19.6017361 16.0857083,19.9310278 C16.0857083,20.2604167 15.9602917,20.5409028 15.7092639,20.7725833 C15.4583333,20.9982361 15.1158194,21.1111111 14.6817222,21.1111111 C14.247625,21.1111111 13.9050139,20.9982361 13.6540833,20.7725833 C13.4030556,20.5409028 13.2776389,20.2604167 13.2776389,19.9310278 Z" id="?" fill="#FFFFFF" fill-rule="nonzero"></path>
        </g>
    </g>
</svg>