<svg width="16" height="10" viewBox="0 0 16 10" fill="none" xmlns="http://www.w3.org/2000/svg">
<path d="M16 0H0V9.33492H16V0Z" fill="white"/>
<path d="M4.66746 0H0V9.33492H4.66746V0Z" fill="#2530A9"/>
<path d="M16 4.66699H0V9.33445H16V4.66699Z" fill="#C22623"/>
<path d="M2.33597 1.16797L1.97363 2.27405L2.52667 2.45522L2.33597 1.16797Z" fill="white"/>
<path d="M2.3361 1.16797L2.69366 2.27405L2.14062 2.45522L2.3361 1.16797Z" fill="white"/>
<path d="M3.44259 1.97363H2.2793V2.55528L3.44259 1.97363Z" fill="white"/>
<path d="M3.44154 1.97363L2.49756 2.66017L2.1543 2.18341L3.44154 1.97363Z" fill="white"/>
<path d="M1.22559 1.97363L2.16957 2.66017L2.51283 2.18341L1.22559 1.97363Z" fill="white"/>
<path d="M1.22559 1.97363H2.39364V2.55528L1.22559 1.97363Z" fill="white"/>
<path d="M3.01791 3.27502L2.66035 2.16895L2.10254 2.34534L3.01791 3.27502Z" fill="white"/>
<path d="M3.01722 3.27583L2.07324 2.58929L2.41651 2.12207L3.01722 3.27583Z" fill="white"/>
<path d="M1.64941 3.27583L2.59339 2.58929L2.24536 2.12207L1.64941 3.27583Z" fill="white"/>
<path d="M1.64941 3.27502L2.00698 2.16895L2.56479 2.34534L1.64941 3.27502Z" fill="white"/>
</svg>
