<svg width="81" height="30" viewBox="0 0 81 30" fill="none" xmlns="http://www.w3.org/2000/svg">
<path d="M75.0435 2.45328L65.8837 11.6234L68.2945 14.0314L77.4542 4.8613L75.0435 2.45328Z" fill="white"/>
<path d="M61.8711 0.549988H58.4777V10.3796H61.8711V0.549988Z" fill="white"/>
<path d="M80.0067 17.8348H69.9714V21.2329H80.0067V17.8348Z" fill="white"/>
<path d="M62.6704 24.4113C61.8665 25.2526 60.8849 25.6499 59.7164 25.6499C58.5852 25.6499 57.599 25.2526 56.7997 24.4113C55.9958 23.57 55.5564 22.5837 55.5564 21.4526C55.5564 20.2467 55.9958 19.2604 56.7997 18.4565C57.599 17.6152 58.5852 17.2132 59.7164 17.2506C60.8849 17.2132 61.8665 17.6152 62.7078 18.4565C63.4744 19.2604 63.8763 20.2467 63.9137 21.4526C63.8763 22.5837 63.4743 23.57 62.6704 24.4113ZM65.3346 15.7876C63.7688 14.2171 61.8711 13.4459 59.7164 13.4459C57.5663 13.4459 55.7013 14.2171 54.1729 15.7876C52.6024 17.3581 51.8358 19.2558 51.8358 21.4479C51.8358 23.6401 52.5977 25.5378 54.1729 27.0755C55.7013 28.6507 57.5663 29.45 59.7164 29.45C61.8665 29.45 63.7641 28.6507 65.3346 27.0755C66.8678 25.5424 67.6343 23.6401 67.6343 21.4479C67.6343 19.2604 66.8678 17.3628 65.3346 15.7876Z" fill="white"/>
<path d="M9.77355 9.54297C7.0392 9.50558 4.77694 10.4544 2.87925 12.4269C0.944169 14.3666 0 16.6663 0 19.4053C0 22.107 0.948843 24.4861 2.87925 26.4212C4.77226 28.3189 7.0392 29.2724 9.77355 29.2724C11.9657 29.2724 13.9709 28.6133 15.719 27.2625C17.4344 25.8743 18.5655 24.1589 19.1498 22.0415H15.1721C14.6627 23.0652 13.9335 23.9018 13.0174 24.5609C11.9938 25.1825 10.9374 25.5144 9.76888 25.5144C8.09088 25.5144 6.66995 24.8927 5.50142 23.7242C4.30018 22.5183 3.71591 21.0974 3.74863 19.4147C3.71124 17.7367 4.30018 16.3111 5.50142 15.1052C6.66995 13.9366 8.09088 13.315 9.76888 13.315C10.9374 13.315 11.9938 13.6422 13.0174 14.3012C13.9288 14.9229 14.658 15.7969 15.1721 16.8206H19.1498C18.5655 14.7032 17.4344 12.9457 15.719 11.5996C13.9709 10.1973 11.9657 9.50558 9.77355 9.54297Z" fill="white"/>
<path d="M35.4578 21.9995L36.1869 21.6022V23.1353C36.1869 24.4487 35.8223 25.3601 35.1306 25.8743C34.4014 26.3838 33.6349 26.6408 32.7561 26.6408C32.2093 26.6408 31.7699 26.4959 31.4053 26.2062C31.0407 25.8743 30.8584 25.4022 30.8584 24.7058C30.8584 23.9392 31.1529 23.3877 31.7699 22.9857C32.1345 22.766 32.7561 22.5837 33.5601 22.4762L35.4578 21.9995ZM33.8545 13.4131C31.3025 13.3757 29.5123 14.0722 28.4933 15.423C27.839 16.2597 27.5118 17.3627 27.3996 18.7463H31.195C31.2651 18.0919 31.4894 17.6479 31.7418 17.3581C32.1438 16.8439 32.7982 16.5868 33.747 16.6242C34.551 16.5868 35.168 16.7317 35.6073 16.9888C36.042 17.2085 36.229 17.6479 36.2617 18.2695C36.2617 18.779 35.9672 19.1856 35.3876 19.438L32.4663 19.9101C31.1155 20.0971 30.0264 20.4196 29.1851 20.901C27.7642 21.7424 27.0724 23.0932 27.1098 25.033C27.0724 26.3791 27.5118 27.4775 28.3858 28.2815C29.1524 28.9405 30.2087 29.3051 31.4894 29.3425C33.5694 29.3051 35.2054 28.7909 36.3739 27.7673V29.3425H40.1693V18.162C40.1693 16.3344 39.5055 15.0584 38.2716 14.3994C36.9535 13.7076 35.4952 13.3757 33.8545 13.4131Z" fill="white"/>
<path d="M24.8803 9.54297H21.0849V29.3425H24.8803V9.54297Z" fill="white"/>
<path d="M49.0267 13.9647C48.0077 14.3666 47.0963 15.0631 46.3251 16.1194V14.1844L42.712 14.1516V29.3425H46.47V22.0742C46.47 20.8309 46.6149 19.9569 46.9467 19.4053C47.1991 18.8257 47.6759 18.349 48.2601 17.947C48.9145 17.5076 49.6063 17.288 50.3401 17.288L51.504 17.3628L51.4712 13.4879L50.485 13.5627L49.0267 13.9647Z" fill="white"/>
</svg>
