<?xml version="1.0" encoding="UTF-8"?>
<svg width="30px" height="30px" viewBox="0 0 30 30" version="1.1" xmlns="http://www.w3.org/2000/svg" xmlns:xlink="http://www.w3.org/1999/xlink">
    <title>Claro_5G_30x30</title>
    <defs>
        <polygon id="path-1" points="0 0 2.00637232 0 2.00637232 2.82162503 0 2.82162503"></polygon>
    </defs>
    <g id="Claro_5G_30x30" stroke="none" stroke-width="1" fill="none" fill-rule="evenodd">
        <g transform="translate(0.500000, 7.500000)">
            <g id="onda" stroke="#424242" stroke-linecap="square">
                <path d="M20.8800077,9.75805931 C22.0581051,8.53240184 22.0581051,6.54763946 20.8800077,5.32314199" id="Stroke-1"></path>
                <path d="M23.4379035,12.4190329 C26.0274906,9.72411767 26.0274906,5.35590043 23.4379035,2.66098519" id="Stroke-3"></path>
                <path d="M25.9957994,15.0800181 C30.0014002,10.9158451 30.0014002,4.164173 25.9957994,0" id="Stroke-5"></path>
                <path d="M8.11999234,9.75805931 C6.94073493,8.53240184 6.94073493,6.54763946 8.11999234,5.32314199" id="Stroke-7"></path>
                <path d="M5.56209647,12.4190329 C2.97134937,9.72411767 2.97134937,5.35590043 5.56209647,2.66098519" id="Stroke-9"></path>
                <path d="M3.00420061,15.0800181 C-1.0014002,10.9158451 -1.0014002,4.164173 3.00420061,0" id="Stroke-11"></path>
            </g>
            <path d="M10.9644784,11.035437 C9.01184052,9.08286693 9.01184052,5.91702307 10.9644784,3.964453 C12.9170485,2.011849 16.0828245,2.011849 18.0354624,3.964453 C19.9880325,5.91702307 19.9880325,9.08286693 18.0354624,11.035437 C16.0828245,12.9880749 12.9170485,12.9880749 10.9644784,11.035437 Z" id="Fill-4" stroke="#FF8300"></path>
            <g id="5G" transform="translate(11.000000, 4.000000)">
                <path d="M1.02513008,5.97477773 C-0.341710027,4.60798512 -0.341710027,2.39190488 1.02513008,1.02511227 C2.39192269,-0.341704089 4.60795544,-0.341704089 5.97479554,1.02511227 C7.34158815,2.39190488 7.34158815,4.60798512 5.97479554,5.97477773 C4.60795544,7.34161784 2.39192269,7.34161784 1.02513008,5.97477773 Z" id="Fill-4" fill="#FF8300"></path>
                <g id="5g" transform="translate(0.874994, 1.900000)">
                    <path d="M3.77260049,2.53494859 C3.7634902,2.5842544 3.74306426,2.62563137 3.71570715,2.66367403 C3.64731438,2.7587938 3.55432121,2.81820756 3.44224108,2.84863644 C3.33677706,2.87728002 3.23013159,2.87649238 3.1236174,2.85598768 C2.97969065,2.82828926 2.86312101,2.7558008 2.77829296,2.63576558 C2.67926128,2.49561946 2.63263342,2.33775162 2.62759257,2.16733415 C2.62562349,2.10070043 2.63478629,2.03469681 2.64954127,1.96961209 C2.67298647,1.86603839 2.71076659,1.76858197 2.77348841,1.68191612 C2.84841853,1.57836868 2.94710891,1.50989714 3.07263131,1.48272381 C3.16593953,1.46253416 3.26003538,1.46287547 3.35352738,1.48112229 C3.52793552,1.51517428 3.66025781,1.60764236 3.7436156,1.76658664 C3.78047681,1.83686973 3.85984394,1.87485988 3.93571922,1.85902846 C4.05139621,1.83490065 4.11283156,1.7147079 4.06265936,1.60764236 C4.04682794,1.57390542 4.02781974,1.54121867 4.00673743,1.51050099 C3.88452309,1.33241724 3.71872641,1.21361597 3.51184155,1.15223313 C3.38143583,1.11353411 3.24822089,1.10416128 3.11311563,1.11618581 C3.02442818,1.12406213 2.93860247,1.14393673 2.85616358,1.17754239 C2.68023269,1.24924322 2.54384096,1.36856958 2.44646331,1.5301393 C2.29673433,1.77850614 2.24241393,2.04774526 2.2849986,2.33502116 C2.30713108,2.48451384 2.35554424,2.62560511 2.43162956,2.75661469 C2.54250199,2.94756311 2.69784941,3.08757795 2.9063883,3.16439839 C3.07063597,3.22491484 3.24037082,3.24008989 3.41362376,3.21758985 C3.53279258,3.202126 3.64508275,3.16534355 3.74878772,3.10440703 C3.90872967,3.01044245 4.02747843,2.87998422 4.09450597,2.70560234 C4.12871549,2.6166261 4.14137012,2.52481438 4.12251944,2.43008842 C4.09290445,2.28106832 3.97095266,2.17969999 3.81920209,2.17836101 C3.78430996,2.17807221 3.74944409,2.17841352 3.71455196,2.17841352 C3.58795313,2.1783085 3.4613543,2.17689077 3.33478172,2.1785973 C3.26150563,2.17959497 3.20776282,2.21695502 3.17778027,2.28298489 C3.14732514,2.35003869 3.15732808,2.41451955 3.20442851,2.47138663 C3.24031831,2.51473268 3.28818012,2.53463354 3.34428582,2.5347123 C3.47991618,2.53484357 3.61554653,2.53486983 3.75120313,2.53494859 C3.75758296,2.53494859 3.76396278,2.53494859 3.77260049,2.53494859 M0.58050893,1.29594984 C0.58050893,1.29017387 0.580351403,1.28644574 0.580561439,1.28271761 C0.583029354,1.23826887 0.585077199,1.19376763 0.58822773,1.1493714 C0.592612219,1.08756848 0.59778434,1.02581808 0.610885298,0.9650916 C0.618656607,0.929018022 0.627661874,0.893128225 0.646381278,0.861097829 C0.684607718,0.795645551 0.739689499,0.752982113 0.817822663,0.752562042 C0.96571383,0.751748155 1.113605,0.754084799 1.26149616,0.755134976 C1.40875722,0.756158899 1.55599203,0.757261584 1.70325309,0.758259252 C1.72520179,0.758390524 1.74728176,0.759755755 1.76904668,0.757655401 C1.84360924,0.750461689 1.89596056,0.711106308 1.92150611,0.641295796 C1.94710418,0.571327758 1.93169283,0.507555764 1.87976158,0.453970485 C1.84366175,0.416715459 1.79797905,0.401881709 1.7466254,0.401514148 C1.43921236,0.399361285 1.13179931,0.396683334 0.824386269,0.394963685 C0.792277109,0.394793015 0.759485334,0.396499553 0.728085044,0.402748105 C0.556249843,0.436957619 0.42571285,0.530554638 0.337681768,0.681806372 C0.28456907,0.773093002 0.259706131,0.873962496 0.247051499,0.977746232 C0.238676337,1.04621777 0.233372944,1.11510937 0.228620893,1.18397473 C0.225207818,1.23349057 0.223238737,1.28326896 0.223790079,1.33288982 C0.224472694,1.39613672 0.236786019,1.45757207 0.266794825,1.51391407 C0.324712083,1.62265989 0.415184826,1.67915941 0.53931574,1.67921192 C0.59599904,1.67923817 0.64835036,1.66254036 0.698890125,1.6375724 C0.749744943,1.61244692 0.800809796,1.58745271 0.853187371,1.56581906 C0.913808835,1.54077234 0.977397048,1.52501969 1.04363696,1.52890534 C1.08538149,1.531347 1.12744108,1.53567898 1.16837172,1.54402789 C1.34522152,1.58007521 1.47888279,1.67695404 1.56392087,1.8364234 C1.64074131,1.98048142 1.66392396,2.13546128 1.64200152,2.29634839 C1.61887137,2.46595197 1.54073821,2.60722702 1.40783832,2.71534273 C1.25593023,2.8389223 1.08120704,2.88452624 0.888814623,2.84706118 C0.62241099,2.79520869 0.412795673,2.59003037 0.344140356,2.39020795 C0.31460413,2.30419846 0.220718312,2.25880457 0.133789916,2.28190846 C0.0323428242,2.30887175 -0.0239204051,2.41312807 0.00979027448,2.51244855 C0.0299799261,2.57194107 0.0567856923,2.6284931 0.0893149229,2.68215714 C0.210137779,2.88134945 0.378559905,3.02729779 0.589908013,3.12354651 C0.786579899,3.21310035 0.991679454,3.23927601 1.20426152,3.19650755 C1.54320613,3.12835107 1.82699019,2.88129694 1.94445248,2.55395679 C1.99577988,2.41084393 2.01428924,2.26368789 2.00334115,2.11222612 C1.9944409,1.98893535 1.96900036,1.86958274 1.92063972,1.75571731 C1.81840499,1.51509551 1.64874891,1.34155378 1.40497659,1.24309969 C1.30791398,1.20390183 1.20670318,1.18237321 1.10231559,1.17441812 C1.02972211,1.16887843 0.957890011,1.17171391 0.886399217,1.18557625 C0.785503468,1.20510954 0.690803762,1.24194449 0.599123316,1.28736465 C0.593531124,1.29012136 0.587807659,1.29258928 0.58050893,1.29594984" id="Fill-1" fill="#D92A1C"></path>
                    <g id="Group-5" transform="translate(0.000000, 0.394956)">
                        <mask id="mask-2" fill="white">
                            <use xlink:href="#path-1"></use>
                        </mask>
                        <g id="Clip-4"></g>
                        <path d="M0.580519432,0.900986158 C0.587791907,0.897651846 0.593541626,0.89518393 0.599107563,0.892400961 C0.690814264,0.846980809 0.785513969,0.810172107 0.886409718,0.790612562 C0.957900513,0.776776481 1.02973262,0.773914749 1.10229984,0.779454432 C1.20671368,0.787435777 1.30792449,0.808938149 1.40498709,0.848136003 C1.64875941,0.946590091 1.81841549,1.12013183 1.92065022,1.36075362 C1.96901087,1.47461905 1.9944514,1.59399792 2.00335165,1.71728869 C2.01427349,1.8687242 1.99579038,2.01588025 1.94443673,2.15899311 C1.82697444,2.48635951 1.54321663,2.73338738 1.20427202,2.80157012 C0.991689956,2.84431232 0.786590401,2.81816292 0.589892261,2.72858282 C0.378544153,2.63233411 0.210148281,2.48638577 0.0893254246,2.28719346 C0.0567699397,2.23352942 0.0299641734,2.17697739 0.00977452182,2.11751112 C-0.0239099034,2.01819064 0.0323533259,1.91393432 0.133774163,1.88697103 C0.220728814,1.86384088 0.314614632,1.90923478 0.344150858,1.99524427 C0.412779921,2.19509294 0.622395237,2.400245 0.888825125,2.45212375 C1.08119129,2.48956255 1.25591447,2.44395862 1.40784882,2.32037905 C1.54074871,2.21226333 1.61888188,2.07098828 1.64198577,1.90138471 C1.66390821,1.7404976 1.64072556,1.58554399 1.56390511,1.44145972 C1.47886704,1.2820166 1.34523202,1.18513778 1.16838223,1.1490642 C1.12745158,1.1407153 1.08539199,1.13638332 1.04362121,1.13394166 C0.97740755,1.130056 0.913819336,1.14580866 0.853197873,1.17085538 C0.800794044,1.19248902 0.74972919,1.21750949 0.698874372,1.24263497 C0.648360862,1.26757667 0.596009541,1.28427448 0.539299987,1.28424823 C0.415195328,1.28422198 0.324722585,1.2276962 0.266779072,1.11897663 C0.236770266,1.06263464 0.224456942,1.00117304 0.223774327,0.937926131 C0.223249238,0.888305271 0.22521832,0.838553139 0.228631395,0.789011042 C0.233383446,0.720171944 0.238686839,0.651254082 0.247035746,0.582782546 C0.259716632,0.478998811 0.284553317,0.378129316 0.33769227,0.286842686 C0.425723351,0.135617207 0.556260344,0.0419939337 0.728095545,0.00778442001 C0.759469581,0.00153586724 0.792261356,-0.000170670275 0.82439677,0 C1.13180981,0.00174590263 1.43922286,0.00439759939 1.7466359,0.00655046211 C1.79798955,0.00691802404 1.84364599,0.0217517732 1.87977208,0.0590330544 C1.93167708,0.112618333 1.94711468,0.176390327 1.92151661,0.246332111 C1.89594481,0.316142623 1.84359349,0.355498003 1.76903092,0.362691715 C1.74729226,0.364792069 1.72518604,0.363453093 1.70323734,0.363295567 C1.55600253,0.362324153 1.40874147,0.361221467 1.26150667,0.360171291 C1.1136155,0.359121114 0.965698077,0.356810724 0.817833164,0.357598357 C0.739673746,0.358018428 0.684591966,0.400681866 0.646365525,0.466134143 C0.627646122,0.49816454 0.618640854,0.534080591 0.610869545,0.570127914 C0.597768588,0.63088065 0.592596466,0.692604799 0.588211978,0.754407712 C0.585061447,0.798803942 0.583039856,0.843305189 0.580545686,0.887753928 C0.580335651,0.891482056 0.580519432,0.895236439 0.580519432,0.900986158" id="Fill-3" fill="#FFFFFF" mask="url(#mask-2)"></path>
                    </g>
                    <path d="M3.77260049,2.53494859 C3.76396278,2.53494859 3.75758296,2.53494859 3.75120313,2.53494859 C3.61554653,2.53486983 3.47991618,2.53484357 3.34428582,2.5347123 C3.28818012,2.53463354 3.24031831,2.51473268 3.20442851,2.47138663 C3.15732808,2.41451955 3.14732514,2.35003869 3.17778027,2.28298489 C3.20776282,2.21695502 3.26150563,2.17959497 3.33478172,2.1785973 C3.4613543,2.17689077 3.58795313,2.1783085 3.71455196,2.17841352 C3.74944409,2.17841352 3.78430996,2.17807221 3.81920209,2.17836101 C3.97095266,2.17969999 4.09290445,2.28106832 4.12251944,2.43008842 C4.14137012,2.52481438 4.12871549,2.6166261 4.09450597,2.70560234 C4.02747843,2.87998422 3.90872967,3.01044245 3.74878772,3.10440703 C3.64508275,3.16534355 3.53279258,3.202126 3.41362376,3.21758985 C3.24037082,3.24008989 3.07063597,3.22491484 2.9063883,3.16439839 C2.69784941,3.08757795 2.54250199,2.94756311 2.43162956,2.75661469 C2.35554424,2.62560511 2.30713108,2.48451384 2.2849986,2.33502116 C2.24241393,2.04774526 2.29673433,1.77850614 2.44646331,1.5301393 C2.54384096,1.36856958 2.68023269,1.24924322 2.85616358,1.17754239 C2.93860247,1.14393673 3.02442818,1.12406213 3.11311563,1.11618581 C3.24822089,1.10416128 3.38143583,1.11353411 3.51184155,1.15223313 C3.71872641,1.21361597 3.88452309,1.33241724 4.00673743,1.51050099 C4.02781974,1.54121867 4.04682794,1.57390542 4.06265936,1.60764236 C4.11283156,1.7147079 4.05139621,1.83490065 3.93571922,1.85902846 C3.85984394,1.87485988 3.78047681,1.83686973 3.7436156,1.76658664 C3.66025781,1.60764236 3.52793552,1.51517428 3.35352738,1.48112229 C3.26003538,1.46287547 3.16593953,1.46253416 3.07263131,1.48272381 C2.94710891,1.50989714 2.84841853,1.57836868 2.77348841,1.68191612 C2.71076659,1.76858197 2.67298647,1.86603839 2.64954127,1.96961209 C2.63478629,2.03469681 2.62562349,2.10070043 2.62759257,2.16733415 C2.63263342,2.33775162 2.67926128,2.49561946 2.77829296,2.63576558 C2.86312101,2.7558008 2.97969065,2.82828926 3.1236174,2.85598768 C3.23013159,2.87649238 3.33677706,2.87728002 3.44224108,2.84863644 C3.55432121,2.81820756 3.64731438,2.7587938 3.71570715,2.66367403 C3.74306426,2.62563137 3.7634902,2.5842544 3.77260049,2.53494859" id="Fill-6" fill="#FFFFFF"></path>
                    <path d="M3.74039156,0 C3.65033889,0 3.57735159,0.072987297 3.57735159,0.163039969 L3.57735159,0.647749134 C3.57735159,0.737801806 3.65033889,0.810789103 3.74039156,0.810789103 C3.83044423,0.810789103 3.90343153,0.737801806 3.90343153,0.647749134 L3.90343153,0.163039969 C3.90343153,0.072987297 3.83044423,0 3.74039156,0" id="Fill-8" fill="#FFFFFF"></path>
                    <path d="M4.83040026,1 C4.74034758,1 4.66736029,1.0729873 4.66736029,1.16303997 L4.66736029,1.64774913 C4.66736029,1.73780181 4.74034758,1.8107891 4.83040026,1.8107891 C4.92045293,1.8107891 4.99344023,1.73780181 4.99344023,1.64774913 L4.99344023,1.16303997 C4.99344023,1.0729873 4.92045293,1 4.83040026,1" id="Fill-8" fill="#FFFFFF" transform="translate(4.830400, 1.405395) rotate(-270.000000) translate(-4.830400, -1.405395) "></path>
                    <path d="M4.95891448,0.242296822 C4.89493245,0.178944899 4.79170006,0.179469987 4.72834814,0.243452017 L4.22804385,0.743913835 C4.16469192,0.807895865 4.16521701,0.911128258 4.22919904,0.974453927 C4.29318107,1.03780585 4.39641346,1.03728076 4.45976539,0.973298732 L4.96006968,0.472863169 C5.0234216,0.408881139 5.02289651,0.305648746 4.95891448,0.242296822" id="Fill-13" fill="#FFFFFF"></path>
                </g>
            </g>
        </g>
    </g>
</svg>