<?xml version="1.0" encoding="UTF-8"?>
<svg width="30px" height="30px" viewBox="0 0 30 30" version="1.1" xmlns="http://www.w3.org/2000/svg" xmlns:xlink="http://www.w3.org/1999/xlink">
    <title>Contactanos_30x30</title>
    <defs>
        <circle id="path-1" cx="12.6315604" cy="12.6315604" r="12.6315604"></circle>
    </defs>
    <g id="Contactanos_30x30" stroke="none" stroke-width="1" fill="none" fill-rule="evenodd">
        <g>
            <path d="M0,15.0000173 C0,23.2578078 6.71602476,30 14.9999827,30 C23.2577732,30 29.9999654,23.2578078 29.9999654,15.0000173 C29.9999654,6.71602933 23.2577732,0 14.9999827,0 C6.71602476,0 0,6.71602933 0,15.0000173 Z M1.20194111,15.0000173 C1.20194111,7.39552855 7.39532898,1.20213319 14.9998327,1.20213319 C22.6043739,1.20213319 28.7977168,7.39552855 28.7977168,15.0000173 C28.7977168,22.6045585 22.6043739,28.7979014 14.9998327,28.7979014 C7.39532898,28.7979014 1.20194111,22.6045585 1.20194111,15.0000173 Z" id="Shape" fill="#424242"></path>
            <g id="Clipped" transform="translate(2.368422, 2.368457)">
                <mask id="mask-2" fill="white">
                    <use xlink:href="#path-1"></use>
                </mask>
                <g id="Oval_2"></g>
                <g id="ico-solicitar-servicio" mask="url(#mask-2)">
                    <g transform="translate(4.000000, 4.000000)">
                        <path d="M14.3912294,12.1399577 L14.3912294,8.12007398 C15.5167969,8.12007398 16.4012169,9.00449401 16.4012169,10.1300615 C16.4012169,11.1751856 15.5167969,12.1399577 14.3912294,12.1399577 Z" id="Fill-15" fill="#FF8300" fill-rule="nonzero"></path>
                        <path d="M13.9093906,12.5420829 L14.3909558,12.5420829 C15.7584915,12.5420829 16.884059,11.4968675 16.884059,10.0497094 C16.884059,8.68299451 15.7584915,7.55742706 14.3909558,7.55742706 L13.9093906,7.55742706 L13.9093906,12.5420829 Z M14.8740715,11.5773108 L14.8740715,8.60264244 C15.43608,8.76343779 15.9192869,9.40661919 15.9988181,10.1301527 C15.9988181,10.7733341 15.5172529,11.4165155 14.8740715,11.5773108 Z" id="Fill-17" fill="#424242" fill-rule="evenodd"></path>
                        <path d="M2.49255594,11.97898 L2.49255594,7.95909622 C1.36698849,7.95909622 0.482568462,8.84351624 0.482568462,9.9690837 C0.482568462,11.0945599 1.36698849,11.97898 2.49255594,11.97898 Z" id="Fill-19" fill="#FF8300" fill-rule="nonzero"></path>
                        <path d="M2.49228232,12.3810139 L2.97466838,12.3810139 L2.97466838,7.3964493 L2.49228232,7.3964493 C1.12547625,7.3964493 0,8.52201675 0,9.88873162 C0,11.2555377 1.12547625,12.3810139 2.49228232,12.3810139 Z M0.884511234,9.9690837 C0.884511234,9.24555022 1.36689728,8.60236882 2.01007869,8.44157347 L2.01007869,11.4966851 C1.36689728,11.2554465 0.884511234,10.6927084 0.884511234,9.9690837 Z" id="Fill-21" fill="#424242" fill-rule="evenodd"></path>
                        <path d="M8.84401788,16.8837398 L7.95968905,16.8837398 C7.31650765,16.8837398 6.8341216,16.4006241 6.8341216,15.7581723 C6.8341216,15.1150821 7.31650765,14.6318752 7.95968905,14.6318752 L8.84401788,14.6318752 C9.48719928,14.6318752 9.96958533,15.1150821 9.96958533,15.7581723 C9.96958533,16.4006241 9.48719928,16.8837398 8.84401788,16.8837398 Z" id="Fill-23" fill="#FF8300" fill-rule="nonzero"></path>
                        <path d="M7.95941544,17.3658522 L8.84374426,17.3658522 C9.72816429,17.3658522 10.4525186,16.6414979 10.4525186,15.7578987 C10.4525186,14.8735699 9.72816429,14.1499452 8.84374426,14.1499452 L7.95941544,14.1499452 C7.07499541,14.1499452 6.35146193,14.8735699 6.35146193,15.7578987 C6.35146193,16.6414979 7.07499541,17.3658522 7.95941544,17.3658522 Z M7.31623404,15.7578987 C7.31623404,15.4354872 7.55738146,15.1147173 7.95941544,15.1147173 L8.84374426,15.1147173 C9.16533496,15.1147173 9.48692566,15.3559559 9.48692566,15.7578987 C9.48692566,16.0794894 9.24650788,16.4010801 8.84374426,16.4010801 L7.95941544,16.4010801 C7.63782474,16.4010801 7.31623404,16.1599327 7.31623404,15.7578987 Z" id="Fill-25" fill="#424242" fill-rule="evenodd"></path>
                        <path d="M13.024241,16.2400111 L9.88959808,16.2400111 L9.88959808,15.3555911 L13.024241,15.3555911 C13.8282177,15.3555911 14.47222,14.7132306 14.47222,13.9092538 L14.47222,12.2201274 L15.3558191,12.2201274 L15.3558191,13.9092538 C15.3558191,15.1947958 14.3114246,16.2400111 13.024241,16.2400111 Z" id="Fill-27" fill="#424242" fill-rule="nonzero"></path>
                        <path d="M15.8382964,8.44175588 L14.9538764,8.44175588 L14.9538764,7.3965405 C14.9538764,3.8590428 12.0603809,0.96476298 8.52206235,0.96476298 C4.98465585,0.96476298 2.09033955,3.8590428 2.09033955,7.3965405 L2.09033955,8.44175588 L1.20591952,8.44175588 L1.20591952,7.3965405 C1.20591952,3.29630468 4.5022698,0 8.60250563,0 C12.7035623,0 15.9990917,3.29630468 15.9990917,7.3965405 L15.9990917,8.44175588 L15.8382964,8.44175588 Z" id="Fill-29" fill="#424242" fill-rule="nonzero"></path>
                    </g>
                </g>
            </g>
        </g>
    </g>
</svg>