<?xml version="1.0" encoding="UTF-8"?>
<svg width="30px" height="30px" viewBox="0 0 30 30" version="1.1" xmlns="http://www.w3.org/2000/svg" xmlns:xlink="http://www.w3.org/1999/xlink">
    <title>Destacados_30x30</title>
    <g id="Destacados_30x30" stroke="none" stroke-width="1" fill="none" fill-rule="evenodd" stroke-linecap="square">
        <g transform="translate(0.500000, 3.500000)">
            <path d="M26.2270957,18.5414652 C27.1588783,18.1581609 27.8605522,17.2717696 28.7040739,15.745487 C26.4395522,14.4177913 23.9600522,15.2077261 22.3486609,18.0402696" id="Stroke-1" stroke="#424242" stroke-linejoin="round"></path>
            <path d="M19.1193217,21.4887478 C20.716213,23.0144 23.0866478,24.0495739 26.0755391,20.9213565 C24.0997565,19.0332043 21.3712348,19.1315522 19.1193217,21.4887478 Z" id="Stroke-3" stroke="#424242" stroke-linejoin="round"></path>
            <path d="M27.1219348,13.518413 C28.1091957,12.8325 28.8512174,11.5583913 29,9.31530435 C26.2733696,9.13436957 24.2433696,10.9601087 24.0265,14.2137826" id="Stroke-5" stroke="#424242" stroke-linejoin="round"></path>
            <path d="M26.4895457,8.14950435 C27.1565457,7.14711304 27.3771978,5.68765652 26.6862413,3.54417826 C24.0856978,4.38328696 22.8733717,6.83000435 23.8738717,9.93363478" id="Stroke-7" stroke="#424242" stroke-linejoin="round"></path>
            <path d="M2.77353478,18.5414652 C1.84175217,18.1581609 1.14007826,17.2717696 0.296556522,15.745487 C2.56107826,14.4177913 5.04057826,15.2077261 6.65196957,18.0402696" id="Stroke-9" stroke="#424242" stroke-linejoin="round"></path>
            <path d="M9.8813087,21.4887478 C8.28441739,23.0144 5.91398261,24.0495739 2.9250913,20.9213565 C4.90087391,19.0332043 7.62939565,19.1315522 9.8813087,21.4887478 Z" id="Stroke-11" stroke="#424242" stroke-linejoin="round"></path>
            <path d="M1.87869565,13.518413 C0.891434783,12.8325 0.149413043,11.5583913 0,9.31530435 C2.72726087,9.13436957 4.75726087,10.9601087 4.97413043,14.2137826" id="Stroke-13" stroke="#424242" stroke-linejoin="round"></path>
            <path d="M2.51108478,8.14950435 C1.84408478,7.14711304 1.62343261,5.68765652 2.31438913,3.54417826 C4.91493261,4.38328696 6.1272587,6.83000435 5.1267587,9.93363478" id="Stroke-15" stroke="#424242" stroke-linejoin="round"></path>
            <polygon id="Stroke-17" stroke="#424242" fill="#FF8300" points="14.5003152 5.98465435 16.2422065 10.3233065 20.804663 10.564763 17.3189891 13.6375022 18.3964022 17.9761543 14.5003152 15.6851543 10.6042283 17.9761543 11.6816413 13.6375022 8.19596739 10.564763 12.7584239 10.3233065"></polygon>
            <line x1="14.5003152" y1="0" x2="14.5003152" y2="2.84452174" id="Stroke-19" stroke="#FF8300"></line>
            <line x1="8.19596739" y1="2.17077609" x2="9.94731522" y2="4.41197174" id="Stroke-21" stroke="#FF8300"></line>
            <line x1="20.804663" y1="2.17077609" x2="19.0533152" y2="4.41197174" id="Stroke-23" stroke="#FF8300"></line>
        </g>
    </g>
</svg>