<svg xmlns="http://www.w3.org/2000/svg" width="16" height="10" xml:space="preserve"><path fill="#F3D02F" d="M16 0H0v5h16V0z"/><path fill="#22368F" d="M16 5H0v2.5h16V5z"/><path fill="#BC0030" d="M16 7.5H0V10h16V7.5z"/><path fill="#46454A" d="M7.3 3.1c-.2 0-.5-.3-1-.1 0-.4 1.1-.4 1 .1z"/><path d="M7.2 3.3c0-.3-.2-.1-.6 0 .4-.2 1.3-.4.6 0zm-.1-.2c.1-.9-1.3.3-.2-.2 0 .1.3.4.2.2z"/><path d="M7.2 3.2c-.1 0 0 0 0 0zm-.1 0c.1 0 .1 0 0 0zm-.1 0c.1 0 0 0 0 0zm0 0c0-.1.1-.2.2-.2l-.2.2zm-.5-.1c.1 0 .2-.2.3-.2-.1 0-.2.2-.3.2zm.4 0 .2-.2s-.1.2-.2.2zm.1 0s0-.1 0 0c0-.1 0 0 0 0zm-.6 0s.2-.1.2-.2l-.2.2zm.2 0 .2-.2c-.1.1-.2.1-.2.2zm.1 0 .2-.2s-.2.1-.2.2zm.1 0 .2-.2c.1 0-.1.1-.2.2z"/><path fill="#303231" d="M8 3c-.9-1.4-2.3.4-.8 0 .3 0 .5.3.8 0z"/><path d="M7.6 3.3c.1 0-.6-.1-.3-.1-2.7.1 1.8-1 .3.1zm0-.1c1.6-1-3.3-.3-.3-.2-.1-.2.3.4.3.2-.1.1-.1.1 0 0-.1.1 0 .1 0 0z"/><path d="M7.5 3.2c.1 0 .1 0 0 0zm-.2 0c.1 0 0 0 0 0zm.1-.1s.1 0 0 0c.1 0 .1 0 0 0zm-1.2 0c0-.1.2-.2.2-.2l-.2.2zM7.3 3h.4-.4zm0 0s.2 0 .3-.1c-.1.1-.3.1-.3.1zm-1 0c0-.1.1-.1.2-.2l-.2.2zm.1 0c0-.1.1-.1.2-.2 0 0-.2.1-.2.2zm0-.1.2-.2c0 .1-.1.2-.2.2zm.9 0c.1 0 .3 0 .4-.1-.1.1-.4.1-.4.1zm-.8 0c0-.1.2-.2.2-.2.1 0-.1.1-.2.2zm.1 0c0-.1.2-.2.3-.2 0 0-.2.1-.3.2zm.6-.1c.2-.1 0 0 0 0 .4-.1.2-.1 0 0zm-.2 0 .2-.2-.2.2zm-.2 0c0-.1.2-.2.2-.2l-.2.2zm.3 0 .2-.2c0 .1-.1.2-.2.2zm-.1 0 .2-.2s-.1.2-.2.2zm-.1 0 .1-.2c0 .1-.1.2-.1.2z"/><path fill="#FFF" d="M6.6 2.7c.2 0 1-.3 1 .1-.1-.5-1.1 0-1-.1z"/><path fill="#741810" d="M8.7 3.1c.2 0 .4-.2 1-.1 0-.4-1.1-.4-1 .1z"/><path fill="#46454A" d="M8.7 3.1c.2 0 .4-.2 1-.1 0-.4-1.1-.4-1 .1z"/><path d="M8.8 3.3c-.7-.8 1.6-.3.6-.3-.2-.3-.6.4-.6.3zm.2-.5c-.6.3-.2.6.1.2.1-.1 1 0-.1-.2z"/><path d="M8.9 3.2s-.1 0 0 0c-.1 0-.1 0 0 0-.1 0-.1 0 0 0-.1 0 0 0 0 0zm0 0-.1-.1.1.1zm.1 0-.1-.1.1.1zm0 0s-.1-.1-.2-.1c.1-.1.2 0 .2.1zm.6-.1c-.2 0-.2-.1-.3-.1.1 0 .3.1.3.1zm-.6 0S9 3 8.9 3c.1 0 .1.1.1.1zm.1 0-.2-.2.2.2zm.5 0S9.4 3 9.3 3c.1 0 .4.1.3.1zm-.2 0L9.2 3c.1-.1.2 0 .2.1zm-.2 0c-.1-.1-.2-.2-.3-.2.1 0 .3.1.3.2zm.1 0s-.2-.2-.3-.2c.1 0 .3.1.3.2zm.4-.1z"/><path fill="#303231" d="M8 3c1-1.4 2.8.3.6.1h-.1.1c-.3 0-.5.4-.6-.1z"/><path d="M8.4 3.3c-.9-1.4 2.3-.6.2-.6 0-.2-.3.8-.2.6zm-.3-.4c-.1.5.8.3.8.3h-.1c1.9.4-.1-1.5-.7-.3z"/><path d="M8.5 3.2c-.1 0-.1 0 0 0-.1 0-.1 0 0 0zm.2 0s-.1 0 0 0c-.1 0 0 0 0 0zm-.1-.1h-.2.2zm.1-.1h-.4.4zm1.1 0c-.1 0-.2-.1-.2-.1l.2.1zM8.7 3s-.2 0-.4-.1c.2.1.4.1.4.1zm1 0c0-.1-.2-.2-.2-.2s.2.1.2.2zm-.1-.1-.1-.1.1.1zm0 0c-.1 0-.2-.1-.2-.1 0-.1.1 0 .2.1zm-.9 0c-.1 0-.3 0-.4-.1.1.1.3.1.4.1zm.8 0c-.1-.1-.2-.1-.2-.2l.2.2zm-.7-.1s-.1 0-.3-.1c.1.1.3.1.3.1zm0 0c-.1 0-.1-.1-.2-.1.1 0 .2.1.2.1zm.3 0-.2-.2s.1.2.2.2zm.2 0c-.1 0-.1-.1-.2-.1 0 0 .1.1.2.1zm-.4 0c-.1 0-.2-.1-.2-.2 0 0 .1.2.2.2zm.1 0-.2-.2s.1.2.2.2zm.2 0c-.1 0-.2-.1-.2-.1 0-.1.1.1.2.1z"/><path d="M8.6 3.2c-.1 0-.2 0-.2-.1 0 0 .4.1.2.1.1 0 .1 0 0 0zm-.3 0c-.2-.1 0 0-.3-.2 0 0 .4.3.3.2zm0-.1c-.1 0-.2-.1-.3-.1h.1H8h.1H8h.1H8c.6-.1.5.1.6 0h.1-.1.2-.2.2-.2.2-.3.3-.3.1-.1.1-.1.1-.1c.4 0-.2 0-.2.1zm.3 0h-.2.2zm.1-.1h-.2.2zm0-.1h-.2.2zm.9 0c-.4-.2-.3-.1-.8-.1h.1-.2.1-.5.1-.1.2-.1.2-.2.5-.6.8-.8.3-.3.1-.1.1-.1.2-.1.4-.3.6H9c.5 0 .6.1.6.1zm-1.1-.1h.2-.2zm.2 0h.1-.1zm.1-.1H9h-.2zm.2 0h.2H9zm0 0h-.5.7H9zm0 0h.2H9zm0-.1c.1 0 .1 0 0 0 .1 0 0 0 0 0zm0 0h-.2.2c-.1 0-.1 0 0 0zm-.1 0zm-.3.2c-.2 0-.3-.1-.4-.1.1 0 .2.1.4.1zm-.3-.2h.1-.1s.1 0 0 0z"/><path fill="#FFF" d="M9.5 2.7c-.3 0-1.1-.4-1.1.1.2-.4 1-.1 1.1-.1z"/><path fill="#303231" d="M7.8 3.3c-.3.1-.4.4-.4.7 0-.1.7-.4.4-.7z"/><path fill="#303231" d="M7.8 3.3c-.3.1-.4.4-.4.7 0-.1.7-.4.4-.7z"/><path d="M7.4 4c.1-.8.4-.8.5-.4-.1 0-.4.4-.5.4zm.4-.7c-.1 0-.1 0 0 0-.8.6.4.6 0 0z"/><path fill="#303231" d="M7.9 3.5c-.1 0-.2.1-.2.2l.2-.2zm0 0s-.1.1-.2.3l.2-.3zm-.1-.1s-.2.1-.2.4l.2-.4zm0 0c-.1 0-.2.3-.2.4l.2-.4zm0 0c-.1.1-.3.2-.3.4l.3-.4zm0-.1s-.1 0-.3.2l.3-.2z"/><path d="M7.6 3.8c0-.2.1-.4.3-.5-.1 0-.3.4-.3.5zm-.1 0c0-.3.1-.3.3-.5-.1.1-.3.3-.3.5zm.1 0c0-.3.2-.3.2-.4 0 .1-.1.1-.2.4zm.1 0c.1-.2.1-.3.2-.3-.1 0-.2 0-.2.3zm0-.1c0-.1.1-.2.1-.3 0 .2-.1.2-.1.3zm.1-.1c0-.1 0-.1 0 0 0-.1 0 0 0 0zm-.2-.1c.1-.2.2-.2.2-.2s-.1 0-.2.2z"/><path fill="#303231" d="M8.4 3.3c-1.2.6.1-.1-.3-.2-.7.1.4-.3.3.2z"/><path d="M8 3.6c-.7-.1.5-.6-.5-.5.3-.5.6.6.5.5zm-.2-.3c.5 1 .9-.6 0-.4.5.3.3.7 0 .4z"/><path fill="#F8E72A" d="M8.1 3.5s0 .1 0 0c0 .2.2.1 0 0 0 .1 0 .1 0 0 0 .1 0 0 0 0z"/><path d="M8.1 3.7c.2-.2-.2-.1.1 0h-.1z"/><path fill="#F8E72A" d="M7.9 3.6s.1 0 0 0c.1.1.1.1 0 0 .1.1.1 0 0 0 0 .1-.1.1 0 0z"/><path d="M7.9 3.7s-.1 0 0 0c-.1 0-.1-.1 0 0 .1 0 .1-.1 0 0zm0 0s.2-.2 0 0c0-.1 0-.1 0 0 0-.1 0-.1 0 0-.1-.1-.1 0 0 0-.1 0 0 0 0 0z"/><path fill="#EE7A23" d="M7.6 3.2c0 .1 0 .1 0 0 0 .1-.1.1 0 0-.1.1-.1.1 0 0-.1.1-.1 0 0 0z"/><path fill="#DEC9C8" d="M7.6 3.2c0 .1 0 .1 0 0 0 .1-.1.1 0 0-.1.1-.1.1 0 0-.1.1-.1 0 0 0z"/><path d="M7.5 3.3c.1 0 .1 0 0 0 .1 0 0 0 0 0zm.1-.1s-.1 0 0 0c-.1 0-.1.1 0 0-.1.1-.1.1 0 0-.1.1-.1.1 0 0-.1.1 0 .1 0 0z"/><path fill="#FFF" d="M7.5 3.3s.2-.2 0 0c0 0 0-.1 0 0zm.3 0c-.2.2.8.1.3-.1s.3.7-.3.1z"/><path d="M8.1 3.4s-.1 0 0 0c-.1 0-.1 0 0 0-.1 0-.1 0 0 0zm0 0s0-.1 0 0c0-.1 0-.1 0 0 0-.1.1-.1 0 0 .1-.1.1-.1 0 0 0-.1 0-.1 0 0z"/><path fill="#FFF" d="M7.8 3.3c.3 0 .5-.1.1-.2-.3-.1-.1.2-.1.2z"/><path fill="#D5B0A5" d="M7.8 3.3c.3 0 .5-.1.1-.2-.3-.1-.1.2-.1.2z"/><path d="M8 3.3c0 .1-.5 0-.2-.3.2 0 .4.2.2.3zm-.1 0c0-.1-.1-.2-.3-.2 0 .2 0 .2.3.2-.1 0-.1 0 0 0zM9 3.1C8.9 3 8.9 3 8.8 3c0-.1.2.1.2.1zm.5 0-.3-.3c.1.2.3.3.3.3zm.1 0c-.1-.1-.3-.2-.3-.3 0 .1.2.2.3.3zm0 0c0-.1-.1-.2-.1-.2s.1.1.1.2zM9.1 3c-.1 0-.2-.1-.3-.1.1 0 .3.1.3.1zm.2 0-.2-.2.2.2zm-.1 0S9 2.9 9 2.8c-.1 0 .2.2.2.2z"/><path fill="#BC0030" d="M7.6 7.4c.6.5.6-1.4.1-1.1.2.4.2.9-.1 1.1z"/><path d="M7.8 7.5c-.2 0-.1-1.4.2-1.2-.1.1.2 1.3-.2 1.2zM8 6.3c-.4-.1.2.8-.3 1.1.7.2.3-.8.3-1.1z"/><path fill="#170085" d="M7.8 6.3c0 .8-.2.9-.2 1.1.3 0 .3-1 .2-1.1z"/><path d="M7.6 7.4c.1-.3 0-.8.2-1.1 0 .1 0 1.1-.2 1.1zm.3-1.1c-.1.8-.2.8-.2 1.2.3 0 .2-1 .2-1.2z"/><path fill="#22368F" d="M7.6 6.3c0 .8-.5 1 .1 1 .1-.4.2-1-.1-1z"/><path d="M7.5 7.3c.1-.3 0-1.1.3-1 0 .2.1.9-.3 1zm.4-1c-.4 0-.5 1.2 0 1v-1z"/><path fill="#F2B226" d="M7.7 6.3c0 .5-.2.6-.2.7.4.2.1-.6.2-.7z"/><path d="M7.5 7c.2-.1 0-.6.2-.7 0 0-.1.7-.2.7zm.2-.7c0 .4-.1.5-.2.6.1.4.2-.5.2-.6z"/><path fill="#F3D02F" d="M7.5 6.3c0 .6-.5.6.1.6.1-.2.2-.7-.1-.6z"/><path d="M7.4 7c0-.2 0-.7.3-.6 0 .2 0 .6-.3.6zm.3-.7c-.3-.1-.4.4-.3.6.4.1.3-.4.3-.6z"/><path fill="#BC0030" d="M8.4 7.4c-.6.5-.6-1.4-.1-1.1-.2.4-.2.9.1 1.1z"/><path d="M8.2 7.5c-.4.1-.1-1.1-.2-1.2.3-.2.3 1.2.2 1.2zm0-1.2c-.4-.2-.1 1-.2 1.1.7.3-.1-.7.2-1.1z"/><path fill="#170085" d="M8.2 6.3c0 .8.2.9.2 1.1-.3 0-.3-1-.2-1.1z"/><path d="M8.4 7.4c-.3-.1-.3-.9-.3-1.1.3.3.1.9.3 1.1zm-.2-1.1c-.1.1-.1 1.1.2 1.1 0-.4-.2-.3-.2-1.1z"/><path fill="#22368F" d="M8.3 6.3c0 .8.5 1-.1 1-.1-.3-.3-1.2.1-1z"/><path d="M8.5 7.3c-.4.1-.4-.6-.4-1 .4-.1.3.9.4 1zm-.2-.1c.4.4.2-1-.1-.9-.1.1 0 1 .1.9z"/><path fill="#F2B226" d="M8.3 6.3c0 .5.2.6.2.7-.4.2-.3-.6-.2-.7z"/><path d="M8.5 7c-.4.1-.3-.5-.3-.7.2.1.2.7.3.7zm-.2-.1c.4.3 0-.1 0-.6-.2-.1-.1.6 0 .6z"/><path fill="#F3D02F" d="M8.5 6.3c0 .6.4.6-.2.6-.1-.2-.2-.8.2-.6z"/><path d="M8.6 7c-.4.1-.4-.4-.4-.7.3-.1.3.5.4.7zm-.2-.1c.4.1.2-.8-.1-.7 0 0 0 .7.1.7z"/><path fill="#DCDCDC" d="M9.6 7.1c.1.1.4.3.5.4-.1-.2-.3-.4-.5-.4z"/><path d="M10.1 7.4c-.1-.1-.7-.3-.4-.4l.4.4zM9.7 7c.1.1.2.4.4.4L9.7 7z"/><path fill="#333" d="m9.4 6.7.3.3c.1.3-.4-.4-.3-.3z"/><path d="M9.7 7.1c0 .1-.6-.7-.2-.2.1.1.2.1.2.2 0-.1 0-.1 0 0zm-.4-.4c.3.1.2.4.4.3-.1-.1-.3-.2-.4-.3z"/><path fill="#DCDCDC" d="M9.9 6.7c.1.1.4.3.5.4-.1-.1-.4-.3-.5-.4z"/><path d="M10.3 7.1c-.1-.1-.7-.3-.4-.5.1.1.3.4.4.5zm-.4-.5c.1.1.2.4.4.4l-.4-.4z"/><path fill="#333" d="M9.6 6.4c.1.1.4.3.3.4-.2 0 0-.2-.3-.4z"/><path d="M9.9 6.7c0 .1-.5-.7-.1-.2.1 0 .1.1.1.2 0-.1 0-.1 0 0zm-.3-.3c.2.2.2.3.3.2 0-.1-.2-.2-.3-.2z"/><path fill="#DCDCDC" d="M6.4 7c-.1.1-.4.3-.5.4.1-.1.4-.3.5-.4z"/><path d="M5.9 7.4c.1-.1.3-.4.5-.4-.1.1-.4.3-.5.4zm.4-.4c-.1.1-.3.3-.3.4.2 0 .3-.2.3-.4z"/><path fill="#333" d="M6.7 6.7c-.1.1-.5.2-.4.4.2 0 .3-.3.4-.4z"/><path d="M6.4 7.1c-.2 0 .1-.2.3-.4 0 .1-.3.5-.3.4zm0-.2s0 .1 0 0c0 .2 0 .1 0 0 0 .1.1-.1.3-.2l-.3.2z"/><path fill="#DCDCDC" d="m6.2 6.6-.2.2c-.8.5.2-.2.2-.2z"/><path d="m5.7 7 .4-.4c.3.2-.3.4-.4.4zm.4-.4-.4.4c.1-.1.4-.2.4-.4z"/><path fill="#333" d="M6.4 6.4c-.1.1-.4.1-.3.3.2 0 0-.1.3-.3z"/><path d="M6.1 6.7s.2-.2.3-.4c0 .2-.3.4-.3.4zm.1-.2s0 .1 0 0c-.1.2 0 .1 0 0 0 .1.2-.1.2-.2 0 .1-.2.2-.2.2z"/><path fill="#F8E72A" d="m8.7 4.2.8-.7-.8.7z"/><path fill="#DCDCDC" d="m9.5 3.5-.1.1s.2-.1.1-.1z"/><path fill="#3E500A" d="M9.4 3.7c0-.1.1-.3.2-.2l-.2.2zm.1-.2-.1.1.1-.1z"/><path fill="#F3D02F" d="M9 4.6c-.1-.4.1-.8.4-1 .1.4-.1.8-.4 1z"/><path fill="#22368F" d="M9 4.6c0-.3 0-.7.3-.9 0 .3 0 .7-.3.9z"/><path fill="#D2001D" d="M8.9 4.7c0-.2-.2-.5.1-.7 0 .1.1.7-.1.7z"/><path fill="#F3D02F" d="M8.7 4.2c.2-.1.6-.4.7-.6l-.7.6z"/><path d="M8.7 4.2c.2-.1.6-.4.7-.6-.2.2-.5.5-.7.6z"/><path fill="#265D09" d="M8.8 4.3c.1 0 .7 1.4.7 1.5.2-.1-.5-1.6-.7-1.5z"/><path d="M9.5 5.8c-.1-.2-.4-1.3-.7-1.5.2.1.9 1.4.7 1.5zm-.7-1.5c.2.2.6 1.1.7 1.4 0-.6-.3-1-.7-1.4z"/><path fill="#265D09" d="M8.7 4c.1.2.7 1.3.8 1.7.1-.1-.7-1.9-.8-1.7z"/><path d="M9.5 5.7c-.1-.3-.4-1.3-.8-1.7.3.1.9 1.6.8 1.7zM8.7 4c.2.2.8 1.3.8 1.6C9.4 5 9 4.3 8.7 4z"/><path fill="#265D09" d="M9 3.5c.1.1.5 2.2.4 2.3.1-.1-.3-2.3-.4-2.3z"/><path d="M9.5 5.7c0-.1-.3-1.8-.4-2.1.2.1.5 2 .4 2.1zm-.4-2.1c.2.4.4 1.7.4 2.1 0-.6-.2-1.7-.4-2.1z"/><path fill="#265D09" d="M8.8 3.5c.1 0 .7 2 .7 2.1.2-.1-.6-2.2-.7-2.1z"/><path d="M9.5 5.6c0-.1-.3-1.9-.6-2.1.4.4.7 1.8.6 2.1zm-.7-2.1c.2.3.6 1.6.6 2 0-.7-.5-1.8-.6-2z"/><path fill="#265D09" d="M9.2 3.7c.1.1.3 2 .3 2.1.2 0-.2-2.2-.3-2.1z"/><path d="M9.5 5.8c0-.3-.1-1.6-.3-2.1.2.2.3 1.9.3 2.1zm-.3-2.1c.1.4.3 1.6.3 2 .1-.5-.1-1.7-.3-2z"/><path fill="#265D09" d="M8.8 3.7c.1.1.7 1.8.7 1.9.2 0-.6-2-.7-1.9z"/><path d="M9.5 5.6c0-.2-.5-1.6-.7-1.8.3.2.7 1.3.7 1.8zm-.7-1.8c.3.3.5 1.4.7 1.8 0-.6-.3-1.4-.7-1.8z"/><path fill="#265D09" d="M8.7 4.1c.1 0 .8 1.5.8 1.6.1-.1-.6-1.7-.8-1.6z"/><path d="M9.5 5.7c-.1-.2-.5-1.4-.8-1.6.2.1.9 1.5.8 1.6zm-.8-1.6c.2.2.8 1.2.8 1.5-.1-.4-.4-1.3-.8-1.5z"/><path fill="#265D09" d="M8.8 3.9c.1 0 .7 1.7.7 1.8 0-.4-.6-1.9-.7-1.8z"/><path d="M9.5 5.6c0-.2-.5-1.3-.7-1.7.2.1.7 1.6.7 1.7zm-.7-1.7c.3.3.5 1.4.7 1.7 0-.5-.4-1.5-.7-1.7z"/><path fill="#265D09" d="M9.1 3.5c.1.1.3 2 .3 2.1.2-.1-.2-2.1-.3-2.1z"/><path d="M9.4 5.7c.1-.2-.2-1.8-.3-2.1.2.2.4 2 .3 2.1zm-.3-2.1c.2.4.2 1.7.3 2.1.1-.5-.1-1.9-.3-2.1z"/><path fill="#265D09" d="M8.9 3.4c.1.1.6 2 .6 2.2.2-.1-.5-2.3-.6-2.2z"/><path d="M9.4 5.6c0-.2-.4-1.9-.5-2.2.3.1.6 2.1.5 2.2zm-.5-2.2c.2.3.6 1.7.6 2.1.1-.4-.3-1.8-.6-2.1z"/><path fill="#265D09" d="M9.3 3.7c.1.2.1 1.5.1 1.9.1 0-.1-1.8-.1-1.9z"/><path d="M9.4 5.7c0-.6 0-1.4-.1-2 .1.2.3 2 .1 2zm-.1-1.9c.1.5.1 1.4.1 1.9 0-.4.1-1.4-.1-1.9z"/><path fill="#265D09" d="M8.8 3.6c.1.1.6 1.9.6 2 .2-.1-.5-2.2-.6-2z"/><path d="M9.4 5.6c-.1-.6-.3-1.5-.6-2 .3.1.7 1.9.6 2zm-.6-2c.2.3.6 1.5.6 1.8 0-.7-.1-1.2-.6-1.8z"/><path fill="#2200C0" d="M9.4 3.6c-.1.6.1.9.1.1 0 .1-.1-.1-.1-.1z"/><path d="M9.4 4.4c-.1 0 .1-.5 0-.7 0 .3.1.7 0 .7zm0-.8c-.1.5.1.9.1.1 0 .1-.1 0-.1-.1z"/><path fill="#D2001D" d="M9.4 3.6v.8c.3-.1 0-1 0-.8z"/><path d="M9.5 4.3v-.2.2-.8c-.2.3-.2.6 0 .8zm0-.1c0-.1 0-.1 0 0 0-.1 0-.1 0 0 0-.1 0-.1 0 0 0-.1 0-.1 0 0z"/><path fill="#2200C0" d="M9.5 3.6c-.1-.1-.1-.1 0 0-.1-.1-.1-.2-.1-.2-.1.1 0 .2.1.2-.1 0-.1 0 0 0-.1 0-.2-.1-.1-.1l.1.1c-.1-.1-.1-.1 0 0 0-.1 0 0 0 0z"/><path d="M9.5 3.6s-.1 0 0 0c-.1 0-.4-.2 0 0 0-.1 0 0 0 0zm-.1-.2c0 .1 0 .1 0 0 0 .1.1.1.1.1-.1 0-.1 0-.1-.1 0 .1 0 .1 0 0-.1.1-.1.1 0 0-.1.1-.1.1 0 0-.1 0 0 0 0 0zm0 0s-.1 0 0 0c-.1.1 0 .1 0 0 0 .1 0 .1 0 0 0 .1 0 .1 0 0 0 .1 0 0 0 0z"/><path fill="#D2001D" d="M9.5 3.6c-.1 0-.1 0 0 0-.1 0-.1-.1-.1-.1 0 .1 0 .1.1.1-.1 0-.1 0 0 0-.1 0-.2 0-.2-.1.1 0 .2.1.2.1z"/><path d="M9.4 3.6c-.1 0-.1 0-.1-.1.1 0 .1 0 .1.1 0-.1.1-.1 0 0 0-.1-.1-.1 0 0-.1-.1-.1 0 0 0zm-.1-.1c.1.2.1 0 0 0 .1 0 .2.1 0 0 .1 0 .1 0 0 0z"/><path fill="#F8E72A" d="m8.9 4.7 1-.9-1 .9z"/><path fill="#DCDCDC" d="M10.3 3.5c-.3.4 0 .8-.4.4-.5.1.1-.4.4-.4z"/><path d="M10 4c-.6-.1.4-.5.2-.2s0 .1-.2.2zm0-.2c.2.5 0-.1.3-.3-.2-.1-.5.4-.3.3z"/><path fill="#F3D02F" d="M9.3 5.8c.1-2.6.7-1.7.5.2-.6 1.3-2 .9-.5-.2z"/><path fill="#22368F" d="M8.1 6.2c1 .6.9-.9.9-1.6.8-.9.2 3.1-.9 1.6z"/><path fill="#BC0030" d="M8.1 6.2c.9.8 1.1-1.5.8-1.5.1.6-.3 1.4-.8 1.5z"/><path fill="#D2001D" d="M9 6.8c-.8.1 1.4-.4.7-2.9-.1.7.5 3-.7 2.9z"/><path fill="#D4001D" d="M9 6.8c-1.2 0 1.5-.4.7-2.8-.1.7.4 2.8-.7 2.8z"/><path fill="#D4001D" d="M9 6.8c1.1 0 .6-2.2.7-2.9-.1.7.4 2.8-.7 2.9z"/><path fill="#D4001D" d="M9 6.7c1.3.1.7-2.2.8-2.9-.1.7.4 3-.8 2.9z"/><path fill="#D7001D" d="M9 6.7c-.1.2 1.1-.3.7-2.9-.1.7.4 3-.7 2.9z"/><path fill="#D7001E" d="M9 6.7c1.1.1.6-2.3.7-2.9-.1.7.4 3-.7 2.9z"/><path fill="#D7001E" d="M9 6.7c-.3.3 1.2-.6.7-2.9-.1.6.4 3-.7 2.9z"/><path fill="#DA1D1E" d="M9 6.7c-.4.3 1.3-.5.7-2.7-.1.7.3 2.6-.7 2.7z"/><path fill="#DA291E" d="M9 6.7c-.9.3 1.6-.8.8-2.7 0 .9.3 2.5-.8 2.7z"/><path fill="#DA311E" d="M9 6.7c-.6.2 1.3-.4.8-2.7 0 .9.3 2.4-.8 2.7z"/><path fill="#DC3E1F" d="M9 6.6c-.3.2 1.2-.2.8-2.7-.1.8.3 2.7-.8 2.7z"/><path fill="#DC451F" d="M8.9 6.6c-.4.3 1.3-.5.8-2.7-.1.8.4 2.8-.8 2.7z"/><path fill="#DD4E1F" d="M8.9 6.6c1.1 0 .7-1.9.8-2.7-.1.8.4 2.7-.8 2.7.1 0 0 0 0 0z"/><path fill="#E15920" d="M8.9 6.6c1.2.1.8-1.8.9-2.6.1.8.2 2.8-.9 2.6z"/><path fill="#E16220" d="M8.9 6.6c-.6.4 1.6-.9.9-2.6 0 .8.2 2.6-.9 2.6z"/><path fill="#E26921" d="M8.9 6.6c-.4.5 1.5-1.2.9-2.8 0 .9.3 2.7-.9 2.8z"/><path fill="#E47521" d="M8.8 6.6c.1.5 1.4-1.1 1-2.8 0 .9.2 2.6-1 2.8z"/><path fill="#E57B22" d="M8.8 6.6c-.1.4 1.4-1.2.9-2.7-.1.9.3 2.5-.9 2.7z"/><path fill="#E58222" d="M8.8 6.6c0 .4 1.3-.8.9-2.5 0 .8.2 2.3-.9 2.5z"/><path fill="#E98D23" d="M8.8 6.6c-.1.4 1.4-.7.9-2.4 0 .9.2 2.3-.9 2.4z"/><path fill="#E99623" d="M8.8 6.6c.1.5 1.4-1 1-2.4.1.9 0 2.1-1 2.4z"/><path fill="#EA9D24" d="M8.7 6.5c.2.2 1.4-.9 1-2.5 0 .8.2 2.6-1 2.5z"/><path fill="#ECA925" d="M8.7 6.5c.1.3 1.5-1.1 1-2.6 0 .8.1 2.6-1 2.6z"/><path fill="#EDB125" d="M8.7 6.5c.3.2 1.3-1 1-2.6 0 .8.2 2.6-1 2.6z"/><path fill="#EDB726" d="M8.7 6.5c.2.2 1.3-1 1-2.6 0 .9.2 2.6-1 2.6z"/><path fill="#F1C427" d="M8.7 6.5c.4.6 1.3-1.6 1-2.6 0 .9.2 2.5-1 2.6z"/><path fill="#F2CB27" d="M8.7 6.5c.4.6 1.3-1.5 1-2.6 0 .9.2 2.5-1 2.6z"/><path fill="#F3D328" d="M8.6 6.5c.2.5 1.7-1.8 1.1-2.6 0 .9.1 2.6-1.1 2.6z"/><path d="M9.1 6.8c-1.7-1-.6.2.5-.2.4-.9.4-4.1-.7-1.6-.9 3-.3-.3.9-1.1-.1.7.4 2.9-.7 2.9z"/><path d="M9.2 4.8c.1-.1.4-.5.4-.6 0 .1-.2.5-.4.6zm-.1.3c.1 0 .4-.5.5-.6 0 .1-.3.6-.5.6zm.2.6c.1-.1.3-.4.4-.4-.1.1-.1.2-.4.4zm-.5.6c.3 0 .7-.4.8-.5-.1.1-.5.5-.8.5zm.2.2c-.7 0 .7-.1.5-.5 0 .2 0 .5-.5.5z"/><path d="M9 6.7c-.5 0 .8-.1.7-.6 0 .2-.4.7-.7.6z"/><path fill="#2200C0" d="M9.8 3.9s-.1.8.1.6c0-.2 0-.5-.1-.6z"/><path d="M9.8 4.6c-.1 0-.1 0 0 0-.1 0 .1-.6 0-.7v.7zm0-.7v.6-.6z"/><path fill="#D2001D" d="M9.8 3.8s-.1.9.1.8c0-.3-.1-.7-.1-.8 0 .1 0 .2 0 0z"/><path d="M9.8 4.6v-.8.8zm0-.1.1.1-.1-.1zm0 0c0-.1 0-.1 0 0 0-.1 0-.1 0 0 0-.1 0-.1 0 0 0-.1 0-.1 0 0zm0-.3c0-.1 0-.1 0 0z"/><path fill="#2200C0" d="M9.8 3.8c-.1 0-.1-.1-.1-.1s-.1.1.1.1c-.1 0 0 0 0 0-.1 0-.2-.1-.1-.1l.1.1z"/><path d="M9.8 3.9c0-.1 0-.1 0 0 0 0 0-.1 0 0-.4 0 .1 0 0 0zm-.1-.2c0 .1 0 .1 0 0 0 .1.1.1.1.1l-.1-.1c.1.1.1.1 0 0 0 0 0 .1 0 0 0 .1 0 .1 0 0zm0 0c0 .1 0 .1 0 0 0 .1 0 .1 0 0 0 .1 0 .1 0 0z"/><path fill="#D2001D" d="M9.8 3.8c0 .1-.1 0 0 0-.1 0-.1-.1-.1-.1 0 .1.1.3.1.1 0 .2-.1-.1-.2 0 0-.2.1.1.2 0z"/><path d="M9.7 3.9s-.1 0 0 0c-.3 0 0-.3 0 0 .1 0 0-.1 0 0 0-.1 0-.1 0 0 0-.1 0-.1 0 0 .1-.1.1 0 0 0 .1 0 .1 0 0 0zm0-.1s0 .1.1.1c0 0-.2-.1-.1-.1-.1 0 .1.1.1.1 0-.1 0-.1-.1-.1z"/><path fill="#F8E72A" d="m7.3 4.2-.8-.7.8.7z"/><path fill="#DCDCDC" d="M6.5 3.5c-.1 0 0 0 0 0z"/><path fill="#3E500A" d="m6.5 3.6-.1-.2.1.2z"/><path fill="#F3D02F" d="M7 4.6c.1-.4-.1-.8-.4-1-.1.4.1.8.4 1z"/><path fill="#22368F" d="M7 4.6c0-.2 0-.7-.2-.9 0 .2 0 .7.2.9z"/><path fill="#BC0030" d="M7.1 4.7c0-.2.4-.5-.1-.7l.1.7z"/><path d="M7.3 4.2c-.2-.1-.6-.4-.7-.6.2.2.5.5.7.6z"/><path fill="#2200C0" d="M6.6 3.6v.6c-.2.2 0-.7 0-.6z"/><path d="M6.6 4.4v-.7.7c0-.1 0 0 0 0zm0-.8c0 .1-.1.7.1.6 0-.1 0-.5-.1-.6z"/><path fill="#3D9712" d="M7.1 3.9c0-.1.1-.1 0 0 .1-.1.1 0 0 0z"/><path d="m7 4 .3-.3c-.1.1-.3.4-.3.3zm.3-.2-.2.2c.2-.1.1-.2.2-.2z"/><path fill="#EA0020" d="M7.3 3.7c0 .1 0 .1 0 0-.1 0 0 0 0 0z"/><path d="M7.3 3.8c-.1-.1-.1-.1 0 0z"/><path fill="#3D9712" d="M7 4.2c0 .1 0 .2-.1.2 0-.2.4-.6.1-.2z"/><path d="M6.9 4.4c0-.2.1-.3.2-.4 0 .2-.1.4-.2.4zm.2-.4c-.1 0-.1.3-.1.4-.1-.2.1-.3.1-.4z"/><path fill="#EA0020" d="M7.1 3.9s0 .1 0 0c0 .1 0 .1 0 0 0 .1 0 0 0 0z"/><path d="M7.1 4c-.1 0-.1-.1 0 0 .1-.1.1 0 0 0zm-.2.7c-.1-.3 0-.6.1-.9-.1.3-.1.6-.1.9z"/><path fill="#EA0020" d="M7 4c-.1 0-.1 0 0 0-.1 0-.1 0 0 0z"/><path d="M6.9 4.1c0-.1 0-.2.1-.2 0 .2-.1.2-.1.2z"/><path fill="#3D9712" d="M6.8 4c.2 0 .2.2 0 0-.2 0-.2-.1 0 0z"/><path d="M7 4.1c-.1 0-.4-.1-.4-.2.2 0 .3 0 .4.2zm-.4-.2c0 .2.3.1.4.1-.1 0-.4 0-.4-.1z"/><path fill="#3D9712" d="M6.9 3.9c0 .1 0 .1.1.2-.1-.3-.5-.3-.1-.2z"/><path d="M7 4.1c-.2-.1-.2-.1-.3-.3.1.1.3.2.3.3zm-.3-.3c.1.1.1.2.3.3-.1-.2-.1-.2-.3-.3z"/><path fill="#3D9612" d="M7.3 3.9c-.1.1-.3 0 0 0 .1-.3.3-.2 0 0z"/><path d="M7.1 4c.1-.2.3-.3.4-.3 0 .2-.3.3-.4.3zm.4-.3c-.1 0-.3.2-.4.3.1 0 .3-.2.4-.3z"/><path fill="#3D9712" d="M6.8 4.3c.2 0-.1.1 0 0-.2 0-.3-.2 0 0z"/><path d="M6.9 4.4c-.2 0-.3-.1-.4-.3.2-.1.4.2.4.3zm-.3-.2c.1.1.3.1.4.2-.1-.1-.3-.2-.4-.2z"/><path fill="#3D9712" d="M7.1 4.3c-.3.3 0-.2.2-.2-.1 0-.1.1-.2.2z"/><path d="M6.9 4.4c.1-.1.3-.3.4-.3 0 .2-.2.3-.4.3zm.4-.3c-.1.1-.2.2-.4.3.2 0 .3-.3.4-.3z"/><path fill="#3D9712" d="M7.1 3.6c-.1.2-.1.2 0 0-.1-.2.2-.2 0 0z"/><path d="M7.1 3.8c0-.2-.1-.3.1-.4 0 .1-.1.5-.1.4zm.1-.4c0 .1-.2.2-.1.4 0-.2.1-.2.1-.4z"/><path fill="#3D9712" d="M7.1 3.6c.1.2-.1.3 0 0-.2 0 .1-.4 0 0z"/><path d="M7.1 3.8v-.4.4zM7 3.4v.4c.1-.1.1-.2 0-.4z"/><path fill="#3D9712" d="M7.2 3.7c-.1.2-.1 0 .1-.2-.1.1-.1.2-.1.2z"/><path d="M7.1 3.8c0-.1.1-.2.2-.3 0 0-.2.2-.2.3zm.1-.2c-.1.1-.1.2-.2.2 0-.1.2-.2.2-.2z"/><path fill="#3D9712" d="M7.5 3.5s0 .1 0 0c0 .1 0 0 0 0 0-.1 0-.1 0 0z"/><path d="m7.4 3.6.1-.2c-.2.2.1.2-.1.2zm.2-.2s-.1.1-.1.2c.2-.2-.1-.2.1-.2z"/><path fill="#3D9712" d="M7.5 3.5c-.1.1-.1 0 0 0z"/><path d="M7.4 3.6c0-.1 0-.2.1-.2 0 .1 0 .2-.1.2zm.1-.2v.2-.2z"/><path fill="#3D9712" d="M7.5 3.6c0-.1.1-.1 0 0 .1-.1 0-.1 0 0z"/><path d="M7.4 3.6c.1 0 .1-.1 0 0 .1-.1.1-.1.2-.1 0 0-.1.1-.2.1.1 0 .1 0 0 0zm.2-.1s-.1 0 0 0c-.1 0-.1.1 0 0-.1 0-.1 0 0 0z"/><path fill="#EA0020" d="M7.4 3.6c0 .1 0 .1 0 0z"/><path d="M7.4 3.7c-.1-.1-.1-.1 0 0 .1 0 .1 0 0 0z"/><path fill="#EA0020" d="M7 3.9c0 .1 0 .1 0 0 0 .1 0 .1 0 0 0 .1 0 .1 0 0z"/><path d="M7 4c-.1-.1-.1-.1 0 0 .1-.1.1 0 0 0z"/><path fill="#EA0020" d="M7 4c-.1 0-.1 0 0 0z"/><path d="M7 4.1c-.1-.1-.2-.2 0-.2.1.1 0 .1 0 .2z"/><path fill="#EA0020" d="M7.2 3.9c-.1 0-.1 0 0 0-.1 0-.1 0 0 0-.1 0 0 0 0 0z"/><path d="M7.1 4c-.1-.1-.1-.1 0 0z"/><path fill="#EA0020" d="M7.2 3.9c-.1.1-.1.1 0 0-.1 0-.1 0 0 0-.1 0 0 0 0 0z"/><path d="M7.1 4c-.1-.1-.1-.1 0 0 .1-.1.1 0 0 0z"/><path fill="#EA0020" d="M6.9 4.3c0 .1 0 .1 0 0 0 .1 0 .1 0 0 0 .1 0 .1 0 0z"/><path d="M6.9 4.4c.1-.1.1 0 0 0z"/><path fill="#D2001D" d="M6.6 3.6v.8c-.2-.1-.1-.8 0-.8z"/><path d="M6.5 4.3v-.8.8zm0-.1c0 .1 0 0 0 0zm0-.6v.2-.2z"/><path fill="#2200C0" d="M6.5 3.6c.1-.1.1-.1 0 0 .1-.3.2 0 0 0 .1 0 .1 0 0 0 .1 0 .2-.1 0 0 .2-.2 0 0 0 0z"/><path d="M6.5 3.6s0-.1 0 0c0-.1.1 0 .2-.1-.3.1 0 .1-.2.1.1 0 0 0 0 0zm.1-.2s.2.2 0 0c.1.1 0 .1 0 0 0 .1-.1.1 0 0 0 .1 0 .1 0 0 0 .1 0 .1 0 0zm0 0s0 .1 0 0c0 .1 0 .1 0 0 0 .1 0 .1 0 0 0 .1 0 .1 0 0 0 .1.1.1 0 0z"/><path fill="#D2001D" d="M6.5 3.6s.1-.1 0 0c.4 0 0-.2 0 0z"/><path d="M6.6 3.6s-.1 0 0 0c-.1 0-.1 0 0 0 0 0 0-.1 0 0 0-.1 0-.1 0 0 .1-.1.1-.1 0 0 .1-.1.1 0 0 0 0 0 .1 0 0 0 0-.1 0-.1 0 0 0-.1-.1 0 0 0-.2-.2.1.1 0 0zm0 0c.1 0 .1 0 0 0 .1-.1 0-.1 0 0 0-.1 0-.1 0 0z"/><path fill="#F8E72A" d="m7.1 4.7-1-.9 1 .9z"/><path fill="#DCDCDC" d="M5.7 3.5c.3.4 0 .7.4.3.4.1.1-.5-.4-.3z"/><path d="M6 4.1c-.3-.2 0-.8.2-.3.3-.1-.4.2-.2.3zm-.2-.3c.2.6.2-.3.4.1-.3-.1-.3 0-.4-.1z"/><path fill="#F3D02F" d="M6.7 5.8c.1-3.4-1.1-.8-.3.8 1.6.3 1 .2.3-.8z"/><path fill="#22368F" d="M7.9 6.2c-1 .6-.9-.9-.9-1.6-.8-.9-.2 2.9.9 1.6z"/><path fill="#2200C0" d="M7.4 6.5c-.9.2-.9-2.9-.4-2-.6 1.4 1.2 1.9.4 2zm-.7-2.2c-.2.8.2 3 1.2 1.9-1.5.7-.5-1.5-1.2-1.9z"/><path fill="#BC0030" d="M7.9 6.2C7 6.8 7 5.3 7 4.6c.4.4.1 1.5.9 1.6z"/><path fill="#D2001D" d="M6.9 6.8c-1.1 0-.6-2.3-.7-2.9-.1.9-.1 4 1.4 2.5.1 0-.6.4-.7.4zm.5-.5C6.7 6.1 7.1 5 7 4.5c0 .8 1.4 2.3.4 1.8zM7 4.5c0 .7-.2 2 .8 1.8.2-.1-1-1-.8-1.8z"/><path fill="#D2001D" d="M6.9 6.8c-1.1 0-.6-2.2-.7-2.9-.4 3.4 1.1 2.8.7 2.9z"/><path fill="#D4001D" d="M7 6.8c-1.2 0-.7-2.2-.8-2.9-1 2.5 1.9 2.9.8 2.9z"/><path fill="#D4001D" d="M7 6.8c-1.2 0-.7-2.3-.8-3-.9 2.4 1.9 3 .8 3z"/><path fill="#D4001D" d="M7 6.7c-1.2.1-.7-2.2-.8-2.9-.3 3.2.7 2.9.8 2.9z"/><path fill="#D7001D" d="M7 6.7c-1.2.1-.6-2.2-.7-2.9-.2 2.9.6 3 .7 2.9z"/><path fill="#D7001E" d="M7 6.7c-1.2.1-.6-2.2-.7-2.9-.2 2.9.5 3 .7 2.9z"/><path fill="#D7001E" d="M7 6.7c-1.1.1-.6-2.2-.7-2.8C5.5 6 8 6.9 7 6.7z"/><path fill="#DA1D1E" d="M7 6.7c-1.1.1-.6-2.1-.7-2.8-.5 2.4 1.1 3 .7 2.8z"/><path fill="#DA291E" d="M7 6.7c-1.1 0-.7-2-.8-2.8-.5 2.3 1.3 3 .8 2.8z"/><path fill="#DA311E" d="M7 6.7c-1.1-.1-.7-2-.8-2.8C5.6 6 7.7 7 7 6.7z"/><path fill="#DC3E1F" d="M7 6.6c-1.1 0-.7-1.9-.8-2.7-.5 2.2 1.3 3 .8 2.7z"/><path fill="#DC451F" d="M7.1 6.6c-1.2-.1-.8-1.8-.9-2.7-.4 2.3.9 3 .9 2.7z"/><path fill="#DD4E1F" d="M7.1 6.6c-1.1 0-.9-1.8-.9-2.7-.5 2.1 1.1 3 .9 2.7z"/><path fill="#E15920" d="M7.1 6.6C6 6.8 6.3 4.8 6.2 4c-.5 2.1 1.2 2.8.9 2.6z"/><path fill="#E16220" d="M7.1 6.6C6 6.6 6.3 4.8 6.2 4c-.4 2.6 1.2 2.5.9 2.6z"/><path fill="#E26921" d="M7.1 6.6c-1.2 0-.8-1.9-.9-2.8-.5 2 1.1 3.1.9 2.8z"/><path fill="#E47521" d="M7.2 6.6c-1.3.1-.9-1.8-1-2.7-.4 1.7.9 3.2 1 2.7z"/><path fill="#E57B22" d="M7.2 6.6c-1.3 0-.9-1.9-1-2.8-.4 1.9.9 2.9 1 2.8z"/><path fill="#E58222" d="M7.2 6.6c-1.2 0-.9-1.9-1-2.7-.6 2.8 1.5 2.4 1 2.7z"/><path fill="#E98D23" d="M7.2 6.6c-1.2 0-1-1.8-1-2.6-.5 2.5 1.3 2.3 1 2.6z"/><path fill="#E99623" d="M7.2 6.6C6 6.6 6.4 4.8 6.3 4c-.5 2.4 1.4 2.4.9 2.6z"/><path fill="#EA9D24" d="M7.2 6.5C6 6.6 6.4 4.8 6.3 4c-.4 1.9.9 2.6.9 2.5z"/><path fill="#ECA925" d="M7.3 6.5c-1.2-.1-1-1.7-1-2.6-.5 2.2 1.1 2.4 1 2.6z"/><path fill="#EDB125" d="M7.3 6.5c-1.2-.1-1-1.7-1-2.6-.5 2.3 1.2 2.4 1 2.6z"/><path fill="#EDB726" d="M7.3 6.5c-1.1-.2-1-1.7-1-2.6-.5 1.4.9 2.8 1 2.6z"/><path fill="#F1C427" d="M7.3 6.5c-1.1-.2-1-1.7-1-2.6-.5 1.4.9 2.8 1 2.6z"/><path fill="#F2CB27" d="M7.3 6.5c-1.2-.1-1-1.7-1-2.6-.5 1.2 1.1 3.1 1 2.6z"/><path fill="#F3D328" d="M7.4 6.5c-1.2.1-1.2-2-1.1-2.6-.4 1.1.6 3 1.1 2.6z"/><path d="M6.9 6.8c-1.1 0-.6-2.2-.7-2.8 1.1 1 2.2 2.7.7 2.8zm-.7-2.9c-.1 1.2 0 4.1 1.7 2.3-1-.2-.5-1.9-1.7-2.3z"/><path d="M6.8 4.8c-.2-.1-.4-.5-.4-.6 0 .1.2.5.4.6zm.1.3c-.1 0-.4-.5-.5-.6.1.1.3.6.5.6zm.3 1.2c-.3 0-.7-.3-.8-.5.2.1.5.5.8.5zm-.3.1c-.3 0-.5-.2-.5-.4-.2.5 1.2.5.5.4z"/><path d="M7 6.7c-.3 0-.6-.5-.7-.6-.1.5 1.1.6.7.6z"/><path fill="#2200C0" d="M6.2 3.9v.6c-.2.1.1-.7 0-.6z"/><path d="M6.2 4.6v-.7c-.1.2.1.8 0 .7zm0-.7v.7c.3 0 0-.6 0-.7z"/><path fill="#D2001D" d="M6.2 3.8s.1.9-.1.8c0-.3.1-.7.1-.8 0 .1 0 .2 0 0z"/><path d="M6.2 4.6v-.8.8zm0-.1c0 .1 0 .1 0 0zm0-.6v.2-.2z"/><path fill="#2200C0" d="M6.2 3.8c.1-.1.1 0 0 0 .1 0 0 0 0 0 .1 0 .2-.1 0 0z"/><path d="M6.2 3.9c0-.1 0-.1 0 0 0-.2 0 .1.2-.1-.2 0-.2.1-.2.1 0-.1 0-.1 0 0 0-.1 0-.1 0 0 0-.1 0 0 0 0zm.1-.2c0 .1-.1.1 0 0 0 .1 0 .1 0 0zm0 0c0 .1 0 .1 0 0 0 .1-.1.1 0 0-.1.1 0 .1 0 0 0 .1 0 .1 0 0z"/><path fill="#D2001D" d="M6.2 3.8c-.1.1.2-.1 0 0 0 .1 0 .1 0 0 0 .2.1-.1.2 0 0-.2-.1.1-.2 0z"/><path d="M6.3 3.9c-.1 0-.1 0 0 0-.1 0-.1 0 0 0-.1-.1 0-.1 0 0 0-.1 0-.1 0 0 .1-.1-.2 0 0 0-.2-.2.2 0 0 0zm-.1-.1c.1.1.1 0 0 0 .1 0 .1 0 0 0 .1 0 .1 0 0 0 .1 0 0 0 0 0z"/><path fill="#FFF" d="M8 3.7c-1.2 0-1.2 2.6 0 2.6s1.2-2.7 0-2.6z"/><path fill="#BFA57F" d="M8 3.7c-1.1 0-1.2 2.6 0 2.5 1.1 0 1.2-2.6 0-2.5z"/><path d="M8 6.2c-1.2 0-1.2-2.6 0-2.6s1.2 2.6 0 2.6zm0-2.5c-1.2 0-1.2 2.4 0 2.4s1.2-2.4 0-2.4z"/><path fill="#4F637C" d="M8.2 5.2c1.8 1.2-2.6.6-.2.2-.4 0 0-.4.2-.2z"/><path fill="#4A76BA" d="M8.4 5.1c-.4-.1-1-.8-1.3-.4-.5-1.6 2.3-.6 1.3.4z"/><path fill="#FFF" d="M7.3 5.4c.7.1.4-.3 1.1-.2-.5-.6-1.8-.9-1.1.2z"/><path d="M7.3 5.5c-.3-1 .3-1.2 1.1-.8-1.1-.3-1.1.5-1.1.8zm-.1-.6c-.3.7.6.7.6.6 1.2.2-.5-.5-.6-.6z"/><path fill="#5C7F47" d="M8.7 5.4h-.5c.1-.1.8-.4.5 0z"/><path d="M8.7 5.4h-.5c.3.2 1-.3.5 0zm0-.1c.1-.4-.4-.3-.6-.3.3-.1.7.3.6.3zm-.9-.1s-.2-.3-.2-.4c.1.1.1.3.2.4z"/><path fill="#5C7F47" d="M7.2 4.9c.4-.3-.2.2.3-.1-.1.1-.2.1-.3.1zm.3 0c-.7 1.1 1 .5.6.5-.2.7-.2-.7-.7-.3l.1-.2z"/><path fill="#5C7F47" d="M7.8 5.1s.1.1 0 0c.1 0 .1 0 0 0 .1 0 .1 0 0 0 .1 0 .1 0 0 0 .1 0 .1 0 0 0 .1 0 .1 0 .4-.1.3.1-.5.2-.4.1z"/><path fill="#FFF" d="M8.6 5.1h.1-.1c.1 0 .1 0 0 0z"/><path fill="#409966" d="M7.4 5.7c-.2-.2 1 .6.5.3-.2-.1-.5-.3-.5-.3zM7.4 5.7c-.1 0 .3.2.4.3.3.3-.5-.3-.4-.3zm.2 0s.4.3.7.3c-.2-.1-.7-.3-.7-.3zm.3.1c.1 0 .1 0 0 0h.6-.6zm.2 0s.1 0 0 0h.5-.5c.1 0 0 0 0 0zm.2 0s.1 0 0 0c.1 0 .1.1 0 0 .1.2.2 0 0 0 .1 0 0 0 0 0zm.1 0s.1 0 0 0h.1s0-.1-.1 0z"/><path fill="#DCDCDC" d="M8 4.2c1.7.5-.1-.4-.7.1-.3.5.3-.2.7-.1z"/><path d="M7.2 4.5c.1-.6 1.3-.5 1.5-.1-.2 0-1.2-.3-1.5.1zm.1-.2c0 .1 1.2-.2 1.4.1-.2-.4-1-.4-1.4-.1z"/><path fill="#F2B126" d="M7.9 4.1c.2-.4.2.2.3.3-.2-.1-.6-.3-.3-.3z"/><path fill="#F3BD28" d="M7.9 4.1c.2-.4.2.2.3.3-.2-.1-.6-.3-.3-.3z"/><path d="M8 4.5c-.4-.2.1-1 .2-.1-.1-.1-.2-.1-.2.1zm-.1-.2c.5.3.1-.1.3-.3-.4-.1-.6.4-.3.3z"/><path d="M8 6.1c-1 .1-1.1-2.4 0-2.3 1.1-.1 1 2.3 0 2.3zm0-2.3c-1.1 0-1 2.3 0 2.3 1.1 0 1-2.3 0-2.3z"/><path fill="#BFA57F" d="M8 3.7c-.6 0 .2.2.5 0H8z"/><path d="M8.2 3.9c-.8 0-.3-.1.1-.1-.1 0-.1.1-.1.1zm-.5-.2c.1.3.4.2.6.1-.3.1-.3-.1-.6-.1z"/><path fill="#B0B27E" d="M8.3 3.8s-.1 0-.1.1c.1-.1.1-.2.1-.1z"/><path d="M8.2 3.9v-.2c0 .1.1 0 0 .2zm.1-.2c-.1.1-.1.1 0 0-.1.1 0 .1 0 0z"/><path fill="#B0B27E" d="M7.7 3.8s.1 0 0 0c.2.2-.1-.2 0 0z"/><path d="M7.8 3.9c0-.1 0 0-.1-.2.1.1.1.2.1.2zm-.1-.2c0 .1.1.1 0 0z"/><path fill="#FFF" d="M7.9 6.2v.3-.3z"/><path d="M7.9 6.5c0-.1-.1-.4.1-.3l-.1.3zm0-.3v.3-.3z"/><path fill="#FFF" d="M8 6.2c-.6 0 .1-.2.3 0H8z"/><path fill="#BFA57F" d="M8 6.2c-.6 0 .1-.2.3 0H8z"/><path d="M8 6.2h-.3c1.2.1-.8-.2.5 0H8z"/><path fill="#B0B27E" d="M8.3 6.1s-.1 0-.1-.1c.1.1.1.2.1.1z"/><path d="M8.3 6.2c-.1-.1-.1-.2-.1-.2 0 .1.1.1.1.2zm-.1-.1.1.1-.1-.1z"/><path fill="#B0B27E" d="M7.7 6.1c.1-.1.1 0 0 0 0 .1 0 .1 0 0 0 .1 0 0 0 0z"/><path d="M7.7 6.2c0-.1.1-.1.1-.2 0 0 0 .1-.1.2zm0 0c.1-.1.1-.2.1-.2 0 .1 0 .2-.1.2z"/><path fill="#DCDCDC" d="M7 6.4c0-.1 2.3.1 2.1-.1-.1 0-2.8.1-2.1.1z"/><path d="M7 6.4c-.1 0-.1-.1-.2-.1 1.8-.3 3.1.1.2.1zm-.2 0c0-.1 2.4.1 2.2-.1-.1 0-2.2-.1-2.2.1z"/><path fill="#DCDCDC" d="M7.2 6.4c-.2.4-.4-1 .1-.3-.2 0-.2.1-.1.3z"/><path d="M7.1 6.6c0-.2-.4-.7 0-.7.4-.1 0 .7 0 .7zm0-.6c-.4 0 .1.2-.1.5 0 .3.4-.6.1-.5z"/><path fill="#8D4B23" d="M8.7 6.2H7.3h1.4z"/><path d="M8.7 6.2H7.3h1.4zm0 0H7.3h1.4z"/><path fill="#8D4B23" d="M8.7 6.2H7.3h1.4z"/><path d="M8.7 6.3H7.3h1.4zm0-.1H7.3h1.4z"/><path fill="#8D4B23" d="M8.7 6.3H7.2h1.5z"/><path d="M8.7 6.3H7.2h1.5zm0 0H7.3h1.4z"/><path fill="#8D4B23" d="M8.7 6.3H7.2h1.5z"/><path d="M8.7 6.3H7.2h1.5zm0 0H7.2h1.5z"/><path fill="#8D4B23" d="M8.7 6.3H7.2h1.5z"/><path d="M8.7 6.4H7.2h1.5zm0-.1H7.2h1.5z"/><path fill="#8D4B23" d="M8.7 6.5H7.3h1.4z"/><path d="M8.7 6.5H7.3h1.4zm0 0H7.3h1.4z"/><path fill="#8D4B23" d="M8.7 6.4H7.3h1.4z"/><path d="M8.7 6.5H7.3h1.4zm0-.1H7.3h1.4z"/><path fill="#8D4B23" d="M8.7 6.4H7.2h1.5z"/><path d="M8.7 6.4H7.2h1.5zm0 0H7.3h1.4z"/><path fill="#8D4B23" d="M8.7 6.4H7.2h1.5z"/><path d="M8.7 6.4H7.2h1.5zm0 0H7.2h1.5z"/><path fill="#DCDCDC" d="m7.5 6.5.3-.3-.3.3z"/><path d="m7.5 6.5.3-.3-.3.3zm0 0 .3-.3-.3.3z"/><path fill="#DCDCDC" d="m7.5 6.2.3.3-.3-.3z"/><path d="m7.8 6.5-.3-.3.3.3zm-.3-.3.3.3-.3-.3z"/><path fill="#FFF" d="M7.4 6.5v-.3c-.1.1-.1.2 0 .3z"/><path d="M7.4 6.5c-.1-.1-.1-.2 0-.3v.3zm0-.3c-.1.1-.1.2 0 .3v-.3z"/><path fill="#FFF" d="M8.6 6.5v-.3.3z"/><path d="M8.6 6.5v-.3.3zm0-.3v.3-.3z"/><path fill="#DCDCDC" d="M8.1 6.2v.3-.3z"/><path d="M8.1 6.5 8 6.2c.2-.1.1.2.1.3zm0-.3v.3-.3z"/><path fill="#DCDCDC" d="m8.5 6.5-.3-.3.3.3z"/><path d="M8.5 6.5c0 .1-.2-.2-.3-.3l.3.3zm-.1 0c.1.1-.2-.3-.2-.3l.2.3z"/><path fill="#FFF" d="m8.5 6.2-.4.3.4-.3z"/><path d="M8.2 6.5c.1 0 .3-.4.4-.3l-.4.3zm.3-.3s-.2.2-.4.3l.4-.3zM8 4.1c0 .1 0 .1 0 0 0 .1 0 .1 0 0 0 .1 0 .1 0 0 0 .1 0 .1 0 0 0 .1 0 .1 0 0 0 .1 0 .1 0 0 0 .1 0 .1 0 0 0 .1.1.1 0 0 .1.1.1.1 0 0 0 .1 0 .1 0 0 0 .1 0 .1 0 0 0 .1 0 .1 0 0 .1.1.1.1 0 0 .1.1.1.1 0 0 .1.1.1.1 0 0 .1.1 0 .1 0 0 .1 0 .1 0 0 0 .1 0 .1 0 0 0 .1 0 .1 0 0 0 .1 0 .1 0 0 0zm-.1 0s.1 0 0 0c.1 0 .1 0 0 0zm0 .1s.1 0 0 0c.1 0 .1 0 0 0 .1 0 .1 0 0 0 .1 0 .1 0 0 0 .1 0 .1 0 0 0zm0 0s.1 0 0 0zm.1 0s-.1 0 0 0zm-.1 1.3v.2-.2z"/><path fill="#FFF" d="M8 5.5c0-.1 0-.1 0 0 0-.1 0-.1 0 0 0-.1 0-.1 0 0 0-.1 0-.1 0 0 .1-.1 0-.1 0 0 0-.1 0 0 0 0z"/><path d="M8 5.5c0-.1 0-.1 0 0z"/><path fill="#FFF" d="M8 5.7v-.4.4z"/><path d="M8 5.7v-.4.4z"/><path fill="#FFF" d="M8 5.4c0 .1 0 .1 0 0 0 .1 0 .1 0 0 0 .1 0 .1 0 0 0 0-.1 0 0 0z"/><path d="M8 5.5c0-.1-.1-.1 0 0 0-.1 0-.1 0 0z"/><path fill="#FFF" d="M8 5.6c0 .1 0 .1 0 0 0 .1 0 .1 0 0 0 .1 0 .1 0 0z"/><path d="M8 5.7c0-.1 0-.1 0 0z"/><path fill="#FFF" d="M8 5.5c0 .1 0 .1 0 0z"/><path d="M8 5.7c0-.1 0-.1 0 0v-.2.2c0-.1 0-.1 0 0zm0-.1c0-.1 0-.1 0 0zm.1.1c0-.1.1-.1.1-.2.1.4 0-.2-.1.2z"/><path fill="#F3D02F" d="M7.7 5.7s.1.1 0 0c.2.2.4.1.6.1.4-.2-.6-.1-.6-.1z"/><path d="M8.1 5.8c-.1 0-.3 0-.4-.1.2 0 1.2 0 .4.1zm-.2 0c.9 0 .2-.2-.2-.1.1 0 .1.1.2.1-.1 0-.1 0 0 0z"/><path fill="#FFF" d="M7.9 5.4c.1 0 0 0 0 0z"/><path d="M8 5.4c.1 0 0 0 0 0zm.1 0H8h.1z"/><path fill="#DCDCDC" d="M7.9 6.2v.3-.3z"/><path d="m8 6.5-.1-.3c.2-.1.1.2.1.3zm-.1-.3v.3-.3z"/><path fill="#DCDCDC" d="M6.1 3.3c.6.9.5-.1 0 0 0-.1 0-.1 0 0z"/><path d="M6.4 3.6c-.1 0-.1 0 0 0 .2-.1-.3.1-.2-.4.4.2.7-.2.2.4zm-.1-.1c-.1 0-.1 0 0 0-.1 0 .3.1.2-.1 0 .3-.7-.4-.2.1z"/><path d="M6.3 3.5c.1 0 .1 0 0 0 .1 0 .1-.1 0 0 .1-.1.1 0 0 0 .1 0 .1 0 0 0z"/><path fill="#DCDCDC" d="M9.9 3.3c-.5.9-.6 0 .1-.1-.1 0-.1 0-.1.1z"/><path d="M9.6 3.6c-.3-.2.1-.6 0 0 .4-.7.2 0 0 0 .1-.2.2-.1 0 0 .1 0 .1 0 0 0zm0-.3c-.2.2.1.3.3.3-.4 0-.1-.1.1-.2-.1-.4-.5.1-.4-.1z"/><path fill="#F3D02F" d="M7.5 4.3c-.1 0-.1 0 0 0-.1 0-.1 0 0 0 0-.1 0 0 0 0zm.1-.1c.1 0 .1 0 0 0 .1 0 .1 0 0 0zm.8.1s0-.1 0 0c0-.1 0-.1 0 0 0-.1 0-.1 0 0 0-.1 0-.1 0 0 0-.1 0 0 0 0zm.1 0c.1 0 .1 0 0 0 .1 0 .1.1 0 0zm.1 0c-.1 0-.1 0 0 0-.1 0-.1 0 0 0z"/></svg>