<svg version="1.0" xmlns="http://www.w3.org/2000/svg" width="16" height="10" xml:space="preserve"><path fill="#1F189B" d="M16 0H0v3.1h16V0zm0 6.2H0v3.1h16V6.2z"/><path d="M7.727 5.1zm0 0zM7.727 5.1v.1-.1zM7.827 5.1c-.1 0-.1.1 0 0 0 .1 0 0 0 0zm0 .1c-.1 0 0-.1 0 0zM7.827 5.2zM7.927 5.2c-.1 0-.1 0 0 0zM7.927 5.2zM7.927 5.2zM7.927 5.2zm0 0c.1 0 .1 0 0 0zM8.027 5.2zM8.027 5.2zM8.127 5.2zM8.127 5.2zm0 0zm0 0zM8.127 5.2zM8.227 5.2c-.1-.1-.1 0 0 0 0 0-.1 0 0 0zm-.1 0s.1 0 0 0zM8.227 5.1zM8.227 5.2s0-.1 0 0zm0-.1zM8.227 5.1s.1 0 0 0zm0 0s.1 0 0 0z"/><g fill="#E60000"><path d="M7.527 5.3s.1 0 0 0c.1-.1 0-.1 0 0zM7.527 5.3c0 .1 0 .1 0 0zM7.327 5.1zM7.227 5.1zM7.227 4.8zM7.127 4.8c0 .1 0 .1 0 0zM7.227 4.6zM7.127 4.3c0 .1 0 .1 0 0zM7.227 4.3s0 .1 0 0c0 .1 0 0 0 0zm0 .1zM7.327 4.2c0-.1 0-.1 0 0zM7.227 4.1zm0 0zM7.327 4s.1 0 0 0c.1-.1 0-.1 0 0zm0 0c.1 0 0 0 0 0zM7.127 4.6zM8.427 5.3c0-.1 0-.1 0 0zM8.427 5.3c0 .1 0 .1 0 0zM8.627 5.1zM8.727 5.1zM8.727 4.8zM8.827 4.8c0 .1 0 .1 0 0zM8.727 4.6s.1 0 0 0c.1 0 0 0 0 0zM8.827 4.3c0 .1 0 .1 0 0zM8.727 4.4c0-.1 0-.1 0 0zm0 0zM8.627 4.2s.1 0 0 0c.1-.1 0-.1 0 0zM8.727 4.1zm0 0zM8.627 3.9c-.1 0-.1.1 0 0 0 .1 0 0 0 0zm0 .1zM8.927 4.6c-.1 0-.1 0 0 0z"/></g><g fill="#1F601A"><path d="M7.227 4.6c-.1 0-.1.1 0 .2 0 0 .1-.1 0-.2 0 .1 0 .1 0 0 0 .1 0 0 0 0zM7.827 5.4c0-.1-.2-.3-.2-.2h-.1c0 .1.2.2.3.2-.1 0-.4-.1-.3 0-.1 0-.1 0 0 .1-.1.1.3 0 .3-.1.1.1 0 0 0 0 .1 0 .1 0 0 0 .1 0 0 0 0 0z"/><path d="M7.527 5.3c.1 0 0-.2 0-.3 0 0-.1.1 0 .1V5s-.1.1 0 .2c0 0-.1-.1-.1 0-.1 0 0 .1 0 .1-.3 0 0 .1.1 0zm0 0zM7.327 5.1c0-.1.1-.2 0-.2V5v-.1s-.1.1 0 .2c-.1-.2-.2-.2-.2-.2V5h-.1c.1 0 .2.1.3.1zm0-.1zM7.127 4.8c.1 0 .1 0 0 0 0-.1 0-.2-.1-.2v.1h-.1c.1 0 .1.1.2.1zM7.027 4.5s.1.1 0 0c.1 0 .2 0 .2-.1v-.1c-.1.1-.1.1-.1.2v-.2.1c-.1-.1-.1.1-.1.1zm.1 0zM7.127 4.3c.1 0 .1 0 0 0 .1 0 .1-.1.1-.1 0-.1 0 0-.1 0v-.1.2zM7.227 4.1s.1 0 0 0c.1 0 0 0 0 0 .1 0 .3-.1.1-.1 0-.1 0-.1 0 0l-.1.1zM8.427 5.4h-.3c.1 0 .3-.1.3 0 0-.2-.1-.2-.1-.1 0-.2-.2.2-.2.2h.2-.1c-.1 0 .3.1.2-.1 0 0 .1 0 0 0zM8.727 5.2c0-.1-.1-.1-.1 0V5v.1V5c0 .1-.1.3 0 .2 0 .1 0 0 0 0h-.1c0 .2.3.1.2 0-.1.1-.1.1 0 0zm-.3.1zM8.927 4.9c-.1 0-.1 0-.2.1v-.2.1-.1c-.1.1 0 .2 0 .2-.1.1.1.1.2-.1-.1 0-.1 0 0 0zm-.2.1zM8.727 4.7l.1.1c.1-.1.1-.2 0-.3-.1.1-.1.2-.1.2z"/><path d="M8.927 4.7s0-.1 0 0c-.1 0-.1 0-.2.2.2-.1.2-.1.2-.2zM8.827 4.5c0-.1 0-.1 0 0-.1-.1-.1-.1 0 0h-.1c0 .1.1.1.1.2.1-.1.2-.4 0-.2l.1-.1c-.1 0-.1 0-.1.1zm0 0zM8.627 4.2c0 .1.1.1.1.1v-.2.1s0-.1-.1 0c.1 0 0 0 0 0zM8.527 4l.1.1c.1 0 .1-.1-.1-.1.1 0 .1 0 0 0 .1 0 .1 0 0 0 .1 0 0 0 0 0z"/></g><path d="M7.527 5.3s.1 0 0 0c.1 0 0 0 0 0zM7.227 5.1s.1 0 0 0c.1 0 .1 0 0 0zM8.427 5.4c0-.1 0-.1 0 0 0-.1 0-.1 0 0zM8.727 5.1c0-.1.1-.1.2-.2-.1 0-.2.1-.2.2 0-.1 0-.2.1-.2 0-.1 0-.1.1-.2h.1-.1v-.5.2s-.1-.1-.1-.2l-.2-.2s.1.1.1.2c.1 0 .1.1.1.2h-.1c.1 0 .1.1.1.2-.1 0-.1-.1-.1-.1 0 .1.1.1.1.2-.1-.1 0 .1 0 .2v-.2.2c0-.1 0-.1-.1-.1 0 0 0 .1.1.1V5c0-.1-.1 0-.1.1v-.2.2-.2c-.1 0 0 .2 0 .2-.1 0-.1 0 0 0 0 .1-.1.1-.2.2 0-.1.1-.1.1-.2 0 .1 0 .2-.1.2 0-.1.1-.2 0-.2 0 .1 0 .2-.1.3v-.1c0 .1-.2.1-.2.1l.2-.2c-.1 0-.2.2-.3.2.1 0 .1-.2.2-.2-.2.3-.4.3-.6 0 .1 0 .1.2.2.2-.1 0-.2-.2-.3-.2.1 0 .1.1.2.2-.1 0-.3 0-.2-.1v.1c-.1 0-.1-.2-.1-.3v.2c-.1 0-.1-.2-.1-.2 0 .1 0 .1.1.2-.1 0-.2-.1-.1-.2v.1c-.1-.1 0-.2 0-.3v.2c-.1-.1 0-.2 0-.2v.2c0-.1-.1-.1 0-.2-.3-.2-.2-.4-.3-.3 0-.1.1-.1.1-.2 0 0 0 .1-.1.1 0-.1 0-.2.1-.2h-.1c0-.1 0-.2.1-.2h-.1c.2 0 .2-.1.2-.1s-.1.1-.1.2l-.1.1v-.2V4.4v-.1V4.6h-.1.1c0 .1 0 .2.1.2h-.1c.1 0 .1.2.1.2l-.1-.1c.1.1.1.3.4.4-.1 0-.2-.1-.2-.1.2.1.4.2.7.3-.1 0-.2.1-.2.1.1-.1.3-.1.5 0-.2-.1-.2-.1-.3-.1h.5-.3c.2-.1.4-.1.5-.2 0 0-.1.1-.2.1 0-.2.1-.2.2-.3zm-.1-1.1zM7.727 5.4h-.1.1z"/><path d="M7.627 5.4h.2c-.1 0-.3.1-.2 0-.1 0-.1.1 0 0zM7.827 5.5s.1 0 0 0h-.2.2zM7.527 5.5zM7.727 5.4l-.1-.1.1.1zM7.427 5.2s-.1-.1 0 0c-.1-.1 0 0 0 0zM7.527 5.3h-.3.3zM7.127 5s-.1-.1 0 0c0-.1 0 0 0 0zM7.127 4.8l-.1-.1.1.1zM7.227 4.8c0-.1 0-.1 0 0 0-.1 0 0 0 0zM7.227 4.6v.2-.2zM7.027 4.6c.1 0 .1.1.2.2-.1-.1-.1-.2-.2-.2zM7.027 4.4s0 .1 0 0c0 .1 0 0 0 0zM7.227 4.5s-.1 0 0 0c0-.1 0-.2 0 0zM7.127 4.5v-.1.1zM7.327 4.2l-.1.1.1-.1zM7.327 4.1s.1-.1 0 0c.1-.1 0 0 0 0zM7.327 4.1s0-.1 0 0zM7.327 4s0 .1 0 0c0 .1 0 .1 0 0zM8.227 5.4h.1-.1zM8.427 5.5zM8.327 5.5h-.2.2zM8.227 5.4l.1-.1-.1.1zM8.527 5.2c.1 0 .1-.1 0 0 .1-.1.1 0 0 0zM8.627 5.3h-.2.2c.1 0 .1 0 0 0zM8.827 5s.1-.1 0 0c.1-.1 0 0 0 0zM8.827 4.8l.1-.1-.1.1zM8.927 4.6c0 .1-.1.2-.1.2 0-.1.1-.2.1-.2zM8.927 4.4s0 .1 0 0c0 .1 0 0 0 0zM8.827 4.5s-.1-.1 0 0c-.1-.1 0 0 0 0zM8.827 4.6c0-.1 0-.2.1-.2 0 0-.1.1-.1.2zM8.827 4.3l-.1-.1s0 .1.1.1zM8.627 4.1s-.1-.1 0 0c-.1-.1 0 0 0 0zM8.627 4.1s0-.1 0 0c0-.1 0 0 0 0zM8.727 4.1V4c-.1 0 0 .1 0 .1z"/><g fill="#00209F"><path d="M7.927 5.6s0-.1 0 0c0-.1 0 0 0 0zM8.127 5.6c0-.1 0-.1-.1-.2.2 0 0-.3 0 0 0-.1-.1-.2-.1-.1s0 .2.1.1c0 0-.1 0-.1.1v.1c0 .1 0 0 0 0s0-.1.1-.1c0 0 0 .1.1.1zm-.2-.3zm0 .1zm.1 0c-.1 0-.1 0 0 0-.1 0-.1 0 0 0zm-.1-.1zm0 .2zm.1-.1zm0 0c0-.2.1 0 0 0zm0 0s.1 0 0 0c0-.1 0 0 0 0zm0 0c0-.1 0-.1 0 0 0-.1 0-.1 0 0zm0 .1zm.1-.1s-.1 0 0 0c-.1 0 0 0 0 0zm0-.1zm-.2 0zm0 .3zm0-.1zm.1 0zm0 0zm.1.1z"/></g><g fill-rule="evenodd" clip-rule="evenodd" fill="#00209F"><path d="M7.927 3.9c0-.1.1-.2 0-.2v.2zM8.027 3.9s0-.1 0 0c0-.1 0-.1 0 0zM7.727 4.2zM7.627 4.5c0-.2 0-.4-.1-.6 0 .2-.2.5.1.6zM7.527 4.6v-.1.1zM7.427 4.6c0-.1 0-.2-.1-.3 0 .2 0 .4.1.6v-.3zM8.327 4.2c-.1 0-.1 0 0 0 0 .1 0 0 0 0zM8.427 4.5c.2-.1.1-.4.1-.6-.2.1-.1.4-.1.6zM8.427 4.5c0 .1 0 0 0 0zM8.727 4.3c-.2 0-.2.4-.1.6.1-.2.1-.4.1-.6zM8.327 5h-.2.1-.4s.1.1.1 0c-.2.1-.3-.1-.5 0 .2.1.4.1.5 0 0 0-.1.1 0 .1v-.2.2V5c.2.1.4.1.5 0 .1-.1-.1 0-.1 0zm-.4 0zm.1 0zm0 0z"/></g><g fill="#FC0"><path d="M8.027 3.7s0-.1 0 0c0 0 0-.1 0 0 0-.1 0-.1 0 0v-.1s-.1 0 0 .1c-.1-.1 0-.1 0 0-.1-.1-.1-.1 0 0-.1 0 0 0 0 0zm-.1 0zm0-.1c.1 0 .1 0 0 0zm.1 0zm0 0zm0 0zm0 0zm0 0zm0 0zm-.1 0zm0 0zm0 .1zm.1 0zM7.227 4.3c.1 0 .1-.1 0 0 .1-.1.1-.1 0 0 .1-.1.1-.1 0 0 0-.1 0-.1 0 0 0-.1 0 0 0 0s0-.1 0 0c0-.1 0-.1 0 0 0-.1 0 0 0 0 0 .1.1 0 0 0l.3.2c.1 0-.3-.2-.3-.2zm.1-.1s0 .1 0 0c0 .1 0 .1 0 0zm-.1 0c.1 0 .1.1 0 0 0 .1 0 0 0 0zm0 .1zm0 0zm0 0zm0 0zm0 0zm0 0zm0 0zm0 0zm0 0zm.1 0s-.1 0 0 0c-.1 0 0 0 0 0zm-.1 0zM7.327 4.2zM7.427 3.9c.1 0 0-.1 0 0 0 0 0-.1 0 0 0 0 0 .1 0 0 0 .1.1.1 0 0l.3.3-.3-.3zm0 0zm0 0zm0 0zm0 0zm0 .1zm0-.1zm0 .1zm0 0zm.1-.1zm-.1 0c.1-.1.1 0 0 0zM8.527 5c-.1.1-.4.1-.5 0 .1.1.4.1.5 0zM8.827 4.2s-.1 0 0 0c-.1 0-.1.1 0 0-.1.1-.1.1 0 0-.1 0-.2.1 0 0-.1 0-.3.2-.3.2v-.5h-.1l-.3.3.3-.3c0 .2.1.4-.1.5l.5-.2c-.1.2 0 .5-.2.7.1-.2.1-.4.1-.6l.1-.1c-.1.1-.1.1 0 0-.1.1-.1.1 0 0-.1.1-.1 0 0 0zm-.4-.3zm0 0zm.1 0c-.1 0 0-.1 0 0zm0 0zm0 .1zm0-.1zm0 0zm0 0zm0 0s0 .1 0 0zm0 0zm0 0zm0 .1zm0-.1zm0 .1zm.2.3zm0 0zm0 0zm0 0zm0 0c0-.1 0-.1 0 0 0-.1 0 0 0 0zm0 0c-.1-.1 0-.1 0 0zm0 0zm0 0zm0 0zm0 0zm0 0zm0 0zM8.527 3.9z"/></g><path fill="#FC0" d="m8.027 3.8-.7 1.2h1.4l-.7-1.2z"/><path d="M8.627 5h-1.4l.7-1.1c.1-.1.7 1.1.7 1.1zm-1.3-.1h1.3l-.7-1.1-.6 1.1z"/><g fill="#FFF"><path d="m8.027 3.9-.6 1h1.2l-.6-1z"/><path d="M8.627 4.9h-1.2l.6-1 .6 1zm-1.2 0h1.2l-.6-1-.6 1z"/></g><g fill="#007E93"><path d="m7.527 4.6-.2.3h1.2c0-.4-.7-.3-1-.3z"/><path d="M8.627 4.9h-1.2c0-.4 1.1-.4 1.2 0zm-1.2 0h1.2c-.1-.4-1.2-.4-1.2 0z"/></g><path fill="#086AAD" d="M7.927 4.1h.2c-.1-.1-.2-.1-.2 0z"/><path fill="#0863AA" d="M8.127 4.1h-.2c0-.1.1-.1.2 0z"/><path fill="#095FA8" d="M8.127 4.1h-.2c0-.1.1-.1.2 0z"/><path fill="#0A58A5" d="M8.127 4.1h-.2c0-.1.1-.1.2 0z"/><path fill="#0A52A2" d="M8.127 4.1h-.2c0-.1.1-.1.2 0z"/><path fill="#0B4D9F" d="M8.127 4.1h-.2c0-.1.1-.1.2 0z"/><path fill="#0C479D" d="M8.127 4.1h-.2c0-.1.1-.1.2 0z"/><path fill="#270A7F" d="M8.127 4.1c-.1-.1-.2-.1-.2 0 0-.1.1 0 .2 0z"/><path fill="#241183" d="M8.127 4.1c-.1 0-.2-.1-.2 0 0-.1.1 0 .2 0z"/><path fill="#221786" d="M8.127 4.1h-.2c0-.1.1 0 .2 0z"/><path fill="#1F1F8A" d="M8.127 4.1h-.2c0-.1.1-.1.2 0z"/><path fill="#1A258D" d="M8.127 4.1c-.1 0-.2-.1-.2 0 0-.1.1-.1.2 0z"/><path fill="#172D91" d="M8.127 4.1h-.2c0-.1.1-.1.2 0z"/><path fill="#143393" d="M8.127 4.1h-.2c0-.1.1-.1.2 0z"/><path fill="#113B97" d="M8.127 4.1h-.2c0-.1.1-.1.2 0z"/><path fill="#FF0A00" d="M7.927 4h.1-.1z"/><path fill="#F10" d="M7.927 4h.1-.1z"/><path fill="#FF1500" d="M7.927 4h.1-.1z"/><path fill="#FF1A00" d="M7.927 4h.1-.1z"/><path fill="#FF2000" d="M7.927 4h.1-.1z"/><path fill="#FF2700" d="M7.927 4h.1-.1z"/><path fill="#FF2F00" d="M7.927 4h.1-.1z"/><path fill="#F30" d="M7.927 4h.1-.1z"/><path fill="#FF3C00" d="M7.927 4h.1-.1z"/><path fill="#FF4100" d="M7.927 4h.1-.1z"/><path fill="#FF4600" d="M7.927 4h.1-.1z"/><path fill="#FFF500" d="M8.127 4h-.2.2z"/><path fill="#FFEB00" d="M8.027 4h-.2.2z"/><path fill="#FFE000" d="M8.027 4h-.2.2z"/><path fill="#FFD600" d="M8.027 4h-.2.2z"/><path fill="#FFCF00" d="M8.027 4h-.2.2z"/><path fill="#FFC400" d="M8.027 4h-.2.2z"/><path fill="#FFBA00" d="M7.927 4h.2-.2z"/><path fill="#FFB000" d="M8.027 4h-.2.2z"/><path fill="#FFA600" d="M8.027 4h-.2.2z"/><path fill="#FF9C00" d="M7.927 4h.2-.2z"/><path fill="#FF9100" d="M7.927 4h.2-.2z"/><path fill="#FF8700" d="M7.927 4h.2-.2z"/><path fill="#FF7D00" d="M7.927 4h.2-.2z"/><path fill="#FF7500" d="M7.927 4h.2-.2z"/><path fill="#FF6B00" d="M7.927 4h.2-.2z"/><path fill="#FF6100" d="M7.927 4h.2-.2z"/><path fill="#FF5700" d="M7.927 4h.1-.1z"/><path fill="#EBF605" d="M8.127 4h-.2.2z"/><path fill="#D6EC09" d="M8.127 4.1h-.2c0-.1.1-.1.2 0z"/><path fill="#C2E30E" d="M7.927 4.1h.2c-.1-.1-.2-.1-.2 0z"/><path fill="#ADD912" d="M7.927 4.1h.2c-.1-.1-.2-.1-.2 0z"/><path fill="#99CF16" d="M7.927 4.1h.2c-.1-.1-.2-.1-.2 0z"/><path fill="#85C61A" d="M7.927 4.1h.2c-.1-.1-.2-.1-.2 0z"/><path fill="#70BC1F" d="M7.927 4.1h.2c-.1-.1-.2-.1-.2 0z"/><path fill="#5CB323" d="M7.927 4.1h.2c-.1-.1-.2-.1-.2 0z"/><path fill="#47A928" d="M7.927 4.1h.2c-.1-.1-.2-.1-.2 0z"/><path fill="#0D74A4" d="M7.927 4.1h.2c-.1-.1-.2-.1-.2 0z"/><path fill="#127A97" d="M7.927 4.1h.2c-.1-.1-.2-.1-.2 0z"/><path fill="#17808B" d="M7.927 4.1h.2c-.1-.1-.2-.1-.2 0z"/><path fill="#1A847D" d="M7.927 4.1h.2c-.1-.1-.2-.1-.2 0z"/><path fill="#1E8A6D" d="M7.927 4.1h.2c-.1-.1-.2-.1-.2 0z"/><path fill="#238F5E" d="M7.927 4.1h.2c-.1-.1-.2-.1-.2 0z"/><path fill="#2B944E" d="M7.927 4.1h.2c-.1-.1-.2-.1-.2 0z"/><path fill="#2F9B3E" d="M7.927 4.1h.2c-.1-.1-.2-.1-.2 0z"/><path fill="red" d="M7.927 4h.1-.1z"/><path fill="#2A007C" d="M8.127 4.1c-.1-.1-.2-.1-.2 0 0-.1.1 0 .2 0z"/><path fill="#0671B0" d="M7.927 4.1h.2c-.1-.1-.2-.1-.2 0z"/><path fill="#0C419A" d="M8.127 4.1h-.2c0-.1.1-.1.2 0z"/><path fill="#FF0" d="M8.127 4h-.2.2z"/><path fill="#FF4D00" d="M7.927 4h.1-.1z"/><path fill="#33A02C" d="M7.927 4.1h.2c-.1-.1-.2-.1-.2 0z"/><path d="M8.027 4.2zM8.027 4.2zM8.027 4.2zM7.927 4.2s.1 0 0 0c.1 0 .1 0 0 0zM7.927 4.2zM7.927 4.2s0 .1 0 0zM7.927 4.2s0 .1 0 0zM7.927 4.3s0-.1 0 0c0-.1 0 0 0 0zM7.927 4.3s0-.1 0 0c0-.1 0 0 0 0zM7.927 4.2s0 .1 0 0c0 .1 0 0 0 0zM7.927 4.3s0-.1 0 0c0-.1 0 0 0 0zM7.927 4.3s0-.1 0 0c0-.1 0 0 0 0zM7.927 4.3c-.1 0 0 0 0 0zM7.827 4.3s.1 0 0 0c.1 0 0 0 0 0zM7.827 4.3s.1 0 0 0c.1 0 0 0 0 0zM7.827 4.3s.1 0 0 0c.1 0 0 0 0 0zM7.827 4.3s.1 0 0 0c.1 0 0 0 0 0zM7.827 4.3s.1 0 0 0c.1 0 0 0 0 0zM7.827 4.3s.1 0 0 0c.1 0 0 0 0 0zM7.927 4.3s-.1 0 0 0c-.1.1 0 0 0 0zM7.927 4.4c0-.1-.1 0 0 0-.1 0 0 0 0 0zM7.927 4.4s-.1 0 0 0c-.1 0 0 0 0 0zM7.927 4.4s-.1 0 0 0c-.1 0 0 0 0 0zM7.827 4.4s.1 0 0 0c.1 0 0 0 0 0zM7.927 4.4l-.1.1.1-.1zM7.927 4.4s-.1.1 0 0c-.1.1 0 0 0 0zM7.927 4.4s-.1.1 0 0c-.1.1 0 0 0 0zM7.927 4.4l-.1.1c.1 0 .1-.1.1-.1zM7.927 4.4s0 .1 0 0c0 .1 0 0 0 0zM7.927 4.4v.1-.1zM7.927 4.4s0 .1 0 0c0 .1 0 0 0 0zM7.927 4.5v-.1c.1 0 0 .1 0 .1zM8.027 4.4s0 .1 0 0c0 .1 0 0 0 0zM8.027 4.4v.1-.1zM8.027 4.4s0 .1 0 0c0 .1 0 0 0 0zM8.027 4.4l.1.1c-.1 0-.1-.1-.1-.1zM8.027 4.4s.1.1 0 0c.1.1 0 0 0 0zM8.027 4.4l.1.1-.1-.1zM8.127 4.5s-.1-.1 0 0c-.1-.1 0 0 0 0zM8.027 4.4l.1.1-.1-.1zM8.027 4.4s.1 0 0 0c.1 0 0 0 0 0zM8.127 4.4s-.1 0 0 0c-.1 0 0 0 0 0zM8.027 4.4s.1 0 0 0c.1 0 0 0 0 0zM8.127 4.4s-.1-.1 0 0c-.1 0 0 0 0 0zM8.127 4.4s-.1-.1 0 0c-.1-.1 0 0 0 0zM8.127 4.3s-.1 0 0 0c-.1 0 0 0 0 0zM8.127 4.3s-.1 0 0 0c-.1 0 0 0 0 0zM8.127 4.3s-.1 0 0 0c-.1 0 0 0 0 0zM8.027 4.3s.1 0 0 0c.1 0 0 0 0 0zM8.027 4.3s.1 0 0 0c.1 0 0 0 0 0zM8.027 4.3s.1 0 0 0c.1 0 0 0 0 0zM8.027 4.3s.1 0 0 0c.1 0 0 0 0 0zM8.027 4.3s.1 0 0 0c.1 0 0 0 0 0zM8.027 4.3s.1-.1 0 0c.1-.1 0 0 0 0zM8.027 4.2s0 .1 0 0c0 .1.1 0 0 0zM8.027 4.3s0-.1 0 0c0-.1 0 0 0 0zM8.027 4.3s0-.1 0 0c0-.1 0 0 0 0zM8.027 4.3s0-.1 0 0c0-.1 0 0 0 0zM8.027 4.2c0 .1 0 0 0 0zM7.927 4.2s-.1-.1 0 0c-.1-.1 0 0 0 0zM7.827 4.2zM7.827 4.2zM8.127 4.4s.1 0 0 0c.1 0 0 0 0 0zM8.127 4.4s.1 0 0 0c.1 0 0 0 0 0zM8.127 4.3s.1.1 0 0c.1 0 0 0 0 0zM8.127 4.3s.1 0 0 0c.1 0 0 0 0 0zM8.127 4.3s.1 0 0 0c.1 0 0 0 0 0zM8.127 4.2s.1 0 0 0c.1 0 0 0 0 0zM8.127 4.2zM8.127 4.1s0 .1 0 0c0 .1 0 0 0 0z"/><path fill-rule="evenodd" clip-rule="evenodd" fill="#E60000" d="M8.027 4.3s-.1 0 0 0c-.1 0-.1 0 0 0-.1.1 0 .1 0 0z"/><path fill-rule="evenodd" clip-rule="evenodd" fill="#FC0" d="M8.027 4.5v-.1.1z"/><path d="M8.027 4.4c0-.2-.1-.1 0 0-.1 0-.1 0 0 0-.1 0-.1 0 0 0-.1.2 0 .2 0 0zm-.1 0s0-.1 0 0c0-.1 0-.1 0 0 0-.2.1-.1 0 0 .1 0 0 0 0 0zm.1 0c-.1 0 0-.1 0 0zm0 0zm0 .2v-.2.2zm0-.2z"/><g fill-rule="evenodd" clip-rule="evenodd" fill="#E60000"><path d="M7.827 4.4zM7.827 4.4c0-.1 0-.1 0 0 0-.1 0 0 0 0zM7.827 4.3c.1 0 0 0 0 0zM7.827 4.3zM7.827 4.2s0 .1 0 0c0 .1 0 .1 0 0zm0 0zM7.927 4.2c-.1 0-.1 0 0 0 0 0-.1 0 0 0zM7.927 4.2zM7.927 4.2zM7.927 4.2s.1 0 0 0zM8.027 4.2zM8.027 4.2c-.1-.1 0 0 0 0zm0 0zm0 0zM8.027 4.2c0-.1 0 0 0 0zm0 0c0-.1 0 0 0 0zM8.027 4.2c.1 0 0-.1 0 0 .1 0 0 0 0 0zM8.127 4.2c-.1 0 0 .1 0 0zm0 0zM8.127 4.3s0-.1 0 0c0-.1-.1 0 0 0zM8.127 4.3zM8.127 4.3s0 .1 0 0c0 .1 0 0 0 0zm0 0zm0 0zM8.127 4.4zM8.127 4.4z"/></g><g><path d="M8.427 4.9h-1c.4-.1.7-.1 1 0 .1 0 .1 0 0 0z"/></g><g fill="#FC0"><path d="M8.127 4.6c-.1 0-.2-.1-.2 0-.2-.2-.3 0-.4.2H8.427c-.2-.1-.3-.2-.3-.2z"/><path d="M8.227 4.7c.1.1.1.1.2.1h-.1.2c-.1-.1-.2-.2-.3-.1 0-.1 0-.1 0 0 0-.1-.2-.1 0 0zm.1 0z"/></g><path d="M8.127 4.8s.1 0 0 0h.4c-.1 0-.1-.2-.2-.1-.1 0-.2-.1-.4-.1m.2.2c-.1-.1-.2-.1-.2-.2h.1s.1.1.1.2c.1 0 0 0 0 0zm.1 0c-.1-.1-.1-.2-.2-.2.1-.1.2.1.2.2.1-.1.1-.1 0 0 .1-.1.1-.1 0 0zm.1-.1c-.1 0-.1-.1-.2-.1.1-.1.2.1.2.1zm.1 0c-.1 0-.1-.1-.2-.1.1 0 .2.1.2.1z"/><g fill="#00633B"><path d="M7.727 4.5zM7.727 4.5zM7.727 4.5zM7.727 4.5zM7.727 4.5zM7.727 4.6h-.1zM7.627 4.6h.1-.1zM7.627 4.6zM7.627 4.6zM7.527 4.8h-.1.1zM7.627 4.6zM7.627 4.6zM7.627 4.6zM7.627 4.6zM7.627 4.6zM7.627 4.6zM7.627 4.6zM7.627 4.7v-.1l-.1.1zM7.627 4.7h-.1zM7.527 4.7h.1-.1zM7.527 4.7h.1-.1zM7.527 4.7h.1-.1zM7.527 4.7h.1-.1zM7.527 4.7h.1-.1zM7.527 4.7h.1-.1zM7.527 4.7h.1-.1zM7.527 4.7h.1-.1zM7.527 4.7h.1-.1zM7.527 4.7zM7.727 4.6zM7.727 4.6zM7.727 4.6zM7.727 4.6zM7.727 4.6zM7.727 4.6zM7.627 4.7h.1-.1zM7.627 4.7h.1-.1zM7.727 4.7zM7.727 4.7zM7.727 4.7zM7.727 4.7zM7.727 4.7zM7.727 4.7zM7.727 4.7zM7.727 4.7zM7.627 4.7h.1-.1zM7.627 4.7h.1-.1zM7.627 4.7zM7.627 4.8zM7.727 4.6zM7.727 4.6zM7.727 4.6zM7.727 4.7zM7.727 4.7zM7.727 4.7zM7.727 4.7zM7.727 4.7zM7.727 4.7zM7.727 4.7zM7.727 4.7zM7.727 4.7zM7.727 4.7zM7.727 4.7zM7.727 4.7zM7.727 4.8zM7.727 4.8zM7.627 4.8zM7.727 4.8zM7.827 4.8h-.1.1zM7.827 4.8h-.1.1zM7.727 4.7zM7.627 4.7zM7.827 4.5zM7.827 4.6zM7.827 4.6zM7.827 4.6zM7.827 4.6zM7.827 4.6zM7.827 4.6zM7.827 4.6zM7.827 4.6zM7.827 4.6zM7.827 4.6zM7.827 4.6zM7.827 4.6zM7.827 4.6v.1-.1zM7.827 4.7zM7.827 4.7zM7.827 4.7zM7.827 4.7zM7.827 4.7zM7.827 4.7zM7.827 4.7h.1-.1zM7.827 4.7h.1-.1zM7.827 4.7h.1-.1zM7.827 4.7h.1l-.1.1zM7.927 4.8h-.1.1zM7.827 4.7zM7.827 4.7zM7.827 4.8h.1-.1zM7.927 4.8zM7.927 4.8zM7.927 4.7zM7.927 4.7h.1-.1zM8.027 4.7zM8.027 4.7h-.1zM8.027 4.7zM8.027 4.7zM8.027 4.8zM8.027 4.8zM8.027 4.8h.1-.1zM8.127 4.8zM7.927 4.6zM7.927 4.6zM7.927 4.6zM7.927 4.6zM7.927 4.6zM7.927 4.6zM7.927 4.6zM7.927 4.6zM7.927 4.6h.1-.1zM7.927 4.6h.1-.1zM8.027 4.6zM8.027 4.6zM8.027 4.7zM8.027 4.7zM8.027 4.7zM8.027 4.7h.1-.1zM8.027 4.7h.1-.1zM8.127 4.7h-.1.1zM8.127 4.7h-.1.1zM8.127 4.7zM8.127 4.7zM8.127 4.7zM8.127 4.7zM8.127 4.8v-.1.1zM8.127 4.8zM7.927 4.6zM7.927 4.6zM8.027 4.7zM8.027 4.7zM8.027 4.7zM7.927 4.6zM8.027 4.6zM8.027 4.6zM8.027 4.6zM8.027 4.6zM8.027 4.6zM8.027 4.6zM8.027 4.6h.1-.1zM8.027 4.6h.1-.1zM8.027 4.6h.1-.1zM8.127 4.6zM8.127 4.6zM8.127 4.6zM8.127 4.7zM8.127 4.7zM8.127 4.7zM8.127 4.7h.1-.1zM8.227 4.7zM8.227 4.7h-.1zM8.227 4.7h-.1zM8.227 4.7zM8.227 4.7zM8.227 4.7zM8.227 4.7zM8.227 4.7zM8.227 4.7v.1-.1zM8.027 4.6zM8.027 4.6zM8.127 4.7zM8.127 4.7zM8.127 4.7zM8.027 4.6zM8.127 4.6zM8.127 4.6zM8.127 4.6zM8.127 4.6zM8.127 4.6zM8.127 4.6h.1-.1zM8.127 4.6h.1-.1zM8.227 4.6zM8.227 4.6zM8.227 4.7zM8.227 4.7zM8.227 4.7zM8.227 4.7zM8.227 4.7zM8.227 4.7zM8.227 4.7zM8.227 4.7h.1-.1zM8.227 4.7h.1-.1zM8.327 4.7zM8.227 4.7h.1-.1zM8.327 4.7h-.1zM8.327 4.7zM8.327 4.7zM8.327 4.7zM8.327 4.7zM8.127 4.6zM8.127 4.6zM8.227 4.7zM8.227 4.7zM8.227 4.7zM8.127 4.6zM8.227 4.6zM8.227 4.6zM8.227 4.6zM8.227 4.6h.1-.1zM8.227 4.6h.1-.1zM8.227 4.6h.1-.1zM8.227 4.6h.1-.1zM8.327 4.6zM8.327 4.6zM8.327 4.7zM8.327 4.7zM8.327 4.7zM8.327 4.7zM8.327 4.7zM8.327 4.7zM8.327 4.7zM8.327 4.7zM8.327 4.7h.1-.1zM8.327 4.7h.1-.1zM8.327 4.7h.1-.1zM8.427 4.7h-.1.1zM8.427 4.7h-.1.1zM8.427 4.7zM8.427 4.7zM8.427 4.7zM8.227 4.6zM8.227 4.6zM8.327 4.7zM8.327 4.7zM8.327 4.7zM8.227 4.6z"/></g><g><path d="M8.627 4.9h-1.2l.6-1 .6 1zm-1.2 0h1.2l-.6-1-.6 1z"/></g><g fill-rule="evenodd" clip-rule="evenodd" fill="#FC0"><path d="M7.527 5.6c0-.2-.2.1 0 0 0 .1.1-.1 0 0zm-.1.1c0-.1 0-.1 0 0zM7.327 5.5c0 .1 0 .1-.1.1.1.1.3-.1.1-.1zM7.327 5.4c-.3 0 0 .2 0 0zm-.1.1s0-.1 0 0z"/><path d="M7.127 5.3c-.2.2.2-.1 0 .1.1.1.2-.2 0-.1zM7.127 5.2c0-.1-.1 0 0 0-.3.1.1.1 0 0zm-.1.1s0-.1 0 0zm0-.1s.1 0 0 0z"/><path d="M7.027 5.1c-.3.1.2.1 0 0zM7.027 5l-.1.1c-.1 0 .1-.1.1-.1zM6.927 4.9c0-.1-.1.2-.1 0-.1.1.2.2.1 0zM6.927 4.8c-.1 0 0-.1 0-.1-.2.1 0 .2 0 .1zm-.1 0s.1 0 0 0c.1 0 0 0 0 0zM6.927 4.5c-.1-.2-.3.1 0 0 0 .1 0 0 0 0zm0 0c-.1-.1 0 0 0 0z"/><path d="M6.927 4.3c-.1 0-.1.1-.1 0-.1.1.2.2.1 0zM7.027 4.2h-.1c-.2-.1.1.1.1 0zM7.027 4.1c0-.1 0 0 0 0-.3-.2 0 .1 0 0zM7.127 3.9c.2 0-.3-.1 0 0z"/><path d="M7.227 3.9c-.1-.1 0-.1 0 0-.1-.3-.1 0 0 0zm-.1-.1s.1 0 0 0zM7.327 3.7c-.2-.2-.1.2 0 0zM7.427 3.7c-.1-.2 0 0-.1-.1l.1.1zM7.527 3.5c0 .2 0 .1.1.1 0 0-.1-.2-.1-.1zm0 0s0 .1 0 0c0 .1 0 0 0 0zM7.627 3.4c0 .3.2 0 0 0zm0 .1c0-.1.2 0 0 0zM7.827 3.4c-.1 0-.1.2 0 .2.1-.1.1-.2 0-.2zm0 .1s0-.1 0 0c.1-.1.1 0 0 0zM8.027 3.4c-.1-.2-.1.1 0 .1v-.1zm0 0zM8.227 3.5c.2.1-.1 0 0 0 0-.1.1-.1 0 0zM8.427 3.6c.1-.3 0 .1-.1-.2 0 .3.1 0 .1.2zM8.627 3.7c-.1 0 .1-.1 0-.1 0 0-.1.1 0 .1z"/><path d="M8.627 3.7c.1 0 .1.1 0 0 .2-.1 0-.1 0 0zm.1 0zM8.827 3.9c.1.2.3-.1 0 0zm.1 0s0 .1 0 0zM8.927 4.1c.2-.1-.1 0 .1 0-.1.2.2-.3-.1 0zM9.027 4.3s.1-.1.1 0c.1-.2-.2-.1-.1 0z"/><path d="M9.027 4.3s.1 0 0 0c-.1.3.4-.1 0 0zm.1 0c.1.1 0 .1 0 0z"/><path d="M9.027 4.5h.1c.1-.1-.1-.1-.1 0z"/><path d="M9.227 4.6c.1-.2-.3-.1-.1 0-.1-.1.1 0 .1 0zM9.027 4.7c.1 0 0 .1 0 .1.3 0 .1-.2 0-.1zm.1 0zM9.127 5c-.3.1.1 0 0 .1V5z"/><path d="M8.927 5.1h.1c0 .2.1-.2-.1 0zM8.927 5.2c-.3.2.3.1 0 0z"/><path d="M8.827 5.4c-.1-.2 0 0 0 0 0 .1.1-.1 0 0zM8.727 5.4c.1.1-.1 0 0 0 .1.2.1.1 0 0zm0 .1c.1 0 0 0 0 0zM8.627 5.5c0 .1-.1 0 0 0 0 .2.1 0 0 0zm0 .1s-.1 0 0 0c0-.1 0 0 0 0zM8.427 5.6c.2.3.1-.2 0 0z"/></g></svg>