<svg width="16" height="10" viewBox="0 0 16 10" fill="none" xmlns="http://www.w3.org/2000/svg">
<path d="M16 8.61523H0V9.33514H16V8.61523Z" fill="#CB001C"/>
<path d="M16 7.89453H0V8.61444H16V7.89453Z" fill="white"/>
<path d="M16 7.17969H0V7.89482H16V7.17969Z" fill="#CB001C"/>
<path d="M16 6.45996H0V7.17987H16V6.45996Z" fill="white"/>
<path d="M16 5.74512H0V6.46502H16V5.74512Z" fill="#CB001C"/>
<path d="M16 5.02539H0V5.74053H16V5.02539Z" fill="white"/>
<path d="M16 4.30566H0V5.02557H16V4.30566Z" fill="#CB001C"/>
<path d="M16 3.58984H0V4.30498H16V3.58984Z" fill="white"/>
<path d="M16 2.87012H0V3.59002H16V2.87012Z" fill="#CB001C"/>
<path d="M16 2.1543H0V2.8742H16V2.1543Z" fill="white"/>
<path d="M16 1.43457H0V2.15447H16V1.43457Z" fill="#CB001C"/>
<path d="M16 0.714844H0V1.43475H16V0.714844Z" fill="white"/>
<path d="M16 0H0V0.719906H16V0Z" fill="#CB001C"/>
<path d="M7.30871 0H0V5.02503H7.30871V0Z" fill="#2A3560"/>
<path d="M0.662602 0.552734L0.724583 0.743438H0.924813L0.762731 0.862628L0.824712 1.04856L0.662602 0.93414L0.50052 1.04856L0.562501 0.862628L0.400391 0.743438H0.600621L0.662602 0.552734Z" fill="white"/>
<path d="M0.662602 1.39258L0.724583 1.58328H0.924813L0.762731 1.6977L0.824712 1.88841L0.662602 1.77398L0.50052 1.88841L0.562501 1.6977L0.400391 1.58328H0.600621L0.662602 1.39258Z" fill="white"/>
<path d="M0.662602 2.23145L0.724583 2.42215H0.924813L0.762731 2.53657L0.824712 2.72727L0.662602 2.61285L0.50052 2.72727L0.562501 2.53657L0.400391 2.42215H0.600621L0.662602 2.23145Z" fill="white"/>
<path d="M0.662602 3.07031L0.724583 3.26101H0.924813L0.762731 3.37544L0.824712 3.56614L0.662602 3.45172L0.50052 3.56614L0.562501 3.37544L0.400391 3.26101H0.600621L0.662602 3.07031Z" fill="white"/>
<path d="M0.662602 3.90918L0.724583 4.09988H0.924813L0.762731 4.2143L0.824712 4.40501L0.662602 4.29059L0.50052 4.40501L0.562501 4.2143L0.400391 4.09988H0.600621L0.662602 3.90918Z" fill="white"/>
<path d="M1.24952 0.996094L1.30675 1.1868H1.50698L1.34487 1.30122L1.40685 1.49192L1.24952 1.3775L1.08743 1.49192L1.14464 1.30122L0.987305 1.1868H1.18756L1.24952 0.996094Z" fill="white"/>
<path d="M1.24952 1.83496L1.30675 2.0209H1.50698L1.34487 2.14009L1.40685 2.33079L1.24952 2.21637L1.08743 2.33079L1.14464 2.14009L0.987305 2.0209H1.18756L1.24952 1.83496Z" fill="white"/>
<path d="M1.24952 2.6748L1.30675 2.86551H1.50698L1.34487 2.97993L1.40685 3.17063L1.24952 3.05144L1.08743 3.17063L1.14464 2.97993L0.987305 2.86551H1.18756L1.24952 2.6748Z" fill="white"/>
<path d="M1.24952 3.51367L1.30675 3.70438H1.50698L1.34487 3.8188L1.40685 4.0095L1.24952 3.89031L1.08743 4.0095L1.14464 3.8188L0.987305 3.70438H1.18756L1.24952 3.51367Z" fill="white"/>
<path d="M1.83559 0.552734L1.90235 0.743438H2.0978L1.94047 0.862628L2.00245 1.04856L1.83559 0.93414L1.67825 1.04856L1.74024 0.862628L1.57812 0.743438H1.77838L1.83559 0.552734Z" fill="white"/>
<path d="M1.83559 1.39258L1.90235 1.58328H2.0978L1.94047 1.6977L2.00245 1.88841L1.83559 1.77398L1.67825 1.88841L1.74024 1.6977L1.57812 1.58328H1.77838L1.83559 1.39258Z" fill="white"/>
<path d="M1.83559 2.23145L1.90235 2.42215H2.0978L1.94047 2.53657L2.00245 2.72727L1.83559 2.61285L1.67825 2.72727L1.74024 2.53657L1.57812 2.42215H1.77838L1.83559 2.23145Z" fill="white"/>
<path d="M1.83559 3.07031L1.90235 3.26101H2.0978L1.94047 3.37544L2.00245 3.56614L1.83559 3.45172L1.67825 3.56614L1.74024 3.37544L1.57812 3.26101H1.77838L1.83559 3.07031Z" fill="white"/>
<path d="M1.83559 3.90918L1.90235 4.09988H2.0978L1.94047 4.2143L2.00245 4.40501L1.83559 4.29059L1.67825 4.40501L1.74024 4.2143L1.57812 4.09988H1.77838L1.83559 3.90918Z" fill="white"/>
<path d="M2.42237 0.996094L2.48435 1.1868H2.68458L2.5225 1.30122L2.58448 1.49192L2.42237 1.3775L2.26029 1.49192L2.32224 1.30122L2.16016 1.1868H2.36039L2.42237 0.996094Z" fill="white"/>
<path d="M2.42237 1.83496L2.48435 2.0209H2.68458L2.5225 2.14009L2.58448 2.33079L2.42237 2.21637L2.26029 2.33079L2.32224 2.14009L2.16016 2.0209H2.36039L2.42237 1.83496Z" fill="white"/>
<path d="M2.42237 2.6748L2.48435 2.86551H2.68458L2.5225 2.97993L2.58448 3.17063L2.42237 3.05144L2.26029 3.17063L2.32224 2.97993L2.16016 2.86551H2.36039L2.42237 2.6748Z" fill="white"/>
<path d="M2.42237 3.51367L2.48435 3.70438H2.68458L2.5225 3.8188L2.58448 4.0095L2.42237 3.89031L2.26029 4.0095L2.32224 3.8188L2.16016 3.70438H2.36039L2.42237 3.51367Z" fill="white"/>
<path d="M3.0133 0.552734L3.07528 0.743438H3.27551L3.11343 0.862628L3.17541 1.04856L3.0133 0.93414L2.85122 1.04856L2.9132 0.862628L2.75586 0.743438H2.95132L3.0133 0.552734Z" fill="white"/>
<path d="M3.0133 1.39258L3.07528 1.58328H3.27551L3.11343 1.6977L3.17541 1.88841L3.0133 1.77398L2.85122 1.88841L2.9132 1.6977L2.75586 1.58328H2.95132L3.0133 1.39258Z" fill="white"/>
<path d="M3.0133 2.23145L3.07528 2.42215H3.27551L3.11343 2.53657L3.17541 2.72727L3.0133 2.61285L2.85122 2.72727L2.9132 2.53657L2.75586 2.42215H2.95132L3.0133 2.23145Z" fill="white"/>
<path d="M3.0133 3.07031L3.07528 3.26101H3.27551L3.11343 3.37544L3.17541 3.56614L3.0133 3.45172L2.85122 3.56614L2.9132 3.37544L2.75586 3.26101H2.95132L3.0133 3.07031Z" fill="white"/>
<path d="M3.0133 3.90918L3.07528 4.09988H3.27551L3.11343 4.2143L3.17541 4.40501L3.0133 4.29059L2.85122 4.40501L2.9132 4.2143L2.75586 4.09988H2.95132L3.0133 3.90918Z" fill="white"/>
<path d="M3.59915 0.996094L3.66114 1.1868H3.86137L3.69925 1.30122L3.76124 1.49192L3.59915 1.3775L3.43704 1.49192L3.49902 1.30122L3.33691 1.1868H3.53717L3.59915 0.996094Z" fill="white"/>
<path d="M3.59915 1.83496L3.66114 2.0209H3.86137L3.69925 2.14009L3.76124 2.33079L3.59915 2.21637L3.43704 2.33079L3.49902 2.14009L3.33691 2.0209H3.53717L3.59915 1.83496Z" fill="white"/>
<path d="M3.59915 2.6748L3.66114 2.86551H3.86137L3.69925 2.97993L3.76124 3.17063L3.59915 3.05144L3.43704 3.17063L3.49902 2.97993L3.33691 2.86551H3.53717L3.59915 2.6748Z" fill="white"/>
<path d="M3.59915 3.51367L3.66114 3.70438H3.86137L3.69925 3.8188L3.76124 4.0095L3.59915 3.89031L3.43704 4.0095L3.49902 3.8188L3.33691 3.70438H3.53717L3.59915 3.51367Z" fill="white"/>
<path d="M4.19092 0.552734L4.2529 0.743438H4.45313L4.29102 0.862628L4.353 1.04856L4.19092 0.93414L4.02881 1.04856L4.09079 0.862628L3.92871 0.743438H4.12894L4.19092 0.552734Z" fill="white"/>
<path d="M4.19092 1.39258L4.2529 1.58328H4.45313L4.29102 1.6977L4.353 1.88841L4.19092 1.77398L4.02881 1.88841L4.09079 1.6977L3.92871 1.58328H4.12894L4.19092 1.39258Z" fill="white"/>
<path d="M4.19092 2.23145L4.2529 2.42215H4.45313L4.29102 2.53657L4.353 2.72727L4.19092 2.61285L4.02881 2.72727L4.09079 2.53657L3.92871 2.42215H4.12894L4.19092 2.23145Z" fill="white"/>
<path d="M4.19092 3.07031L4.2529 3.26101H4.45313L4.29102 3.37544L4.353 3.56614L4.19092 3.45172L4.02881 3.56614L4.09079 3.37544L3.92871 3.26101H4.12894L4.19092 3.07031Z" fill="white"/>
<path d="M4.19092 3.90918L4.2529 4.09988H4.45313L4.29102 4.2143L4.353 4.40501L4.19092 4.29059L4.02881 4.40501L4.09079 4.2143L3.92871 4.09988H4.12894L4.19092 3.90918Z" fill="white"/>
<path d="M4.77209 0.996094L4.83407 1.1868H5.03907L4.87699 1.30122L4.9342 1.49192L4.77209 1.3775L4.61478 1.49192L4.67673 1.30122L4.51465 1.1868H4.71488L4.77209 0.996094Z" fill="white"/>
<path d="M4.77209 1.83496L4.83407 2.0209H5.03907L4.87699 2.14009L4.9342 2.33079L4.77209 2.21637L4.61478 2.33079L4.67673 2.14009L4.51465 2.0209H4.71488L4.77209 1.83496Z" fill="white"/>
<path d="M4.77209 2.6748L4.83407 2.86551H5.03907L4.87699 2.97993L4.9342 3.17063L4.77209 3.05144L4.61478 3.17063L4.67673 2.97993L4.51465 2.86551H4.71488L4.77209 2.6748Z" fill="white"/>
<path d="M4.77209 3.51367L4.83407 3.70438H5.03907L4.87699 3.8188L4.9342 4.0095L4.77209 3.89031L4.61478 4.0095L4.67673 3.8188L4.51465 3.70438H4.71488L4.77209 3.51367Z" fill="white"/>
<path d="M5.36866 0.552734L5.43064 0.743438H5.63087L5.46879 0.862628L5.52599 1.04856L5.36866 0.93414L5.20657 1.04856L5.26856 0.862628L5.10645 0.743438H5.30668L5.36866 0.552734Z" fill="white"/>
<path d="M5.36866 1.39258L5.43064 1.58328H5.63087L5.46879 1.6977L5.52599 1.88841L5.36866 1.77398L5.20657 1.88841L5.26856 1.6977L5.10645 1.58328H5.30668L5.36866 1.39258Z" fill="white"/>
<path d="M5.36866 2.23145L5.43064 2.42215H5.63087L5.46879 2.53657L5.52599 2.72727L5.36866 2.61285L5.20657 2.72727L5.26856 2.53657L5.10645 2.42215H5.30668L5.36866 2.23145Z" fill="white"/>
<path d="M5.36866 3.07031L5.43064 3.26101H5.63087L5.46879 3.37544L5.52599 3.56614L5.36866 3.45172L5.20657 3.56614L5.26856 3.37544L5.10645 3.26101H5.30668L5.36866 3.07031Z" fill="white"/>
<path d="M5.36866 3.90918L5.43064 4.09988H5.63087L5.46879 4.2143L5.52599 4.40501L5.36866 4.29059L5.20657 4.40501L5.26856 4.2143L5.10645 4.09988H5.30668L5.36866 3.90918Z" fill="white"/>
<path d="M5.94985 0.996094L6.01183 1.1868H6.21206L6.04995 1.30122L6.11193 1.49192L5.94985 1.3775L5.78774 1.49192L5.84972 1.30122L5.69238 1.1868H5.88787L5.94985 0.996094Z" fill="white"/>
<path d="M5.94985 1.83496L6.01183 2.0209H6.21206L6.04995 2.14009L6.11193 2.33079L5.94985 2.21637L5.78774 2.33079L5.84972 2.14009L5.69238 2.0209H5.88787L5.94985 1.83496Z" fill="white"/>
<path d="M5.94985 2.6748L6.01183 2.86551H6.21206L6.04995 2.97993L6.11193 3.17063L5.94985 3.05144L5.78774 3.17063L5.84972 2.97993L5.69238 2.86551H5.88787L5.94985 2.6748Z" fill="white"/>
<path d="M5.94985 3.51367L6.01183 3.70438H6.21206L6.04995 3.8188L6.11193 4.0095L5.94985 3.89031L5.78774 4.0095L5.84972 3.8188L5.69238 3.70438H5.88787L5.94985 3.51367Z" fill="white"/>
<path d="M6.54151 0.552734L6.60349 0.743438H6.80372L6.64164 0.862628L6.70359 1.04856L6.54151 0.93414L6.38417 1.04856L6.44138 0.862628L6.2793 0.743438H6.47953L6.54151 0.552734Z" fill="white"/>
<path d="M6.54151 1.39258L6.60349 1.58328H6.80372L6.64164 1.6977L6.70359 1.88841L6.54151 1.77398L6.38417 1.88841L6.44138 1.6977L6.2793 1.58328H6.47953L6.54151 1.39258Z" fill="white"/>
<path d="M6.54151 2.23145L6.60349 2.42215H6.80372L6.64164 2.53657L6.70359 2.72727L6.54151 2.61285L6.38417 2.72727L6.44138 2.53657L6.2793 2.42215H6.47953L6.54151 2.23145Z" fill="white"/>
<path d="M6.54151 3.07031L6.60349 3.26101H6.80372L6.64164 3.37544L6.70359 3.56614L6.54151 3.45172L6.38417 3.56614L6.44138 3.37544L6.2793 3.26101H6.47953L6.54151 3.07031Z" fill="white"/>
<path d="M6.54151 3.90918L6.60349 4.09988H6.80372L6.64164 4.2143L6.70359 4.40501L6.54151 4.29059L6.38417 4.40501L6.44138 4.2143L6.2793 4.09988H6.47953L6.54151 3.90918Z" fill="white"/>
</svg>
