<svg width="18" height="19" viewBox="0 0 18 19" fill="none" xmlns="http://www.w3.org/2000/svg">
<path d="M15.6281 1.51025H2.325C2.1062 1.51025 1.89636 1.59745 1.74164 1.75265C1.58692 1.90785 1.5 2.11835 1.5 2.33784L1.5 15.6827C1.5 15.9022 1.58692 16.1127 1.74164 16.2679C1.89636 16.4231 2.1062 16.5103 2.325 16.5103H9.4922V10.7094H7.54571V8.43874H9.4922V6.76804C9.4922 4.83096 10.673 3.77578 12.3952 3.77578C12.9755 3.77451 13.5556 3.80386 14.1328 3.86372V5.88873H12.9469C12.0085 5.88873 11.8254 6.33356 11.8254 6.99046V8.43615H14.0684L13.7771 10.7069H11.8125V16.5103H15.6281C15.847 16.5103 16.0568 16.4231 16.2115 16.2679C16.3662 16.1127 16.4531 15.9022 16.4531 15.6827V2.33784C16.4531 2.11835 16.3662 1.90785 16.2115 1.75265C16.0568 1.59745 15.847 1.51025 15.6281 1.51025Z" fill="#2D2D2D"/>
</svg>
