<svg xmlns="http://www.w3.org/2000/svg" width="16" height="10" xml:space="preserve"><path fill="#92C5E0" d="M5.3 0H0v9.3h5.3V0z"/><path fill="#FFF" d="M10.7 0H5.3v9.3h5.3l.1-9.3z"/><path fill="#92C5E0" d="M16 0h-5.3v9.3H16V0z"/><path fill="#3E9A13" d="M8.2 6.3c-1.2-.2-2.6-1.6-1.6-3-1 1.3.5 3 1.6 3-.1 0 0 0 0 0z"/><path d="M8.1 6.3c-1.4-.2-2.4-1.7-1.5-3.1-1 1.5.4 2.8 1.5 3.1zM6.7 3.2c-1.1 1.4.1 2.9 1.4 3.1-1.2-.2-2.5-1.8-1.4-3.1z"/><path fill="#BA0027" d="M8.1 6.3c-1.4-.2-2.4-1.8-1.5-3.1-.9 1.4.1 2.9 1.5 3.1z"/><path fill="#3E9A13" d="M7.6 6.1c-.2 0-.5.3-.6.3.4 0 .6-.2.6-.3z"/><path fill="#3E9A13" d="M7.4 6c-.2 0-.5.3-.6.3.4 0 .6-.2.6-.3zm.3.1c0-.2-.2-.5-.3-.5 0 .4.2.6.3.5z"/><path fill="#3E9A13" d="M7.5 6.1c0-.2-.3-.5-.3-.5 0 .3.2.5.3.5zm-.3-.2c0-.2-.1-.5-.2-.5 0 .3.1.6.2.5zm-.1 0c-.2-.1-.5 0-.6 0 .4.2.6.1.6 0z"/><path fill="#3E9A13" d="M7 5.8c-.2-.1-.6-.1-.6-.1.3.2.5.2.6.1zm0 0c0-.2 0-.5-.1-.5-.1.2 0 .5.1.5z"/><path fill="#3E9A13" d="M6.8 5.6c0-.1 0-.5-.1-.5 0 .3.1.6.1.5zm0 .1c-.1-.2-.4-.4-.5-.4.2.4.4.5.5.4zm-.1-.2c.1-.1 0-.5 0-.5-.1.2-.1.5 0 .5zm-.1-.2c.1-.1.1-.5 0-.5-.2.2-.1.5 0 .5z"/><path fill="#3E9A13" d="M6.5 5.3c-.1-.1-.4-.2-.4-.1.2.2.4.2.4.1zm0-.2c.1-.1.1-.5.1-.5-.3.2-.2.4-.1.5zm-.2-.5c.1-.1.2-.4.2-.4-.2.2-.2.4-.2.4zm0 .1c-.1-.1-.3-.3-.4-.3.2.3.4.4.4.3zm0-.2c0-.1-.2-.4-.3-.4.1.3.2.4.3.4zm0-.4c.1 0 .3-.2.4-.2-.3 0-.4.1-.4.2zm.1-.3c0-.1-.1-.4-.1-.5-.1.3 0 .5.1.5zm0 .1c.1 0 .4-.3.4-.3-.3.1-.5.3-.4.3z"/><path fill="#3E9A13" d="M6.4 3.8c.1-.1.4-.3.4-.4-.4.1-.5.3-.4.4zm0-.3c.1-.1 0-.5 0-.5-.1.3-.1.5 0 .5zm.2-.2c.1-.1 0-.4 0-.4-.1.2-.1.4 0 .4zm0 .1c.1 0 .4-.3.4-.3-.3 0-.5.2-.4.3z"/><path fill="#3E9A13" d="M6.7 3.2c.1-.1.2-.3.2-.4-.3.2-.3.4-.2.4zM7.2 6c-.1 0-.5.2-.5.3.4 0 .6-.2.5-.3zm-.9-1.6s.1-.1.2-.4c-.3.2-.3.4-.2.4zm.2.7c-.1-.1-.4-.3-.5-.3.2.3.4.4.5.3zm-.2-1c0-.2-.2-.4-.3-.4.1.3.2.4.3.4zm.9 1.8c-.1.1-.2-.2-.1-.5 0 .3.1.5.1.5z"/><path d="M7.2 5.9s-.2-.3-.1-.5c0 .3.1.5.1.5zm-.1-.5c0 .2 0 .5.2.5-.1 0-.2-.2-.2-.5z"/><path fill="#3E9A13" d="M7.6 6.1c0 .1-.2.3-.6.3.3-.1.5-.2.6-.3z"/><path d="M7 6.4c.3-.1.5-.2.5-.3 0 .2-.1.3-.5.3zm.6-.3s-.2.2-.5.3c.2 0 .5-.3.5-.3z"/><path fill="#3E9A13" d="M7.4 6c.1.1-.2.3-.5.3.2-.1.5-.2.5-.3z"/><path d="M6.9 6.3c.2-.1.5-.2.5-.3 0 .2-.3.3-.5.3zm.5-.3s-.2.2-.5.3c.2 0 .5-.3.5-.3z"/><path fill="#3E9A13" d="M7.6 6.1c0 .1-.2-.1-.2-.5.1.3.2.5.2.5z"/><path d="M7.6 6.1c-.1-.1-.2-.3-.2-.5.1.3.2.5.2.5zm-.2-.5c0 .3.2.6.3.5-.1 0-.2-.2-.3-.5z"/><path fill="#3E9A13" d="M7.5 6.1c-.1 0-.3-.2-.3-.6.1.3.3.5.3.6z"/><path d="M7.5 6.1c-.1 0-.3-.2-.3-.5.1.2.3.4.3.5zm-.3-.6c0 .4.2.6.3.5 0 0-.2-.2-.3-.5z"/><path fill="#3E9A13" d="M7.1 5.9c0 .1-.3.2-.6 0 .3.1.6.1.6 0z"/><path d="M6.9 6c-.1 0-.3 0-.4-.1.1 0 1 0 .4.1zm-.4-.1c.2.1.6.2.6 0h-.6z"/><path fill="#3E9A13" d="M7 5.8c0 .1-.3.1-.6-.1.3.1.5.2.6.1z"/><path d="M6.8 5.9c-.1 0-.3-.1-.4-.2.4.1.9.1.4.2zm-.4-.2c.2.1.5.4.5.1-.2 0-.3 0-.5-.1z"/><path fill="#3E9A13" d="M7 5.8c-.1 0-.2-.2-.1-.5 0 .2.1.4.1.5z"/><path d="M7 5.8c0-.1-.2-.3-.1-.6 0 .3.1.5.1.6zm-.1-.6c-.1.2-.1.5.1.5 0 0-.1-.2-.1-.5z"/><path fill="#3E9A13" d="M6.8 5.6c-.1 0-.2-.2-.1-.5.1.3.1.5.1.5z"/><path d="M6.8 5.7c0-.1-.1-.3 0-.5v.5c0-.1 0 0 0 0zm0-.5c-.1.2-.1.5.1.5-.1-.1-.1-.3-.1-.5z"/><path fill="#3E9A13" d="M6.8 5.7c-.1.1-.3 0-.5-.4.3.2.5.4.5.4z"/><path d="M6.7 5.7c-.1 0-.3-.1-.4-.4.3.2.5.4.4.4.1 0 .1 0 0 0zm-.4-.4c.2.3.4.5.5.4 0 0-.3-.2-.5-.4z"/><path fill="#3E9A13" d="M6.7 5.5c-.1 0-.1-.2 0-.5v.5z"/><path d="M6.7 5.5c-.1-.1-.1-.3 0-.5v.5zm0-.5c-.1.2-.1.4-.1.4.1 0 .1-.2.1-.4z"/><path fill="#3E9A13" d="M6.6 5.3c-.1 0-.1-.3 0-.5 0 .2-.1.4 0 .5z"/><path d="M6.6 5.3s-.1-.2 0-.5c-.1.2-.1.4 0 .5zm0-.6c-.1.2-.2.5 0 .5-.1 0 0-.2 0-.5z"/><path fill="#3E9A13" d="M6.5 5.3c0 .1-.2.1-.5-.2.3.2.5.2.5.2z"/><path d="M6.4 5.4c-.5-.1 0-.2 0 0-.7-.3 0 0 0 0 .1 0 .1 0 0 0z"/><path fill="#3E9A13" d="M6.5 5.1c-.1-.1-.2-.3 0-.6 0 .3-.1.5 0 .6z"/><path d="M6.5 5.1s-.1-.4 0-.6c0 .3-.1.5 0 .6zm0-.6c-.1.2-.1.4-.1.5 0 0 .1-.2.1-.5z"/><path fill="#3E9A13" d="M6.3 4.6c-.1 0 0-.3.2-.4l-.2.4z"/><path d="M6.3 4.6c0-.2 0-.3.2-.4l-.2.4zm.3-.4c-.2.1-.3.3-.3.5 0-.1.1-.3.3-.5z"/><path fill="#3E9A13" d="M6.3 4.7c-.1.1-.3 0-.4-.3.2.2.4.3.4.3z"/><path d="M6.3 4.8c-.1 0-.3-.1-.4-.4.2.2.4.3.4.4zm-.4-.4c.1.3.3.4.4.3 0 0-.2-.1-.4-.3z"/><path fill="#3E9A13" d="M6.3 4.5c-.1 0-.2-.1-.3-.4.2.2.3.4.3.4z"/><path d="M6.3 4.5c-.1 0-.2-.2-.3-.4.2.2.3.4.3.4zM6 4.1c0 .3.2.5.3.4 0 0-.2-.2-.3-.4z"/><path fill="#3E9A13" d="M6.3 4.1c0-.1.1-.2.4-.2-.3.1-.4.1-.4.2z"/><path d="M6.3 4.1c0-.1.2-.2.4-.2-.2 0-.4.2-.4.2zm.4-.2c-.2 0-.4 0-.4.2 0-.1.1-.1.4-.2z"/><path fill="#3E9A13" d="M6.4 3.8c-.1 0-.2-.2-.1-.5 0 .3 0 .5.1.5z"/><path d="M6.3 3.8c-.1-.1-.1-.3-.1-.5.1.4.1.5.1.5zm-.1-.5c0 .3 0 .4.2.4-.1.1-.1-.1-.2-.4z"/><path fill="#3E9A13" d="M6.3 3.9s.2-.2.5-.3c-.3.2-.4.3-.5.3z"/><path d="M6.4 4c-.1 0 .1-.3.4-.3-.3.1-.4.2-.4.3zm.4-.4c-.3 0-.4.2-.4.4 0-.1.2-.2.4-.4z"/><path fill="#3E9A13" d="M6.4 3.8c-.1-.1 0-.3.3-.4-.2.2-.3.3-.3.4z"/><path d="M6.4 3.8s0-.1 0 0c0-.2.1-.3.4-.4-.3.2-.4.3-.4.4zm.3-.4c-.3.1-.3.2-.3.4 0-.1.2-.2.3-.4z"/><path fill="#3E9A13" d="M6.4 3.5c-.1 0-.1-.2 0-.5v.5z"/><path d="M6.4 3.5c-.1-.1-.1-.3.1-.5-.1.3-.1.5-.1.5zm.1-.5c-.1.2-.2.4-.1.5 0-.1 0-.3.1-.5z"/><path fill="#3E9A13" d="M6.6 3.3c-.1 0-.1-.2 0-.4-.1.2-.1.4 0 .4z"/><path d="M6.6 3.3s-.1-.1 0-.4c-.1.2-.1.4 0 .4zm0-.4c-.1.2-.1.3-.1.4 0 0 0-.2.1-.4z"/><path fill="#3E9A13" d="M6.6 3.4c-.1-.1.1-.3.4-.3-.2.1-.4.3-.4.3z"/><path d="M6.6 3.4c0-.2.2-.3.4-.4l-.4.4zm.4-.3c-.3 0-.4.1-.4.3 0 0 .2-.2.4-.3z"/><path fill="#3E9A13" d="M6.7 3.2c-.1 0 0-.2.2-.4-.2.2-.3.4-.2.4z"/><path d="M6.7 3.2c-.1.1 0-.3.2-.4-.2.2-.3.4-.2.4zm.1-.3c-.1.1-.2.2-.2.3.1 0 .1-.2.2-.3z"/><path fill="#3E9A13" d="M7.2 6c.1.1-.2.3-.5.3.3-.2.5-.3.5-.3z"/><path d="M6.7 6.3c.3-.2.5-.3.5-.3 0 .2-.1.3-.5.3zm.5-.3s-.2.2-.5.3c.3-.1.5-.1.5-.3z"/><path fill="#3E9A13" d="M6.3 4.4c-.1 0-.1-.2.2-.4-.2.3-.2.4-.2.4z"/><path d="M6.3 4.4c-.1-.1 0-.2.2-.4-.1.3-.2.4-.2.4zm.2-.4c-.3.3-.2.3-.2.5 0-.1.1-.2.2-.5z"/><path fill="#3E9A13" d="M6.5 5.2c-.1 0-.3-.1-.5-.4.2.2.4.4.5.4z"/><path d="M6.4 5.2c-.1 0-.3-.2-.4-.4.2.2.4.3.4.4zM6 4.8c.2.3.4.5.5.4-.1 0-.3-.2-.5-.4z"/><path fill="#3E9A13" d="M6.3 4.1c-.1.1-.2-.1-.2-.4l.2.4z"/><path d="M6.3 4.1c-.1 0-.2-.2-.2-.5.1.3.2.5.2.5zm-.2-.4c0 .3.2.5.3.4-.1 0-.2-.2-.3-.4zm.2.7c-.1-.1 0-.2.2-.4 0 .1-.1.3-.2.4zm.2-.4c-.3.3-.2.3-.2.5.1-.2.2-.4.2-.5zM7 6.4s.3-.3.5-.3c0 .2-.1.3-.5.3zm.6-.3c-.2 0-.5.3-.6.3.4 0 .6-.3.6-.3z"/><path d="M6.9 6.3s.3-.3.5-.3c0 .2-.3.3-.5.3zm.5-.3c-.2 0-.5.3-.6.3.4 0 .6-.3.6-.3zm.2.1c-.1-.1-.2-.3-.2-.5 0 0 .2.3.2.5zm-.2-.5c0 .3.1.5.3.5-.1-.2-.3-.5-.3-.5z"/><path d="M7.5 6.1c-.1 0-.3-.2-.3-.5 0 0 .3.3.3.5zm-.3-.6c0 .3.2.5.3.5 0-.1-.3-.4-.3-.5zm0 .4c-.1-.1-.2-.3-.1-.5 0 0 .1.4.1.5zm-.1-.5c0 .2 0 .5.2.5-.1-.1-.2-.5-.2-.5zm-.2.6c-.1 0-.3 0-.4-.1 0-.1 1.1-.1.4.1zm0-.1h-.4c.3.2.9 0 .4 0z"/><path d="M6.8 5.9c-.1 0-.3-.1-.5-.2.1-.1.9.2.5.2zm-.4-.2c.1.1.5.3.5.1-.1-.1-.4-.1-.5-.1zm.6.1s-.2-.3-.1-.6c.1 0 .1.4.1.6zm-.1-.6c-.1.2-.1.5.1.5 0-.1-.1-.5-.1-.5z"/><path d="M6.8 5.7c0-.1-.1-.3 0-.5 0 0 .1.3 0 .5zm0-.5c-.1.2-.1.5.1.5 0-.2-.1-.5-.1-.5zm-.1.5c-.1 0-.3-.1-.4-.4.1-.1.6.5.4.4zm-.4-.4c.1.4.3.4.5.4-.1-.2-.4-.4-.5-.4z"/><path d="M6.7 5.5c-.1-.1-.1-.3 0-.5 0 0 .1.3 0 .5zm0-.5c-.1.2-.1.4-.1.4.2-.1.1-.4.1-.4zm-.1.3c-.1 0-.1-.2 0-.6v.6zm0-.6c-.1.2-.2.5 0 .5v-.5zm-.2.7c-.1 0-.2-.1-.4-.2.1-.1.6.2.4.2zm-.3-.2c.1.1.3.2.5.2-.2-.2-.5-.2-.5-.2zm.4-.1s-.1-.4 0-.6v.6zm0-.6c-.1.2-.1.4-.1.5.1-.1.1-.5.1-.5zm-.2.1c0-.2 0-.3.2-.4.1 0 0 .3-.2.4zm.3-.4c-.2.1-.3.3-.3.5.2-.2.3-.5.3-.5zm-.3.6c-.1 0-.3-.1-.4-.4.1 0 .4.2.4.4zm-.4-.4c.1.2.3.4.4.4-.1-.2-.3-.4-.4-.4zm.4.1c-.1 0-.2-.2-.3-.4.1 0 .3.3.3.4zM6 4.1c0 .3.1.4.2.4.1-.2-.1-.4-.2-.4zm.3 0c0-.1.2-.2.4-.2 0 0-.2.2-.4.2zm.4-.2c-.2 0-.4 0-.4.2.2 0 .4-.2.4-.2zm-.4-.1c-.1-.1-.1-.2-.1-.5.1.1.2.5.1.5zm-.1-.5c0 .3 0 .4.2.4 0 0-.2-.3-.2-.4z"/><path d="M6.4 4c-.1 0 .1-.3.4-.3 0 0-.3.2-.4.3zm.4-.4c-.3 0-.4.2-.4.4l.4-.4z"/><path d="M6.4 3.8s0-.1 0 0c0-.2.1-.3.4-.4-.1 0-.3.3-.4.4zm.3-.4c-.3.1-.3.2-.3.4.1-.1.3-.4.3-.4zm-.3.1c-.1-.1-.1-.3.1-.5 0 0 0 .4-.1.5zm.1-.5c-.1.2-.2.4-.1.5.1-.2.1-.5.1-.5zM6.6 3.3s-.1-.1 0-.4v.4zm0-.4c-.1.2-.1.3-.1.4.1-.1.1-.4.1-.4zm0 .5c0-.2.2-.3.4-.4 0 .1-.2.4-.4.4zm.4-.3c-.3 0-.4.1-.4.3.2 0 .4-.3.4-.3z"/><path d="M6.7 3.2c-.1.1 0-.3.2-.4-.1.1-.2.3-.2.4zm.1-.3c-.1.1-.2.2-.2.3.1-.1.2-.3.2-.3zm-.1 3.4S7 6 7.2 6c0 .2-.1.3-.5.3zm.5-.3c-.1 0-.5.2-.5.3.3 0 .5-.1.5-.3zm-.8-.8c-.1 0-.3-.2-.4-.4 0 0 .5.4.4.4zM6 4.8c.1.3.3.4.5.4-.1-.2-.5-.4-.5-.4zm.3-.7c-.1 0-.2-.1-.2-.4 0 0 .2.2.2.4zm-.2-.4c0 .3.2.5.2.5 0-.3-.2-.5-.2-.5z"/><path fill="#3E9A13" d="M7.8 6.3c1.3-.2 2.5-1.7 1.6-3.1 1 1.4-.4 3.1-1.6 3.1z"/><path d="M7.9 6.3c1.2-.2 2.6-1.7 1.4-3.1.8 1.3 0 2.9-1.4 3.1zm1.5-3.1c1 1.5-.3 2.9-1.6 3.1 1.5-.2 2.5-1.6 1.6-3.1z"/><path fill="#BA0027" d="M7.9 6.3c1.5-.3 2.3-1.7 1.5-3.1.9 1.3-.1 2.9-1.5 3.1z"/><path fill="#3E9A13" d="M8.4 6.1c.2 0 .5.2.5.3-.3 0-.5-.2-.5-.3z"/><path fill="#3E9A13" d="M8.6 6c.2 0 .5.2.5.3-.3 0-.5-.2-.5-.3zm-.2.1c0-.2.2-.5.3-.5-.1.4-.3.6-.3.5z"/><path fill="#3E9A13" d="M8.5 6.1c0-.2.3-.5.3-.5 0 .3-.2.5-.3.5zm.3-.2c0-.2.1-.5.2-.5 0 .3-.1.6-.2.5zm.1 0c.2-.1.5 0 .6 0-.3.2-.6.1-.6 0z"/><path fill="#3E9A13" d="M9 5.8c.1-.1.5-.2.6-.1-.3.2-.5.2-.6.1zm0 0c0-.2 0-.5.1-.5.1.2 0 .5-.1.5z"/><path fill="#3E9A13" d="M9.2 5.6c0-.1 0-.5.1-.5 0 .3-.1.6-.1.5zm0 .1c.1-.2.4-.4.5-.4-.2.4-.4.5-.5.4zm.1-.2c-.1-.2 0-.5 0-.5.1.2.1.5 0 .5zm.1-.2c-.1-.1-.1-.5 0-.5.2.2.1.5 0 .5z"/><path fill="#3E9A13" d="M9.5 5.3c.1-.1.4-.2.5-.2-.3.3-.5.3-.5.2zm.1-.2c-.1-.2-.1-.5-.1-.6.2.3.1.5.1.6zm.1-.5c-.1-.1-.3-.4-.3-.4.3.2.3.4.3.4zm0 .1c.1-.1.3-.3.4-.3-.2.3-.4.4-.4.3zm0-.2c0-.1.2-.4.3-.4-.1.3-.2.4-.3.4zm0-.4c-.1 0-.3-.2-.4-.2.3 0 .4.1.4.2zm-.1-.3c0-.1.1-.4.1-.5.1.3 0 .5-.1.5z"/><path fill="#3E9A13" d="M9.6 3.9c-.1 0-.4-.3-.4-.3.4.1.5.3.4.3z"/><path fill="#3E9A13" d="M9.6 3.8c-.1-.1-.3-.4-.3-.4.3.1.4.3.3.4zm0-.3c-.1-.1-.1-.5-.1-.5.2.3.2.5.1.5zm-.2-.2c-.1-.1 0-.4 0-.4.1.2.1.4 0 .4zm0 .1c-.1 0-.4-.3-.4-.3.3 0 .5.2.4.3z"/><path fill="#3E9A13" d="M9.4 3.2c-.1-.1-.2-.3-.2-.3.2.1.2.3.2.3zM8.8 6c.2 0 .5.2.5.3-.4 0-.6-.2-.5-.3zm.9-1.6s-.1-.1-.2-.4c.3.2.3.4.2.4zm-.2.7c.1-.1.4-.3.5-.3-.1.3-.4.4-.5.3zm.2-1c0-.2.2-.4.3-.4-.1.3-.2.4-.3.4zm-.9 1.8c.1.1.2-.2.1-.5 0 .3-.1.5-.1.5z"/><path d="M8.8 5.9s.1-.2.1-.5c.1.2-.1.5-.1.5zm.1-.5c0 .3-.1.5-.1.5.2 0 .2-.3.1-.5z"/><path fill="#3E9A13" d="M8.4 6.1c0 .1.2.3.6.3-.3-.1-.5-.2-.6-.3z"/><path d="M9 6.4c-.4 0-.5-.1-.5-.3 0 .1.2.2.5.3zm-.6-.3s.2.3.6.3c-.3-.1-.5-.2-.6-.3z"/><path fill="#3E9A13" d="M8.6 6c0 .1.2.3.6.3-.3-.1-.6-.2-.6-.3z"/><path d="M9.1 6.3c-.4 0-.5-.1-.5-.3-.1.1.5.3.5.3zM8.6 6s.3.3.5.3c-.2-.1-.5-.2-.5-.3z"/><path fill="#3E9A13" d="M8.4 6.1c0 .1.2-.1.2-.5-.1.3-.2.5-.2.5z"/><path d="M8.4 6.1s.1-.2.2-.6c0 .3-.1.5-.2.6zm0 0c.2 0 .2-.3.2-.5-.1.3-.2.5-.2.5z"/><path fill="#3E9A13" d="M8.5 6.1c.1.1.3-.1.3-.5-.1.2-.3.4-.3.5z"/><path d="M8.5 6.1s.1-.2.3-.5c0 .3-.2.5-.3.5zm.3-.6c-.1.3-.3.5-.3.6.1 0 .3-.2.3-.6z"/><path fill="#3E9A13" d="M8.9 5.9c0 .1.3.2.6 0-.3.1-.6.1-.6 0z"/><path d="M9.1 6c-.6-.1.3-.1.4-.1-.1.1-.3.1-.4.1zm-.2-.1c0 .1.3.2.6 0-.3.1-.6.1-.6 0z"/><path fill="#3E9A13" d="M9 5.8c0 .1.3.1.6-.1-.3.1-.5.2-.6.1z"/><path d="M9.2 5.9c-.3-.1.2-.1.5-.2-.2.1-.4.2-.5.2zM9 5.8c.1.2.3 0 .5-.1-.2.1-.4.2-.5.1z"/><path fill="#3E9A13" d="M9 5.8c.1 0 .2-.2.1-.5 0 .2-.1.4-.1.5z"/><path d="M9 5.8s0-.2.1-.5c.1.2-.1.5-.1.5zm.1-.6c0 .3 0 .5-.1.5.2 0 .2-.1.1-.5z"/><path fill="#3E9A13" d="M9.2 5.6c.1 0 .2-.2.1-.5-.1.3-.1.5-.1.5z"/><path d="M9.2 5.7v-.5c.1.2 0 .4 0 .5zm0-.5c0 .2 0 .5-.1.5.2 0 .2-.3.1-.5z"/><path fill="#3E9A13" d="M9.2 5.7c.1.1.3 0 .5-.4-.3.2-.5.4-.5.4z"/><path d="M9.3 5.7c-.2.1.4-.3.4-.4-.1.3-.3.4-.4.4zm.4-.4c-.2.2-.5.4-.5.4.2 0 .4 0 .5-.4z"/><path fill="#3E9A13" d="M9.3 5.5c.1 0 .1-.2 0-.5v.5z"/><path d="M9.3 5.5V5c.1.2 0 .5 0 .5zm0-.5c0 .2.1.4 0 .5.1-.1.1-.3 0-.5z"/><path fill="#3E9A13" d="M9.4 5.3c.1 0 .1-.3 0-.5 0 .2.1.4 0 .5z"/><path d="M9.4 5.3v-.5c.1.1 0 .5 0 .5zm0-.6c0 .3.1.5 0 .5.2 0 .1-.3 0-.5z"/><path fill="#3E9A13" d="M9.5 5.3c0 .1.2.1.5-.2-.3.2-.5.2-.5.2z"/><path d="M9.6 5.4c-.1 0 0 0 .4-.2l-.4.2zm.3-.2c-.2 0-.4.1-.4.1 0 .1.2.1.4-.1z"/><path fill="#3E9A13" d="M9.6 5.1c.1 0 .1-.3-.1-.5 0 .2.1.4.1.5z"/><path d="M9.6 5.1s0-.3-.1-.5c.1.1.1.3.1.5 0-.1 0 0 0 0zm-.1-.6c0 .3.1.5.1.6 0-.2 0-.4-.1-.6z"/><path fill="#3E9A13" d="M9.7 4.6c.1 0 0-.3-.2-.4l.2.4z"/><path d="m9.7 4.6-.2-.4c.1.1.2.3.2.4zm-.3-.4.2.4c0-.1.1-.2-.2-.4z"/><path fill="#3E9A13" d="M9.7 4.7c.1.1.3 0 .4-.3-.2.2-.4.3-.4.3z"/><path d="M9.7 4.8s.1-.2.3-.3c0 .2-.2.3-.3.3zm.4-.4c-.2.2-.4.3-.4.3.1.1.3 0 .4-.3z"/><path fill="#3E9A13" d="M9.7 4.5c.1 0 .2-.1.3-.4-.1.2-.3.4-.3.4z"/><path d="m9.7 4.5.2-.4c0 .3-.1.4-.2.4zm.3-.4c-.1.2-.3.4-.3.4.1 0 .2-.2.3-.4z"/><path fill="#3E9A13" d="M9.7 4.1c0-.1-.1-.2-.4-.2.3.1.4.1.4.2z"/><path d="M9.7 4.1c0-.1-.2-.2-.4-.2.2 0 .4.1.4.2zm-.4-.2c.3.1.4.1.4.2 0-.2-.1-.2-.4-.2z"/><path fill="#3E9A13" d="M9.6 3.8c.1 0 .2-.2.1-.5 0 .3 0 .5-.1.5z"/><path d="M9.7 3.8s.1-.2.1-.5c0 .3 0 .4-.1.5zm.1-.5c0 .2-.1.5-.1.5.2.1.1-.4.1-.5z"/><path fill="#3E9A13" d="M9.6 3.9c.1-.1-.1-.3-.4-.3.3.2.4.3.4.3z"/><path d="M9.6 4s-.2-.2-.4-.3c.4 0 .4.3.4.3zm-.4-.4c.2.1.4.3.4.3 0-.2 0-.1-.4-.3z"/><path fill="#3E9A13" d="M9.6 3.8c.1-.1-.1-.3-.4-.4.3.2.4.3.4.4z"/><path d="M9.6 3.8s-.1-.2-.4-.4c.3.1.4.2.4.4 0-.1 0 0 0 0zm-.3-.4c.2.2.4.3.4.4 0-.2-.2-.3-.4-.4z"/><path fill="#3E9A13" d="M9.6 3.5c.1 0 .1-.2 0-.5v.5z"/><path d="M9.6 3.5V3c.1.2.1.4 0 .5zM9.5 3c0 .2.1.4 0 .5.2-.1.2-.3 0-.5z"/><path fill="#3E9A13" d="M9.4 3.3c.1 0 .1-.2 0-.4.1.2.1.4 0 .4z"/><path d="M9.4 3.3v-.4c.1.3 0 .4 0 .4zm0-.4v.4c.1-.1.1-.2 0-.4z"/><path fill="#3E9A13" d="M9.4 3.4c.1-.1-.1-.3-.4-.3.2.1.4.3.4.3z"/><path d="M9.4 3.4 9 3c.2.1.4.2.4.4zM9 3.1c.2.1.4.3.4.4 0-.2-.1-.4-.4-.4z"/><path fill="#3E9A13" d="M9.4 3.2c.1 0 0-.2-.2-.4l.2.4z"/><path d="m9.4 3.2-.2-.4c.1.2.2.3.2.4zm-.2-.3c.1.1.2.3.2.3 0-.1-.1-.2-.2-.3z"/><path fill="#3E9A13" d="M8.8 6c-.1.1.1.3.5.3-.3-.2-.5-.3-.5-.3z"/><path d="M9.3 6.3c-.4 0-.5-.1-.5-.3 0 0 .2.1.5.3zM8.8 6c0 .2.2.2.5.2-.3-.1-.5-.2-.5-.2z"/><path fill="#3E9A13" d="M9.7 4.4c.1 0 .1-.2-.2-.4.2.3.2.4.2.4z"/><path d="M9.7 4.4s0-.2-.2-.4c.2.2.3.3.2.4zm-.2-.3c.1.2.2.3.2.4 0-.2.1-.3-.2-.4z"/><path fill="#3E9A13" d="M9.5 5.2c.1.1.3 0 .5-.4-.2.2-.4.4-.5.4z"/><path d="m9.6 5.2.4-.4c-.1.2-.3.4-.4.4zm.4-.4c-.2.2-.4.4-.5.4.2 0 .4-.1.5-.4z"/><path fill="#3E9A13" d="M9.7 4.1c.1.1.2-.1.2-.4l-.2.4z"/><path d="M9.7 4.1s.1-.2.2-.5c0 .3-.1.5-.2.5zm.2-.4-.2.4c.1 0 .2-.2.2-.4zm-.2.7c-.1-.1-.2-.3-.2-.4.2.2.3.3.2.4zm-.2-.3s.1.3.2.4c0-.2.1-.3-.2-.4zM9 6.4c-.4 0-.5-.1-.5-.3.1 0 .4.3.5.3zm-.6-.3c0 .1.3.3.6.3-.1 0-.4-.3-.6-.3z"/><path d="M9.1 6.3c-.4 0-.5-.1-.5-.3.2 0 .5.3.5.3zM8.6 6s.3.3.5.3c0 0-.3-.3-.5-.3zm-.2.1c0-.2.2-.5.2-.6 0 .3-.1.5-.2.6zm.2-.5s-.3.4-.3.5c.2 0 .3-.3.3-.5z"/><path d="M8.5 6.1c0-.2.2-.5.3-.5 0 .3-.2.5-.3.5zm.3-.6s-.3.3-.3.5c.1.1.3-.1.3-.5zm0 .4c0-.2.1-.5.1-.5.1.2 0 .4-.1.5zm.1-.5s-.2.4-.1.5c.2 0 .2-.3.1-.5zm.2.6c-.6 0 .4-.2.4 0h-.4zm0-.1c-.4 0 .1.2.4 0h-.4z"/><path d="M9.2 5.9c-.6 0 .3-.4.4-.2-.1.1-.3.2-.4.2zm.4-.2c-.1 0-.4 0-.5.1.1.2.3 0 .5-.1zm-.6.1c0-.2 0-.5.1-.6.1.3-.1.6-.1.6zm.1-.6s-.1.4-.1.5c.2 0 .2-.2.1-.5z"/><path d="M9.2 5.7c-.1-.1 0-.5 0-.5.1.2 0 .4 0 .5zm0-.5s-.1.3-.1.5c.2 0 .2-.3.1-.5zm.1.5c-.2.1.4-.5.4-.4-.1.3-.3.4-.4.4zm.4-.4s-.4.2-.5.4c.2 0 .2 0 .5-.4z"/><path d="M9.3 5.5c-.1-.2 0-.5 0-.5.1.2 0 .5 0 .5zm0-.5v.5c.1-.1.1-.3 0-.5zm.1.3c-.1-.2 0-.5 0-.6.1.2 0 .6 0 .6zm0-.6v.5c.2 0 .1-.3 0-.5zm.2.7c-.2 0 .3-.2.4-.2-.9.2.1.1-.4.2zm0-.3c-.1-.2-.1-.6-.1-.6.1.2.2.5.1.6zm-.1-.6s0 .6.2.5c-.1-.1-.1-.3-.2-.5zm.2.1c-.2-.1-.3-.4-.3-.4.2.1.3.3.3.4zm-.3-.4s.1.3.2.4c0-.1.1-.2-.2-.4zm.3.6c0-.2.3-.3.3-.3 0 .2-.2.3-.3.3zm.4-.4s-.3.2-.4.3c.1.1.3 0 .4-.3zm-.4.1c0-.2.2-.4.2-.4 0 .2-.1.4-.2.4zm.3-.4s-.2.3-.2.4l.2-.4zm-.3 0c-.1 0-.4-.2-.4-.2.2 0 .3.1.4.2zm-.4-.2s.2.2.4.2c0-.2-.2-.2-.4-.2zm.4-.1c0-.2.1-.5.1-.5 0 .3 0 .4-.1.5zm.1-.5s-.2.5 0 .5v-.5z"/><path d="M9.6 4c-.2 0-.4-.3-.4-.3.4 0 .4.3.4.3zm-.4-.4s.3.3.4.3c0-.2 0-.1-.4-.3z"/><path d="M9.6 3.8c-.1-.1-.3-.4-.4-.4.3.1.4.2.4.4 0-.1 0 0 0 0zm-.3-.4s.2.3.4.4c0-.2-.2-.3-.4-.4zm.3.1c-.1-.1-.1-.5-.1-.5.2.2.2.4.1.5zM9.5 3v.5c.2-.1.1-.3 0-.5z"/><path d="M9.4 3.3c-.1-.1 0-.4 0-.4.1.3 0 .4 0 .4zm0-.4v.4c.1-.1.1-.2 0-.4zm0 .5c-.2 0-.4-.3-.4-.3.2 0 .4.1.4.3zM9 3.1s.2.3.4.4c0-.2-.1-.4-.4-.4z"/><path d="M9.4 3.2c-.1-.1-.2-.3-.2-.3.1.1.2.2.2.3zm-.2-.3s.1.3.2.3c0-.1-.1-.2-.2-.3zm.1 3.4c-.4 0-.5-.1-.5-.3.1 0 .5.2.5.3zM8.8 6c0 .2.2.3.5.3 0-.1-.4-.3-.5-.3zm.8-.8c-.1 0 .4-.4.4-.4-.1.2-.3.4-.4.4zm.4-.4s-.4.2-.5.4c.2 0 .4-.1.5-.4zm-.3-.7c0-.2.1-.4.2-.5 0 .4-.1.5-.2.5zm.2-.4c-.1 0-.2.3-.2.5.1-.1.2-.2.2-.5z"/><path fill="#F5CD28" d="M8.6 5.9c.1.3.8.4.4.1-.2.1-.3-.6-.4-.1z"/><path d="M9 6.2c-.1 0-.6-.3-.4-.5.1.3.9.4.4.5zm-.3-.5c-.3.2.3.7.4.4 0-.1-.4-.2-.4-.4z"/><path fill="#CACACA" d="M8.6 5.9c-.4-.5-.6-1-1.5-1.5.6.3 1.5.7 1.5 1.5z"/><path d="M8.6 5.9c-.4-.6-.6-1-1.5-1.5.6.2 1.6.8 1.5 1.5zM7.1 4.4c.8.5 1.1.9 1.5 1.5 0-.6-.9-1.3-1.5-1.5z"/><path fill="#7DCBC9" d="M8.6 5.7c-.3-.4-.8-.9-1.1-1.1.4.2.9.6 1.1 1.1z"/><path fill="#F5CD28" d="M9.1 6.2c.1-.3-.2-.7-.5-.4-.4.1.7.1.5.4-.1 0 0 0 0 0z"/><path d="M9 6.2c.1-.6-.2-.2-.6-.3.3-.4 1 .1.6.3.1 0 .1 0 0 0zm-.1-.4c.3-.1-.1.6.2.5.2-.9-1.2-.3-.2-.5z"/><path d="M8.7 6v-.2.2zm.1.1v-.2.2c0-.1 0 0 0 0zm.1 0v-.2.2c0-.1-.1 0 0 0zm0 .1c0-.1 0-.1 0 0 0-.1 0-.1 0 0zm-.3-.3c-.1 0 .2-.1.3-.1-.1 0-.2.1-.3.1z"/><path fill="#F5CD28" d="M8.9 5.8c.1 0 .1 0 0 0 .1 0 .1 0 0 0z"/><path d="M8.9 5.8s.1 0 0 0c.1 0 .1 0 0 0z"/><path fill="#F5CD28" d="M8.9 5.8s0-.1 0 0c0-.1 0 0 0 0z"/><path d="M8.9 5.8c0-.1 0-.1 0 0zm.2.4s0-.1 0 0c0-.1 0 0 0 0z"/><path fill="#60350E" d="M7.4 3.5c2.9 2.6 2.4 3.8.4.4-.1 0-.4-.3-.4-.4z"/><path d="M9.4 6.2c-.7-.9-1.4-1.8-2-2.6.6.6 2.6 2.3 2 2.6zm-.5-.7c1.7 2.1-.5-1.7-1.5-2 .4.6 1 1.2 1.5 2z"/><path fill="#1F1F1F" d="M9 5.5c.2-.3.8.6.4.6L9 5.5z"/><path fill="#CACACA" d="M7.1 3.4C7.2 3.1 9 5 8.9 5.1 8.3 4.5 5.6 2 7.1 3.4z"/><path d="M8.9 5.1c-.7-.8-1.8-1.6-2.4-2.3.4.4 2.1 1.9 2.4 2.3zM7.2 3.4l1.7 1.7c-.4-.8-3.8-3.3-1.7-1.7-.1 0 0 0 0 0zm1.6 2.1c-.1-.1.1 0 0 0 .1 0 .1 0 0 0zm.6.3z"/><path fill="#CACACA" d="M8.9 5c-.5.2.3.8.3.2-.3.1-.2-.2-.3-.2z"/><path d="M8.9 5.5c-.3-.1-.2-.6.1-.3 0 .5.4.2-.1.3zm0-.5c-.6.4.7.7 0 0 .1 0 0 0 0 0z"/><path fill="#CACACA" d="M8.9 5.1v.2-.2z"/><path d="M8.9 5.3c-.1 0-.1-.1 0-.2v.2zm-.1 0c0-.1 0-.1 0 0zm0-.1s0 .1 0 0c0 .1 0 .1 0 0 0 .1 0 0 0 0z"/><path fill="#60350E" d="M8.6 3.5c-.5.6-2.6 2.4-1.9 2.7.5-1 1.5-2 1.9-2.7 0 .1 0 0 0 0z"/><path d="M6.7 6.2C6.1 5.8 8 4.1 8.6 3.4 8 4 6.2 5.9 6.7 6.2c2-2.9 1.9-2.8 0 0z"/><path fill="#1F1F1F" d="M7.1 5.5c-.3-.3-.4.3-.6.4.2.5.4-.3.6-.4z"/><path fill="#CACACA" d="M9 3.3c.1-.3-1.9 1.6-1.9 1.8.6-.6 3.4-3.3 1.9-1.8z"/><path d="M7.1 5.1s0-.1 0 0c.2-.3 2-2 2.4-2.4-.5.8-1.7 1.5-2.4 2.4zm1.8-1.8C8.9 3.4 7 5 7.1 5.1c.6-.8 3.7-3.1 1.8-1.8zM7.2 5.5c.1-.1.1 0 0 0zm-.6.3c.3-.3.6-.7.9-1-.3.3-.6.7-.9 1z"/><path fill="#CACACA" d="M7.1 5c.4.2.1.7-.2.4.3.1.2-.2.2-.4z"/><path d="M7.1 5.5c-.4-.2.1-.2 0-.6.6-.1.1.6 0 .6zM7 5.3c-.1 0-.1 0 0 0-.1 0 0 .1.1.2.2-.3.2-.7-.1-.2z"/><path fill="#CACACA" d="M7.2 5.1v.2-.2z"/><path d="M7.1 5.3c0-.1.1-.1 0-.2.1.1.1.1 0 .2zm0 .1c0-.1.1-.1 0 0 .1 0 .1 0 0 0zm0-.1s0 .1 0 0c0 .1.1.1 0 0 .1.1.1 0 0 0zm.1 0c0-.1.1-.1 0 0 .1 0 0 0 0 0zm0-.1c0 .1.1.1 0 0 .1 0 0 0 0 0z"/><path fill="#CACACA" d="M8.4 3.7c0-.2 0 .1.2.1l-.2-.1z"/><path d="m8.6 3.8-.2-.1c.1-.2.3.1.2.1zm-.1-.2c-.1-.1.1.1.1.2l-.1-.2z"/><path fill="#C0003B" d="M7.9 2.9c-.1-.7.6.5.8.5-.3 0-.9 0-.8-.5z"/><path d="M8.4 3.4c-.4.1-.4-.4-.6-.5.1-.6 1 .6.6.5zM8 2.8c-.2.1.2.9.7.5-.1-.4-.9-.8-.7-.5z"/><path fill="#F5CD28" d="M7.6 5.8c-.1.3-1 .6-.5.1 0 .2.4-.3.5-.1z"/><path d="M7 6.2c-.2-.2.4-.3.4-.6.3.3-.4.6-.4.6zm.1-.2c-.4.2.3.1.5-.3-.1 0-.5.3-.5.3z"/><path fill="#CACACA" d="M7.6 5.8c.4-.5.6-1 1.4-1.5-.5.3-1.4.8-1.4 1.5z"/><path d="M7.6 5.8c-.3-.4 1-1.3 1.4-1.5-.8.5-1.2.9-1.4 1.5zM9 4.3c-.5.3-1.5.9-1.4 1.5.4-.6.6-1 1.4-1.5z"/><path fill="#7DCBC9" d="M7.6 5.7c.3-.4.8-.9 1.1-1.1-.4.2-.7.7-1.1 1.1z"/><path fill="#F5CD28" d="M7.1 6.1c-.2-.4.8-.5.6-.3-.7-.3-.7.4-.6.3z"/><path d="M7.1 6.2c-.2-.3 0-.7.6-.6-.4.3-.7-.4-.6.6zm.2-.5c-.6.1-.1.7-.2 0 .1.2 1 0 .2 0z"/><path d="M7.4 6v-.2.2zm-.1 0v-.2c0 .1.1.2 0 .2zm0 .1v-.2.2zm-.1 0s0-.1 0 0c0-.1 0 0 0 0zm.4-.3c-.1 0-.1 0 0 0-.1 0-.1 0 0 0-.2 0-.2-.1-.3-.1.1 0 .3.2.3.1z"/><path fill="#F5CD28" d="M7.1 5.8s.1 0 0 0c.1-.1 0-.1 0 0 0-.1 0-.1 0 0z"/><path d="M7.1 5.8c0-.1.1-.1 0 0 .1 0 0 0 0 0z"/><path fill="#F5CD28" d="M7.2 5.7c.1 0 .1 0 0 0 .1 0 .1 0 0 0z"/><path d="M7.2 5.7s.1 0 0 0c.1 0 .1 0 0 0zm-.2.4z"/><path fill="#F8E629" d="M8.6 3.3c.4.6.6 1.3-.9 3.4.7-1.1 1.5-2.4.9-3.4z"/><path d="M7.7 6.7c.8-1.1 1.6-2.4.8-3.4.6.4.8 1.3-.8 3.4zm.8-3.4c.7 1-.1 2.3-.8 3.4 1.6-2.2 1.3-2.9.8-3.4z"/><path fill="#F8E629" d="M8.6 3.3c.4.4.5 1 0 1.5.3-.3.3-1.1 0-1.5z"/><path d="M8.6 4.9c.2-.4.4-.9-.1-1.5.4.1.6 1 .1 1.5zm0-1.6c.4.7.2 1.2 0 1.6.5-.5.3-1.2 0-1.6z"/><path fill="#F8E629" d="M8.6 3.3c.4.5.8 1.3.1 1.9.5-.5.4-1.2-.1-1.9z"/><path d="M8.7 5.2c.4-.6.5-.9-.2-1.9.4.1 1 1.2.2 1.9zm-.1-1.9c.6.9.5 1.3.1 1.9.7-.7.2-1.6-.1-1.9z"/><path fill="#F8E629" d="M8.6 3.2c.6.6.9 1.6-.4 3.4.5-1 1.3-2.4.4-3.4z"/><path d="M8.2 6.6c.5-1 1.2-2.4.3-3.3 1 .5.8 1.8-.3 3.3zm.4-3.4c.8 1 .1 2.4-.3 3.3 1-1.4 1.1-2.5.3-3.3z"/><path fill="#3E9A13" d="M8.6 3.3c.5.5.8 1.3.1 1.9.5-.5.4-1.2-.1-1.9z"/><path d="M8.7 5.2c.2-.2.3-.4.3-.7.1 1.8-.4-2.5-.1-.5-1-1.6 1 .3-.2 1.2z"/><path fill="#3E9A13" d="M8.6 3.3c.4.4.5 1.1 0 1.6.2-.4.5-.8 0-1.6z"/><path d="M8.5 5c.3-.5.5-.9 0-1.6.6.2.5 1.1 0 1.6zm.1-1.7c.5.7.3 1.2 0 1.6.4-.4.4-1.1 0-1.6z"/><path fill="#3E9A13" d="M8.6 3.2c.6.6.9 1.6-.4 3.3.6-1 1.4-2.2.4-3.3z"/><path d="M8.3 6.5c.4-1 1.3-2.3.3-3.4.9.7.7 2-.3 3.4zm.3-3.3c1 1.1.2 2.4-.3 3.3 1-1.4 1.1-2.5.3-3.3z"/><path fill="#3E9A13" d="M8.6 3.2c.5.6.7 1.4-.9 3.5.8-1.1 1.7-2.4.9-3.5z"/><path d="M7.7 6.7c.7-1 1.6-2.4.8-3.4.7.4.9 1.3-.8 3.4zm.9-3.5c.7 1.1-.2 2.4-.9 3.4 1.7-2 1.4-2.8.9-3.4z"/><path fill="#F8E629" d="M7.9 2.8c.1-.4 1.1.8.4.6 0-.1-.5-.6-.4-.6.1.1 0 0 0 0z"/><path fill="#3E9A13" d="m8.6 3.4-.3-.3c.3.1.3.1.3.3z"/><path d="M8.6 3.4c-.7-.7.3.3-.1-.3.1.1.1.2.1.3z"/><path fill="#3E9A13" d="M8.3 3c.2.1.3.2.5.3-.5-.2-.4-.2-.5-.3z"/><path d="M8.7 3.3c-.4-.2-.3-.1-.5-.3.3.1.4.1.5.3zM8.3 3c.1.2.1.2.5.3-.2-.2-.3-.2-.5-.3z"/><path fill="#3E9A13" d="M8.5 3.4c-.1-.1-.2-.4-.2-.4.2.2.2.3.2.4z"/><path d="M8.5 3.4c-.5-1 0 .4 0-.2v.2z"/><path fill="#3E9A13" d="M8.4 3.4c-.1-.1-.1-.3-.1-.3.1.1.2.2.1.3z"/><path d="M8.4 3.4c-.1-.1-.1-.3-.1-.3 0 .1.1.2.1.3v-.2c0 .1.1.2 0 .2z"/><path fill="#3E9A13" d="M8.4 3.4c-.1-.1-.1-.3-.1-.3.1.2.1.2.1.3z"/><path d="M8.4 3.4c-.1-.1-.1-.3-.1-.3 0 .2.1.5.1.1v.2z"/><path fill="#3E9A13" d="M8.3 3.4v-.3.3z"/><path d="M8.3 3.4c-.1-.1 0-.3 0-.3v.3-.2.2z"/><path fill="#3E9A13" d="M8.2 3.4v-.2c.1 0 .1.1 0 .2z"/><path d="M8.2 3.4v-.2.2-.2c.1.1.1.1 0 .2z"/><path fill="#3E9A13" d="M8.5 3.2c-.1 0-.2-.2-.2-.2.1.1.2.1.2.2z"/><path d="M8.5 3.2c-.5-.3.2.2 0 0 0-.1 0 0 0 0z"/><path fill="#3E9A13" d="M8.4 3.2c-.1-.1-.1-.2-.1-.2.1.1.1.1.1.2z"/><path d="M8.4 3.2c-.1-.1-.1-.2-.1-.2 0 .2.1.3.1.2z"/><path fill="#3E9A13" d="M8.4 3.2c-.1 0-.1-.2-.1-.2.1.1.1.2.1.2z"/><path d="M8.4 3.2c-.2-.4 0 .1 0 0z"/><path fill="#3E9A13" d="M8.3 3.2c-.1 0-.1-.1-.1-.1.1 0 .1.1.1.1z"/><path d="M8.3 3.2c-.1 0-.1-.1-.1-.1.1 0 .1.1.1.1s0-.1 0 0c0-.1 0 0 0 0z"/><path fill="#3E9A13" d="M8.3 3.2z"/><path d="M8.3 3.2c0-.2-.2 0 0 0 0 0 0-.1 0 0 0-.1 0 0 0 0z"/><path fill="#3E9A13" d="M8.2 3.2z"/><path d="M8.2 3.2s0-.1 0 0c0-.1 0 0 0 0z"/><path fill="#3E9A13" d="M8.4 3.1c-.1 0-.2-.1-.2-.1.1 0 .2.1.2.1z"/><path d="M8.4 3.1c-.5-.2.2.1 0 0-.1-.1 0 0 0 0z"/><path fill="#3E9A13" d="M8.3 3.1c-.1 0-.1-.1-.1-.1.1 0 .1.1.1.1z"/><path d="M8.3 3.1c-.3-.3 0 .2 0 0 0-.1 0 0 0 0z"/><path fill="#3E9A13" d="M8.2 3.1s.1 0 0 0z"/><path d="M8.2 3.1c-.1-.2.1.1 0 0 .1 0 .1 0 0 0z"/><path fill="#3E9A13" d="M8.2 3.1c-.1-.1 0 0 0 0z"/><path d="M8.2 3.1c-.1 0-.1-.1-.1-.1l.1.1z"/><path fill="#3E9A13" d="M8.1 3.1c.1 0 .1 0 0 0z"/><path d="M8.1 3.1c-.1-.2.1.1 0 0 .1 0 .1 0 0 0z"/><path fill="#3E9A13" d="M8.1 3.1z"/><path d="M8.1 3.1z"/><path fill="#3E9A13" d="M8.3 3.1c-.1-.1-.1-.2-.1-.2.1 0 .2.1.1.2z"/><path d="M8.3 3.1c-.1-.1-.1-.2-.1-.2s.1.1.1.2c0 0 0-.1-.1-.1.1 0 .2 0 .1.1z"/><path fill="#3E9A13" d="m8.3 3.1-.2-.2c.2 0 .2.1.2.2z"/><path d="M8.3 3.1c-.4-.5 0 .1 0 0z"/><path fill="#3E9A13" d="M8.2 3.1s-.1-.1-.1-.2c.1.1.2.1.1.2z"/><path d="M8.2 3.1s-.1-.1-.1-.2c.1.1.1.1.1.2zm0 0c0-.1 0-.1 0 0 0-.1 0-.1 0 0z"/><path fill="#3E9A13" d="M8.2 3.1c0-.1 0-.1 0 0z"/><path d="M8.2 3.1c-.1-.1-.1-.2-.1-.2 0 .2.1.1.1.2 0-.1 0-.1 0 0z"/><path fill="#3E9A13" d="M8.1 3.1c0-.1.1-.1 0 0z"/><path d="M8.1 3.1c0-.1 0-.1 0 0 0-.1 0-.1 0 0z"/><path fill="#3E9A13" d="M8.1 3.1z"/><path d="M8.1 3.1c0-.1 0-.1 0 0 0-.1 0-.1 0 0z"/><path fill="#3E9A13" d="M8.1 3.1C8 3.1 8 3 8 3c.1 0 .1.1.1.1z"/><path d="M8.1 3.1C8 3.1 8 3 8 3s0 .1.1.1z"/><path fill="#3E9A13" d="M8 3c.1 0 .1 0 0 0z"/><path d="M8 3zm0 0c.1 0 .1 0 0 0 .1 0 .1 0 0 0z"/><path fill="#3E9A13" d="M8 3.1c.1-.1.1 0 0 0z"/><path d="M8 3.1s.1 0 0 0c.1-.1.1 0 0 0z"/><path fill="#3E9A13" d="M8 3.1z"/><path d="M8 3.1c0-.1 0-.1 0 0 0-.1 0-.1 0 0z"/><path fill="#3E9A13" d="M7.9 3c.1 0 .1 0 0 0z"/><path d="M7.9 3.1s0-.1 0 0c0-.1.1-.2 0 0 .1-.1.1-.1 0 0 .1-.1.1-.1 0 0z"/><path fill="#3E9A13" d="M8 3.1z"/><path d="M8 3.1c0-.1 0-.1 0 0 0-.1 0-.1 0 0z"/><path fill="#3E9A13" d="M7.9 3c.1 0 .1 0 0 0z"/><path d="M7.9 3c-.1-.2.1.1 0 0 .1 0 .1 0 0 0z"/><path fill="#3E9A13" d="M8 3c.1 0 .1 0 0 0z"/><path d="M8 3zm0 0c.1 0 .1 0 0 0 .1 0 .1 0 0 0z"/><path fill="#3E9A13" d="M8 3c0-.1.1 0 0 0z"/><path d="M8 3z"/><path fill="#3E9A13" d="M8 3z"/><path d="M8 3c0-.1-.1-.1 0 0z"/><path fill="#3E9A13" d="M8 3z"/><path d="M8 3z"/><path fill="#3E9A13" d="M8.3 3c.2.2.3.2.3.3-.1 0-.3-.2-.3-.3z"/><path d="M8.6 3.4c0-.1-.2-.3-.3-.3.1.2.5 0 .3.3zm-.1-.2-.2-.1s.1 0 .2.1z"/><path fill="#F0F2BE" d="M7.8 4.6c-.5-.3-.6.5-.1.3 0-.1.1-.3.1-.3z"/><path d="M7.5 5c-.2-.1-.2-.7.3-.4.1.1-.2.5-.3.4zm0-.5c-.2 0-.3.5 0 .4.1-.2.2-.4 0-.4z"/><path fill="#FDFFCB" d="M7.5 5c1.9.6 1.4-2.1 0-1.7-.3.6.7 1.3 0 1.7z"/><path d="M8 5c.2.1-2-2.1.5-1.6-.2.3.9 1.8-.5 1.6zm-.5 0c3.4.4-1.1-3.6.1-.5 0 .3.1.4-.1.5z"/><path d="M7.5 3.7s.3-.2 0-.3c.2.1-.1.3 0 .3zm.1 1.2c0-.1 0-.2-.1-.2.1 0 .1.1.1.2z"/><path d="M7.5 4.9c-.1-.2-.1-.2 0-.2-.4 0 .3.3 0 .2z"/><path d="M7.6 4.8c-.1 0-.1 0 0 0-.1 0-.1-.1 0 0zm-.2-1.1c0 .1-.1-.4.1-.3-.2 0-.1.4-.1.3 0-.1 0-.1 0 0zm.1-.1c-.1 0 0 0 0 0zm0 .1h.9c-.3.1-.7-.2-.9 0z"/><path fill="#3E9A13" d="M8.1 3c0-.1 0-.1 0 0 0-.1 0-.1 0 0zm0-.1c-.1 0 0 0 0 0zm-.1 0c.1 0 .1 0 0 0zM8.1 2.9c.1 0 0 0 0 0z"/><path d="M8.1 2.9c0-.1 0-.1 0 0z"/><path fill="#3E9A13" d="M8.2 2.9s-.1 0 0 0c-.1 0-.1 0 0 0zm0 0s0-.1 0 0z"/><path d="M8.2 2.9s0-.1 0 0c0-.1 0 0 0 0z"/><path fill="#3E9A13" d="M8.2 2.9s-.1-.1 0 0c-.1 0 0 0 0 0z"/><path d="M8.2 2.9s-.1 0 0 0c-.1 0 0 0 0 0s0-.1 0 0c0-.1 0 0 0 0z"/><path fill="#3E9A13" d="M8.2 2.9s-.1-.1 0 0c0-.1 0-.1 0 0zm0-.1s0 .1 0 0z"/><path d="M8.2 2.8c0 .1 0 0 0 0z"/><path fill="#3E9A13" d="M8.2 2.8s-.1 0 0 0zm0 0c0-.1 0-.1 0 0z"/><path d="M8.2 2.8c0-.1 0-.1 0 0 0-.1 0-.1 0 0z"/><path fill="#3E9A13" d="M8.2 2.7s0 .1 0 0zM8.2 2.7s-.1 0 0 0z"/><path d="M8.2 2.7s-.1 0 0 0z"/><path fill="#3E9A13" d="M8.2 2.7s-.1 0 0 0zm0 0c-.1 0-.1 0 0 0-.1 0 0 0 0 0zm0 0c-.1 0-.1 0 0 0z"/><path d="M8.1 2.7c.1 0 .1 0 0 0 .1 0 0 0 0 0 .1 0 .1 0 0 0z"/><path fill="#3E9A13" d="M8.1 2.6c0 .1 0 .1 0 0zm0 0s0 .1 0 0c0 .1 0 .1 0 0zm0 0s0 .1 0 0c0 .1 0 0 0 0zm0 0s0 .1 0 0c0 .1 0 .1 0 0zm-.1 0c0 .1 0 .1 0 0z"/><path d="M8 2.7c0-.1 0-.1 0 0 0-.1 0-.1 0 0z"/><path fill="#3E9A13" d="M7.9 2.7s.1 0 0 0c.1 0 .1 0 0 0zm0-.1c0 .1.1.1 0 0 .1.1.1 0 0 0zm.1 0s0 .1 0 0zm0 0s0 .1 0 0c0 .1 0 0 0 0zm0 0s0 .1 0 0z"/><path d="M8 2.7c0-.1 0-.1 0 0 0-.1 0-.1 0 0 0-.1 0-.1 0 0 0-.1 0-.1 0 0z"/><path fill="#3E9A13" d="M8 2.6s0 .1 0 0c0 .1 0 0 0 0z"/><path d="M8 2.7s0-.1 0 0c0-.1 0 0 0 0s0-.1 0 0c0-.1 0-.1 0 0z"/><path fill="#3E9A13" d="M8 2.6c.1 0 0 .1 0 0z"/><path fill="#3E9A13" d="M8.1 2.6s0 .1 0 0c-.1 0-.1 0 0 0z"/><path fill="#3E9A13" d="M8.1 2.6s0 .1 0 0c-.1 0-.1 0 0 0zm-.2.1c0 .1.1.1 0 0zm0 .1c.1 0 .1 0 0 0zm0 0s.1 0 0 0zm0-.1s.1 0 0 0zm0 0s.1 0 0 0zm0 0s.1 0 0 0c.1 0 0 0 0 0z"/><path d="M8 2.7s-.1 0 0 0c-.1 0 0 0 0 0s-.1 0 0 0c-.1 0 0 0 0 0z"/><path fill="#3E9A13" d="M7.9 2.7c0 .1.1.1 0 0z"/><path d="M8 2.8c-.1 0-.1 0 0 0-.1 0 0 0 0 0-.1-.1-.1-.1 0 0-.1-.1-.1-.1 0 0z"/><path fill="#3E9A13" d="M7.9 2.7c.1 0 .1 0 0 0 .1 0 0 0 0 0zm.1.2s0-.1 0 0zM7.9 2.9c.1 0 .1-.1 0 0 .1-.1.1-.1 0 0zm0-.1c.1 0 .1 0 0 0zM7.9 2.8s.1 0 0 0c.1 0 0 0 0 0zm.3-.1s0 .1 0 0zm-.3.1c.1 0 .1 0 0 0 .1 0 0 0 0 0z"/><path d="M7.9 2.8s.1 0 0 0c.1 0 0 0 0 0 .1 0 .1 0 0 0 .1 0 .1 0 0 0z"/><path fill="#3E9A13" d="M8.1 2.9s0-.1 0 0c0-.1.1 0 0 0zm0 0s0-.1 0 0zm.1-.1s-.1 0 0 0c-.1 0-.1.1 0 0zm0 0c-.1 0-.1 0 0 0zM8.1 2.6c0 .1 0 .1 0 0 0 .1 0 .1 0 0zm0 0s0 .1 0 0zm-.1 0c0 .1 0 .1 0 0zm0 .3s0-.1 0 0zM8.2 2.8s-.1 0 0 0zm0-.1s-.1 0 0 0z"/><path d="M8 2.7c.1 0 0 0 0 0z"/><path fill="#3E9A13" d="M8 2.7c0 .1 0 0 0 0zm0 .1s0-.1 0 0c0-.1 0-.1 0 0z"/><path d="M8 2.8c0-.1 0-.1 0 0 0-.1 0-.1 0 0 0-.1 0 0 0 0z"/><path fill="#3E9A13" d="M8 2.9s0-.1 0 0c0-.1 0-.1 0 0zm0 0s.1-.1 0 0c0-.1 0-.1 0 0z"/><path d="M8 2.9s.1-.1 0 0c0-.1 0-.1 0 0 0-.1 0-.1 0 0 .1-.1 0 0 0 0z"/><path fill="#3E9A13" d="M8 2.9c.1 0 .1-.1 0 0 0-.1 0 0 0 0z"/><path d="M8 2.9s0-.1 0 0c0-.1 0 0 0 0 .1 0 .1-.1 0 0 .1-.1.1 0 0 0z"/><path fill="#3E9A13" d="M8.1 2.9s0-.1 0 0c-.1 0-.1 0 0 0zm0 0s0-.1 0 0zm0 0s0-.1 0 0zm.1-.1s-.1 0 0 0c-.1 0-.1 0 0 0zm0 0c-.1-.1-.1 0 0 0-.1 0 0 0 0 0zm0-.1c-.1 0-.1 0 0 0-.1 0-.1 0 0 0zM8 2.7s.1 0 0 0c.1 0 .1 0 0 0z"/><path d="M8.1 2.7s-.1 0 0 0c-.1 0 0 0 0 0z"/><path fill="#3E9A13" d="M8 2.7c0 .1 0 0 0 0zm0 .1s.1-.1 0 0c0-.1 0-.1 0 0zm0 0s.1 0 0 0zm0 0s.1 0 0 0zm0 0c.1 0 .1 0 0 0zM8.1 2.8c0-.1 0 0 0 0z"/><path d="M8.1 2.8s0-.1 0 0z"/><path fill="#3E9A13" d="M8.1 2.7c0 .1 0 .1 0 0z"/><path d="M8.1 2.8c0-.1 0-.1 0 0 0-.1 0-.1 0 0z"/><path fill="#3E9A13" d="M8 2.7s.1 0 0 0zm.1 0c-.1 0 0 0 0 0z"/><path d="M8.1 2.7s-.1 0 0 0c-.1 0 0 0 0 0z"/><path fill="#3E9A13" d="M8.1 2.7c0 .1 0 0 0 0z"/><path d="M8.1 2.8s0-.1 0 0c0-.1 0-.1 0 0 0-.1 0-.1 0 0 0-.1 0 0 0 0z"/><path fill="#3E9A13" d="M8.1 2.8s0-.1 0 0z"/><path d="M8.1 2.8s0-.1 0 0z"/><path fill="#F8E629" d="M8 2.8c.1 0 .1 0 0 0 .2-.2 0 0 0 0z"/><path d="M8 2.8c0-.1.1-.1 0 0 .1 0 .1 0 0 0zm0-.1s0 .1 0 0c0 .1.1.1 0 0z"/><path fill="#FDFFCB" d="M8 4.6s.1 0 0 0c0 0 0-.1 0 0 0-.1 0-.1 0 0zM7.9 4c0-.1 0-.1 0 0zm-.1-.1c.1 0 .1 0 0 0zm.5.1s0-.1 0 0c0-.1 0-.1 0 0 0-.1 0-.1 0 0zm-.2.2c0-.1 0-.1 0 0 0-.1 0-.1 0 0z"/><path fill="#C0003B" d="M7.9 4.4c0-.1 0-.1 0 0 0-.1 0-.1 0 0 0-.1 0-.1 0 0 0-.1 0-.1 0 0 0-.1 0-.1 0 0zm0-.1c0 .1 0 .1 0 0z"/></svg>