<?xml version="1.0" encoding="UTF-8"?>
<svg width="30px" height="30px" viewBox="0 0 30 30" version="1.1" xmlns="http://www.w3.org/2000/svg" xmlns:xlink="http://www.w3.org/1999/xlink">
    <title>Hazlo_realidad_30x30</title>
    <g id="Hazlo_realidad_30x30" stroke="none" stroke-width="1" fill="none" fill-rule="evenodd">
        <g transform="translate(0.550000, 0.550000)">
            <polygon id="Path-11" fill="#DBDBDB" points="8.98172658 20.6428571 7.15305304 20.6428571 5.16071429 25.8035714 24.7714286 25.8035714 22.8721163 20.6428571 20.2575736 20.6428571 18.7618812 22.9050199 10.8862976 22.9050199"></polygon>
            <polygon id="Path-12" fill="#FF8300" points="0 26.3029091 2.06428571 26.8357143 26.8357143 26.8357143 28.9 26.3029091 28.9 28.0782272 28.0666687 28.9 25.6838257 28.9 2.06428571 28.9 0.377272797 28.5190689 0 28.0782272"></polygon>
            <path d="M7.54762573,18.5971701 L5.55199938,18.5971701 C4.87342623,18.4727611 4.20570045,18.9724936 3.54882203,20.0963675 C2.89194361,21.2202414 1.72571744,23.0129392 0.0501435314,25.4744609 C-0.199992775,26.3798912 0.485707057,26.8326063 2.10724303,26.8326063 C3.72877899,26.8326063 11.9211106,26.8326063 26.6842377,26.8326063 C28.5977185,26.8780411 29.2718712,26.4253259 28.7066956,25.4744609 C28.1415201,24.5235958 27.0340998,22.730898 25.3844347,20.0963675 C24.7523927,19.0969026 24.0131609,18.5971701 23.1667393,18.5971701 C22.3203178,18.5971701 21.8230713,18.5971701 21.675,18.5971701" id="Path-3" stroke="#424242" stroke-linecap="square" stroke-linejoin="round"></path>
            <ellipse id="Oval" fill="#424242" cx="4.62857143" cy="22.2166667" rx="1" ry="1"></ellipse>
            <polyline id="Path-2" stroke="#FF8300" points="2.06428571 9.28928571 10.5788594 22.7071429 18.4886245 22.7071429 26.8357143 9.45525165"></polyline>
            <path d="M0,25.8035714 L0,27.7436498 C0.0293641819,28.5145499 0.575718266,28.9 1.63906225,28.9 C2.70240624,28.9 11.2093901,28.9 27.1600138,28.9 C28.3200046,28.8541481 28.9,28.4686981 28.9,27.7436498 C28.9,27.0186015 28.9,26.3719087 28.9,25.8035714" id="Path-4" stroke="#424242"></path>
            <g id="CUBO" transform="translate(8.257143, 0.000000)" stroke="#FF8300" stroke-linejoin="round">
                <polygon id="Path-6" points="0 3.67623658 0 11.0588792 6.81664279 14.3885488 13.4178571 11.0588792 13.4178571 3.67623658 6.63887484 0"></polygon>
                <line x1="0" y1="3.67623658" x2="2.14794974" y2="4.74632817" id="Path-7"></line>
                <line x1="13.4178571" y1="3.67623658" x2="11.3687531" y2="4.74632817" id="Path-8"></line>
                <polyline id="Path-9" points="4.54942867 6.03436759 6.63887484 7.19427439 8.71893097 6.03436759"></polyline>
                <line x1="6.58223718" y1="7.19427439" x2="6.63887484" y2="8.92134073" id="Path-10"></line>
                <line x1="6.58223718" y1="11.6172019" x2="6.63887484" y2="14.45" id="Path-10"></line>
            </g>
        </g>
    </g>
</svg>