<?xml version="1.0" encoding="UTF-8"?>
<svg width="30px" height="30px" viewBox="0 0 30 30" version="1.1" xmlns="http://www.w3.org/2000/svg" xmlns:xlink="http://www.w3.org/1999/xlink">
    <title>Hazlo_tu_mismo_30x30</title>
    <g id="Hazlo_tu_mismo_30x30" stroke="none" stroke-width="1" fill="none" fill-rule="evenodd">
        <g transform="translate(-1.000000, -1.000000)">
            <g id="Group">
                <path d="M13.7116445,2.5688907 C14.0823392,2.5688907 14.4399044,2.70615372 14.7153763,2.95420579 L14.7153763,2.95420579 L22.7959749,10.2304808 C23.1118738,10.5149359 23.2922431,10.9200694 23.2922431,11.3451657 L23.2922431,11.3451657 L23.2922431,26.9989152 C23.2922431,27.6892711 23.012421,28.3142711 22.56001,28.7666821 C22.107599,29.2190931 21.482599,29.4989152 20.7922431,29.4989152 L20.7922431,29.4989152 L4.03444535,29.4989152 C3.34408941,29.4989152 2.71908941,29.2190931 2.2666784,28.7666821 C1.81426738,28.3142711 1.53444535,27.6892711 1.53444535,26.9989152 L1.53444535,26.9989152 L1.53444535,5.0688907 C1.53444535,4.37853476 1.81426738,3.75353476 2.2666784,3.30112375 C2.71908941,2.84871273 3.34408941,2.5688907 4.03444535,2.5688907 L4.03444535,2.5688907 Z" id="Rectangle" stroke="#424242"></path>
                <path d="M5.10333605,4.1377814 L13.4466721,4.1377814 C13.8187944,4.1377814 14.1337611,4.41255562 14.184249,4.78123711 L14.184249,4.78123711 L14.184249,4.78123711 C14.184249,8.1793521 14.184249,9.99727287 14.184249,10.2349994 C14.184249,10.472726 16.6972835,10.5915892 21.7233524,10.5915892 L21.7233524,11.5420028 L21.7233524,25.9300245 C21.7233524,27.034594 20.8279219,27.9300245 19.7233524,27.9300245 L5.10333605,27.9300245 C3.99876655,27.9300245 3.10333605,27.034594 3.10333605,25.9300245 L3.10333605,6.1377814 C3.10333605,5.0332119 3.99876655,4.1377814 5.10333605,4.1377814 Z" id="Rectangle" fill="#FF8300"></path>
                <path d="M14.0961331,2.6274803 L14.0961331,9.59158925 C14.0961331,10.143874 14.5438484,10.5915892 15.0961331,10.5915892 L23.1835972,10.5915892 L23.1835972,10.5915892" id="Path-14" stroke="#424242"></path>
                <g id="lista" transform="translate(5.172227, 14.482235)" fill="#FFFFFF">
                    <rect id="Rectangle" stroke="#424242" x="0.5" y="0.5" width="13.4822349" height="2.10333605" rx="1.05166803"></rect>
                    <rect id="Rectangle" x="1.03444535" y="4.1377814" width="12.4133442" height="1.03444535" rx="0.517222675"></rect>
                    <rect id="Rectangle" x="1.03444535" y="6.2066721" width="12.4133442" height="1.03444535" rx="0.517222675"></rect>
                    <rect id="Rectangle" x="1.03444535" y="8.2755628" width="12.4133442" height="1.03444535" rx="0.517222675"></rect>
                </g>
            </g>
            <path d="M23.4640277,22.5562589 L25.1557195,24.9406704 L26.638766,22.5562589 C26.638766,16.2438888 26.638766,12.7573041 26.638766,12.0965049 C26.638766,11.105306 26.3839558,10.4584355 25.1557195,10.4584355 C23.9274832,10.4584355 23.4640277,10.9356549 23.4640277,12.0965049 C23.4640277,12.8704049 23.4640277,16.3569895 23.4640277,22.5562589 Z" id="lapiz" stroke="#424242" fill="#D8D8D8" transform="translate(25.051397, 17.699553) rotate(41.000000) translate(-25.051397, -17.699553) "></path>
        </g>
    </g>
</svg>