<svg width="16" height="10" viewBox="0 0 16 10" fill="none" xmlns="http://www.w3.org/2000/svg">
<path d="M16 0H0V9.33492H16V0Z" fill="white"/>
<path d="M7.99999 4.14746L7.83789 4.63852L8.0858 4.71957L7.99999 4.14746Z" fill="#2A43B6"/>
<path d="M7.99988 4.14746L8.15721 4.63852L7.91406 4.71957L7.99988 4.14746Z" fill="#2A43B6"/>
<path d="M8.49134 4.50586H7.97168V4.76807L8.49134 4.50586Z" fill="#2A43B6"/>
<path d="M8.49105 4.50586L8.0715 4.81098L7.91895 4.60121L8.49105 4.50586Z" fill="#2A43B6"/>
<path d="M7.50391 4.50586L7.92346 4.81098L8.07602 4.60121L7.50391 4.50586Z" fill="#2A43B6"/>
<path d="M7.50391 4.50586H8.02359V4.76807L7.50391 4.50586Z" fill="#2A43B6"/>
<path d="M8.29978 5.08665L8.14245 4.59082L7.89453 4.67187L8.29978 5.08665Z" fill="#2A43B6"/>
<path d="M8.30052 5.08716L7.88574 4.78204L8.03354 4.57227L8.30052 5.08716Z" fill="#2A43B6"/>
<path d="M7.69434 5.08716L8.11389 4.78204L7.96132 4.57227L7.69434 5.08716Z" fill="#2A43B6"/>
<path d="M7.69434 5.08665L7.85166 4.59082L8.09957 4.67187L7.69434 5.08665Z" fill="#2A43B6"/>
<path d="M10.589 4.9248L10.4316 5.42063L10.6748 5.49691L10.589 4.9248Z" fill="#2A43B6"/>
<path d="M10.5887 4.9248L10.7509 5.42063L10.5029 5.49691L10.5887 4.9248Z" fill="#2A43B6"/>
<path d="M11.0851 5.28223H10.5654V5.54444L11.0851 5.28223Z" fill="#2A43B6"/>
<path d="M11.0848 5.28223L10.6652 5.58735L10.5127 5.37758L11.0848 5.28223Z" fill="#2A43B6"/>
<path d="M10.0977 5.28223L10.5172 5.58735L10.6698 5.37758L10.0977 5.28223Z" fill="#2A43B6"/>
<path d="M10.0977 5.28223H10.6173V5.54444L10.0977 5.28223Z" fill="#2A43B6"/>
<path d="M10.8935 5.86399L10.7362 5.36816L10.4883 5.44921L10.8935 5.86399Z" fill="#2A43B6"/>
<path d="M10.8942 5.86353L10.4746 5.55841L10.6272 5.34863L10.8942 5.86353Z" fill="#2A43B6"/>
<path d="M10.2842 5.86353L10.7037 5.55841L10.5512 5.34863L10.2842 5.86353Z" fill="#2A43B6"/>
<path d="M10.2842 5.86399L10.4463 5.36816L10.6942 5.44921L10.2842 5.86399Z" fill="#2A43B6"/>
<path d="M10.589 3.37109L10.4316 3.86215L10.6748 3.94321L10.589 3.37109Z" fill="#2A43B6"/>
<path d="M10.5887 3.37109L10.7509 3.86215L10.5029 3.94321L10.5887 3.37109Z" fill="#2A43B6"/>
<path d="M11.0851 3.72852H10.5654V3.98597L11.0851 3.72852Z" fill="#2A43B6"/>
<path d="M11.0848 3.72852L10.6652 4.03364L10.5127 3.82387L11.0848 3.72852Z" fill="#2A43B6"/>
<path d="M10.0977 3.72852L10.5172 4.03364L10.6698 3.82387L10.0977 3.72852Z" fill="#2A43B6"/>
<path d="M10.0977 3.72852H10.6173V3.98597L10.0977 3.72852Z" fill="#2A43B6"/>
<path d="M10.8935 4.31028L10.7362 3.81445L10.4883 3.8955L10.8935 4.31028Z" fill="#2A43B6"/>
<path d="M10.8942 4.30982L10.4746 4.0047L10.6272 3.79492L10.8942 4.30982Z" fill="#2A43B6"/>
<path d="M10.2842 4.30982L10.7037 4.0047L10.5512 3.79492L10.2842 4.30982Z" fill="#2A43B6"/>
<path d="M10.2842 4.31028L10.4463 3.81445L10.6942 3.8955L10.2842 4.31028Z" fill="#2A43B6"/>
<path d="M5.40624 4.9248L5.24414 5.42063L5.49206 5.49691L5.40624 4.9248Z" fill="#2A43B6"/>
<path d="M5.40613 4.9248L5.56346 5.42063L5.32031 5.49691L5.40613 4.9248Z" fill="#2A43B6"/>
<path d="M5.89759 5.28223H5.37793V5.54444L5.89759 5.28223Z" fill="#2A43B6"/>
<path d="M5.8973 5.28223L5.47775 5.58735L5.3252 5.37758L5.8973 5.28223Z" fill="#2A43B6"/>
<path d="M4.91016 5.28223L5.32969 5.58735L5.48226 5.37758L4.91016 5.28223Z" fill="#2A43B6"/>
<path d="M4.91016 5.28223H5.42982V5.54444L4.91016 5.28223Z" fill="#2A43B6"/>
<path d="M5.71178 5.86399L5.54968 5.36816L5.30176 5.44921L5.71178 5.86399Z" fill="#2A43B6"/>
<path d="M5.71154 5.86353L5.29199 5.55841L5.44456 5.34863L5.71154 5.86353Z" fill="#2A43B6"/>
<path d="M5.10156 5.86353L5.52111 5.55841L5.36855 5.34863L5.10156 5.86353Z" fill="#2A43B6"/>
<path d="M5.10156 5.86399L5.25889 5.36816L5.50681 5.44921L5.10156 5.86399Z" fill="#2A43B6"/>
<path d="M5.40624 3.37109L5.24414 3.86215L5.49206 3.94321L5.40624 3.37109Z" fill="#2A43B6"/>
<path d="M5.40613 3.37109L5.56346 3.86215L5.32031 3.94321L5.40613 3.37109Z" fill="#2A43B6"/>
<path d="M5.89759 3.72852H5.37793V3.98597L5.89759 3.72852Z" fill="#2A43B6"/>
<path d="M5.8973 3.72852L5.47775 4.03364L5.3252 3.82387L5.8973 3.72852Z" fill="#2A43B6"/>
<path d="M4.91016 3.72852L5.32969 4.03364L5.48226 3.82387L4.91016 3.72852Z" fill="#2A43B6"/>
<path d="M4.91016 3.72852H5.42982V3.98597L4.91016 3.72852Z" fill="#2A43B6"/>
<path d="M5.71178 4.31028L5.54968 3.81445L5.30176 3.8955L5.71178 4.31028Z" fill="#2A43B6"/>
<path d="M5.71154 4.30982L5.29199 4.0047L5.44456 3.79492L5.71154 4.30982Z" fill="#2A43B6"/>
<path d="M5.10156 4.30982L5.52111 4.0047L5.36855 3.79492L5.10156 4.30982Z" fill="#2A43B6"/>
<path d="M5.10156 4.31028L5.25889 3.81445L5.50681 3.8955L5.10156 4.31028Z" fill="#2A43B6"/>
<path d="M16 0H0V3.11323H16V0Z" fill="#2A43B6"/>
<path d="M16 6.22168H0V9.33491H16V6.22168Z" fill="#2A43B6"/>
</svg>
