<?xml version="1.0" encoding="UTF-8"?>
<svg width="30px" height="30px" viewBox="0 0 30 30" version="1.1" xmlns="http://www.w3.org/2000/svg" xmlns:xlink="http://www.w3.org/1999/xlink">
    <title>Servicios_Moviles_30x30</title>
    <g id="Servicios_Moviles_30x30" stroke="none" stroke-width="1" fill="none" fill-rule="evenodd">
        <g transform="translate(6.000000, 0.000000)">
            <path d="M2.55572196,29.9995535 L15.6019278,29.9995535 C17.0136468,29.9995535 18.1576498,28.8206311 18.1576498,27.3658327 L18.1576498,2.6337388 C18.1576498,1.17891045 17.0136468,0 15.6019278,0 L2.55572196,0 C1.14400297,0 0,1.17891045 0,2.6337388 L0,20.4428358 L0,25.0581471 L0,27.3658327 C0,28.8206311 1.14400297,29.9995535 2.55572196,29.9995535 Z M1.11988333,27.3658327 L1.11988333,26.2119899 L1.11988333,19.2889929 L1.11988333,2.6337448 C1.11988333,1.83108275 1.75269391,1.15383683 2.55590196,1.15383683 L15.6021678,1.15383683 C16.4053758,1.15383683 17.0381864,1.80599712 17.0381864,2.6337448 L17.0381864,27.3658327 C17.0381864,28.1935804 16.4053758,28.8457107 15.6021678,28.8457107 L2.55590196,28.8457107 C1.77705355,28.8457107 1.11988333,28.1935804 1.11988333,27.3658327 Z" id="Shape" fill="#424242"></path>
            <line x1="7.89432251" y1="27.6312088" x2="10.2626673" y2="27.6312088" id="Stroke-7" stroke="#424242" stroke-width="1.66"></line>
            <path d="M9.47331901,2.76328887 C9.47331901,2.98121163 9.29668164,3.157849 9.07840489,3.157849 C8.86048813,3.157849 8.68385076,2.98121163 8.68385076,2.76328887 C8.68385076,2.54503012 8.86048813,2.36838675 9.07840489,2.36838675 C9.29668164,2.36838675 9.47331901,2.54503012 9.47331901,2.76328887 Z" id="Fill-8" fill="#424242"></path>
            <polygon id="Fill-4" fill="#FF8300" points="2.36786476 26.0522723 15.788765 26.0366725 15.788765 3.94732925 2.36786476 3.94732925"></polygon>
            <rect id="Rectangle" fill="#DBDBDB" x="10" y="8" width="4" height="4" rx="1"></rect>
            <rect id="Rectangle" stroke="#424242" fill="#FFFFFF" x="4.5" y="8.5" width="3" height="3" rx="1"></rect>
            <rect id="Rectangle" stroke="#424242" fill="#FFFFFF" x="10.5" y="13.5" width="3" height="3" rx="1"></rect>
            <rect id="Rectangle" fill="#DBDBDB" x="4" y="13" width="4" height="4" rx="1"></rect>
        </g>
    </g>
</svg>