<?xml version="1.0" encoding="UTF-8"?>
<svg width="30px" height="30px" viewBox="0 0 30 30" version="1.1" xmlns="http://www.w3.org/2000/svg" xmlns:xlink="http://www.w3.org/1999/xlink">
    <title>Servicios_Hogar_30x30</title>
    <g id="Servicios_Hogar_30x30" stroke="none" stroke-width="1" fill="none" fill-rule="evenodd">
        <g transform="translate(0.500000, 3.000000)">
            <g id="TV" transform="translate(2.320000, 0.000000)">
                <polygon id="Path" stroke="#424242" fill="#FF8300" fill-rule="nonzero" stroke-linecap="round" stroke-linejoin="round" points="10.54875 18.038 13.81125 18.038 14.355 20.213 10.005 20.213"></polygon>
                <line x1="9.28" y1="20.213" x2="15.08" y2="20.213" id="Path" stroke="#424242" stroke-linecap="square"></line>
                <rect id="Rectangle" fill="#FF8300" x="1.16" y="1.508" width="22.04" height="15.08"></rect>
                <path d="M23.7590788,17.9494737 L0.579490241,17.9494737 C0.25754966,17.9494737 0,17.6599769 0,17.2980866 L0,0.651394847 C0,0.289504515 0.25754966,0 0.579490241,0 L23.7805378,0 C24.1024924,0 24.36,0.289504515 24.36,0.651394847 L24.36,17.2980866 C24.338541,17.6599769 24.0810335,17.9494737 23.7590788,17.9494737 Z" id="Path" stroke="#424242" fill-rule="nonzero"></path>
            </g>
            <g id="PHONE" transform="translate(21.750000, 12.238000)">
                <rect id="Rectangle" fill="#FFFFFF" fill-rule="nonzero" x="0" y="0" width="7.25" height="11.6" rx="1"></rect>
                <rect id="Rectangle" stroke="#424242" stroke-linecap="round" x="0" y="0" width="7.25" height="11.6" rx="1"></rect>
                <g id="Elementos" transform="translate(1.150000, 0.962000)">
                    <rect id="Rectangle" fill="#FF8300" x="0" y="1.1" width="5" height="7.3"></rect>
                    <circle id="Oval" fill="#424242" cx="2.6" cy="0.3" r="1"></circle>
                    <rect id="Rectangle" fill="#424242" x="2.1" y="8.8" width="1" height="1"></rect>
                </g>
            </g>
            <g id="TABLET" transform="translate(0.000000, 9.338000)">
                <rect id="Rectangle" fill="#FFFFFF" fill-rule="nonzero" x="0" y="0" width="10.15" height="14.5" rx="1"></rect>
                <rect id="Rectangle" stroke="#424242" stroke-linecap="round" x="0" y="0" width="10.15" height="14.5" rx="1"></rect>
                <rect id="Rectangle" fill="#FF8300" x="1.5" y="1.662" width="7" height="10"></rect>
                <circle id="Oval" fill="#424242" cx="5" cy="12.662" r="1"></circle>
            </g>
        </g>
    </g>
</svg>