<svg width="18" height="19" viewBox="0 0 18 19" fill="none" xmlns="http://www.w3.org/2000/svg">
<path d="M12.3604 1.51025H5.63934C3.35691 1.51025 1.5 3.36725 1.5 5.64969V12.3707C1.5 14.6533 3.35691 16.5102 5.63934 16.5102H12.3604C14.643 16.5102 16.4999 14.6532 16.4999 12.3707V5.64969C16.5 3.36725 14.643 1.51025 12.3604 1.51025ZM15.1691 12.3707C15.1691 13.9194 13.9092 15.1793 12.3605 15.1793H5.63934C4.09075 15.1794 2.83086 13.9194 2.83086 12.3707V5.64969C2.83086 4.10109 4.09075 2.84112 5.63934 2.84112H12.3604C13.9091 2.84112 15.169 4.10109 15.169 5.64969L15.1691 12.3707Z" fill="#2D2D2D"/>
<path d="M8.99937 5.14526C6.86813 5.14526 5.13428 6.87911 5.13428 9.01036C5.13428 11.1415 6.86813 12.8753 8.99937 12.8753C11.1306 12.8753 12.8645 11.1415 12.8645 9.01036C12.8645 6.87911 11.1306 5.14526 8.99937 5.14526ZM8.99937 11.5443C7.60206 11.5443 6.46514 10.4076 6.46514 9.01027C6.46514 7.61286 7.60197 6.47604 8.99937 6.47604C10.3968 6.47604 11.5336 7.61286 11.5336 9.01027C11.5336 10.4076 10.3967 11.5443 8.99937 11.5443Z" fill="#2D2D2D"/>
<path d="M13.0272 4.01678C12.7708 4.01678 12.5189 4.12059 12.3379 4.30248C12.1559 4.48347 12.0513 4.73545 12.0513 4.99275C12.0513 5.24925 12.156 5.50114 12.3379 5.68303C12.5188 5.86403 12.7708 5.96872 13.0272 5.96872C13.2845 5.96872 13.5356 5.86403 13.7175 5.68303C13.8994 5.50114 14.0032 5.24917 14.0032 4.99275C14.0032 4.73545 13.8994 4.48347 13.7175 4.30248C13.5365 4.12059 13.2845 4.01678 13.0272 4.01678Z" fill="#2D2D2D"/>
</svg>
