<?xml version="1.0" encoding="UTF-8"?>
<svg width="30px" height="30px" viewBox="0 0 30 30" version="1.1" xmlns="http://www.w3.org/2000/svg" xmlns:xlink="http://www.w3.org/1999/xlink">
    <title>Marcas_30x30</title>
    <g id="Marcas_30x30" stroke="none" stroke-width="1" fill="none" fill-rule="evenodd">
        <g transform="translate(0.500000, 1.615397)">
            <g id="hand" transform="translate(0.000000, 15.384603)" stroke="#424242" stroke-linecap="square" stroke-linejoin="round">
                <path d="M0,8.05577037 L3.75925926,5.37058519 C3.75925926,5.37058519 6.95946296,0.537251852 10.2037037,0.537251852 C13.0682593,0.537251852 15.037037,2.6854 15.037037,2.6854 L18.2592593,4.29651111 C18.2592593,4.29651111 20.3182593,3.75947407 21.4814815,3.75947407 C22.7349259,3.75947407 23.0925926,4.83354815 23.0925926,4.83354815 C23.0925926,4.83354815 19.7361111,6.9816963 18.2592593,6.9816963 C17.1180556,6.9816963 13.962963,5.90762222 13.962963,5.90762222" id="Stroke-1"></path>
                <path d="M7.51851852,11.2779926 C7.51851852,11.2779926 9.10761111,8.59280741 11.2777778,8.59280741 C12.9560185,8.59280741 16.7372963,9.66688148 18.7962963,9.66688148 C20.3182593,9.66688148 25.2407407,6.9816963 25.2407407,6.9816963 L29,2.6854 C29,2.6854 28.5746667,2.14836296 27.9259259,2.14836296 C26.5387593,2.14836296 24.054963,4.83354815 23.0925926,4.83354815" id="Stroke-3"></path>
                <path d="M26.9602661,2.14836296 L27.3889426,0 C26.0087574,0 25.5791278,0.29 24.7037574,1.61111111 L23.0926463,4.58414815" id="Stroke-5"></path>
            </g>
            <g id="Group-2" transform="translate(6.925169, 0.000000)">
                <g id="Group-14-Copy" transform="translate(7.874831, 0.000000)">
                    <path d="M1,0 L8.5,0 C9.05228475,-2.12475365e-16 9.5,0.44771525 9.5,1 L9.5,14.3846034 C9.5,14.9368881 9.05228475,15.3846034 8.5,15.3846034 L1,15.3846034 C0.44771525,15.3846034 9.37667865e-16,14.9368881 0,14.3846034 L0,1 C-1.78657678e-16,0.44771525 0.44771525,-9.5692398e-18 1,0 Z" id="Path-13" stroke="#424242"></path>
                    <line x1="4.04792291" y1="14.121455" x2="5.35229978" y2="14.121455" id="Stroke-7" stroke="#424242" stroke-width="0.6"></line>
                    <path d="M4.91765594,0.858383051 C4.91765594,0.974608945 4.82037975,1.06880234 4.70016701,1.06880234 C4.58013985,1.06880234 4.48286365,0.974608945 4.48286365,0.858383051 C4.48286365,0.741973853 4.58013985,0.647766076 4.70016701,0.647766076 C4.82037975,0.647766076 4.91765594,0.741973853 4.91765594,0.858383051 Z" id="Fill-8" fill="#424242"></path>
                    <polygon id="Fill-4" fill="#FF8300" points="1.00478513 13.2793322 8.39610561 13.2710295 8.39610561 1.48986377 1.00478513 1.48986377"></polygon>
                </g>
            </g>
        </g>
    </g>
</svg>