<svg width="18" height="20" viewBox="0 0 18 20" fill="none" xmlns="http://www.w3.org/2000/svg">
<path fill-rule="evenodd" clip-rule="evenodd" d="M12 5C12 3.343 10.657 2 9 2C7.343 2 6 3.343 6 5C6 6.657 7.343 8 9 8C10.657 8 12 6.657 12 5ZM14 5C14 7.762 11.761 10 9 10C6.238 10 4 7.762 4 5C4 2.238 6.238 0 9 0C11.761 0 14 2.238 14 5ZM13 11.9998C14.327 11.9998 15.598 12.5268 16.536 13.4648C17.473 14.4018 18 15.6738 18 16.9998V18.9998C18 19.5528 17.553 19.9998 17 19.9998C16.448 19.9998 16 19.5528 16 18.9998V16.9998C16 16.2038 15.684 15.4418 15.121 14.8788C14.559 14.3168 13.796 13.9998 13 13.9998H5C4.204 13.9998 3.442 14.3168 2.879 14.8788C2.316 15.4418 2 16.2038 2 16.9998V18.9998C2 19.5528 1.553 19.9998 1 19.9998C0.448 19.9998 0 19.5528 0 18.9998V16.9998C0 15.6738 0.527 14.4018 1.465 13.4648C2.403 12.5268 3.674 11.9998 5 11.9998H13Z" fill="white"/>
</svg>
