<svg width="16" height="10" viewBox="0 0 16 10" fill="none" xmlns="http://www.w3.org/2000/svg">
<path d="M16 6.22168H0V9.33491H16V6.22168Z" fill="#3564C2"/>
<path d="M16 0H0V3.11323H16V0Z" fill="#3564C2"/>
<path d="M16 3.1084H0V6.22163H16V3.1084Z" fill="white"/>
<path d="M7.06055 5.20582L7.99976 3.58008L8.93897 5.20582H7.06055Z" fill="#F5CD28"/>
<path d="M7.15137 5.15408L8 3.69043L8.84386 5.15408H7.15137Z" fill="#95D4FD"/>
<path d="M7.31893 5.02079C7.30939 5.02079 7.29509 5.02079 7.28555 5.01603L7.26172 5.01126V4.99219L7.29032 5.00172C7.31416 5.00649 7.338 5.00649 7.3666 5.00649C7.3523 5.01602 7.338 5.02079 7.31893 5.02079Z" fill="#95D4FD"/>
<path d="M7.2427 5.12558L7.22363 5.11128C7.23317 5.10651 7.2427 5.09698 7.25224 5.08268C7.27131 5.07791 7.28561 5.07791 7.29515 5.08268C7.30468 5.08268 7.31422 5.08744 7.32375 5.08744C7.34282 5.09698 7.36666 5.09698 7.38096 5.08744L7.4048 5.08268L7.38573 5.10175C7.36666 5.11128 7.33805 5.11605 7.31421 5.10175C7.30468 5.10175 7.29515 5.10175 7.28561 5.09698C7.27131 5.09221 7.26654 5.09221 7.25224 5.09698C7.25224 5.10651 7.24747 5.11605 7.2427 5.12558Z" fill="#95D4FD"/>
<path d="M7.40521 5.14005C7.38137 5.13528 7.36707 5.13528 7.33846 5.13528L7.31462 5.12574V5.13528C7.30032 5.13528 7.29079 5.13528 7.28602 5.13528H7.28125V5.12574C7.29555 5.12098 7.30509 5.12098 7.30986 5.11621H7.33369C7.36707 5.12098 7.39091 5.12098 7.40521 5.14005Z" fill="#95D4FD"/>
<path d="M7.64326 5.01077C7.60988 5.01077 7.60035 5.00123 7.59081 4.96786C7.58128 4.96786 7.55744 4.96786 7.53837 4.97263H7.51453L7.50977 4.95832H7.53837C7.55744 4.94879 7.58605 4.94879 7.60512 4.95832C7.61465 4.99646 7.62419 4.99646 7.64803 5.00123C7.64803 4.99646 7.66233 4.98693 7.67186 4.98216L7.69093 4.98693C7.66709 5.00123 7.65756 5.006 7.65279 5.01077C7.64803 5.01077 7.64326 5.01077 7.64326 5.01077Z" fill="#95D4FD"/>
<path d="M7.58548 5.09709L7.56641 5.08755C7.57594 5.08278 7.58548 5.07325 7.59501 5.05894C7.61885 5.03987 7.63315 5.03034 7.67129 5.03987C7.6999 5.06371 7.70943 5.06848 7.73327 5.07325C7.74757 5.07325 7.75711 5.07325 7.76664 5.06848C7.77618 5.06848 7.78094 5.06848 7.79048 5.06371C7.78094 5.08278 7.77618 5.08278 7.76664 5.08278C7.75711 5.08278 7.74281 5.08755 7.7285 5.08755C7.6999 5.08278 7.69036 5.07802 7.67129 5.06371C7.63315 5.04941 7.62361 5.05895 7.60454 5.06848C7.59978 5.08278 7.59024 5.09232 7.58548 5.09709Z" fill="#95D4FD"/>
<path d="M7.75723 5.15435C7.73339 5.15435 7.71432 5.14481 7.69525 5.14005L7.67618 5.13051C7.67141 5.13528 7.66188 5.14005 7.65711 5.14482L7.65234 5.13051H7.65711C7.65711 5.12575 7.66664 5.12098 7.67618 5.11621L7.70479 5.12574C7.72386 5.13528 7.73816 5.14005 7.75723 5.14005C7.76676 5.14005 7.77153 5.14005 7.7763 5.13528C7.78583 5.13528 7.79537 5.13051 7.80491 5.13051C7.79537 5.14482 7.78583 5.14958 7.78107 5.14958C7.7763 5.14958 7.76676 5.14958 7.75723 5.15435Z" fill="#95D4FD"/>
<path d="M7.96231 4.98282C7.93847 4.97329 7.91463 4.97329 7.89079 4.97329H7.86219L7.85742 4.95898H7.88603C7.9194 4.95898 7.94324 4.95898 7.96707 4.96852H8.04336L7.96231 4.98282Z" fill="#95D4FD"/>
<path d="M7.99597 5.07749C7.96736 5.07749 7.95306 5.06795 7.93876 5.05365L7.91969 5.04412C7.90538 5.02981 7.87678 5.02504 7.85771 5.02028C7.84817 5.02981 7.83864 5.02981 7.83387 5.03458L7.8291 5.02504H7.83387C7.83387 5.02028 7.83864 5.01551 7.85294 5.01074C7.88155 5.01074 7.91015 5.02028 7.92922 5.03458L7.94353 5.04412C7.95783 5.05365 7.96736 5.06319 7.9912 5.06319C8.01027 5.05365 8.0198 5.04888 8.02934 5.04888L8.01504 5.07272C8.01504 5.07272 8.01027 5.07749 7.99597 5.07749Z" fill="#95D4FD"/>
<path d="M8.03411 5.1208C8.01028 5.1208 7.99121 5.1208 7.97691 5.11127C7.95784 5.09696 7.92923 5.11127 7.91969 5.11603L7.91016 5.10173C7.92446 5.0922 7.95307 5.07789 7.98167 5.0922C8.00074 5.10173 8.02935 5.10173 8.05319 5.10173C8.06272 5.09696 8.07225 5.09219 8.08179 5.08743C8.09609 5.08266 8.11039 5.07789 8.11516 5.06836H8.11993H8.139L8.11993 5.08266C8.11516 5.08743 8.10086 5.09696 8.08656 5.10173C8.07702 5.1065 8.06749 5.11127 8.06272 5.11127C8.05319 5.1208 8.04365 5.1208 8.03411 5.1208Z" fill="#95D4FD"/>
<path d="M8.23914 5.02087C8.2153 5.01133 8.17716 5.01134 8.15809 5.01134L8.15332 5.0018L8.15809 4.99226C8.17716 4.99226 8.2153 4.99226 8.23914 5.0018C8.25821 4.99703 8.26774 4.98273 8.27728 4.96843L8.29158 4.95412C8.32019 4.94936 8.33926 4.95412 8.35833 4.95889C8.33449 4.96843 8.32019 4.96366 8.30112 4.96366C8.28205 5.0018 8.26774 5.02087 8.23914 5.02087Z" fill="#95D4FD"/>
<path d="M8.26258 5.11155L8.25781 5.09725C8.25781 5.09725 8.28165 5.09248 8.29595 5.08771C8.31502 5.06864 8.32456 5.07818 8.33886 5.08295C8.34363 5.08772 8.3484 5.09248 8.35793 5.09248C8.38177 5.08295 8.39607 5.06388 8.40561 5.04004C8.40561 5.07341 8.3913 5.09725 8.35793 5.10678C8.34363 5.10202 8.33409 5.09725 8.32933 5.09248C8.31979 5.08295 8.31502 5.08295 8.30549 5.09725C8.28642 5.10679 8.26258 5.11155 8.26258 5.11155Z" fill="#95D4FD"/>
<path d="M8.32996 5.04978L8.3252 5.04024H8.32996C8.3252 5.03547 8.33473 5.03071 8.34903 5.01641L8.36334 5.0021C8.37287 4.99257 8.38241 4.98303 8.40148 4.98303C8.41578 4.96396 8.43485 4.97826 8.44438 4.9878C8.42055 4.9878 8.41578 4.9878 8.41101 4.99734C8.38717 5.0021 8.38241 5.00687 8.37287 5.01641C8.3681 5.02117 8.36334 5.02594 8.35857 5.03071C8.34427 5.04024 8.33473 5.04501 8.32996 5.04978Z" fill="#95D4FD"/>
<path d="M8.44887 5.11139H8.43457C8.43457 5.10662 8.44411 5.06848 8.45364 5.05418C8.47271 5.03987 8.48224 5.03511 8.49655 5.03987C8.50608 5.04464 8.51562 5.05418 8.52515 5.06848C8.52992 5.06848 8.53946 5.07325 8.54899 5.08278C8.55853 5.08755 8.56806 5.09232 8.58236 5.09709C8.56329 5.10662 8.55376 5.10185 8.54422 5.09232C8.53469 5.08755 8.52515 5.08278 8.51562 5.07802C8.50608 5.05895 8.49655 5.05418 8.49178 5.04941C8.48701 5.04941 8.47748 5.04941 8.46317 5.05894C8.46317 5.07325 8.44887 5.10662 8.44887 5.11139Z" fill="#95D4FD"/>
<path d="M8.5919 5.02073C8.57283 4.98736 8.5633 4.96829 8.54423 4.96352C8.54423 4.97782 8.53946 4.99213 8.5347 4.99689L8.51562 4.98736C8.52516 4.98259 8.52993 4.96829 8.53946 4.94922C8.57761 4.95399 8.58237 4.97306 8.59667 4.99689C8.62051 5.00166 8.63481 4.99689 8.64912 4.98736C8.63958 5.02073 8.62051 5.02073 8.5919 5.02073Z" fill="#95D4FD"/>
<path d="M8.76786 5.09725C8.74402 5.09248 8.73448 5.08772 8.72971 5.07818C8.72018 5.07341 8.71541 5.06388 8.70588 5.05911C8.69158 5.04957 8.68681 5.05434 8.67251 5.08771L8.6582 5.08295C8.66774 5.06388 8.67727 5.04004 8.69634 5.04004L8.71541 5.05434C8.72495 5.05911 8.73448 5.06388 8.74402 5.07341C8.74878 5.07818 8.75832 5.08772 8.76786 5.09248C8.76309 5.08295 8.77262 5.07818 8.78693 5.07341C8.77262 5.08771 8.77262 5.09248 8.76786 5.09725Z" fill="#95D4FD"/>
<path d="M8.16774 5.12516L8.1582 5.11086H8.16297C8.16297 5.10609 8.16774 5.10132 8.18204 5.09655C8.20588 5.07748 8.21541 5.06795 8.22972 5.04411C8.24879 5.03934 8.25832 5.04411 8.26786 5.04411C8.28216 5.04411 8.29169 5.04888 8.306 5.04888C8.29169 5.06318 8.27739 5.06318 8.26309 5.05841C8.25356 5.05841 8.24402 5.05364 8.23448 5.05364C8.22495 5.07748 8.21541 5.08702 8.19634 5.10609C8.18204 5.11562 8.1725 5.12039 8.16774 5.12516Z" fill="#95D4FD"/>
<path d="M7.44301 5.02533H7.42871C7.42871 5.0158 7.43825 5.01103 7.46685 4.99196C7.47639 4.97765 7.49069 4.98242 7.50023 4.98719L7.51929 5.00626C7.50976 5.00626 7.50499 5.00626 7.49546 5.00149H7.47639C7.45255 5.01579 7.44301 5.02056 7.44301 5.02533Z" fill="#95D4FD"/>
<path d="M7.52866 5.10185C7.52389 5.10185 7.51436 5.09708 7.50959 5.09708C7.50482 5.09231 7.49528 5.08754 7.48575 5.08754C7.48098 5.09231 7.47145 5.09708 7.46668 5.10185L7.46191 5.08754H7.46668C7.46668 5.08278 7.47145 5.07801 7.48575 5.07324C7.50482 5.07324 7.50959 5.07801 7.51912 5.08278C7.52866 5.08755 7.53343 5.09231 7.54773 5.09231C7.54296 5.10185 7.53343 5.10185 7.52866 5.10185Z" fill="#95D4FD"/>
<path d="M8.00563 4.82069L7.99609 3.70508H8.00563V4.82069Z" fill="white"/>
<path d="M7.59473 4.39637V4.3916H8.40045L7.59473 4.39637Z" fill="white"/>
<path d="M8.60604 4.73939L7.7002 4.22926L7.70496 4.21973L8.60604 4.73939Z" fill="white"/>
<path d="M7.39453 4.74881L8.30514 4.21484V4.22438L7.39453 4.74881Z" fill="white"/>
<path d="M7.81922 4.71509L7.81445 4.71032L8.15295 4.11914L7.81922 4.71509Z" fill="white"/>
<path d="M8.21528 4.75851L7.8291 4.10059H7.83387L8.21528 4.75851Z" fill="white"/>
<path d="M8.12487 4.39153C8.12487 4.45828 8.06766 4.51549 8.00091 4.51549C7.93417 4.51549 7.87695 4.45828 7.87695 4.39153C7.87695 4.32002 7.93417 4.26758 8.00091 4.26758C8.06766 4.26758 8.12487 4.32479 8.12487 4.39153Z" fill="#95D4FD"/>
<path d="M8.69201 4.8916L8.27246 4.89637C8.27246 4.89637 8.27246 4.95835 8.30107 4.95835C8.32967 4.95835 8.67771 4.95358 8.68724 4.98219C8.70154 5.01079 8.34874 5.02509 8.34874 5.02509C8.34874 5.02509 8.65863 5.02509 8.6777 5.04416C8.69677 5.068 8.50607 5.07277 8.52038 5.07754C8.53468 5.0823 8.73969 5.07277 8.75876 5.09661C8.77783 5.12045 8.66817 5.13475 8.66817 5.13475C8.66817 5.13475 8.83504 5.15382 8.8398 5.14905C8.80166 5.08231 8.69201 4.8916 8.69201 4.8916Z" fill="#487BA2"/>
<path d="M7.93832 4.31021C7.92402 4.31975 7.97169 4.32452 7.96692 4.35312C7.96216 4.3722 7.93832 4.4008 7.92878 4.41987C7.91925 4.43894 7.97646 4.51045 8.03367 4.47231C8.08611 4.43417 8.08135 4.36743 8.06228 4.35312C8.0146 4.32452 7.98599 4.28161 7.93832 4.31021Z" fill="#C0003B"/>
<path d="M8.01453 4.47288C8.00976 4.46334 7.99546 4.44903 7.97639 4.4395C7.96209 4.42996 7.94301 4.4252 7.93348 4.42997C7.93348 4.42997 7.93348 4.43473 7.93348 4.4395L7.92871 4.44427V4.42997C7.93825 4.42043 7.96685 4.43473 7.97639 4.4395C7.99069 4.4395 8.0193 4.45857 8.01453 4.47288Z" fill="black"/>
<path d="M7.63824 4.56853C7.68592 4.559 7.70022 4.61144 7.71929 4.62575C7.73359 4.63528 7.7765 4.64005 7.7908 4.64481C7.80034 4.64958 7.84325 4.67819 7.84325 4.67819C7.84325 4.67819 7.86232 4.62574 7.88616 4.62098C7.90999 4.61621 8.00535 4.68295 8.00535 4.68295C8.00535 4.68295 8.01488 4.62098 8.04349 4.63051C8.06733 4.64005 8.19605 4.7354 8.19605 4.7354C8.19605 4.7354 8.20082 4.70203 8.22942 4.69249C8.25803 4.68296 8.34861 4.74017 8.34861 4.74017C8.34861 4.74017 8.35815 4.69249 8.37722 4.69249C8.43443 4.69249 8.61083 4.88796 8.65374 4.89273C8.67281 4.89273 8.58699 4.92133 8.58699 4.92133C8.58699 4.92133 8.60129 4.93564 8.59176 4.94517C8.58222 4.95471 8.33431 4.94517 8.33431 4.94517C8.33431 4.94517 8.33908 4.96424 8.33908 4.96901C8.33431 4.97854 7.25684 4.98808 7.25684 4.98808C7.35219 4.81168 7.55242 4.5876 7.63824 4.56853Z" fill="#5B7133"/>
<path d="M8.06266 4.97292C8.1008 4.96339 8.07219 4.8585 7.86719 4.70117C8.19138 4.92525 7.98638 4.95862 8.32011 4.96816C8.2629 4.97292 8.06266 4.97292 8.06266 4.97292Z" fill="#263732"/>
<path d="M8.00977 4.69141C8.00977 4.69141 8.31966 4.92978 8.32919 4.93932C8.3435 4.93932 8.39594 4.93932 8.39594 4.93932C8.39594 4.93932 8.3578 4.94409 8.00977 4.69141Z" fill="#263732"/>
<path d="M8.19629 4.73926C8.19629 4.73926 8.45374 4.94426 8.4156 4.94426C8.37269 4.94426 8.55862 4.94903 8.592 4.94426C8.42036 4.93473 8.45374 4.92519 8.19629 4.73926Z" fill="#263732"/>
<path d="M8.35352 4.74902L8.58236 4.92066C8.58236 4.92066 8.6205 4.91112 8.6348 4.90159C8.56806 4.91112 8.55375 4.87775 8.35352 4.74902Z" fill="#263732"/>
<path d="M7.68098 4.58739C7.70005 4.6017 7.70481 4.62077 7.71435 4.6303C7.72389 4.63507 7.83354 4.68751 7.89075 4.74949C7.94796 4.81147 8.03855 4.88775 8.00517 4.89729C7.97657 4.90682 7.9432 4.87345 7.9432 4.87345C7.9432 4.87345 7.9861 4.94496 7.92889 4.94973C7.87168 4.9545 7.72865 4.73519 7.72865 4.73519C7.72865 4.73519 7.7954 4.93066 7.70958 4.92589C7.619 4.91636 7.62853 4.7781 7.62853 4.7781C7.62853 4.7781 7.6047 4.84484 7.58563 4.84484C7.56656 4.84484 7.58563 4.75903 7.58563 4.75903C7.58563 4.75903 7.48551 4.93066 7.44737 4.91159C7.40446 4.88298 7.6047 4.57309 7.68098 4.58739Z" fill="#93C438"/>
<path d="M7.89062 4.64438C7.89062 4.63007 7.90493 4.63484 7.93353 4.64915C7.9669 4.66345 8.21959 4.86369 8.21482 4.88276C8.21005 4.90659 7.90493 4.73973 7.89062 4.64438Z" fill="#93C438"/>
<path d="M8.08125 4.67781C8.06218 4.67304 8.28149 4.89712 8.33393 4.88282C8.38638 4.87328 8.09555 4.68258 8.08125 4.67781Z" fill="#93C438"/>
<path d="M8.23409 4.69629C8.21025 4.69629 8.44864 4.91083 8.50108 4.9013C8.55352 4.89176 8.27223 4.70106 8.23409 4.69629Z" fill="#93C438"/>
<path d="M8.37279 4.71034C8.34419 4.71511 8.55396 4.87244 8.5778 4.87244C8.6064 4.87244 8.43477 4.70081 8.37279 4.71034Z" fill="#93C438"/>
<path d="M7.66699 4.26774C7.66699 4.26774 7.79572 4.11994 8.00072 4.11994C8.21049 4.11994 8.33445 4.26774 8.33445 4.26774L8.28201 4.17715C8.28201 4.17715 8.17712 4.07227 8.00072 4.07227C7.81955 4.07227 7.71944 4.17238 7.71944 4.17238L7.66699 4.26774Z" fill="#B0008A"/>
<path d="M8.25335 4.12413C8.25335 4.12413 8.16276 4.04785 8.00067 4.04785C7.83857 4.04785 7.74798 4.12413 7.74798 4.12413L7.70508 4.19565C7.70508 4.19565 7.80519 4.08599 8.00067 4.08599C8.19614 4.08599 8.29626 4.19565 8.29626 4.19565L8.25335 4.12413Z" fill="#C0003B"/>
<path d="M8.22004 4.06198C8.22004 4.06198 8.13899 4 8.00073 4C7.86247 4 7.79095 4.05721 7.79095 4.05721L7.74805 4.13349C7.74805 4.13349 7.8291 4.05244 8.0055 4.05244C8.17713 4.05244 8.26295 4.13349 8.26295 4.13349L8.22004 4.06198Z" fill="#F3CD2D"/>
<path d="M8.1815 4.0058L8.21963 4.07255C8.21963 4.07255 8.13859 4.01057 7.99556 4.01057C7.8573 4.01057 7.77148 4.07255 7.77148 4.07255L7.80962 4.0058C7.80962 4.0058 7.86684 3.96289 7.99079 3.96289C8.12428 3.96766 8.1815 4.0058 8.1815 4.0058Z" fill="#93C438"/>
<path d="M8.15284 3.9572L8.18621 4.01441C8.18621 4.01441 8.10516 3.97627 8.00027 3.97627C7.89539 3.97627 7.80957 4.02872 7.80957 4.02872L7.84294 3.9715C7.84294 3.9715 7.90016 3.93813 8.00504 3.93813C8.10516 3.93336 8.15284 3.9572 8.15284 3.9572Z" fill="#6091BE"/>
<path d="M8.13434 3.92888L8.15818 3.97656C8.15818 3.97656 8.1105 3.94318 7.99608 3.94318C7.88166 3.94318 7.83398 3.97656 7.83398 3.97656L7.86259 3.92888C7.86259 3.92888 7.91503 3.90981 8.00085 3.90981C8.08667 3.90504 8.13434 3.92888 8.13434 3.92888Z" fill="#2F4791"/>
<path d="M7.79583 4.99707L8.21538 5.00184C8.21538 5.00184 8.14387 5.01137 8.14387 5.02091C8.14864 5.03044 8.29643 5.03521 8.29643 5.03521C8.29643 5.03521 8.20585 5.03998 8.20585 5.04951C8.20108 5.05905 8.24876 5.06382 8.24876 5.06382C8.24876 5.06382 8.1677 5.07335 8.1677 5.08289C8.1677 5.09242 8.27259 5.09719 8.26782 5.09719C8.25829 5.09719 8.12957 5.09719 8.12957 5.11149C8.12957 5.12103 8.22492 5.14486 8.22492 5.14486L7.67188 5.1544C7.67188 5.1544 7.75769 5.1401 7.75769 5.12579C7.75769 5.10672 7.69571 5.10196 7.69571 5.10196C7.69571 5.10196 7.91979 5.10672 7.93409 5.09719C7.94363 5.08765 7.88642 5.07812 7.88642 5.07812C7.88642 5.07812 7.977 5.08288 7.98177 5.07335C7.98654 5.06381 7.86258 5.04475 7.86258 5.04475C7.86258 5.04475 7.93886 5.04474 7.9484 5.03521C7.94363 5.01137 7.79583 4.99707 7.79583 4.99707Z" fill="white"/>
<path d="M7.71406 5.00638C7.71406 5.00638 7.29928 5.02068 7.26114 5.04452C7.223 5.06835 7.49475 5.09219 7.49475 5.09219C7.49475 5.09219 7.21823 5.09696 7.19916 5.1208C7.18009 5.14463 7.36602 5.14464 7.36602 5.14464L7.15625 5.15894L7.25637 4.9873L7.71406 5.00638Z" fill="#487BA2"/>
<path d="M6.79001 5.03496C6.79478 5.04926 6.78524 5.06356 6.77094 5.06833C6.75664 5.0731 6.74234 5.06356 6.73757 5.04926C6.7328 5.03496 6.74234 5.02066 6.75664 5.01589C6.77094 5.01112 6.78524 5.02065 6.79001 5.03496Z" fill="#F3CD2D"/>
<path d="M6.83294 5.30152C6.81864 5.31582 6.80434 5.32535 6.81387 5.34919L6.80433 5.35396L6.76143 5.25861L6.77096 5.25384C6.7805 5.26814 6.78527 5.27291 6.7948 5.26814C6.79957 5.26814 6.80434 5.26337 6.8091 5.25861L6.83771 5.23477L6.80433 5.16326H6.78527C6.77573 5.16326 6.7662 5.16326 6.76143 5.16802C6.74713 5.17279 6.74713 5.18709 6.75189 5.2014L6.74236 5.20616L6.70898 5.13465L6.71852 5.12988C6.73759 5.15372 6.75189 5.14895 6.7805 5.14895L6.94259 5.13465L6.9712 5.16802L6.83294 5.30152ZM6.91399 5.15372L6.81387 5.16326L6.84248 5.22047L6.91399 5.15372Z" fill="#F3CD2D"/>
<path d="M6.98023 5.53571C6.96592 5.55001 6.96592 5.55955 6.97546 5.57385L6.96592 5.57862L6.90395 5.4928L6.91348 5.48803C6.92778 5.5071 6.93732 5.5071 6.95162 5.4928L7.07558 5.40222L6.88011 5.46419L6.87534 5.45466L6.985 5.2878L6.88964 5.35931C6.8515 5.38791 6.84673 5.39268 6.86104 5.41652L6.8515 5.42129L6.80859 5.35931L6.81813 5.35454C6.8372 5.37361 6.84197 5.37361 6.88011 5.345L6.97069 5.27826C6.98976 5.26396 6.98976 5.25442 6.97546 5.24012L6.985 5.23535L7.03267 5.3021L6.95162 5.42129L7.08988 5.37838L7.14233 5.44512L7.13279 5.44989C7.11849 5.43082 7.11372 5.43082 7.09465 5.44036L6.98023 5.53571Z" fill="#F3CD2D"/>
<path d="M7.01344 5.61241C7.02774 5.62671 7.03728 5.62671 7.05158 5.61241L7.14693 5.50275C7.16123 5.48845 7.16124 5.47891 7.14217 5.46461L7.14693 5.45508L7.28042 5.57427L7.25659 5.62671H7.24705C7.24705 5.59334 7.24228 5.5552 7.21368 5.53613C7.19461 5.51706 7.18984 5.52659 7.17554 5.54089L7.1374 5.5838L7.14217 5.58857C7.166 5.60764 7.17554 5.61241 7.20414 5.5981L7.21368 5.60764L7.15647 5.67439L7.14693 5.66485C7.16123 5.63625 7.15647 5.62194 7.13263 5.60287L7.12786 5.5981L7.08495 5.64578C7.07542 5.66008 7.06588 5.66962 7.08495 5.68392C7.11356 5.70776 7.1517 5.7173 7.18507 5.71253L7.18984 5.72206L7.1374 5.75067L7.00391 5.63148L7.01344 5.61241Z" fill="#F3CD2D"/>
<path d="M7.35707 5.82627C7.35707 5.85011 7.3523 5.86918 7.37614 5.88348L7.37137 5.89302L7.30939 5.85487C7.30939 5.84534 7.30939 5.8358 7.30939 5.82627L7.31416 5.78336C7.31892 5.74045 7.30939 5.73092 7.29985 5.72615L7.26648 5.78336C7.25695 5.80243 7.25695 5.81197 7.27602 5.8215L7.27125 5.83104L7.18066 5.77383L7.18543 5.76429C7.2045 5.7786 7.21404 5.77383 7.22357 5.75952L7.29985 5.63557C7.30939 5.6165 7.30939 5.60696 7.29032 5.59742L7.29509 5.58789L7.40474 5.65464C7.44288 5.67847 7.45242 5.71185 7.43335 5.74045C7.41427 5.76906 7.38567 5.76429 7.35707 5.75476C7.36183 5.76429 7.36183 5.77383 7.36183 5.78813L7.35707 5.82627ZM7.31416 5.71661C7.3523 5.74522 7.37614 5.73569 7.39521 5.71185C7.40951 5.68801 7.39997 5.66894 7.37614 5.64987C7.36183 5.64033 7.35707 5.6451 7.34753 5.65941L7.31416 5.71661Z" fill="#F3CD2D"/>
<path d="M7.48098 5.74103C7.49051 5.72196 7.48575 5.71243 7.46668 5.70289L7.47144 5.69336L7.56679 5.73627L7.56203 5.7458C7.54296 5.73627 7.53342 5.74103 7.52388 5.76011L7.46668 5.8936C7.45714 5.91267 7.46191 5.9222 7.48098 5.93174L7.47621 5.94127L7.38086 5.89837L7.38562 5.88883C7.40469 5.89836 7.41423 5.8936 7.42377 5.87453L7.48098 5.74103Z" fill="#F3CD2D"/>
<path d="M7.7144 5.85559H7.7001C7.69533 5.82222 7.68103 5.78885 7.64766 5.77455C7.60475 5.76024 7.58091 5.81269 7.56661 5.84606C7.54277 5.91281 7.56661 5.95572 7.59998 5.96525C7.62859 5.97479 7.65242 5.96048 7.67149 5.94618L7.67626 5.95571C7.64765 5.98432 7.61428 5.99862 7.57137 5.98432C7.51416 5.96525 7.49033 5.90327 7.5094 5.85083C7.52847 5.79362 7.58568 5.74594 7.64289 5.76501C7.65242 5.76978 7.66196 5.77455 7.66673 5.77932C7.67149 5.78408 7.67626 5.78885 7.6858 5.79362C7.69533 5.79362 7.70487 5.79362 7.70963 5.79362H7.7144V5.85559Z" fill="#F3CD2D"/>
<path d="M7.86712 5.98867C7.87188 6.01251 7.87188 6.02681 7.89572 6.03158V6.04111L7.79083 6.02205V6.01251C7.8099 6.01251 7.81467 6.01251 7.81467 6.00298C7.81467 5.99821 7.81467 5.99344 7.81467 5.9839L7.8099 5.94576L7.73362 5.93146L7.72409 5.95053C7.71932 5.96007 7.71455 5.96483 7.71455 5.97437C7.70979 5.98867 7.72409 5.99821 7.73839 6.00298V6.01251L7.66211 5.99821V5.98867C7.69071 5.9839 7.70025 5.9696 7.70978 5.95053L7.79083 5.8075L7.83374 5.80273L7.86712 5.98867ZM7.7956 5.83611L7.74793 5.92669L7.81467 5.93623L7.7956 5.83611Z" fill="#F3CD2D"/>
<path d="M8.17278 5.87448L8.15848 5.87925C8.14417 5.85064 8.11557 5.82203 8.08219 5.82203C8.03928 5.8268 8.02975 5.88401 8.03452 5.91739C8.03929 5.9889 8.07743 6.01751 8.1108 6.01751C8.13941 6.01751 8.15848 5.99367 8.17278 5.96983L8.18232 5.9746C8.16325 6.01274 8.13941 6.03657 8.0965 6.04134C8.03929 6.04611 7.99161 5.99843 7.99161 5.94122C7.98684 5.87924 8.02498 5.81727 8.08696 5.8125C8.0965 5.8125 8.10603 5.8125 8.11557 5.81727C8.1251 5.81727 8.12987 5.82203 8.13464 5.82203C8.14417 5.82203 8.14894 5.81727 8.15371 5.8125H8.15848L8.17278 5.87448Z" fill="#F3CD2D"/>
<path d="M8.21076 6.01756C8.22983 6.01279 8.23937 6.00326 8.22983 5.98419L8.19646 5.84116C8.19169 5.82209 8.18216 5.81732 8.16309 5.82209V5.81256L8.33472 5.77441L8.36332 5.82686L8.35379 5.83163C8.32995 5.81256 8.29181 5.79825 8.25844 5.80302C8.2346 5.80779 8.2346 5.81732 8.23937 5.84116L8.25367 5.89837H8.25844C8.28704 5.8936 8.29658 5.88407 8.30135 5.8507L8.31088 5.84593L8.32995 5.93175L8.32041 5.93651C8.30611 5.90791 8.28704 5.90314 8.25844 5.91267H8.25367L8.26797 5.97465C8.27274 5.98895 8.27751 6.00326 8.29658 5.99849C8.32995 5.98896 8.35856 5.96035 8.37763 5.93175H8.38716L8.37763 5.98895L8.20122 6.03186L8.21076 6.01756Z" fill="#F3CD2D"/>
<path d="M8.58259 5.83616L8.54445 5.74557C8.53491 5.72174 8.52538 5.7122 8.49677 5.72174L8.492 5.7122L8.56352 5.68359L8.56829 5.69313C8.54445 5.70743 8.54445 5.72174 8.55875 5.74557L8.6255 5.89814L8.60166 5.90767L8.42526 5.79802L8.46817 5.90291C8.48247 5.93151 8.48724 5.93628 8.52061 5.93151L8.52538 5.94104L8.4491 5.97442L8.44433 5.96488C8.46817 5.95058 8.46817 5.94104 8.45863 5.91244L8.40619 5.78372C8.39665 5.77895 8.38235 5.77418 8.36805 5.77895L8.36328 5.76941L8.43003 5.74081L8.58259 5.83616Z" fill="#F3CD2D"/>
<path d="M8.72506 5.56445L8.77274 5.60736L8.76797 5.6169C8.74413 5.60736 8.70599 5.59783 8.68215 5.61213L8.7775 5.75039C8.78704 5.76946 8.79657 5.76946 8.81564 5.75516L8.82041 5.76469L8.73459 5.82667L8.72983 5.81714C8.7489 5.8076 8.7489 5.79807 8.73936 5.779L8.64401 5.64074C8.62017 5.65981 8.6154 5.69318 8.6154 5.72178L8.60587 5.72655L8.58203 5.66934L8.72506 5.56445Z" fill="#F3CD2D"/>
<path d="M8.97764 5.55518C9.00147 5.55995 9.02054 5.56948 9.03961 5.55041L9.04438 5.55518L8.99194 5.60763C8.9824 5.60286 8.97287 5.60286 8.96333 5.59809L8.92996 5.58855C8.89182 5.57425 8.87752 5.57902 8.87275 5.58855L8.92042 5.63623C8.93473 5.65053 8.94426 5.65053 8.95857 5.63623L8.96333 5.64577L8.88705 5.72205L8.88228 5.71728C8.89659 5.70297 8.89659 5.69344 8.88228 5.67914L8.78216 5.57425C8.76786 5.55995 8.75833 5.55995 8.74402 5.57425L8.73926 5.56948L8.82984 5.4789C8.86321 5.45029 8.89659 5.44553 8.92042 5.46937C8.94426 5.4932 8.93473 5.52658 8.91566 5.55041C8.92519 5.54565 8.93949 5.55041 8.94903 5.55518H8.97764ZM8.86321 5.57425C8.89659 5.54088 8.89659 5.51704 8.87752 5.4932C8.85845 5.46937 8.83938 5.47413 8.81554 5.49797C8.80123 5.51227 8.806 5.51704 8.81554 5.53134L8.86321 5.57425Z" fill="#F3CD2D"/>
<path d="M9.12539 5.35897C9.14923 5.3685 9.16353 5.37327 9.17783 5.34943L9.18737 5.3542L9.12539 5.44002L9.11585 5.43525C9.12539 5.41618 9.12539 5.41618 9.11585 5.40665C9.11109 5.40188 9.10632 5.40188 9.10155 5.40188L9.06818 5.39234L9.02527 5.45432L9.0348 5.47339C9.03957 5.47816 9.04434 5.48769 9.05387 5.49246C9.06341 5.502 9.07771 5.49246 9.08725 5.48292L9.09678 5.48769L9.04911 5.54967L9.03957 5.54491C9.04911 5.5163 9.03957 5.50199 9.02527 5.48292L8.93945 5.34466L8.95376 5.30176L9.12539 5.35897ZM8.96329 5.3542L9.0205 5.44002L9.05864 5.38757L8.96329 5.3542Z" fill="#F3CD2D"/>
<path d="M9.18301 5.33989C9.19254 5.32082 9.18777 5.31128 9.17347 5.30175L9.04475 5.23977C9.02568 5.23023 9.01614 5.235 9.0066 5.25407L8.99707 5.2493L9.04475 5.15395L9.05428 5.15872C9.04474 5.17779 9.04951 5.18733 9.06382 5.19686L9.19254 5.25884C9.20684 5.26361 9.21638 5.26837 9.22591 5.2493C9.24021 5.21593 9.23545 5.17779 9.22114 5.14442L9.22591 5.13965L9.26882 5.18256L9.18777 5.34465L9.18301 5.33989Z" fill="#F3CD2D"/>
<path d="M9.20729 5.03496C9.21206 5.02065 9.22637 5.01112 9.24067 5.01589C9.25497 5.02066 9.26451 5.03496 9.25974 5.04926C9.25497 5.06356 9.24067 5.0731 9.22637 5.06833C9.21206 5.06356 9.20253 5.04926 9.20729 5.03496Z" fill="#F3CD2D"/>
<path d="M6.78978 4.76826C6.80885 4.75396 6.82315 4.73966 6.82315 4.71582H6.83269L6.84222 4.7921C6.83746 4.79687 6.82792 4.80164 6.81839 4.80641L6.78501 4.83024C6.74687 4.85408 6.74687 4.86838 6.75164 4.87792L6.81839 4.86838C6.83746 4.86362 6.84222 4.85885 6.84222 4.83501H6.85176L6.86606 4.9399H6.85653C6.85176 4.92083 6.84699 4.91129 6.82315 4.91606L6.68013 4.9399C6.66106 4.94466 6.65629 4.9542 6.65629 4.97327H6.64675L6.62768 4.84455C6.62292 4.80164 6.64198 4.76826 6.67059 4.7635C6.70396 4.75873 6.72304 4.78257 6.73257 4.81117C6.73734 4.80164 6.74687 4.7921 6.75641 4.78733L6.78978 4.76826ZM6.73734 4.86838C6.7278 4.82071 6.7135 4.80641 6.68013 4.81117C6.65152 4.81594 6.64199 4.83501 6.64675 4.86362C6.65152 4.88269 6.65629 4.88268 6.67536 4.88268L6.73734 4.87315V4.86838Z" fill="#F3CD2D"/>
<path d="M6.82305 4.7011C6.82305 4.68203 6.81829 4.6725 6.79445 4.6725L6.65142 4.66773C6.63235 4.66773 6.62281 4.67249 6.62281 4.69633H6.61328L6.61805 4.51516L6.67526 4.49609L6.68003 4.50563C6.65142 4.5247 6.63235 4.55331 6.62758 4.58668C6.62758 4.61528 6.63712 4.61528 6.65619 4.61528L6.7134 4.62005V4.61528C6.7134 4.58668 6.70863 4.57237 6.68003 4.56284V4.55331L6.76584 4.55807V4.56761C6.73724 4.57238 6.7277 4.59145 6.7277 4.62005V4.62482L6.78968 4.62959C6.80875 4.62959 6.81829 4.62959 6.81829 4.60575C6.81829 4.56761 6.79922 4.53423 6.77538 4.5104L6.78015 4.50086L6.83735 4.5247L6.83259 4.70587H6.82305V4.7011Z" fill="#F3CD2D"/>
<path d="M6.76154 4.39165L6.82351 4.40596C6.84258 4.41072 6.85212 4.40596 6.85689 4.38212H6.86642L6.84258 4.48701L6.83305 4.48224C6.83782 4.46317 6.83305 4.45363 6.81398 4.44887L6.67572 4.41549C6.65665 4.41072 6.64711 4.41549 6.64235 4.43933H6.63281L6.65665 4.33444C6.67095 4.2677 6.70433 4.24863 6.73293 4.25816C6.78537 4.2677 6.7806 4.32491 6.77107 4.36305L6.76154 4.39165ZM6.752 4.38689L6.75677 4.36782C6.7663 4.32968 6.75677 4.3106 6.71863 4.30584C6.68525 4.30107 6.67095 4.31537 6.66142 4.33921C6.65665 4.36305 6.66618 4.36305 6.68525 4.36782L6.752 4.38689Z" fill="#F3CD2D"/>
<path d="M6.8369 4.20535C6.88458 4.22442 6.90842 4.21489 6.91795 4.18628C6.93226 4.14337 6.91318 4.1243 6.87504 4.10523L6.77969 4.06709C6.76062 4.05756 6.75109 4.06232 6.74155 4.08616L6.73202 4.08139L6.76062 4.01465L6.77015 4.01942C6.76062 4.03849 6.76539 4.04802 6.78446 4.05756L6.88458 4.0957C6.93226 4.11477 6.95132 4.14814 6.92749 4.20058C6.90365 4.25779 6.87028 4.2721 6.82737 4.2578L6.72248 4.21489C6.70341 4.20535 6.69387 4.21012 6.68434 4.23396L6.6748 4.22919L6.71295 4.12907L6.72248 4.13384C6.71294 4.15291 6.71771 4.16244 6.73678 4.17198L6.8369 4.20535Z" fill="#F3CD2D"/>
<path d="M6.96133 4.11077L6.95179 4.106C6.96133 4.08693 6.96133 4.0774 6.94226 4.06786L6.82307 3.99158C6.804 3.98205 6.79446 3.98205 6.78493 4.00112L6.77539 3.99635L6.8326 3.90577C6.87551 3.83902 6.90411 3.83902 6.92318 3.85332C6.94702 3.87239 6.94226 3.90576 6.93272 3.9296C6.95656 3.90576 6.98517 3.88193 7.01854 3.90577C7.04714 3.92484 7.05191 3.95821 7.02331 4.00589L6.96133 4.11077ZM6.90888 3.96297C6.92795 3.9296 6.92795 3.91053 6.89935 3.89146C6.87074 3.87239 6.85644 3.8867 6.84214 3.91053C6.83737 3.9153 6.8326 3.92483 6.83737 3.9296C6.83737 3.93437 6.84691 3.93914 6.85167 3.93914L6.90412 3.97251L6.90888 3.96297ZM6.96133 4.02019C6.98516 4.03449 6.98993 4.03926 7.009 4.01542C7.02807 3.99158 7.0233 3.96298 6.9947 3.94391C6.97086 3.92961 6.95179 3.92484 6.91842 3.97251L6.90888 3.98681L6.96133 4.02019Z" fill="#F3CD2D"/>
<path d="M7.07163 3.91962C7.08593 3.90532 7.08593 3.89578 7.07163 3.88148L6.96674 3.78613C6.95244 3.77182 6.9429 3.77182 6.9286 3.79089L6.92383 3.78613L6.99534 3.70508L7.00011 3.70984C6.98581 3.72415 6.98581 3.73368 7.00011 3.74798L7.105 3.84333C7.1193 3.85764 7.12407 3.86241 7.13837 3.84333C7.16221 3.81473 7.16697 3.77659 7.16221 3.74322L7.17174 3.73845L7.20035 3.79089L7.08116 3.92439L7.07163 3.91962Z" fill="#F3CD2D"/>
<path d="M7.12396 3.61925C7.10966 3.60495 7.10013 3.60495 7.08582 3.61925L7.08105 3.60971L7.1621 3.54297L7.16687 3.55251C7.1478 3.56681 7.1478 3.57634 7.1621 3.59064L7.25269 3.7003C7.26699 3.7146 7.27653 3.7146 7.29083 3.70507L7.2956 3.70983L7.21455 3.77658L7.20978 3.76705C7.22408 3.75274 7.22885 3.74321 7.21455 3.7289L7.12396 3.61925Z" fill="#F3CD2D"/>
<path d="M7.37622 3.46651L7.36668 3.47604C7.33808 3.45697 7.3047 3.44743 7.27133 3.46174C7.23319 3.48558 7.25703 3.53802 7.2761 3.57139C7.31424 3.63337 7.36192 3.63814 7.39052 3.61907C7.41436 3.60477 7.41912 3.57616 7.41912 3.54755H7.42866C7.42866 3.59046 7.41913 3.62384 7.38099 3.64767C7.33331 3.68105 7.27133 3.66197 7.23796 3.60953C7.20458 3.55709 7.20935 3.48557 7.2618 3.4522C7.27133 3.44743 7.28087 3.44267 7.28563 3.44267C7.2904 3.44267 7.29994 3.4379 7.3047 3.4379C7.30947 3.43313 7.31424 3.42836 7.31901 3.41883V3.41406L7.37622 3.46651Z" fill="#F3CD2D"/>
<path d="M7.61902 3.48568C7.63332 3.50475 7.64285 3.51429 7.66669 3.50476L7.67146 3.51429L7.57611 3.55243L7.57134 3.5429C7.59041 3.53336 7.59041 3.52859 7.59041 3.52383C7.59041 3.51906 7.58564 3.51429 7.58088 3.50952L7.55704 3.48092L7.48552 3.50952V3.52859C7.48552 3.53813 7.48552 3.54767 7.49029 3.55243C7.49506 3.56674 7.50936 3.56674 7.52366 3.56197L7.52843 3.5715L7.45692 3.60011L7.45215 3.59057C7.47599 3.5715 7.47599 3.5572 7.47599 3.53336L7.47122 3.36649L7.50459 3.33789L7.61902 3.48568ZM7.48076 3.39033L7.48552 3.49045L7.5475 3.46662L7.48076 3.39033Z" fill="#F3CD2D"/>
<path d="M7.75723 3.48591C7.7763 3.48114 7.78584 3.47637 7.78107 3.45254L7.76677 3.30951C7.76677 3.29044 7.75724 3.2809 7.7334 3.28567V3.27614L7.83829 3.2666C7.85736 3.2666 7.87166 3.2666 7.89073 3.2666C7.92887 3.27614 7.96224 3.30951 7.96701 3.36196C7.97178 3.40963 7.94794 3.45254 7.91457 3.46684C7.90026 3.47638 7.88119 3.48114 7.86212 3.48114L7.762 3.49068L7.75723 3.48591ZM7.82875 3.443C7.82875 3.46684 7.82875 3.47161 7.85736 3.46684C7.8955 3.46208 7.91933 3.43824 7.9098 3.35719C7.90026 3.28567 7.87166 3.2666 7.83352 3.27137C7.80968 3.27137 7.81445 3.2809 7.81445 3.29997L7.82875 3.443Z" fill="#F3CD2D"/>
<path d="M7.97633 3.46184C8.00017 3.46184 8.00494 3.45707 8.00494 3.438L8.01447 3.29498C8.01447 3.27591 8.00971 3.26637 7.98587 3.26637V3.25684L8.16227 3.26637L8.17657 3.32358L8.16703 3.32835C8.14796 3.29974 8.11936 3.27591 8.08599 3.27591C8.06215 3.27591 8.06215 3.28544 8.05738 3.30451L8.05261 3.36172H8.05738C8.08599 3.36172 8.10029 3.36172 8.11459 3.32835H8.12413L8.11936 3.41417H8.10506C8.10029 3.38556 8.08599 3.37603 8.05738 3.37603H8.05261L8.04784 3.438C8.04784 3.45707 8.04785 3.46661 8.06692 3.46661C8.10506 3.47138 8.13843 3.45231 8.16227 3.4237L8.1718 3.42847L8.14796 3.48091L7.9668 3.46661V3.46184H7.97633Z" fill="#F3CD2D"/>
<path d="M8.4534 3.49493L8.48677 3.39958C8.49631 3.37574 8.49631 3.36144 8.4677 3.34714L8.47247 3.3376L8.54875 3.36144L8.54398 3.37097C8.51538 3.36621 8.51061 3.37574 8.50107 3.40435L8.44863 3.56168L8.42479 3.55214L8.36758 3.3519L8.32944 3.46156C8.31991 3.49016 8.31991 3.4997 8.34851 3.514L8.34374 3.52354L8.2627 3.49493L8.26746 3.48539C8.29607 3.49016 8.3056 3.48539 8.31037 3.45679L8.35328 3.3233C8.34851 3.309 8.33898 3.29946 8.32467 3.29469L8.32944 3.28516L8.40096 3.309L8.4534 3.49493Z" fill="#F3CD2D"/>
<path d="M8.57754 3.42365C8.58708 3.40458 8.58231 3.39505 8.56324 3.38551L8.56801 3.37598L8.66336 3.42365L8.6586 3.43319C8.63952 3.42365 8.62999 3.42365 8.62045 3.44272L8.55847 3.57145C8.54894 3.59052 8.55371 3.60005 8.57278 3.60959L8.56801 3.61912L8.47266 3.57145L8.47742 3.56191C8.4965 3.57145 8.50603 3.56668 8.51557 3.55238L8.57754 3.42365Z" fill="#F3CD2D"/>
<path d="M8.81604 3.60006L8.80174 3.59529C8.80651 3.56192 8.80174 3.52377 8.77791 3.5047C8.73977 3.48087 8.70162 3.52378 8.68255 3.55238C8.64441 3.60959 8.65395 3.65727 8.68255 3.67634C8.70639 3.69541 8.735 3.68587 8.75884 3.67634L8.7636 3.68587C8.72546 3.70495 8.69209 3.70971 8.65395 3.68587C8.60627 3.6525 8.59674 3.58575 8.63011 3.54285C8.66348 3.4904 8.73023 3.4618 8.78267 3.49994C8.79221 3.50471 8.79697 3.51424 8.80174 3.51901C8.80651 3.52378 8.81128 3.52854 8.81604 3.53331C8.82081 3.53808 8.83035 3.53808 8.83988 3.53808H8.84465L8.81604 3.60006Z" fill="#F3CD2D"/>
<path d="M8.90187 3.8284C8.89233 3.84747 8.8828 3.86177 8.90187 3.88084L8.89234 3.89038L8.81605 3.81886L8.82082 3.80932C8.83512 3.82363 8.83989 3.82363 8.84466 3.81409C8.84943 3.80933 8.85419 3.80456 8.85419 3.79979L8.87327 3.76642L8.82082 3.71397L8.80175 3.72351C8.79222 3.72828 8.78745 3.73305 8.77792 3.73781C8.76838 3.74735 8.77315 3.76165 8.78268 3.77119L8.77792 3.77595L8.7207 3.71874L8.72547 3.71397C8.74931 3.72828 8.76361 3.71874 8.78745 3.70921L8.93524 3.6377L8.97815 3.65676L8.90187 3.8284ZM8.93048 3.6663L8.83989 3.70921L8.88757 3.75688L8.93048 3.6663Z" fill="#F3CD2D"/>
<path d="M9.03928 4.01974C9.02975 4.03881 9.02021 4.05788 9.02975 4.08172L9.02021 4.08649L8.9773 4.02451C8.98207 4.01498 8.98684 4.01021 8.99161 4.00067L9.01068 3.9673C9.03451 3.92916 9.02975 3.91963 9.02021 3.91009L8.963 3.94823C8.94393 3.96253 8.94393 3.97207 8.95823 3.98637L8.9487 3.99114L8.88672 3.90532L8.89626 3.90055C8.91056 3.91962 8.91532 3.91963 8.93439 3.91009L9.05358 3.82904C9.07265 3.8195 9.07265 3.8052 9.05835 3.7909L9.06789 3.78613L9.1394 3.89102C9.16324 3.92916 9.15847 3.96253 9.13464 3.9816C9.10603 4.00067 9.07742 3.98637 9.05835 3.96253C9.05835 3.97207 9.05358 3.9816 9.04405 3.99114L9.03928 4.01974ZM9.03928 3.90055C9.06789 3.93869 9.08696 3.94346 9.11556 3.92439C9.1394 3.91009 9.1394 3.88625 9.12033 3.86241C9.11079 3.84811 9.10126 3.84811 9.08696 3.85765L9.03451 3.89579L9.03928 3.90055Z" fill="#F3CD2D"/>
<path d="M9.14469 4.26257C9.12562 4.27687 9.11609 4.2864 9.12562 4.31024L9.11609 4.31501L9.07795 4.21966L9.08748 4.21489C9.09702 4.23396 9.10179 4.23396 9.10655 4.23396C9.11132 4.23396 9.11609 4.22919 9.12085 4.22443L9.14946 4.20059L9.12085 4.12908H9.10178C9.09225 4.12908 9.08272 4.12907 9.07795 4.13384C9.06365 4.13861 9.06364 4.15291 9.06841 4.16721L9.05888 4.17198L9.03027 4.10047L9.03981 4.0957C9.05888 4.11954 9.07318 4.11954 9.09702 4.11954L9.26388 4.11477L9.29249 4.14815L9.14469 4.26257ZM9.24004 4.11954L9.13993 4.12431L9.16377 4.18628L9.24004 4.11954Z" fill="#F3CD2D"/>
<path d="M9.307 4.46789L9.30223 4.45835C9.33084 4.42498 9.34514 4.40114 9.34037 4.3773C9.3356 4.3487 9.30223 4.32486 9.22595 4.33916C9.15444 4.35346 9.1306 4.38207 9.13537 4.41544C9.14014 4.44882 9.16397 4.44882 9.19258 4.44405C9.21641 4.43928 9.21642 4.43451 9.21165 4.41068H9.22118L9.24025 4.51079H9.23072C9.22118 4.48696 9.21641 4.48696 9.19258 4.49172L9.14967 4.50126C9.1449 4.48219 9.1449 4.47742 9.13537 4.46312C9.12583 4.44882 9.12107 4.43452 9.1163 4.42021C9.10199 4.35823 9.14013 4.30579 9.19735 4.29625C9.25932 4.28195 9.32607 4.31532 9.33561 4.3773C9.34037 4.38684 9.33561 4.39637 9.33561 4.40114C9.33561 4.40591 9.33561 4.41544 9.33561 4.42021C9.33561 4.42498 9.34514 4.43928 9.34991 4.44405L9.307 4.46789Z" fill="#F3CD2D"/>
<path d="M9.23046 4.58714C9.17802 4.58714 9.16372 4.60621 9.16372 4.63958C9.16372 4.68249 9.19232 4.69679 9.23523 4.69679H9.34011C9.35918 4.69679 9.36872 4.68726 9.36395 4.66819H9.37349V4.74447H9.36395C9.36395 4.72063 9.35919 4.71586 9.33535 4.71586H9.23046C9.17802 4.71586 9.14941 4.69679 9.14941 4.63481C9.14941 4.57284 9.17325 4.54423 9.22092 4.54423H9.33535C9.35442 4.54423 9.35919 4.5347 9.35919 4.51562H9.36872V4.62051H9.35919C9.35919 4.59667 9.34965 4.59191 9.33058 4.59191L9.23046 4.58714Z" fill="#F3CD2D"/>
<path d="M9.17842 4.92571C9.15458 4.93048 9.14028 4.93048 9.13551 4.95431H9.12598L9.14028 4.84943H9.14982C9.14982 4.8685 9.14981 4.87327 9.15935 4.87327C9.16412 4.87327 9.17365 4.87327 9.17842 4.87327L9.21179 4.8685L9.2261 4.79222L9.20702 4.78268C9.20226 4.77791 9.19272 4.77315 9.18319 4.77315C9.16889 4.76838 9.15935 4.78268 9.15458 4.79698H9.14505L9.15935 4.7207H9.16889C9.17365 4.74931 9.18795 4.75884 9.20702 4.76838L9.35005 4.84943L9.35482 4.89234L9.17842 4.92571ZM9.32621 4.85419L9.23563 4.80652L9.2261 4.87327L9.32621 4.85419Z" fill="#F3CD2D"/>
</svg>
