<?xml version="1.0" encoding="UTF-8"?>
<svg width="30px" height="30px" viewBox="0 0 30 30" version="1.1" xmlns="http://www.w3.org/2000/svg" xmlns:xlink="http://www.w3.org/1999/xlink">
    <title>Pagar_mis_servicios_30x30</title>
    <g id="Pagar_mis_servicios_30x30" stroke="none" stroke-width="1" fill="none" fill-rule="evenodd">
        <g transform="translate(3.000000, 0.371570)" stroke="#424242">
            <path d="M5.54788386,14.5081558 L6.23096695,11.6716306 C6.29841196,11.391563 6.4833604,11.1541857 6.73843502,11.0203065 L10.3567935,9.12116441 L10.3567935,9.12116441" id="Path-19"></path>
            <path d="M0,29.6363739 L0,13.3188416 C3.93755164e-16,13.24275 0.0289143586,13.1695014 0.0808888152,13.1139263 L5.55689553,7.25855973 C5.59237236,7.22062519 5.6370901,7.19255106 5.68667263,7.17708472 L10.3230576,5.7308514 L10.3230576,5.7308514" id="Path-16"></path>
            <path d="M10.2943888,12.7793993 L10.2943888,2 C10.2943888,0.8954305 11.1898193,2.02906125e-16 12.2943888,0 L21.8,0 C22.9045695,-2.02906125e-16 23.8,0.8954305 23.8,2 L23.8,19.1645739 C23.8,20.2691434 22.9045695,21.1645739 21.8,21.1645739 L12.2943888,21.1645739 C11.1898193,21.1645739 10.2943888,20.2691434 10.2943888,19.1645739 L10.2943888,18.6523368 L10.2943888,18.6523368 L12,15.9526457 L13.1905032,14.4981158 C13.3806798,14.2657623 13.5160995,13.9935707 13.5867159,13.7017342 L14.5969663,9.52666677 L14.5969663,9.52666677 C14.4109537,9.07833778 14.038442,8.85417328 13.4794312,8.85417328 C13.1258327,8.85417328 11.7783717,8.68252304 11.0225258,9.82163431 C10.7298019,10.2627891 10.4870896,11.2487108 10.2943888,12.7793993 Z" id="Path-18" fill="#FF8300" stroke-linejoin="round"></path>
            <rect id="Rectangle" fill="#DBDBDB" x="19.6933436" y="4.20629325" width="2.1166795" height="5" rx="1"></rect>
            <line x1="20.7516833" y1="13.2062933" x2="20.7516833" y2="17.2062933" id="Line-4" stroke-linecap="square"></line>
            <line x1="13.4794312" y1="1.02842992" x2="13.4794312" y2="7.20629325" id="Line" stroke-linecap="square"></line>
            <line x1="13.4794312" y1="17.2062933" x2="13.4794312" y2="20.2062933" id="Line-2" stroke-linecap="square"></line>
            <line x1="17.5" y1="1.02842992" x2="17.6350038" y2="20.2062933" id="Line-3" stroke-linecap="square"></line>
            <path d="M5.74530971,13.7064258 C5.71508751,13.8328482 5.68486532,13.9592706 5.65464312,14.0856931 C5.5498839,14.5239111 5.44512469,14.9621291 5.34036548,15.4003471 C5.30184264,15.561492 5.40124738,15.7233546 5.5623922,15.7618774 C5.64131319,15.780744 5.72451081,15.7668359 5.79300432,15.723326 L10.2178979,12.91245 C10.2852173,12.8696859 10.332738,12.8018761 10.3499598,12.7240038 L10.8821983,10.3173616 L10.8821983,10.3173616 C11.2031978,9.34190271 11.9072853,8.85417328 12.9944608,8.85417328 C14.0816363,8.85417328 14.6156387,9.07833778 14.596468,9.52666677 L13.4935364,13.9146988 C13.4842188,13.9517691 13.4679028,13.9867173 13.4454664,14.0176629 L11.9210914,16.1201731 L11.9210914,16.1201731 C10.543002,17.9113034 9.86351353,19.3442077 9.88262607,20.4188859 C9.9017386,21.4935641 9.4106413,22.6415822 8.40933418,23.8629402 L6.39014403,26.7900432 C6.35559201,26.8401313 6.33708821,26.8995421 6.33708821,26.9603916 L6.33708821,29.6363739 L6.33708821,29.6363739" id="Path-17" stroke-linejoin="round"></path>
        </g>
    </g>
</svg>