<svg width="16" height="10" viewBox="0 0 16 10" fill="none" xmlns="http://www.w3.org/2000/svg">
<path d="M15.9999 0H0V9.21206H15.9999V0Z" fill="white"/>
<path d="M4.49947 1.15137L4.13965 2.24729L4.69433 2.42439L4.49947 1.15137Z" fill="#3564C2"/>
<path d="M4.49956 1.15137L4.86035 2.24729L4.30566 2.42439L4.49956 1.15137Z" fill="#3564C2"/>
<path d="M5.60962 1.94727H4.44238V2.52332L5.60962 1.94727Z" fill="#3564C2"/>
<path d="M5.6101 1.94727L4.6657 2.62424L4.32324 2.15864L5.6101 1.94727Z" fill="#3564C2"/>
<path d="M3.38965 1.94727L4.33405 2.62424L4.67651 2.15864L3.38965 1.94727Z" fill="#3564C2"/>
<path d="M3.38965 1.94727H4.55689V2.52332L3.38965 1.94727Z" fill="#3564C2"/>
<path d="M5.18501 3.23557L4.82519 2.13965L4.27051 2.3177L5.18501 3.23557Z" fill="#3564C2"/>
<path d="M5.18563 3.23533L4.24219 2.5574L4.58561 2.0918L5.18563 3.23533Z" fill="#3564C2"/>
<path d="M3.81445 3.23533L4.75789 2.5574L4.41544 2.0918L3.81445 3.23533Z" fill="#3564C2"/>
<path d="M3.81445 3.23557L4.17427 2.13965L4.72992 2.3177L3.81445 3.23557Z" fill="#3564C2"/>
<path d="M7.99994 4.60547H0V9.21197H7.99994V4.60547Z" fill="#3564C2"/>
<path d="M15.9999 0H8V4.60555H15.9999V0Z" fill="#C0003B"/>
<path d="M11.4995 5.75781L11.1387 6.85278L11.6934 7.03084L11.4995 5.75781Z" fill="#C0003B"/>
<path d="M11.4996 5.75781L11.8603 6.85278L11.3057 7.03084L11.4996 5.75781Z" fill="#C0003B"/>
<path d="M12.6087 6.55273H11.4424V7.12879L12.6087 6.55273Z" fill="#C0003B"/>
<path d="M12.6091 6.55273L11.6657 7.23067L11.3223 6.76411L12.6091 6.55273Z" fill="#C0003B"/>
<path d="M10.3906 6.55273L11.3341 7.23067L11.6765 6.76411L10.3906 6.55273Z" fill="#C0003B"/>
<path d="M10.3906 6.55273H11.5569V7.12879L10.3906 6.55273Z" fill="#C0003B"/>
<path d="M12.186 7.84107L11.8252 6.74609L11.2705 6.92415L12.186 7.84107Z" fill="#C0003B"/>
<path d="M12.1856 7.84082L11.2412 7.16384L11.5846 6.69824L12.1856 7.84082Z" fill="#C0003B"/>
<path d="M10.8135 7.84082L11.7579 7.16384L11.4145 6.69824L10.8135 7.84082Z" fill="#C0003B"/>
<path d="M10.8135 7.84107L11.1743 6.74609L11.7289 6.92415L10.8135 7.84107Z" fill="#C0003B"/>
</svg>
