<svg version="1.1" id="Capa_1" xmlns="http://www.w3.org/2000/svg" x="0" y="0" width="16" height="10" style="enable-background:new 0 0 16 10" xml:space="preserve"><style>.st0{fill:#fff}.st2{fill:#bc0030}.st3{fill:#2a690b}</style><path class="st0" d="M16 3.1H0v3.1h16V3.1z"/><path d="M16 6.2H0v3.1h16V6.2z" style="fill:#2534a4"/><path class="st2" d="M16 0H0v3.1h16V0z"/><path class="st0" d="M9.2 4.7c0 .7-.5 1.2-1.2 1.2s-1.2-.6-1.2-1.2.5-1.2 1.2-1.2 1.2.5 1.2 1.2z"/><path d="M8 5.9c-.7 0-1.2-.5-1.2-1.2S7.3 3.5 8 3.5s1.2.5 1.2 1.2c0 .6-.5 1.2-1.2 1.2zm0-2.4c-.6 0-1.1.6-1.1 1.2S7.4 5.8 8 5.8c.6 0 1.2-.5 1.2-1.2 0-.6-.6-1.1-1.2-1.1z"/><path class="st2" d="M8 3.7c-.6 0-1 .4-1.1 1s.4 1 1 1.1H8c.6 0 1-.5 1-1.1-.1-.6-.5-1-1-1zm0 1.7c-.4 0-.8-.3-.8-.8 0-.4.3-.8.8-.8s.8.3.8.8-.4.8-.8.8z"/><path d="M8 5.7c-.6 0-1-.5-1-1.1 0-.5.4-.9 1-1 .6 0 1 .5 1 1 0 .6-.4 1.1-1 1.1zm0-2c-.6 0-1 .5-1 1s.5 1 1 1c.6 0 1-.5 1-1s-.4-1-1-1zm0 1.7c-.4 0-.8-.3-.8-.8 0-.4.3-.8.8-.8s.8.3.8.8-.4.8-.8.8zm0-1.5c-.4 0-.8.3-.8.8 0 .4.3.8.8.8.4 0 .8-.3.8-.8s-.4-.8-.8-.8z"/><path class="st3" d="M8.2 4.1s.5.2.4.6c-.1.4-.4.4-.5.5-.1 0-.2.1-.2.1h-.1s0 .1.1.1.2-.1.2-.1c.1 0 .4 0 .4-.5.1-.5-.3-.7-.3-.7z"/><path d="M7.9 5.3c-.1 0-.1-.1 0 0-.1-.1 0 0 0 0s.1-.1 0 0c.1-.1.2-.1.2-.1h.1c.1 0 .3-.1.4-.4.1-.3-.2-.5-.3-.6h.1c.3.1.4.3.3.6 0 .3-.2.4-.4.5h-.4zm-.1-.1s0 .1 0 0c.1.1.2 0 .2 0h.1c.3-.1.4-.2.4-.5 0-.2-.1-.4-.3-.6.1.1.4.3.3.6 0 .3-.2.4-.3.4h-.1s-.1 0-.1.1c0 0-.1.1-.2 0 .1.1 0 0 0 0z"/><path class="st3" d="M8.4 4.2s0 .1 0 0c0 .1 0 0 0 0s0-.1 0 0c0-.1 0 0 0 0z"/><path d="M8.4 4.3s0-.1 0 0v-.1.1c0-.1 0 0 0 0 0-.1 0-.1 0 0v-.1.1c0-.1 0 0 0 0z"/><path class="st3" d="M8.4 4.2s0 .1 0 0c0 .1 0 0 0 0-.1 0-.1 0 0 0-.1-.1 0 0 0 0z"/><path d="M8.4 4.3s0-.1 0 0l-.1-.1.1.1c0-.1 0 0 0 0s0-.1 0 0v-.1.1c0-.1 0 0 0 0z"/><path class="st3" d="M8.3 4.2c.1 0 .1.1 0 0 .1.1.1.1 0 0 0 .1 0 0 0 0z"/><path d="M8.4 4.3s-.1 0 0 0h-.1c0-.1 0-.1.1 0-.1-.1-.1-.1 0 0-.1 0 0 0 0 0s0-.1 0 0c-.1-.1-.1-.1 0 0-.1-.1-.1-.1 0 0 0-.1 0 0 0 0z"/><path class="st3" d="M8.3 4.2c.1 0 .1.1 0 0 .1.1.1.1 0 0z"/><path d="M8.4 4.3s-.1 0 0 0c-.1 0-.1-.1-.1-.1l.1.1c-.1-.1-.1-.1 0 0-.1 0 0 0 0 0s0-.1 0 0c-.1-.1-.1-.1 0 0-.1-.1-.1-.1 0 0 0-.1 0 0 0 0z"/><path class="st3" d="M8.4 4.2s0 .1 0 0c0 .1 0 .1 0 0-.1 0-.1 0 0 0-.1 0-.1 0 0 0z"/><path d="M8.4 4.3c-.1-.1-.1-.1 0 0-.1-.1-.1-.1 0 0 0-.1 0 0 0 0zm-.1-.1c.1.1.1.1 0 0 .1.1.1 0 0 0z"/><path class="st3" d="M8.4 4.3c-.1 0-.1 0 0 0-.1 0-.1 0 0 0 0-.1 0-.1 0 0 0-.1 0-.1 0 0 0-.1 0-.1 0 0 0-.1 0-.1 0 0 0-.1 0 0 0 0z"/><path d="M8.3 4.3c.1 0 .1 0 0 0l.1-.1-.1.1c.1 0 .1 0 0 0 .1 0 .1 0 0 0z"/><path class="st3" d="M8.5 4.3c0 .1 0 .1 0 0 0 .1 0 .1 0 0 0 0 0-.1 0 0 0-.1 0 0 0 0z"/><path d="M8.5 4.4s0-.1 0 0v-.2.2s0-.1 0 0z"/><path class="st3" d="M8.5 4.3c0 .1 0 .1 0 0 0 .1 0 .1 0 0 0 0 0-.1 0 0 0-.1 0 0 0 0z"/><path d="M8.5 4.4c-.1-.1-.1-.2 0-.2v.2-.2.2z"/><path class="st3" d="M8.4 4.3c.1.1.1.1 0 0 .1.1.1.1 0 0 0 0-.1 0 0 0z"/><path d="M8.5 4.4s-.1 0 0 0c-.1 0-.2-.1-.2-.1s.1.1.2.1c-.1 0 0 0 0 0z"/><path class="st3" d="M8.4 4.3c.1.1.1.1 0 0 .1.1 0 .1 0 0z"/><path d="M8.5 4.4s-.1 0 0 0l-.1-.1.1.1zm-.1-.1c.1.1.1.2.1.2 0-.1 0-.1-.1-.2z"/><path class="st3" d="M8.5 4.3c0 .1 0 .1 0 0 0 .1 0 .1 0 0-.1 0-.1-.1 0 0-.1-.1-.1 0 0 0z"/><path d="M8.5 4.4c-.1-.1-.1-.2-.1-.2l.1.1v.1zm-.1-.2s0 .1 0 0c.1.1.1.2.1.2l-.1-.2c0 .1 0 0 0 0z"/><path class="st3" d="M8.5 4.4h-.1.1c-.1 0 0 0 0 0s.1 0 0 0c.1-.1.1-.1 0 0 .1-.1.1-.1 0 0 0-.1 0 0 0 0z"/><path d="M8.4 4.4c.1 0 .1 0 0 0l.1-.1-.1.1c.1 0 .1 0 0 0zm0 0c.1 0 .1 0 0 0l.1-.1-.1.1z"/><path class="st3" d="M8.6 4.5c0 .1 0 .1 0 0 0 .1 0 0 0 0v-.1.1z"/><path d="M8.6 4.6v-.2.2zm0-.2v.2-.2z"/><path class="st3" d="M8.6 4.5s0 .1 0 0c0 .1-.1 0 0 0-.1-.1-.1-.1 0 0 0-.1 0-.1 0 0z"/><path d="M8.6 4.6c-.1 0-.1-.1 0 0v-.2c-.1 0-.1 0 0 .2-.1 0 0 0 0 0s0-.1 0 0c0-.1 0 0 0 0z"/><path class="st3" d="M8.5 4.5s.1.1 0 0c.1.1 0 .1 0 0-.1 0-.1 0 0 0-.1-.1 0 0 0 0z"/><path d="M8.6 4.6c-.1 0-.1 0 0 0l-.2-.1.2.1c-.1 0-.1 0 0 0 0 0-.1-.1 0 0-.1-.1-.1-.1-.2-.1.1 0 .1 0 .2.1-.1-.1 0 0 0 0z"/><path class="st3" d="M8.5 4.5s.1.1 0 0c0 .1 0 .1 0 0 0 0 0-.1 0 0 0-.1 0-.1 0 0z"/><path d="M8.5 4.6c0-.1-.1-.2 0-.2l.1.1c-.1 0 0 .1-.1.1zm0-.2s0 .1 0 0c.1.1.1.2.1.2s-.1-.1-.1-.2z"/><path class="st3" d="M8.6 4.5v.1s-.1 0 0-.1c-.1-.1-.1-.1 0 0-.1-.1-.1-.1 0 0z"/><path d="M8.6 4.6c-.1 0-.1-.1 0 0-.1-.1-.1-.2-.1-.2l.1.1v.1zm-.1-.2c0 .2 0 .2.1.2 0 0 0-.1-.1-.2z"/><path class="st3" d="M8.6 4.6c-.1 0-.1 0 0 0h-.1.1c-.1 0-.1 0 0 0-.1 0-.1 0 0 0l.1-.1c-.1 0-.1 0-.1.1 0-.1 0 0 0 0z"/><path d="M8.5 4.6c.1 0 .1 0 0 0 .1 0 .1 0 0 0 .1-.1.1-.1 0 0l.1-.1-.1.1c.1-.1.1-.1 0 0 .1 0 .1 0 0 0 .1 0 .1 0 0 0 .1 0 .1 0 0 0 .1 0 .1 0 .1-.1 0 .1 0 .1-.1.1.1 0 .1 0 0 0 .1 0 .1 0 0 0 .1 0 0 0 0 0z"/><path class="st3" d="M8.6 4.7c0 .1-.1.1 0 0-.1.1-.1 0 0 0 0-.1 0-.1 0 0 .1-.1 0 0 0 0z"/><path d="M8.5 4.8s.1-.1 0 0c.1-.1.1-.2.1-.2l-.1.2c0-.1 0 0 0 0 .1 0 .1-.1 0 0 .1-.1.1-.1.1-.2 0 0 0 .1-.1.2.1 0 .1 0 0 0z"/><path class="st3" d="M8.6 4.7c0 .1-.1.1 0 0-.1.1-.1 0 0 0v-.1.1z"/><path d="M8.5 4.8v-.1s0-.1.1-.1c0 0 0 .1-.1.2.1-.1 0 0 0 0zm.1-.2c-.1.1-.1.2-.1.2s.1-.1.1-.2z"/><path class="st3" d="M8.5 4.7s0 .1 0 0c0 .1 0 .1 0 0 0 0 0-.1 0 0 0-.1 0-.1 0 0z"/><path d="M8.5 4.8s0-.1 0 0v-.2l.1.1c-.1 0-.1.1-.1.1zm0-.2s0 .1 0 0c0 .1.1.2.1.2-.1 0-.1-.1-.1-.2z"/><path class="st3" d="M8.5 4.7v.1-.1c0-.1 0-.1 0 0 0-.1 0-.1 0 0z"/><path d="M8.5 4.8s0-.1 0 0v-.2.2zm0-.2v.2-.2z"/><path class="st3" d="M8.6 4.7s-.1.1 0 0c-.1.1-.1 0 0 0-.1-.1-.1-.1 0 0 0-.1 0-.1 0 0z"/><path d="M8.5 4.8v-.2c.1 0 .1 0 0 .2.1-.1 0 0 0 0zm.1-.2c-.1 0-.1 0 0 0v.2c-.1 0 0-.1 0-.2z"/><path class="st3" d="M8.5 4.8s0-.1 0 0c0-.1-.1-.1 0 0-.1-.1-.1-.1 0 0 0 0 .1 0 0 0h.1c0-.1 0-.1-.1 0 .1-.1.1 0 0 0 .1 0 0 0 0 0z"/><path d="M8.5 4.8s.1 0 0 0h.1-.1c.1 0 .1 0 0 0 .1 0 0 0 0 0zm0 0c0-.1 0-.1 0 0 0-.1 0-.1 0 0-.1-.1-.1-.1 0 0-.1 0-.1-.1 0 0 0-.1 0-.1 0 0 0-.1 0 0 0 0 .1 0 .1 0 0 0 .1 0 .1-.1 0 0h.1c0-.1 0-.1-.1 0 .1 0 .1 0 0 0z"/><path class="st3" d="M8.5 4.9c0 .1 0 .1 0 0 0 .1 0 0 0 0 .1-.1.1-.1 0 0 .1-.1.1 0 0 0z"/><path d="M8.5 5s0-.1 0 0c.1-.1.1-.2.1-.2s0 .1-.1.2c0-.1 0 0 0 0z"/><path class="st3" d="M8.5 4.9c0 .1 0 .1 0 0-.1.1 0 0 0 0 0-.1 0-.1.1-.1 0 0 0 .1-.1.1z"/><path d="M8.5 5v-.1l.1-.1-.1.1s-.1.1 0 .1c0 0 0-.1 0 0 .1-.1.1-.1.1-.2 0 0 0 .1-.1.2 0-.1 0 0 0 0z"/><path class="st3" d="M8.5 4.9V5c-.1 0-.1-.1 0-.1-.1-.1-.1-.1 0 0-.1-.2 0-.1 0 0z"/><path d="M8.4 5s0-.1 0 0v-.2.1c.1 0 .1.1 0 .1zm0-.2V5c.1 0 .1-.1 0-.2.1 0 0 0 0 0z"/><path class="st3" d="M8.5 4.9V5c-.1 0-.1-.1 0-.1v-.1.1z"/><path d="M8.4 5v-.2.2-.2.1c.1 0 .1.1 0 .1z"/><path class="st3" d="M8.5 4.9s0 .1 0 0c-.1.1-.1 0 0 0v-.1.1z"/><path d="M8.5 5v-.1c0-.1.1-.1.1-.1s-.1 0-.1.2c0-.1 0 0 0 0zm0-.2c0 .1-.1.2 0 .2l.1-.1-.1-.1z"/><path class="st3" d="M8.4 5c0-.1 0-.1 0 0 0-.1 0-.1 0 0-.1-.1-.1-.1 0 0 0-.1 0-.1 0 0 .1 0 .1 0 0 0h.1-.1c.1 0 .1 0 0 0 .1 0 0 0 0 0z"/><path d="M8.6 5c-.1 0-.1 0 0 0-.1 0-.1 0 0 0h-.2.2c-.1 0-.1 0 0 0-.1 0-.1 0 0 0zm0 0c-.1 0-.1 0 0 0-.1 0-.1 0 0 0h-.1.1c-.1 0-.1 0 0 0-.1 0-.1 0 0 0-.1 0 0 0 0 0z"/><path class="st3" d="M8.4 5.1h-.1.1c.1-.1.1-.1.1 0h-.1z"/><path d="M8.3 5.1h.2-.2c.1 0 .1 0 0 0zm0 0h.2-.2z"/><path class="st3" d="M8.4 5.1h-.1.1l.1-.1s0 .1-.1.1z"/><path d="m8.3 5.1.2-.1-.1.1h-.1zm.2-.1s-.1 0 0 0c-.2 0-.2.1-.2.1s.1 0 .2-.1c0 .1 0 0 0 0z"/><path class="st3" d="M8.4 5c-.1.1-.1.1 0 0-.1.1-.1 0 0 0v-.1.1z"/><path d="M8.3 5.1s.1 0 .1-.1v-.1.1l-.1.1zm0 0s0-.1 0 0c.1-.1.1-.2.1-.2s-.1 0-.1.2c0-.1 0-.1 0 0z"/><path class="st3" d="M8.4 5c0 .1-.1.1-.1.1s0-.1.1-.1c0-.1.1-.1.1-.1l-.1.1z"/><path d="M8.3 5.1c.1 0 .1-.1.2-.2 0 0 0 .1-.1.1l-.1.1zm0 0c0-.1 0-.1 0 0 .1-.1.1-.2.2-.2-.1 0-.1 0-.2.2 0-.1 0-.1 0 0z"/><path class="st3" d="M8.4 5c-.1 0-.1.1-.1.1l.1-.1s.1-.1 0 0c.1 0 .1 0 0 0z"/><path d="M8.3 5.1s.1 0 .1-.1c0 0 .1 0 .1-.1l-.1.1c0 .1-.1.1-.1.1zm0 0s0-.1 0 0l.2-.2-.2.2c0-.1 0 0 0 0z"/><path class="st3" d="M8.3 5.1c0-.1 0-.1 0 0V5c-.1 0-.1 0 0 .1-.1-.1 0-.1 0 0s.1.1.1.1l-.1-.1z"/><path d="M8.4 5.2s-.1 0 0 0c-.1-.1-.1-.1 0 0l-.1-.1.1.1c-.1-.1-.1-.1 0 0-.1 0 0 0 0 0zm0 0c0-.1 0-.1 0 0-.1-.1-.1-.1 0 0l-.1-.1v.1c0 .1 0 0 0 0h.1c-.1-.1-.1-.1 0 0 0-.1 0-.1 0 0zm-.1-.1c-.1-.1-.1-.1 0 0-.1-.1-.1-.1 0 0-.1-.1-.1-.1 0 0-.1-.1-.1-.1 0 0 0-.1 0-.1 0 0z"/><path class="st3" d="M8.2 5.2h-.1.1c.1-.1.1-.1.1 0s0 0-.1 0z"/><path d="M8.2 5.2h-.1.2-.1s-.1 0 0 0c-.1 0 0 0 0 0 .1-.1.1-.1.1 0s0 0-.1 0z"/><path class="st3" d="M8.2 5.1c0 .1-.1.1-.1.1s0-.1.1-.1V5c.1 0 0 .1 0 .1z"/><path d="M8.1 5.2v-.1l.1-.1s-.1 0-.1.1v.1s.1 0 0 0c.1 0 0 0 0 0z"/><path class="st3" d="M8.2 5.2h-.1s0-.1.1 0c0-.1.1-.1 0 0 .1-.1.1-.1 0 0z"/><path d="M8.1 5.2s0-.1 0 0c.1-.1.2-.1.2-.1l-.2.1c.1 0 0 0 0 0zm.2-.1h-.1c-.1 0-.1.1-.1.1l.2-.1z"/><path class="st3" d="M8.2 4.1c.1.1.1.1 0 0 .1.1 0 .1 0 0z"/><path d="M8.3 4.2s-.1 0 0 0l-.1-.1.1.1c-.1 0 0 0 0 0s0-.1 0 0c-.1-.1-.1-.1 0 0-.1-.1-.1-.1 0 0 0-.1 0 0 0 0z"/><path class="st3" d="M8.2 4.2c.1 0 .1 0 0 0 .1 0 .1 0 0 0 0 0-.1 0 0 0-.1 0 0-.1 0 0z"/><path d="M8.3 4.2c-.1 0-.1 0 0 0h-.1c-.1-.1 0-.1.1 0-.1 0 0 0 0 0zm-.1 0c-.1 0-.1 0 0 0-.1 0 0 0 0 0h.1-.1z"/><path class="st3" d="M8.2 4.1c.1.1.1.1 0 0 .1.1 0 .1 0 0 0 0-.1 0 0 0-.1 0 0 0 0 0z"/><path d="M8.3 4.2s-.1 0 0 0c-.1 0-.1-.1-.1-.1l.1.1c-.1 0 0 0 0 0zm0 0-.1-.1.1.1z"/><path class="st3" d="M7.7 5.1s.1 0 .2.1c.1 0 .2.1.3.1 0 0 .1 0 .1-.1h-.2s-.1-.1-.2-.1h-.2z"/><path d="M8.1 5.3s-.1 0-.1-.1h-.1c-.1 0-.2-.1-.2-.1s.2 0 .2.1c.1 0 .1 0 .2.1 0 0 .1 0 0 0l.1-.1c0 .1 0 .1-.1.1zm-.4-.2s.1 0 .2.1c0 0 .1.1.2.1l.1.1s.1 0 .1-.1h-.1l-.1-.1c-.3-.1-.3-.1-.4-.1z"/><path class="st3" d="m7.8 4.2.1-.1-.1.1z"/><path d="m7.8 4.2.1-.1-.1.1zm.1-.1h-.1c0 .1.1.1.1 0z"/><path class="st3" d="M7.9 4.2h-.2l.1-.1s0 .1-.1.1h.2z"/><path d="M7.9 4.2h-.2l.1-.1v.1h.1zm-.1-.1-.1.1h.1-.1c.1 0 .1-.1.1-.1z"/><path class="st3" d="m7.8 4.2.1-.1-.1.1c-.1 0 0 0 0 0z"/><path d="m7.8 4.2.1-.1-.1.1zm.1-.1-.1.1.1-.1z"/><path class="st3" d="M7.9 4.2h-.2l.1-.1s0 .1-.1.1h.2z"/><path d="M7.9 4.2h-.2l.1-.1-.1.1h.2-.1v-.1.1h.1c-.1 0 0 0 0 0z"/><path class="st3" d="m7.8 4.2.1-.1-.1.1c-.1 0 0 0 0 0z"/><path d="m7.8 4.2.1-.1-.1.1zm.1 0h-.1.1z"/><path class="st3" d="M7.9 4.2h-.2l.1-.1v.1h.1z"/><path d="M7.9 4.2h-.2.2-.1v-.1.1h.1zm-.2 0c0-.1.1-.1 0 0 .1-.1 0-.1 0 0z"/><path class="st3" d="M7.7 4.2z"/><path d="m7.7 4.2.1-.1-.1.1zm.1-.1-.1.1.1-.1c-.1.1-.1.1 0 0z"/><path class="st3" d="M7.9 4.2h-.2s.1-.1.1-.2v.1c0 .1 0 .1.1.1z"/><path d="M7.9 4.2h-.2.2c-.1 0-.1 0 0 0h-.1v-.1.1h.1c-.1 0-.1 0 0 0z"/><path class="st3" d="M7.7 4.2z"/><path d="m7.7 4.2.1-.1c0 .1-.1.1-.1.1zm.1-.1-.1.1.1-.1z"/><path class="st3" d="M7.8 4.2h-.2s.1-.1.1-.2c0 0 0 .1-.1.1.1.1.2.1.2.1z"/><path d="M7.7 4.2c0-.1.1-.1.1-.2-.1.1-.1.2-.1.2h.2-.2l.1-.1c-.1 0-.1.1-.1.1h.1-.1z"/><path class="st3" d="m7.7 4.2.1-.1-.1.1z"/><path d="m7.7 4.2.2-.1c-.1.1-.2.1-.2.1zm.1-.1-.1.1.1-.1z"/><path class="st3" d="M7.8 4.2h-.2c0-.1.1-.1.1-.2v.2h.1z"/><path d="M7.6 4.3h.1c0-.1 0-.1-.1 0l.1-.1-.1.1h.1c0-.1 0 0-.1 0z"/><path class="st3" d="m7.7 4.3.1-.1-.1.1c-.1 0 0 0 0 0z"/><path d="m7.6 4.3.1-.1s0 .1-.1.1c.1 0 0 0 0 0zm.2-.2-.2.1c.1.1.1 0 .2-.1z"/><path class="st3" d="M7.8 4.3h-.2c0-.1.1-.1.1-.2v.2c0-.1.1-.1.1 0z"/><path d="m7.6 4.3.1-.2c0 .1 0 .1-.1.2h.1-.1zm.1-.2c0 .1-.1.1-.1.2h.1-.1c.1-.1.1-.1.1-.2z"/><path class="st3" d="m7.7 4.3.1-.1-.1.1c-.1 0 0 0 0 0z"/><path d="m7.6 4.3.2-.1c-.1 0-.1.1-.2.1zm.2-.1h-.2c.1.1.1.1.2 0z"/><path class="st3" d="M7.8 4.3h-.2c0-.1.1-.1.1-.2v.2h.1z"/><path d="M7.6 4.3c0-.1 0-.1.1-.2-.1.1-.1.1-.1.2h.1-.1c0-.1.1-.1.1-.2 0 .1-.1.1-.1.2h.2-.2z"/><path class="st3" d="m7.6 4.3.1-.1-.1.1z"/><path d="m7.6 4.3.1-.2c0 .1-.1.2-.1.2zm.1-.2-.1.2.1-.2z"/><path class="st3" d="M7.8 4.3c-.1 0-.1 0-.2.1 0-.1 0-.2.1-.2v.2c0-.1 0-.1.1-.1z"/><path d="M7.6 4.3c0-.1 0-.2.1-.2-.1.1-.1.1-.1.2.1 0 .1 0 .1-.1h.1c-.1.1-.2.1-.2.1zm0-.2c0 .1 0 .2-.1.2h.1-.2c.2-.1.2-.1.2-.2z"/><path class="st3" d="m7.6 4.3.1-.1-.1.1z"/><path d="m7.6 4.3.1-.2c0 .1 0 .2-.1.2zm.1-.1-.1.1.1-.1z"/><path class="st3" d="M7.8 4.3c-.1 0-.1 0-.2.1v-.2.2c0-.1.1-.1.2-.1z"/><path d="M7.6 4.3v-.2.2V4v.3s.1 0 .1-.1c0 .1-.1.1-.1.1.1 0 .1-.1.1-.1h.1c-.1.1-.2.1-.2.1z"/><path class="st3" d="m7.6 4.3.1-.2-.1.2c0 .1 0 0 0 0z"/><path d="m7.6 4.4.1-.2s-.1.1-.1.2c0-.1 0 0 0 0zm.1-.2-.1.1.1-.1z"/><path class="st3" d="M7.7 4.3h-.2c0-.1 0-.2.1-.2v.2h.1z"/><path d="M7.5 4.4h.2-.1c0-.1 0-.1-.1 0 0-.1.1-.1.1-.2 0 0 0 .1-.1.2h.2c-.1-.1-.1-.1-.2 0z"/><path class="st3" d="m7.6 4.4.1-.1-.1.1z"/><path d="m7.5 4.4.2-.1s-.1 0-.2.1c.1 0 0 0 0 0zm.2-.2-.1.1.1-.1z"/><path class="st3" d="M7.7 4.3h-.2c0-.1.1-.2.1-.2v.2h.1z"/><path d="M7.5 4.4c0-.1.1-.1.1-.2 0 0-.1.1-.1.2h.2c-.1-.1-.1-.1-.2 0 0-.1.1-.1.1-.2 0 0 0 .1-.1.2h.2c-.1-.1-.1-.1-.2 0z"/><path class="st3" d="m7.6 4.3.1-.2-.1.2z"/><path d="m7.5 4.4.1-.2s0 .1-.1.2zm.1-.2-.1.1.1-.1z"/><path class="st3" d="M7.7 4.3c-.1 0-.1.1-.2.1 0-.1 0-.2.1-.3v.2h.1z"/><path d="M7.5 4.4c0-.1 0-.2.1-.3v.1c-.1 0-.1.1-.1.2.1-.1.1-.1.2-.1h.1-.1c-.1.1-.2.1-.2.1zm.1-.3v.3c.1 0 .1 0 .2-.1h.1-.2c-.2 0-.2 0-.1-.2z"/><path class="st3" d="m7.5 4.4.1-.2-.1.2z"/><path d="m7.5 4.4.1-.2c0 .1-.1.2-.1.2zm.1-.2-.1.2.1-.2z"/><path class="st3" d="M7.7 4.3c-.1 0-.2.1-.2.1v-.3.2c.1.1.1 0 .2 0z"/><path d="M7.5 4.4v-.3.3s.1-.1.2-.1h-.1c0 .1 0 .1-.1.1v-.2.2c.1-.1.1-.1.2-.1h.1c-.2.1-.3.1-.3.1z"/><path class="st3" d="m7.5 4.4.1-.2-.1.2z"/><path d="m7.5 4.4.1-.2c0 .1-.1.2-.1.2zm.1-.2-.1.2.1-.2z"/><path class="st3" d="M7.7 4.3c-.1 0-.2.1-.2.1v-.3.2c0 .1.1.1.2 0z"/><path d="M7.5 4.5v-.3V4.5c.1-.1.1-.1.2-.1h.1c-.2 0-.3 0-.3.1zm0-.3v.3s.1-.1.2-.1h-.2v-.2z"/><path class="st3" d="m7.5 4.4.1-.2-.1.2c0 .1 0 0 0 0z"/><path d="m7.5 4.5.2-.2-.2.2zm.1-.2-.1.1.1-.1z"/><path class="st3" d="M7.7 4.3c-.1 0-.1.1-.2.2v-.3.2c.1 0 .1 0 .2-.1z"/><path d="M7.5 4.5v-.2.2l.1-.1h-.1c.1 0 0 0 0 .1v-.2.2l.1-.1h.1c-.1 0-.2.1-.2.1z"/><path class="st3" d="M7.5 4.4v-.2.2z"/><path d="M7.5 4.5v-.2.2zm0-.3v.2-.2z"/><path class="st3" d="M7.6 4.4c-.1 0-.1.1-.2.2v-.3.2c.1-.1.2-.1.2-.1z"/><path d="M7.5 4.5v-.3.3l.1-.1h-.1c.1 0 0 0 0 .1v-.2.2l.1-.1h.1c-.1 0-.2.1-.2.1z"/><path class="st3" d="m7.5 4.5.1-.2-.1.2z"/><path d="m7.5 4.5.1-.2c-.1 0-.1.2-.1.2zm0-.2v.2-.2z"/><path class="st3" d="m7.6 4.4-.1.1v-.3c0 .1 0 .1.1.2-.1 0 0 0 0 0z"/><path d="M7.5 4.5v-.3c-.1.2 0 .3 0 .3l.1-.1h-.1c.1 0 0 0 0 .1v-.2.2c0-.1.1-.1.1-.2h.1l-.2.2z"/><path class="st3" d="M7.5 4.5v-.2.2z"/><path d="M7.5 4.5v-.3.3zm0-.2v.2-.2z"/><path class="st3" d="M7.6 4.4c-.1 0-.1.1-.2.2v-.3.2c.1 0 .2-.1.2-.1z"/><path d="M7.4 4.6v-.3.1s.1 0 0 .2l.1-.1h.1c-.1 0-.1 0-.2.1zm0-.3v.3l.1-.1h-.1s-.1 0-.1.1c.1-.2.1-.2.1-.3z"/><path d="M8.4 4.6c0 .2-.2.4-.4.4s-.4-.2-.4-.4.2-.4.4-.3c.2 0 .4.1.4.3z" style="fill:#3e60bd"/><path class="st3" d="m7.5 4.5.1-.2-.1.2z"/><path d="m7.4 4.6.1-.2s0 .1-.1.2c.1-.1 0 0 0 0zm.2-.3-.2.2c.1 0 .1 0 .2-.2z"/><path class="st3" d="M7.6 4.4c0 .1-.1.1-.2.2v-.3c0 .1 0 .1.1.2l.1-.1z"/><path d="M7.5 4.6v-.3c-.1.1 0 .2 0 .3 0-.1.1-.1.1-.1-.1 0-.1 0-.1.1v-.2.2c.1-.1.1-.1.1-.2-.1.1-.1.1-.1.2z"/><path class="st3" d="M7.5 4.5v-.2.2c0 .1 0 0 0 0z"/><path d="M7.5 4.6v-.3.3zm0-.3v.2-.2z"/><path class="st3" d="M7.6 4.4c0 .1-.1.1-.2.2v-.3c0 .1 0 .1.1.2l.1-.1z"/><path d="M7.4 4.6v-.3.3l.1-.1-.1.1v-.2.2c0-.1.1-.1.1-.1s0 .1-.1.1z"/><path class="st3" d="M7.5 4.6v-.2.2z"/><path d="m7.4 4.6.1-.3c0 .1 0 .3-.1.3.1 0 0 0 0 0zm.1-.3-.1.3c.1 0 .1-.1.1-.3z"/><path class="st3" d="M7.6 4.4c0 .1-.1.1-.1.2 0-.1 0-.2-.1-.3 0 .1.1.1.1.2l.1-.1z"/><path d="M7.4 4.6c0-.1 0-.2-.1-.3.1.1.1.2.1.3 0 0 .1-.1.1-.2 0 .1 0 .1-.1.2 0-.1 0-.2-.1-.2.1.1.1.1.1.2 0-.1.1-.1.1-.2 0 .1 0 .2-.1.2z"/><path class="st3" d="M7.5 4.6v-.2.2z"/><path d="M7.4 4.6v-.3.3zm.1-.2v.2-.2z"/><path class="st3" d="M7.6 4.4c0 .1-.1.1-.1.2 0-.1 0-.2-.1-.3 0 .1.1.1.1.2l.1-.1z"/><path d="M7.4 4.6c0-.1-.1-.2-.1-.2v.1c.1 0 .1 0 .1.1 0-.1.1-.1.1-.2 0 .1 0 .2-.1.2zm0-.2c0 .1.1.2.1.3 0 0 .1-.1.1-.2l-.1.1c-.1-.1-.1-.1-.1-.2z"/><path class="st3" d="M7.5 4.6v-.2.2z"/><path d="M7.5 4.6v-.3.3zm0-.2-.1.2c.1 0 .1 0 .1-.2z"/><path class="st3" d="M7.6 4.5c0 .1-.1.2-.1.2 0-.1-.1-.2-.1-.2s.1.1.1.2c0-.1 0-.2.1-.2z"/><path d="M7.5 4.7c0-.1-.1-.2-.1-.2s0 .1.1.2c0-.1.1-.1.1-.2v-.1.1c-.1 0-.1.1-.1.2 0-.1-.1-.2-.1-.2s0 .1.1.2c0-.1.1-.1.1-.2v.1c-.1 0-.1 0-.1.1z"/><path class="st3" d="m7.5 4.6-.1-.2.1.2z"/><path d="M7.5 4.7v-.3c-.1.1 0 .2 0 .3 0-.1 0 0 0 0zm-.1-.3v.2c.1 0 .1 0 0-.2z"/><path class="st3" d="M7.6 4.5c0 .1-.1.1-.1.2 0-.1-.1-.2-.1-.2 0 .1.1.1.1.2 0-.1 0-.2.1-.2z"/><path d="M7.5 4.7c0-.1-.1-.2-.1-.2 0 .1 0 .1.1.2 0-.1.1-.1.1-.2v-.1.1c-.1.1-.1.2-.1.2zm-.2-.2c0 .1.1.2.1.2s.1-.1.1-.2v-.1.1l-.1.1-.1-.1z"/><path class="st3" d="M7.5 4.7v-.2.2z"/><path d="M7.5 4.7v-.3.3zm0-.3v.2-.2z"/><path class="st3" d="M7.6 4.5c0 .1-.1.1-.1.2 0-.1-.1-.2-.1-.2 0 .1.1.1.1.2 0-.1 0-.2.1-.2z"/><path d="M7.5 4.7c0-.1.1-.1.1-.2v.1c-.1 0-.1 0-.1.1 0-.1 0-.2-.1-.2 0 .1 0 .1.1.2 0-.1.1-.1.1-.2-.1.1-.1.2-.1.2z"/><path class="st3" d="M7.5 4.7v-.2.2z"/><path d="M7.5 4.7v-.3.3zm-.1-.2v.2-.2z"/><path class="st3" d="M7.6 4.5c0 .1-.1.1-.1.2 0-.1-.1-.2-.1-.2 0 .1.1.1.1.2 0-.1 0-.1.1-.2z"/><path d="M7.4 4.7c0-.1-.1-.2-.1-.2.1.1.1.2.1.2 0-.1.1-.1.1-.2 0 .1 0 .1-.1.2 0-.1 0-.2-.1-.2.1.1.1.1.1.2 0-.1.1-.1.1-.2v.1s0 .1-.1.1z"/><path class="st3" d="M7.5 4.7v-.2.2c-.1 0 0 0 0 0z"/><path d="M7.4 4.7v-.3.3c.1 0 0 0 0 0zm.1-.2-.1.2c.1 0 .1 0 .1-.2z"/><path class="st3" d="M7.6 4.5c0 .1-.1.2-.1.2 0-.1-.1-.2-.1-.2s.1.1.1.2c0-.1 0-.1.1-.2z"/><path d="M7.5 4.8c0-.1-.1-.2-.1-.2s0 .1.1.2c0-.1.1-.1.1-.2v-.1.1c-.1 0-.1.1-.1.2 0-.1-.1-.2-.1-.2s0 .1.1.2c0-.1 0-.1.1-.2v-.1.1c-.1.1-.1.1-.1.2z"/><path class="st3" d="m7.5 4.7-.1-.2.1.2z"/><path d="M7.4 4.8v-.3.3c.1-.1 0 0 0 0zm0-.3v.2-.2z"/><path class="st3" d="M7.6 4.6c0 .1-.1.2-.1.2 0-.1-.1-.1-.1-.2l.1.1s0-.1.1-.1z"/><path d="m7.5 4.8-.2-.2.2.2V4.5 4.8zm-.2-.2c.1.1.1.1.1.2 0-.1 0-.1.1-.2v-.1.1s0 .1-.1.1l-.1-.1z"/><path class="st3" d="m7.5 4.7-.1-.2.1.2c0 .1 0 0 0 0z"/><path d="m7.5 4.8-.1-.3c.1.1.1.2.1.3zm-.1-.3v.2c.1 0 .1 0 0-.2z"/><path class="st3" d="M7.6 4.6c0 .1-.1.2-.1.2 0-.1-.1-.1-.1-.2l.1.1s0-.1.1-.1z"/><path d="M7.5 4.8c0-.1-.1-.2-.1-.2 0 .1 0 .1.1.2V4.5 4.8zm-.2-.2c0 .1.1.1.1.2 0-.1 0-.1.1-.2v-.1.1s0 .1-.1.1l-.1-.1z"/><path class="st3" d="m7.5 4.8-.1-.2.1.2z"/><path d="m7.5 4.8-.1-.2c.1.1.1.2.1.2zm-.1-.2.1.2-.1-.2z"/><path class="st3" d="M7.5 4.6v.3c0-.1-.1-.1-.2-.2 0 0 .1.1.2.1v-.2z"/><path d="M7.5 4.9c0-.1-.1-.1-.2-.2.1 0 .2.1.2.2V4.6 4.9zm-.2-.2.2.2V4.6v.2s-.1-.1-.2-.1c.1 0 0 0 0 0z"/><path class="st3" d="M7.5 4.8v-.2.2z"/><path d="M7.5 4.8v-.3.3zm0-.2v.2-.2z"/><path class="st3" d="M7.6 4.6v.3c-.1-.1-.2-.1-.3-.2 0 0 .1.1.2.1 0 0 0-.1.1-.2z"/><path d="M7.5 4.9c0-.1-.1-.1-.2-.2.1.1.2.1.2.2V4.6 4.9c0-.1-.1-.1-.1-.2 0 .1.1.1.1.2V4.6 4.9z"/><path class="st3" d="m7.5 4.8-.1-.1.1.1c0 .1 0 0 0 0z"/><path d="m7.5 4.9-.1-.2.1.2zm-.1-.2.1.2c0-.1 0-.1-.1-.2z"/><path class="st3" d="M7.6 4.6v.3c-.1-.1-.2-.1-.3-.2 0 0 .1.1.2.1 0 0 0-.1.1-.2z"/><path d="m7.5 4.9-.2-.2.2.2V4.6 4.9c0-.1-.1-.1-.1-.1s.1 0 .1.1V4.6 4.9z"/><path class="st3" d="m7.5 4.9-.1-.2.1.2z"/><path d="m7.5 4.9-.1-.2c.1 0 .1.2.1.2zm-.1-.2.1.2s0-.1-.1-.2z"/><path class="st3" d="M7.6 4.7V5c-.1 0-.1-.1-.2-.1 0 0 .1.1.2.1-.1-.2-.1-.3 0-.3z"/><path d="M7.5 4.9c-.1 0-.1-.1-.2-.1.1 0 .2.1.2.1V4.6 4.9l-.1-.1.1.1V4.6v.1c.1.1 0 .2 0 .2z"/><path class="st3" d="m7.5 4.9-.1-.2.1.2z"/><path d="m7.6 4.9-.2-.2.2.2zm-.2-.2.1.2-.1-.2z"/><path class="st3" d="M7.6 4.7V5c-.1-.1-.2-.1-.2-.2.1 0 .1.1.2.1-.1-.1-.1-.1 0-.2z"/><path d="M7.5 5c-.1 0-.1-.1-.2-.1.1 0 .2 0 .2.1V4.7v.1c.1 0 0 .1 0 .2zm-.1-.2c.1 0 .1.1.2.1V4.6v.2c-.1.1-.2.1-.2 0z"/><path class="st3" d="m7.6 4.9-.1-.2.1.2z"/><path d="m7.6 5-.1-.3c0 .1.1.2.1.3zm-.1-.3.1.2-.1-.2z"/><path class="st3" d="M7.6 4.7V5c-.1 0-.2-.1-.2-.1.1 0 .1 0 .2.1v-.3z"/><path d="M7.6 5c-.1 0-.2-.1-.2-.1s.1.1.2.1V4.7v.1s-.1.1 0 .2c-.1-.1-.1-.1-.2-.1.1 0 .1 0 .2.1V4.7 5z"/><path class="st3" d="m7.6 4.9-.2-.1.2.1c0 .1 0 0 0 0z"/><path d="m7.6 5-.2-.2c.1 0 .2.1.2.2 0-.1 0 0 0 0zm-.2-.2.2.2c0-.1-.1-.2-.2-.2z"/><path class="st3" d="M7.6 4.7V5c-.1 0-.2-.1-.2-.1h.2v-.2z"/><path d="M7.6 5V4.7 5c-.1-.1-.1-.1-.2-.1.1 0 .1 0 .2.1V4.7 5z"/><path class="st3" d="m7.6 5-.1-.2.1.2z"/><path d="m7.6 5-.1-.2c0 .1.1.2.1.2zm-.1-.2.1.2s0-.1-.1-.2z"/><path class="st3" d="M7.6 4.8v.3l-.2-.2h.2v-.1z"/><path d="M7.6 5s-.1 0-.2-.1c.1.1.2.1.2.1V4.7 5c-.1 0-.1 0-.1-.1 0 .1 0 .1.1.1v-.2.2z"/><path class="st3" d="m7.6 5-.1-.1.1.1z"/><path d="m7.6 5-.1-.1.1.1zm-.1-.1.1.1c0-.1-.1-.1-.1-.1z"/><path class="st3" d="M7.6 4.8c0 .1 0 .2.1.3-.1-.1-.2-.1-.3-.1h.2v-.2z"/><path d="M7.6 5.1V4.8 5.1c0-.1-.1-.1-.1-.1s.1 0 .1.1V4.8 5.1z"/><path class="st3" d="m7.6 5-.1-.2.1.2z"/><path d="m7.6 5-.1-.2c.1.1.1.2.1.2zm-.1-.2.1.2-.1-.2z"/><path class="st3" d="M7.6 4.8c0 .1.1.2.1.3-.1 0-.2-.1-.3-.1h.2v-.2z"/><path d="M7.7 5.1c-.1 0-.2-.1-.2-.1s.1.1.2.1c0-.1 0-.1-.1-.2v-.1.1s0 .1.1.2C7.6 5 7.5 5 7.5 5s.1 0 .2.1c-.1-.1-.1-.2-.1-.2v-.1.1s.1.1.1.2z"/><path class="st3" d="M7.6 5h-.1.1c.1 0 0 0 0 0z"/><path d="M7.6 5.1 7.5 5s.1 0 .1.1zM7.5 5h.1-.1z"/><path class="st3" d="M7.6 4.8c0 .1 0 .2.1.3-.1 0-.2 0-.2-.1h.2c-.1 0-.1-.1-.1-.2z"/><path d="M7.7 5.1c0-.1 0-.1-.1-.2v-.1.1c0 .1 0 .1.1.2h-.2.1c0-.1 0-.1.1 0-.1-.1-.1-.1-.1-.2v-.1.1c0 .1.1.1.1.2z"/><path class="st3" d="m7.7 5-.2-.1.2.1z"/><path d="m7.7 5.1-.2-.2c0 .1.2.1.2.2zm-.2-.2.2.1s-.2 0-.2-.1z"/><path class="st3" d="M7.6 4.9c0 .1.1.2.1.2h-.2.2c0-.1-.1-.2-.1-.2z"/><path d="M7.5 5.1h.2v-.2.2h-.2zm.1-.2c0 .1.1.1.1.1h-.1.2c-.1 0-.1 0-.2-.1z"/><path class="st3" d="M7.7 5h-.2.2z"/><path d="M7.7 5.1 7.5 5c.1 0 .2 0 .2.1zM7.5 5l.2.1c0-.1-.2-.1-.2-.1z"/><path class="st3" d="M7.6 4.9c0 .1.1.2.1.2h-.2.2c0-.1-.1-.2-.1-.2z"/><path d="M7.5 5.1h.2v-.2.1c0 .1.1.1.1.2h-.1c-.1-.1-.1-.1-.2-.1zm.1-.2c.1.1.1.1.1.2h-.1.2c-.1 0-.1-.1-.2-.2z"/><path class="st3" d="M7.7 5.1 7.6 5l.1.1z"/><path d="M7.7 5.1 7.6 5l.1.1zM7.6 5l.2.1c-.1 0-.2-.1-.2-.1z"/><path class="st3" d="M7.6 4.9c0 .1.1.2.1.2h-.2s.1 0 .2-.1l-.1-.1z"/><path d="M7.6 5.1c.1 0 .1 0 .2-.1 0 0 0-.1-.1-.1v-.1c0 .1.1.1.1.2-.1.1-.2.1-.2.1zm0-.2s.1 0 0 0c.1.1.1.1.1.2h-.1.2c-.1 0-.1-.1-.2-.2z"/><path class="st3" d="M7.7 5.1h-.2.2z"/><path d="M7.7 5.1h-.1.1c0-.1-.2-.1-.2-.1l.2.1z"/><path class="st3" d="M7.9 4.2H8h-.1z"/><path d="M7.9 4.2H8c0-.1-.1 0-.1 0zm.1-.1h-.1.1z"/><path class="st3" d="M7.9 4.2h-.1s.1 0 .1-.1v.1z"/><path d="M7.9 4.2h-.1s.1 0 .1-.1l-.1.1h.1c0-.1 0-.1 0 0v-.1.1c0-.1 0-.1 0 0-.1 0 0 0 0 0z"/><path class="st3" d="M7.8 4.2h.1-.1z"/><path d="M7.8 4.2h.1c.1-.1-.1 0-.1 0zm.2-.1h-.1c-.1.1 0 .1.1 0z"/><path class="st3" d="M7.9 4.2h-.2l.1-.1-.1.1h.2z"/><path d="M7.9 4.2h-.2l.1-.1-.1.1h.2-.1v-.1l.1.1c-.1-.1-.1-.1-.1 0h.1z"/><path class="st3" d="M7.8 4.2h.1-.1z"/><path d="M7.8 4.2h.1-.1z"/><path class="st3" d="M7.9 4.2h-.1l.1-.1s-.1 0-.1.1h.1z"/><path d="M7.9 4.2h-.1l.1-.1-.1.1h.1c-.1 0-.1 0 0 0-.1 0-.1-.1 0 0v-.1.1c-.1-.1-.1 0 0 0-.1 0-.1 0 0 0z"/><path class="st3" d="m7.8 4.2.1-.1-.1.1z"/><path d="m7.8 4.2.1-.1-.1.1zm.1-.1h-.1c0 .1.1 0 .1 0z"/><path class="st3" d="M7.9 4.2h-.1l.1-.1c-.1 0-.1 0 0 .1-.1 0 0 0 0 0z"/><path d="M7.9 4.2c-.1 0-.1 0-.1-.1l.1-.1-.1.1c0 .1 0 .1.1.1-.1 0-.1 0 0 0-.1-.1-.1-.1 0-.1-.1 0-.1 0 0 .1-.1 0-.1 0 0 0z"/><path class="st3" d="M7.8 4.2z"/><path d="M7.8 4.2c.1 0 0 0 0 0zm.1-.1h-.1.1c-.1.1-.1.1 0 0z"/><path class="st3" d="M7.7 5.1h-.2.2z"/><path d="M7.7 5.1h-.2.2zm0 0h-.2.2z"/><path class="st3" d="M7.7 5.1 7.6 5l.1.1c.1 0 0 0 0 0z"/><path d="M7.7 5.1 7.6 5l.1.1zM7.6 5l.2.1c-.1 0-.2-.1-.2-.1z"/><path class="st3" d="M7.8 5.1h-.2.2z"/><path d="M7.8 5.1h-.2.2zm-.2 0 .2.1c-.1-.1-.2-.1-.2-.1z"/><path class="st3" d="M7.7 4.9c0 .1.1.2.1.2-.1 0-.2 0-.2.1 0 0 .1 0 .2-.1-.1 0-.1-.1-.1-.2z"/><path d="M7.6 5.2c.1 0 .1-.1.2-.1 0 0 0-.1-.1-.1v-.1c0 .1.1.1.1.1l-.2.2zm.1-.3c0 .1 0 .1 0 0 0 .1.1.2.1.2s-.1 0-.1.1h.2c-.1-.1-.2-.2-.2-.3z"/><path class="st3" d="M7.8 5.1 7.6 5l.2.1z"/><path d="M7.8 5.1 7.6 5c.1 0 .2.1.2.1zM7.6 5l.2.1-.2-.1z"/><path class="st3" d="M7.7 5s.1.1.2.1c-.1 0-.2.1-.2.1l.1-.1-.1-.1z"/><path d="m7.7 5.2.1-.1-.1-.1v-.1l.1.1c0 .2-.1.2-.1.2zm0-.2c.1 0 .1.1.1.1l-.1.1c.1 0 .1-.1.2-.1-.1 0-.1 0-.2-.1z"/><path class="st3" d="M7.8 5.1h-.2.2z"/><path d="M7.8 5.2h-.2.2c.1-.1 0 0 0 0zm0-.1h-.2.2z"/><path class="st3" d="M7.8 5.1h-.2.2z"/><path d="M7.8 5.1h-.2.2zm0 0h-.2.2z"/><path class="st3" d="M7.8 5.1h-.2.2z"/><path d="M7.8 5.1h-.2.2c.1 0 0 0 0 0zm-.2 0 .2.1c0-.1-.2-.1-.2-.1z"/><path class="st3" d="M7.9 5.1h-.2.2z"/><path d="M7.9 5.2h-.2c0-.1.1-.1.2 0 0-.1 0 0 0 0zm0-.1h-.2.2z"/><path class="st3" d="M7.7 5c.1 0 .2.1.2.2-.1 0-.2 0-.2.1l.1-.1c0-.1 0-.2-.1-.2z"/><path d="M7.7 5.2c.1 0 .1-.1.1-.1L7.7 5v-.1l.1.1c.1.2 0 .2-.1.2zm0-.2c.1.1.1.1.1.2 0 0-.1 0-.1.1.1 0 .1 0 .2-.1 0-.1-.1-.1-.2-.2.1 0 0 0 0 0z"/><path class="st3" d="M7.9 5.1h-.2.2z"/><path d="m7.9 5.2-.2-.1s.2 0 .2.1zm-.2-.1.2.1c0-.1-.2-.1-.2-.1z"/><path class="st3" d="M7.7 5c.1 0 .1.1.2.2-.1 0-.1.1-.2.1l.1-.1c0-.1 0-.2-.1-.2z"/><path d="m7.7 5.3.1-.1-.1-.1h.1c.1 0 .1.1.2.1-.1 0-.2 0-.3.1 0-.1 0 0 0 0zm0-.3c.1 0 .1 0 0 0l.1.1-.1.1c.1 0 .1-.1.2-.1 0 0-.1 0-.2-.1.1 0 0 0 0 0z"/><path class="st3" d="M7.9 5.1h-.2.2z"/><path d="M7.7 5.2s.2 0 .2-.1l-.2.1zm.2-.1h-.2.2z"/><path d="M8.2 4.9 8 4.7l-.2.2.1-.2-.2-.2h.2l.1-.2.1.2h.2l-.2.2.1.2z" style="fill:#f5cd28"/><path d="M8.2 4.9 8 4.7l-.2.2.1-.2-.2-.2h.2l.1-.2.1.2h.2l-.2.2.1.2zM8 4.3l-.1.2h-.2l.2.1-.1.3.2-.2.2.1-.1-.1.2-.1h-.2c0-.1-.1-.3-.1-.3z"/><path d="M8.8 4.8H9h-.1c0 .1 0 .1-.1 0 .1.1.1.1 0 0l.1.2-.1-.2zm.2-.2h-.1.1l-.1-.1.1.1zm-.2-.2c0 .1 0 .1 0 0s0-.1 0 0c0-.1.1-.1 0 0 .1-.1.1-.1 0 0h.1-.1c.1 0 .1 0 0 0 .1 0 .1 0 0 0 .1 0 .1 0 0 0 .1-.1.1-.1 0 0 0-.1 0-.1 0 0zm-.7-.5v-.2.2zm-.1 0v-.2h.1H8v.2h.1H8zm-.5.1c-.1.1-.1.1 0 0h-.1c0-.1 0-.1.1 0-.1-.1-.1-.1 0 0-.1-.1-.1-.1 0 0-.1-.1-.1-.1 0 0h-.1.1c-.1 0-.1 0 0 0-.1 0 0 0 0 0zm-.1.1L7.3 4l.1.1zm-.1.1-.1-.1.1.1zm-.2.1h.1-.1l.1.1s0-.1-.1-.1zm.1.4H7v-.1.1h.2l-.1-.1.1.1v-.1.1zm.6-.8v-.2h.1c0 .1 0 .1-.1.2.1 0 .1 0 0 0 .1 0 0 0 0 0zm0 0c.1-.1.1-.1 0 0 .1-.1.1-.1 0 0 .1-.1.1-.1 0 0l.1-.1c-.1-.1-.1.1-.1.1zm.6 0 .1-.1c0 .1 0 .1-.1.1 0 .1 0 0 0 0zm0 0c.1 0 .1 0 0 0 .1 0 .1 0 0 0 .1 0 .1 0 0 0 .1 0 .1 0 0 0 .1-.1.1-.1 0 0 .1-.1 0 0 0 0zm0 .1.2-.1-.1.2-.1-.1h.1-.1c.1 0 0 0 0 0zm.1 0c.1-.1.1-.1 0 0 .1-.1.1-.1 0 0 .1-.1 0 0 0 0zm.1.1.1-.1v.1h-.1l.1.1-.1-.1c.1 0 .1 0 0 0 .1 0 .1 0 0 0zm.1 0zm0 .1h.2l-.2.1v-.1zm0 0c.1 0 .1 0 0 0 .1 0 .1 0 0 0 .1 0 0 0 0 0zm.1.5H9h-.2zm.1 0zm-1.7.2H7v-.1c.1 0 .1 0 .2.1-.1-.1-.1-.1 0 0-.1-.1-.1-.1 0 0v-.1.1c-.1-.1-.1-.1 0 0 0-.1 0 0 0 0zm-.1 0c0-.1 0-.1 0 0 0-.1 0-.1 0 0 0-.1 0-.1 0 0-.1-.1-.1-.1 0 0zm.1-.3L7 4.5v-.1l.2.2zm-.1-.1c-.1 0 0 0 0 0zm.2-.2-.2-.1c.2 0 .2 0 .2.1 0-.1 0-.1 0 0zm-.1-.1zm.1.1c0-.1 0-.1 0 0 0-.1 0-.1 0 0 0-.1 0-.1 0 0 0-.1 0-.1 0 0-.1-.1-.1-.1 0 0-.1-.1-.1-.1 0 0-.1 0 0 0 0 0zm.2-.3v-.2l.1.1-.1.1c.1 0 0 0 0 0zm0-.1c0-.1 0-.1 0 0 0-.1 0-.1 0 0 0-.1 0 0 0 0z" style="fill:#f8e72a"/></svg>