<svg width="16" height="10" viewBox="0 0 16 10" fill="none" xmlns="http://www.w3.org/2000/svg">
<path d="M16 0H0V9.33492H16V0Z" fill="#D80031"/>
<path d="M0 6.5365H16H0ZM0 2.79395H16H0Z" fill="#292C2F"/>
<path d="M0 7.47093H16V5.60681H0V7.47093ZM0 3.72838H16V1.86426H0V3.72838Z" fill="white"/>
<path d="M0 0V9.33492L8.07151 4.67223L0 0Z" fill="#2534A4"/>
<path fill-rule="evenodd" clip-rule="evenodd" d="M2.69344 3.1084L2.21191 4.58158L2.95088 4.82473L2.69344 3.1084Z" fill="white"/>
<path fill-rule="evenodd" clip-rule="evenodd" d="M2.69363 3.1084L3.16084 4.58158L2.42188 4.82473L2.69363 3.1084Z" fill="white"/>
<path fill-rule="evenodd" clip-rule="evenodd" d="M4.17142 4.19531H2.61719V4.95812L4.17142 4.19531Z" fill="white"/>
<path fill-rule="evenodd" clip-rule="evenodd" d="M4.1714 4.19531L2.908 5.09639L2.45508 4.4766L4.1714 4.19531Z" fill="white"/>
<path fill-rule="evenodd" clip-rule="evenodd" d="M1.20605 4.19531L2.46945 5.09639L2.92237 4.4766L1.20605 4.19531Z" fill="white"/>
<path fill-rule="evenodd" clip-rule="evenodd" d="M1.20605 4.19531H2.76981V4.95812L1.20605 4.19531Z" fill="white"/>
<path fill-rule="evenodd" clip-rule="evenodd" d="M3.59943 5.92142L3.1179 4.44824L2.37891 4.69139L3.59943 5.92142Z" fill="white"/>
<path fill-rule="evenodd" clip-rule="evenodd" d="M3.59972 5.92188L2.35059 5.0065L2.79874 4.38672L3.59972 5.92188Z" fill="white"/>
<path fill-rule="evenodd" clip-rule="evenodd" d="M1.77832 5.92188L3.02742 5.0065L2.5745 4.38672L1.77832 5.92188Z" fill="white"/>
<path fill-rule="evenodd" clip-rule="evenodd" d="M1.77832 5.92142L2.25982 4.44824L2.99405 4.69139L1.77832 5.92142Z" fill="white"/>
</svg>
