<svg version="1.1" id="Capa_1" xmlns="http://www.w3.org/2000/svg" x="0" y="0" width="16" height="10" style="enable-background:new 0 0 16 10" xml:space="preserve"><style>.st0{fill:#fff}.st1{fill:#223e84}.st2{fill:#bc0030}.st3{fill:#f5cd28}.st4{fill:#272015}.st5{fill:#999396}.st6{fill:#347c63}.st7{fill:#1a4104}.st9{fill:#c0003b}</style><path class="st0" d="M16 0H0v9.3h16V0z"/><path class="st1" d="M6.9 0H0v3.6h6.9V0z"/><path class="st2" d="M6.9 5.7H0v3.6h6.9V5.7z"/><path class="st1" d="M16 5.7H9.1v3.6H16V5.7z"/><path class="st2" d="M16 0H9.1v3.6H16V0z"/><path d="M9.1 4c0-.1 0-.1 0 0 0-.1 0-.1 0 0zM9.1 4c0-.1-.1-.1 0 0-.1-.1 0-.1 0 0zM9 4c0-.1 0-.1 0 0 0-.1.1-.1 0 0zM9 4c0-.1 0-.1 0 0 0-.1 0-.1 0 0zM9 4v-.1.1zM9 4c0-.1-.1-.1 0 0-.1-.1 0-.1 0 0z"/><path class="st1" d="M9.1 3.9c-.1-.3-.2-.3-.2-.3l-.2-.1v.1s.1.1.2.1c0 .1.1.2.1.2h.1c-.1 0 0 0 0 0z"/><path d="M8.9 3.9s0-.1-.1-.2c0-.1-.2-.1-.2-.1v-.1c.1 0 .1 0 .2.1 0 0 .1.1.1.3.1 0 .1 0 0 0 .1 0 0 0 0 0zm-.2-.3s.1.1.2.1c0 .1 0 .1.1.2h.1c-.1-.3-.2-.3-.2-.3-.1 0-.1-.1-.2-.1.1 0 0 .1 0 .1z"/><path class="st1" d="M9 3.7c-.1-.1-.2 0-.2 0-.1 0-.2 0-.2-.1l.1-.2.1.1c0 .1.1 0 .2.2 0-.1 0 0 0 0z"/><path d="M9 3.7H8.7c-.1 0-.2-.1-.2-.1s.1-.1.1-.2l.1.1h.1s.1 0 .1.1l.1.1zm-.2-.1H9v-.1c-.1.1-.1.1-.2.1 0-.1-.1-.1-.1-.1v-.1c0 .1-.1.1-.1.1 0 .1 0 .1.2.1z"/><path d="M8.8 3.7h-.2.2c-.1-.1 0-.1 0 0 0-.1 0 0 0 0z"/><path class="st1" d="M8.2 3.3h.4c.2 0 .3.1.3.1v.1-.1c-.1 0-.2-.1-.3-.1H8.3c-.1.1-.1 0-.1 0z"/><path d="M8.8 3.6c-.1 0-.2-.1-.3-.1h-.3s-.1 0-.1-.1v-.1h.4c.2 0 .3.1.3.1.1.1.1.2 0 .2zm-.4-.1c.1 0 .2 0 .3.1v-.1s-.1-.1-.3-.1H8.1v.1H8.4z"/><path d="M8.3 3.5s-.1 0 0 0c-.1 0-.1 0 0 0h-.1c-.1 0 0-.1.1 0-.1-.1-.1-.1 0 0zM6.9 4v-.1.1zM6.9 4v-.1c.1 0 0 0 0 .1zM7 4v-.1.1zM7 4v-.1.1zm0 0v-.1.1zM7 4v-.1c.1 0 0 0 0 .1z"/><path class="st1" d="M6.9 3.9c.1-.3.2-.3.2-.3l.2-.1v.1s-.1.1-.2.1c0 .1-.1.2-.1.2h-.1c.1 0 0 0 0 0z"/><path d="M7.1 3.9s-.1 0 0 0H7c0-.3.1-.3.1-.3l.2-.1.1.1s-.1.1-.2.1c-.1.1-.1.1-.1.2zm-.1 0s.1 0 0 0c.1 0 .1-.1.1-.1 0-.1.2-.1.2-.1v-.1c-.1 0-.2.1-.2.1 0-.1-.1-.1-.1.2z"/><path class="st1" d="M7 3.7c.1-.1.2 0 .2 0 .1 0 .2 0 .2-.1l-.1-.2-.1.1c0 .1-.1 0-.2.2z"/><path d="M7 3.7v-.1c0-.1.1-.1.1-.1h.1l.1-.1s.1.1.1.2c0 0-.1 0-.2.1H7zm.3-.3-.1.1s-.1 0-.1.1v.1h.1c.1 0 .2-.1.2-.1s0-.1-.1-.2z"/><path d="M7.2 3.6s.1 0 .1-.1h.2-.1c-.1.1-.2.1-.2.1z"/><path class="st1" d="M7.8 3.3h-.4c-.2 0-.3.1-.3.1v.1l.3-.1H7.7c.1 0 .1 0 .1-.1z"/><path d="M7.2 3.6s-.1-.1-.1-.2c0 0 .1-.1.3-.1H7.7l.1.1-.1.1h-.1c-.1 0-.3.1-.4.1zm.4-.3h-.2c-.2 0-.3.1-.3.1v.1c.1 0 .2-.1.3-.1H7.7v-.1h-.1zM7.7 3.5c.1 0 .1-.1 0 0h.1-.1c.1 0 .1 0 0 0z"/><path class="st1" d="M8 3.2c-.3 0-.3 0-.3.1v.2s0-.1.3-.1.3.1.3.1v-.2s-.1-.1-.3-.1z"/><path d="M7.7 3.5v-.2s.1-.1.3-.1c.2 0 .4 0 .4.1v.2s-.1-.1-.3-.1c-.4 0-.4.1-.4.1zm.3-.1c.2 0 .3.1.3.1v-.1s-.1-.1-.3-.1c-.2 0-.3 0-.3.1v.1c0-.1.1-.1.3-.1z"/><path class="st3" d="M8.3 3.5v-.1.1c.1 0 0 0 0 0zm.1-.1v.1-.1zm.1.1v-.1.1c.1 0 0 0 0 0zm.2 0v-.1.1zm-.3 0c.1 0 .1 0 0 0 .1 0 .1 0 0 0 .1-.1.1-.1 0 0zm.1-.1zm-.1.1v-.1.1c.1-.1.1-.1 0 0 .1-.1.1-.1 0 0 .1-.1.1-.1 0 0 .1-.1.1-.1 0 0 .1-.1.1-.1 0 0 .1 0 .1 0 0 0 .1 0 .1 0 0 0 .1 0 .1 0 0 0zm.2-.1s.1 0 0 0c.1 0 .1 0 0 0 .1 0 .1 0 0 0zm0 .1c.1-.1.1-.1 0 0 .1-.1.1-.1 0 0 .1-.1.1-.1 0 0 0-.1 0 0 0 0zm.2.1c0-.1 0-.1 0 0 .1-.1.1-.1 0 0 .1-.1.1-.1 0 0 0-.1 0-.1 0 0zm0 0c0-.1.1-.1 0 0 .1-.1.1-.1 0 0 .1-.1.1-.1 0 0 .1-.1.1-.1 0 0zm-.1-.1c.1 0 .1 0 0 0zm0 0zM8 3.4v-.1.1zm.1 0v-.1.1zm-.3-.1zm0 .1v-.1.1c0-.1 0-.1 0 0 0-.1 0-.1 0 0 0-.1 0-.1 0 0zm.1-.1zm0 .1v-.1.1zm.1-.1c.1 0 .1 0 0 0 .1 0 .1 0 0 0 .1 0 .1 0 0 0zm0 .1v-.2c.1.1.1.1 0 .2.1-.1.1-.1 0 0 .1-.1.1-.1 0 0 .1-.1.1-.1 0 0 .1-.1.1-.1 0 0 .1-.1.1-.1 0 0 .1-.1.1-.1 0 0 .1-.1.1-.1 0 0zm.2-.1zm-.1.1zm-.7.1v-.1.1zm.1-.1c0 .1 0 .1 0 0 0 .1 0 .1 0 0 0 .1 0 .1 0 0 0 .1 0 .1 0 0 0 .1 0 .1 0 0 0 .1 0 .1 0 0 0 .1 0 .1 0 0 0 .1 0 .1 0 0 0 .1 0 .1 0 0zm-.1 0c.1 0 .1 0 0 0 .1 0 .1 0 0 0 .1.1.1.1 0 0 .1.1 0 .1 0 0 0 .1 0 .1 0 0 0 .1 0 .1 0 0zm0 0c0 .1 0 .1 0 0 0 .1 0 .1 0 0 0 .1.1.1 0 0 .1.1.1 0 0 0 .1 0 .1 0 0 0zm-.1.1s0-.1 0 0c0-.1 0-.1 0 0zm0 0v-.1.1z"/><path class="st0" d="m7.3 3.7.1.1v1c0 .1.1.2.2.2h.2l.2.2s.1-.1.2-.1h.2c.1 0 .2-.1.2-.2v-1l.1-.1-1.4-.1z"/><path d="M8 5.2s-.1-.1-.2-.1h-.2c-.1 0-.2-.1-.2-.2v-1l-.1-.2h1.5l-.2.1v1s0 .1-.1.1l-.1.1h-.2l-.2.2zm.7-1.5H7.2l.1.1v1.1c0 .1.1.2.2.2h.2c.2 0 .3 0 .3.1 0-.1.1-.1.2-.1h.2s.1 0 .1-.1c0 0 0-.1.1-.1v-1l.1-.2z"/><path class="st2" d="M8.1 3.7v.6h.5v-.5l.1-.1h-.6z"/><path d="M8.6 4.3h-.5v-.6h.6l-.1.1v.5zm.1-.6h-.6v.6h.5v-.5l.1-.1z"/><path class="st1" d="M7.3 3.7h.6v.6h-.5v-.5l-.1-.1z"/><path d="M7.9 4.3h-.5v-.5l-.1-.1h.6v.6zm0-.6h-.6l.1.1v.5h.5v-.6z"/><path class="st2" d="M7.4 4.5h.5V5h-.3c-.1.1-.2 0-.2-.1v-.4z"/><path d="M7.9 5.1h-.3c-.1 0-.2-.1-.2-.2v-.4h.5v.6zm0-.6h-.5v.3c0 .1.1.2.2.2h.3v-.5z"/><path class="st1" d="M8.6 4.5h-.5V5h.3c.1 0 .2-.1.2-.2v-.3z"/><path d="M8.1 5.1v-.6h.5v.4c0 .1-.1.2-.2.2h-.3c.1 0 0 0 0 0zm.5-.6h-.5V5h.3c.1 0 .2-.1.2-.2v-.3z"/><path d="M8 5.2s-.1-.1-.2-.1h-.2c-.1 0-.2-.1-.2-.2v-1l-.1-.2h1.5l-.2.1v1s0 .1-.1.1l-.1.1h-.2l-.2.2zm.7-1.5H7.2l.1.1v1.1c0 .1.1.2.2.2h.2c.2 0 .3 0 .3.1 0-.1.1-.1.2-.1h.2s.1 0 .1-.1c0 0 0-.1.1-.1v-1l.1-.2z"/><path class="st3" d="M8 4.1v.2-.2z"/><path d="M8 4.2V4v.2zm0-.1v.2-.2z"/><path class="st4" d="m8 4.3-.3-.5.3.5z"/><path class="st3" d="M7.7 3.8z"/><path class="st2" d="M7.9 4.2v.2H8c0-.1-.1-.2-.1-.2z"/><path class="st0" d="M7.7 4v.2l.2.1v-.2L7.7 4z"/><path class="st1" d="M7.6 3.9v.3l.1.1v-.2l-.1-.2z"/><path d="M7.6 4.1v-.2.2z"/><path class="st4" d="m8 4.3-.4-.4.4.4z"/><path class="st3" d="M7.6 3.9z"/><path class="st0" d="M7.5 4v.7c0 .1.1.2.2.2h.2v-.6L7.5 4z"/><path d="M7.8 4.9c-.1 0-.2-.1-.2-.2V4l.4.3v.5c-.1 0-.2 0-.2.1zM7.5 4v.6c0 .1.1.2.2.2h.2v-.5c.1 0-.4-.3-.4-.3z"/><path class="st2" d="M7.5 4.5v.1c0 .1.1.2.2.2h.2c-.1 0-.3.1-.3-.3h-.1z"/><path class="st1" d="M7.7 4.1v.4h-.1V4c-.1 0 .1.1.1.1z"/><path class="st2" d="M7.8 4.2v.3H8v-.2l-.2-.1z"/><path class="st1" d="M8 4.6s-.1 0-.1-.1h-.1v.1h.1c0 .1.1.1.1 0z"/><path d="M7.8 4.9c-.1 0-.2-.1-.2-.2V4l.4.3v.5c-.1 0-.2 0-.2.1zM7.5 4v.6c0 .1.1.2.2.2h.2v-.5c.1 0-.4-.3-.4-.3z"/><path class="st4" d="M8 4.3 7.5 4l.5.3z"/><path class="st3" d="M7.5 4z"/><path class="st4" d="m8 4.3.3-.5c.1 0-.3.5-.3.5z"/><path class="st3" d="M8.4 3.8c-.1 0 0 0 0 0z"/><path class="st2" d="M8.2 4.1v.2h-.1s0-.1.1-.2c-.1.1 0 .1 0 0z"/><path class="st0" d="M8.3 4v.2l-.2.1v-.2l.2-.1z"/><path class="st1" d="M8.4 3.9v.3l-.1.1v-.2c0-.1.1-.2.1-.2z"/><path d="M8.4 4.1v-.2.2z"/><path class="st4" d="m8 4.3.4-.4-.4.4z"/><path class="st3" d="M8.4 3.9z"/><path class="st0" d="M8.5 4v.7c0 .1-.1.2-.2.2h-.2v-.6c-.1 0 .4-.3.4-.3z"/><path d="M8.3 4.8h-.2v-.5l.4-.3v.7c0 .1-.1.1-.2.1zm-.3 0h.2c.1 0 .2-.1.2-.2V4l-.4.3v.5z"/><path class="st2" d="M8.5 4.5v.1c0 .1-.1.2-.2.2h-.2c.1 0 .3.1.3-.3h.1z"/><path class="st1" d="M8.3 4.1v.4h.1V4l-.1.1z"/><path class="st2" d="M8.2 4.2v.3H8v-.2l.2-.1z"/><path class="st1" d="M8 4.6s.1 0 .1-.1h.1v.1h-.1c0 .1 0 .1-.1 0z"/><path d="M8.3 4.8h-.2v-.5l.4-.3v.7c0 .1-.1.1-.2.1zm-.3 0h.2c.1 0 .2-.1.2-.2V4l-.4.3v.5z"/><path class="st4" d="m8 4.3.4-.4-.4.4z"/><path class="st3" d="M8.5 4c0-.1 0 0 0 0z"/><path class="st2" d="M8.1 4.8c.1 0 0-.1 0 0v-.3c0-.1 0 0 0 0v.3z"/><path d="M8.1 4.8 8 4.5v.2c.1.1.2.1.1.1zM8 4.5v.3-.2c.1 0 .1 0 0-.1.1 0 0 0 0 0z"/><path class="st2" d="M8 4.9c.1 0 .1-.1 0-.2.1 0 0-.2 0-.2v.4z"/><path d="M8.1 4.9 8 4.5s.1.2.1.3v.1zM8 4.5v.4h.1v-.2L8 4.5z"/><path class="st0" d="M8 4.5s-.1.2-.1.3c0 .1.1.2.1.2v.1s.1-.1.1-.2v-.3c0-.1.1-.2.1-.2l-.2.1z"/><path d="M8 5.1 7.9 5s-.1-.1-.1-.2.1-.2.1-.3l.1-.1v.5c.1.1 0 .1 0 .2zm.1-.7-.1.1c-.1.1-.1.2-.1.2 0 .1 0 .1.1.2V5s0-.1.1-.1v-.5z"/><path class="st1" d="M8 4.5s-.1.2-.1.3c0 .1.1.2.1.2v-.2c-.1-.2 0-.3 0-.3.1-.1 0 0 0 0z"/><path class="st2" d="M8 4.4v.7s.1-.1.1-.2v-.3c0-.1 0-.2-.1-.2z"/><path d="M8 5.1 7.9 5s-.1-.1-.1-.2.1-.2.1-.3l.1-.1v.5c.1.1 0 .1 0 .2zm.1-.7-.1.1c-.1.1-.1.2-.1.2 0 .1 0 .1.1.2V5s0-.1.1-.1v-.5z"/><path class="st2" d="M8 4.4c-.1 0 0 .1 0 0 0 .1 0 .1 0 0l.1.1v-.1H8z"/><path d="M8.1 4.5s-.1 0 0 0H8v-.1h.1v.1zm-.1 0s.1 0 0 0c.1 0 .1 0 0 0 .1 0 .1 0 0 0 .1-.1 0-.1 0 0 0-.1 0 0 0 0z"/><path d="m7.9 4.3.1.2H8.3c-.1-.1-.4-.3-.4-.2z"/><path d="m8 4.5-.1-.2.3.1H8v.1c0-.1 0-.1 0 0zm-.1-.2.1.2h.4c-.3-.1-.4-.2-.5-.2z"/><path class="st0" d="m7.9 4.3.1.2H8.3l-.2-.3H8l-.1.1c0-.1 0-.1 0 0z"/><path d="m8 4.5-.1-.2h.2l.1.2H8c0-.1 0-.1 0 0 0-.1 0-.1 0 0zm.1-.3c-.1 0-.1 0 0 0H8v.2h.4l-.3-.2z"/><path class="st5" d="M8.1 4.4 8 4.2l.1.2zM7.9 4.3H8c0-.1-.1-.1-.1 0zm0 0H8h-.1zm0 0H8h-.1zm0 0H8h-.1zm0 .1H8c0-.1 0 0-.1 0zm0 0c.1 0 .1 0 0 0 .1 0 .1 0 0 0zm.1 0h.1H8zM8 4.2s.1 0 0 0c.1 0 0 0 0 0zm0 .1h.1c0-.1-.1-.1-.1 0zm0 0s.1-.1 0 0c.1 0 0 0 0 0zm0 0c.1 0 .1 0 0 0 .1 0 .1 0 0 0zm0 0c.1 0 .1 0 0 0 .1 0 .1 0 0 0zm.1.1c0-.1 0-.1 0 0 0-.1 0-.1 0 0zm0 0s0-.1 0 0z"/><path d="m8 4.5-.1-.2h.2l.1.2H8c0-.1 0-.1 0 0 0-.1 0-.1 0 0zm.1-.3c-.1 0-.1 0 0 0H8v.2h.4l-.3-.2z"/><path class="st6" d="M7.7 5.6c.1 0 .1-.1.2-.1s.1-.1.2-.2.1 0 .1-.1V4.9 5h.2v.1l.1-.1v.1V5s0 .1 0 0v-.1.1-.3h.1v-.1.2-.2l.1.1c0-.1 0-.1-.1-.2 0 0-.1.1 0 .1 0 0 0-.1.1-.1v.1-.2.1V4.2v.1l-.1-.1h-.1s0-.1.1-.1V4l.1.1s0-.1-.1-.2v-.1.2-.1l.3.1v-.1L9 4v-.1.2V4h.1v.1c0-.1-.1 0-.1 0l.1-.1.1.1h-.1l-.1.1.1-.1v.1l.1-.1-.2.2h.1H9h.2-.1l-.1.1.1-.1v.1l.1-.1-.2.2.1-.1.1.1h-.1s-.2.2-.1.2l.1-.1s.1.1 0 .1H9v.1H9.3s-.1 0-.1.1h-.1.1s-.1 0-.2.1h-.1.2L9 4.9h.1L9 5h.2H9h.1H9l.1.1H9l.1.1h-.2v.1h-.1v.1h-.1v.1-.1h-.1s.1 0 .1.1h-.1.1H8l-.1.1c-.1 0-.1.1-.2 0z"/><path class="st7" d="M7.8 5.7c0-.1.1-.1.1-.2.1 0 .1-.1.1-.1l.1-.1h.1l.1-.1V5h.1v.1V5v.1V5v.1-.2.1-.3h.1v-.1s0 .1.1.1v-.2s.1 0 .1.1c0 0 0-.1-.1-.1v-.1.1s0-.1-.1-.1v.1l.1.2-.1-.1v.2l-.1-.2v.1h-.1V5v-.1.2V5v.1V5v.1-.2.1s0 .1-.1.1h-.1l-.1.3-.1.1c0 .1-.1.1-.1.2.1 0 .1-.1.1-.1H8l.1-.1.1-.1H8.8h-.1.2v-.1H9h-.1.1-.1.1l-.1-.1H9v-.1h.1H9h.1L9 5h.1H9h.1H9h.1-.2.1l.2-.1h-.1.1S9.1 5 9 5h.2H9 9.3h-.2l-.1.1h.1H9l.1.1H8.8h.1l.1.1h-.1v.1h-.2.1H8.2l-.1.1-.1.1h-.1l-.1.1zm1.3-.9s.1 0 0 0l.1-.1-.1.1H9l.1-.1v-.1H9l.1-.2h.1l-.1-.1s-.1 0-.1.1l.1-.1v.1-.1l.1-.1h.1-.1v-.1h-.1V4c-.1.2-.1.3-.1.3l.1-.2S9.1 4 9 4h-.1v-.2l.1.3v-.2.1-.1.1l-.2-.1V4.2l-.1-.1v.1l.1.1-.1-.1h-.1s0-.1.1-.1V4l.1.1V3.8l.1.2v-.1L9 4v-.1.1-.1h.1v.2h.1l.1.1c-.3-.1-.3 0-.3 0l.1-.1v.1l.1-.1-.1.1h.1l-.1.1h.2-.1s0 .1-.1.1l.1-.1v.1l.1-.1-.2.2.1-.1.1.1h-.1l-.1.1h.1s0 .1-.1.2c.1-.1.1-.1 0 0v-.1.1c-.1-.1 0-.1 0 0 0-.1 0-.1 0 0 .1-.1.1-.1 0 0l.2-.1s-.1 0-.2.1c.1 0 0 0 0 0zm-.4-.3v-.2.2-.4.1-.1.4-.2.2z"/><path class="st7" d="M8.2 5.3c.1-.1.1-.1 0 0l.1-.1c0-.1 0-.1-.1.1.1-.1 0-.1 0 0zm.1 0 .1-.1c0-.1-.1 0-.1.1zm.1-.1c0-.1 0 0 0 0zm0 .1c.1-.1.1-.2.1-.2s0 .1-.1.2zM8.5 5.3V5c.1 0 .1.2 0 .3z"/><path class="st7" d="M8.5 5.3c.1-.1.1-.3.1-.3 0 .1 0 .2-.1.3zm.1-.2v-.2.2zm.1 0c0-.1-.1-.2-.1-.2s.1.1.1.2z"/><path class="st7" d="M8.7 5.1c0-.3-.1-.3-.1-.3 0-.1.1 0 .1.3zm0-.1v-.2.2zm.1-.1c0-.1 0-.2-.1-.2 0 0 .1.1.1.2zm0 .2.2-.2-.2.2zm-.1.1C8.9 5 9 5 9 5s-.1 0-.3.2zM9 5.1h-.2.2zm-.1.1h-.1.1zm-.1-.4c.2-.2.2-.3.2-.3 0 .1 0 .1-.2.3zm0 0c.1-.1.2-.1.2-.1l-.2.1zm0 .1.2-.2c0 .1-.1.1-.2.2zm0 0c.2-.1.3-.1.3-.1s-.1 0-.3.1zm0 .1c0-.1.1-.1.2-.1-.1 0-.2 0-.2.1zm.1-.7c0-.1 0-.2-.1-.3.1 0 .1.1.1.3zm0 0v-.1c0-.1 0-.1-.1-.2 0 .1.1.1.1.2v.1zm.1-.2V4v.1z"/><path class="st7" d="M9 4.2V4v.2zm-.1.2v-.1c.1 0 .1-.1.1-.2 0 .1 0 .2-.1.3zm0 .1c.1-.2.1-.2.2-.2 0 0-.1 0-.2.2zm0 .1c.1-.2.2-.3.2-.3s-.1.1-.2.3zm0 .1c.1-.2.2-.3.2-.3s-.1.1-.2.3zm-.1.1c0-.1 0-.2-.1-.3 0 0 .1.1.1.3zm0-.1s0-.2-.1-.3c.1.1.1.3.1.3zm0-.1s0-.1-.1-.3c.2.2.1.3.1.3z"/><path class="st7" d="M8.9 4.7s0-.2-.1-.4c.1.2.1.4.1.4z"/><path class="st7" d="M8.9 4.5s0-.1-.1-.2c.1.1.1.2.1.2zm0-.1s0-.1-.2-.3c.2.2.2.3.2.3zm-.2.7s0-.1 0 0V5v.1-.2c.1.1.1.1 0 .2.1-.1 0 0 0 0zm.1.2s-.1-.1-.3 0c.2-.1.2-.1.3 0zm-.1 0h-.2.2c.1 0 .1 0 0 0zm.2-.1s-.2-.1-.3-.1c.1.1.3.1.3.1z"/><path d="M8.3 5.2v-.1.1z" style="fill:#1a4204"/><path class="st6" d="M8.2 5.7c-.2-.1-.4-.4-.4-.4l-.5.1v-.1l.1-.1h-.1s0 .1-.1.1H7v-.1.1-.1l.1-.1H7.4V5s0 .1-.1.1h-.2V4.8H7h.2v-.1s-.1 0-.2-.1c0 0 0-.1-.1-.1H7v-.2.1-.1.4V4.4l-.1-.1v-.1h-.1l-.1-.1V3.8c.3.2.3.1.3.1V4l.1-.1v.2s-.1 0-.1.1V4.5s0-.1-.1-.1v-.1H7v-.2.1h.1V4.5l-.1.1v.1l.1-.1v.1h.1v.1s-.1 0-.1.1L7 5v.1V5l.1-.1V5h.2s-.1 0-.1.1v.1l-.1.1v-.1V5.5s0 .1.1.1c0 0-.1-.1 0-.1v-.1.2-.1.1s0 .1-.1.1h.1-.1.1v-.2h.1v-.1l.1.1v-.1V5.7l.1.1s.1.2.2.2c.5-.4.5-.4.5-.3z"/><path class="st7" d="m8.2 5.7-.3-.3-.1-.1h-.5v-.1l.1-.1h-.1l-.1.1H6.9v-.1h-.1.1v.1h.2l.1-.1h.1-.1v.1h.5s.1 0 .1.1l.4.4c0-.1 0-.1-.1-.1 0-.1-.1-.2-.2-.2l-.1-.1V5v.1h-.1v.1h-.1.1-.1l.1-.1V5v.1-.2.2s-.1 0-.1-.1V4.7l.1-.1v-.1l.1-.1h-.2v-.1s0 .1-.1.1v.1-.1l.1-.1h.1v-.1h-.1v-.1l-.4.3v-.1l.1-.1V4h-.1v-.1.2h-.1v.1V3.9l.1-.1v-.2L7 4c0-.1 0 0 0 0v.4h.1v.1l.1.1v.2s0-.1-.1-.1V4.4h-.2v.2h-.1v.1H7v.1h-.2.1V5h.2v.1h-.4l.1-.1H7.1l-.1.1h-.2V4.8H7.1v-.1h-.2v-.1H7v-.2.5-.4s-.1 0-.1-.1v-.1h-.1l-.1-.1V4s0-.1-.1-.1c.3.1.4 0 .4 0V4l.1-.1V4H7V4.3v-.1h.1V4v.1h.1V4.4l-.1.1v.1l.1-.1v.2s0 .1-.1.1v-.1l.1-.1v.1h.2l-.1.1v.1l-.1-.1v.1-.1.2-.1.1s0 .1-.1.1h.1-.1.1v-.2H7.5v-.1s0 .1.1.1v.2l.1.1c.3.2.3.3.4.3h.1v.2zM7.3 5c0 .1 0 .1 0 0v.1V5zm-.1-.1s0 .1 0 0z"/><path class="st7" d="M6.9 5.1c0-.1.1-.1 0 0 .1-.1.1-.1 0 0 .1-.1.2-.1.2-.1s-.1 0-.2.1c.1-.1.1-.1 0 0 .1-.1 0-.1 0 0z"/><path class="st7" d="M7 5.1s.1-.1 0 0c.1-.1.1-.1.1-.2 0 0-.1 0-.1.1.1 0 .1.1 0 .1zm0 0s.1 0 0 0c.1 0 .1-.1.1-.1 0 .1 0 .1-.1.1zm0 .1h.2H7zm.1.1c.1 0 .1-.1.1-.1.1 0 0 .1-.1.1z"/><path class="st7" d="M7.3 5.2h-.2c.1.1.3 0 .3 0h-.1zm.1-.1v-.2.2zm0 0c.1 0 .1-.1 0 0 .1-.1.1 0 0 0zm.3.1-.1-.1.1.1zm.1 0c-.1 0-.1-.1 0 0-.1-.1-.1-.1 0 0zm0 0v-.1.1zm-.9-.5s0-.1 0 0c0-.1 0-.1 0 0 0-.1-.1-.1-.1-.2 0 0 .1 0 .1.1v.1c0-.1 0 0 0 0zm.1.1s0-.1 0 0c0-.1-.1-.1-.1-.1s0-.1-.1-.1c.1 0 .1.1.1.1.1 0 .1 0 .1.1 0-.1 0-.1 0 0 0-.1 0 0 0 0zM6.9 4.5zm.1.1v-.1c-.1.1 0 .1 0 .1zm0 0v-.1.1zm.2.2c0-.1 0-.1.1-.1-.1 0-.1.1-.1.1zm0 .1c0-.1.1-.1.1-.1-.1 0-.1 0-.1.1z"/><path class="st7" d="M7.2 4.8c.1 0 .1-.1.1-.1.1 0 0 .1-.1.1zm-.3.2c.1 0 .1 0 0 0H7.2 6.9c.1 0 .1 0 0 0zm.1-.1h-.1.1zm.1 0zm.1.3h-.1c.1-.1.1-.1.1 0zm0-.5c0-.1.1-.1.1-.2 0 0-.1.1-.1.2zm.1-.1.1-.1s-.1 0-.1.1zm-.1 0c0-.1 0-.1 0 0v-.2l.1-.1v-.2V4.4l-.1.1v.1c0-.1 0-.1 0 0z"/><path class="st7" d="M7.2 4.5v-.1s.1-.1.1-.2c0 .1 0 .2-.1.2v.1zm-.1-.1L7 4.3c0 .1.1.1.1.1zm0 0c-.1 0-.1-.1 0 0L7 4.3l.1.1c-.1-.1-.1-.1 0 0zm0-.1c-.1 0-.1 0 0 0-.1-.1-.2-.1-.2-.1.1 0 .1 0 .2.1-.1 0-.1 0 0 0zm.1 0v-.1.1zM7.2 4.3v-.1.1zm0 0c-.1 0-.1-.1 0 0-.1-.1-.1-.1 0 0v-.1c-.1 0-.1 0 0 .1-.1-.1 0-.1 0 0 0-.1 0 0 0 0zM7 4.2V4v.1c.1 0 0 0 0 .1z"/><path class="st7" d="M7.1 4.1s0-.1 0 0c0-.1 0 0 0 0zm0 .1s0-.1.1-.1h.1-.1c-.1 0-.1 0-.1.1zm0-.2v-.1.1zm.1.6v-.2c.1 0 .1.1 0 .2z"/><path class="st9" d="M7 4.2z"/><path class="st7" d="M7 4.2z"/><path class="st9" d="M7.1 4.2c-.1 0-.1 0 0 0-.1.1-.1.1 0 0 0 .1 0 .1 0 0z"/><path class="st7" d="M7.1 4.3c-.1 0-.1 0 0 0-.1-.1-.1-.1 0 0-.1-.1 0-.1 0 0z"/><path class="st9" d="M7.2 4.4c-.1 0-.1 0 0 0-.1.1-.1.1 0 0 0 .1 0 .1 0 0z"/><path class="st7" d="M7.2 4.5c-.1 0-.1 0 0 0-.1-.1 0-.1 0 0z"/><path class="st9" d="M7.2 4.5s0-.1 0 0c0-.1 0 0 0 0z"/><path class="st7" d="M7.2 4.5c0-.1 0-.1 0 0z"/><path class="st9" d="M7 4.8s0-.1 0 0c0-.1 0 0 0 0z"/><path class="st7" d="M7 4.8c0-.1.1-.1 0 0z"/><path class="st9" d="M7.2 4.8c-.1 0-.1 0 0 0-.1.1-.1.1 0 0 0 .1 0 .1 0 0z"/><path class="st7" d="M7.1 4.9c0-.1.1-.1 0 0 .1 0 .1 0 0 0z"/><path class="st9" d="M7.2 5.1z"/><path class="st7" d="M7.2 5.1c0-.1 0-.1 0 0z"/><path class="st9" d="M7.4 5.2c0-.1 0-.1 0 0-.1-.1-.1-.1 0 0-.1 0-.1 0 0 0z"/><path class="st7" d="M7.3 5.2c0-.1.1-.1 0 0 .1 0 .1 0 0 0z"/><path class="st9" d="M7.4 5.2c0-.1 0-.1 0 0 0-.1 0-.1 0 0z"/><path class="st7" d="M7.4 5.2c0-.1 0-.1 0 0z"/><path class="st9" d="M7.7 5.2s-.1 0 0 0c-.1 0-.1 0 0 0-.1 0-.1 0 0 0-.1 0-.1 0 0 0z"/><path class="st7" d="M7.6 5.2s.1 0 0 0c.1 0 0 0 0 0z"/><path class="st2" d="M9.1 5.6c-.1-.1-.2-.1-.2-.1s-.1-.1-.1 0l-.1.1h.4z"/><path d="M9 5.7s-.1-.1 0 0l-.1-.1h-.1s-.1 0-.1-.1c0 0 0-.1.1-.1H9s.1 0 .2.1l-.2.2zm-.2-.2c-.1 0-.1.1-.1.1h.4l.1-.1h-.4c.1 0 0 0 0 0z"/><path class="st2" d="M8.9 5.6c0-.1-.1-.1 0 0h-.3s-.1 0-.1-.1l.1-.1H8.9v.2c0-.1 0 0 0 0z"/><path d="M8.6 5.6s-.1 0 0 0c-.1 0-.1-.1-.1-.1l.1-.1H9s0 .1-.1.1v-.1h-.1c-.1.1-.1.2-.2.2zm0-.2s-.1 0-.1.1l.1-.1v.1h.2s.1 0 .1.1v-.1h-.1c0-.1-.1 0-.2-.1z"/><path d="M8.8 5.6h-.1s0-.1.1 0c-.1-.1-.1-.1 0 0 .1 0 .1-.1 0 0 .1 0 .1 0 0 0zm-1.9 0c0-.1 0-.1 0 0 0-.1 0 0 0 0zM6.9 5.6zm0 0c.1 0 0 0 0 0zm0 .1c0-.1.1-.1 0 0 .1-.1 0-.1 0 0zM6.9 5.7c.1-.1.1-.1 0 0 .1-.1.1-.1 0 0zM6.9 5.7c.1-.1.1-.1 0 0 .1-.1.1-.1 0 0zm.1 0c0-.1 0-.1 0 0 0-.1 0 0 0 0zM7 5.7s0-.1 0 0zM7 5.7z"/><path class="st2" d="M6.9 5.6c.1-.1.2-.1.2-.1s.1-.1.1 0l.1.1h-.4z"/><path d="m7 5.7-.1-.1s.1-.1.2-.1c0 0 .1-.1.1 0l.1.1-.1.1H7c.1-.1 0 0 0 0zm.1-.2s-.1 0-.1.1l.1.1h.4s0-.1-.1-.1c-.2-.1-.3-.1-.3-.1z"/><path class="st2" d="M7.1 5.6c0-.1.1-.1 0 0h.3s.1 0 .1-.1l-.1-.1H7.1c-.1 0 0 0 0 .2 0-.1 0 0 0 0z"/><path d="M7.4 5.6H7.1L7 5.5h.4s.1 0 .1.1c0-.1-.1 0-.1 0zm-.2-.1c.1 0 .2.1.2.1s.1 0 .1-.1c0 0-.1 0-.1-.1h-.1s-.1 0-.1.1c-.1-.1-.1-.1 0 0-.1-.1-.1-.1 0 0-.1 0-.1 0 0 0-.1 0 0 0 0 0zM7.2 5.6c-.1 0-.1 0 0 0-.1 0 0 0 0 0 .1 0 .1 0 0 0h.1-.1c.1 0 .1 0 0 0z"/><path class="st2" d="M8 5.2c-.5 0-.7.1-.7.2s.1.1.1.1.1 0 .1-.1h1.1s.1 0 .1-.1c0 0-.2-.1-.7-.1z"/><path d="M7.4 5.5s-.1 0 0 0c-.1 0-.1-.1-.1-.1 0-.1.2-.2.7-.2.4 0 .6.1.7.1 0 .1-.1.1-.1.1H7.5c0 .1-.1.1-.1.1zm.5-.3c-.5 0-.6.1-.6.2v.1h.1s.1 0 .1-.1c0 0 .2-.1.5-.1s.5 0 .5.1h.1s.1 0 .1-.1c0 0-.1 0-.8-.1.1 0 0 0 0 0z"/><path class="st3" d="M7.4 5.4v-.1.1c.1 0 0 0 0 0zm.2-.1c0 .1 0 .1 0 0 0 .1 0 .1 0 0 0 .1 0 .1 0 0 0 .1 0 .1 0 0 0 .1 0 0 0 0 0 .1 0 .1 0 0 0 .1 0 .1 0 0zm.1.1zm.1-.1zm.1 0s0 .1 0 0c0 .1-.1.1 0 0-.1.1-.1.1 0 0-.1.1-.1.1 0 0-.1 0-.1 0 0 0-.1 0-.1 0 0 0-.1 0-.1 0 0 0-.1 0-.1 0 0 0-.1 0-.1 0 0 0 0 0-.1 0 0 0-.1 0-.1 0 0 0-.1 0-.1 0 0 0-.1 0-.1 0 0 0-.1.1-.1.1 0 0-.1.1-.1.1 0 0-.1.1-.1.1 0 0zm.2.1c.1-.1.1-.1 0 0 .1-.1.1-.1 0 0zm.2-.1zm0 .1zm.1-.1zm0 0c0 .1 0 .1 0 0 0 .1 0 .1 0 0 0 .1 0 .1 0 0 0 .1 0 .1 0 0 0 .1 0 .1 0 0 0 .1 0 .1 0 0 0 .1 0 .1 0 0 0 .1 0 .1 0 0zm.1.1zm-1.1 0c0-.1 0-.1 0 0 0-.1 0-.1 0 0 0-.1 0-.1 0 0zm0 0c0-.1 0-.1 0 0 0-.1 0 0 0 0zm.1 0c0-.1 0-.1 0 0 .1-.1.1-.1 0 0 .1-.1.1-.1 0 0 .1-.1 0-.1 0 0zm0-.1zm.2.1c0-.1 0-.1 0 0 0-.1 0-.1 0 0 0-.1 0-.1 0 0zm0-.1zm0 .1c0-.1 0-.1 0 0 0-.1 0-.1 0 0-.1 0 0 0 0 0zm.2 0zm0-.1zm.1.1c0-.1 0-.1 0 0 .1-.1.1-.1 0 0 .1-.1.1-.1 0 0 .1-.1.1-.1 0 0zm0-.1s.1 0 0 0c.1 0 .1 0 0 0zm.1 0c0 .1 0 .1 0 0 0 .1 0 0 0 0zm0 0zm.3.1zm.1-.1zm.1.1zm0 0z"/><path class="st2" d="M8.2 5.5h-.1v.1c0-.1.1-.1.1-.1 0 .1 0 .1 0 0 0 .1.1 0 0 0z"/><path d="M8.2 5.6h-.1v-.1s.1 0 .1.1c.1-.1 0 0 0 0zm-.1-.1c.1 0 .1 0 0 0 .1 0 0 0 0 0z"/><path class="st2" d="M7.8 5.5h.1v.1c0-.1-.1-.1-.1-.1s0 .1 0 0z"/><path d="m7.8 5.6.1-.1v.1c0-.1-.1-.1-.1 0 0-.1 0 0 0 0zm0-.1s.1 0 0 0c.1 0 .1 0 0 0z"/><path class="st2" d="M8 5.5c0 .1 0 .1 0 0 0 .1 0 0 0 0z"/><path d="M8 5.6v-.1h.1l-.1.1zm0 0c0-.1 0-.1 0 0 0-.1 0-.1 0 0z"/><path class="st2" d="M8 5.6h.1v-.1l-.1.1z"/><path d="M8.1 5.6s-.1 0 0 0c.1-.1.1-.1 0 0 .1 0 0 0 0 0zm.1-.1H8c.1.1.1.1.2 0z"/><path class="st2" d="M8 5.5c.1 0 .1-.1 0 0h.1v.1c.1-.1 0-.1-.1-.1.1 0 .1 0 0 0 .1 0 0 0 0 0z"/><path d="M8 5.6c0-.1 0-.1.1-.1h.1v.1c-.1-.1-.1-.1-.2 0 .1-.1.1-.1 0 0zm.1-.1s.1 0 0 0c.1 0 0 0 0 0z"/><path class="st2" d="M8 5.6h-.1v-.1l.1.1z"/><path d="M7.9 5.6s-.1 0 0 0zm-.1-.1s.1.1.1 0h-.1z"/><path class="st2" d="M8 5.5c-.1 0-.1-.1 0 0h-.1v.1c-.1-.1 0-.1.1-.1-.1 0-.1 0 0 0z"/><path d="M8 5.6c-.1-.1-.1-.1 0 0h-.1v-.1H8v.1zm-.1-.1s-.1 0 0 0z"/></svg>