<svg width="27" height="24" viewBox="0 0 27 24" fill="none" xmlns="http://www.w3.org/2000/svg">
<path fill-rule="evenodd" clip-rule="evenodd" d="M24.3651 6.79573C24.5405 7.00804 24.6115 7.28773 24.5599 7.55727L23.0829 15.3019L23.082 15.3093L22.1829 15.1311L22.1765 15.1302L23.082 15.3093C22.9555 15.9462 22.6085 16.5194 22.1017 16.9265L21.3014 15.9323L21.5229 16.2083L22.1017 16.9265V16.9274C21.6005 17.3299 20.9746 17.5459 20.3303 17.5367V17.5385H11.358V17.5367C10.7137 17.5459 10.0879 17.3299 9.58662 16.9274L10.7442 15.4883C10.9122 15.625 11.1235 15.697 11.3405 15.6923H11.358H20.3303H20.3479C20.5639 15.697 20.7762 15.625 20.9442 15.4883C21.1131 15.3527 21.2285 15.1625 21.2709 14.9493L22.5374 8.30773H9.08816L10.4165 14.9474L10.4174 14.9493L9.54693 15.1228L9.51185 15.1302L10.4174 14.9493C10.4599 15.1625 10.5752 15.3527 10.7442 15.4883L10.3869 15.9323L9.58662 16.9274C9.07985 16.5194 8.7337 15.9471 8.60632 15.3102L6.28108 3.69235H3.3457C2.83524 3.69235 2.42262 3.27973 2.42262 2.76927C2.42262 2.25881 2.83524 1.84619 3.3457 1.84619H7.03801C7.47831 1.84619 7.85678 2.15635 7.94262 2.58835L8.71801 6.46158H23.6534C23.9285 6.46158 24.1888 6.58435 24.3651 6.79573ZM10.7307 18.4616C9.71161 18.4616 8.88454 19.2887 8.88454 20.3077C8.88454 21.3268 9.71161 22.1539 10.7307 22.1539C11.7498 22.1539 12.5768 21.3268 12.5768 20.3077C12.5768 19.2887 11.7498 18.4616 10.7307 18.4616ZM20.884 18.4616C19.8649 18.4616 19.0379 19.2887 19.0379 20.3077C19.0379 21.3268 19.8649 22.1539 20.884 22.1539C21.9031 22.1539 22.7302 21.3268 22.7302 20.3077C22.7302 19.2887 21.9031 18.4616 20.884 18.4616Z" fill="white"/>
</svg>
