<svg width="18" height="19" viewBox="0 0 18 19" fill="none" xmlns="http://www.w3.org/2000/svg">
<path d="M16.46 5.61534C16.3257 11.4407 12.4318 15.4931 6.52376 15.7464C4.10683 15.873 2.36128 15.1132 0.75 14.2267C2.49555 14.4801 4.7782 13.8469 5.98666 12.8337C4.24111 12.7071 3.16692 11.8206 2.62983 10.4276C3.16692 10.5542 3.70402 10.4276 4.10684 10.4276C2.49555 9.92104 1.42137 9.03457 1.28709 7.00836C1.68991 7.26164 2.22701 7.38828 2.7641 7.38828C1.55564 6.75509 0.75 4.34896 1.68991 2.8293C3.43547 4.60224 5.58384 6.1219 9.07495 6.37517C8.13504 2.8293 13.2375 0.929732 15.2516 3.33586C16.1915 3.20922 16.8629 2.8293 17.5342 2.57603C17.2657 3.4625 16.7286 3.96905 16.0572 4.4756C16.7286 4.34896 17.4 4.22232 17.937 3.96905C17.8027 4.60224 17.1314 5.10879 16.46 5.61534Z" fill="#2D2D2D"/>
</svg>
