<svg width="16" height="10" viewBox="0 0 16 10" fill="none" xmlns="http://www.w3.org/2000/svg">
<path d="M16 0H0V9.33492H16V0Z" fill="white"/>
<path d="M0 8.29521H16V7.25587H0V8.29521ZM0 6.22131H16V5.18197H0V6.22131ZM5.18713 4.14741H16V3.11284H5.18713V4.14741ZM5.18713 2.07351H16V1.03418H5.18713V2.07351Z" fill="#3E73B7"/>
<path fill-rule="evenodd" clip-rule="evenodd" d="M2.59846 2.59863L2.64614 3.36621C1.94054 3.87634 2.37439 4.1767 1.86426 4.34357C2.21229 4.0003 1.75937 4.0003 2.15031 3.21365" fill="#EAC126"/>
<path d="M2.61701 2.59863L2.65992 3.36621H2.63132L2.57411 2.59863H2.61701ZM2.65992 3.36621V3.38052L2.64562 3.36621H2.65992ZM2.65992 3.38052C2.28328 3.65227 2.24038 3.86204 2.1927 4.00984H2.14502C2.1927 3.84297 2.24991 3.6189 2.62655 3.34714L2.65992 3.38052ZM2.1927 4.0146C2.14502 4.18147 2.11642 4.28636 1.87804 4.35787L1.86374 4.32926C2.08781 4.25298 2.12119 4.1481 2.14979 4.0146H2.1927ZM1.87804 4.35787L1.80176 4.38648L1.84943 4.34357H1.86374L1.87804 4.35787ZM1.84943 4.34357C2.002 4.1767 2.002 4.08612 1.96862 3.96693H2.0163C2.0306 4.08612 2.0449 4.191 1.88281 4.35787L1.84943 4.34357ZM1.96862 3.96693C1.95432 3.81437 1.92572 3.62366 2.13549 3.21365L2.16409 3.22795C1.96862 3.6332 1.98293 3.81437 2.01153 3.96216H1.96862V3.96693Z" fill="#292C2F"/>
<path d="M2.3602 3.18422C2.17903 3.49888 2.13612 3.74203 2.12182 3.9375L2.07892 3.9232C2.10752 3.74203 2.1552 3.48458 2.33637 3.16992L2.3602 3.18422ZM2.12182 3.9375C2.09322 4.13297 2.05984 4.28077 1.88344 4.35705L1.86914 4.32844C2.03601 4.25216 2.05031 4.11867 2.07892 3.9232L2.12182 3.9375Z" fill="#292C2F"/>
<path fill-rule="evenodd" clip-rule="evenodd" d="M2.59811 2.5981L2.53613 1.81622C3.24173 1.30609 2.80788 1.00573 3.31802 0.838867C2.98429 1.2012 3.4229 1.2012 3.03196 1.96402" fill="#EAC126"/>
<path d="M2.56927 2.59839L2.52637 1.83081L2.55497 1.81651L2.61695 2.59839H2.56927ZM2.52637 1.83558V1.81651H2.54067L2.52637 1.83558ZM2.52637 1.81651C2.90301 1.54475 2.96021 1.33498 2.98882 1.17288L3.0365 1.18719C2.98882 1.35405 2.93161 1.56382 2.55497 1.83558L2.52637 1.81651ZM2.98882 1.17288C3.0365 1.02032 3.0651 0.901131 3.30348 0.82485L3.31778 0.853455C3.09371 0.929736 3.06034 1.03462 3.03173 1.18242L2.98882 1.17288ZM3.30825 0.82485L3.38453 0.810547L3.33685 0.853455L3.32255 0.839152L3.30825 0.82485ZM3.33685 0.858223C3.18429 1.02509 3.18429 1.0966 3.21766 1.22056L3.16999 1.23486C3.15569 1.10137 3.14138 1.01079 3.30348 0.829617L3.33685 0.858223ZM3.21766 1.21579C3.23197 1.36359 3.26057 1.55906 3.0508 1.98337L3.02219 1.96907C3.21766 1.56382 3.20336 1.36835 3.17476 1.23486L3.21766 1.21579Z" fill="#292C2F"/>
<path d="M2.82715 1.99814C3.00832 1.68348 3.05123 1.44033 3.0846 1.26393H3.1132C3.0846 1.4594 3.03692 1.70255 2.85575 2.01721L2.82715 1.99814ZM3.07983 1.26393C3.10844 1.05415 3.12274 0.920662 3.30391 0.830078L3.31821 0.858684C3.15134 0.934965 3.13704 1.06846 3.10843 1.26393H3.07983Z" fill="#292C2F"/>
<path fill-rule="evenodd" clip-rule="evenodd" d="M2.5981 2.59835L1.81622 2.64126C1.30609 1.93566 1.00573 2.36951 0.838867 1.85938C1.2012 2.20741 1.18213 1.76879 1.96402 2.14543" fill="#EAC126"/>
<path d="M2.59804 2.61259L1.81616 2.67457V2.63166L2.58374 2.58399L2.59804 2.61259ZM1.81616 2.67457L1.80186 2.66027L1.81616 2.64597V2.67457ZM1.80186 2.66027C1.54441 2.28363 1.33464 2.24072 1.17254 2.19305V2.16444C1.35371 2.21212 1.56348 2.25502 1.83523 2.64597L1.80186 2.66027ZM1.17254 2.19305C1.01998 2.15014 0.900788 2.11676 0.824506 1.87838L0.853111 1.86408C0.929392 2.08816 1.03428 2.12153 1.16777 2.16444V2.19305H1.17254ZM0.824506 1.87838L0.795898 1.81641L0.853111 1.85931H0.838809L0.824506 1.87838ZM0.857879 1.86408C1.02474 2.01664 1.09626 1.99757 1.22021 1.98327L1.23452 2.01188C1.10102 2.02618 1.01044 2.04048 0.829271 1.87838L0.857879 1.86408ZM1.21545 1.98327C1.36324 1.95467 1.56348 1.92129 1.98303 2.13583L1.95442 2.16444C1.54918 1.96897 1.36801 1.99757 1.23452 2.01664L1.21545 1.98327Z" fill="#292C2F"/>
<path d="M1.99814 2.3745C1.68348 2.17903 1.44033 2.15043 1.25916 2.11705V2.06938C1.45463 2.09798 1.69778 2.14566 2.01244 2.34113L1.99814 2.3745ZM1.26393 2.12182C1.05416 2.09322 0.920662 2.05984 0.830078 1.88344L0.858686 1.86914C0.934967 2.03601 1.06846 2.06461 1.26393 2.07891V2.12182Z" fill="#292C2F"/>
<path fill-rule="evenodd" clip-rule="evenodd" d="M2.59863 2.59811L3.36621 2.53613C3.87634 3.24173 4.1767 2.82219 4.34357 3.31802C3.98123 2.98429 3.99554 3.4229 3.21842 3.03196" fill="#EAC126"/>
<path d="M2.58398 2.58444L3.36587 2.52723V2.55583L2.59829 2.61781L2.58398 2.58444ZM3.36587 2.52246H3.38017L3.36587 2.53676V2.52246ZM3.38017 2.52246C3.63762 2.8991 3.8474 2.95631 4.00949 3.00399V3.03259C3.82833 2.98968 3.61855 2.92771 3.3468 2.55107L3.38017 2.52246ZM4.01426 3.00399C4.16682 3.03259 4.28601 3.0612 4.36229 3.31865H4.33369C4.2574 3.09457 4.15252 3.0612 4.01903 3.03259V3.00399H4.01426ZM4.35753 3.32341L4.38613 3.38539L4.32892 3.33772L4.34322 3.32341H4.35753ZM4.32892 3.33772C4.17636 3.18515 4.09054 3.19946 3.96658 3.21853L3.95228 3.18992C4.08577 3.16132 4.17636 3.14701 4.35753 3.30911L4.32892 3.33772ZM3.96658 3.21853C3.81879 3.23283 3.61855 3.26144 3.2133 3.05166L3.22761 3.02306C3.63285 3.23283 3.81402 3.20423 3.94751 3.18992L3.96658 3.21853Z" fill="#292C2F"/>
<path d="M3.18422 2.82715C3.49888 3.00832 3.74203 3.05122 3.9375 3.0846L3.9232 3.1132C3.74203 3.0846 3.48458 3.05122 3.16992 2.85575L3.18422 2.82715ZM3.9375 3.07983C4.13297 3.10844 4.26646 3.12274 4.35705 3.31821L4.32844 3.33728C4.25216 3.15611 4.11867 3.14181 3.9232 3.1132L3.9375 3.07983Z" fill="#292C2F"/>
<path fill-rule="evenodd" clip-rule="evenodd" d="M2.5981 2.59863L2.08797 3.18505C1.2155 3.03248 1.30609 3.56168 0.838867 3.31854C1.3347 3.30423 1.02003 3.00388 1.83052 2.71782" fill="#EAC126"/>
<path d="M2.59821 2.59829L2.10239 3.1847L2.07378 3.1704L2.58391 2.58398L2.59821 2.59829ZM2.10239 3.1847L2.08808 3.199V3.1847H2.10239ZM2.08808 3.199C1.63516 3.12272 1.43969 3.22761 1.3062 3.31819L1.27759 3.28959C1.42539 3.199 1.62563 3.07981 2.08808 3.15133V3.199ZM1.3062 3.32296C1.17271 3.39924 1.06306 3.45645 0.824676 3.33726L0.838978 3.30866C1.06305 3.41354 1.15364 3.37064 1.27283 3.29435L1.3062 3.32296ZM0.824676 3.33726L0.762695 3.30866H0.838978V3.32296L0.824676 3.33726ZM0.838978 3.30389C1.06305 3.28959 1.11073 3.22761 1.18224 3.12272L1.21085 3.15133C1.13934 3.26098 1.08212 3.33726 0.838978 3.33726V3.30389ZM1.18701 3.12272C1.27759 3.00353 1.39678 2.85097 1.8354 2.70317L1.8497 2.73178C1.41585 2.88434 1.2919 3.03214 1.22038 3.15133L1.18701 3.12272Z" fill="#292C2F"/>
<path d="M2.01169 2.85564C1.64936 2.94622 1.45388 3.09402 1.30609 3.1989L1.29179 3.1703C1.44435 3.06541 1.63982 2.91285 1.99739 2.82227L2.01169 2.85564ZM1.30609 3.1989C1.13922 3.31809 1.03434 3.40868 0.838867 3.33716V3.30379C1.02004 3.36577 1.12492 3.28949 1.29179 3.1703L1.30609 3.1989Z" fill="#292C2F"/>
<path fill-rule="evenodd" clip-rule="evenodd" d="M2.59863 2.59788L3.09446 2.01147C3.96693 2.14496 3.87635 1.62053 4.34357 1.85891C3.84774 1.87321 4.1624 2.18787 3.35191 2.45962" fill="#EAC126"/>
<path d="M2.58398 2.58376L3.07981 1.99735L3.10842 2.02595L2.59829 2.59806L2.58398 2.58376ZM3.07981 1.99735H3.09412V2.01165L3.07981 1.99735ZM3.09412 1.99735C3.54704 2.07363 3.74251 1.95444 3.876 1.87816L3.90937 1.90676C3.76158 1.99735 3.56611 2.10223 3.09888 2.02595V1.99735H3.09412ZM3.876 1.87816C4.02856 1.78757 4.11915 1.7399 4.35753 1.84955L4.34322 1.87816C4.11915 1.77327 4.02856 1.83048 3.90461 1.90676L3.876 1.87816ZM4.35753 1.84955L4.4195 1.87816L4.34322 1.89246V1.86385L4.35753 1.84955ZM4.34322 1.89246C4.11915 1.89246 4.07147 1.96874 3.99519 2.05933L3.96658 2.04502C4.05717 1.94014 4.10484 1.86386 4.34322 1.84955V1.89246ZM3.99996 2.05933C3.90937 2.17852 3.79018 2.33108 3.35157 2.47887L3.33726 2.45027C3.77111 2.31201 3.89507 2.14991 3.96658 2.04502L3.99996 2.05933Z" fill="#292C2F"/>
<path d="M3.16992 2.33171C3.53226 2.25543 3.72773 2.10763 3.87552 1.98368L3.88983 2.01228C3.73726 2.13147 3.54179 2.28403 3.18422 2.37462L3.16992 2.33171ZM3.87552 1.98368C4.04239 1.86449 4.16158 1.78821 4.34275 1.85018V1.87879C4.16158 1.81681 4.05669 1.9074 3.89459 2.01228L3.87552 1.98368Z" fill="#292C2F"/>
<path fill-rule="evenodd" clip-rule="evenodd" d="M2.59788 2.5981L2.01147 2.08797C2.14496 1.21551 1.62053 1.30609 1.85891 0.838867C1.87321 1.3347 2.18787 1.02004 2.45962 1.83052" fill="#EAC126"/>
<path d="M2.58405 2.612L1.99764 2.10187L2.02624 2.07326L2.59835 2.5834L2.58405 2.612ZM1.99764 2.10187V2.08757H2.01194L1.99764 2.10187ZM1.99764 2.08757C2.05485 1.63465 1.94996 1.43918 1.87845 1.30568L1.90705 1.29138C1.98334 1.43918 2.10253 1.62034 2.02624 2.08757H1.99764ZM1.87845 1.30568C1.78787 1.17219 1.72588 1.0673 1.84984 0.838461L1.87845 0.852764C1.77356 1.06254 1.83554 1.15312 1.90705 1.29138L1.87845 1.30568ZM1.84984 0.843229L1.87845 0.78125V0.843229H1.86415H1.84984ZM1.87845 0.843229C1.89275 1.0673 1.95473 1.11498 2.05962 1.18649L2.04531 1.2151C1.94043 1.13882 1.86414 1.08161 1.84984 0.838461H1.87845V0.843229ZM2.05962 1.18649C2.17881 1.27708 2.33137 1.39627 2.47916 1.83489L2.45056 1.84919C2.298 1.41057 2.1502 1.30568 2.04531 1.21987L2.05962 1.18649Z" fill="#292C2F"/>
<path d="M2.33073 2.01169C2.25445 1.64936 2.10666 1.45389 1.9827 1.30609L2.01131 1.29179C2.1305 1.43958 2.28306 1.63505 2.37364 2.01169H2.33073ZM1.9827 1.30609C1.86351 1.13922 1.78723 1.03434 1.84921 0.838867H1.87782C1.81584 1.02004 1.89212 1.12492 2.01131 1.29179L1.9827 1.30609Z" fill="#292C2F"/>
<path fill-rule="evenodd" clip-rule="evenodd" d="M2.59863 2.59863L3.17074 3.09446C3.03725 3.96693 3.56169 3.87634 3.32331 4.34357C3.309 3.86204 2.98958 4.1767 2.72259 3.35191" fill="#EAC126"/>
<path d="M2.59829 2.58398L3.1847 3.07981L3.1704 3.10842L2.58398 2.61259L2.59829 2.58398ZM3.1847 3.07981L3.199 3.09412L3.1847 3.10842L3.1704 3.09412L3.1847 3.07981ZM3.1847 3.11319C3.12749 3.56611 3.22761 3.74251 3.30389 3.89507L3.27529 3.90937C3.199 3.75681 3.07981 3.56611 3.1561 3.09888L3.1847 3.11319ZM3.30866 3.8903C3.39924 4.02379 3.46122 4.13345 3.33726 4.35752L3.30866 4.34322C3.41355 4.13345 3.35156 4.02856 3.28005 3.90937L3.30866 3.8903ZM3.33726 4.35752L3.30866 4.4195V4.34322H3.32296L3.33726 4.35752ZM3.30866 4.34322C3.29436 4.13345 3.23238 4.07147 3.12749 3.99996L3.14179 3.98565C3.24668 4.06193 3.32296 4.10484 3.33726 4.34799H3.30866V4.34322ZM3.12749 3.99996C3.0083 3.92367 2.85574 3.80449 2.70794 3.35156H2.73655C2.88911 3.77111 3.0369 3.8903 3.14179 3.98089L3.12749 3.99996Z" fill="#292C2F"/>
<path d="M2.85575 3.16992C2.94634 3.53226 3.07983 3.72773 3.19902 3.87552L3.17041 3.9089C3.05123 3.74203 2.89866 3.54656 2.82715 3.18899L2.85575 3.16992ZM3.19902 3.87552C3.31821 4.04239 3.39449 4.16158 3.33251 4.35705L3.30391 4.34275C3.36589 4.16158 3.2896 4.05669 3.17041 3.9089L3.19902 3.87552Z" fill="#292C2F"/>
<path fill-rule="evenodd" clip-rule="evenodd" d="M2.59815 2.59863H2.93188L2.59815 4.49613L2.25488 2.59863H2.59815V4.49613V2.59863Z" fill="#EAC126"/>
<path d="M2.59843 2.58398H2.9274V2.61259H2.59843V2.58398ZM2.93217 2.58398H2.96077V2.59829H2.93217V2.58398ZM2.96077 2.59829L2.6175 4.49102H2.56983L2.9131 2.59829H2.96077ZM2.6175 4.49578L2.6032 4.58637L2.5746 4.49578H2.6032H2.6175ZM2.56983 4.49578L2.22656 2.60305H2.26947L2.6175 4.49578H2.56983ZM2.22656 2.58398H2.25517V2.59829H2.22656V2.58398ZM2.25517 2.58398H2.6032V2.61259H2.25517V2.58398ZM2.59843 2.58398H2.61274V2.59829H2.59843V2.58398ZM2.6175 4.49578H2.56983V2.59829H2.6175V4.49578Z" fill="#292C2F"/>
<path fill-rule="evenodd" clip-rule="evenodd" d="M2.59815 2.59844H2.25488L2.59815 0.691406L2.93188 2.59844H2.59815V0.691406V2.59844Z" fill="#EAC126"/>
<path d="M2.59843 2.61251H2.2504V2.5839H2.59843V2.61251ZM2.25517 2.61251H2.22656V2.5982H2.25517V2.61251ZM2.22656 2.5982L2.56983 0.69117L2.6175 0.705473L2.26947 2.5982H2.22656ZM2.56983 0.69117L2.59843 0.600586L2.61274 0.69117H2.59843H2.56983ZM2.6175 0.69117L2.96077 2.5982H2.91786L2.5746 0.705473L2.6175 0.69117ZM2.96077 2.61251H2.93217V2.5982H2.96077V2.61251ZM2.93217 2.61251H2.6032V2.5839H2.93217V2.61251ZM2.59843 2.61251H2.56983V2.5982H2.59843V2.61251ZM2.56983 0.69117H2.6175V2.5982H2.56983V0.69117Z" fill="#292C2F"/>
<path fill-rule="evenodd" clip-rule="evenodd" d="M2.59844 2.59815V2.94618L0.691406 2.59815L2.59844 2.25488V2.59815H0.691406H2.59844Z" fill="#EAC126"/>
<path d="M2.61727 2.94647H2.5696V2.59843H2.61727V2.94647ZM2.61727 2.94647V2.96077H2.58867L2.60297 2.94647H2.61727ZM2.5839 2.96077L0.691167 2.6175L0.705473 2.5889L2.5982 2.93693L2.5839 2.96077ZM0.691167 2.61274L0.600586 2.59843L0.691167 2.58413V2.59843V2.61274ZM0.691167 2.58413L2.5839 2.24087L2.5982 2.26947L0.705473 2.61274L0.691167 2.58413ZM2.5839 2.24087L2.61251 2.22656V2.25517H2.5982L2.5839 2.24087ZM2.61727 2.59843H2.5696V2.25517H2.61727V2.59843ZM2.61727 2.61274H2.60297V2.59843H2.61727V2.61274ZM2.5982 2.61274H0.691167V2.58413H2.5982V2.61274Z" fill="#292C2F"/>
<path fill-rule="evenodd" clip-rule="evenodd" d="M2.59863 2.59815V2.25488L4.49613 2.59815L2.59863 2.94618V2.59815H4.49613H2.59863Z" fill="#EAC126"/>
<path d="M2.56934 2.25505H2.61701V2.60309H2.56934V2.25505ZM2.56934 2.25505V2.22168L2.59794 2.23598V2.25029H2.56934V2.25505ZM2.59794 2.24075L4.49067 2.58402L4.47637 2.61262L2.58364 2.26936L2.59794 2.24075ZM4.49544 2.58402L4.58602 2.59832L4.49544 2.61262V2.59832V2.58402ZM4.49544 2.61262L2.60271 2.95589L2.58841 2.92728L4.48114 2.57925L4.49544 2.61262ZM2.59794 2.96065H2.56934V2.94635H2.59794V2.96065ZM2.56934 2.59832H2.61701V2.94158H2.56934V2.59832ZM2.56934 2.58402H2.59794V2.59832H2.56934V2.58402ZM2.59794 2.58402H4.49067V2.61262H2.59794V2.58402Z" fill="#292C2F"/>
<path fill-rule="evenodd" clip-rule="evenodd" d="M2.59825 2.59838L2.84139 2.84153L1.24902 3.93808L2.34556 2.3457L2.59825 2.59838L1.24902 3.93808L2.59825 2.59838Z" fill="#EAC126"/>
<path d="M2.5987 2.58374L2.85615 2.82688L2.82755 2.85549L2.58917 2.61711L2.5987 2.58374ZM2.85615 2.82688L2.87046 2.84119L2.84185 2.85549V2.84119L2.85615 2.82688ZM2.84185 2.85549L1.26378 3.95203L1.24948 3.92343L2.82755 2.82688L2.84185 2.85549ZM1.26378 3.95203L1.1875 4.01401L1.23041 3.92343L1.24471 3.93773L1.26378 3.95203ZM1.23041 3.92343L2.32695 2.34536L2.35556 2.35966L1.25901 3.95203L1.23041 3.92343ZM2.33172 2.34536L2.34602 2.33105L2.36032 2.34536H2.34602H2.33172ZM2.36032 2.34536L2.5987 2.58374L2.5844 2.61234L2.32695 2.35489L2.36032 2.34536ZM2.5987 2.58374L2.61301 2.59804L2.5987 2.61234V2.59804V2.58374ZM2.5987 2.61234L1.25901 3.95203L1.24471 3.92343L2.5844 2.58374L2.5987 2.61234Z" fill="#292C2F"/>
<path fill-rule="evenodd" clip-rule="evenodd" d="M2.59838 2.59825L2.3457 2.34557L3.93808 1.24902L2.84153 2.8414L2.59838 2.59825L3.93808 1.24902L2.59838 2.59825Z" fill="#EAC126"/>
<path d="M2.58362 2.61301L2.32617 2.35556L2.35478 2.34125L2.59316 2.57963L2.58362 2.61301ZM2.33094 2.36032V2.34602H2.34524L2.33094 2.36032ZM2.34524 2.34602L3.92331 1.23518L3.93762 1.26378L2.35954 2.36032L2.34524 2.34602ZM3.92331 1.23518L3.99959 1.1875L3.95669 1.26378L3.94238 1.24948L3.92331 1.23518ZM3.95192 1.26378L2.85537 2.85615L2.82677 2.82755L3.92331 1.24948L3.95192 1.26378ZM2.85537 2.85615L2.84107 2.87046L2.82677 2.85615L2.84107 2.84185L2.85537 2.85615ZM2.82677 2.85615L2.58839 2.61777L2.60269 2.58917L2.86014 2.83232L2.82677 2.85615ZM2.58362 2.61301L2.56932 2.5987L2.58362 2.5844L2.59792 2.5987L2.58362 2.61301ZM2.58362 2.5844L3.92331 1.24948L3.95192 1.26378L2.59792 2.61777L2.58362 2.5844Z" fill="#292C2F"/>
<path fill-rule="evenodd" clip-rule="evenodd" d="M2.59825 2.59825L2.34556 2.8414L1.24902 1.24902L2.84139 2.34557L2.59825 2.59825L1.24902 1.24902L2.59825 2.59825Z" fill="#EAC126"/>
<path d="M2.5987 2.61301L2.36032 2.85139L2.33172 2.82278L2.58917 2.57963L2.5987 2.61301ZM2.36032 2.85615L2.34602 2.87046L2.33172 2.85615L2.34602 2.84185L2.36032 2.85615ZM2.33172 2.85615L1.23518 1.26378L1.26378 1.24948L2.36032 2.82755L2.33172 2.85615ZM1.23041 1.26378L1.1875 1.1875L1.26378 1.23518L1.24948 1.24948L1.23041 1.26378ZM1.26378 1.23518L2.84185 2.34602L2.82755 2.36032L1.24948 1.26378L1.26378 1.23518ZM2.84185 2.34602H2.87046L2.85615 2.36032L2.84185 2.34602ZM2.85615 2.36032L2.5987 2.61777L2.5844 2.58917L2.82278 2.35079L2.85615 2.36032ZM2.5987 2.61301H2.5844L2.5987 2.5987V2.61301ZM2.5844 2.61301L1.24471 1.25901L1.25901 1.24471L2.5987 2.57963L2.5844 2.61301Z" fill="#292C2F"/>
<path fill-rule="evenodd" clip-rule="evenodd" d="M2.59838 2.59838L2.84153 2.3457L3.93808 3.93808L2.3457 2.84153L2.59838 2.59838L3.93808 3.93808L2.59838 2.59838Z" fill="#EAC126"/>
<path d="M2.58374 2.58374L2.82211 2.34536L2.85072 2.35966L2.59327 2.61711L2.58374 2.58374ZM2.82688 2.34536L2.84119 2.33105L2.85549 2.34536H2.84119H2.82688ZM2.85549 2.34536L3.95203 3.92343L3.92343 3.95203L2.82688 2.35966L2.85549 2.34536ZM3.95203 3.92343L3.99494 4.01401L3.91866 3.95203L3.93296 3.93773L3.95203 3.92343ZM3.92343 3.95203L2.34536 2.85549L2.35966 2.82688L3.93773 3.92343L3.92343 3.95203ZM2.34536 2.85549L2.33105 2.84119V2.82688L2.34536 2.84119V2.85549ZM2.33105 2.82688L2.5885 2.58374L2.60281 2.61234L2.36443 2.85072L2.33105 2.82688ZM2.58374 2.58374L2.59804 2.56943V2.58374V2.59804L2.58374 2.58374ZM2.59804 2.58374L3.95203 3.92343L3.92343 3.95203L2.58374 2.61234L2.59804 2.58374Z" fill="#292C2F"/>
<path fill-rule="evenodd" clip-rule="evenodd" d="M3.23181 2.59807C3.23181 2.23573 2.94576 1.96875 2.60249 1.96875C2.24016 1.96875 1.9541 2.2405 1.9541 2.59807C1.9541 2.94134 2.24016 3.22739 2.60249 3.22739C2.94576 3.23216 3.23181 2.9461 3.23181 2.59807Z" fill="#EAC126"/>
<path d="M3.19896 2.59836C3.19896 2.41719 3.13698 2.26939 3.01779 2.15974L3.04639 2.13113C3.16558 2.25032 3.24187 2.41719 3.24187 2.59836H3.19896ZM3.02255 2.16451C2.91767 2.04532 2.76987 1.98334 2.60301 1.98334V1.94043C2.76987 1.94043 2.93197 2.01671 3.05593 2.1359L3.02255 2.16451ZM2.59824 1.98334C2.41707 1.98334 2.26928 2.04532 2.16439 2.16451L2.13579 2.1359C2.25498 2.01671 2.42184 1.94043 2.60301 1.94043V1.98334H2.59824ZM2.16439 2.16451C2.0452 2.26939 1.98323 2.42196 1.98323 2.60312H1.93555C1.93555 2.42196 2.01183 2.25509 2.13102 2.1359L2.16439 2.16451ZM1.98323 2.59836C1.98323 2.76522 2.04044 2.91302 2.16439 3.03221L2.13579 3.04651C2.0166 2.92732 1.94032 2.77476 1.94032 2.59359H1.98323V2.59836ZM2.16439 3.03697C2.26928 3.14186 2.41707 3.21814 2.59824 3.21814V3.24675C2.41707 3.24675 2.25021 3.17047 2.13102 3.05128L2.16439 3.03697ZM2.59824 3.21814C2.76511 3.21814 2.9129 3.14186 3.01779 3.03697L3.04639 3.05128C2.9272 3.17047 2.76034 3.24675 2.59348 3.24675V3.21814H2.59824ZM3.02255 3.03697C3.14174 2.91778 3.20373 2.76522 3.20373 2.60312H3.24663C3.24663 2.78429 3.17035 2.93209 3.05116 3.05604L3.02255 3.03697Z" fill="#292C2F"/>
<path fill-rule="evenodd" clip-rule="evenodd" d="M3.05119 2.34527C3.02258 2.39295 2.98921 2.31667 2.85571 2.31667C2.70792 2.31667 2.68885 2.39295 2.66025 2.37864C2.64594 2.36434 2.77943 2.25945 2.82711 2.25945C2.87002 2.24038 3.00828 2.28329 3.05119 2.34527Z" fill="#292C2F"/>
<path fill-rule="evenodd" clip-rule="evenodd" d="M2.88417 2.38867C2.92708 2.43158 2.89847 2.50786 2.85556 2.50786C2.81265 2.50786 2.73637 2.43158 2.77928 2.38867" fill="#292C2F"/>
<path fill-rule="evenodd" clip-rule="evenodd" d="M2.70801 2.45094C2.70801 2.37465 2.76999 2.36035 2.8558 2.36035C2.94639 2.36035 2.98929 2.43663 3.02267 2.45094C2.99406 2.45094 2.94639 2.38896 2.8558 2.38896C2.76522 2.38896 2.76522 2.38896 2.70801 2.45094Z" fill="#292C2F"/>
<path fill-rule="evenodd" clip-rule="evenodd" d="M2.72221 2.46456C2.73652 2.43595 2.76512 2.49316 2.8414 2.49316C2.89861 2.49316 2.93199 2.47886 2.97489 2.45026C3.0035 2.42165 2.91292 2.52654 2.8557 2.52654C2.79849 2.52177 2.70791 2.47886 2.72221 2.46456Z" fill="#292C2F"/>
<path fill-rule="evenodd" clip-rule="evenodd" d="M2.91797 2.49356C2.99425 2.46495 2.94657 2.40297 2.91797 2.38867C2.93227 2.40297 2.97518 2.46495 2.91797 2.49356Z" fill="#292C2F"/>
<path fill-rule="evenodd" clip-rule="evenodd" d="M2.59794 2.84145C2.62655 2.84145 2.64562 2.82715 2.68853 2.82715C2.73143 2.82715 2.84109 2.90343 2.8983 2.87482C2.76481 2.93204 2.82202 2.88913 2.59794 2.88913H2.56934" fill="#292C2F"/>
<path fill-rule="evenodd" clip-rule="evenodd" d="M2.93175 2.93204C2.90315 2.88436 2.91745 2.90343 2.85547 2.82715C2.91745 2.87006 2.91745 2.88436 2.93175 2.93204Z" fill="#292C2F"/>
<path fill-rule="evenodd" clip-rule="evenodd" d="M2.59794 2.975C2.73143 2.975 2.71713 2.9464 2.8983 2.87012C2.76481 2.88442 2.73143 2.92733 2.59794 2.92733H2.56934" fill="#292C2F"/>
<path fill-rule="evenodd" clip-rule="evenodd" d="M2.59851 2.76533C2.62712 2.76533 2.64619 2.73672 2.6891 2.73672C2.73201 2.73672 2.79399 2.75103 2.82259 2.7844C2.83689 2.7844 2.80829 2.73672 2.76538 2.73672C2.72247 2.72242 2.73678 2.64614 2.6891 2.63184C2.6891 2.66044 2.7034 2.66044 2.7034 2.69381C2.7034 2.72242 2.6605 2.72242 2.64143 2.69381C2.65573 2.73672 2.61282 2.73672 2.59375 2.73672" fill="#292C2F"/>
<path fill-rule="evenodd" clip-rule="evenodd" d="M2.13574 2.34527C2.16435 2.39295 2.19295 2.31667 2.33121 2.31667C2.47901 2.31667 2.49808 2.39295 2.52668 2.37864C2.54099 2.36434 2.40749 2.25945 2.35982 2.25945C2.31691 2.24038 2.17865 2.28329 2.13574 2.34527Z" fill="#292C2F"/>
<path fill-rule="evenodd" clip-rule="evenodd" d="M2.29759 2.38867C2.25468 2.43158 2.28329 2.50786 2.3262 2.50786C2.36911 2.50786 2.44539 2.43158 2.40248 2.38867" fill="#292C2F"/>
<path fill-rule="evenodd" clip-rule="evenodd" d="M2.47872 2.45094C2.47872 2.37465 2.41674 2.36035 2.33093 2.36035C2.24034 2.36035 2.19267 2.43663 2.16406 2.45094C2.20697 2.45094 2.24034 2.38896 2.33093 2.38896C2.41674 2.38896 2.41674 2.38896 2.47872 2.45094Z" fill="#292C2F"/>
<path fill-rule="evenodd" clip-rule="evenodd" d="M2.46418 2.46456C2.44988 2.43595 2.41651 2.49316 2.345 2.49316C2.28302 2.49316 2.25441 2.47886 2.2115 2.45026C2.1829 2.42165 2.27348 2.52654 2.33069 2.52654C2.40221 2.52177 2.47849 2.47886 2.46418 2.46456Z" fill="#292C2F"/>
<path fill-rule="evenodd" clip-rule="evenodd" d="M2.26971 2.49356C2.19343 2.46495 2.2411 2.40297 2.26971 2.38867C2.2554 2.40297 2.20773 2.46495 2.26971 2.49356Z" fill="#292C2F"/>
<path fill-rule="evenodd" clip-rule="evenodd" d="M2.59786 2.84145C2.55495 2.84145 2.53589 2.82715 2.49298 2.82715C2.45007 2.82715 2.34041 2.90343 2.2832 2.87482C2.4167 2.93204 2.35948 2.88913 2.59786 2.88913H2.61217" fill="#292C2F"/>
<path fill-rule="evenodd" clip-rule="evenodd" d="M2.25488 2.93204C2.28349 2.88436 2.28349 2.90343 2.33116 2.82715C2.28349 2.87006 2.26919 2.88436 2.25488 2.93204Z" fill="#292C2F"/>
<path fill-rule="evenodd" clip-rule="evenodd" d="M2.59786 2.975C2.4453 2.975 2.47867 2.9464 2.2832 2.87012C2.4167 2.88442 2.45007 2.92733 2.59786 2.92733H2.61217" fill="#292C2F"/>
<path fill-rule="evenodd" clip-rule="evenodd" d="M2.59854 2.76533C2.55564 2.76533 2.53657 2.73672 2.49366 2.73672C2.45075 2.73672 2.38877 2.75103 2.36017 2.7844C2.34586 2.7844 2.37447 2.73672 2.41738 2.73672C2.46505 2.72242 2.44599 2.64614 2.49366 2.63184C2.49366 2.66044 2.47936 2.66044 2.47936 2.69381C2.47936 2.72242 2.52703 2.72242 2.54134 2.69381C2.52703 2.73672 2.56994 2.73672 2.60331 2.73672" fill="#292C2F"/>
<path fill-rule="evenodd" clip-rule="evenodd" d="M2.59759 3.03711C2.56899 3.03711 2.49271 3.05141 2.59759 3.05141C2.68818 3.05141 2.61666 3.03711 2.59759 3.03711Z" fill="#292C2F"/>
</svg>
