<svg width="21" height="22" viewBox="0 0 21 22" fill="none" xmlns="http://www.w3.org/2000/svg">
<path fill-rule="evenodd" clip-rule="evenodd" d="M12.9787 15.2618L12.3261 14.6092L11.8701 15.4113C12.231 15.6172 12.6852 15.5553 12.9787 15.2618Z" fill="white"/>
<mask id="mask0_88_740" style="mask-type:alpha" maskUnits="userSpaceOnUse" x="0" y="0" width="21" height="22">
<path fill-rule="evenodd" clip-rule="evenodd" d="M0.345703 0.846191H20.55V21.0874H0.345703V0.846191Z" fill="white"/>
</mask>
<g mask="url(#mask0_88_740)">
<path fill-rule="evenodd" clip-rule="evenodd" d="M18.7043 18.3141C18.7043 18.4434 18.6784 18.5698 18.6267 18.688C18.575 18.8052 18.5002 18.9114 18.4052 18.9981C18.3101 19.0858 18.1984 19.1514 18.0766 19.1929C17.9556 19.2335 17.8273 19.2483 17.7009 19.2372C15.0092 18.9428 12.4227 18.0224 10.151 16.5483L9.64702 17.3255L9.64979 17.3218L10.151 16.5483L10.1436 16.5437C8.02794 15.1997 6.2344 13.4061 4.88948 11.2895L4.1104 11.7843L4.1141 11.7824L4.88948 11.2895L4.88487 11.2831C3.4061 8.99937 2.48579 6.40091 2.19594 3.69629C2.18487 3.56891 2.19964 3.44152 2.24025 3.3206C2.28087 3.19968 2.34733 3.08798 2.43317 2.99291C2.51994 2.89875 2.62517 2.82306 2.7424 2.77044C2.85964 2.71875 2.9861 2.69198 3.1144 2.69198H5.88271H5.89194C6.11533 2.69014 6.33317 2.76952 6.50302 2.91537C6.67287 3.06214 6.78364 3.26429 6.81502 3.48675C6.94148 4.43844 7.1741 5.3726 7.5101 6.27352L7.51102 6.27537C7.57287 6.4406 7.58671 6.6206 7.54979 6.79321C7.51287 6.96491 7.42702 7.12368 7.30333 7.24921L6.13471 8.41783L6.78733 9.07045L6.13471 8.41783C5.84025 8.71229 5.77933 9.16552 5.98517 9.52644C7.38087 11.9828 9.4144 14.0154 11.8698 15.4111L12.3258 14.6089L12.9784 15.2615L14.147 14.0938C14.2726 13.9692 14.4313 13.8834 14.6039 13.8464C14.7766 13.8095 14.9556 13.8234 15.1209 13.8852L15.1227 13.8861C16.0236 14.2221 16.9578 14.4548 17.9104 14.5812C18.1347 14.6135 18.3396 14.7261 18.4864 14.8988C18.6322 15.0714 18.7098 15.2929 18.7043 15.5191V15.5412V18.3104V18.3141L19.6273 18.3104H19.6338L18.7043 18.3141ZM20.5485 15.5412C20.5596 14.8711 20.3288 14.2184 19.895 13.7061C19.4556 13.1874 18.8408 12.8486 18.1688 12.7544L18.1605 12.7526C17.3426 12.6446 16.5405 12.4452 15.7679 12.1563V12.1572C15.2731 11.9717 14.7359 11.9311 14.219 12.0409C13.7011 12.1517 13.2248 12.4083 12.8491 12.7803L12.8454 12.784L13.4953 13.4347L13.498 13.4375L12.8454 12.784L12.1873 13.4421C10.4842 12.3566 9.04049 10.912 7.95403 9.2089L8.61219 8.55167L7.9568 7.89629L7.95957 7.89906L8.61219 8.55167L8.61588 8.54798C8.98788 8.17136 9.2445 7.69598 9.35526 7.17813C9.46511 6.66121 9.42542 6.12306 9.23988 5.62829C8.95188 4.85567 8.75157 4.05352 8.6445 3.23659L8.64265 3.22736L7.73249 3.35659H7.73157L8.64265 3.22736C8.54849 2.56275 8.21619 1.95352 7.70665 1.51598C7.19896 1.07936 6.55096 0.842133 5.88265 0.846748V0.845825H3.11342H3.11249L3.11342 1.7689V1.79844L3.11249 0.845825C2.72757 0.846748 2.34819 0.927056 1.99649 1.08213C1.6448 1.23721 1.32911 1.46429 1.06973 1.74859C0.810341 2.03198 0.613726 2.36706 0.490956 2.73167C0.368187 3.09629 0.322033 3.48213 0.35711 3.86521C0.35711 3.86983 0.358033 3.87352 0.358033 3.87906L1.27465 3.78213L0.358033 3.87906C0.676495 6.87352 1.69557 9.75167 3.33126 12.28C3.33219 12.2809 3.33219 12.2818 3.33311 12.2827C3.33403 12.2837 3.33496 12.2855 3.33588 12.2864C4.82388 14.6255 6.80757 16.6092 9.14665 18.0972V18.0981C9.14757 18.0991 9.14942 18.1 9.15126 18.1009C9.15219 18.1009 9.15311 18.1018 9.15403 18.1027C11.6703 19.732 14.5337 20.7511 17.5153 21.0741C17.5208 21.0751 17.5263 21.076 17.5319 21.076L17.615 20.1566V20.1547L17.5319 21.076C17.9159 21.1111 18.3026 21.0649 18.6682 20.9421C19.0337 20.8184 19.3688 20.6191 19.6531 20.3587C19.9374 20.0984 20.1645 19.7809 20.3186 19.4274C20.4728 19.0747 20.5503 18.6954 20.5503 18.3104V15.5412H20.5485Z" fill="white"/>
</g>
</svg>
