<svg width="18" height="19" viewBox="0 0 18 19" fill="none" xmlns="http://www.w3.org/2000/svg">
<path d="M15.9153 4.66645C15.3739 4.0228 14.3742 3.76025 12.465 3.76025H5.53481C3.58195 3.76025 2.56534 4.03974 2.02592 4.725C1.5 5.39313 1.5 6.37756 1.5 7.74004V10.3369C1.5 12.9765 2.124 14.3167 5.53481 14.3167H12.4651C14.1207 14.3167 15.0381 14.085 15.6316 13.517C16.2403 12.9345 16.5 11.9834 16.5 10.3369V7.74004C16.5 6.30319 16.4593 5.31295 15.9153 4.66645ZM11.13 9.39701L7.98305 11.0417C7.91269 11.0785 7.83576 11.0968 7.75892 11.0968C7.67192 11.0968 7.58511 11.0733 7.50823 11.0268C7.36345 10.9391 7.27505 10.7821 7.27505 10.6129V7.33398C7.27505 7.16501 7.36321 7.00824 7.50769 6.92046C7.65223 6.83269 7.83198 6.82669 7.98194 6.90459L11.1289 8.53872C11.289 8.62185 11.3896 8.78714 11.3898 8.96748C11.39 9.14796 11.2899 9.3135 11.13 9.39701Z" fill="#2D2D2D"/>
</svg>
