<svg xmlns="http://www.w3.org/2000/svg" xmlns:xlink="http://www.w3.org/1999/xlink" viewBox="12882.582 4153.643 29.297 35.862"><defs><style>.a{fill:#fff;}.b{fill:#f16051;}.c{fill:#2197ae;}.d{clip-path:url(#a);}</style><clipPath id="a"><path d="M29.8,154.854c.1.655.551,16.366.551,16.366l.335,2.66,2.8.6,4.3-.248,2.468-.551,2.149-.559s.759.351,1.214,0,.4-.607.839-.99c1.661-1.454,1.526-1.254,1.526-1.254a.673.673,0,0,1,.647-.312,4.148,4.148,0,0,0,1.334-.407l.775.463.511.575.3.447.12,1.693.871-2.372,4.928.136-.879,2.077,3.035,1.142s.895-18.81.95-18.961S53.6,153.6,53.6,153.6l-17.3.751Z" transform="translate(-29.8 -153.6)"/></clipPath></defs><g transform="translate(12467 3803)"><g transform="translate(310.707 -105.171)"><g transform="translate(104.875 455.814)"><rect class="a" width="4.688" height="10.815" transform="translate(2.806 25.7) rotate(-39.494)"/><g transform="translate(0 10.953)"><rect width="0.982" height="0.982" transform="translate(3.512 16.424) rotate(-39.494)"/><rect width="0.982" height="0.982" transform="translate(5.27 18.556) rotate(-39.494)"/><rect width="0.982" height="0.982" transform="translate(7.026 20.691) rotate(-39.494)"/><path d="M50.021,290.947a2.173,2.173,0,0,0-2.819.855l-3.738,6.022a1.706,1.706,0,0,0-.3-.447,2.319,2.319,0,0,0-3.267-.311l-3.85,3.171a1.715,1.715,0,0,1-.447.24l-3.546.751-.072-.008a3.022,3.022,0,0,0-.783.447l-2.78,2.292-.839-1.03-4.377,3.61,7.508,9.105,4.385-3.61-.663-.8.95-.783,9.033-3.482a3.942,3.942,0,0,0,.958-.535,3.592,3.592,0,0,0,.966-1.31l4.744-11.414A2.132,2.132,0,0,0,50.021,290.947Zm-16.3,20.982.032.04-2.859,2.356-6.286-7.62,2.859-2.356ZM50.2,293.423,45.428,304.78a2.624,2.624,0,0,1-1.39,1.342l-9.177,3.538-1.07.879-4.744-5.751,2.78-2.292a2.179,2.179,0,0,1,.479-.272l3.546-.751.072.008a2.254,2.254,0,0,0,.743-.423l3.85-3.171a1.325,1.325,0,0,1,1.877.184,1.443,1.443,0,0,1,.288,1.046l-.5.863-3.123,2.572a1.875,1.875,0,0,0-.256,2.636l.759-.631a.889.889,0,0,1,.12-1.254l3.163-2.6a2.115,2.115,0,0,0,.743-1.19l4.409-7.156a1.175,1.175,0,0,1,1.549-.447A1.131,1.131,0,0,1,50.2,293.423Z" transform="translate(-23.2 -290.734)"/></g><rect class="b" width="23.993" height="3.107" transform="translate(3.075 5.791)"/><g transform="translate(3.075 5.391)"><rect class="c" width="23.993" height="4.648"/></g><g transform="translate(5.543 15.567)"><rect width="0.982" height="0.982"/><rect width="0.982" height="0.982" transform="translate(2.468)"/><rect width="0.982" height="0.982" transform="translate(4.936)"/></g><g transform="translate(0.527 0)"><g class="d"><path d="M49.3,189.656v16.589H75.274V189.6m-.982,15.655h-24V190.59H74.284l.008,14.664Z" transform="translate(-47.743 -186.725)"/></g></g></g></g></g></svg>