<?xml version="1.0" encoding="utf-8"?>
<!-- Generator: Adobe Illustrator 23.1.1, SVG Export Plug-In . SVG Version: 6.00 Build 0)  -->
<svg version="1.1" xmlns="http://www.w3.org/2000/svg" xmlns:xlink="http://www.w3.org/1999/xlink" x="0px" y="0px"
	 viewBox="0 0 80 80" style="enable-background:new 0 0 80 80;" xml:space="preserve">
<style type="text/css">
	.st0{fill:none;stroke:#211915;stroke-width:2;stroke-miterlimit:10;}
	.st1{fill:none;stroke:#211915;stroke-width:2;stroke-linecap:round;stroke-linejoin:round;stroke-miterlimit:10;}
	.st2{fill:#F08224;stroke:#211915;stroke-width:2;stroke-miterlimit:10;}
	.st3{fill:none;stroke:#FFFFFF;stroke-width:2;stroke-linecap:round;stroke-linejoin:round;stroke-miterlimit:10;}
</style>
<g id="Capa_4">
</g>
<g id="Capa_3">
	<path class="st0" d="M12.6,71.6l0-62.8c0-3.5,2.8-6.3,6.3-6.3l29.5,0c3.5,0,6.3,2.8,6.3,6.3l0,62.8c0,3.5-2.8,6.3-6.3,6.3l-29.5,0
		C15.4,77.9,12.6,75.1,12.6,71.6z"/>
	<line class="st0" x1="12.6" y1="61.4" x2="54.6" y2="61.4"/>
	<line class="st0" x1="12.6" y1="16" x2="54.6" y2="16"/>
	<circle class="st0" cx="33.6" cy="69.6" r="2.9"/>
	<line class="st1" x1="26.7" y1="9.1" x2="40.6" y2="9.1"/>
	<path class="st2" d="M70.3,54.8H33.8c-2.4,0-4.4-2-4.4-4.4v-21c0-2.4,2-4.4,4.4-4.4h36.4c2.4,0,4.4,2,4.4,4.4v21
		C74.6,52.9,72.7,54.8,70.3,54.8z"/>
	<path class="st3" d="M43.5,33.1c-1.2,0-2.2,0.6-2.8,1.5c-0.6-0.9-1.7-1.5-2.8-1.5c-1.9,0-3.5,1.6-3.5,3.5c0,1.9,1.6,3.5,3.5,3.5
		c1.2,0,2.2-0.6,2.8-1.5c0.6,0.9,1.7,1.5,2.8,1.5c1.9,0,3.5-1.6,3.5-3.5C47,34.7,45.4,33.1,43.5,33.1z"/>
	<line class="st3" x1="33.7" y1="48.1" x2="58.6" y2="48.1"/>
</g>
</svg>
