<svg xmlns="http://www.w3.org/2000/svg" viewBox="14288.18 4045.065 88.59 24.244"><defs><style>.a{fill:#0c4f8f;}.b{fill:#f2883e;}</style></defs><g transform="translate(14288.18 4045.065)"><path class="a" d="M15036.936,4306.6c-.118-.048,1.369-3.916,4.185-4.208s2.59,4.81,2.64,5.457a21.09,21.09,0,0,1-.714,3.332l-2.967-2.693Z" transform="translate(-15034.108 -4301.005)"/><path class="a" d="M15036.936,4306.6c-.118-.048,1.369-3.916,4.185-4.208s2.59,4.81,2.64,5.457a21.09,21.09,0,0,1-.714,3.332l-2.967-2.693Z" transform="translate(-14960.941 -4301.005)"/><path class="b" d="M15038.6,4303.988a9.05,9.05,0,0,1,.656,7.142,14.659,14.659,0,0,1-4.843,6.848l-4.045,2.43s1.388,3.45,4.7,3.128,9.734-6.133,10.609-9.61-3.413-7.168-3.413-7.168Z" transform="translate(-15030.373 -4302.387)"/><path class="b" d="M15038.6,4303.988a9.05,9.05,0,0,1,.656,7.142,14.659,14.659,0,0,1-4.843,6.848l-4.045,2.43s1.388,3.45,4.7,3.128,9.734-6.133,10.609-9.61-3.413-7.168-3.413-7.168Z" transform="translate(-14957.206 -4302.387)"/><path class="a" d="M6.153,23.034c-.985,0-2.025-.053-3.007-.153A3.192,3.192,0,0,1,.819,21.669a4.643,4.643,0,0,1-.807-2.513,6.815,6.815,0,0,1,.057-1.375L3.737.455h0A50.391,50.391,0,0,1,10.05,0a13.854,13.854,0,0,1,5.434.793A5.21,5.21,0,0,1,17.4,2.24a4.3,4.3,0,0,1,.853,1.826,6.314,6.314,0,0,1-.471,3.719,3.678,3.678,0,0,1-1.058,1.351A6.412,6.412,0,0,1,15.321,10a9.012,9.012,0,0,1-1.752.6l-.007,0h0a7.592,7.592,0,0,1,1.918,1,4.239,4.239,0,0,1,1.666,2.594,5.858,5.858,0,0,1,.064,2.21,8.937,8.937,0,0,1-.941,2.755,6.765,6.765,0,0,1-4.234,3.106A20.2,20.2,0,0,1,6.153,23.034ZM7.847,12.659a10.586,10.586,0,0,0-1.121.058l-.459,1.955L5.441,18.2a.939.939,0,0,0,.068.752.818.818,0,0,0,.708.277c.127,0,.277,0,.437.008.209.005.445.012.7.012,1.322,0,3.206-.16,4.3-1.54a3.37,3.37,0,0,0,.692-1.5,3.03,3.03,0,0,0-.095-1.467,2.637,2.637,0,0,0-1.772-1.753,9.453,9.453,0,0,0-2.062-.311C8.234,12.664,8.043,12.659,7.847,12.659Zm2.28-9.1A17.251,17.251,0,0,0,8.2,3.67L7.264,8.716a.173.173,0,0,0,.042.12c.082.106.3.244.9.3.085.007.173.01.261.01a9.153,9.153,0,0,0,2.581-.454,5.111,5.111,0,0,0,1.222-.564,2.4,2.4,0,0,0,.862-.892A2.719,2.719,0,0,0,13.167,4.8,2.016,2.016,0,0,0,11.694,3.67,9.362,9.362,0,0,0,10.127,3.556Z" transform="translate(16.944 0.062)"/><path class="a" d="M15147.062,4303.418l.8-2.955a2.229,2.229,0,0,0-1.293-1.98,11.843,11.843,0,0,0-11.541.672c-4.835,3.254-7.163,11.94-4.679,17.578s11.813,5.279,13.2,3.114a8.593,8.593,0,0,0,1.152-4.819,6.872,6.872,0,0,1-5.634,1.7c-3.449-.516-5.706-4.2-4.041-9.139s5.149-5.871,7.627-5.871A7.467,7.467,0,0,1,15147.062,4303.418Z" transform="translate(-15092.396 -4297.067)"/><path class="a" d="M3.245,23.184A1.132,1.132,0,0,1,3,23.161H0L4.706.421h0A41.874,41.874,0,0,1,10.41,0a20.167,20.167,0,0,1,4.449.421A5.286,5.286,0,0,1,18,2.1,6.982,6.982,0,0,1,19.33,7.588a10.763,10.763,0,0,1-2.945,5.488,7.626,7.626,0,0,1-3.625,2.034,14.41,14.41,0,0,1-3.765.46,15.77,15.77,0,0,1-2.236-.146v0a43.645,43.645,0,0,1-1.136,5.181,4.062,4.062,0,0,1-1.237,2.155A1.825,1.825,0,0,1,3.245,23.184Zm7.9-19.421a14.489,14.489,0,0,0-1.731.108L8.1,10.5a1.67,1.67,0,0,0,.151.56.992.992,0,0,0,.87.6c.138.008.284.012.431.012a5.123,5.123,0,0,0,4.889-2.756,4.49,4.49,0,0,0,.462-1.945,3.379,3.379,0,0,0-.378-1.551,2.906,2.906,0,0,0-1.935-1.548,8.558,8.558,0,0,0-1.445-.108Z" transform="translate(53.936 0)"/></g></svg>