<svg xmlns="http://www.w3.org/2000/svg" viewBox="4157.843 1487.194 20.914 22.512"><defs><style>.a{fill:#da272c;}</style></defs><g transform="translate(4136 1312)"><path class="a" d="M20.413,3.617a1.5,1.5,0,0,0-1.136-.481h-1.6V1.922A1.921,1.921,0,0,0,17.082.5a1.964,1.964,0,0,0-1.425-.6h-.809a1.921,1.921,0,0,0-1.425.6,1.964,1.964,0,0,0-.6,1.425V3.135H8.011V1.922A1.921,1.921,0,0,0,7.414.5,1.964,1.964,0,0,0,5.989-.1H5.18A1.921,1.921,0,0,0,3.755.5a1.964,1.964,0,0,0-.6,1.425V3.135H1.6a1.53,1.53,0,0,0-1.136.481A1.543,1.543,0,0,0,0,4.734V20.795a1.53,1.53,0,0,0,.481,1.136,1.53,1.53,0,0,0,1.136.481H19.3a1.644,1.644,0,0,0,1.618-1.618V4.734a1.665,1.665,0,0,0-.5-1.117ZM14.463,1.922a.395.395,0,0,1,.4-.4h.809a.395.395,0,0,1,.4.4v3.62a.395.395,0,0,1-.4.4h-.809a.395.395,0,0,1-.4-.4Zm-9.648,0a.395.395,0,0,1,.4-.4h.809a.395.395,0,0,1,.4.4v3.62a.395.395,0,0,1-.4.4H5.219a.395.395,0,0,1-.4-.4V1.922ZM19.277,20.814H1.6V7.95H19.277V20.814Zm0,0" transform="translate(21.843 175.294)"/></g></svg>