<svg xmlns="http://www.w3.org/2000/svg" viewBox="-616.775 1319.384 70.015 25.291"><defs><style>.a{fill:#fff;}</style></defs><g transform="translate(-616.775 1319.384)"><g transform="translate(45.367 11.287)"><path class="a" d="M-.781-.135A6.731,6.731,0,0,0-5.7-2.183,6.541,6.541,0,0,0-10.55-.135,6.759,6.759,0,0,0-12.593,4.82,6.636,6.636,0,0,0-10.55,9.743,6.557,6.557,0,0,0-5.7,11.822,6.746,6.746,0,0,0-.781,9.743,6.735,6.735,0,0,0,1.232,4.82,6.861,6.861,0,0,0-.781-.135M-3.112,7.411A3.409,3.409,0,0,1-5.7,8.5,3.4,3.4,0,0,1-8.251,7.411,3.661,3.661,0,0,1-9.337,4.82,3.564,3.564,0,0,1-8.251,2.2,3.264,3.264,0,0,1-5.7,1.144,3.388,3.388,0,0,1-3.081,2.2,3.808,3.808,0,0,1-2.024,4.82,3.81,3.81,0,0,1-3.112,7.411" transform="translate(12.593 2.183)"/></g><g transform="translate(0 7.867)"><path class="a" d="M-.565,0A7.851,7.851,0,0,0-6.6,2.524,8.284,8.284,0,0,0-9.12,8.631,8.407,8.407,0,0,0-6.6,14.77,8.168,8.168,0,0,0-.565,17.264a8.31,8.31,0,0,0,5.2-1.761,8.674,8.674,0,0,0,3-4.57H4.16a6,6,0,0,1-1.884,2.205,5.326,5.326,0,0,1-2.842.833A5.11,5.11,0,0,1-4.3,12.4,4.98,4.98,0,0,1-5.833,8.631,4.984,4.984,0,0,1-4.3,4.86,5.111,5.111,0,0,1-.565,3.293a5.1,5.1,0,0,1,2.842.863A5.753,5.753,0,0,1,4.16,6.362H7.64a8.547,8.547,0,0,0-3-4.57A7.976,7.976,0,0,0-.565,0" transform="translate(9.12 0.001)"/></g><g transform="translate(23.721 11.254)"><path class="a" d="M-.39,0c-2.236-.034-3.8.575-4.7,1.759a5.284,5.284,0,0,0-.956,2.911H-2.72a2.132,2.132,0,0,1,.478-1.215A1.973,1.973,0,0,1-.485,2.813a2.912,2.912,0,0,1,1.625.319,1.2,1.2,0,0,1,.576,1.121A1.1,1.1,0,0,1,.95,5.276l-2.556.412a8.04,8.04,0,0,0-2.872.867A3.757,3.757,0,0,0-6.3,10.17a3.567,3.567,0,0,0,1.114,2.843,4.274,4.274,0,0,0,2.716.928,6.479,6.479,0,0,0,4.276-1.377v1.377H5.134V4.156A3.422,3.422,0,0,0,3.471.864,7.7,7.7,0,0,0-.39,0m1.4,7.512.637-.348V8.5a2.808,2.808,0,0,1-.925,2.4,3.5,3.5,0,0,1-2.077.672,1.828,1.828,0,0,1-1.18-.382A1.658,1.658,0,0,1-3.01,9.88a1.657,1.657,0,0,1,.8-1.5A4.4,4.4,0,0,1-.646,7.928Z" transform="translate(6.298 0.003)"/></g><path class="a" d="M42.993-30.954H39.671v17.329h3.321Z" transform="translate(-21.219 38.822)"/><g transform="translate(37.385 11.319)"><path class="a" d="M-.365-.028A5.313,5.313,0,0,0-2.728,1.857V.163l-3.16-.03v13.3H-2.6V7.07a4.74,4.74,0,0,1,.416-2.335A3.12,3.12,0,0,1-1.033,3.457,3.22,3.22,0,0,1,.788,2.88l1.019.066L1.776-.445.915-.38Z" transform="translate(5.888 0.445)"/></g><g transform="translate(57.659 1.667)"><path class="a" d="M-.139-.67,7.878-8.694,5.769-10.8-2.245-2.78Z" transform="translate(2.245 10.803)"/></g><path class="a" d="M77.529-39.342H74.56v8.6h2.969Z" transform="translate(-23.382 39.342)"/><path class="a" d="M85.282-20.244h8.78v-2.973h-8.78Z" transform="translate(-24.046 38.342)"/></g></svg>