<svg id="Group_2674" data-name="Group 2674" xmlns="http://www.w3.org/2000/svg" viewBox="780 6008 35 35">
  <defs>
    <style>
      .cls-1 {
        fill: #e0242f;
        stroke: #8a181a;
      }

      .cls-2 {
        fill: #fff;
      }

      .cls-3 {
        stroke: none;
      }

      .cls-4 {
        fill: none;
      }
    </style>
  </defs>
  <g id="Rectangle_227" data-name="Rectangle 227" class="cls-1" transform="translate(780 6008)">
    <rect class="cls-3" width="35" height="35" rx="6"/>
    <rect class="cls-4" x="0.5" y="0.5" width="34" height="34" rx="5.5"/>
  </g>
  <path id="Subtraction_9" data-name="Subtraction 9" class="cls-2" d="M4.1,8.208a4.1,4.1,0,1,1,4.1-4.1A4.109,4.109,0,0,1,4.1,8.208Zm0-6.157A2.052,2.052,0,1,0,6.157,4.1,2.054,2.054,0,0,0,4.1,2.052Z" transform="translate(793.792 6018)"/>
  <rect id="Rectangle_224" data-name="Rectangle 224" class="cls-2" width="2" height="5" transform="translate(797 6011)"/>
  <rect id="Rectangle_225" data-name="Rectangle 225" class="cls-2" width="2" height="7" transform="translate(806.511 6011.649) rotate(45)"/>
  <rect id="Rectangle_226" data-name="Rectangle 226" class="cls-2" width="2" height="6" transform="translate(809.243 6019.831) rotate(90)"/>
  <path id="Path_1432" data-name="Path 1432" class="cls-2" d="M785.342,6038.738c1.577-.01,6.086.129,9.182.066s2.763-.1,3.2-.316a3.625,3.625,0,0,0,1.471-3.169c.061-2.47-3.714-8.046-8.369-7.809s-7.533,4.33-8.106,6.836S783.766,6038.748,785.342,6038.738Z" transform="translate(7)"/>
</svg>
