<svg id="Group_2673" data-name="Group 2673" xmlns="http://www.w3.org/2000/svg" viewBox="737.3 6007.3 25.222 34.9">
  <defs>
    <style>
      .cls-1 {
        fill: #de2530;
        stroke: #8b191b;
        stroke-width: 1.4px;
      }
    </style>
  </defs>
  <path id="Exclusion_1" data-name="Exclusion 1" class="cls-1" d="M12.06,33.5A1.188,1.188,0,0,1,11,32.859C9.709,31.221,3.154,22.764,1.182,17.091A11.848,11.848,0,0,1,.307,14.61,11.975,11.975,0,0,1,0,11.911,11.914,11.914,0,0,1,22.886,7.275a11.836,11.836,0,0,1,.936,4.636,11.864,11.864,0,0,1-1.32,5.455A87.911,87.911,0,0,1,16.929,27.3c-.5.782-.947,1.5-1.341,2.141a15.314,15.314,0,0,1-2.566,3.574A1.2,1.2,0,0,1,12.06,33.5ZM11.911,6.7a5.492,5.492,0,1,0,2.144.433A5.474,5.474,0,0,0,11.911,6.7Z" transform="translate(738 6008)"/>
</svg>
