<svg xmlns="http://www.w3.org/2000/svg" viewBox="4155.171 1832.236 25.485 26.736"><defs><style>.a{fill:#da272c;}.b{fill:none;}</style></defs><g transform="translate(4136 1312)"><g transform="translate(19.171 520.236)"><path class="a" d="M24.859,17.392a11.471,11.471,0,0,1-22.82.021H.913a.891.891,0,0,1-.772-1.335l2.523-4.367a.892.892,0,0,1,1.543,0l2.519,4.367a.891.891,0,0,1-.772,1.335h-.98A8.555,8.555,0,1,0,8.73,9.083,1.513,1.513,0,0,1,6.7,8.812a1.456,1.456,0,0,1,.334-2.1,11.413,11.413,0,0,1,4.993-1.869V3.19H10.861a.726.726,0,0,1-.726-.726V1.726A.726.726,0,0,1,10.861,1h5.418A.726.726,0,0,1,17,1.726V2.46a.726.726,0,0,1-.726.726H14.99V4.858a11.488,11.488,0,0,1,9.869,12.534Z" transform="translate(-0.02 -0.958)"/><path class="a" d="M512.783,78.906l-2.194-2.027a.731.731,0,0,0-1.03.042l-.58.63a.731.731,0,0,0,.042,1.03l2.194,2.027a.731.731,0,0,0,1.03-.042l.58-.63a.734.734,0,0,0-.042-1.03Z" transform="translate(-487.565 -73.488)"/><path d="M321.1,196.7" transform="translate(-307.707 -188.496)"/><rect class="b" width="25.485" height="26.736"/><path d="M233.983,202.345a3.1,3.1,0,0,1,.409,1.606,3.4,3.4,0,0,1-.838,2.348,3.611,3.611,0,0,1-2.423,1.109v1.61h-1.356v-1.6a3.527,3.527,0,0,1-3.274-3.074l2.086-.542a1.811,1.811,0,0,0,1.919,1.76,1.493,1.493,0,0,0,1.122-.375,1.276,1.276,0,0,0,.359-.909,1,1,0,0,0-.359-.834,6.431,6.431,0,0,0-1.593-.722,9.433,9.433,0,0,1-1.735-.763,2.855,2.855,0,0,1-1.014-1.051,3.14,3.14,0,0,1-.392-1.581,3.5,3.5,0,0,1,.7-2.127,3.114,3.114,0,0,1,2.19-1.155V194.8h1.347v1.243a3.254,3.254,0,0,1,2.924,2.557l-1.856.755c-.363-1.043-.922-1.568-1.681-1.568a1.223,1.223,0,0,0-.913.35,1.168,1.168,0,0,0-.346.847.951.951,0,0,0,.334.78,5.718,5.718,0,0,0,1.426.672,12.785,12.785,0,0,1,1.881.826,3.015,3.015,0,0,1,1.089,1.084Z" transform="translate(-217.053 -186.675)"/></g></g></svg>