<svg xmlns="http://www.w3.org/2000/svg" xmlns:xlink="http://www.w3.org/1999/xlink" viewBox="544 6820.523 218.469 180.527"><defs><style>.a{fill:none;}.b{clip-path:url(#a);}.c{fill-rule:evenodd;}</style><clipPath id="a"><path class="a" d="M0-341.05H218.469v180.527H0Z" transform="translate(0 341.05)"/></clipPath></defs><g transform="translate(544 6820.523)"><g class="b"><g transform="translate(0 0)"><path class="c" d="M-7.551-37.871C-9.838-32.1-11.795-26.419-9.778-20.013Q5.77,29.374,20.929,78.884c2.739,9,12.17,16.273,22.01,16.1q50.8-.885,101.612-.9c11.866-.012,24.553-10.29,27.056-22.149a16.3,16.3,0,0,0-1.447-11.79,68.516,68.516,0,0,1-4.074-8,3.678,3.678,0,0,1,.91-3.293c.528-.465,2.739-.123,3.1.5,4.087,7.067,8.766,13.957,6.765,22.908-2.324,10.406-8.424,17.862-17.45,23.116a27.371,27.371,0,0,1-13.862,3.7c-34.4.265-68.791.684-103.187.983A26.429,26.429,0,0,1,16.3,81.11C9.72,60.194,3.252,39.243-3.258,18.3-7.232,5.523-11.349-7.216-15.114-20.059c-2.262-7.715-.121-15.066,3.481-21.884,2-3.794,6.064-3.478,8.085.355a33.3,33.3,0,0,1,2.09,5.682Q15.754,19.327,32.939,74.57c1.287,4.133,4.175,5.89,9.474,5.842q20.508-.189,41.015-.4c20.641-.188,41.282-.31,61.92-.609a25.838,25.838,0,0,0,8.756-1.559,10.444,10.444,0,0,0,4.641-4.3c1.5-2.5.688-3.563-2.22-3.554-6.351.019-12.7.124-19.052.183q-39.427.369-78.855.707a48.03,48.03,0,0,1-6.852-.511c-5.823-.8-10.474-3.608-12.664-9.154-3.164-8.01-6.115-16.126-8.7-24.342-9.5-30.243-18.8-60.55-28.2-90.823C.214-60.348.259-66.486,4.3-72.126c3.209-4.479,7.53-7.142,13.158-7.206,32.016-.366,64.034-.612,96.048-1.127,5.236-.084,8.432,2.071,10.265,6.574,3.121,7.665,6.05,15.409,9.066,23.117.656,1.678.279,3.052-1.443,3.644s-2.813-.312-3.45-1.963c-2.6-6.739-5.232-13.462-7.858-20.188-.32-.819-.671-1.626-1.007-2.44-1-2.437-2.565-3.516-5.452-3.484-31.048.354-62.1.557-93.147.788-4.488.033-8.569.931-11.526,4.727-3.307,4.246-3.425,8.878-1.9,13.779q6.467,20.813,12.9,41.636C26.311,6.254,32.623,26.792,39.066,47.29c1.21,3.849,2.878,7.561,4.45,11.288a10.13,10.13,0,0,0,9.415,6.608q11.222.432,22.464.355c26.814-.2,53.628-.516,80.442-.781a17.711,17.711,0,0,1,2.378.077c4.983.624,7.384,4.228,6,9.08-1.872,6.576-6.843,9.617-13.106,10.184-7.183.649-14.437.589-21.662.669q-43.4.478-86.794.852c-8.28.081-12.69-3.056-15.088-10.778Q10.3,19.212-6.982-36.417c-.154-.5-.378-.97-.569-1.455" transform="translate(16.044 80.461)"/></g><g transform="translate(100.321 34.333)"><path class="c" d="M-43.714-82.282c22.944.407,42.275-18.6,42.646-41.93.366-23-18.368-42.724-40.927-43.091a42.493,42.493,0,0,0-43.564,41.765A42.51,42.51,0,0,0-43.714-82.282m39.4-11.338c6.182,6.3,12.333,12.6,18.518,18.869,2.849,2.886,5.774,5.7,8.647,8.559,2.823,2.814,3.205,5.97,1.012,8.094-2.215,2.146-5.037,1.789-7.872-1.018Q3.208-71.769-9.567-84.429c-.614-.608-1.26-1.185-1.875-1.762C-35.5-66.974-66.485-73.916-81.97-93.4a50.523,50.523,0,0,1,3.637-66.828,49.284,49.284,0,0,1,65.771-3.81A50.479,50.479,0,0,1-4.314-93.619" transform="translate(92.875 174.817)"/></g></g></g></svg>