<svg xmlns="http://www.w3.org/2000/svg" viewBox="-320.015 4674 53.327 63.993"><g transform="translate(-429 3782)"><g transform="translate(108.985 892)"><path d="M44.462,36.263a13.824,13.824,0,0,0-3.2.387V4.7a4.7,4.7,0,0,0-4.7-4.7H9.7A4.7,4.7,0,0,0,5,4.7v54.6a4.7,4.7,0,0,0,4.7,4.7H36.563a4.614,4.614,0,0,0,2.827-.974,13.86,13.86,0,1,0,5.071-26.756Zm-6.119,1.443c-.066.032-.133.063-.2.1-.234.119-.461.249-.686.381-.118.068-.235.14-.35.212-.2.129-.408.259-.606.4-.128.09-.251.187-.375.282q-.462.349-.893.735c-.138.124-.277.244-.411.373-.153.148-.3.3-.444.458-.123.13-.243.261-.36.4-.141.162-.281.325-.414.493-.11.139-.212.282-.317.423q-.333.454-.629.935c-.093.15-.189.3-.275.452-.108.19-.2.385-.3.58-.08.158-.157.317-.231.479-.089.194-.175.388-.254.587s-.148.394-.218.593c-.081.231-.159.465-.227.7-.085.294-.163.591-.229.892-.033.153-.06.308-.087.463q-.075.408-.126.822c-.017.139-.034.275-.047.415-.005.063-.017.126-.021.189H7.133V8.532h32v28.8C38.861,37.444,38.6,37.576,38.343,37.706ZM9.7,2.133H36.563A2.568,2.568,0,0,1,39.129,4.7V6.4h-32V4.7A2.568,2.568,0,0,1,9.7,2.133ZM37.025,61.818a2.644,2.644,0,0,1-.461.042H9.7a2.568,2.568,0,0,1-2.565-2.565v-8.1H30.651c.015.191.029.38.051.568.017.139.043.275.063.414.062.417.141.827.24,1.231.031.128.063.254.1.381a13.618,13.618,0,0,0,.443,1.342c.021.055.039.113.062.169a13.829,13.829,0,0,0,1.582,2.87c.058.081.118.158.178.238q.4.541.858,1.039c.071.079.141.158.213.235a13.93,13.93,0,0,0,2.519,2.088C36.981,61.784,37,61.8,37.025,61.818Zm7.437.042a11.667,11.667,0,0,1-4.5-.9l-.24-.109c-.089-.039-.174-.084-.26-.126a11.657,11.657,0,0,1-1.086-.587c-.1-.059-.193-.113-.287-.175-.161-.1-.317-.215-.471-.327-.115-.083-.229-.169-.341-.256-.144-.112-.288-.225-.426-.343-.121-.1-.236-.212-.352-.32q-.328-.3-.63-.631c-.1-.112-.21-.224-.31-.341-.121-.141-.235-.286-.348-.431-.085-.11-.169-.222-.251-.334-.111-.154-.222-.308-.325-.467-.068-.106-.131-.215-.2-.323q-.264-.435-.492-.894c-.061-.124-.123-.245-.179-.371q-.114-.253-.214-.512c-.058-.147-.112-.3-.164-.446s-.113-.317-.162-.478C33.14,53.2,33.063,52.9,33,52.6c-.027-.123-.046-.246-.068-.37-.043-.234-.08-.467-.108-.7-.014-.114-.028-.228-.038-.343-.032-.348-.054-.7-.054-1.055s.022-.719.054-1.072c.012-.126.029-.251.045-.375q.042-.334.1-.666c.028-.148.055-.3.089-.444.043-.192.094-.379.146-.567.044-.156.082-.314.132-.467.092-.286.2-.565.308-.842.077-.187.164-.368.251-.55.057-.119.112-.24.173-.357.093-.181.192-.359.294-.535.064-.11.13-.218.2-.325.11-.176.221-.352.34-.522.061-.086.127-.169.19-.254a11.918,11.918,0,0,1,.8-.965c.065-.07.127-.144.194-.213.146-.151.3-.294.454-.437.089-.083.178-.165.27-.245q.24-.21.492-.406c.085-.066.173-.13.259-.194.186-.137.372-.273.567-.4l.042-.026A11.719,11.719,0,0,1,40.49,39.1c.07-.026.14-.053.211-.077l.315-.111A11.732,11.732,0,1,1,44.462,61.86Z" transform="translate(-5)"/><path d="M47.923,41.458l-5.968,8.575-4.212-3.457a1.066,1.066,0,1,0-1.352,1.648l5.1,4.19a1.064,1.064,0,0,0,.676.243.972.972,0,0,0,.146-.011,1.068,1.068,0,0,0,.73-.447l6.628-9.523a1.067,1.067,0,0,0-1.751-1.219Z" transform="translate(-2.937 2.728)"/><path d="M22.266,49a4.266,4.266,0,1,0,4.266,4.266A4.27,4.27,0,0,0,22.266,49Zm0,6.4A2.133,2.133,0,1,1,24.4,53.266,2.135,2.135,0,0,1,22.266,55.4Z" transform="translate(-4.135 3.261)"/><path d="M18.067,5.133h4.266a1.067,1.067,0,0,0,0-2.133H18.067a1.067,1.067,0,0,0,0,2.133Z" transform="translate(-4.201 0.2)"/><path d="M25.067,5.133h1.067a1.067,1.067,0,1,0,0-2.133H25.067a1.067,1.067,0,0,0,0,2.133Z" transform="translate(-3.736 0.2)"/></g></g></svg>