<svg xmlns="http://www.w3.org/2000/svg" viewBox="-74 4674 69.041 63.993"><defs><style>.a{fill:none;}</style></defs><g transform="translate(-497 3782)"><g transform="translate(422.958 874.1)"><g transform="translate(12.919 33.317)"><path d="M91.5,137.467a1.281,1.281,0,0,1,.239-.7,1.767,1.767,0,0,1,.493-.521c.169-.113.268-.169.31-.141a4.594,4.594,0,0,0,1.535,1.183,4.644,4.644,0,0,0,2.027.465,2.949,2.949,0,0,0,1.633-.38,1.226,1.226,0,0,0,.563-1.084,1.041,1.041,0,0,0-.127-.507,1.235,1.235,0,0,0-.282-.352,1.779,1.779,0,0,0-.521-.253,5.1,5.1,0,0,0-.591-.183c-.155-.028-.394-.084-.732-.169q-.232-.063-.338-.084a11.3,11.3,0,0,1-1.436-.408,5.007,5.007,0,0,1-1.211-.634,2.682,2.682,0,0,1-.929-1.056,3.453,3.453,0,0,1-.324-1.521,3.286,3.286,0,0,1,1.267-2.7,5.309,5.309,0,0,1,3.407-1.014,6.232,6.232,0,0,1,3.168.676q1.14.676,1.14,1.521a1.214,1.214,0,0,1-.268.746,2.365,2.365,0,0,1-.521.535c-.169.113-.268.169-.31.141a4.2,4.2,0,0,0-1.408-1.07,3.975,3.975,0,0,0-1.788-.422,2.658,2.658,0,0,0-1.535.38,1.214,1.214,0,0,0-.549,1.056,1.1,1.1,0,0,0,.042.31.714.714,0,0,0,.127.253,1.225,1.225,0,0,0,.169.2.669.669,0,0,0,.268.155,1.536,1.536,0,0,1,.3.127,1.921,1.921,0,0,0,.366.113c.169.042.3.07.394.084s.253.056.451.1.366.084.465.1a7.182,7.182,0,0,1,2.957,1.253,2.858,2.858,0,0,1,1.1,2.408,3.338,3.338,0,0,1-1.281,2.8,5.853,5.853,0,0,1-3.647,1,6.563,6.563,0,0,1-3.421-.746A1.979,1.979,0,0,1,91.5,137.467Z" transform="translate(-91.5 -127.4)"/><path d="M162.7,142.737a3,3,0,0,1,.141-.788l4.477-14.15c0-.056.183-.1.563-.1.9,0,1.352.352,1.352,1.042a3.532,3.532,0,0,1-.155.788l-4.449,14.15c-.028.056-.211.084-.563.084C163.151,143.793,162.7,143.441,162.7,142.737Z" transform="translate(-152.675 -127.658)"/></g><g transform="translate(0.042 17.9)"><path class="a" d="M226.5,85.8v.268a7.574,7.574,0,0,0,5.294,7.223A16.373,16.373,0,0,0,226.5,85.8Z" transform="translate(-194.615 -76.24)"/><path class="a" d="M237.593,49.122A7.563,7.563,0,1,0,230.3,38.787,18.8,18.8,0,0,1,237.593,49.122Z" transform="translate(-197.88 -31.733)"/><path class="a" d="M61.5,64.158a9.7,9.7,0,0,1,.155-1.7,16.4,16.4,0,1,0,8.054,11.391A9.813,9.813,0,0,1,61.5,64.158Z" transform="translate(-31.882 -54.33)"/><path class="a" d="M405.2,373.508l4.548,2.872,4.491-9.56L409.1,364.3Z" transform="translate(-348.155 -315.528)"/><path d="M69.069,317.323a.411.411,0,0,0-.028-.127c-.014-.042-.014-.084-.028-.113a774.746,774.746,0,0,1-.113-.225.253.253,0,0,0-.07-.1c-.028-.028-.042-.07-.07-.1a.611.611,0,0,0-.1-.084l-.084-.085a.781.781,0,0,0-.113-.07.607.607,0,0,0-.1-.056l-15.53-7.659a.423.423,0,0,0-.141-.056c-.268-.1-6.674-2.337-11.912.014l-11.559,4.182c-.028.014-.07.028-.1.042a3.859,3.859,0,0,0,1.408,7.364h.028c.113,0,.62-.028,5.885-.366,2.3-.141,4.66-.3,4.872-.31a1.275,1.275,0,0,0-.028-2.548c-.07,0-.07,0-5,.31-2.464.155-5.224.338-5.688.366a1.31,1.31,0,0,1-.451-2.478L41.7,311.043a.679.679,0,0,1,.1-.042c4.055-1.844,9.349-.183,9.983.014l6.913,3.407-3.8,8.969a7.719,7.719,0,0,0-6.266-.831l-15.516,4.66a7.3,7.3,0,0,1-5.59-.577l-24.3-13.165A1.124,1.124,0,0,1,2.7,312a1.07,1.07,0,0,1,1.338-.69L22.915,317.6a1.278,1.278,0,0,0,.817-2.422L4.809,308.861a.127.127,0,0,0-.07-.014,3.723,3.723,0,0,0-2.731,6.871l24.316,13.207a9.827,9.827,0,0,0,7.533.774l15.516-4.66a5.1,5.1,0,0,1,4.21.577l7.913,4.984a.424.424,0,0,0,.113.056c.014,0,.014.014.028.014h.014c.014.014.028.014.056.014s.07.028.1.042.042.014.056.014.07.014.1.028a.085.085,0,0,1,.056.014c.056,0,.1.014.155.014a.683.683,0,0,0,.169-.014.085.085,0,0,0,.056-.014.331.331,0,0,0,.113-.028c.014,0,.042-.014.056-.014s.07-.028.1-.042.042-.014.056-.028a.817.817,0,0,0,.1-.056.106.106,0,0,1,.056-.028c.028-.014.056-.042.084-.056s.042-.028.056-.042l.07-.07.056-.056a.294.294,0,0,0,.056-.085c.014-.014.028-.042.042-.056a.014.014,0,0,1,.014-.014.049.049,0,0,1,.014-.028.84.84,0,0,0,.056-.113l5.632-12c.014-.042.028-.07.042-.113a.971.971,0,0,1,.042-.113.39.39,0,0,0,.014-.127c0-.042.014-.085.014-.127a.577.577,0,0,0,0-.253Zm-7.434,10.335-4.548-2.872,3.9-9.208,5.139,2.52Z" transform="translate(-0.042 -266.805)"/><path d="M39.268,81.308A18.775,18.775,0,0,0,58.023,62.554a17.987,17.987,0,0,0-.211-2.774c-.253.014-.493.028-.746.028a8.768,8.768,0,0,1-1.619-.141,16.185,16.185,0,0,1,.253,2.886,16.444,16.444,0,1,1-8.307-14.277,10.31,10.31,0,0,1,.69-2.267,18.753,18.753,0,1,0-8.814,35.3Z" transform="translate(-17.619 -40.153)"/><path d="M210.4,27.728a9.813,9.813,0,0,0,8.209,9.687,10.182,10.182,0,0,0,1.619.141c.253,0,.507-.014.746-.028a9.828,9.828,0,1,0-9.729-13.784,9.607,9.607,0,0,0-.69,2.267A10,10,0,0,0,210.4,27.728Zm9.828-7.561a7.563,7.563,0,0,1,.267,15.122h-.267a8.025,8.025,0,0,1-2.267-.338,7.56,7.56,0,0,1-5.294-7.223V27.46a7.37,7.37,0,0,1,.521-2.506A7.578,7.578,0,0,1,220.228,20.167Z" transform="translate(-180.782 -17.9)"/></g><g transform="translate(36.179 26.461)"><path d="M256.7,80.066v-.38a.978.978,0,0,1,.267-.7,1.055,1.055,0,0,1,.789-.282h4.337a1.043,1.043,0,0,1,.774.282.955.955,0,0,1,.267.7v.38a.991.991,0,0,1-.267.7,1.037,1.037,0,0,1-.774.268h-4.351a1.037,1.037,0,0,1-.774-.268A.955.955,0,0,1,256.7,80.066Z" transform="translate(-256.7 -78.7)"/></g></g></g></svg>