<svg xmlns="http://www.w3.org/2000/svg" viewBox="4160.3 1680.633 18.632 25.533"><defs><style>.a{fill:#da272c;}.b{fill:#707070;}.c{fill:none;}</style></defs><g transform="translate(4136 1312)"><g transform="translate(-1.7 0.633)"><path class="a" d="M-22.155-29.159a.487.487,0,0,1-.486.488H-33.665a.488.488,0,0,1-.488-.488.487.487,0,0,1,.488-.486h11.024a.487.487,0,0,1,.486.486m0-3.214a.487.487,0,0,1-.486.486H-33.665a.488.488,0,0,1-.488-.486.488.488,0,0,1,.488-.488h11.024a.487.487,0,0,1,.486.488m2.236,7a.248.248,0,0,1-.247.248H-35.709a.248.248,0,0,1-.247-.248V-47.486a.247.247,0,0,1,.247-.247h11.754v3.76a.65.65,0,0,0,.65.648h3.385Zm-2.736-21.349,1.928,2.1h-1.928Zm-.366-2.313H-35.709a1.547,1.547,0,0,0-1.545,1.545v22.118a1.547,1.547,0,0,0,1.545,1.545h15.542a1.547,1.547,0,0,0,1.545-1.545V-44.251Z" transform="translate(63.254 417.031)"/><path class="b" d="M-6.669-6.731a1.882,1.882,0,0,1,.247.976,2.067,2.067,0,0,1-.51,1.428,2.2,2.2,0,0,1-1.474.674v.978h-.819v-.974a2.144,2.144,0,0,1-1.989-1.867l1.266-.33A1.1,1.1,0,0,0-8.783-4.776.9.9,0,0,0-8.1-5a.774.774,0,0,0,.218-.553A.609.609,0,0,0-8.1-6.066,3.914,3.914,0,0,0-9.071-6.5a5.691,5.691,0,0,1-1.055-.464,1.739,1.739,0,0,1-.617-.64,1.9,1.9,0,0,1-.238-.961,2.129,2.129,0,0,1,.424-1.293,1.894,1.894,0,0,1,1.332-.7v-.755h.819v.755A1.981,1.981,0,0,1-6.629-9.01l-1.128.463c-.22-.635-.559-.952-1.02-.952a.745.745,0,0,0-.556.213.707.707,0,0,0-.21.516.578.578,0,0,0,.2.474,3.482,3.482,0,0,0,.866.409,7.733,7.733,0,0,1,1.144.5,1.792,1.792,0,0,1,.662.654" transform="translate(43.788 384.669)"/><path class="c" d="M0-63H18.632v25.533H0Z" transform="translate(26 431)"/></g></g></svg>