<svg xmlns="http://www.w3.org/2000/svg" viewBox="-400.488 4674 63.992 63.993"><defs><style>.a{fill:none;}</style></defs><g transform="translate(-444 3782)"><g transform="translate(43.512 892)"><g transform="translate(30.248 16.718)"><g transform="translate(0.444)"><path d="M247.685,141.5a1.286,1.286,0,0,0-1.385,1.385V156.5a1.385,1.385,0,0,0,2.771,0V142.885A1.3,1.3,0,0,0,247.685,141.5Z" transform="translate(-246.3 -141.5)"/></g><ellipse cx="1.816" cy="1.816" rx="1.816" ry="1.816" transform="translate(0 20.524)"/></g><path d="M152.766,17.2H125.894a4.707,4.707,0,0,0-4.694,4.694V76.5a4.707,4.707,0,0,0,4.694,4.694h26.872a4.7,4.7,0,0,0,4.694-4.694v-54.6a4.7,4.7,0,0,0-4.694-4.694Zm-29.427,8.527h32V66.264h-32Zm2.555-6.389h26.872a2.574,2.574,0,0,1,2.569,2.555V23.6h-32V21.894a2.554,2.554,0,0,1,2.555-2.555Zm26.872,59.716H125.894a2.574,2.574,0,0,1-2.569-2.555v-8.11h32.009V76.5a2.566,2.566,0,0,1-2.569,2.555Zm0,0" transform="translate(-107.334 -17.2)"/><path d="M228.563,405.8a4.27,4.27,0,1,0,4.263,4.263,4.273,4.273,0,0,0-4.263-4.263Zm0,6.389a2.132,2.132,0,1,1,2.125-2.138,2.135,2.135,0,0,1-2.125,2.138Zm0,0" transform="translate(-196.568 -353.535)"/><path d="M233.863,43.125h4.263a1.063,1.063,0,0,0,0-2.125h-4.263a1.063,1.063,0,0,0,0,2.125Zm0,0" transform="translate(-203.924 -37.799)"/><path class="a" d="M18.1,81.193H82.092V17.2H18.1" transform="translate(-18.1 -17.2)"/></g></g></svg>