<svg xmlns="http://www.w3.org/2000/svg" xmlns:xlink="http://www.w3.org/1999/xlink" viewBox="14407.645 4044.894 146.403 24.416"><defs><style>.a{fill:none;}.b{clip-path:url(#a);}.c{fill:#ff2d16;fill-rule:evenodd;}</style><clipPath id="a"><path class="a" d="M0-29.31H146.4V-4.894H0Z" transform="translate(0 29.31)"/></clipPath></defs><g transform="translate(14407.645 4044.894)"><g class="b" transform="translate(0 0)"><g transform="translate(0 0)"><path class="c" d="M-3.913-2.449a7.379,7.379,0,0,1-6.84,7.325h-7.795l-4.889,4.875h12.6a8.177,8.177,0,0,0,7.88-7.938,7.928,7.928,0,0,0-.955-4.176ZM-5.249.627a6.484,6.484,0,0,0,.783-2.751H-8A8.612,8.612,0,0,1-8.47.627Zm-3.45.546a8.248,8.248,0,0,1-2.283,3.074,6.285,6.285,0,0,0,5.35-3.074ZM-9.1.627a11.1,11.1,0,0,0,.545-2.751h-5.35A11.14,11.14,0,0,0-13.36.627Zm-4.873,0a8.921,8.921,0,0,1-.486-2.751h-3.535A7.158,7.158,0,0,0-17.21.627Zm2.752,3.067A8.746,8.746,0,0,0-9.339,1.173h-3.783a8.5,8.5,0,0,0,1.9,2.521m-5.673-2.521a6.476,6.476,0,0,0,5.443,3.074,7.3,7.3,0,0,1-2.292-3.074Zm8.424-6.6A7.768,7.768,0,0,1-8-2.679h3.536A6.292,6.292,0,0,0-5.249-5.43Zm2.836-.639a6.5,6.5,0,0,0-5.35-3.066A7.9,7.9,0,0,1-8.7-6.069Zm-7.726.639a10.708,10.708,0,0,0-.546,2.751h5.35A10.672,10.672,0,0,0-9.1-5.43Zm-3.85,0a6.923,6.923,0,0,0-.784,2.751h3.535a7.988,7.988,0,0,1,.486-2.751Zm5.989-3.091a8.21,8.21,0,0,0-1.9,2.452h3.783a8.446,8.446,0,0,0-1.883-2.452m-2.522,2.452a7.032,7.032,0,0,1,2.292-3.066,6.7,6.7,0,0,0-5.443,3.066Zm-4.8,3.535A8.052,8.052,0,0,1-19.5-6.7a8.2,8.2,0,0,1,7.879-7.966H.977l-4.89,4.933h-7.795a7.383,7.383,0,0,0-6.84,7.2" transform="translate(23.437 14.665)"/></g><g transform="translate(139.09 5.178)"><path class="c" d="M0,0H3.141V.464H1.83V3.87H1.31V.464H0Z"/></g><g transform="translate(142.695 5.178)"><path class="c" d="M-.642-.776V-3.062c0-.112.012-.6.012-.964H-.642L-1.729-.776h-.517L-3.334-4.02h-.013c0,.355.013.846.013.959V-.776h-.508v-3.87h.749l1.1,3.271h.012l1.1-3.271h.743v3.87Z" transform="translate(3.842 4.646)"/></g><g transform="translate(31.245 4.143)"><path class="c" d="M-13.111-1.947a2.184,2.184,0,0,0-2.021-2.442A2.187,2.187,0,0,0-17.17-1.947C-17.17-.515-16.426.5-15.132.5c1.169,0,2.021-.97,2.021-2.448m-23.714-9.714a1.9,1.9,0,0,0-1.888,1.889,1.9,1.9,0,0,0,1.888,1.888,1.9,1.9,0,0,0,1.889-1.888,1.9,1.9,0,0,0-1.889-1.889M4.738,2.894H8.01V-2.1A1.817,1.817,0,0,1,9.777-4.07c1.134,0,1.776.736,1.776,1.971V2.894h3.272v-5.82a3.838,3.838,0,0,0-4-4.065A4.164,4.164,0,0,0,7.788-5.682H7.72l-.034-1.07H4.738Zm12.152,0h3.353V-1.578h.036l2.979,4.473h3.731L23.394-2.229l3.5-4.529H23.17L20.279-2.773h-.036v-7.959H16.89ZM-59.884-6.622a8.045,8.045,0,0,0-2.4-.388c-3.029,0-5.3,1.9-5.3,5.053A4.9,4.9,0,0,0-62.418,3.1a8.035,8.035,0,0,0,2.533-.423l-.164-2.818a3.967,3.967,0,0,1-1.7.5A2.25,2.25,0,0,1-64.1-1.957a2.277,2.277,0,0,1,2.387-2.334,3.821,3.821,0,0,1,1.663.471Zm29.811,4.586c0,1.6.893,2.6,2.048,2.6A2.276,2.276,0,0,0-25.959-1.9a2.252,2.252,0,0,0-2.066-2.522,2.193,2.193,0,0,0-2.048,2.391m25.207,0c0,1.6.894,2.6,2.048,2.6A2.276,2.276,0,0,0-.754-1.91,2.25,2.25,0,0,0-2.819-4.432,2.194,2.194,0,0,0-4.867-2.041M-78.375,2.535a14.085,14.085,0,0,0,3.884.546c2.87,0,5.734-1.017,5.734-4.167,0-4.323-5.963-3.725-5.963-5.448,0-.882.917-1.072,1.815-1.072a10.027,10.027,0,0,1,3.172.74l.271-2.978a11.666,11.666,0,0,0-3.431-.464c-2.833,0-5.628,1.106-5.628,3.912,0,4.248,5.946,3.361,5.946,5.59,0,.857-.856,1.183-1.948,1.183A8.68,8.68,0,0,1-78.046-.644ZM-40.14.259a4.168,4.168,0,0,1-.93.163,1.323,1.323,0,0,1-1.426-1.5V-4.345h2.113v-2.43H-42.5V-9.887h-3.363v3.112h-1.469v2.43h1.469V-.522c0,2.1.975,3.61,3.464,3.61a10.032,10.032,0,0,0,1.84-.184ZM-53.409.674c1.365,0,2.168-1.2,2.168-2.624,0-1.446-.765-2.644-2.168-2.644-1.468,0-2.169,1.2-2.169,2.644,0,1.427.8,2.624,2.169,2.624m32.933,2.212v-13.63h3.357v4.672h.037A5.256,5.256,0,0,1-14.164-7,4.6,4.6,0,0,1-9.629-2.12c0,3.472-2.13,5.221-4.556,5.221a4.013,4.013,0,0,1-3-1.1h-.055l-.047.886Zm-18.033-9.65h3.368V2.908h-3.368Zm15.866-.007V2.894H-25.91l-.049-.975h-.07a4.057,4.057,0,0,1-3.223,1.187c-2.335,0-4.382-2.028-4.382-5.053,0-2.808,1.814-5.049,4.6-5.049a3.829,3.829,0,0,1,2.955,1.1H-26l.032-.876Zm25.207,0V2.89H-.7l-.049-.975H-.824A4.056,4.056,0,0,1-4.045,3.1c-2.335,0-4.38-2.03-4.38-5.056C-8.425-4.76-6.612-7-3.828-7A3.818,3.818,0,0,1-.875-5.9h.087l.032-.875Zm-55.973,9.87c-3.274,0-5.619-1.968-5.619-5.044,0-3.039,2.429-5.061,5.619-5.061S-47.793-5-47.793-1.95c0,3.076-2.363,5.044-5.616,5.044" transform="translate(78.521 11.661)"/></g></g></g></svg>