<svg xmlns="http://www.w3.org/2000/svg" xmlns:xlink="http://www.w3.org/1999/xlink" width="121" height="46" viewBox="0 0 121 46">
    <defs>
        <path id="a" d="M0 .21h42.457v45.402H0z"/>
    </defs>
    <g fill="none" fill-rule="evenodd">
        <g transform="translate(0 .367)">
            <mask id="b" fill="#fff">
                <use xlink:href="#a"/>
            </mask>
            <path fill="#EC1D24" d="M8.829 21.541h24.797c.966 0 1.753.788 1.753 1.754v3.73H7.076v-3.73c0-.966.788-1.754 1.753-1.754zm-3.584-7.013H37.21c2.884 0 5.244 2.309 5.244 5.131v16.389c0 2.82-2.36 5.13-5.244 5.13h-7.41c2.897 0 5.578-2.363 5.578-5.26V34.1H7.076v1.817c0 2.897 2.3 5.26 5.196 5.26H5.245c-2.886 0-5.245-2.31-5.245-5.13V19.659c0-2.822 2.36-5.13 5.245-5.13zM0 43.601h42.456v2.011H.002L0 43.602zM21.227.211a5.961 5.961 0 1 1 0 11.922 5.961 5.961 0 0 1 0-11.923z" mask="url(#b)"/>
        </g>
        <path fill="#EC1D24" d="M99.243 38.342h2.21c.312 0 .57-.256.57-.57v-1.781h2.888v1.935a3.313 3.313 0 0 1-3.306 3.307h-6.696l-.085-.005-.084-.005-.083-.006-.082-.011-.083-.011-.08-.014-.084-.014-.077-.018-.08-.02-.078-.02v-.005l-.079-.019v-.002l-.076-.024-.078-.027-.075-.031-.075-.03-.072-.03-.074-.035-.072-.034-.07-.038v-.003l-.07-.037-.07-.042-.067-.04v-.002l-.068-.043v-.002l-.063-.043v-.003l-.065-.045v-.001l-.064-.047-.062-.05-.06-.053-.06-.05-.06-.056-.056-.054-.055-.058-.053-.059-.054-.06-.053-.058-.047-.064a3.143 3.143 0 0 1-.268-.397l-.04-.067v-.003l-.036-.068v-.002l-.038-.07v-.002l-.032-.071-.033-.073-.03-.076-.03-.073v-.003l-.025-.075-.028-.077-.022-.079-.02-.077-.02-.08-.019-.08v-.001l-.015-.08v-.001l-.014-.08-.011-.082v-.002l-.012-.082-.006-.081-.005-.084-.003-.085v-.001l-.002-.086v-6.614l.002-.085.003-.084.005-.083.006-.083.012-.084.01-.08v-.002l.015-.08v-.002l.015-.08v-.001l.02-.079.018-.078.021-.08.022-.078.028-.076.025-.076v-.001l.03-.076.03-.074v-.002l.033-.073.032-.071v-.001l.038-.072.035-.072.04-.07c.08-.138.17-.27.27-.392v-.002l.046-.063.053-.06.054-.06.053-.056.055-.06.056-.054.06-.056.06-.051.06-.05.062-.051.064-.049.065-.046.063-.046.068-.043.067-.042.07-.041.07-.04.07-.039.072-.034.074-.034.072-.034v-.001l.075-.03.075-.026.078-.028.076-.026.079-.023.079-.02.079-.02.077-.018.084-.016.08-.013.083-.013.082-.01.083-.006.084-.005.085-.003.085-.004h6.61a3.316 3.316 0 0 1 3.307 3.308v1.938h-2.888v-1.784a.57.57 0 0 0-.57-.567h-6.305a.579.579 0 0 0-.536.374l-.003.011-.006.017-.003.01-.005.014v.002l-.003.012-.003.013-.002.014-.002.015-.003.015-.002.014-.001.012V31.451l-.002.015v6.308l.002.014v.045l.003.014.003.015.002.012.002.014.003.013v.002l.003.011v.003l.005.012.003.014.006.013.003.011c.08.217.293.372.536.372h1.208v.003h2.887zM55.6 38.245h2.211a.57.57 0 0 0 .569-.567v-1.786h2.89v1.938a3.314 3.314 0 0 1-3.307 3.308h-6.612l-.084-.003-.086-.004-.085-.004-.082-.007-.08-.012-.085-.01-.08-.013-.083-.014-.08-.02-.08-.019-.077-.022-.079-.022-.077-.026v-.002l-.076-.023v-.002l-.075-.029-.075-.03-.072-.033v-.001l-.074-.032-.072-.035v-.001l-.069-.037-.073-.039v-.001l-.067-.042-.068-.04-.066-.045-.064-.047-.066-.045-.062-.05-.063-.05-.062-.05v-.001l-.058-.052v-.002l-.06-.05-.055-.057-.056-.058-.053-.058-.053-.058v-.001l-.051-.061-.05-.064a3.114 3.114 0 0 1-.267-.394l-.042-.068v-.002l-.037-.07-.035-.071-.034-.074v-.001l-.034-.071-.03-.077-.03-.074v-.001l-.024-.077-.027-.074v-.003l-.022-.078-.022-.078-.02-.079-.018-.08-.014-.083-.014-.08-.013-.08-.01-.083v-.002l-.006-.08L48.05 38l-.003-.083v-.003l-.002-.084v-6.613l.002-.086.003-.083.005-.086.007-.08v-.003l.009-.08v-.003l.013-.08v-.001l.014-.081v-.001l.014-.082v-.002l.018-.075v-.002l.02-.08.022-.075v-.003l.022-.077v-.003l.027-.072v-.004l.025-.073v-.002l.03-.075.03-.075.033-.074.034-.072.035-.073.037-.07v-.001l.042-.07c.078-.136.168-.27.267-.395l.05-.063.051-.06.053-.06.053-.058.056-.056.056-.056.059-.055.058-.051.062-.051v-.003l.063-.048.062-.049.066-.044.064-.049.066-.042.068-.042v-.002l.067-.04.073-.039.069-.038.072-.034v-.002l.074-.032v-.001l.072-.034.075-.028.075-.028.076-.029.077-.025v-.001l.08-.021v-.002l.077-.021.08-.019.079-.018v-.001l.083-.014.08-.014.085-.012.08-.01.082-.007.085-.005.086-.004h6.696a3.314 3.314 0 0 1 3.306 3.307v1.935h-2.889v-1.783a.573.573 0 0 0-.569-.57h-2.128v.003h-4.177a.575.575 0 0 0-.536.374l-.005.013-.005.013-.003.013v.002l-.005.01v.018l-.007.01v.016l-.004.013-.002.014-.002.014v.016l-.003.013V37.705l.003.016v.014l.002.016.002.013.004.013v.015l.007.013v.014l.005.014.003.012v.002l.005.012.005.013a.575.575 0 0 0 .536.373H55.6zm24.555-7.417l5.975.005c.313 0 .572.255.572.57v.614l2.89.014v-.767c0-1.816-1.488-3.323-3.304-3.323l-6.286-.007a3.297 3.297 0 0 0-3.307 3.287v1.454c0 1.82 1.487 3.328 3.307 3.328l5.925.003v-.002l.451.004c.315.002.57.26.57.57v1.146a.567.567 0 0 1-.57.566l-6.304-.037a.576.576 0 0 1-.57-.57v-.797l-2.89-.018v.951a3.34 3.34 0 0 0 3.307 3.326l6.612.036a3.294 3.294 0 0 0 3.31-3.287V36.441c0-1.819-1.49-3.326-3.31-3.326l-5.925-.005v.003l-.453-.003a.573.573 0 0 1-.567-.573V31.39c0-.312.255-.563.567-.563zM74.98 27.99l-2.93-.004.015 10.356-6.013.003a.577.577 0 0 1-.572-.573V27.99l-2.904.019v9.917a3.335 3.335 0 0 0 3.325 3.327h9.081L74.98 27.99zm35.14-.006h6.64a3.327 3.327 0 0 1 3.315 3.317v6.638a3.326 3.326 0 0 1-3.315 3.315h-6.64a3.327 3.327 0 0 1-3.319-3.315V31.3a3.328 3.328 0 0 1 3.32-3.317zm.216 2.974h6.208a.56.56 0 0 1 .556.559v6.206a.56.56 0 0 1-.556.56h-6.208a.564.564 0 0 1-.56-.56v-6.206c0-.306.253-.56.56-.56zM54.531 23.328h1.9a.49.49 0 0 0 .482-.496v-1.527h2.484v1.662a2.845 2.845 0 0 1-2.837 2.839H50.88l-.067-.006h-.077l-.067-.006-.07-.008-.072-.003-.071-.011-.07-.013-.068-.011-.07-.013-.074-.019-.062-.015v-.004l-.07-.015-.07-.018-.056-.032-.066-.024-.071-.029-.063-.027-.05-.025-.076-.03-.055-.032-.06-.04-.056-.034-.056-.036-.06-.037-.058-.036v-.003l-.057-.043-.053-.036-.052-.044-.048-.045-.06-.04-.05-.052-.046-.048-.04-.047-.05-.043-.05-.061-.044-.049-.04-.055a5.039 5.039 0 0 1-.233-.34l-.032-.059-.034-.066-.022-.057-.038-.063-.02-.068-.026-.055v-.003l-.032-.065v-.003l-.02-.071-.023-.057-.022-.067-.016-.07-.017-.073-.01-.065-.015-.068-.012-.072-.01-.066-.004-.068-.006-.07-.01-.075-.006-.072-.001-.076v-5.672l.001-.074.007-.07.009-.073.006-.07V17l.004-.062v-.005l.01-.073.012-.065.014-.067.011-.076.017-.066.016-.062.022-.073.023-.063.02-.064.032-.07.027-.06.02-.057v-.009l.037-.063.022-.06.034-.058.032-.069c.074-.113.15-.23.233-.333l.04-.057.044-.054.05-.046.05-.044.04-.06.045-.045.052-.042v-.006l.06-.04.047-.054.052-.032.053-.043.057-.04.058-.033v-.006l.06-.044.056-.032.056-.032.06-.031.055-.035.075-.034.051-.03v-.01l.063-.017.071-.027.066-.024.055-.02.072-.028.069-.011.062-.02.074-.023.07-.014.067-.012.07-.012.072-.013.072-.008.07-.001.067-.001.077-.008.067-.002h5.681a2.85 2.85 0 0 1 2.837 2.841v1.66h-2.484v-1.529a.483.483 0 0 0-.482-.488h-5.415a.506.506 0 0 0-.461.315l-.003.015-.003.013-.004.014-.004.013-.005.008V17.344l-.002.007v.004l-.004.008V17.39l-.004.003v5.468l.004.014v.02l.004.013.002.017v.023l.005.007.004.017.004.01.003.016.003.005a.505.505 0 0 0 .46.324h3.516zm9.013-6.37h5.411c.264 0 .48.224.48.483v2.233h-6.363v2.487h6.363V25.8l2.498-.017v-8.47a2.853 2.853 0 0 0-2.842-2.847h-5.684a2.848 2.848 0 0 0-2.838 2.848v8.47l2.503.016-.015-8.36c0-.258.22-.481.487-.481zm17.41 6.364h-5.016c-.275-.045-.502-.131-.491-.49v-1.574l-2.478.006v1.701a2.837 2.837 0 0 0 2.832 2.835h5.28a2.839 2.839 0 0 0 2.833-2.835v-8.472l-2.487-.027.006 8.366c0 .27-.214.49-.48.49zm7.293-6.363h5.408a.49.49 0 0 1 .484.482v2.233h-6.368v2.487h6.368V25.8l2.485-.017v-8.47a2.847 2.847 0 0 0-2.84-2.847h-5.675a2.843 2.843 0 0 0-2.831 2.848v8.47l2.493.016-.017-8.36c0-.258.221-.481.493-.481z"/>
    </g>
</svg>
