<svg id="Capa_1" data-name="Capa 1" xmlns="http://www.w3.org/2000/svg" xmlns:xlink="http://www.w3.org/1999/xlink" viewBox="0 0 112.17 33.62"><defs><style>.cls-1,.cls-2,.cls-3{fill:#fff;}.cls-1{clip-rule:evenodd;}.cls-3{fill-rule:evenodd;}.cls-4{clip-path:url(#clip-path);}.cls-5{clip-path:url(#clip-path-2);}.cls-6{clip-path:url(#clip-path-3);}.cls-7{clip-path:url(#clip-path-5);}.cls-8{clip-path:url(#clip-path-7);}.cls-9{fill:#004481;}</style><clipPath id="clip-path"><path class="cls-1" d="M71.94,7.62c1.93,0,2.43.48,3.16,2.65L83,33.61H76L74.24,28H64.77l-1.71,5.61H59l8-26ZM73.07,24.2H65.91l3.55-11.86Z"/></clipPath><clipPath id="clip-path-2"><rect class="cls-2" x="-768" y="-240.38" width="1440" height="1570"/></clipPath><clipPath id="clip-path-3"><path class="cls-1" d="M33,33.62H22v-26H33.39c5.35,0,7.21,4.32,4.5,8.31l-1.28,1.88C45.58,22.43,42.66,33.62,33,33.62Zm-1.3-14.57,2.18-3.23a3.11,3.11,0,0,0,.67-1.89,3,3,0,0,0-3-2.92H28.15V30.13H30c3.11,0,5.47-1.67,5.47-5.58,0-3.23-1.52-4.95-3.8-5.5Z"/></clipPath><clipPath id="clip-path-5"><path class="cls-1" d="M11,33.62H0v-26H11.4c5.34,0,7.2,4.32,4.49,8.31l-1.28,1.88C23.57,22.43,20.66,33.62,11,33.62ZM9.69,19.05l2.18-3.23a3,3,0,0,0,.67-1.89,3,3,0,0,0-3-2.92H6.16V30.13H8c3.11,0,5.47-1.67,5.47-5.58,0-3.23-1.52-4.95-3.8-5.5Z"/></clipPath><clipPath id="clip-path-7"><path class="cls-1" d="M58.83,7.62H63l-8,26H48.63L40,7.62h4.66c1.8,0,2.28.45,3.22,3.4l5,16.34,6-19.74"/></clipPath></defs><title>Mesa de trabajo 1</title><path class="cls-3" d="M71.94,7.62c1.93,0,2.43.48,3.16,2.65L83,33.61H76L74.24,28H64.77l-1.71,5.61H59l8-26ZM73.07,24.2H65.91l3.55-11.86Z"/><g class="cls-4"><rect class="cls-2" x="-768" y="-240.38" width="1440" height="1570"/><g class="cls-5"><rect class="cls-2" x="54" y="2.62" width="34" height="36"/></g></g><path class="cls-3" d="M33,33.62H22v-26H33.39c5.35,0,7.21,4.32,4.5,8.31l-1.28,1.88C45.58,22.43,42.66,33.62,33,33.62Zm-1.3-14.57,2.18-3.23a3.11,3.11,0,0,0,.67-1.89,3,3,0,0,0-3-2.92H28.15V30.13H30c3.11,0,5.47-1.67,5.47-5.58,0-3.23-1.52-4.95-3.8-5.5Z"/><g class="cls-6"><rect class="cls-2" x="-768" y="-240.38" width="1440" height="1570"/><g class="cls-5"><rect class="cls-2" x="17" y="2.62" width="30" height="36"/></g></g><path class="cls-3" d="M11,33.62H0v-26H11.4c5.34,0,7.2,4.32,4.49,8.31l-1.28,1.88C23.57,22.43,20.66,33.62,11,33.62ZM9.69,19.05l2.18-3.23a3,3,0,0,0,.67-1.89,3,3,0,0,0-3-2.92H6.16V30.13H8c3.11,0,5.47-1.67,5.47-5.58,0-3.23-1.52-4.95-3.8-5.5Z"/><g class="cls-7"><rect class="cls-2" x="-768" y="-240.38" width="1440" height="1570"/><g class="cls-5"><rect class="cls-2" x="-5" y="2.62" width="30" height="36"/></g></g><path class="cls-3" d="M58.83,7.62H63l-8,26H48.63L40,7.62h4.66c1.8,0,2.28.45,3.22,3.4l5,16.34,6-19.74"/><g class="cls-8"><rect class="cls-2" x="-768" y="-240.38" width="1440" height="1570"/><g class="cls-5"><rect class="cls-2" x="35" y="2.62" width="33" height="36"/></g></g><path class="cls-9" d="M80.79,4.55,71.15,22.92a.58.58,0,0,1-1,0L60.48,4.55a.57.57,0,0,0-.5-.29H55.32a.41.41,0,0,0-.37.61l15.2,28.45a.56.56,0,0,0,1,0L86.33,4.87A.41.41,0,0,0,86,4.26H81.29a.57.57,0,0,0-.5.29"/><path class="cls-9" d="M86.27,29.06,95.92,10.7a.58.58,0,0,1,1,0l9.66,18.37a.55.55,0,0,0,.49.3h4.67a.42.42,0,0,0,.37-.62L96.92.29a.57.57,0,0,0-1,0L80.73,28.74a.42.42,0,0,0,.37.62h4.68a.57.57,0,0,0,.49-.3"/><path class="cls-9" d="M14.11,29.36H5.41a.56.56,0,0,1-.56-.56V21a.56.56,0,0,1,.56-.56h8.7c4.14,0,6,1.18,6,4.46s-1.81,4.46-6,4.46M5.42,8.5H14c3.16,0,4.77,1.35,4.77,3.85s-1.6,3.84-4.77,3.84H5.42a.56.56,0,0,1-.56-.56V9.06a.56.56,0,0,1,.56-.56m14.93,9.3a6.31,6.31,0,0,0,3.27-5.87c0-4.57-3.57-7.67-8.6-7.67H.56A.56.56,0,0,0,0,4.81V33.06a.57.57,0,0,0,.56.56H14.39c6.92,0,10.57-3,10.57-8.81s-4.61-7-4.61-7"/><path class="cls-9" d="M43.77,29.36H35.08a.56.56,0,0,1-.56-.56V21a.56.56,0,0,1,.56-.56h8.69c4.15,0,6,1.18,6,4.46s-1.81,4.46-6,4.46M35.08,8.5h8.58c3.16,0,4.77,1.35,4.77,3.85s-1.61,3.84-4.77,3.84H35.08a.56.56,0,0,1-.56-.56V9.06a.56.56,0,0,1,.56-.56M50,17.8a6.29,6.29,0,0,0,3.27-5.87c0-4.57-3.56-7.67-8.59-7.67H30.22a.55.55,0,0,0-.55.55V33.06a.56.56,0,0,0,.55.56H44.05c6.92,0,10.57-3,10.57-8.81s-4.61-7-4.61-7"/></svg>