<?xml version="1.0" encoding="UTF-8"?>
<svg width="122px" height="52px" viewBox="0 0 122 52" version="1.1" xmlns="http://www.w3.org/2000/svg" xmlns:xlink="http://www.w3.org/1999/xlink">
    <title>caja-arequipa-logo</title>
    <defs>
        <polygon id="path-1" points="0 0 20.9060393 0 20.9060393 23.0332239 0 23.0332239"></polygon>
        <polygon id="path-3" points="0 7.45256898e-15 6.84728054 7.45256898e-15 6.84728054 9.72198462 0 9.72198462"></polygon>
        <polygon id="path-5" points="4.96837932e-15 0 10.9054444 0 10.9054444 10.1878864 4.96837932e-15 10.1878864"></polygon>
        <polygon id="path-7" points="0 0 10.9053488 0 10.9053488 10.1878864 0 10.1878864"></polygon>
        <polygon id="path-9" points="0 0 10.9053912 0 10.9053912 10.1879071 0 10.1879071"></polygon>
    </defs>
    <g id="caja-arequipa-logo" stroke="none" stroke-width="1" fill="none" fill-rule="evenodd">
        <g id="Group-62">
            <path d="M62.0445428,24.882112 C62.0445428,25.5864187 61.8415892,26.3393223 61.4358568,27.1397742 C61.0301243,27.9411 60.4118238,28.703793 59.5807804,29.4285524 C58.7495621,30.1538362 57.7022796,30.7371749 56.4391075,31.178918 C55.1754111,31.6206611 53.7524633,31.8417949 52.1699146,31.8417949 C48.8051851,31.8417949 46.1785005,30.8237055 44.2903852,28.7866526 C42.4017454,26.7499494 41.4576003,24.0192532 41.4576003,20.5943893 C41.4576003,18.2746698 41.8897289,16.2239818 42.7543358,14.442675 C43.618593,12.6613682 44.8688291,11.2838708 46.5046946,10.3103578 C48.1403853,9.33684476 50.0954526,8.85000084 52.3695469,8.85000084 C53.7788595,8.85000084 55.0724484,9.06431705 56.2494394,9.49207542 C57.4264305,9.92035822 58.4238924,10.4727556 59.2418251,11.1490928 C60.0597579,11.8259545 60.6845264,12.5473925 61.1168298,13.3137565 C61.5489584,14.0801205 61.7651975,14.7947409 61.7651975,15.457443 C61.7651975,16.1343046 61.5225622,16.7075044 61.0371167,17.1766925 C60.5514965,17.6464051 59.9630883,17.8809992 59.2717175,17.8809992 C58.8194859,17.8809992 58.4438207,17.760206 58.1445471,17.5186195 C57.8454484,17.2772079 57.5094649,16.8866839 57.1371211,16.3482712 C56.4719717,15.298891 55.7772795,14.5118995 55.0525201,13.9869471 C54.3274111,13.4621696 53.4068653,13.1997808 52.289659,13.1997808 C50.6803645,13.1997808 49.3838039,13.852344 48.3996275,15.1572954 C47.4152763,16.4622469 46.9235377,18.2472247 46.9235377,20.5117045 C46.9235377,21.5750695 47.0497501,22.5519039 47.3025243,23.4425573 C47.554949,24.3332107 47.9209996,25.092932 48.3996275,25.7210218 C48.878605,26.3494613 49.457049,26.8259915 50.1351343,27.1502627 C50.8133944,27.4748836 51.5580821,27.6369318 52.3695469,27.6369318 C53.4598325,27.6369318 54.3941883,27.3748927 55.1722645,26.8497655 C55.9503407,26.3251628 56.6383901,25.5241865 57.2369372,24.4471864 C57.5690749,23.8121042 57.928308,23.3151213 58.3141122,22.9558882 C58.6997415,22.5968299 59.1719014,22.4171259 59.7304172,22.4171259 C60.3952169,22.4171259 60.9474395,22.6796895 61.3862109,23.2042922 C61.8249823,23.7292446 62.0445428,24.2886344 62.0445428,24.882112" id="Fill-1" fill="#020203"></path>
            <path d="M80.1975628,20.5116346 C79.3997331,20.8154531 78.2393489,21.1365778 76.716585,21.4748338 C75.1936464,21.8132647 74.1398959,22.0618435 73.5548091,22.2203955 C72.9693727,22.3792972 72.410857,22.6901081 71.8790871,23.1526536 C71.3471424,23.6153738 71.0812574,24.2607698 71.0812574,25.0893659 C71.0812574,25.9457567 71.3934668,26.6738374 72.0187597,27.274657 C72.643703,27.8753018 73.4616357,28.1756242 74.4723832,28.1756242 C75.5495581,28.1756242 76.5436986,27.9305415 77.4548047,27.4403762 C78.3655612,26.9502109 79.0338572,26.3184501 79.4595179,25.5449189 C79.9514313,24.6888778 80.1975628,23.2804392 80.1975628,21.3194284 L80.1975628,20.5116346 Z M80.5567959,28.6934094 C79.2399574,29.7569492 77.9666464,30.5542544 76.7365133,31.0856747 C75.5062054,31.617095 74.1264355,31.8833296 72.5972037,31.8833296 C71.200827,31.8833296 69.9741901,31.5964675 68.9167686,31.0236174 C67.8595219,30.4507673 67.0447357,29.6740896 66.4731093,28.6934094 C65.9011332,27.7130788 65.61532,26.6497137 65.61532,25.5034891 C65.61532,23.957126 66.0871303,22.6383646 67.0317998,21.5472049 C67.9757701,20.4567444 69.2723307,19.7246431 70.9214817,19.3516 C71.2672545,19.2689152 72.1250438,19.0823937 73.4948495,18.792385 C74.8644804,18.5023764 76.0383249,18.2366663 77.0158586,17.9950798 C77.9933922,17.7534933 79.0536107,17.4598137 80.1975628,17.1145653 C80.1309604,15.6232671 79.841651,14.5289609 79.3298094,13.8316465 C78.8177929,13.134507 77.75705,12.7855876 76.1481052,12.7855876 C74.7648391,12.7855876 73.7243741,12.9859191 73.0261858,13.3862324 C72.3278226,13.7868954 71.7296251,14.3875401 71.2307194,15.1883416 C70.7321632,15.9893178 70.3795729,16.5174167 70.1734727,16.7728131 C69.9671977,17.0285591 69.525105,17.1561699 68.8468449,17.1561699 C68.2350123,17.1561699 67.7063889,16.9525171 67.2609748,16.5450366 C66.8152111,16.1379057 66.5928537,15.6164496 66.5928537,14.9810177 C66.5928537,13.9868772 66.9318089,13.0205314 67.610069,12.0812809 C68.2883291,11.1423802 69.3455758,10.3691986 70.7819839,9.76138664 C72.2182171,9.1539243 74.0066912,8.85010573 76.1481052,8.85010573 C78.541769,8.85010573 80.4235912,9.14361055 81.7935717,9.73027058 C83.1632026,10.317455 84.1305973,11.2460421 84.6959306,12.5163813 C85.2610891,13.7868954 85.5439306,15.4713578 85.5439306,17.5702932 C85.5439306,18.896047 85.5404344,20.0216441 85.5339665,20.9465601 C85.5269741,21.8720006 85.5171848,22.9007534 85.5038993,24.0329932 C85.5038993,25.0965331 85.6734643,26.2044744 86.0125943,27.3573418 C86.3517244,28.5105588 86.5212894,29.2526243 86.5212894,29.5840628 C86.5212894,30.16408 86.258551,30.692179 85.7334239,31.1685343 C85.2077723,31.6448897 84.6128962,31.8833296 83.9480964,31.8833296 C83.3894059,31.8833296 82.8375329,31.6104523 82.2921279,31.0650472 C81.7467228,30.519817 81.1682788,29.7291545 80.5567959,28.6934094 L80.5567959,28.6934094 Z" id="Fill-3" fill="#020203"></path>
            <path d="M93.8623888,6.26091768 C93.1042408,6.26091768 92.4560479,6.01950603 91.9174604,5.53580868 C91.3786981,5.05263575 91.1094918,4.36913137 91.1094918,3.48529551 C91.1094918,2.68466889 91.3853409,2.02493856 91.9372139,1.5071534 C92.4890869,0.989368232 93.1308118,0.730475649 93.8623888,0.730475649 C94.5670451,0.730475649 95.1921632,0.965419357 95.7375682,1.43460754 C96.2827984,1.90432014 96.5553261,2.58782453 96.5553261,3.48529551 C96.5553261,4.35532143 96.2892664,5.03550444 95.7574965,5.52549493 C95.2253769,6.01583503 94.5936161,6.26091768 93.8623888,6.26091768 M96.5553261,12.2677151 L96.5553261,31.4483166 C96.5553261,32.8153254 96.5119734,33.9302592 96.4257924,34.7934675 C96.339087,35.6563262 96.2163709,36.2810947 96.05677,36.6679477 C95.1523066,39.0707016 93.2306279,40.272166 90.2915591,40.272166 C88.6424081,40.272166 87.3925215,40.0372223 86.5412002,39.5678593 C85.6904033,39.0983215 85.2645678,38.4148171 85.2645678,37.5173461 C85.2645678,36.8544692 85.4575573,36.3123856 85.8430118,35.89127 C86.2289908,35.4698047 86.7343645,35.2595091 87.3591329,35.2595091 C87.4390208,35.2595091 87.5685545,35.2698229 87.7480837,35.2904504 C87.9277876,35.3114275 88.1938474,35.3352016 88.5460881,35.363171 C88.8983289,35.3906161 89.141139,35.404426 89.2741689,35.404426 C90.005571,35.404426 90.4941631,35.107425 90.7404694,34.5137726 C90.9864261,33.9199454 91.1094918,32.8567552 91.1094918,31.3240272 L91.1094918,12.2677151 C91.1094918,11.1491103 91.3619164,10.3070539 91.867465,9.74067174 C92.3728387,9.1746392 93.0376385,8.89144813 93.8623888,8.89144813 C94.6603933,8.89144813 95.3085862,9.17114302 95.8074919,9.73035799 C96.3060481,10.289573 96.5553261,11.13565 96.5553261,12.2677151" id="Fill-5" fill="#020203"></path>
            <g id="Group-9" transform="translate(100.964017, 8.850106)">
                <mask id="mask-2" fill="white">
                    <use xlink:href="#path-1"></use>
                </mask>
                <g id="Clip-8"></g>
                <path d="M14.5824175,11.6615288 C13.7844131,11.9653474 12.6240289,12.2864721 11.1014398,12.6247281 C9.57850114,12.9631589 8.52457584,13.2117378 7.93948909,13.3702898 C7.35422753,13.5291915 6.79571179,13.8400024 6.26394188,14.3025478 C5.73182235,14.7652681 5.4659374,15.410664 5.4659374,16.2392602 C5.4659374,17.0956509 5.77832163,17.8237317 6.40361452,18.4245513 C7.02838298,19.0251961 7.84631573,19.3255185 8.85723795,19.3255185 C9.93441289,19.3255185 10.9283786,19.0804358 11.8396595,18.5902705 C12.750416,18.1001052 13.418712,17.4683444 13.8441978,16.6948132 C14.3361112,15.838772 14.5824175,14.4303334 14.5824175,12.4693226 L14.5824175,11.6615288 Z M14.9414759,19.8433036 C13.6248122,20.9068434 12.3511516,21.7041487 11.1213681,22.235569 C9.89106018,22.7669893 8.51129033,23.0332239 6.9818837,23.0332239 C5.58550696,23.0332239 4.35887006,22.7463618 3.30144856,22.1735117 C2.24420188,21.6006616 1.4294157,20.8239838 0.857789267,19.8433036 C0.285988026,18.862973 0,17.799608 0,16.6533834 C0,15.1070203 0.471985128,13.7882589 1.41647981,12.6970992 C2.36045007,11.6066387 3.6571855,10.8745373 5.30616169,10.5014943 C5.6519345,10.4188095 6.50972377,10.232288 7.8797043,9.94227931 C9.24933522,9.65227067 10.4231797,9.38656053 11.4007134,9.14497406 C12.3780722,8.9033876 13.4384654,8.60970797 14.5824175,8.26445959 C14.5156404,6.77316139 14.2265058,5.67885513 13.7146641,4.98154081 C13.2024729,4.28440129 12.14173,3.93548192 10.53296,3.93548192 C9.14951911,3.93548192 8.10922892,4.13581338 7.41086574,4.5361267 C6.71267737,4.93678963 6.11430512,5.5374344 5.61557416,6.33823584 C5.11684321,7.13921208 4.76425284,7.667311 4.55832748,7.92270739 C4.3520525,8.17845341 3.90978495,8.3060642 3.23169965,8.3060642 C2.61969227,8.3060642 2.09124373,8.10241136 1.64582962,7.69493087 C1.20006589,7.28779999 0.977533642,6.76634383 0.977533642,6.130912 C0.977533642,5.13677147 1.3166637,4.17042563 1.994749,3.23117522 C2.67318392,2.29227444 3.7304306,1.51909287 5.16666387,0.911280915 C6.60307194,0.303818575 8.39154595,0 10.53296,0 C12.9266238,0 14.808446,0.293504826 16.1782517,0.880164859 C17.5478826,1.46734932 18.5152773,2.39593636 19.0806106,3.66627559 C19.6459439,4.93678963 19.9286106,6.62125211 19.9286106,8.72018745 C19.9286106,10.0459412 19.9251144,11.1715384 19.9186464,12.0964544 C19.9116541,13.0218949 19.9018647,14.0506476 19.8885792,15.1828875 C19.8885792,16.2464273 20.0583191,17.3543687 20.3974491,18.5072361 C20.7365792,19.6604531 20.9061442,20.4025186 20.9061442,20.733957 C20.9061442,21.3139743 20.6434058,21.8420732 20.1181039,22.3184286 C19.5926271,22.794784 18.9975762,23.0332239 18.3327764,23.0332239 C17.7740859,23.0332239 17.2222129,22.7603465 16.6769827,22.2149415 C16.1315776,21.6697113 15.5531336,20.8790488 14.9414759,19.8433036 L14.9414759,19.8433036 Z" id="Fill-7" fill="#020203" mask="url(#mask-2)"></path>
            </g>
            <path d="M46.8984351,45.8779334 C46.6418151,45.9721556 46.2684224,46.0714473 45.7786067,46.1763328 C45.288791,46.2812184 44.949661,46.3583093 44.7613913,46.4074307 C44.5731217,46.456727 44.3934178,46.5528721 44.2224543,46.6962157 C44.0513159,46.8395593 43.9658342,47.0395412 43.9658342,47.2961613 C43.9658342,47.5615218 44.0661747,47.7870258 44.2673802,47.9731977 C44.4684109,48.1593696 44.731499,48.2523682 45.0566443,48.2523682 C45.4031163,48.2523682 45.7230173,48.1763261 46.0161726,48.0245916 C46.3089781,47.8726823 46.5239936,47.6770707 46.6610441,47.4374072 C46.8192465,47.1720466 46.8984351,46.7357226 46.8984351,46.1282603 L46.8984351,45.8779334 Z M47.0139841,48.4128431 C46.5904211,48.7423586 46.1808429,48.9893642 45.7850746,49.1538598 C45.3893064,49.3187049 44.9454655,49.4010401 44.4535522,49.4010401 C44.0042922,49.4010401 43.6095728,49.312237 43.2693939,49.1348055 C42.9293898,48.9571993 42.6671759,48.7164869 42.4834513,48.4128431 C42.2993771,48.1090245 42.2074274,47.7796838 42.2074274,47.4246461 C42.2074274,46.945319 42.3591619,46.5369644 42.6629804,46.1988832 C42.966799,45.860802 43.383894,45.6340744 43.9144403,45.5185254 C44.025619,45.4930033 44.3014681,45.4351414 44.7421623,45.3452894 C45.1828566,45.2554374 45.5604447,45.173277 45.8749266,45.0982838 C46.1894086,45.0232907 46.5304615,44.9325646 46.8984351,44.8254065 C46.8771084,44.3635603 46.783935,44.0244303 46.6192647,43.808366 C46.4545943,43.5924765 46.1133665,43.4842695 45.5957562,43.4842695 C45.1508665,43.4842695 44.8161067,43.5463268 44.5914767,43.6704414 C44.3668467,43.794556 44.1742069,43.9805531 44.0139068,44.2286075 C43.8534318,44.4768368 43.7401554,44.6404583 43.6737278,44.7196469 C43.6073003,44.7988355 43.4651803,44.8383424 43.2470183,44.8383424 C43.050183,44.8383424 42.8800936,44.7752362 42.73675,44.6491987 C42.5934063,44.5228116 42.5219093,44.3612878 42.5219093,44.1644525 C42.5219093,43.8566133 42.6309903,43.557165 42.8491523,43.2661075 C43.0673144,42.9753996 43.4074933,42.7357361 43.8695143,42.5472916 C44.3315353,42.3591968 44.9068327,42.2649746 45.5957562,42.2649746 C46.3657912,42.2649746 46.9711558,42.3560503 47.4118501,42.5378519 C47.8523695,42.7196536 48.1637049,43.0073897 48.3455066,43.4008855 C48.5273082,43.794556 48.6182091,44.3163618 48.6182091,44.9666524 C48.6182091,45.3774543 48.6171602,45.7261989 48.6150625,46.0127113 C48.6129648,46.2993986 48.6096434,46.618076 48.605448,46.9689182 C48.605448,47.2984338 48.6599885,47.6417593 48.7690695,47.9988947 C48.8781505,48.3562049 48.932691,48.5860791 48.932691,48.6886922 C48.932691,48.8683962 48.8482581,49.0320177 48.6792175,49.1797315 C48.5101769,49.3272706 48.3187607,49.4010401 48.1047941,49.4010401 C47.925265,49.4010401 47.7476587,49.3166072 47.572325,49.1475666 C47.3968165,48.978526 47.2106445,48.7336182 47.0139841,48.4128431 L47.0139841,48.4128431 Z" id="Fill-10" fill="#020203"></path>
            <path d="M52.1350402,46.8726682 L52.1350402,48.3358221 C52.1350402,48.6908598 52.0514813,48.9572692 51.8847133,49.1347007 C51.7179452,49.3121321 51.5060763,49.40111 51.2494562,49.40111 C50.9968568,49.40111 50.789533,49.3112581 50.6267855,49.1315541 C50.4642128,48.9518501 50.3831013,48.6866644 50.3831013,48.3358221 L50.3831013,43.4586425 C50.3831013,42.6714762 50.6675161,42.2779804 51.2365204,42.2779804 C51.527403,42.2779804 51.7371742,42.3699301 51.8654842,42.5538295 C51.9937943,42.7377289 52.0644172,43.0093826 52.0771783,43.3687905 C52.2867747,43.0093826 52.5017901,42.7377289 52.7222247,42.5538295 C52.9424844,42.3699301 53.2365136,42.2779804 53.6044872,42.2779804 C53.9724608,42.2779804 54.329771,42.3699301 54.6762431,42.5538295 C55.0228899,42.7377289 55.1959511,42.9815879 55.1959511,43.2852316 C55.1959511,43.499373 55.1221816,43.6757556 54.9746426,43.8149038 C54.8271035,43.9538772 54.6676774,44.0232765 54.4965391,44.0232765 C54.4323841,44.0232765 54.2773282,43.9839444 54.0313715,43.904581 C53.78524,43.8253924 53.5681269,43.7858855 53.3798573,43.7858855 C53.1232372,43.7858855 52.9136408,43.8531871 52.7510682,43.9881399 C52.5884955,44.122743 52.4622832,44.3228997 52.3724312,44.5880854 C52.2825792,44.8534459 52.2205219,45.1688019 52.1862593,45.5346778 C52.1519967,45.9003789 52.1350402,46.3463174 52.1350402,46.8726682" id="Fill-12" fill="#020203"></path>
            <path d="M57.2880689,45.2746315 L60.4645288,45.2746315 C60.4217006,44.6757348 60.2601768,44.2276985 59.9801322,43.9301731 C59.6997381,43.6328225 59.3308905,43.4842346 58.8730649,43.4842346 C58.4367409,43.4842346 58.0783818,43.635095 57.7981625,43.9368158 C57.5179432,44.2381871 57.3478537,44.6843004 57.2880689,45.2746315 M60.7148558,46.2692964 L57.2880689,46.2692964 C57.2922644,46.6673372 57.3725018,47.0181795 57.5287813,47.3218233 C57.6848861,47.6256418 57.8923847,47.8544672 58.1511025,48.0084742 C58.4099951,48.1624812 58.6956335,48.2395721 59.0078429,48.2395721 C59.2174392,48.2395721 59.4090302,48.214924 59.5822663,48.1656278 C59.7555023,48.1165064 59.9233192,48.0395903 60.0858919,47.9347047 C60.2484645,47.8298191 60.3982761,47.7177663 60.5351518,47.5978472 C60.6722023,47.477928 60.8498086,47.3155301 61.0679706,47.1101292 C61.1576477,47.0330383 61.2861326,46.9945802 61.4529007,46.9945802 C61.6326046,46.9945802 61.778046,47.0438765 61.8893995,47.1422941 C62.0005782,47.2405369 62.0561676,47.3795103 62.0561676,47.5592143 C62.0561676,47.7177663 61.9939355,47.9025398 61.8699957,48.1144087 C61.7458811,48.3261027 61.5586603,48.529406 61.308683,48.7239687 C61.0581812,48.9187063 60.7436993,49.0802301 60.3652372,49.2085401 C59.9866002,49.3368501 59.5511502,49.4010052 59.0592368,49.4010052 C57.9339893,49.4010052 57.0590687,49.0802301 56.4346499,48.4385051 C55.8098814,47.7967801 55.497672,46.926055 55.497672,45.8266793 C55.497672,45.3090689 55.5747629,44.8286929 55.7287699,44.385901 C55.8826021,43.943109 56.1072321,43.563598 56.402485,43.2468435 C56.6977379,42.9302639 57.0613413,42.6874537 57.4934699,42.5184131 C57.9255985,42.3495473 58.4047508,42.2649396 58.9309268,42.2649396 C59.6153052,42.2649396 60.2024897,42.4093321 60.6924802,42.6982919 C61.1822959,42.9870769 61.5492206,43.3602948 61.7929048,43.8179455 C62.0367637,44.2757711 62.1587806,44.7419875 62.1587806,45.2169444 C62.1587806,45.6576387 62.0325683,45.9431023 61.7801437,46.0736848 C61.527719,46.2040926 61.1726813,46.2692964 60.7148558,46.2692964" id="Fill-14" fill="#020203"></path>
            <path d="M65.001617,45.8267142 C65.001617,46.2973009 65.077659,46.7026837 65.2293935,47.0426878 C65.381128,47.3826919 65.5812846,47.6352913 65.8293391,47.7999617 C66.0773935,47.964632 66.3450265,48.0469672 66.6317138,48.0469672 C66.9437484,48.0469672 67.2306105,47.964632 67.4916007,47.7999617 C67.7522414,47.6352913 67.9620126,47.3839155 68.1205646,47.0460091 C68.2785922,46.7079279 68.3577809,46.2908329 68.3577809,45.7943745 C68.3577809,45.4438818 68.311806,45.1271274 68.2198563,44.8448103 C68.1279066,44.5624933 68.0027432,44.3282488 67.8445407,44.1420769 C67.6859887,43.9560798 67.5043618,43.8171064 67.2991357,43.7249819 C67.0937348,43.6328574 66.8755728,43.5868826 66.6443,43.5868826 C66.1738882,43.5868826 65.7823153,43.7816201 65.4701059,44.1709205 C65.1577217,44.5603956 65.001617,45.1122686 65.001617,45.8267142 M68.4348718,50.8320291 L68.4348718,48.3614492 C68.0967906,48.6995304 67.7448994,48.9571993 67.3793732,49.1348055 C67.0134973,49.312237 66.6079397,49.4010401 66.1632248,49.4010401 C65.6197427,49.4010401 65.1245079,49.2576965 64.6775205,48.9710092 C64.2305331,48.6844968 63.879516,48.272646 63.6251685,47.7358067 C63.3706462,47.1989673 63.2432102,46.566682 63.2432102,45.8394753 C63.2432102,45.0949625 63.371695,44.4565589 63.6281403,43.9239149 C63.8849351,43.3910962 64.2411965,42.9858882 64.6967496,42.7077666 C65.1523026,42.429645 65.6583756,42.2906716 66.214444,42.2906716 C66.6850306,42.2906716 67.1064958,42.3880404 67.4786649,42.5826031 C67.8510087,42.7775155 68.1695112,43.0736425 68.4348718,43.4713336 L68.4348718,43.2596396 C68.4348718,42.9388645 68.5117879,42.6950055 68.6659697,42.5280626 C68.8199767,42.3612945 69.0187349,42.2779105 69.2627686,42.2779105 C69.5064528,42.2779105 69.7055606,42.3602457 69.8593928,42.524916 C70.0135746,42.6897612 70.0904907,42.9346691 70.0904907,43.2596396 L70.0904907,50.8320291 C70.0904907,51.6106298 69.8144668,51.9999301 69.2627686,51.9999301 C68.920492,51.9999301 68.6969109,51.8952193 68.5920253,51.6856229 C68.4871397,51.4758518 68.4348718,51.191437 68.4348718,50.8320291" id="Fill-16" fill="#020203"></path>
            <path d="M76.3988691,48.4128256 L76.3988691,48.1881957 C76.189098,48.4533814 75.9688382,48.6759136 75.7377403,48.8554428 C75.5068172,49.0353216 75.2542178,49.1690507 74.9806412,49.2566301 C74.706715,49.3442096 74.3943308,49.3882616 74.0434885,49.3882616 C73.6201004,49.3882616 73.2404146,49.3003325 72.9046059,49.1251735 C72.5687972,48.949665 72.3088558,48.7080785 72.1249564,48.3998897 C71.9066196,48.0277207 71.7977134,47.4929791 71.7977134,46.7956647 L71.7977134,43.3239519 C71.7977134,42.9731096 71.8767272,42.7110705 72.0349296,42.5378344 C72.193132,42.3644236 72.4029032,42.277893 72.6638935,42.277893 C72.9290792,42.277893 73.142871,42.3654725 73.3057932,42.540981 C73.4680163,42.7164896 73.5494774,42.977305 73.5494774,43.3239519 L73.5494774,46.1282428 C73.5494774,46.5346744 73.58374,46.8759022 73.6522653,47.1517513 C73.7206157,47.4276004 73.8436815,47.6438395 74.0211129,47.7999442 C74.1987192,47.9562237 74.4392568,48.0341887 74.7430754,48.0341887 C75.0383283,48.0341887 75.3162751,47.9466092 75.5774402,47.7711007 C75.8382557,47.5955921 76.028623,47.3667667 76.1483674,47.0842749 C76.2469598,46.8363953 76.2960812,46.2929132 76.2960812,45.4543529 L76.2960812,43.3239519 C76.2960812,42.977305 76.3771928,42.7164896 76.540115,42.540981 C76.7025129,42.3654725 76.914207,42.277893 77.1751972,42.277893 C77.4361875,42.277893 77.6459587,42.3644236 77.8041611,42.5378344 C77.9623636,42.7110705 78.0415522,42.9731096 78.0415522,43.3239519 L78.0415522,48.3998897 C78.0415522,48.7336007 77.9656849,48.9839276 77.8137756,49.1508705 C77.6618664,49.3176386 77.4660799,49.4010226 77.2265912,49.4010226 C76.9869276,49.4010226 76.7890435,49.3143172 76.6331136,49.1410812 C76.4768341,48.9678452 76.3988691,48.725035 76.3988691,48.4128256" id="Fill-18" fill="#020203"></path>
            <path d="M81.5390144,43.272523 L81.5390144,48.3358746 C81.5390144,48.6867168 81.4556304,48.9519026 81.2886875,49.1316065 C81.1219194,49.3113105 80.9100505,49.4011625 80.6536053,49.4011625 C80.3968104,49.4011625 80.1882629,49.309038 80.0276131,49.1251386 C79.867313,48.9412392 79.7870755,48.6781512 79.7870755,48.3358746 L79.7870755,43.3239169 C79.7870755,42.9774449 79.867313,42.7164546 80.0276131,42.5409461 C80.1882629,42.3656123 80.3968104,42.2780329 80.6536053,42.2780329 C80.9100505,42.2780329 81.1219194,42.3656123 81.2886875,42.5409461 C81.4556304,42.7164546 81.5390144,42.9603136 81.5390144,43.272523 M80.6728343,41.4627223 C80.4288005,41.4627223 80.220253,41.3880787 80.047017,41.2382671 C79.873781,41.0884555 79.7870755,40.8767615 79.7870755,40.6030101 C79.7870755,40.3547809 79.8758787,40.1506036 80.0534849,39.9901287 C80.2309164,39.8296537 80.4373662,39.7494162 80.6728343,39.7494162 C80.899562,39.7494162 81.1004179,39.8223117 81.2757516,39.9677531 C81.4512601,40.1131944 81.5390144,40.3248885 81.5390144,40.6030101 C81.5390144,40.872566 81.4535327,41.0832112 81.2823943,41.2351205 C81.111256,41.3870298 80.9079528,41.4627223 80.6728343,41.4627223" id="Fill-20" fill="#020203"></path>
            <g id="Group-24" transform="translate(83.310217, 42.278015)">
                <mask id="mask-4" fill="white">
                    <use xlink:href="#path-3"></use>
                </mask>
                <g id="Clip-23"></g>
                <path d="M5.08887372,3.5293999 C5.08887372,3.0673789 5.01825076,2.67056178 4.87717965,2.33912333 C4.73593373,2.00751008 4.54014731,1.75298773 4.28982038,1.57520666 C4.03966827,1.39777522 3.76259551,1.30897209 3.45895175,1.30897209 C2.97542921,1.30897209 2.5677739,1.49951423 2.23651027,1.8802489 C1.9047222,2.26098357 1.73900298,2.8212474 1.73900298,3.56156481 C1.73900298,4.25887914 1.90367335,4.8009628 2.23318889,5.18816541 C2.56252963,5.57554283 2.97123378,5.76905674 3.45895175,5.76905674 C3.74983444,5.76905674 4.01921558,5.68444903 4.2676196,5.51540843 C4.5154992,5.34671745 4.71425738,5.09306915 4.86424376,4.75516276 C5.01388053,4.41708156 5.08887372,4.00855221 5.08887372,3.5293999 M1.65561894,0.981729066 L1.65561894,1.19342314 C1.98495968,0.786991498 2.3272363,0.488592012 2.682274,0.298224677 C3.03748651,0.107857342 3.43954792,0.0127610794 3.88880783,0.0127610794 C4.42791974,0.0127610794 4.92420336,0.151734478 5.37748389,0.429856085 C5.83093923,0.707802882 6.18947312,1.11440933 6.45256112,1.64897619 C6.71564913,2.18389267 6.84728054,2.81705198 6.84728054,3.54862892 C6.84728054,4.08756602 6.77123849,4.58280078 6.61950401,5.03415841 C6.46741992,5.48569085 6.25887241,5.86432781 5.99368669,6.16989448 C5.72832617,6.47616038 5.41506789,6.7112789 5.05356224,6.87594926 C4.6920566,7.04061963 4.30380513,7.12312962 3.88880783,7.12312962 C3.38832879,7.12312962 2.96791241,7.02243946 2.62790831,6.82140876 C2.2877294,6.62037806 1.96363294,6.32512514 1.65561894,5.93582481 L1.65561894,8.56687969 C1.65561894,9.33708949 1.37539962,9.72201959 0.814960987,9.72201959 C0.485445444,9.72201959 0.26728343,9.62237828 0.160474943,9.4236201 C0.0533168385,9.22468711 0,8.93485328 0,8.5539438 L0,0.994490145 C0,0.660779179 0.0727206715,0.411675917 0.218162015,0.24700555 C0.363603358,0.0821603741 0.562361539,7.45256898e-15 0.814960987,7.45256898e-15 C1.06301539,7.45256898e-15 1.26509495,0.0844328951 1.42154928,0.253298685 C1.57747918,0.422339285 1.65561894,0.665149412 1.65561894,0.981729066" id="Fill-22" fill="#020203" mask="url(#mask-4)"></path>
            </g>
            <path d="M95.8752655,45.8779334 C95.6184706,45.9721556 95.2452528,46.0714473 94.7554371,46.1763328 C94.2654466,46.2812184 93.9264913,46.3583093 93.7382217,46.4074307 C93.5499521,46.456727 93.3702481,46.5528721 93.1991098,46.6962157 C93.0281463,46.8395593 92.9426646,47.0395412 92.9426646,47.2961613 C92.9426646,47.5615218 93.0430051,47.7870258 93.2440358,47.9731977 C93.4452413,48.1593696 93.7083293,48.2523682 94.0334746,48.2523682 C94.3799467,48.2523682 94.6996729,48.1763261 94.9928281,48.0245916 C95.2859833,47.8726823 95.500824,47.6770707 95.6378745,47.4374072 C95.7960769,47.1720466 95.8752655,46.7357226 95.8752655,46.1282603 L95.8752655,45.8779334 Z M95.9906396,48.4128431 C95.5672515,48.7423586 95.1576733,48.9893642 94.761905,49.1538598 C94.3661367,49.3187049 93.9221211,49.4010401 93.4303825,49.4010401 C92.9809478,49.4010401 92.5862284,49.312237 92.2462243,49.1348055 C91.9062202,48.9571993 91.6440062,48.7164869 91.4601068,48.4128431 C91.2760326,48.1090245 91.1842577,47.7796838 91.1842577,47.4246461 C91.1842577,46.945319 91.3359922,46.5369644 91.6398108,46.1988832 C91.9436294,45.860802 92.3608992,45.6340744 92.8912706,45.5185254 C93.0022745,45.4930033 93.2784732,45.4351414 93.7191675,45.3452894 C94.1595121,45.2554374 94.5372751,45.173277 94.851757,45.0982838 C95.1660641,45.0232907 95.5072919,44.9325646 95.8752655,44.8254065 C95.8537639,44.3635603 95.7607654,44.0244303 95.5959202,43.808366 C95.4314247,43.5924765 95.0901969,43.4842695 94.5725865,43.4842695 C94.127522,43.4842695 93.792937,43.5463268 93.5683071,43.6704414 C93.3436771,43.794556 93.1510373,43.9805531 92.9905623,44.2286075 C92.8302622,44.4768368 92.7169857,44.6404583 92.650733,44.7196469 C92.5843055,44.7988355 92.4420107,44.8383424 92.2236739,44.8383424 C92.0268386,44.8383424 91.856924,44.7752362 91.7135803,44.6491987 C91.5702367,44.5228116 91.4987397,44.3612878 91.4987397,44.1644525 C91.4987397,43.8566133 91.6078207,43.557165 91.8259827,43.2661075 C92.0441447,42.9753996 92.3841488,42.7357361 92.8463446,42.5472916 C93.3081908,42.3591968 93.8834883,42.2649746 94.5725865,42.2649746 C95.3426215,42.2649746 95.9479862,42.3560503 96.3886804,42.5378519 C96.8291999,42.7196536 97.1403604,43.0073897 97.3223369,43.4008855 C97.5041386,43.794556 97.5950394,44.3163618 97.5950394,44.9666524 C97.5950394,45.3774543 97.5939906,45.7261989 97.5918929,46.0127113 C97.5897952,46.2993986 97.5864738,46.618076 97.5822784,46.9689182 C97.5822784,47.2984338 97.6368189,47.6417593 97.7458999,47.9988947 C97.8549809,48.3562049 97.9095214,48.5860791 97.9095214,48.6886922 C97.9095214,48.8683962 97.8250885,49.0320177 97.6560479,49.1797315 C97.4870073,49.3272706 97.2955911,49.4010401 97.0816245,49.4010401 C96.9020954,49.4010401 96.7243143,49.3166072 96.5489806,49.1475666 C96.3736468,48.978526 96.1874749,48.7336182 95.9906396,48.4128431 L95.9906396,48.4128431 Z" id="Fill-25" fill="#020203"></path>
            <g id="Group-29" transform="translate(22.146609, 0.000000)">
                <mask id="mask-6" fill="white">
                    <use xlink:href="#path-5"></use>
                </mask>
                <g id="Clip-28"></g>
                <path d="M4.96837932e-15,0.508170654 C4.96837932e-15,0.508170654 7.06194637,-1.0631902 9.44372317,1.32033469 C11.8255,3.7040344 10.6972807,8.48157275 10.1957528,10.1878864 C10.1957528,10.1878864 7.22906406,7.24899233 3.0729728,7.24899233 C2.88750013,7.24899233 0.626691364,1.07700014 4.96837932e-15,0.508170654" id="Fill-27" fill="#B16A3D" mask="url(#mask-6)"></path>
            </g>
            <g id="Group-32" transform="translate(0.000025, 0.000000)">
                <mask id="mask-8" fill="white">
                    <use xlink:href="#path-7"></use>
                </mask>
                <g id="Clip-31"></g>
                <path d="M7.83237599,7.24899233 C3.67645954,7.24899233 0.709595985,10.1878864 0.709595985,10.1878864 C0.208068084,8.48157275 -0.919976371,3.7040344 1.46180043,1.32033469 C3.84357723,-1.0631902 10.9053488,0.508170654 10.9053488,0.508170654 C10.2786574,1.07700014 8.01784866,7.24899233 7.83237599,7.24899233" id="Fill-30" fill="#74742F" mask="url(#mask-8)"></path>
            </g>
            <path d="M16.7144618,3.13303728 C16.7144618,3.13303728 19.430474,0.320879963 22.146661,0.508100731 C22.146661,0.508100731 25.7402159,2.99371426 25.1553039,7.42303247 C25.1553039,7.42303247 21.4923497,8.48150282 19.2705235,10.1878165 C19.2705235,10.1878165 15.7115808,5.4870194 16.7144618,3.13303728" id="Fill-33" fill="#EC6A60"></path>
            <path d="M16.3582004,3.13303728 C16.3582004,3.13303728 13.6420134,0.320879963 10.9260012,0.508100731 C10.9260012,0.508100731 7.24731416,2.81960419 7.8324009,7.2489224 C7.8324009,7.2489224 11.5803124,8.48150282 13.8021387,10.1878165 C13.8021387,10.1878165 17.3610814,5.4870194 16.3582004,3.13303728" id="Fill-35" fill="#F7AC33"></path>
            <path d="M20.2457321,7.73851083 C20.2457321,9.74130105 18.5836452,11.3649299 16.5333069,11.3649299 C14.4831433,11.3649299 12.8210565,9.74130105 12.8210565,7.73851083 C12.8210565,5.7357206 14.9423674,3.13298484 16.5333069,3.13298484 C17.977057,3.13298484 20.2457321,5.7357206 20.2457321,7.73851083" id="Fill-37" fill="#DF0914"></path>
            <path d="M25.2195988,25.4452077 C29.3756901,25.4452077 32.3423788,22.5063136 32.3423788,22.5063136 C32.8439067,24.2124525 33.9719512,28.9899908 31.5901744,31.3736905 C29.2083976,33.7573902 22.146626,32.1860294 22.146626,32.1860294 C22.7733174,31.6171999 25.0341261,25.4452077 25.2195988,25.4452077" id="Fill-39" fill="#077AA2"></path>
            <g id="Group-43" transform="translate(0.000000, 22.506244)">
                <mask id="mask-10" fill="white">
                    <use xlink:href="#path-9"></use>
                </mask>
                <g id="Clip-42"></g>
                <path d="M10.9053912,9.67971573 C10.9053912,9.67971573 3.84344482,11.2510766 1.46166802,8.86755169 C-0.920108785,6.48385199 0.208110479,1.70631364 0.70963838,0 C0.70963838,0 3.67632712,2.93889406 7.83241839,2.93889406 C8.01789106,2.93889406 10.278525,9.11088625 10.9053912,9.67971573" id="Fill-41" fill="#228438" mask="url(#mask-10)"></path>
            </g>
            <path d="M16.7144618,29.5610753 C16.7144618,29.5610753 19.430474,32.3732327 22.146661,32.1860119 C22.146661,32.1860119 25.7402159,29.7003984 25.1553039,25.2710802 C25.1553039,25.2710802 21.4923497,24.212435 19.2705235,22.5062962 C19.2705235,22.5062962 15.7115808,27.2070932 16.7144618,29.5610753" id="Fill-44" fill="#EC6A60"></path>
            <path d="M16.3582004,29.5610753 C16.3582004,29.5610753 13.6420134,32.3732327 10.9260012,32.1860119 C10.9260012,32.1860119 7.3044768,29.9421596 7.88956355,25.5128414 C7.88956355,25.5128414 11.5803124,24.212435 13.8021387,22.5062962 C13.8021387,22.5062962 17.3610814,27.2070932 16.3582004,29.5610753" id="Fill-46" fill="#F7AC33"></path>
            <path d="M20.2457321,24.9556018 C20.2457321,22.9528116 18.5836452,21.3291827 16.5333069,21.3291827 C14.4831433,21.3291827 12.8210565,22.9528116 12.8210565,24.9556018 C12.8210565,26.9585668 14.9423674,29.5611278 16.5333069,29.5611278 C17.977057,29.5611278 20.2457321,26.9585668 20.2457321,24.9556018" id="Fill-48" fill="#DF0914"></path>
            <path d="M3.4765026,16.6006959 C3.4765026,16.6006959 0.522400132,19.7900917 0.709620899,22.5062787 C0.709620899,22.5062787 3.46024534,26.0979107 7.88956355,25.5128239 C7.88956355,25.5128239 8.82514296,21.3785838 10.5312818,19.1569324 C10.5312818,19.1569324 5.83048473,15.5978149 3.4765026,16.6006959" id="Fill-50" fill="#08B1B7"></path>
            <path d="M3.4765026,16.2445044 C3.4765026,16.2445044 0.522400132,12.9038986 0.709620899,10.1878864 C0.709620899,10.1878864 3.40308269,6.66390558 7.8324009,7.24899233 C7.8324009,7.24899233 8.82514296,11.4666165 10.5312818,13.6884428 C10.5312818,13.6884428 5.83048473,17.2473854 3.4765026,16.2445044" id="Fill-52" fill="#93C031"></path>
            <path d="M8.08197615,20.132141 C10.0847664,20.132141 11.7083952,18.4700542 11.7083952,16.4197158 C11.7083952,14.3693774 10.0847664,12.7072906 8.08197615,12.7072906 C6.07918593,12.7072906 3.47645016,14.8287763 3.47645016,16.4197158 C3.47645016,17.8634659 6.07918593,20.132141 8.08197615,20.132141" id="Fill-54" fill="#418837"></path>
            <path d="M29.5615823,16.6006959 C29.5615823,16.6006959 32.5156848,19.7900917 32.328464,22.5062787 C32.328464,22.5062787 29.5778396,26.0979107 25.1485213,25.5128239 C25.1485213,25.5128239 24.2129419,21.3785838 22.5068031,19.1569324 C22.5068031,19.1569324 27.2076002,15.5978149 29.5615823,16.6006959" id="Fill-56" fill="#08B1B7"></path>
            <path d="M29.5615823,16.2445044 C29.5615823,16.2445044 32.5156848,12.9038986 32.328464,10.1878864 C32.328464,10.1878864 29.6350022,6.66390558 25.205684,7.24899233 C25.205684,7.24899233 24.2129419,11.4666165 22.5068031,13.6884428 C22.5068031,13.6884428 27.2076002,17.2473854 29.5615823,16.2445044" id="Fill-58" fill="#93C031"></path>
            <path d="M24.9561087,20.132141 C22.9533185,20.132141 21.3296897,18.4700542 21.3296897,16.4197158 C21.3296897,14.3693774 22.9533185,12.7072906 24.9561087,12.7072906 C26.958899,12.7072906 29.5616347,14.8287763 29.5616347,16.4197158 C29.5616347,17.8634659 26.958899,20.132141 24.9561087,20.132141" id="Fill-60" fill="#418837"></path>
        </g>
    </g>
</svg>