<?xml version="1.0" encoding="UTF-8"?>
<svg width="145px" height="52px" viewBox="0 0 145 52" version="1.1" xmlns="http://www.w3.org/2000/svg" xmlns:xlink="http://www.w3.org/1999/xlink">
    <title>caja-trujillo-logo</title>
    <defs>
        <polygon id="path-1" points="0 0.0382178571 45.2816098 0.0382178571 45.2816098 30.0120482 0 30.0120482"></polygon>
    </defs>
    <g id="caja-trujillo-logo" stroke="none" stroke-width="1" fill="none" fill-rule="evenodd">
        <g id="Group-14" transform="translate(0.000000, 0.700000)">
            <path d="M22.8221714,0 C25.1838589,0 27.0983768,1.91451786 27.0983768,4.27620536 C27.0983768,6.63789286 25.1838589,8.55241071 22.8221714,8.55241071 C20.4604839,8.55241071 18.5459661,6.63789286 18.5459661,4.27620536 C18.5459661,1.91451786 20.4604839,0 22.8221714,0" id="Fill-1" fill="#F5C400"></path>
            <g id="Group-5" transform="translate(0.000000, 11.785652)">
                <mask id="mask-2" fill="white">
                    <use xlink:href="#path-1"></use>
                </mask>
                <g id="Clip-4"></g>
                <path d="M9.15356518,13.5348696 L9.15252946,8.56758393 C9.47463661,7.17920893 10.944833,6.05571786 12.3922437,6.080575 L33.6800562,5.98761964 C35.149217,5.82423571 36.2338687,6.53784286 36.2970473,8.21647679 L36.2970473,13.5361643 L9.15356518,13.5348696 Z M40.5263866,0.0428785714 L5.06689554,0.0382178571 C3.49260982,0.326405357 0.394011607,2.1855125 0.00976160714,5.23465536 L0.00639553571,27.178075 C-0.0112116071,28.6746821 -0.0585955357,29.1907268 0.920672321,30.0086821 L11.2161902,30.0086821 C8.94797589,28.2984589 8.89101161,26.3357804 9.15123482,21.2043339 L36.2923866,21.2146911 C36.8625473,25.4041554 36.5342259,27.830575 34.2041277,30.0120482 L44.5190652,29.9716554 C45.498592,29.6619768 45.1658687,28.7197357 45.2816098,27.8518071 L45.2816098,5.00679821 C44.5255384,2.29245 43.2534223,0.526557143 40.5263866,0.0428785714 L40.5263866,0.0428785714 Z" id="Fill-3" fill="#E3001C" mask="url(#mask-2)"></path>
            </g>
            <path d="M1.40416964,47.8917911 C-1.40934821,47.3713446 1.05694643,45.6981482 2.66825893,45.4376661 C16.7487946,44.1487196 32.2961607,42.6119786 46.599375,45.5992375 C48.8305625,46.1134696 50.7065,47.8923089 47.1736786,47.2726929 C45.0610804,47.0417286 45.2765089,48.1222375 46.1975179,48.1230143 C48.7189643,48.1245679 52.1505446,49.9171304 48.9970536,50.2842911 C47.9362232,50.280925 46.6431339,48.018925 45.2493214,48.9272464 C44.8855268,49.2436571 45.4152946,49.4220589 45.4849464,49.4357821 C47.5087321,49.8327196 46.4282232,50.8919964 43.6455179,50.0481482 C30.3210536,47.3583982 16.8109375,46.9373804 1.40416964,47.8917911" id="Fill-6" fill="#F5C400"></path>
            <path d="M100.978259,20.3636964 L99.5733125,15.5017946 L98.1776875,20.3636964 L100.978259,20.3636964 Z M101.800616,23.2890714 L97.3286607,23.2890714 L96.7134464,25.5215536 L92.7031607,25.5215536 L97.4767679,11.9969375 L101.75608,11.9969375 L106.532277,25.5215536 L102.424375,25.5215536 L101.800616,23.2890714 Z M87.8945982,11.9969375 L91.8277232,11.9969375 L91.8277232,19.3497321 C91.8277232,20.8926875 91.6977411,22.0674464 91.4403661,22.8734911 C91.18325,23.6795357 90.6685,24.3628482 89.8909375,24.9234286 C89.1131161,25.4806429 88.1190893,25.7610625 86.9065268,25.7610625 C85.6230179,25.7610625 84.62925,25.5785179 83.9257411,25.2069554 C83.2186071,24.8385 82.6745982,24.2999286 82.2931964,23.5883929 C81.9086875,22.8797054 81.6808304,22.0011607 81.6127321,20.9558661 L85.3627946,20.4110804 C85.36875,21.0060982 85.4189821,21.4501607 85.5109018,21.7399018 C85.6023036,22.0296429 85.7592143,22.2624196 85.9780089,22.4390089 C86.1287054,22.5586339 86.3418036,22.6153393 86.6198929,22.6153393 C87.0574821,22.6153393 87.3798482,22.4421161 87.5867321,22.0956696 C87.7907679,21.7461161 87.8945982,21.1604196 87.8945982,20.3385804 L87.8945982,11.9969375 Z M75.7984911,20.3636964 L74.3935446,15.5017946 L72.9976607,20.3636964 L75.7984911,20.3636964 Z M76.6205893,23.2890714 L72.1488929,23.2890714 L71.5336786,25.5215536 L67.5233929,25.5215536 L72.2967411,11.9969375 L76.5763125,11.9969375 L81.3525089,25.5215536 L77.2446071,25.5215536 L76.6205893,23.2890714 Z" id="Fill-8" fill="#E3001C"></path>
            <path d="M136.158651,35.3456402 C136.158651,36.7122652 136.379776,37.691533 136.824097,38.289917 C137.268937,38.8851937 137.876642,39.1842562 138.641776,39.1842562 C139.429178,39.1842562 140.039472,38.891408 140.470329,38.3088188 C140.901187,37.7231223 141.119463,36.6744616 141.119463,35.1628366 C141.119463,33.8878723 140.892901,32.9588366 140.442883,32.370033 C139.992606,31.7843366 139.382053,31.4914884 138.608633,31.4914884 C137.871204,31.4914884 137.277222,31.7874437 136.829794,32.3855687 C136.382365,32.9808455 136.158651,33.9696937 136.158651,35.3456402 L136.158651,35.3456402 Z M132.49041,35.3267384 C132.49041,33.1193723 133.031829,31.4000866 134.108972,30.1719884 C135.188963,28.940783 136.691785,28.3266045 138.616919,28.3266045 C140.592026,28.3266045 142.114008,28.9314616 143.182865,30.1403991 C144.249133,31.3464884 144.784856,33.040658 144.784856,35.2164348 C144.784856,36.7971937 144.550267,38.0946848 144.083419,39.105542 C143.616571,40.1163991 142.942579,40.903542 142.061446,41.4672295 C141.177722,42.030917 140.080901,42.3110777 138.763472,42.3110777 C137.426365,42.3110777 136.318669,42.0687205 135.440642,41.5837473 C134.564946,41.095667 133.854963,40.327167 133.307847,39.275658 C132.763838,38.2238902 132.49041,36.9074973 132.49041,35.3267384 L132.49041,35.3267384 Z M122.181687,28.556533 L125.849928,28.556533 L125.849928,38.7495152 L131.570437,38.7495152 L131.570437,42.081408 L122.181687,42.081408 L122.181687,28.556533 Z M111.12699,28.556533 L114.795231,28.556533 L114.795231,38.7495152 L120.515999,38.7495152 L120.515999,42.081408 L111.12699,42.081408 L111.12699,28.556533 Z M104.823633,42.081408 L108.497312,42.081408 L108.497312,28.556533 L104.823633,28.556533 L104.823633,42.081408 Z M98.5617045,28.556533 L102.235383,28.556533 L102.235383,35.9093277 C102.235383,37.452283 102.113946,38.626783 101.87366,39.4330866 C101.633374,40.2391312 101.152803,40.9224437 100.426249,41.4830241 C99.6996955,42.0402384 98.7714366,42.320658 97.638883,42.320658 C96.4400438,42.320658 95.5123027,42.1378545 94.8546241,41.766292 C94.1946152,41.3980955 93.6863384,40.8595241 93.3300527,40.1477295 C92.9709188,39.4393009 92.7583384,38.5607562 92.694642,37.5152027 L96.1971688,36.970417 C96.2028652,37.5656937 96.2497313,38.0097562 96.3351777,38.2994973 C96.420883,38.5889795 96.5674366,38.8220152 96.7719902,38.9983455 C96.9128473,39.1179705 97.1114455,39.1749348 97.3711509,39.1749348 C97.7799991,39.1749348 98.0808741,39.0017116 98.2742937,38.6552652 C98.4651241,38.3057116 98.5617045,37.7200152 98.5617045,36.8981759 L98.5617045,28.556533 Z M87.5375616,28.556533 L91.197517,28.556533 L91.197517,36.6208634 C91.197517,37.4209527 91.0872134,38.1733991 90.8689366,38.8851937 C90.6506598,39.5936223 90.3080973,40.2171223 89.8412491,40.7492205 C89.3744009,41.2813187 88.8855438,41.6528812 88.3715705,41.8703812 C87.6589991,42.1694437 86.8058295,42.320658 85.8055884,42.320658 C85.2284366,42.320658 84.5984634,42.2766402 83.9161866,42.1821312 C83.2341687,42.0907295 82.6647848,41.9079259 82.2064813,41.6342384 C81.7476598,41.360292 81.3279366,40.9695687 80.9470527,40.4659527 C80.5656509,39.9620777 80.3059455,39.442408 80.1650884,38.9072027 C79.9385259,38.0475598 79.8253741,37.285533 79.8253741,36.6208634 L79.8253741,28.556533 L83.4853295,28.556533 L83.4853295,36.8129884 C83.4853295,37.5530062 83.6650259,38.1293812 84.0213116,38.5418545 C84.3801866,38.9574348 84.8775884,39.1653545 85.5155884,39.1653545 C86.1455616,39.1653545 86.6427045,38.960542 87.0015795,38.5511759 C87.3578652,38.1451759 87.5375616,37.5625866 87.5375616,36.8129884 L87.5375616,28.556533 Z M70.9420527,34.0357205 L72.488892,34.0357205 C72.6546063,34.0357205 72.9777491,33.975908 73.4585795,33.8531759 C73.7014545,33.7964705 73.9003116,33.6545777 74.054892,33.4280152 C74.206883,33.2011937 74.2843027,32.9399348 74.2843027,32.6437205 C74.2843027,32.2061312 74.1626063,31.8723723 73.9197313,31.6393366 C73.6765973,31.4031937 73.220883,31.2866759 72.5523295,31.2866759 L70.9420527,31.2866759 L70.9420527,34.0357205 Z M67.2598295,42.081408 L67.2598295,28.556533 L73.3700259,28.556533 C74.5025795,28.556533 75.3697313,28.6668366 75.9665616,28.890292 C76.5659812,29.1106402 77.0494009,29.5200062 77.4168205,30.1214973 C77.7842402,30.7198812 77.9665259,31.4505777 77.9665259,32.3102205 C77.9665259,33.062667 77.8256688,33.7081759 77.5465437,34.2529616 C77.2648295,34.7977473 76.8779902,35.2384437 76.389133,35.5786759 C76.0742759,35.7928098 75.646267,35.9722473 75.1017402,36.1107741 C75.5382938,36.277783 75.8559991,36.444792 76.0577045,36.611542 C76.190017,36.7215866 76.3862848,36.9579884 76.643142,37.3199705 C76.900258,37.6853187 77.0714098,37.9623723 77.1571152,38.1609705 L78.930258,42.081408 L74.787142,42.081408 L72.8286062,37.9465777 C72.5800348,37.4144795 72.3591687,37.0649259 72.1629009,36.9043902 C71.9003473,36.6964705 71.5994723,36.5926402 71.2651955,36.5926402 L70.9420527,36.5926402 L70.9420527,42.081408 L67.2598295,42.081408 Z M54.4099813,28.556533 L65.5527134,28.556533 L65.5527134,31.8974884 L61.8127491,31.8974884 L61.8127491,42.081408 L58.1473562,42.081408 L58.1473562,31.8974884 L54.4099813,31.8974884 L54.4099813,28.556533 Z" id="Fill-10" fill="#E3001C"></path>
            <path d="M64.7339554,16.24145 L64.7712411,12.0196196 C49.7430268,8.93060179 52.4387321,30.0281018 64.728,25.1260661 L64.7432768,20.7985929 C55.77425,26.4336554 56.1968214,11.7425661 64.7339554,16.24145" id="Fill-12" fill="#E3001C"></path>
        </g>
    </g>
</svg>