<svg xmlns="http://www.w3.org/2000/svg" viewBox="14700.74 4044.894 122.361 20.872"><defs><style>.a{fill:#1f45a0;}.b,.c{fill:#46ad59;}.c{fill-rule:evenodd;}.d{fill:none;}</style></defs><g transform="translate(14700.741 4044.894)"><path class="a" d="M.756,20.872h0a.823.823,0,0,1-.6-.149.82.82,0,0,1-.154-.6c.019-3.525.019-7.1.018-10.561v-.27c0-2.025,0-4.118,0-6.176A3.145,3.145,0,0,1,.815.791,3.256,3.256,0,0,1,3.172.017h8c2.6,0,5.68,0,8.837-.018h.019a.912.912,0,0,1,.677.173.948.948,0,0,1,.172.693c-.022,3.928-.02,7.906-.018,11.753,0,1.5,0,3.2,0,4.836A5.335,5.335,0,0,1,20.667,19a2.327,2.327,0,0,1-1.654,1.664,5.255,5.255,0,0,1-1.535.194H9.393l-2.027,0H7.132l-2.158,0c-1.672,0-2.957,0-4.167.016ZM15.792,3.858a.942.942,0,0,0-.153.014c-3.161.534-6.567,1.1-10.413,1.73-.335.055-.5.16-.5.581.018,3.509.018,6.982,0,10.323a.589.589,0,0,0,.107.426.326.326,0,0,0,.245.08,1.4,1.4,0,0,0,.231-.024c3.647-.613,6.974-1.162,10.168-1.679a.792.792,0,0,0,.491-.209.734.734,0,0,0,.14-.534c-.029-1.217-.023-2.489-.019-3.61,0-.4,0-.908,0-1.385V8.382c0-1.2,0-2.6,0-3.971,0-.021,0-.043,0-.064v-.02a.56.56,0,0,0-.078-.4A.3.3,0,0,0,15.792,3.858Z" transform="translate(0 0)"/><path class="b" d="M6.172,16a6.771,6.771,0,0,1-2.541-.5,6.055,6.055,0,0,1-2.119-1.441A5.561,5.561,0,0,1,.023,10.19C.005,8.528.007,6.837.009,5.2v-.04C.011,3.7.013,2.189,0,.693A.735.735,0,0,1,.142.152.778.778,0,0,1,.717,0H.771L1.2,0a5.829,5.829,0,0,1,.985.053.755.755,0,0,1,.506.266C2.9.6,2.9,1.144,2.9,2.126V5.057A5.886,5.886,0,0,1,6.7,3.56a5.866,5.866,0,0,1,1.465.194,5.716,5.716,0,0,1,1.694.726,4.645,4.645,0,0,1,1.2,1.125A6.843,6.843,0,0,1,12.232,8.84a6.6,6.6,0,0,1-.616,3.907A5.857,5.857,0,0,1,8.877,15.4,6.346,6.346,0,0,1,6.172,16ZM6.148,5.644A3.342,3.342,0,0,0,4.3,6.22,3.014,3.014,0,0,0,3.085,7.766a5.959,5.959,0,0,0-.272,1.948c0,.09,0,.184-.005.264v.006a4.21,4.21,0,0,0,.009.56,3.637,3.637,0,0,0,.953,2.164,3.288,3.288,0,0,0,2.062.971A3.01,3.01,0,0,0,8.075,13a3.709,3.709,0,0,0,1.2-1.862,5.078,5.078,0,0,0-.152-3.423A3.386,3.386,0,0,0,7.9,6.184a3.115,3.115,0,0,0-1.755-.54Z" transform="translate(72.133 2.966)"/><g transform="translate(110.943 2.834)"><path class="c" d="M-9.459-28.812c1.084-1.28,2.117-2.328,2.939-3.521a2.942,2.942,0,0,1,3.142-1.425,11.6,11.6,0,0,0,1.587.011c-.99,1.19-1.883,2.267-2.78,3.341-.516.618-1.014,1.254-1.565,1.84-.377.4-.383.67,0,1.1,1.575,1.758,3.109,3.552,4.656,5.335.159.183.3.378.567.706-1.161,0-2.173,0-3.185,0-.325,0-.457-.287-.632-.491-1.378-1.6-2.748-3.2-4.127-4.8-.154-.178-.248-.436-.6-.492,0,1.676-.022,3.331.012,4.986.012.579-.085.83-.757.824-2.109-.02-2.109.012-2.109-2.131,0-4.39.018-8.781-.018-13.171-.006-.717.206-.866.881-.852,1.991.041,1.992.011,1.992,1.97Z" transform="translate(12.332 37.563)"/></g><g transform="translate(31.198 6.013)"><path class="c" d="M0-27.686c0-1.111,0-2.222,0-3.332a4.722,4.722,0,0,1,2.483-4.321,6.649,6.649,0,0,1,7.433.878,4.8,4.8,0,0,1,1.4,3.455c.021,2.388-.008,4.776.017,7.164.006.537-.144.714-.7.719-2.09.022-2.09.042-2.09-2.042,0-1.833.008-3.665,0-5.5a2.331,2.331,0,0,0-2.623-2.608c-.305,0-.611-.011-.916,0A2.172,2.172,0,0,0,2.849-31c0,2.388-.016,4.776.015,7.164.007.554-.161.7-.7.71C0-23.1,0-23.079,0-25.27Z" transform="translate(0.004 36.094)"/></g><g transform="translate(97.731 6.001)"><path class="c" d="M-.077-27.884c0-1.166-.045-2.334.009-3.5a4.96,4.96,0,0,1,4.7-4.917,7.327,7.327,0,0,1,3.287.313,4.943,4.943,0,0,1,3.329,4.72c.045,2.415-.005,4.832.023,7.248.006.542-.2.636-.681.645C8.4-23.331,8.4-23.318,8.4-25.5q0-2.875.007-5.749a2.17,2.17,0,0,0-2.064-2.274,9.451,9.451,0,0,0-1.579,0A2.135,2.135,0,0,0,2.754-31.3c-.006,2.388-.017,4.777.013,7.165.007.569-.14.76-.735.762C-.1-23.363-.1-23.341-.1-25.468v-2.416Z" transform="translate(0.1 36.352)"/></g><path class="b" d="M6.451,12.559a6.949,6.949,0,0,1-3.31-.766A5.758,5.758,0,0,1,.715,9.289,6.653,6.653,0,0,1,0,6.248,6.748,6.748,0,0,1,.732,3.167,5.734,5.734,0,0,1,2.465,1.134,6.148,6.148,0,0,1,5.246.044,4.524,4.524,0,0,1,5.88,0,5.382,5.382,0,0,1,8.726.86a5.484,5.484,0,0,1,1.15.975,4.825,4.825,0,0,1,.812,1.249A2.961,2.961,0,0,1,9.759,6.8,5.122,5.122,0,0,1,6.491,7.831h-3.7A3.336,3.336,0,0,0,5.115,9.954a7.2,7.2,0,0,0,1.759.224A6.813,6.813,0,0,0,9.44,9.671a1.039,1.039,0,0,1,.363-.1c.183,0,.253.137.26.506a2.793,2.793,0,0,1-.279,1.595,1.929,1.929,0,0,1-1.332.675A10.073,10.073,0,0,1,6.451,12.559ZM5.766,2.171a2.769,2.769,0,0,0-.864.144A3.28,3.28,0,0,0,3.431,3.437a3.289,3.289,0,0,0-.72,1.678.386.386,0,0,0,.057.294c.054.059.144.07.281.07h.019c.241,0,.5,0,.822,0H6.9c.551,0,1.095-.074,1.346-.613A1.134,1.134,0,0,0,8.3,4.06a2.187,2.187,0,0,0-.4-.735A2.685,2.685,0,0,0,5.766,2.171Z" transform="translate(52.146 6.396)"/><path class="b" d="M5.17,13.009a5.555,5.555,0,0,1-4.09-1.5A3.383,3.383,0,0,1,.038,8.556,3.435,3.435,0,0,1,1.959,6.022a7.066,7.066,0,0,1,3.249-.634c.374,0,.742.012,1.15.027.11,0,.207.006.3.006.548,0,.826-.075.96-.258.176-.241.087-.679-.115-1.309a1.7,1.7,0,0,0-.676-.936A2.63,2.63,0,0,0,5.752,2.54a6.956,6.956,0,0,0-1.111-.091,6.967,6.967,0,0,0-3.153.776,2.473,2.473,0,0,1,.29-2.133A3.7,3.7,0,0,1,4.011.1,5.5,5.5,0,0,1,5.057,0,6.974,6.974,0,0,1,6.9.262,5.657,5.657,0,0,1,8.378.883a3.8,3.8,0,0,1,1.045.939,3.872,3.872,0,0,1,.622,1.27A5.927,5.927,0,0,1,10.252,4.7c0,.38,0,.766,0,1.14v.082c0,.678-.005,1.446.005,2.2a4.917,4.917,0,0,1-1.083,3.456,4.681,4.681,0,0,1-3.307,1.408C5.625,13,5.392,13.009,5.17,13.009Zm.751-5.75a5.543,5.543,0,0,0-2.047.314,1.608,1.608,0,0,0-1.15,1.475A1.5,1.5,0,0,0,3.5,10.579a2.9,2.9,0,0,0,1.455.4,2.665,2.665,0,0,0,1.874-.76,2.833,2.833,0,0,0,.83-2,.643.643,0,0,1-.011-.387c.026-.17.052-.345-.038-.449a.37.37,0,0,0-.294-.1c-.223,0-.451-.007-.672-.013h0C6.4,7.266,6.161,7.259,5.921,7.259Z" transform="translate(85.665 5.975)"/><g transform="translate(44.286 2.774)"><path class="c" d="M-.041-20.839c0-1.833.019-3.667-.012-5.5-.009-.548.087-.838.713-.759.7.089,1.65-.308,2.06.174.349.411.117,1.322.129,2.011.022,1.269-.142,1.109,1.1,1.117,1,.007,2,.013,3,0,.414-.007.57.067.522.558-.147,1.5-.378,1.778-1.86,1.843-.721.031-1.445.028-2.166.009-.405-.011-.609.083-.6.546.023,1.861-.008,3.722.029,5.582A1.418,1.418,0,0,0,4.432-13.7a7.263,7.263,0,0,0,2.48-.182c.506-.162.623.059.634.517.038,1.634-.461,2.184-2.1,2.284A8.854,8.854,0,0,1,3.2-11.149,3.814,3.814,0,0,1-.036-15.256c-.022-1.861,0-3.722,0-5.583" transform="translate(0.053 27.167)"/></g><g transform="translate(26.517 2.837)"><path class="c" d="M-.042-26.4c0-2.442.016-4.884-.013-7.326-.007-.549.154-.69.694-.691,2.173,0,2.173-.023,2.173,2.117,0,4.412-.014,8.825.015,13.237,0,.65-.157.844-.823.833-2.046-.034-2.046,0-2.046-2.008Z" transform="translate(0.055 34.418)"/></g><g transform="translate(64.543 6.122)"><path class="c" d="M-.02-27.438c0-1.194-.016-2.387,0-3.58.044-2.668,2.393-5.027,5.876-4.727.253.022.334.136.327.366-.006.194,0,.388,0,.583a4.192,4.192,0,0,1-.049,1.564c-.248.557-.936.161-1.423.28A2.224,2.224,0,0,0,2.8-30.607C2.784-28.3,2.775-26,2.812-23.7c.01.636-.19.792-.8.788C-.02-22.923-.02-22.9-.02-24.94Z" transform="translate(0.027 35.771)"/></g><path class="d" d="M0-89.6H122.361v20.872H0Z" transform="translate(0 89.599)"/></g></svg>