<svg xmlns="http://www.w3.org/2000/svg" xmlns:xlink="http://www.w3.org/1999/xlink" viewBox="14853.806 4045.065 157.588 32.019"><defs><style>.a{fill:none;}.b{clip-path:url(#a);}.c{fill:#2b2e34;}.d{fill:#ff2d16;fill-rule:evenodd;}</style><clipPath id="a"><path class="a" d="M0-138.015H157.588V-106H0Z" transform="translate(0 138.015)"/></clipPath></defs><g transform="translate(14853.806 4045.065)"><g class="b"><g transform="translate(38.459 5.79)"><path class="c" d="M-7.393-22.818l-.586,5.07h1.693A2.913,2.913,0,0,0-4.3-18.357a2.184,2.184,0,0,0,.69-1.734,2.633,2.633,0,0,0-.795-1.938,2.6,2.6,0,0,0-1.9-.789Zm.625-5.35-.441,3.846h.8a1.976,1.976,0,0,0,1.474-.556,1.974,1.974,0,0,0,.548-1.457A1.671,1.671,0,0,0-6.3-28.2a4,4,0,0,0-.466.029m-1.3-1.543h1.644a3.567,3.567,0,0,1,2.642.918,3.377,3.377,0,0,1,.915,2.5,2.9,2.9,0,0,1-1.548,2.662A3.575,3.575,0,0,1-2.1-20.015,3.545,3.545,0,0,1-3.22-17.291a4.115,4.115,0,0,1-2.921,1.046H-9.626Z" transform="translate(9.626 29.711)"/></g><g transform="translate(46.778 10.12)"><path class="c" d="M-15.285-21.761l.608-5.119c-.151-.013-.293-.02-.433-.02a2.849,2.849,0,0,0-2.5,1.257,4.876,4.876,0,0,0-.86,2.81,3.337,3.337,0,0,0,.414,1.751,1.212,1.212,0,0,0,1.05.681A1.675,1.675,0,0,0-15.9-21c.4-.4.608-.655.619-.757m2.135-6.3L-14.186-19.2h-1.4l.137-1.023-.033-.046a2.642,2.642,0,0,1-1.99,1.244,2.065,2.065,0,0,1-1.724-1.027,4.256,4.256,0,0,1-.71-2.484A6.429,6.429,0,0,1-18.581-26.7a4.471,4.471,0,0,1,3.688-1.638,5.284,5.284,0,0,1,1.743.27" transform="translate(19.902 28.335)"/></g><g transform="translate(54.404 10.255)"><path class="c" d="M-8.073-.447l-.184,1.559.033.04Q-7.044-.585-5.777-.582A1.492,1.492,0,0,1-4.442.175a3.63,3.63,0,0,1,.471,1.951,5.26,5.26,0,0,1-.047.7l-.707,5.59H-6.106l.674-5.649a4.03,4.03,0,0,0,.041-.55,1.923,1.923,0,0,0-.241-1.059A.708.708,0,0,0-6.235.8,1.064,1.064,0,0,0-6.7.922a2.473,2.473,0,0,0-.559.385A7.535,7.535,0,0,0-8,2.1a2.486,2.486,0,0,0-.461.675L-9.131,8.42h-1.381L-9.476-.447Z" transform="translate(10.512 0.582)"/></g><g transform="translate(62.022 10.12)"><path class="c" d="M-18.124-23.7l-.161,1.622a3.655,3.655,0,0,1-2.055.635,2.886,2.886,0,0,1-2.373-1.112A4.636,4.636,0,0,1-23.6-25.53a5.571,5.571,0,0,1,1.343-3.79,4.364,4.364,0,0,1,3.442-1.54,6.181,6.181,0,0,1,1.269.155l-.187,1.484a3.884,3.884,0,0,0-1.066-.145,3.045,3.045,0,0,0-2.414,1.119,3.887,3.887,0,0,0-.959,2.612,3.209,3.209,0,0,0,.543,1.971,1.759,1.759,0,0,0,1.48.717,3.418,3.418,0,0,0,2.025-.754" transform="translate(23.599 30.86)"/></g><g transform="translate(68.549 10.12)"><path class="c" d="M-11.693-4.368q-.859,0-1.482,1.276A6.85,6.85,0,0,0-13.8-.068a3.392,3.392,0,0,0,.375,1.695,1.072,1.072,0,0,0,.926.654q.876,0,1.5-1.194a6.456,6.456,0,0,0,.622-3.007A3.749,3.749,0,0,0-10.739-3.7a1.072,1.072,0,0,0-.954-.665m0-1.319A2.338,2.338,0,0,1-9.7-4.634a4.749,4.749,0,0,1,.751,2.809A7.206,7.206,0,0,1-9.958,2.167a2.929,2.929,0,0,1-2.491,1.563A2.358,2.358,0,0,1-14.488,2.68a5.034,5.034,0,0,1-.737-2.922,6.969,6.969,0,0,1,1.019-3.886,2.962,2.962,0,0,1,2.513-1.559" transform="translate(15.225 5.687)"/></g><g transform="translate(80.397 5.79)"><path class="c" d="M-14.986-40.779l.754-6.594h-.362a3.132,3.132,0,0,0-2.523,1.145,4.111,4.111,0,0,0-.959,2.731,2.988,2.988,0,0,0,.633,2.04,2.3,2.3,0,0,0,1.817.717,3.888,3.888,0,0,0,.641-.039M-12.161-53.1l-1.581,13.466a5.75,5.75,0,0,1-1.885.28,3.76,3.76,0,0,1-2.88-1.069,4.266,4.266,0,0,1-1.006-3.037,5.812,5.812,0,0,1,1.307-3.619,4.245,4.245,0,0,1,3.549-1.691h.586l.512-4.33Z" transform="translate(19.513 53.097)"/></g><g transform="translate(88.231 10.12)"><path class="c" d="M-5.552-11.164h3.091a2.658,2.658,0,0,0-.351-1.461,1.109,1.109,0,0,0-.984-.533q-1.2,0-1.756,1.994m4.077,3.451-.2,1.6a3.652,3.652,0,0,1-2.466.993A2.64,2.64,0,0,1-6.382-6.291,5.207,5.207,0,0,1-7.229-9.41a6.3,6.3,0,0,1,1.014-3.649A2.961,2.961,0,0,1-3.73-14.536,2.229,2.229,0,0,1-1.861-13.5a4.46,4.46,0,0,1,.748,2.675A7.222,7.222,0,0,1-1.162-10H-5.769a5.754,5.754,0,0,0-.066.845,3.05,3.05,0,0,0,.559,1.935,1.719,1.719,0,0,0,1.4.707,3.937,3.937,0,0,0,2.4-1.2" transform="translate(7.229 14.536)"/></g><g transform="translate(99.751 5.79)"><path class="c" d="M-9.86,0l-1.584,13.466h-1.395L-11.258,0Z" transform="translate(12.839)"/></g><g transform="translate(103.042 10.12)"><path class="c" d="M-15.284-21.761l.608-5.119c-.151-.013-.293-.02-.433-.02a2.849,2.849,0,0,0-2.5,1.257,4.875,4.875,0,0,0-.86,2.81,3.337,3.337,0,0,0,.414,1.751,1.212,1.212,0,0,0,1.05.681A1.674,1.674,0,0,0-15.9-21c.4-.4.609-.655.619-.757m2.135-6.3L-14.185-19.2h-1.4l.137-1.023-.033-.046a2.641,2.641,0,0,1-1.989,1.244,2.065,2.065,0,0,1-1.724-1.027,4.256,4.256,0,0,1-.709-2.484A6.428,6.428,0,0,1-18.58-26.7a4.471,4.471,0,0,1,3.688-1.638,5.284,5.284,0,0,1,1.743.27" transform="translate(19.901 28.335)"/></g><g transform="translate(115.386 5.79)"><path class="c" d="M-34.787,0l-1.581,13.466h-.8L-42.75,3.636-43.9,13.466h-1.4L-43.72,0h.762l5.6,9.91L-36.19,0Z" transform="translate(45.296)"/></g><g transform="translate(126.635 10.12)"><path class="c" d="M-15.284-21.761l.608-5.119c-.151-.013-.293-.02-.433-.02a2.849,2.849,0,0,0-2.5,1.257,4.875,4.875,0,0,0-.86,2.81,3.337,3.337,0,0,0,.414,1.751,1.213,1.213,0,0,0,1.05.681A1.675,1.675,0,0,0-15.9-21c.4-.4.608-.655.619-.757m2.135-6.3L-14.185-19.2h-1.4l.137-1.023-.033-.046a2.642,2.642,0,0,1-1.989,1.244,2.065,2.065,0,0,1-1.724-1.027,4.256,4.256,0,0,1-.709-2.484A6.428,6.428,0,0,1-18.58-26.7a4.471,4.471,0,0,1,3.688-1.638,5.284,5.284,0,0,1,1.743.27" transform="translate(19.901 28.335)"/></g><g transform="translate(134.165 10.12)"><path class="c" d="M-18.124-23.7l-.161,1.622a3.655,3.655,0,0,1-2.055.635,2.886,2.886,0,0,1-2.373-1.112A4.636,4.636,0,0,1-23.6-25.53a5.572,5.572,0,0,1,1.343-3.79,4.365,4.365,0,0,1,3.442-1.54,6.179,6.179,0,0,1,1.269.155l-.186,1.484a3.884,3.884,0,0,0-1.066-.145,3.045,3.045,0,0,0-2.414,1.119,3.889,3.889,0,0,0-.959,2.612,3.209,3.209,0,0,0,.542,1.971,1.759,1.759,0,0,0,1.479.717,3.418,3.418,0,0,0,2.025-.754" transform="translate(23.599 30.86)"/></g><g transform="translate(140.475 6.639)"><path class="c" d="M-8.046-12.416-9.082-3.549h-1.395l1.036-8.867ZM-9.29-15.193a1.043,1.043,0,0,1,.238-.691.714.714,0,0,1,.564-.283.724.724,0,0,1,.567.283,1.057,1.057,0,0,1,.236.691,1.028,1.028,0,0,1-.236.678.718.718,0,0,1-.567.286.708.708,0,0,1-.564-.286,1.014,1.014,0,0,1-.238-.678" transform="translate(10.477 16.167)"/></g><g transform="translate(143.783 6.031)"><path class="c" d="M-13.471,0h1.663l-1.863,2.882h-.915Zm-.537,5.409q-.859,0-1.482,1.277a6.854,6.854,0,0,0-.622,3.024,3.39,3.39,0,0,0,.375,1.695,1.073,1.073,0,0,0,.926.655q.875,0,1.5-1.194a6.452,6.452,0,0,0,.622-3.007,3.751,3.751,0,0,0-.361-1.783,1.073,1.073,0,0,0-.954-.665m0-1.319a2.338,2.338,0,0,1,1.995,1.053,4.748,4.748,0,0,1,.751,2.81,7.208,7.208,0,0,1-1.011,3.991,2.929,2.929,0,0,1-2.491,1.563,2.356,2.356,0,0,1-2.039-1.05,5.031,5.031,0,0,1-.737-2.922,6.968,6.968,0,0,1,1.019-3.885,2.963,2.963,0,0,1,2.513-1.56" transform="translate(17.54)"/></g><g transform="translate(151.047 10.255)"><path class="c" d="M-8.074-.447l-.184,1.559.033.04Q-7.045-.585-5.778-.582A1.491,1.491,0,0,1-4.443.175a3.628,3.628,0,0,1,.471,1.951,5.258,5.258,0,0,1-.047.7l-.707,5.59H-6.107l.674-5.649a4.03,4.03,0,0,0,.041-.55,1.921,1.921,0,0,0-.241-1.059A.708.708,0,0,0-6.235.8,1.065,1.065,0,0,0-6.7.922a2.472,2.472,0,0,0-.559.385A7.533,7.533,0,0,0-8,2.1a2.482,2.482,0,0,0-.46.675L-9.132,8.42h-1.381L-9.477-.447Z" transform="translate(10.513 0.582)"/></g><g transform="translate(0 0)"><path class="d" d="M-16.992-5.742c6.234-3.464,13.846-1.388,14.7,3.12,1.009,5.329-5.484,13.042-19.832,17.8a40.59,40.59,0,0,0,8.431-7.062c4.556-5.273,7.182-14.021-3.3-13.855" transform="translate(22.125 7.477)"/></g><g transform="translate(12.576 9.368)"><path class="d" d="M-16.992-5.743c6.234-3.464,13.846-1.388,14.7,3.12,1.009,5.329-5.484,13.042-19.832,17.8a40.583,40.583,0,0,0,8.431-7.062c4.556-5.273,7.182-14.021-3.3-13.855" transform="translate(22.125 7.478)"/></g></g></g></svg>