<?xml version="1.0" encoding="UTF-8"?>
<svg width="148px" height="26px" viewBox="0 0 148 26" version="1.1" xmlns="http://www.w3.org/2000/svg" xmlns:xlink="http://www.w3.org/1999/xlink">
    <!-- Generator: sketchtool 54.1 (76490) - https://sketchapp.com -->
    <title>A23CA607-D388-4A80-A4F7-5BA41726DFDB</title>
    <desc>Created with sketchtool.</desc>
    <defs>
        <polygon id="path-1" points="0 0.0710402439 25.3496396 0.0710402439 25.3496396 25.8414634 0 25.8414634"></polygon>
        <polygon id="path-3" points="0.0315182297 0.142730488 4.41426765 0.142730488 4.41426765 4.60426707 0.0315182297 4.60426707"></polygon>
    </defs>
    <g id="Page-4" stroke="none" stroke-width="1" fill="none" fill-rule="evenodd">
        <g id="logo-scotiabank" transform="translate(-4.000000, -14.000000)">
            <g id="Group-27" transform="translate(4.000000, 14.000000)">
                <path d="M58.0711608,17.5503329 C59.4881555,17.5503329 60.3221956,16.2861622 60.3221956,14.7799061 C60.3221956,13.2530402 59.5285475,11.9888695 58.0711608,11.9888695 C56.5479616,11.9888695 55.8180986,13.2530402 55.8180986,14.7799061 C55.8180986,16.2861622 56.6519827,17.5503329 58.0711608,17.5503329 M58.0711608,20.1035646 C54.6693442,20.1035646 52.2353758,18.0262598 52.2353758,14.7799061 C52.2353758,11.5714427 54.7587056,9.43896707 58.0711608,9.43896707 C61.3815886,9.43896707 63.9007077,11.559711 63.9007077,14.7799061 C63.9007077,18.0262598 61.447557,20.1035646 58.0711608,20.1035646" id="Fill-1" fill="#ED3425"></path>
                <path d="M99.1369189,14.7809049 C99.1369189,13.4195512 98.3710306,12.207222 97.0391865,12.207222 C95.8650116,12.207222 94.9222719,13.225978 94.9222719,14.7809049 C94.9222719,16.2917585 95.6925269,17.3666366 97.0391865,17.3666366 C98.2498546,17.3666366 99.1369189,16.3436 99.1369189,14.7809049 L99.1369189,14.7809049 Z M91.4884847,19.8838805 L91.4884847,5.49716098 L94.9734247,5.49716098 L94.9734247,10.4273317 L95.0138166,10.4273317 C95.2563246,10.2716488 96.3838693,9.44979512 98.0413446,9.44979512 C100.75603,9.44979512 102.749429,11.665661 102.749429,14.6014415 C102.749429,18.2642707 100.539098,20.111222 98.0221623,20.111222 C96.1181243,20.111222 95.1499642,19.212478 94.911667,18.9475634 L94.8564594,18.9475634 L94.8031233,19.8838805 L91.4884847,19.8838805 Z" id="Fill-3" fill="#ED3425"></path>
                <path d="M74.9044063,4.53051585 C73.8277024,4.53051585 72.9428215,5.42799146 72.9428215,6.52347927 C72.9428215,7.61896707 73.8277024,8.51660122 74.9044063,8.51660122 C75.9807983,8.51660122 76.8616244,7.61896707 76.8616244,6.52347927 C76.8616244,5.42799146 75.9807983,4.53051585 74.9044063,4.53051585 L74.9044063,4.53051585 Z M73.1553863,19.9068207 L76.6531144,19.9068207 L76.6531144,9.69738171 L73.1553863,9.69738171 L73.1553863,19.9068207 Z" id="Fill-5" fill="#ED3425"></path>
                <path d="M117.280549,19.8926159 L120.675972,19.8926159 L120.675972,14.6220671 C120.675972,13.3861159 121.480537,12.5425427 122.509987,12.5425427 C123.688684,12.5425427 124.354606,13.3201646 124.354606,14.6220671 L124.354606,19.8926159 L127.752368,19.8926159 L127.752368,13.7504329 C127.752368,11.4373841 126.286404,9.45948171 123.601506,9.45948171 C121.803828,9.45948171 120.87185,10.4490671 120.448279,10.8395427 L120.374201,10.8395427 L120.339892,9.71266463 L117.280549,9.71266463 L117.280549,19.8926159 Z" id="Fill-7" fill="#ED3425"></path>
                <polygon id="Fill-9" fill="#ED3425" points="129.7055 19.8926159 133.18389 19.8926159 133.18389 15.1713963 133.220071 15.1713963 136.313568 19.8926159 140.190107 19.8926159 136.453926 14.4849329 140.094196 9.7047378 136.22405 9.7047378 133.220071 13.9105549 133.18389 13.9105549 133.18389 5.51128659 129.7055 5.51128659"></polygon>
                <path d="M51.5417408,9.84659634 C51.2800506,9.77192561 50.3228072,9.44010854 49.0483541,9.44010854 C45.9058883,9.44010854 43.5508325,11.439572 43.5508325,14.7732793 C43.5508325,17.801328 45.6655638,20.1056573 48.9100232,20.1056573 C50.29302,20.1056573 51.3099937,19.7305598 51.5417408,19.6592183 L51.369412,16.6842793 C51.1035111,16.8087305 50.4056185,17.2142671 49.603705,17.2142671 C48.1952877,17.2142671 47.1653699,16.1986817 47.1653699,14.7732793 C47.1653699,13.2735232 48.2674942,12.308828 49.6461243,12.308828 C50.4205901,12.308828 51.1120885,12.6756817 51.369412,12.8085354 L51.5417408,9.84659634 Z" id="Fill-11" fill="#ED3425"></path>
                <path d="M81.7165703,14.6889378 C81.7165703,16.3762427 82.6441825,17.4292427 83.8442457,17.4292427 C84.9292152,17.4292427 85.9889201,16.3954256 85.9889201,14.8273402 C85.9889201,13.246572 85.0505471,12.1640841 83.8442457,12.1640841 C82.5933416,12.1640841 81.7165703,13.2984134 81.7165703,14.6889378 L81.7165703,14.6889378 Z M89.4311288,9.69091341 L89.4311288,19.8916329 L86.0419444,19.8916329 L85.9907916,18.8632061 L85.9164017,18.8632061 C85.5399296,19.2072305 84.7568864,20.1164378 82.57182,20.1164378 C80.1444017,20.1164378 78.0232763,17.9742915 78.0232763,14.780889 C78.0232763,11.8200598 79.9040771,9.45310854 82.7932742,9.45310854 C84.7590698,9.45310854 85.5611393,10.3331451 85.8632215,10.614389 L85.952427,10.614389 L85.9867368,9.69091341 L89.4311288,9.69091341 Z" id="Fill-13" fill="#ED3425"></path>
                <path d="M107.502521,14.6815024 C107.502521,16.3694415 108.428106,17.4260878 109.630041,17.4260878 C110.715166,17.4260878 111.772376,16.3900512 111.772376,14.8232341 C111.772376,13.2421488 110.832132,12.1607707 109.630041,12.1607707 C108.378981,12.1607707 107.502521,13.293039 107.502521,14.6815024 L107.502521,14.6815024 Z M115.216924,9.68442927 L115.216924,19.8873683 L111.825556,19.8873683 L111.772376,18.8589415 L111.700013,18.8589415 C111.325569,19.2048683 110.540498,20.1134415 108.357615,20.1134415 C105.930197,20.1134415 103.807044,17.9711366 103.807044,14.7767829 C103.807044,11.8137341 105.689716,9.44852683 108.578913,9.44852683 C110.544709,9.44852683 111.346779,10.326661 111.646833,10.6080634 L111.738378,10.6080634 L111.770193,9.68442927 L115.216924,9.68442927 Z" id="Fill-15" fill="#ED3425"></path>
                <path d="M32.5364978,19.5153146 C33.5129235,19.8149488 34.9958866,20.0895341 36.5703945,20.0895341 C39.548797,20.0895341 42.5231448,19.0165585 42.5231448,15.6915707 C42.5231448,11.1280951 36.3320974,11.7608146 36.3320974,9.94287561 C36.3320974,9.01068049 37.2831026,8.81060732 38.216953,8.81060732 C39.5105884,8.81060732 41.146542,9.44221707 41.5083545,9.5914 L41.7910984,6.44777805 C40.8870352,6.13625366 39.5169825,5.95805854 38.2297412,5.95805854 C35.2895473,5.95805854 32.3833513,7.12599756 32.3833513,10.0866683 C32.3833513,14.5710341 38.5573998,13.6358268 38.5573998,15.9889854 C38.5573998,16.8920098 37.6681522,17.2368268 36.5342133,17.2368268 C34.9788877,17.2368268 33.5129235,16.4452537 32.8811553,16.1586195 L32.5364978,19.5153146 Z" id="Fill-17" fill="#ED3425"></path>
                <path d="M71.6534436,17.1114244 C71.4831423,17.1608878 71.0109146,17.283278 70.6874668,17.283278 C69.9811528,17.283278 69.206687,16.9448024 69.206687,15.7002902 L69.206687,12.2506927 L71.4022023,12.2506927 L71.4022023,9.68652195 L69.206687,9.68652195 L69.206687,6.40116829 L65.7175364,6.40116829 L65.7175364,9.68652195 L64.1877871,9.68652195 L64.1877871,12.2506927 L65.7175364,12.2506927 L65.7175364,16.288461 C65.7175364,18.5054366 66.7302993,20.0958756 69.3132034,20.0958756 C70.0641201,20.0958756 70.7512518,19.9944122 71.2236354,19.9034122 L71.6534436,17.1114244 Z" id="Fill-19" fill="#ED3425"></path>
                <g id="Group-23" transform="translate(0.000000, 0.087512)">
                    <mask id="mask-2" fill="white">
                        <use xlink:href="#path-1"></use>
                    </mask>
                    <g id="Clip-22"></g>
                    <path d="M20.2733488,12.9643451 C20.3627102,17.371028 16.4417239,20.6972841 13.1693488,20.6972841 L5.07847418,20.6972841 L0,25.8414793 L13.0823267,25.8414793 C17.2564257,25.8414793 21.2627187,22.0177354 21.2627187,17.4607598 C21.2627187,16.1209671 21.1050495,14.3754793 20.2733488,13.0551866 L20.2733488,12.9643451 Z M18.8841138,16.2106988 C19.388156,15.2926134 19.6372139,14.2859061 19.6988156,13.3039305 L16.0268872,13.3039305 C16.0268872,14.2144061 15.8756122,15.2027232 15.5417155,16.2106988 L18.8841138,16.2106988 Z M15.3013909,16.7850768 C14.8863983,17.8653451 13.895157,19.2655402 12.9312076,20.0334915 C14.7970369,20.0334915 16.9287671,19.2051378 18.4862761,16.7850768 L15.3013909,16.7850768 Z M14.8863983,16.2106988 C15.2140569,15.2926134 15.3629926,14.2859061 15.4501707,13.3039305 L9.89728556,13.3039305 C9.986647,14.2859061 10.1376101,15.2926134 10.4633973,16.2106988 L14.8863983,16.2106988 Z M9.82726238,16.2106988 C9.49960379,15.2027232 9.32290832,14.2144061 9.32290832,13.3039305 L5.65300738,13.3039305 C5.74018546,14.2859061 5.97848261,15.2926134 6.46568177,16.2106988 L9.82726238,16.2106988 Z M12.6844889,19.4472232 C13.4078019,18.7821622 14.2225037,17.7039549 14.6374963,16.7850768 L10.7121433,16.7850768 C11.1291633,17.7039549 11.9419937,18.7821622 12.6844889,19.4472232 L12.6844889,19.4472232 Z M6.7931844,16.7850768 C8.41868915,19.2051378 10.5526027,20.0334915 12.4461918,20.0334915 C11.4568219,19.2655402 10.403667,17.8653451 10.0652476,16.7850768 L6.7931844,16.7850768 Z M15.5417155,9.8186622 C15.8756122,10.7063085 16.0268872,11.7152354 16.0268872,12.7221012 L19.6988156,12.7221012 C19.6372139,11.7152354 19.388156,10.7063085 18.8841138,9.8186622 L15.5417155,9.8186622 Z M18.4862761,9.14060122 C16.9287671,6.82311341 14.7970369,5.90518659 12.9312076,5.90518659 C13.895157,6.64491829 14.8863983,8.04638171 15.3013909,9.14060122 L18.4862761,9.14060122 Z M10.4633973,9.8186622 C10.1376101,10.7063085 9.986647,11.7152354 9.89728556,12.7221012 L15.4501707,12.7221012 C15.3629926,11.7152354 15.2140569,10.7063085 14.8863983,9.8186622 L10.4633973,9.8186622 Z M6.46568177,9.8186622 C5.97848261,10.7063085 5.74018546,11.7152354 5.65300738,12.7221012 L9.32290832,12.7221012 C9.32290832,11.7152354 9.49960379,10.7063085 9.82726238,9.8186622 L6.46568177,9.8186622 Z M12.6844889,6.55375976 C11.9419937,7.21897927 11.1291633,8.22552805 10.7121433,9.14060122 L14.6374963,9.14060122 C14.2225037,8.22552805 13.4078019,7.21897927 12.6844889,6.55375976 L12.6844889,6.55375976 Z M10.0652476,9.14060122 C10.403667,8.04638171 11.4568219,6.64491829 12.4461918,5.90518659 C10.5526027,5.90518659 8.41868915,6.82311341 6.7931844,9.14060122 L10.0652476,9.14060122 Z M5.07847418,12.874772 C4.26377239,11.5606622 4.08489357,9.8186622 4.08489357,8.47760122 C4.08489357,3.91951585 8.09103056,0.0710402439 12.2674689,0.0710402439 L25.3496396,0.0710402439 L20.2733488,5.2769061 L12.1801349,5.2769061 C8.92288725,5.2769061 4.9869294,8.62995488 5.07847418,12.874772 L5.07847418,12.874772 Z" id="Fill-21" fill="#ED3425" mask="url(#mask-2)"></path>
                </g>
                <g id="Group-26" transform="translate(143.477345, 5.002146)">
                    <mask id="mask-4" fill="white">
                        <use xlink:href="#path-3"></use>
                    </mask>
                    <g id="Clip-25"></g>
                    <path d="M1.89953087,1.47586463 L1.89953087,2.19197439 L2.19319157,2.19197439 C2.36552034,2.19197439 2.49324636,2.16502317 2.57403035,2.10858415 C2.65481433,2.0524622 2.69536228,1.96479146 2.69536228,1.84462073 C2.69536228,1.71810854 2.65044763,1.62631585 2.56560885,1.56559634 C2.47811886,1.50614512 2.34415469,1.47586463 2.16324847,1.47586463 L1.89953087,1.47586463 Z M1.30799874,1.09521829 L2.26337071,1.09521829 C2.61021159,1.09521829 2.86971844,1.15482805 3.04423056,1.27373049 C3.21858672,1.39279146 3.30358145,1.57003537 3.30358145,1.80562073 C3.30358145,1.96907195 3.25695132,2.10858415 3.16337914,2.22542561 C3.069651,2.34099878 2.93771423,2.42010854 2.77177956,2.46212073 L3.31652561,3.56838902 L2.65684173,3.56838902 L2.19319157,2.55407195 L1.89953087,2.55407195 L1.89953087,3.56838902 L1.30799874,3.56838902 L1.30799874,1.09521829 Z M2.22297871,0.516718293 C1.97189336,0.516718293 1.74014626,0.562059756 1.52711359,0.649889024 C1.31236544,0.738510976 1.12085437,0.869303659 0.948525606,1.04226707 C0.769958693,1.22395 0.63381117,1.42941341 0.537899684,1.65976707 C0.440116754,1.8899622 0.39317471,2.12697439 0.39317471,2.37238902 C0.39317471,2.61891341 0.437933404,2.85354756 0.527138883,3.07534024 C0.618683667,3.29808415 0.748437092,3.49482805 0.920921812,3.66795 C1.09543393,3.84963293 1.29318314,3.98803537 1.51650875,4.08521829 C1.74217366,4.18160854 1.97407671,4.23027927 2.21642866,4.23027927 C2.45051507,4.23027927 2.68039073,4.18271829 2.90371633,4.08965732 C3.12719789,3.99659634 3.3293138,3.86168171 3.51240337,3.68634024 C3.68254879,3.51876707 3.81417366,3.32408415 3.9102411,3.10134024 C4.00350137,2.87748659 4.05044341,2.64713293 4.05044341,2.40805976 C4.05044341,2.14314512 4.00802403,1.89868171 3.92084594,1.6759378 C3.83132856,1.4531939 3.70173109,1.25312073 3.52924636,1.07603537 C3.3525509,0.891181707 3.15480169,0.751510976 2.93350348,0.657340244 C2.71236122,0.564437805 2.47609146,0.516718293 2.22297871,0.516718293 L2.22297871,0.516718293 Z M2.21642866,0.142730488 C2.51866681,0.142730488 2.80390601,0.199803659 3.07386175,0.315693902 C3.34194605,0.429206098 3.5802432,0.596620732 3.79093656,0.814132927 C3.99320843,1.02181585 4.14822634,1.25977927 4.25489863,1.52675488 C4.36110306,1.79515732 4.41428325,2.07830366 4.41428325,2.37762073 C4.41428325,2.6816939 4.3589197,2.96927927 4.24834858,3.23974268 C4.1379334,3.51004756 3.97808093,3.74801098 3.76754352,3.95458415 C3.55700611,4.16432805 3.31870896,4.32540122 3.04844131,4.43685244 C2.78020105,4.54814512 2.50385121,4.60426707 2.21642866,4.60426707 C1.92292392,4.60426707 1.64220738,4.54592561 1.37630643,4.43035244 C1.10806617,4.31462073 0.86976902,4.14815732 0.659231612,3.9296939 C0.452904953,3.72090122 0.297575132,3.48198659 0.191058799,3.21612073 C0.0826710221,2.94882805 0.0315182297,2.66980366 0.0315182297,2.37762073 C0.0315182297,2.17437683 0.0570946259,1.97668171 0.110118862,1.78295 C0.163299052,1.59064512 0.242211591,1.40230366 0.34857197,1.21855976 C0.54632118,0.87897439 0.810194731,0.614059756 1.13566997,0.425876829 C1.46332856,0.236584146 1.82311359,0.142730488 2.21642866,0.142730488 L2.21642866,0.142730488 Z" id="Fill-24" fill="#ED3425" mask="url(#mask-4)"></path>
                </g>
            </g>
        </g>
    </g>
</svg>