<svg xmlns="http://www.w3.org/2000/svg" viewBox="12887.587 4272 35.931 41.2"><defs><style>.a,.b{fill:#fff;}.b{font-size:7px;font-family:MyriadPro-Bold, Myriad Pro;font-weight:700;}.c{fill:none;}</style></defs><g transform="translate(12467 3803)"><g transform="translate(-42 125)"><g transform="translate(236.292 -128.764)"><path class="a" d="M335.438,412.126a.526.526,0,0,0-1.052,0,.667.667,0,1,1-1.333,0,.526.526,0,0,0-1.052,0,1.719,1.719,0,0,0,3.438,0Z" transform="translate(-78.967 85.784)"/><path class="a" d="M-14.545,277.58l-1.473-.47a.631.631,0,0,1-.4-.4,9.49,9.49,0,0,0-1.389-2.75,9.8,9.8,0,0,0-.926-1.094h0a13.017,13.017,0,0,0,.323-2.961c-.021-1.333-.288-2.112-.814-2.385-.281-.147-1.144-.6-5.81,1.537a1.7,1.7,0,0,0-.309.182c-.295-.077-.6-.154-.9-.218-.442.365-.358.758-.218.786.112.021.232.077.344.105-.1-.028-.168-.007-.274-.028.1.021.168.077.274.105.077.021.147-.042.225-.028a.876.876,0,0,0,.063.084c.33.112.533.147.856.267.007-.035,0,.168.007.126h0a.636.636,0,0,1,.358-.435,15.177,15.177,0,0,1,4.687-1.593.447.447,0,0,1,.189.028,5.4,5.4,0,0,1,.189,2.94,8.488,8.488,0,0,1-.484,1.691c.105.119.94,1,.947.975.147.175.295.358.428.54a8.38,8.38,0,0,1,1.235,2.449,1.677,1.677,0,0,0,1.073,1.088l1.473.47a.927.927,0,0,1,.646.884v2.442a.927.927,0,0,1-.646.884l-2.372.758a1.591,1.591,0,0,0-.905.737,10.434,10.434,0,0,1-4.35,3.957.815.815,0,0,0-.428.575l-.758,4.02a.233.233,0,0,1-.232.189h-2.47a.233.233,0,0,1-.232-.189l-.421-2.224a.819.819,0,0,0-.933-.66,21.824,21.824,0,0,1-3.256.246,20.5,20.5,0,0,1-2.393-.133.828.828,0,0,0-.905.667l-.4,2.112a.233.233,0,0,1-.232.189h-2.47a.233.233,0,0,1-.232-.189l-.73-3.8A.817.817,0,0,0-39,288.49a9.242,9.242,0,0,1-5.1-8.6,10.081,10.081,0,0,1,1.263-5.108,9.239,9.239,0,0,1,3.4-3.319.519.519,0,0,0,.189-.716.519.519,0,0,0-.716-.189,9.95,9.95,0,0,0-5.052,7.43h0c-.049-.007-.1-.007-.154-.014a2.727,2.727,0,0,0-.189-1.045,2.155,2.155,0,0,0-1.586-1.389,1.456,1.456,0,0,0-1.361.6,1.365,1.365,0,0,0-.26,1.5c.267.54.94.926,2.063,1.165a.912.912,0,0,1-.105.14,2.545,2.545,0,0,1-1.951,1.031.545.545,0,0,0-.533.547h0a.548.548,0,0,0,.526.547h.119a3.4,3.4,0,0,0,2.666-1.48,2.981,2.981,0,0,0,.379-.617c.1.014.2.021.288.028h0c-.021.281-.028.568-.028.863a10.758,10.758,0,0,0,1.544,5.767,10.54,10.54,0,0,0,4.02,3.7l.709,3.691a1.284,1.284,0,0,0,1.256,1.045h2.47A1.272,1.272,0,0,0-33.9,293.03l.358-1.908a22.736,22.736,0,0,0,2.315.119,23.151,23.151,0,0,0,3.206-.225l.379,2.014a1.284,1.284,0,0,0,1.256,1.045H-23.9a1.272,1.272,0,0,0,1.256-1.045l.737-3.915a11.349,11.349,0,0,0,4.68-4.315.572.572,0,0,1,.316-.26l2.372-.758a1.967,1.967,0,0,0,1.375-1.88V279.46A1.973,1.973,0,0,0-14.545,277.58Zm-33.082-.407c-.056-.112.07-.309.154-.414a.415.415,0,0,1,.337-.2.154.154,0,0,1,.056.007,1.157,1.157,0,0,1,.758.737,1.641,1.641,0,0,1,.112.491C-46.939,277.643-47.5,277.426-47.627,277.173Z" transform="translate(275.394 219.889)"/><path class="a" d="M100.226,70.811a7.109,7.109,0,0,0,.638-2.645.523.523,0,1,0-1.045-.049,6.112,6.112,0,0,1-1.775,4.034,6.015,6.015,0,0,1-2.2,1.4,15.109,15.109,0,0,0-4.21,0,6.089,6.089,0,1,1,6.413-10.019A6.2,6.2,0,0,1,99.18,65.1a.522.522,0,1,0,.933-.47,7,7,0,0,0-1.333-1.838A7.134,7.134,0,1,0,88.691,72.88a7.367,7.367,0,0,0,1.256,1h0c-.323.084-.646.182-.968.288a.521.521,0,0,0,.33.989,14.009,14.009,0,0,1,8.841,0,.472.472,0,0,0,.168.028.533.533,0,0,0,.5-.358.521.521,0,0,0-.33-.66c-.316-.105-.638-.2-.968-.288h0a7.1,7.1,0,0,0,1.256-1A5.9,5.9,0,0,0,100.226,70.811Z" transform="translate(149.215 412.064)"/><path class="a" d="M383.7,345.5Z" transform="translate(-127.039 147.247)"/><path class="a" d="M260.784,108.671l-1.024-.253a7.465,7.465,0,0,0-1.059-4.729l.863-.589A7.452,7.452,0,0,1,260.784,108.671Z" transform="translate(-10.81 372.639)"/><text class="b" transform="translate(239.79 481.841)"><tspan x="0" y="0">S</tspan></text><path class="a" d="M89.3,181.751s-8.914-2.5-15.2,1.58.333-1.359.333-1.359a16.835,16.835,0,0,1,5.95-1.857,32.477,32.477,0,0,1,7.673.357C90.523,180.889,89.3,181.751,89.3,181.751Z" transform="translate(161.134 308.445)"/><path class="c" d="M6856.1,4285.7l-.321.885s-1.4-.451-1.8,0,.109.909,1.255,1.252a1.434,1.434,0,0,1,.544,2.517c-.961.728-.858.584-1.8.52a2.954,2.954,0,0,1-1.326-.319l.224-1.015" transform="translate(-6612.851 -3808.031)"/><path class="a" d="M6862.223,4285.156l.975.025-1.35,4.472h-1.041Z" transform="translate(-6617.61 -3807.82)"/></g></g></g></svg>