<svg xmlns="http://www.w3.org/2000/svg" viewBox="-804.652 4759 63.992 63.993"><defs><style>.a{fill:#fff;}</style></defs><g transform="translate(-1065 3867)"><g transform="translate(260.348 892)"><path class="a" d="M76.455,49.427V22.074a5.343,5.343,0,0,0-5.337-5.337H63.126v-4a1.334,1.334,0,1,0-2.669,0v4H36.467v-4a1.334,1.334,0,1,0-2.669,0v4H23.137A5.343,5.343,0,0,0,17.8,22.074V64.718a5.343,5.343,0,0,0,5.337,5.337H55.826A14.655,14.655,0,1,0,76.455,49.427ZM23.137,19.406H33.8v2.669a2.669,2.669,0,1,0,2.669,2.669V19.406h24v2.669a2.669,2.669,0,1,0,2.669,2.669V19.406h7.992A2.671,2.671,0,0,1,73.8,22.074v7.993H20.482V22.074A2.66,2.66,0,0,1,23.137,19.406Zm0,47.981a2.671,2.671,0,0,1-2.669-2.669V32.735H73.787V47.687a14.487,14.487,0,0,0-6.671-1.622A14.683,14.683,0,0,0,52.452,60.729,14.528,14.528,0,0,0,54.074,67.4H23.137Zm43.991,5.337a12,12,0,1,1,12-12A12,12,0,0,1,67.128,72.724Z" transform="translate(-17.8 -11.4)"/><path class="a" d="M386.034,317.1a1.34,1.34,0,0,0-1.334,1.334V329.1a1.334,1.334,0,1,0,2.669,0V318.434A1.34,1.34,0,0,0,386.034,317.1Z" transform="translate(-336.706 -277.111)"/><ellipse class="a" cx="1.334" cy="1.334" rx="1.334" ry="1.334" transform="translate(47.994 55.987)"/></g></g></svg>