<svg xmlns="http://www.w3.org/2000/svg" xmlns:xlink="http://www.w3.org/1999/xlink" viewBox="64 4558.955 41.517 49.25"><defs><style>.a{fill:#fff;}.b{clip-path:url(#a);}</style><clipPath id="a"><path class="a" d="M0-161.906H41.517v49.251H0Z" transform="translate(0 161.906)"/></clipPath></defs><g transform="translate(-912 3803)"><g transform="translate(976 755.955)"><g class="b"><g transform="translate(0 0)"><path class="a" d="M-72.448-11.6q.1.136.2.278a12.556,12.556,0,0,1,2.025,7.092,20.263,20.263,0,0,0,.738,5.35A5.293,5.293,0,0,1-66.406.177h.064A2.611,2.611,0,0,0-64.816-.6a1.257,1.257,0,0,0,.383-.457.955.955,0,0,0-.286-.248,10.432,10.432,0,0,1-2.723-2.841c-.725-1-1.357-2.06-1.969-3.085A31.492,31.492,0,0,0-71.8-10.853q-.313-.391-.648-.746m-7.214-3.246A9.919,9.919,0,0,0-87.214-11.3a23.825,23.825,0,0,1-5.919,5.145c-6.605,3.961-9.587,8.831-9.115,14.888l0,.044v.044A27.422,27.422,0,0,0-98.51,23.562c2.162,3.716,4.8,5.924,8.05,6.751a13.7,13.7,0,0,0,3.367.442c4.2,0,7.908-2.277,10.723-6.585A28.349,28.349,0,0,0-72.14,11.1,16.37,16.37,0,0,0-75.533-1.412c-.655-.8-1.377-1.533-2.142-2.309-.628-.638-1.279-1.3-1.884-2-1.709-1.968-2.141-4.6-1.027-6.263a4.388,4.388,0,0,1,3.706-1.957,5.175,5.175,0,0,1,2.108.456,9.46,9.46,0,0,0-4.891-1.364m-7.432,47.425a15.529,15.529,0,0,1-3.816-.5c-3.7-.941-6.79-3.5-9.178-7.6a29.191,29.191,0,0,1-3.983-15.646c-.505-6.7,2.859-12.269,10-16.55a22.043,22.043,0,0,0,5.467-4.761,11.741,11.741,0,0,1,8.944-4.193,11.8,11.8,0,0,1,9.287,4.677,33.331,33.331,0,0,1,2.531,3.824c.618,1.036,1.2,2.014,1.879,2.949a8.8,8.8,0,0,0,2.234,2.378,2.145,2.145,0,0,1,1.123,1.648A2.415,2.415,0,0,1-63.621.777,4.214,4.214,0,0,1-66.33,2h-.076a3.527,3.527,0,0,0-2.307.814,1.748,1.748,0,0,1-1.088.471c-.64,0-1.09-.436-1.339-1.295a22.212,22.212,0,0,1-.912-6.218,10.623,10.623,0,0,0-1.717-6.081,3.822,3.822,0,0,0-3.11-1.8,2.556,2.556,0,0,0-2.19,1.149c-.563.839-.384,2.584.889,4.05.568.654,1.2,1.293,1.806,1.911.759.771,1.545,1.568,2.253,2.433,3.077,3.755,4.355,8.416,3.8,13.852a30.09,30.09,0,0,1-4.519,13.885c-3.168,4.849-7.4,7.412-12.25,7.412" transform="translate(104.121 16.67)"/></g><g transform="translate(3.739 25.01)"><path class="a" d="M-4.406-4.178A1.418,1.418,0,0,0-4.212-2.8,4.532,4.532,0,0,0-.368-.884a4.408,4.408,0,0,0,2.465-.8A19.525,19.525,0,0,0-3.676-4.054l-.048-.012a3.03,3.03,0,0,0-.639-.113h-.043M-.286.944h-.1a6.307,6.307,0,0,1-5.332-2.7,3.238,3.238,0,0,1-.352-3.179A1.736,1.736,0,0,1-4.363-6a4.523,4.523,0,0,1,1.077.166l.047.012A21.159,21.159,0,0,1,3.328-3.062a1.6,1.6,0,0,1,.816,1.18A1.782,1.782,0,0,1,3.461-.457,5.856,5.856,0,0,1-.212.936Z" transform="translate(6.332 6.004)"/></g><g transform="translate(19.514 25.105)"><path class="a" d="M-4.792-9.712a4.373,4.373,0,0,0,2.252.748l.133.019c2.065-.014,3.8-1.079,4.142-2.542a1.47,1.47,0,0,0,.05-.626,1.409,1.409,0,0,0-.458,0,15.6,15.6,0,0,0-6.118,2.4M-2.45-7.12-2.6-7.129l-.192-.027A5.58,5.58,0,0,1-6.35-8.671a1.644,1.644,0,0,1-.528-1.3,1.448,1.448,0,0,1,.731-1.048,17.773,17.773,0,0,1,7.225-2.9,3.773,3.773,0,0,1,.512-.037,1.959,1.959,0,0,1,1.624.694,2.5,2.5,0,0,1,.3,2.189C2.973-8.747.521-7.12-2.45-7.12" transform="translate(6.888 13.958)"/></g></g></g></g></svg>