<svg xmlns="http://www.w3.org/2000/svg" viewBox="-568 4562.653 49.821 55.166"><defs><style>.a{fill:#fff;}</style></defs><g transform="translate(-912 3803)"><g transform="translate(344 759.653)"><g transform="translate(0 9.964)"><path class="a" d="M49.547,35.034A22.057,22.057,0,0,0,27.513,13a21.753,21.753,0,0,0-15.472,6.4.8.8,0,1,0,1.134,1.134A20.156,20.156,0,0,1,27.513,14.62,20.414,20.414,0,1,1,7.261,37.14l3.4,3.4A.8.8,0,0,0,11.8,39.408l-4.86-4.86c-.081-.081-.162-.162-.243-.162a.887.887,0,0,0-.648,0c-.081.081-.162.081-.243.162l-4.86,4.86a.875.875,0,0,0-.243.567.735.735,0,0,0,.243.567.783.783,0,0,0,1.134,0l3.564-3.564a21.994,21.994,0,0,0,43.905-1.944Zm0,0" transform="translate(-0.133 -12.433)"/><path class="a" d="M27.461,57.5A22.681,22.681,0,0,1,5.1,37.9L2.268,40.733a1.373,1.373,0,0,1-1.863,0A1.3,1.3,0,0,1,0,39.842a1.5,1.5,0,0,1,.405-.972l4.86-4.86c.162-.081.243-.243.405-.324a1.2,1.2,0,0,1,1.053,0,.809.809,0,0,1,.405.324l4.86,4.86a1.317,1.317,0,0,1-1.863,1.863L7.777,38.384a19.876,19.876,0,1,0,5.589-17.578,1.341,1.341,0,0,1-.972.405,1.683,1.683,0,0,1-.972-.405,1.341,1.341,0,0,1-.405-.972,1.683,1.683,0,0,1,.405-.972,22.511,22.511,0,0,1,38.4,15.958A22.371,22.371,0,0,1,27.461,57.5ZM5.913,35.711l.081,1.053A21.547,21.547,0,1,0,27.461,13.353a21.326,21.326,0,0,0-15.148,6.237.345.345,0,0,0,.486.486,20.837,20.837,0,1,1-6.156,16.93L6.48,35.63,10.855,40a.286.286,0,0,0,.405-.405L6.4,34.739l-.081-.081H6.075l-.081.081L1.053,39.6a.405.405,0,0,0,0,.486.368.368,0,0,0,.405,0Z" transform="translate(0 -12.3)"/></g><path class="a" d="M39.09,38.733a5.566,5.566,0,0,1,.729,2.916,6.08,6.08,0,0,1-1.539,4.293,6.58,6.58,0,0,1-4.455,2.025v2.916h-2.43V47.968c-3.24-.324-5.265-2.187-5.994-5.67l3.807-.972c.324,2.187,1.539,3.24,3.483,3.24a2.576,2.576,0,0,0,2.025-.729,2.614,2.614,0,0,0,.648-1.7,1.95,1.95,0,0,0-.648-1.539A10.2,10.2,0,0,0,31.8,39.3a21.073,21.073,0,0,1-3.159-1.377,6.121,6.121,0,0,1-1.863-1.944,5.566,5.566,0,0,1-.729-2.916,6.085,6.085,0,0,1,1.3-3.888,5.811,5.811,0,0,1,4.05-2.106V24.8h2.43v2.268a5.92,5.92,0,0,1,5.346,4.7l-3.4,1.377c-.648-1.944-1.7-2.835-3.078-2.835a2.321,2.321,0,0,0-1.7.648,2.213,2.213,0,0,0-.648,1.539,1.78,1.78,0,0,0,.648,1.458,11.228,11.228,0,0,0,2.592,1.215,30.832,30.832,0,0,1,3.483,1.539,5.4,5.4,0,0,1,2.025,2.025Z" transform="translate(-4.825 -4.711)"/><path class="a" d="M29.1,40.3" transform="translate(-5.527 -7.655)"/><path class="a" d="M26,2.511v5.1h4.212v3.159h4.455V7.534h4.05V2.592A2.465,2.465,0,0,0,36.126,0H28.511S26,.405,26,2.511Z" transform="translate(-4.938 0)"/></g></g></svg>