<svg xmlns="http://www.w3.org/2000/svg" xmlns:xlink="http://www.w3.org/1999/xlink" viewBox="-145 4567.566 51.039 47.043"><defs><style>.a{fill:#fff;}.b{clip-path:url(#a);}</style><clipPath id="a"><path class="a" d="M0-409.6H40.167v40.167H0Z" transform="translate(0 409.603)"/></clipPath></defs><g transform="translate(-912 3803)"><g transform="translate(767 771.442)"><g class="b"><g transform="translate(0 0)"><path class="a" d="M-242.124-191.82a5.465,5.465,0,0,1,.718,2.834,6,6,0,0,1-1.483,4.148,6.381,6.381,0,0,1-4.281,1.956v2.842h-2.378v-2.826q-4.667-.478-5.778-5.423l3.677-.959q.511,3.107,3.383,3.106a2.621,2.621,0,0,0,1.979-.664,2.246,2.246,0,0,0,.632-1.606,1.769,1.769,0,0,0-.632-1.476,11.428,11.428,0,0,0-2.814-1.275,16.558,16.558,0,0,1-3.064-1.346,5.064,5.064,0,0,1-1.792-1.858,5.514,5.514,0,0,1-.689-2.79,6.184,6.184,0,0,1,1.231-3.756,5.5,5.5,0,0,1,3.868-2.037v-2.194h2.378v2.194a5.751,5.751,0,0,1,5.161,4.511l-3.275,1.343q-.96-2.766-2.964-2.765a2.162,2.162,0,0,0-1.615.618,2.052,2.052,0,0,0-.611,1.5,1.677,1.677,0,0,0,.588,1.378,10.122,10.122,0,0,0,2.515,1.187,22.323,22.323,0,0,1,3.322,1.461,5.22,5.22,0,0,1,1.924,1.9m-6.241,16.8a17.594,17.594,0,0,1-17.573-17.573,17.594,17.594,0,0,1,17.573-17.573,17.594,17.594,0,0,1,17.573,17.573,17.594,17.594,0,0,1-17.573,17.573m0-37.656a20.084,20.084,0,0,0-20.083,20.083,20.084,20.084,0,0,0,20.083,20.083,20.085,20.085,0,0,0,20.083-20.083,20.084,20.084,0,0,0-20.083-20.083" transform="translate(268.449 212.676)"/></g></g></g><g transform="translate(797 764.566)"><path class="a" d="M19.783,0H1.221C.539,0,0,1.12,0,2.539S.539,5.078,1.221,5.078h18.6c.682,0,1.221-1.12,1.221-2.539S20.465,0,19.783,0Zm0,0"/></g></g></svg>