<svg xmlns="http://www.w3.org/2000/svg" xmlns:xlink="http://www.w3.org/1999/xlink" viewBox="262 4573.596 61.856 28.689"><defs><style>.a{fill:#fff;}.b{clip-path:url(#a);}</style><clipPath id="a"><path class="a" d="M0-165.285H61.856V-136.6H0Z" transform="translate(0 165.285)"/></clipPath></defs><g transform="translate(-912 3803)"><g transform="translate(1174 770.596)"><g class="b"><g transform="translate(0 0)"><path class="a" d="M-28.626-128.558a13.7,13.7,0,0,0,1.971.126c.684,0,1.434-.036,2.227-.108a28.755,28.755,0,0,0,8.674-2.056l38.408-17.91a8.815,8.815,0,0,0,2.864-1.823,3.34,3.34,0,0,0-.434-.3l-.019-.011a7.841,7.841,0,0,0-4.006-1.037,14.983,14.983,0,0,0-6.212,1.6L2.882-144.5a.782.782,0,0,1-.681-.01l-18.855-9.483-2.068.089L-6.35-141.359a.781.781,0,0,1,.213.684.781.781,0,0,1-.434.57L-20.9-133.3a.78.78,0,0,1-.613.024l-9.821-3.737-1.294.6,4.888,6.071a.781.781,0,0,1-.092,1.076Zm1.971,1.688a9.188,9.188,0,0,1-3.835-.6.781.781,0,0,1-.392-.514.781.781,0,0,1,.13-.634,6.1,6.1,0,0,1,.9-.936l.436-.384-5.045-6.265a.781.781,0,0,1-.152-.667.781.781,0,0,1,.431-.531l2.5-1.164a.78.78,0,0,1,.608-.022l9.818,3.736,13.032-6.191L-21.07-154.057a.781.781,0,0,1-.171-.834.781.781,0,0,1,.693-.495l4.03-.173a.785.785,0,0,1,.384.082l18.7,9.4,11.622-5.42a16.506,16.506,0,0,1,6.872-1.747A9.385,9.385,0,0,1,25.832-152l.021.012c.639.373,1.394.961,1.363,1.649-.02.467-.468,1.649-3.9,3.249l-38.408,17.91a30.4,30.4,0,0,1-9.2,2.2c-.84.076-1.636.114-2.367.114" transform="translate(34.639 155.56)"/></g></g></g></g></svg>