<?xml version="1.0" encoding="utf-8"?>
<!-- Generator: Adobe Illustrator 16.0.0, SVG Export Plug-In . SVG Version: 6.00 Build 0)  -->
<!DOCTYPE svg PUBLIC "-//W3C//DTD SVG 1.1//EN" "http://www.w3.org/Graphics/SVG/1.1/DTD/svg11.dtd">
<svg version="1.1" id="Capa_1" xmlns="http://www.w3.org/2000/svg" xmlns:xlink="http://www.w3.org/1999/xlink" x="0px" y="0px"
	 width="595.279px" height="841.891px" viewBox="0 0 595.279 841.891" enable-background="new 0 0 595.279 841.891"
	 xml:space="preserve">
<g transform="translate(-768.474 4558.469)">
	<g transform="translate(0 13.593)">
		<g>
			<g transform="translate(0 0)">
				<path d="M342.907,806.503H68.667c-14.455-0.022-26.16-11.753-26.152-26.208v-82.664h326.601v82.664
					C369.107,794.766,357.379,806.495,342.907,806.503 M68.667,196.904h274.24c14.447,0,26.17,11.691,26.208,26.139v17.379H42.514
					v-17.379C42.546,208.614,54.238,196.926,68.667,196.904 M42.514,262.146h326.601v413.762H42.514V262.146z M342.907,175.069
					H68.667c-26.466,0.037-47.914,21.479-47.96,47.945v557.281c0.016,26.488,21.473,47.963,47.96,48.002h274.24
					c26.486-0.031,47.94-21.516,47.933-48.002V223.042C390.832,196.567,369.382,175.099,342.907,175.069"/>
			</g>
			<g transform="translate(10.199 38.428)">
				<path d="M195.616,735.44c-12.032-0.022-21.778-9.775-21.794-21.808c0.054-12.003,9.791-21.709,21.794-21.725
					c11.978,0.038,21.674,9.746,21.696,21.725C217.328,725.64,207.623,735.395,195.616,735.44 M195.616,670.101
					c-24.035,0.022-43.516,19.497-43.546,43.532c0,24.059,19.487,43.57,43.546,43.602c24.053-0.039,43.531-19.549,43.531-43.602
					c-0.038-24.023-19.508-43.488-43.531-43.518"/>
			</g>
			<g transform="translate(9.413 2.351)">
				<path d="M152.856,227.187h43.531c6.016-0.008,10.89-4.882,10.897-10.896c-0.023-6.007-4.891-10.868-10.897-10.884h-43.531
					c-6.005,0-10.876,4.864-10.883,10.869c-0.016,6.004,4.838,10.882,10.841,10.897c0.019,0,0.037,0,0.056,0"/>
			</g>
		</g>
	</g>
	<g transform="translate(19.927 0)">
		<path d="M403.825,173.489L521.817,55.498l-31.178-31.123L372.648,142.367L403.825,173.489z"/>
		<rect x="277.394" y="0" width="43.656" height="126.432"/>
		<rect x="425.383" y="222.253" width="129.276" height="43.657"/>
	</g>
</g>
</svg>
